<svg width="25" height="26" viewBox="0 0 25 26" fill="none" xmlns="http://www.w3.org/2000/svg">
<path d="M12.503 7.70375V13.4744H16.3501C16.6052 13.4744 16.8498 13.5757 17.0302 13.7561C17.2105 13.9364 17.3119 14.1811 17.3119 14.4361C17.3119 14.6912 17.2105 14.9359 17.0302 15.1162C16.8498 15.2966 16.6052 15.3979 16.3501 15.3979H11.5413C11.2862 15.3979 11.0415 15.2966 10.8612 15.1162C10.6808 14.9359 10.5795 14.6912 10.5795 14.4361V7.70375C10.5795 7.44867 10.6808 7.20404 10.8612 7.02367C11.0415 6.84331 11.2862 6.74198 11.5413 6.74198C11.7963 6.74198 12.041 6.84331 12.2213 7.02367C12.4017 7.20404 12.503 7.44867 12.503 7.70375ZM0 5.78021C0 7.24498 0.654004 8.55588 1.68695 9.43782C1.20618 10.7293 0.960576 12.0964 0.961771 13.4744C0.961771 16.3154 1.98798 18.9161 3.69031 20.9271L1.24357 23.3739C1.15171 23.4626 1.07844 23.5687 1.02804 23.6861C0.97763 23.8034 0.951098 23.9296 0.949989 24.0573C0.948879 24.185 0.973213 24.3117 1.02157 24.4299C1.06993 24.5481 1.14135 24.6554 1.23165 24.7457C1.32195 24.836 1.42934 24.9075 1.54753 24.9558C1.66573 25.0042 1.79238 25.0285 1.92008 25.0274C2.04778 25.0263 2.17399 24.9998 2.29133 24.9494C2.40867 24.899 2.51479 24.8257 2.60351 24.7338L5.05026 22.2871C7.13171 24.0527 9.77359 25.0199 12.503 25.0156C15.3441 25.0156 17.9447 23.9894 19.9558 22.2871L22.4025 24.7338C22.5839 24.909 22.8269 25.006 23.079 25.0038C23.3312 25.0016 23.5724 24.9004 23.7508 24.7221C23.9291 24.5438 24.0302 24.3026 24.0324 24.0504C24.0346 23.7982 23.9377 23.5553 23.7625 23.3739L21.3157 20.9271C23.0813 18.8457 24.0486 16.2038 24.0443 13.4744C24.0443 12.0548 23.7875 10.6949 23.3191 9.43782C23.8225 9.00672 24.2313 8.47622 24.52 7.87961C24.8086 7.283 24.9708 6.63316 24.9964 5.97089C25.022 5.30862 24.9104 4.64821 24.6686 4.03112C24.4269 3.41402 24.0602 2.85356 23.5915 2.38491C23.1229 1.91627 22.5624 1.54955 21.9453 1.30779C21.3282 1.06603 20.6678 0.954434 20.0055 0.980015C19.3433 1.0056 18.6934 1.1678 18.0968 1.45644C17.5002 1.74508 16.9697 2.15394 16.5386 2.65734C15.2474 2.17734 13.8806 1.93239 12.503 1.93408C11.0834 1.93408 9.7235 2.19088 8.46647 2.65926C7.82808 1.91134 6.97574 1.37711 6.02435 1.12856C5.07296 0.880017 4.06823 0.929104 3.1456 1.26921C2.22297 1.60931 1.42677 2.22409 0.864324 3.03067C0.301878 3.83726 0.000217084 4.79688 0 5.78021ZM1.92354 5.78021C1.9235 5.23502 2.07793 4.70098 2.36892 4.23995C2.65991 3.77892 3.07557 3.40977 3.56774 3.17526C4.05991 2.94075 4.60845 2.85048 5.14981 2.9149C5.69118 2.97933 6.20321 3.19581 6.6266 3.53928C4.95505 4.53077 3.55942 5.9264 2.56793 7.59795C2.151 7.08388 1.92348 6.4421 1.92354 5.78021ZM23.0825 5.78021C23.0825 6.46883 22.8411 7.10168 22.4381 7.59795C21.4466 5.9264 20.051 4.53077 18.3794 3.53928C18.8028 3.19581 19.3149 2.97933 19.8562 2.9149C20.3976 2.85048 20.9461 2.94075 21.4383 3.17526C21.9305 3.40977 22.3461 3.77892 22.6371 4.23995C22.9281 4.70098 23.0825 5.23502 23.0825 5.78021ZM12.503 3.85666C17.8149 3.85666 22.1207 8.16251 22.1207 13.4744C22.1207 18.7862 17.8149 23.0921 12.503 23.0921C7.19116 23.0921 2.88531 18.7862 2.88531 13.4744C2.88531 8.16251 7.19116 3.85666 12.503 3.85666Z" fill="black"/>
</svg>
