<svg width="44" height="33" viewBox="0 0 44 33" fill="none" xmlns="http://www.w3.org/2000/svg">
<path d="M42.7246 15.1241C40.7846 6.35498 37.8649 1.67456 33.5338 0.396086C32.6234 0.129058 31.6791 -0.00432796 30.7303 0.000107055C29.4763 0.000107055 28.3842 0.30555 27.2289 0.629284C25.8368 1.01978 24.2553 1.46331 21.9493 1.46331C19.6434 1.46331 18.061 1.02069 16.6661 0.630198C15.5099 0.30555 14.4187 0.000107055 13.1683 0.000107055C12.1873 -0.00334143 11.2105 0.12962 10.266 0.395172C5.95787 1.66816 3.04002 6.34675 1.07161 15.1186C-1.04498 24.5581 -0.00314696 30.5179 3.99312 31.9007C4.5409 32.0937 5.11727 32.1933 5.6981 32.1951C8.43575 32.1951 10.631 29.9153 12.1311 28.0488C13.826 25.9363 15.81 24.8645 21.9493 24.8645C27.4329 24.8645 29.7022 25.608 31.6624 28.0488C32.8945 29.5833 34.0589 30.6569 35.2205 31.3327C36.7654 32.2308 38.3094 32.4301 39.8086 31.9153C42.1703 31.1096 43.5241 28.9797 43.8332 25.5833C44.0683 22.9788 43.7061 19.5576 42.7246 15.1241ZM17.5588 14.6321H14.6318V17.5585C14.6318 17.9466 14.4777 18.3188 14.2032 18.5932C13.9287 18.8676 13.5565 19.0217 13.1683 19.0217C12.7802 19.0217 12.408 18.8676 12.1335 18.5932C11.859 18.3188 11.7048 17.9466 11.7048 17.5585V14.6321H8.77785C8.3897 14.6321 8.01746 14.478 7.743 14.2036C7.46854 13.9292 7.31435 13.557 7.31435 13.1689C7.31435 12.7809 7.46854 12.4087 7.743 12.1343C8.01746 11.8599 8.3897 11.7057 8.77785 11.7057H11.7048V8.77932C11.7048 8.39125 11.859 8.01908 12.1335 7.74468C12.408 7.47028 12.7802 7.31612 13.1683 7.31612C13.5565 7.31612 13.9287 7.47028 14.2032 7.74468C14.4777 8.01908 14.6318 8.39125 14.6318 8.77932V11.7057H17.5588C17.947 11.7057 18.3192 11.8599 18.5937 12.1343C18.8681 12.4087 19.0223 12.7809 19.0223 13.1689C19.0223 13.557 18.8681 13.9292 18.5937 14.2036C18.3192 14.478 17.947 14.6321 17.5588 14.6321ZM25.2422 14.9979C24.8804 14.9979 24.5267 14.8907 24.2259 14.6897C23.925 14.4887 23.6905 14.2031 23.5521 13.8689C23.4136 13.5346 23.3774 13.1669 23.448 12.8121C23.5186 12.4573 23.6928 12.1314 23.9486 11.8756C24.2045 11.6198 24.5305 11.4456 24.8853 11.3751C25.2402 11.3045 25.608 11.3407 25.9423 11.4791C26.2766 11.6176 26.5623 11.852 26.7633 12.1528C26.9643 12.4536 27.0716 12.8072 27.0716 13.1689C27.0716 13.654 26.8788 14.1192 26.5358 14.4622C26.1927 14.8052 25.7274 14.9979 25.2422 14.9979ZM29.2668 19.0217C28.9048 19.0217 28.5509 18.9143 28.25 18.7132C27.9491 18.512 27.7146 18.2261 27.5763 17.8916C27.438 17.5571 27.402 17.1891 27.4729 16.8342C27.5439 16.4793 27.7186 16.1534 27.9749 15.8978C28.2312 15.6422 28.5576 15.4684 28.9127 15.3983C29.2679 15.3283 29.6359 15.3651 29.9701 15.5043C30.3043 15.6434 30.5897 15.8785 30.7901 16.1799C30.9906 16.4813 31.0971 16.8354 31.0962 17.1973C31.095 17.6816 30.9017 18.1456 30.5588 18.4876C30.2158 18.8297 29.7512 19.0217 29.2668 19.0217ZM29.2668 10.9741C28.905 10.9741 28.5513 10.8669 28.2505 10.6659C27.9496 10.4649 27.7152 10.1793 27.5767 9.84505C27.4382 9.51084 27.402 9.14309 27.4726 8.7883C27.5432 8.43351 27.7174 8.10761 27.9733 7.85182C28.2291 7.59603 28.5551 7.42183 28.9099 7.35126C29.2648 7.28069 29.6326 7.31691 29.9669 7.45534C30.3012 7.59377 30.5869 7.8282 30.7879 8.12898C30.9889 8.42976 31.0962 8.78338 31.0962 9.14512C31.0962 9.6302 30.9035 10.0954 30.5604 10.4384C30.2173 10.7814 29.752 10.9741 29.2668 10.9741ZM33.2915 14.9979C32.9296 14.9979 32.5759 14.8907 32.2751 14.6897C31.9743 14.4887 31.7398 14.2031 31.6013 13.8689C31.4629 13.5346 31.4266 13.1669 31.4972 12.8121C31.5678 12.4573 31.742 12.1314 31.9979 11.8756C32.2537 11.6198 32.5797 11.4456 32.9346 11.3751C33.2894 11.3045 33.6572 11.3407 33.9915 11.4791C34.3258 11.6176 34.6115 11.852 34.8125 12.1528C35.0135 12.4536 35.1208 12.8072 35.1208 13.1689C35.1208 13.654 34.9281 14.1192 34.585 14.4622C34.2419 14.8052 33.7766 14.9979 33.2915 14.9979Z" fill="black"/>
</svg>
