<svg width="29" height="28" viewBox="0 0 29 28" fill="none" xmlns="http://www.w3.org/2000/svg">
<path d="M28.2416 11.2581H27.1128V11.2H14.5V16.8H22.4201C21.2647 20.0599 18.1598 22.4 14.5 22.4C9.85638 22.4 6.09146 18.6389 6.09146 14C6.09146 9.36108 9.85638 5.59998 14.5 5.59998C16.6435 5.59998 18.5936 6.40778 20.0784 7.72728L24.0423 3.76738C21.5393 1.43708 18.1913 -1.52588e-05 14.5 -1.52588e-05C6.76064 -1.52588e-05 0.485771 6.26848 0.485771 14C0.485771 21.7315 6.76064 28 14.5 28C22.2394 28 28.5142 21.7315 28.5142 14C28.5142 13.0613 28.4175 12.145 28.2416 11.2581Z" fill="#FFC107"/>
<path d="M2.10162 7.48368L6.70599 10.857C7.95186 7.77558 10.9691 5.59998 14.5 5.59998C16.6435 5.59998 18.5936 6.40778 20.0784 7.72728L24.0423 3.76738C21.5394 1.43708 18.1914 -1.52588e-05 14.5 -1.52588e-05C9.11714 -1.52588e-05 4.449 3.03588 2.10162 7.48368Z" fill="#FF3D00"/>
<path d="M14.5 28C18.1199 28 21.409 26.6161 23.8959 24.3656L19.5585 20.699C18.1044 21.8043 16.3272 22.402 14.5 22.4C10.8549 22.4 7.75988 20.0781 6.5939 16.8378L2.02386 20.3553C4.34321 24.8892 9.05339 28 14.5 28Z" fill="#4CAF50"/>
<path d="M28.2416 11.2581H27.1127V11.2H14.4999V16.8H22.4201C21.8674 18.3515 20.8717 19.7072 19.5563 20.6997L19.5584 20.6983L23.8958 24.3649C23.5889 24.6435 28.5142 21 28.5142 14C28.5142 13.0613 28.4175 12.145 28.2416 11.2581Z" fill="#1976D2"/>
</svg>
