<svg width="114" height="38" viewBox="0 0 114 38" fill="none" xmlns="http://www.w3.org/2000/svg">
<path d="M113.016 18.0527C113.016 19.8118 112.797 21.3639 112.357 22.7091C111.917 24.0543 111.27 25.2055 110.417 26.1626C109.589 27.0939 108.58 27.8053 107.39 28.2968C106.2 28.7625 104.868 28.9953 103.393 28.9953C102.022 28.9953 100.742 28.7625 99.5516 28.2968C98.3875 27.8053 97.3786 27.0939 96.5249 26.1626C95.6971 25.2055 95.0504 24.0543 94.5848 22.7091C94.1191 21.3639 93.8863 19.8118 93.8863 18.0527C93.8863 15.7245 94.2614 13.7584 95.0116 12.1545C95.7877 10.5248 96.9 9.29601 98.3487 8.4682C99.7974 7.61452 101.518 7.18768 103.51 7.18768C105.372 7.18768 107.015 7.61452 108.438 8.4682C109.86 9.29601 110.973 10.5248 111.775 12.1545C112.603 13.7584 113.016 15.7245 113.016 18.0527ZM99.1248 18.0527C99.1248 19.5272 99.28 20.7948 99.5904 21.8554C99.9008 22.8902 100.366 23.6792 100.987 24.2225C101.634 24.7657 102.462 25.0373 103.471 25.0373C104.48 25.0373 105.295 24.7657 105.915 24.2225C106.562 23.6792 107.028 22.8902 107.312 21.8554C107.623 20.7948 107.778 19.5272 107.778 18.0527C107.778 16.5523 107.623 15.2976 107.312 14.2887C107.002 13.254 106.523 12.4779 105.877 11.9605C105.256 11.4173 104.441 11.1457 103.432 11.1457C101.906 11.1457 100.806 11.7406 100.134 12.9306C99.4611 14.1206 99.1248 15.828 99.1248 18.0527Z" fill="black"/>
<path d="M78.6047 7.18768C79.8982 7.18768 81.0235 7.44637 81.9806 7.96376C82.9378 8.48114 83.7397 9.25721 84.3865 10.292H84.5417L85.0073 7.57572H89.3533V28.7625C89.3533 30.7544 88.9912 32.4229 88.2668 33.7681C87.5425 35.1392 86.456 36.174 85.0073 36.8724C83.5845 37.5709 81.7737 37.9201 79.5748 37.9201C78.1003 37.9201 76.7551 37.8166 75.5392 37.6097C74.3493 37.4286 73.211 37.1052 72.1245 36.6396V32.604C72.8747 32.9403 73.6379 33.2249 74.4139 33.4577C75.2159 33.7164 76.0437 33.9104 76.8974 34.0398C77.751 34.1691 78.6565 34.2338 79.6136 34.2338C81.114 34.2338 82.2523 33.7811 83.0283 32.8757C83.8303 31.9702 84.2312 30.6768 84.2312 28.9953V28.452C84.2312 28.064 84.2442 27.6113 84.27 27.0939C84.3218 26.5765 84.3606 26.1626 84.3865 25.8522H84.2312C83.6104 26.9387 82.8343 27.7406 81.903 28.258C80.9717 28.7495 79.8464 28.9953 78.5271 28.9953C76.173 28.9953 74.3105 28.0381 72.9394 26.1238C71.5942 24.2095 70.9216 21.545 70.9216 18.1303C70.9216 15.8279 71.232 13.8619 71.8529 12.2322C72.4738 10.6024 73.3533 9.36069 74.4915 8.50701C75.6556 7.62746 77.0267 7.18768 78.6047 7.18768ZM80.1569 11.1845C79.2773 11.1845 78.5401 11.4561 77.9451 11.9993C77.3759 12.5167 76.9362 13.2928 76.6257 14.3275C76.3153 15.3623 76.1601 16.6558 76.1601 18.2079C76.1601 20.4844 76.4964 22.2047 77.169 23.3688C77.8416 24.5329 78.8505 25.1149 80.1957 25.1149C80.9717 25.1149 81.6314 25.0115 82.1747 24.8045C82.7179 24.5717 83.1577 24.2095 83.494 23.718C83.8303 23.2006 84.089 22.5539 84.27 21.7778C84.4511 20.9759 84.5417 20.0187 84.5417 18.9064V18.1691C84.5417 16.4876 84.3865 15.1424 84.076 14.1335C83.7915 13.0988 83.3258 12.3486 82.6791 11.8829C82.0324 11.4173 81.1916 11.1845 80.1569 11.1845Z" fill="black"/>
<path d="M59.3838 7.18768C61.5827 7.18768 63.3159 7.79561 64.5835 9.01145C65.851 10.2273 66.4848 12.1933 66.4848 14.9096V28.6073H61.324V15.8797C61.324 14.3017 61.0523 13.1246 60.5091 12.3486C59.9658 11.5466 59.1122 11.1456 57.9481 11.1456C56.2148 11.1456 55.0378 11.7665 54.4169 13.0082C53.7961 14.2241 53.4856 15.9961 53.4856 18.3243V28.6073H48.3248V7.57572H52.2827L53.02 10.3308H53.214C53.6797 9.60644 54.2229 9.01145 54.8438 8.54581C55.4646 8.08017 56.1631 7.74387 56.9392 7.53692C57.7152 7.30409 58.5301 7.18768 59.3838 7.18768Z" fill="black"/>
<path d="M35.0298 7.18768C37.565 7.18768 39.5052 7.78267 40.8504 8.97265C42.1956 10.1368 42.8682 11.9735 42.8682 14.4828V28.6073H39.2594L38.2505 25.697H38.0953C37.5262 26.4472 36.9441 27.081 36.3491 27.5984C35.7542 28.0899 35.0686 28.4391 34.2926 28.6461C33.5165 28.8789 32.5852 28.9953 31.4987 28.9953C30.3346 28.9953 29.2869 28.7625 28.3556 28.2968C27.4243 27.8312 26.6871 27.1198 26.1438 26.1626C25.6006 25.1796 25.3289 23.9508 25.3289 22.4763C25.3289 20.3033 26.0791 18.6735 27.5795 17.587C29.0799 16.4747 31.3306 15.8668 34.3314 15.7633L37.7073 15.6469V14.5992C37.7073 13.254 37.4227 12.2968 36.8536 11.7277C36.2845 11.1586 35.5084 10.874 34.5254 10.874C33.5941 10.874 32.6499 11.0292 31.6927 11.3397C30.7614 11.6501 29.8431 12.0123 28.9377 12.4262L27.3467 9.01145C28.4073 8.4682 29.5844 8.02843 30.8778 7.69213C32.1713 7.35583 33.5553 7.18768 35.0298 7.18768ZM35.5343 18.7512C33.6976 18.8288 32.4171 19.2039 31.6927 19.8765C30.9684 20.5232 30.6062 21.4027 30.6062 22.5151C30.6062 23.4981 30.852 24.2095 31.3435 24.6493C31.8609 25.0891 32.5335 25.309 33.3613 25.309C34.5771 25.309 35.6119 24.908 36.4656 24.1061C37.3192 23.2782 37.7461 22.0624 37.7461 20.4585V18.6735L35.5343 18.7512Z" fill="black"/>
<path d="M21.7055 14.4829C21.7055 17.5872 21.1493 20.187 20.0369 22.2824C18.9504 24.3778 17.3724 25.9558 15.3029 27.0164C13.2333 28.0771 10.7499 28.6074 7.85257 28.6074H0.24707V0.901611H8.62864C11.319 0.901611 13.6472 1.41899 15.6133 2.45376C17.5793 3.48852 19.0797 5.01479 20.1145 7.03258C21.1751 9.0245 21.7055 11.5079 21.7055 14.4829ZM16.2729 14.6381C16.2729 12.4392 15.9755 10.6284 15.3805 9.20558C14.8113 7.78278 13.9447 6.73509 12.7806 6.06249C11.6424 5.36402 10.2325 5.01479 8.55104 5.01479H5.44675V24.4554H7.96898C10.7628 24.4554 12.8453 23.6405 14.2164 22.0108C15.5874 20.3551 16.2729 17.8976 16.2729 14.6381Z" fill="black"/>
</svg>
