<svg width="123" height="87" viewBox="0 0 123 87" fill="none" xmlns="http://www.w3.org/2000/svg">
<path d="M118.016 67.0529C118.016 68.812 117.797 70.3641 117.357 71.7093C116.917 73.0545 116.27 74.2057 115.417 75.1628C114.589 76.0941 113.58 76.8055 112.39 77.297C111.2 77.7627 109.868 77.9955 108.393 77.9955C107.022 77.9955 105.742 77.7627 104.552 77.297C103.388 76.8055 102.379 76.0941 101.525 75.1628C100.697 74.2057 100.05 73.0545 99.5848 71.7093C99.1191 70.3641 98.8863 68.812 98.8863 67.0529C98.8863 64.7247 99.2614 62.7586 100.012 61.1547C100.788 59.525 101.9 58.2962 103.349 57.4684C104.797 56.6147 106.518 56.1879 108.51 56.1879C110.372 56.1879 112.015 56.6147 113.438 57.4684C114.86 58.2962 115.973 59.525 116.775 61.1547C117.603 62.7586 118.016 64.7247 118.016 67.0529ZM104.125 67.0529C104.125 68.5274 104.28 69.795 104.59 70.8556C104.901 71.8904 105.366 72.6794 105.987 73.2226C106.634 73.7659 107.462 74.0375 108.471 74.0375C109.48 74.0375 110.295 73.7659 110.915 73.2226C111.562 72.6794 112.028 71.8904 112.312 70.8556C112.623 69.795 112.778 68.5274 112.778 67.0529C112.778 65.5525 112.623 64.2978 112.312 63.2889C112.002 62.2542 111.523 61.4781 110.877 60.9607C110.256 60.4175 109.441 60.1458 108.432 60.1458C106.906 60.1458 105.806 60.7408 105.134 61.9308C104.461 63.1208 104.125 64.8281 104.125 67.0529Z" fill="black"/>
<path d="M83.6047 56.1879C84.8982 56.1879 86.0235 56.4466 86.9807 56.9639C87.9378 57.4813 88.7398 58.2574 89.3865 59.2922H89.5417L90.0073 56.5759H94.3533V77.7627C94.3533 79.7546 93.9912 81.4231 93.2668 82.7683C92.5425 84.1394 91.456 85.1741 90.0073 85.8726C88.5845 86.5711 86.7737 86.9203 84.5748 86.9203C83.1003 86.9203 81.7551 86.8168 80.5393 86.6099C79.3493 86.4288 78.2111 86.1054 77.1245 85.6398V81.6042C77.8748 81.9405 78.6379 82.2251 79.414 82.4579C80.2159 82.7166 81.0437 82.9106 81.8974 83.0399C82.7511 83.1693 83.6565 83.234 84.6136 83.234C86.114 83.234 87.2523 82.7813 88.0284 81.8758C88.8303 80.9704 89.2313 79.677 89.2313 77.9955V77.4522C89.2313 77.0642 89.2442 76.6115 89.2701 76.0941C89.3218 75.5767 89.3606 75.1628 89.3865 74.8524H89.2313C88.6104 75.9389 87.8343 76.7408 86.9031 77.2582C85.9718 77.7497 84.8465 77.9955 83.5271 77.9955C81.1731 77.9955 79.3105 77.0383 77.9394 75.124C76.5942 73.2097 75.9216 70.5452 75.9216 67.1305C75.9216 64.8281 76.2321 62.8621 76.8529 61.2323C77.4738 59.6026 78.3533 58.3609 79.4916 57.5072C80.6557 56.6276 82.0267 56.1879 83.6047 56.1879ZM85.1569 60.1846C84.2773 60.1846 83.5401 60.4563 82.9451 60.9995C82.376 61.5169 81.9362 62.293 81.6258 63.3277C81.3153 64.3625 81.1601 65.6559 81.1601 67.2081C81.1601 69.4846 81.4964 71.2049 82.169 72.369C82.8416 73.5331 83.8505 74.1151 85.1957 74.1151C85.9718 74.1151 86.6314 74.0116 87.1747 73.8047C87.7179 73.5719 88.1577 73.2097 88.494 72.7182C88.8303 72.2008 89.089 71.5541 89.2701 70.778C89.4512 69.9761 89.5417 69.0189 89.5417 67.9066V67.1693C89.5417 65.4878 89.3865 64.1426 89.0761 63.1337C88.7915 62.0989 88.3258 61.3487 87.6791 60.8831C87.0324 60.4175 86.1916 60.1846 85.1569 60.1846Z" fill="black"/>
<path d="M64.3838 56.1879C66.5827 56.1879 68.3159 56.7958 69.5835 58.0116C70.8511 59.2275 71.4848 61.1935 71.4848 63.9098V77.6074H66.324V64.8799C66.324 63.3019 66.0523 62.1248 65.5091 61.3487C64.9658 60.5468 64.1122 60.1458 62.9481 60.1458C61.2148 60.1458 60.0378 60.7667 59.4169 62.0084C58.7961 63.2243 58.4856 64.9963 58.4856 67.3245V77.6074H53.3248V56.5759H57.2827L58.02 59.331H58.214C58.6797 58.6066 59.2229 58.0116 59.8438 57.546C60.4646 57.0803 61.1631 56.7441 61.9392 56.5371C62.7152 56.3043 63.5301 56.1879 64.3838 56.1879Z" fill="black"/>
<path d="M40.0298 56.1879C42.565 56.1879 44.5052 56.7829 45.8504 57.9728C47.1955 59.1369 47.8681 60.9736 47.8681 63.4829V77.6075H44.2594L43.2505 74.6972H43.0953C42.5262 75.4474 41.9441 76.0812 41.3491 76.5986C40.7541 77.0901 40.0686 77.4393 39.2925 77.6463C38.5165 77.8791 37.5852 77.9955 36.4987 77.9955C35.3346 77.9955 34.2869 77.7627 33.3556 77.297C32.4243 76.8314 31.687 76.12 31.1438 75.1628C30.6005 74.1798 30.3289 72.951 30.3289 71.4765C30.3289 69.3035 31.0791 67.6737 32.5795 66.5872C34.0799 65.4749 36.3305 64.8669 39.3314 64.7635L42.7073 64.6471V63.5994C42.7073 62.2542 42.4227 61.297 41.8536 60.7279C41.2845 60.1588 40.5084 59.8742 39.5254 59.8742C38.5941 59.8742 37.6499 60.0294 36.6927 60.3399C35.7614 60.6503 34.8431 61.0124 33.9377 61.4264L32.3467 58.0116C33.4073 57.4684 34.5844 57.0286 35.8778 56.6923C37.1713 56.356 38.5553 56.1879 40.0298 56.1879ZM40.5343 67.7513C38.6976 67.8289 37.417 68.204 36.6927 68.8766C35.9684 69.5234 35.6062 70.4029 35.6062 71.5153C35.6062 72.4983 35.852 73.2097 36.3435 73.6495C36.8609 74.0893 37.5335 74.3091 38.3613 74.3091C39.5771 74.3091 40.6119 73.9082 41.4655 73.1062C42.3192 72.2784 42.7461 71.0626 42.7461 69.4587V67.6737L40.5343 67.7513Z" fill="black"/>
<path d="M26.7054 63.483C26.7054 66.5873 26.1493 69.1871 25.0369 71.2825C23.9504 73.3779 22.3724 74.9559 20.3029 76.0166C18.2333 77.0772 15.7499 77.6075 12.8526 77.6075H5.24707V49.9017H13.6286C16.319 49.9017 18.6472 50.4191 20.6133 51.4539C22.5793 52.4886 24.0797 54.0149 25.1145 56.0327C26.1751 58.0246 26.7054 60.508 26.7054 63.483ZM21.2729 63.6382C21.2729 61.4393 20.9755 59.6285 20.3805 58.2057C19.8113 56.7829 18.9447 55.7352 17.7806 55.0626C16.6424 54.3641 15.2325 54.0149 13.551 54.0149H10.4467V73.4555H12.969C15.7628 73.4555 17.8453 72.6406 19.2164 71.0109C20.5874 69.3553 21.2729 66.8977 21.2729 63.6382Z" fill="black"/>
<path d="M121 19.0001H2" stroke="black" stroke-width="4" stroke-linecap="round"/>
<path d="M86.8296 2.00005C96.3423 2.00005 104.054 9.71157 104.054 19.2242C104.054 28.7368 96.3423 36.4484 86.8296 36.4484C77.317 36.4484 69.6055 28.7368 69.6055 19.2242C69.6055 9.71157 77.317 2.00005 86.8296 2.00005Z" fill="#4CAF50" stroke="black" stroke-width="4"/>
<path d="M56.2286 2.00005C65.7412 2.00005 73.4527 9.71157 73.4527 19.2242C73.4527 28.7368 65.7412 36.4484 56.2286 36.4484C46.7159 36.4484 39.0044 28.7368 39.0044 19.2242C39.0044 9.71157 46.7159 2.00005 56.2286 2.00005Z" fill="#FFC0CB" stroke="black" stroke-width="4"/>
<path d="M25.6254 2.00005C35.138 2.00005 42.8496 9.71157 42.8496 19.2242C42.8496 28.7368 35.138 36.4484 25.6254 36.4484C16.1128 36.4484 8.40124 28.7368 8.40124 19.2242C8.40124 9.71157 16.1128 2.00005 25.6254 2.00005Z" fill="#FFFFF0" stroke="black" stroke-width="4"/>
</svg>
