<svg width="123" height="39" viewBox="0 0 123 39" fill="none" xmlns="http://www.w3.org/2000/svg">
<path d="M121 18.9999H2" stroke="black" stroke-width="4" stroke-linecap="round"/>
<path d="M86.8296 1.99987C96.3423 1.99987 104.054 9.71138 104.054 19.224C104.054 28.7367 96.3423 36.4482 86.8296 36.4482C77.317 36.4482 69.6055 28.7367 69.6055 19.224C69.6055 9.71139 77.317 1.99987 86.8296 1.99987Z" fill="#4CAF50" stroke="black" stroke-width="4"/>
<path d="M56.2286 1.99987C65.7412 1.99987 73.4527 9.71138 73.4527 19.224C73.4527 28.7367 65.7412 36.4482 56.2286 36.4482C46.7159 36.4482 39.0044 28.7367 39.0044 19.224C39.0044 9.71139 46.7159 1.99987 56.2286 1.99987Z" fill="#FFC0CB" stroke="black" stroke-width="4"/>
<path d="M25.6254 1.99987C35.138 1.99987 42.8496 9.71138 42.8496 19.224C42.8496 28.7367 35.138 36.4482 25.6254 36.4482C16.1128 36.4482 8.40124 28.7367 8.40124 19.224C8.40124 9.71138 16.1128 1.99987 25.6254 1.99987Z" fill="#FFFFF0" stroke="black" stroke-width="4"/>
</svg>
