<svg width="40" height="37" viewBox="0 0 40 37" fill="none" xmlns="http://www.w3.org/2000/svg">
<path d="M4 36.5957C2.9 36.5957 1.95867 36.1979 1.176 35.4023C0.393333 34.6067 0.00133333 33.6491 0 32.5295V4.06619C0 2.94799 0.392 1.99108 1.176 1.19546C1.96 0.399842 2.90133 0.0013554 4 0H36C37.1 0 38.042 0.398487 38.826 1.19546C39.61 1.99243 40.0013 2.94935 40 4.06619V32.5295C40 33.6478 39.6087 34.6053 38.826 35.4023C38.0433 36.1993 37.1013 36.5971 36 36.5957H4ZM6 28.4634H16V24.3972H6V28.4634ZM25.1 24.3972L35 14.3333L32.15 11.4362L25.1 18.6537L22.25 15.7565L19.45 18.6537L25.1 24.3972ZM6 20.331H16V16.2648H6V20.331ZM6 12.1986H16V8.13239H6V12.1986Z" fill="white"/>
</svg>
