<svg width="40" height="30" viewBox="0 0 40 30" fill="none" xmlns="http://www.w3.org/2000/svg">
<path d="M38.6406 13.6784C36.886 5.74752 34.2454 1.51449 30.3284 0.358225C29.505 0.116722 28.6509 -0.00391426 27.7929 9.68218e-05C26.6587 9.68218e-05 25.671 0.276343 24.6261 0.569132C23.3671 0.922297 21.9367 1.32343 19.8512 1.32343C17.7657 1.32343 16.3346 0.923124 15.073 0.569959C14.0274 0.276343 13.0405 9.68218e-05 11.9096 9.68218e-05C11.0223 -0.00302203 10.1389 0.11723 9.28473 0.357398C5.38837 1.5087 2.74943 5.74007 0.969177 13.6735C-0.945088 22.2107 -0.00284615 27.6008 3.61142 28.8513C4.10684 29.026 4.62812 29.116 5.15342 29.1176C7.62939 29.1176 9.6148 27.0557 10.9715 25.3676C12.5044 23.4571 14.2987 22.4877 19.8512 22.4877C24.8106 22.4877 26.863 23.1601 28.6358 25.3676C29.7502 26.7555 30.8032 27.7265 31.8539 28.3377C33.2511 29.1499 34.6475 29.3302 36.0034 28.8646C38.1393 28.1359 39.3637 26.2096 39.6433 23.1378C39.8559 20.7823 39.5283 17.6882 38.6406 13.6784ZM15.8804 13.2335H13.2332V15.8801C13.2332 16.2311 13.0938 16.5677 12.8455 16.8159C12.5973 17.0641 12.2606 17.2035 11.9096 17.2035C11.5586 17.2035 11.2219 17.0641 10.9737 16.8159C10.7254 16.5677 10.586 16.2311 10.586 15.8801V13.2335H7.93879C7.58775 13.2335 7.25108 13.094 7.00286 12.8459C6.75463 12.5977 6.61518 12.2611 6.61518 11.9101C6.61518 11.5592 6.75463 11.2226 7.00286 10.9744C7.25108 10.7262 7.58775 10.5868 7.93879 10.5868H10.586V7.94012C10.586 7.58915 10.7254 7.25255 10.9737 7.00438C11.2219 6.7562 11.5586 6.61678 11.9096 6.61678C12.2606 6.61678 12.5973 6.7562 12.8455 7.00438C13.0938 7.25255 13.2332 7.58915 13.2332 7.94012V10.5868H15.8804C16.2315 10.5868 16.5681 10.7262 16.8164 10.9744C17.0646 11.2226 17.204 11.5592 17.204 11.9101C17.204 12.2611 17.0646 12.5977 16.8164 12.8459C16.5681 13.094 16.2315 13.2335 15.8804 13.2335ZM22.8294 13.5643C22.5021 13.5643 22.1822 13.4673 21.9102 13.2855C21.6381 13.1038 21.426 12.8454 21.3008 12.5432C21.1756 12.2409 21.1428 11.9083 21.2066 11.5874C21.2705 11.2665 21.428 10.9718 21.6594 10.7405C21.8908 10.5091 22.1856 10.3516 22.5066 10.2877C22.8275 10.2239 23.1602 10.2567 23.4625 10.3819C23.7648 10.5071 24.0232 10.7191 24.205 10.9911C24.3868 11.2631 24.4839 11.583 24.4839 11.9101C24.4839 12.3488 24.3095 12.7696 23.9993 13.0798C23.689 13.39 23.2682 13.5643 22.8294 13.5643ZM26.4693 17.2035C26.1419 17.2035 25.8218 17.1064 25.5496 16.9244C25.2775 16.7425 25.0654 16.4839 24.9403 16.1814C24.8152 15.8789 24.7827 15.5461 24.8469 15.2251C24.911 14.9041 25.069 14.6093 25.3008 14.3782C25.5326 14.147 25.8278 13.9898 26.149 13.9264C26.4702 13.8631 26.803 13.8964 27.1053 14.0222C27.4075 14.1481 27.6656 14.3607 27.847 14.6333C28.0283 14.9059 28.1246 15.2261 28.1238 15.5534C28.1227 15.9914 27.9479 16.4111 27.6377 16.7204C27.3276 17.0298 26.9074 17.2035 26.4693 17.2035ZM26.4693 9.92512C26.142 9.92512 25.8222 9.82811 25.5501 9.64635C25.278 9.46458 25.0659 9.20624 24.9407 8.90398C24.8155 8.60172 24.7827 8.26912 24.8466 7.94824C24.9104 7.62736 25.068 7.33262 25.2994 7.10128C25.5307 6.86994 25.8255 6.71239 26.1465 6.64857C26.4674 6.58474 26.8001 6.6175 27.1024 6.7427C27.4047 6.8679 27.6631 7.07992 27.8449 7.35194C28.0267 7.62397 28.1238 7.94379 28.1238 8.27095C28.1238 8.70967 27.9495 9.13041 27.6392 9.44063C27.3289 9.75085 26.9081 9.92512 26.4693 9.92512ZM30.1092 13.5643C29.782 13.5643 29.4621 13.4673 29.19 13.2855C28.9179 13.1038 28.7058 12.8454 28.5806 12.5432C28.4554 12.2409 28.4226 11.9083 28.4865 11.5874C28.5503 11.2665 28.7079 10.9718 28.9393 10.7405C29.1707 10.5091 29.4655 10.3516 29.7864 10.2877C30.1073 10.2239 30.44 10.2567 30.7423 10.3819C31.0447 10.5071 31.3031 10.7191 31.4849 10.9911C31.6667 11.2631 31.7637 11.583 31.7637 11.9101C31.7637 12.3488 31.5894 12.7696 31.2791 13.0798C30.9688 13.39 30.548 13.5643 30.1092 13.5643Z" fill="white"/>
</svg>
