<svg width="70" height="52" viewBox="0 0 70 52" fill="none" xmlns="http://www.w3.org/2000/svg">
<path fill-rule="evenodd" clip-rule="evenodd" d="M2.59417e-05 10.9848C0.00358924 10.5345 0.37152 10.1724 0.821823 10.1759L69.1911 10.7169C69.6414 10.7205 70.0035 11.0884 70 11.5387C69.9964 11.989 69.6285 12.3512 69.1782 12.3476L0.808919 11.8066C0.358617 11.803 -0.00353736 11.4351 2.59417e-05 10.9848Z" fill="white"/>
<ellipse cx="50.1271" cy="11.3107" rx="11.3107" ry="11.3107" transform="rotate(-90 50.1271 11.3107)" fill="#4CAF50"/>
<ellipse cx="32.1232" cy="11.3107" rx="11.3107" ry="11.3107" transform="rotate(-90 32.1232 11.3107)" fill="#FFC0CB"/>
<path d="M14.1173 -1.70943e-05C20.364 -1.73674e-05 25.428 5.06395 25.428 11.3107C25.428 17.5574 20.364 22.6213 14.1173 22.6213C7.8706 22.6213 2.80664 17.5574 2.80664 11.3107C2.80664 5.06395 7.8706 -1.68212e-05 14.1173 -1.70943e-05Z" fill="#FFFFF0"/>
<path d="M68.6929 39.451C68.6929 40.486 68.5635 41.3992 68.3048 42.1906C68.046 42.9821 67.6655 43.6594 67.1632 44.2225C66.6762 44.7705 66.0826 45.189 65.3825 45.4782C64.6823 45.7522 63.8985 45.8891 63.0309 45.8891C62.2243 45.8891 61.4709 45.7522 60.7707 45.4782C60.0858 45.189 59.4922 44.7705 58.99 44.2225C58.5029 43.6594 58.1224 42.9821 57.8485 42.1906C57.5745 41.3992 57.4375 40.486 57.4375 39.451C57.4375 38.0812 57.6582 36.9244 58.0996 35.9808C58.5562 35.0219 59.2107 34.2989 60.063 33.8119C60.9153 33.3096 61.9275 33.0585 63.0994 33.0585C64.1953 33.0585 65.1618 33.3096 65.9989 33.8119C66.836 34.2989 67.4905 35.0219 67.9623 35.9808C68.4494 36.9244 68.6929 38.0812 68.6929 39.451ZM60.5196 39.451C60.5196 40.3185 60.6109 41.0643 60.7936 41.6884C60.9762 42.2972 61.2502 42.7614 61.6155 43.081C61.996 43.4006 62.483 43.5604 63.0766 43.5604C63.6702 43.5604 64.1496 43.4006 64.5149 43.081C64.8954 42.7614 65.1694 42.2972 65.3368 41.6884C65.5195 41.0643 65.6108 40.3185 65.6108 39.451C65.6108 38.5682 65.5195 37.83 65.3368 37.2364C65.1542 36.6276 64.8726 36.171 64.4921 35.8666C64.1268 35.547 63.6474 35.3872 63.0538 35.3872C62.1558 35.3872 61.5089 35.7372 61.1132 36.4374C60.7175 37.1375 60.5196 38.142 60.5196 39.451Z" fill="white"/>
<path d="M48.4462 33.0585C49.2072 33.0585 49.8693 33.2107 50.4324 33.5151C50.9956 33.8195 51.4674 34.2762 51.8479 34.885H51.9392L52.2132 33.2868H54.7702V45.7522C54.7702 46.9242 54.5571 47.9059 54.131 48.6973C53.7048 49.504 53.0655 50.1128 52.2132 50.5238C51.3761 50.9347 50.3107 51.1402 49.017 51.1402C48.1494 51.1402 47.3579 51.0793 46.6426 50.9576C45.9425 50.851 45.2728 50.6608 44.6335 50.3868V48.0124C45.0749 48.2103 45.5239 48.3777 45.9805 48.5147C46.4523 48.6669 46.9394 48.7811 47.4417 48.8572C47.9439 48.9333 48.4766 48.9713 49.0398 48.9713C49.9226 48.9713 50.5923 48.705 51.0489 48.1722C51.5207 47.6395 51.7566 46.8785 51.7566 45.8892V45.5696C51.7566 45.3413 51.7642 45.0749 51.7794 44.7705C51.8099 44.4661 51.8327 44.2226 51.8479 44.0399H51.7566C51.3913 44.6792 50.9347 45.151 50.3868 45.4554C49.8389 45.7446 49.1768 45.8892 48.4005 45.8892C47.0155 45.8892 45.9196 45.3261 45.113 44.1998C44.3215 43.0735 43.9258 41.5058 43.9258 39.4967C43.9258 38.1421 44.1084 36.9854 44.4737 36.0265C44.839 35.0676 45.3565 34.337 46.0262 33.8348C46.7111 33.3173 47.5178 33.0585 48.4462 33.0585ZM49.3594 35.4101C48.8419 35.4101 48.4082 35.5699 48.0581 35.8895C47.7232 36.1939 47.4645 36.6505 47.2819 37.2593C47.0992 37.8681 47.0079 38.6291 47.0079 39.5424C47.0079 40.8817 47.2057 41.8939 47.6015 42.5788C47.9972 43.2637 48.5908 43.6062 49.3822 43.6062C49.8389 43.6062 50.227 43.5453 50.5466 43.4235C50.8662 43.2865 51.125 43.0735 51.3228 42.7843C51.5207 42.4799 51.6729 42.0994 51.7794 41.6428C51.886 41.1709 51.9392 40.6078 51.9392 39.9533V39.5195C51.9392 38.5302 51.8479 37.7388 51.6653 37.1452C51.4979 36.5364 51.2239 36.095 50.8434 35.821C50.4629 35.547 49.9682 35.4101 49.3594 35.4101Z" fill="white"/>
<path d="M37.1375 33.0585C38.4312 33.0585 39.451 33.4161 40.1968 34.1315C40.9426 34.8469 41.3155 36.0036 41.3155 37.6017V45.6608H38.279V38.1725C38.279 37.244 38.1192 36.5515 37.7996 36.0949C37.48 35.6231 36.9777 35.3872 36.2928 35.3872C35.273 35.3872 34.5805 35.7525 34.2152 36.483C33.8499 37.1984 33.6673 38.241 33.6673 39.6108V45.6608H30.6309V33.2868H32.9596L33.3933 34.9077H33.5075C33.7815 34.4816 34.1011 34.1315 34.4664 33.8575C34.8317 33.5836 35.2426 33.3857 35.6992 33.2639C36.1558 33.127 36.6352 33.0585 37.1375 33.0585Z" fill="white"/>
<path d="M22.8092 33.0585C24.3007 33.0585 25.4423 33.4085 26.2337 34.1087C27.0252 34.7936 27.4209 35.8742 27.4209 37.3506V45.6608H25.2977L24.7041 43.9486H24.6128C24.2779 44.39 23.9355 44.7628 23.5854 45.0673C23.2353 45.3564 22.832 45.5619 22.3754 45.6837C21.9188 45.8207 21.3708 45.8891 20.7316 45.8891C20.0467 45.8891 19.4303 45.7522 18.8823 45.4782C18.3344 45.2042 17.9006 44.7857 17.581 44.2225C17.2614 43.6442 17.1016 42.9212 17.1016 42.0536C17.1016 40.7751 17.543 39.8163 18.4257 39.177C19.3085 38.5225 20.6327 38.1649 22.3982 38.104L24.3845 38.0355V37.4191C24.3845 36.6276 24.217 36.0645 23.8822 35.7296C23.5473 35.3948 23.0907 35.2274 22.5124 35.2274C21.9644 35.2274 21.4089 35.3187 20.8457 35.5013C20.2978 35.684 19.7575 35.897 19.2248 36.1406L18.2887 34.1315C18.9128 33.8119 19.6053 33.5531 20.3663 33.3553C21.1273 33.1574 21.9416 33.0585 22.8092 33.0585ZM23.106 39.8619C22.0253 39.9076 21.2719 40.1283 20.8457 40.524C20.4196 40.9045 20.2065 41.422 20.2065 42.0765C20.2065 42.6548 20.3511 43.0734 20.6403 43.3321C20.9447 43.5909 21.3404 43.7203 21.8275 43.7203C22.5428 43.7203 23.1516 43.4843 23.6539 43.0125C24.1562 42.5255 24.4073 41.8101 24.4073 40.8665V39.8163L23.106 39.8619Z" fill="white"/>
<path d="M14.969 37.3506C14.969 39.177 14.6417 40.7067 13.9872 41.9395C13.348 43.1724 12.4196 44.1008 11.2019 44.7248C9.98432 45.3489 8.52317 45.6609 6.8185 45.6609H2.34375V29.36H7.27511C8.85802 29.36 10.2278 29.6644 11.3846 30.2732C12.5413 30.882 13.4241 31.78 14.0329 32.9672C14.6569 34.1391 14.969 35.6003 14.969 37.3506ZM11.7727 37.4419C11.7727 36.1482 11.5977 35.0828 11.2476 34.2457C10.9128 33.4086 10.4029 32.7922 9.71796 32.3964C9.04827 31.9855 8.21877 31.78 7.22945 31.78H5.40302V43.218H6.887C8.53078 43.218 9.75601 42.7386 10.5627 41.7797C11.3694 40.8056 11.7727 39.3597 11.7727 37.4419Z" fill="white"/>
</svg>
