<svg width="40" height="39" viewBox="0 0 40 39" fill="none" xmlns="http://www.w3.org/2000/svg">
<path d="M7.21922 21.6577V12.0321H3.60961C2.65228 12.0321 1.73416 12.4124 1.05723 13.0893C0.380297 13.7663 0 14.6844 0 15.6417V37.2994C0.00179073 37.5228 0.0657755 37.7414 0.184783 37.9305C0.303792 38.1196 0.47312 38.2719 0.673793 38.3702C0.867123 38.4581 1.08028 38.4933 1.29161 38.4722C1.50294 38.451 1.7049 38.3744 1.877 38.2499L8.07349 33.6898H24.2445C24.7006 33.7032 25.1545 33.6229 25.5782 33.4539C26.002 33.2848 26.3865 33.0305 26.7079 32.7068C27.0294 32.3831 27.281 31.9968 27.4471 31.5719C27.6132 31.147 27.6903 30.6925 27.6737 30.2366V28.8769H14.4384C12.5238 28.8769 10.6875 28.1163 9.33368 26.7625C7.97981 25.4086 7.21922 23.5724 7.21922 21.6577Z" fill="white"/>
<path d="M33.689 15.04C32.2978 15.0434 30.9248 14.7242 29.6778 14.1075C28.4308 13.4908 27.3438 12.5934 26.502 11.4858C25.6602 10.3783 25.0867 9.0906 24.8264 7.72401C24.5661 6.35742 24.6262 4.94909 25.0019 3.60962H14.4377C13.4804 3.60962 12.5623 3.98992 11.8854 4.66685C11.2084 5.34378 10.8281 6.2619 10.8281 7.21923V21.6577C10.8281 22.615 11.2084 23.5331 11.8854 24.21C12.5623 24.887 13.4804 25.2673 14.4377 25.2673H30.7411L36.4924 29.7312C36.6634 29.8576 36.8648 29.9364 37.0762 29.9597C37.2875 29.9829 37.5013 29.9497 37.6956 29.8635C37.9004 29.766 38.0734 29.6126 38.1948 29.421C38.3161 29.2294 38.3808 29.0074 38.3815 28.7806V13.6804C36.9734 14.5594 35.3489 15.0301 33.689 15.04Z" fill="white"/>
<path d="M33.6898 12.032C37.0124 12.032 39.7059 9.33857 39.7059 6.01601C39.7059 2.69346 37.0124 0 33.6898 0C30.3673 0 27.6738 2.69346 27.6738 6.01601C27.6738 9.33857 30.3673 12.032 33.6898 12.032Z" fill="white"/>
</svg>
