<svg width="40" height="40" viewBox="0 0 40 40" fill="none" xmlns="http://www.w3.org/2000/svg">
<path fill-rule="evenodd" clip-rule="evenodd" d="M36.3971 7.72059C35.5195 7.72059 34.6779 8.06919 34.0574 8.68972C33.4368 9.31024 33.0882 10.1519 33.0882 11.0294V13.2353H39.7059V11.0294C39.7059 10.1519 39.3573 9.31024 38.7367 8.68972C38.1162 8.06919 37.2746 7.72059 36.3971 7.72059ZM39.7059 15.4412H33.0882V33.6397L36.3971 38.6029L39.7059 33.6397V15.4412ZM0 3.30882V36.3971C0 37.2746 0.348607 38.1162 0.969132 38.7367C1.58966 39.3573 2.43127 39.7059 3.30882 39.7059H27.5735C28.4511 39.7059 29.2927 39.3573 29.9132 38.7367C30.5337 38.1162 30.8824 37.2746 30.8824 36.3971V3.30882C30.8824 2.43127 30.5337 1.58966 29.9132 0.969132C29.2927 0.348607 28.4511 0 27.5735 0H3.30882C2.43127 0 1.58966 0.348607 0.969132 0.969132C0.348607 1.58966 0 2.43127 0 3.30882ZM15.4412 9.92647C15.4412 9.63395 15.5574 9.35342 15.7642 9.14657C15.9711 8.93973 16.2516 8.82353 16.5441 8.82353H25.3676C25.6602 8.82353 25.9407 8.93973 26.1475 9.14657C26.3544 9.35342 26.4706 9.63395 26.4706 9.92647C26.4706 10.219 26.3544 10.4995 26.1475 10.7064C25.9407 10.9132 25.6602 11.0294 25.3676 11.0294H16.5441C16.2516 11.0294 15.9711 10.9132 15.7642 10.7064C15.5574 10.4995 15.4412 10.219 15.4412 9.92647ZM16.5441 13.2353C16.2516 13.2353 15.9711 13.3515 15.7642 13.5583C15.5574 13.7652 15.4412 14.0457 15.4412 14.3382C15.4412 14.6308 15.5574 14.9113 15.7642 15.1181C15.9711 15.325 16.2516 15.4412 16.5441 15.4412H25.3676C25.6602 15.4412 25.9407 15.325 26.1475 15.1181C26.3544 14.9113 26.4706 14.6308 26.4706 14.3382C26.4706 14.0457 26.3544 13.7652 26.1475 13.5583C25.9407 13.3515 25.6602 13.2353 25.3676 13.2353H16.5441ZM15.4412 24.2647C15.4412 23.9722 15.5574 23.6916 15.7642 23.4848C15.9711 23.278 16.2516 23.1618 16.5441 23.1618H25.3676C25.6602 23.1618 25.9407 23.278 26.1475 23.4848C26.3544 23.6916 26.4706 23.9722 26.4706 24.2647C26.4706 24.5572 26.3544 24.8378 26.1475 25.0446C25.9407 25.2514 25.6602 25.3676 25.3676 25.3676H16.5441C16.2516 25.3676 15.9711 25.2514 15.7642 25.0446C15.5574 24.8378 15.4412 24.5572 15.4412 24.2647ZM16.5441 27.5735C16.2516 27.5735 15.9711 27.6897 15.7642 27.8966C15.5574 28.1034 15.4412 28.384 15.4412 28.6765C15.4412 28.969 15.5574 29.2495 15.7642 29.4564C15.9711 29.6632 16.2516 29.7794 16.5441 29.7794H25.3676C25.6602 29.7794 25.9407 29.6632 26.1475 29.4564C26.3544 29.2495 26.4706 28.969 26.4706 28.6765C26.4706 28.384 26.3544 28.1034 26.1475 27.8966C25.9407 27.6897 25.6602 27.5735 25.3676 27.5735H16.5441ZM6.61765 24.2647V27.5735H9.92647V24.2647H6.61765ZM5.51471 22.0588H11.0294C11.3219 22.0588 11.6025 22.175 11.8093 22.3819C12.0162 22.5887 12.1324 22.8692 12.1324 23.1618V28.6765C12.1324 28.969 12.0162 29.2495 11.8093 29.4564C11.6025 29.6632 11.3219 29.7794 11.0294 29.7794H5.51471C5.22219 29.7794 4.94165 29.6632 4.73481 29.4564C4.52797 29.2495 4.41176 28.969 4.41176 28.6765V23.1618C4.41176 22.8692 4.52797 22.5887 4.73481 22.3819C4.94165 22.175 5.22219 22.0588 5.51471 22.0588ZM12.9121 10.7062C13.113 10.4982 13.2242 10.2196 13.2217 9.93044C13.2192 9.64125 13.1032 9.36462 12.8987 9.16013C12.6942 8.95563 12.4176 8.83964 12.1284 8.83712C11.8392 8.83461 11.5606 8.94578 11.3526 9.14669L7.72059 12.7787L6.29448 11.3526C6.08647 11.1517 5.80786 11.0405 5.51868 11.043C5.22949 11.0455 4.95286 11.1615 4.74836 11.366C4.54387 11.5705 4.42787 11.8471 4.42536 12.1363C4.42285 12.4255 4.53402 12.7041 4.73493 12.9121L7.72059 15.8978L12.9121 10.7062Z" fill="white"/>
</svg>
