<svg width="199" height="414" viewBox="0 0 199 414" fill="none" xmlns="http://www.w3.org/2000/svg">
<path d="M60.9029 241.844L2 200.521" stroke="black" stroke-width="3" stroke-linecap="round"/>
<path d="M53.0888 236.17C56.3511 231.441 55.1618 224.962 50.4324 221.7C45.703 218.437 39.2244 219.627 35.9621 224.356C32.6998 229.086 33.8891 235.564 38.6185 238.826C43.3479 242.089 49.8264 240.899 53.0888 236.17Z" fill="#4CAF50" stroke="black" stroke-width="3"/>
<path d="M37.4921 225.412C40.7544 220.683 39.5651 214.204 34.8357 210.942C30.1063 207.679 23.6277 208.869 20.3654 213.598C17.1031 218.327 18.2924 224.806 23.0218 228.068C27.7512 231.331 34.2298 230.141 37.4921 225.412Z" fill="#FFC0CB" stroke="black" stroke-width="3"/>
<path d="M19.2387 200.183C23.9681 203.445 25.1574 209.924 21.8951 214.653C18.6328 219.383 12.1542 220.572 7.42479 217.31C2.69536 214.047 1.50605 207.569 4.76838 202.839C8.03069 198.11 14.5093 196.92 19.2387 200.183Z" fill="#FFFFF0" stroke="black" stroke-width="3"/>
<g clip-path="url(#clip0_845_2928)">
<path d="M117.533 369.785C117.921 373.939 117.386 376.6 115.909 381.139C114.056 387.206 102.979 392.62 109.875 399.416C110.163 399.692 115.32 403.638 124.242 401.078C124.889 400.75 125.561 400.472 126.253 400.246C127.23 399.789 128.138 399.203 128.949 398.504C133.75 394.586 136.862 389.084 137.675 383.072C138.29 378.694 138.804 373.421 138.436 369.672" fill="black"/>
<path d="M89.788 364.435C89.768 365.097 89.768 365.928 89.4805 366.482C89.1933 367.036 88.906 367.866 88.6185 368.42C84.8833 373.128 79.9985 375.897 75.4013 379.774C72.528 382.266 69.942 386.974 73.39 390.02C80.0992 392.958 90.7449 391.197 92.9285 390.297C94.94 389.466 96.9513 388.912 98.6753 387.804C106.721 382.266 106.146 372.297 106.778 364.053" fill="black"/>
<path d="M112.884 362.652C113.036 364.812 113.323 366.751 113.323 368.966C122.805 369.52 132.575 369.797 142.057 369.243C146.14 368.916 150.131 367.886 153.837 366.197C158.147 338.782 158.435 310.813 155.849 282.845C155.849 282.014 156.136 280.906 155.849 280.075C155.561 278.691 155.561 277.583 155.274 276.199V273.429C152.401 247.676 148.378 222.753 143.206 197.831C123.093 198.385 103.267 199.492 83.1534 200.046C74.2634 239.025 71.0712 279.012 73.6714 318.844C73.6227 320.142 73.7203 321.441 73.9589 322.721C74.4989 330.472 75.7519 338.164 77.6942 345.705C78.2689 347.643 78.8434 349.859 79.7054 351.797C81.1422 355.397 83.1534 358.997 84.5902 362.597C90.0494 363.981 95.7962 364.258 101.543 363.981C104.703 363.704 108.151 363.704 111.45 362.926L112.884 362.652Z" fill="black"/>
<path fill-rule="evenodd" clip-rule="evenodd" d="M141.62 198.124C152.141 251.707 160.71 308.999 152.359 365.061C146.617 367.527 139.887 367.813 134.003 367.88C127.705 367.947 121.334 367.792 115.045 367.421C114.476 361.071 113.872 354.669 113.286 348.463C110.68 320.854 107.988 292.307 108.114 264.319C108.163 254.474 107.114 244.752 99.1983 240.293C98.3763 239.831 97.3191 240.097 96.8392 240.889C96.3565 241.681 96.6351 242.7 97.457 243.162C103.864 246.77 104.709 255.455 104.666 264.302C104.54 292.446 107.24 321.071 109.852 348.755L110.052 350.882C110.375 354.321 110.703 357.81 111.026 361.307C102.72 362.603 94.3081 362.628 86.001 361.384C76.9673 344.179 75.5364 327.024 74.9099 312.261C73.3266 274.767 76.6195 237.139 84.6964 200.428C84.8947 199.531 84.2999 198.65 83.3689 198.459C82.438 198.268 81.5242 198.841 81.326 199.739C73.1887 236.721 69.873 274.626 71.4647 312.397C72.1142 327.73 73.6227 345.597 83.3344 363.657C83.5844 364.123 84.0471 364.446 84.5815 364.532C85.7323 364.716 86.8848 364.877 88.0388 365.015C88.0235 365.309 87.9946 365.613 87.9347 365.737C87.7727 366.052 87.6253 366.405 87.4813 366.75L87.4462 366.834C87.3427 367.085 87.2335 367.343 87.1389 367.545C84.757 370.502 81.8665 372.674 78.8066 374.972L78.7372 375.024C77.2703 376.127 75.7512 377.268 74.2462 378.539C72.209 380.306 70.028 383.31 70.0137 386.445C70.0051 388.3 70.7693 389.959 72.2233 391.244C72.3554 391.363 72.5077 391.46 72.6745 391.532C75.7288 392.869 79.4296 393.323 82.892 393.323C87.7509 393.323 92.1383 392.429 93.6067 391.828C94.1698 391.596 94.7559 391.377 95.3221 391.166L95.3402 391.16C96.7769 390.624 98.2615 390.072 99.629 389.192C99.6385 389.185 99.6491 389.179 99.6592 389.172C99.6646 389.169 99.67 389.165 99.6752 389.161C107.36 383.872 107.855 375.122 108.291 367.402L108.308 367.113C108.348 366.395 108.388 365.702 108.433 365.02C109.4 364.905 110.366 364.774 111.33 364.625C111.467 366.128 111.602 367.629 111.735 369.126C111.809 369.946 112.487 370.588 113.338 370.644C114.186 370.699 115.035 370.75 115.886 370.797C116.105 374.28 115.561 376.663 114.266 380.641C114.263 380.649 114.26 380.66 114.257 380.668C113.729 382.396 112.131 384.277 110.585 386.093L110.568 386.113C108.85 388.137 107.074 390.227 106.307 392.543C105.359 395.409 106.143 398.114 108.657 400.589C108.698 400.632 112.137 403.604 118.424 403.604C120.283 403.604 122.392 403.343 124.736 402.666C124.843 402.636 124.946 402.595 125.044 402.546C125.61 402.259 126.202 402.013 126.808 401.817C126.874 401.793 126.943 401.77 127.006 401.74C128.121 401.218 129.156 400.55 130.081 399.757C135.212 395.564 138.517 389.715 139.384 383.294C140.096 378.236 140.388 374.107 140.256 370.989C144.988 370.67 149.903 369.877 154.378 367.825C154.552 367.745 154.705 367.64 154.837 367.517C155.263 367.269 155.574 366.846 155.651 366.335C164.276 309.534 155.633 251.625 145.008 197.507C144.833 196.604 143.93 196.014 142.993 196.183C142.057 196.355 141.442 197.222 141.62 198.124ZM104.955 365.363C102.726 365.537 100.494 365.624 98.2615 365.624C95.9962 365.624 93.7317 365.534 91.4709 365.355C91.4291 365.966 91.3245 366.627 91.0149 367.224C90.911 367.424 90.7897 367.713 90.6694 367.999L90.6414 368.066L90.6063 368.15C90.4623 368.494 90.3149 368.847 90.1529 369.162C90.1039 369.257 90.0466 369.345 89.9805 369.428C87.3083 372.796 84.0615 375.235 80.9208 377.595L80.829 377.663C79.4065 378.733 77.9368 379.838 76.5305 381.025C75.0161 382.338 73.4676 384.54 73.4589 386.461C73.4559 387.3 73.752 388.009 74.364 388.621C80.5646 391.166 90.4834 389.496 92.2475 388.771C92.8283 388.53 93.4041 388.316 93.9629 388.107L94.0778 388.065C95.3938 387.575 96.6409 387.109 97.6926 386.439C104.011 382.072 104.436 374.515 104.847 367.207C104.881 366.599 104.916 365.979 104.955 365.363ZM119.347 370.967C119.532 374.738 118.887 377.539 117.559 381.624C116.833 383.988 115.016 386.125 113.26 388.191L113.252 388.201C109.355 392.784 107.965 395.124 111.068 398.214C111.381 398.452 115.855 401.692 123.598 399.529C124.242 399.214 124.912 398.94 125.592 398.71C126.391 398.327 127.136 397.84 127.799 397.267C127.805 397.261 127.811 397.257 127.817 397.252C127.822 397.247 127.828 397.242 127.834 397.236C132.316 393.578 135.204 388.472 135.965 382.856C136.64 378.057 136.926 374.053 136.809 371.15C135.872 371.177 134.948 371.193 134.043 371.203C133.069 371.212 132.092 371.217 131.115 371.217C127.199 371.217 123.265 371.134 119.347 370.967Z" fill="black"/>
<g clip-path="url(#clip1_845_2928)">
<path d="M123.512 109.905C123.771 112.807 124.958 119.364 129.374 118.381L129.848 119.1C129.633 123.602 127.351 126.777 123.777 130.067C120.145 133.357 115.513 135.334 110.625 135.682C106.315 135.998 101.732 134.966 98.5086 132.076C95.2847 129.185 93.5893 125.18 95.7243 121.746H96.0346C97.0059 121.775 97.8993 121.266 98.7213 120.749C99.7671 120.088 101.925 117.379 102.571 116.6C103.433 115.482 103.784 111.244 104.226 109.905H123.512Z" fill="white"/>
<path d="M68.3557 250.598C66.9476 250.552 65.5828 250.112 64.4105 249.331C63.2382 248.549 62.31 247.457 61.7269 246.176C62.0141 241.578 62.8761 236.119 59.1409 232.384C58.5661 230.085 60.2901 228.361 62.3014 227.611L70.3697 228.657L68.3557 250.598Z" fill="white"/>
<path d="M70.3727 228.657C67.8184 228.64 65.2783 228.252 62.833 227.508C63.0054 225.367 63.1923 223.169 64.1146 221.229L71.2203 222.023L70.3727 228.657Z" fill="white"/>
<path d="M137.071 227.35C136.617 229.548 136.468 231.795 136.623 234.033C136.617 234.162 136.635 234.292 136.681 234.412C136.727 234.533 136.796 234.645 136.885 234.74C137.066 234.849 137.278 234.898 137.488 234.875L157.027 234.82C157.323 234.843 157.619 234.789 157.889 234.665C158.44 234.352 158.484 233.587 158.464 232.941L158.257 227.645L137.071 227.35Z" fill="white"/>
<path d="M71.419 221.709C68.6233 221.178 66.0373 221.178 63.1641 220.603C65.1753 200.49 66.8993 181.238 71.2093 160.838C73.5081 150.494 75.5193 141.012 80.9786 131.817C80.9786 131.817 83.0474 128.858 83.8521 127.953L85.3058 125.55C84.9209 124.427 85.3864 123.137 86.2282 122.301C87.0701 121.465 88.2396 121.022 89.3889 120.775C89.9233 120.66 90.5153 120.557 90.8571 120.131C91.0584 119.835 91.1819 119.491 91.2191 119.134C91.6387 116.795 92.2566 113.962 94.5178 113.238C96.3625 112.646 98.3509 113.919 99.4026 115.551C100.454 117.183 100.839 119.134 101.58 120.924C102.322 122.714 103.592 124.493 105.485 124.918L108.882 125.981C115.157 124.257 119.967 119.387 125.053 115.327C126.403 114.252 127.823 113.204 129.469 112.687C131.116 112.169 133.043 112.258 134.408 113.316C135.773 114.373 136.293 116.534 135.247 117.913C136.032 117.468 136.92 117.238 137.822 117.246C138.724 117.255 139.606 117.499 140.382 117.959C141.158 118.419 141.799 119.074 142.241 119.858C142.684 120.643 142.91 121.534 142.899 122.433L143.474 127.95C147.922 134.699 151.082 142.17 153.496 149.956L154.41 152.718C159.32 173.857 160.202 195.66 160.527 217.399L160.814 217.868C162.584 224.344 169.193 240.722 170.63 247.618C170.676 248.207 170.578 248.799 170.342 249.342C167.469 252.79 162.584 251.928 158.806 253.101L145.453 255.758C126.343 259.186 107.163 260.025 88.0183 256.796L84.4065 256.373L72.0513 254.009C70.9363 253.796 69.7122 253.512 69.0601 252.572C68.5199 251.802 68.5227 250.788 68.563 249.848C68.7268 246.113 69.1578 242.406 69.5888 238.697L71.5569 221.727L71.419 221.709Z" fill="white"/>
<path d="M139.416 235.182C136.646 236.076 133.408 239.403 135.75 242.472C137.037 244.164 138.982 245.075 140.767 246.138C142.14 246.954 142.505 249.713 143.037 251.172C144.381 254.853 146.993 257.882 151.277 257.594C155.633 257.307 158.343 253.598 159.17 249.598C160.067 245.259 158.538 239.564 157.817 235.274L139.416 235.182Z" fill="white"/>
<path d="M114.809 136.323C114.869 137.236 115.628 137.934 116.527 137.934C116.568 137.934 116.605 137.934 116.639 137.926C124.326 137.423 131.851 135.015 138.405 130.969C139.758 130.135 140.893 129.263 141.807 128.356C141.853 128.54 141.93 128.719 142.04 128.886C146.016 134.92 149.226 141.977 151.855 150.456C152.085 151.198 152.766 151.672 153.501 151.672C153.671 151.672 153.843 151.646 154.01 151.594C154.921 151.313 155.429 150.347 155.148 149.436C152.421 140.641 149.076 133.3 144.919 126.99C144.595 126.497 144.061 126.225 143.513 126.215C144.231 125.014 144.6 123.762 144.617 122.464C144.631 121.26 144.327 120.071 143.738 119.022C143.149 117.973 142.29 117.094 141.252 116.482C140.218 115.87 139.034 115.543 137.83 115.531C137.715 115.531 137.603 115.531 137.488 115.537C137.322 114.186 136.624 112.865 135.457 111.962C133.759 110.646 131.322 110.304 128.946 111.051C126.989 111.666 125.354 112.888 123.972 113.988C122.456 115.197 121.187 116.384 119.96 117.532L119.912 117.577C117.006 120.296 114.71 122.445 110.674 123.553C109.755 123.806 109.215 124.754 109.467 125.674C109.72 126.593 110.671 127.134 111.588 126.881C116.447 125.547 119.277 122.898 122.271 120.094L122.318 120.05C123.496 118.949 124.715 117.809 126.121 116.686C127.311 115.741 128.587 114.778 129.98 114.341C131.262 113.939 132.552 114.071 133.348 114.689C134.029 115.218 134.29 116.324 133.868 116.881C133.374 117.534 133.405 118.445 133.945 119.059C134.486 119.674 135.382 119.827 136.095 119.424C136.606 119.134 137.187 118.982 137.773 118.982H137.801C138.399 118.985 138.988 119.149 139.503 119.453C140.017 119.758 140.442 120.192 140.735 120.715C141.028 121.237 141.18 121.826 141.172 122.424C141.149 124.295 139.609 126.182 136.598 128.039C130.521 131.791 123.541 134.021 116.415 134.489C115.467 134.552 114.746 135.371 114.809 136.323Z" fill="black"/>
<path fill-rule="evenodd" clip-rule="evenodd" d="M82.1854 257.686C82.0792 257.686 81.9699 257.675 81.8609 257.655L71.7352 255.715C70.6031 255.488 68.7382 255.112 67.6579 253.577C67.3465 253.134 67.1476 252.665 67.023 252.191C65.7527 251.971 64.5383 251.487 63.4572 250.764C62.0176 249.805 60.8768 248.466 60.1613 246.891C60.0436 246.632 59.9919 246.351 60.0092 246.069C60.0363 245.618 60.0712 245.156 60.1066 244.688L60.1126 244.61C60.4113 240.573 60.7188 236.398 57.9259 233.602C57.7046 233.381 57.5494 233.105 57.4719 232.8C56.7932 230.086 58.2888 227.485 61.2157 226.192C61.3461 224.791 61.5433 223.313 62.0101 221.876C61.6198 221.519 61.4006 220.991 61.4571 220.431C61.5821 219.185 61.7054 217.942 61.828 216.702L61.9161 215.811C63.7752 197.092 65.5316 179.407 69.5312 160.479L69.7181 159.637C71.9448 149.6 74.0509 140.121 79.5046 130.932C79.5276 130.895 79.5505 130.86 79.5735 130.826L79.605 130.781C79.9351 130.311 81.7574 127.719 82.5733 126.803C82.8795 126.458 83.2937 126.265 83.72 126.23C83.7051 126.191 83.6907 126.151 83.6767 126.111C83.0991 124.43 83.6249 122.456 85.0158 121.076C85.9898 120.111 87.3001 119.462 89.0297 119.088L89.1303 119.065C89.2424 119.042 89.3917 119.011 89.5038 118.979C89.5038 118.975 89.5053 118.967 89.5053 118.967C89.5053 118.967 89.5068 118.96 89.5068 118.956C89.5124 118.91 89.5182 118.867 89.5268 118.824L89.5283 118.816C89.9479 116.514 90.6483 112.671 93.9948 111.594C95.989 110.957 98.9858 111.638 100.868 114.632C101.071 114.955 101.252 115.283 101.415 115.615C101.755 114.874 102.587 114.457 103.405 114.666C104.327 114.899 104.888 115.838 104.652 116.761C104.392 117.793 103.976 118.483 102.899 119.537C102.989 119.783 103.081 120.024 103.178 120.26C103.583 121.234 104.471 122.918 105.868 123.234C106.795 123.444 107.379 124.366 107.172 125.294C106.962 126.223 106.04 126.806 105.112 126.599C102.951 126.113 101.132 124.332 99.9915 121.585C99.7101 120.907 99.4771 120.226 99.256 119.565L99.2452 119.533C98.8642 118.413 98.5037 117.353 97.9458 116.468C97.2993 115.439 96.0377 114.563 95.0464 114.879C93.7879 115.284 93.291 117.407 92.9289 119.384C92.8542 119.996 92.6328 120.585 92.288 121.097C92.2622 121.134 92.2335 121.171 92.2049 121.209C91.5002 122.085 90.513 122.296 89.855 122.437L89.8486 122.438L89.7568 122.459C88.7079 122.686 87.9321 123.042 87.4466 123.522C87.0184 123.947 86.8001 124.579 86.9408 124.99C87.0729 125.375 87.5098 125.789 87.9177 126.139C91.6187 129.38 96.1211 131.55 100.948 132.417C101.885 132.587 102.509 133.483 102.339 134.42C102.184 135.253 101.457 135.84 100.641 135.84C100.54 135.84 100.437 135.831 100.334 135.811C94.8915 134.831 89.8141 132.386 85.6537 128.742C85.5918 128.689 85.5295 128.635 85.4668 128.579C85.3942 128.764 85.2879 128.939 85.1479 129.096C84.5559 129.76 83.0243 131.909 82.4354 132.748C77.2864 141.446 75.2435 150.643 73.0827 160.384L72.8989 161.208C68.9375 179.955 67.1905 197.567 65.3406 216.215L65.3391 216.23C65.2413 217.207 65.1437 218.186 65.046 219.169C65.905 219.29 66.7556 219.379 67.6376 219.468L67.6842 219.473C68.4596 219.552 69.25 219.633 70.0588 219.742L71.3744 208.399C73.7389 188.16 76.1839 167.232 80.9413 147.04C81.1596 146.115 82.0878 145.537 83.0159 145.758C83.9411 145.977 84.5158 146.905 84.2973 147.833C79.5845 167.838 77.1511 188.672 74.7974 208.821L71.3052 238.93C70.8863 242.543 70.4534 246.276 70.2898 249.943C70.2698 250.4 70.2325 251.256 70.4766 251.601C70.7639 252.009 71.7869 252.216 72.3961 252.336L82.5043 254.27C83.4383 254.448 84.0531 255.353 83.8721 256.287C83.7198 257.112 82.9987 257.686 82.1854 257.686ZM60.7619 231.582C60.71 230.269 62.1827 229.526 62.757 229.286C64.7398 229.856 66.7748 230.207 68.8306 230.332L67.8699 238.616C67.492 241.883 67.1023 245.25 66.9071 248.623C66.366 248.458 65.8494 248.214 65.3736 247.897C64.5834 247.368 63.9341 246.658 63.483 245.825C63.4957 245.623 63.5108 245.42 63.5259 245.216C63.5347 245.099 63.5436 244.98 63.552 244.862L63.5522 244.858C63.8625 240.652 64.2459 235.454 60.7619 231.582ZM69.6614 223.169L69.2285 226.902C67.6932 226.82 66.1688 226.594 64.6754 226.229C64.7976 225.003 64.9812 223.79 65.3755 222.691C66.0251 222.77 66.6612 222.835 67.2872 222.899L67.4198 222.913C68.1822 222.991 68.922 223.068 69.6614 223.169Z" fill="black"/>
<path fill-rule="evenodd" clip-rule="evenodd" d="M87.7308 258.491C95.8681 259.864 104.178 260.551 112.766 260.551C123.172 260.551 133.985 259.539 145.37 257.519C146.914 258.708 148.732 259.336 150.735 259.336C150.95 259.336 151.171 259.33 151.393 259.313C154.439 259.113 157.088 257.457 158.862 254.818C159.013 254.812 159.165 254.787 159.317 254.744C160.389 254.411 161.619 254.256 162.917 254.095C165.903 253.724 169.285 253.302 171.667 250.443C171.773 250.316 171.859 250.176 171.925 250.023C172.267 249.227 172.414 248.348 172.348 247.483C172.342 247.409 172.331 247.337 172.316 247.265C171.46 243.157 168.941 236.113 166.505 229.301L166.503 229.298C164.805 224.557 163.205 220.077 162.475 217.411C162.426 217.23 162.35 217.064 162.252 216.915C161.969 196.14 161.207 176.147 156.317 155.071C156.102 154.143 155.177 153.565 154.249 153.781C153.321 153.996 152.743 154.922 152.959 155.85C158.414 179.374 158.651 201.692 158.901 225.32V225.327L158.906 225.763L137.152 225.407C133.92 200.151 132.805 174.46 133.836 149.023C133.877 148.071 133.135 147.267 132.184 147.23C131.233 147.195 130.429 147.931 130.391 148.882C129.331 175.009 130.521 201.403 133.926 227.33C134.014 227.997 134.475 228.534 135.084 228.739C134.841 230.504 134.778 232.292 134.897 234.073C134.897 234.395 134.951 234.711 135.063 235.013C135.193 235.358 135.385 235.668 135.638 235.932C135.662 235.958 135.687 235.982 135.712 236.006C134.671 236.793 133.808 237.801 133.428 239.013C133.101 240.061 133 241.693 134.379 243.504C135.655 245.182 137.417 246.19 138.971 247.078C139.279 247.253 139.583 247.429 139.888 247.61C140.313 247.861 140.778 249.554 140.981 250.295L140.985 250.31C141.126 250.828 141.261 251.316 141.419 251.753C141.784 252.754 142.217 253.665 142.711 254.48C123.136 257.763 105.314 257.961 88.3028 255.092C87.3632 254.931 86.4753 255.566 86.3172 256.505C86.1592 257.442 86.7913 258.333 87.7308 258.491ZM141.042 236.586C140.871 237.079 140.478 237.488 139.942 237.659C138.345 238.177 136.989 239.179 136.719 240.044C136.667 240.208 136.532 240.642 137.121 241.415C137.974 242.535 139.289 243.287 140.679 244.083L140.681 244.084L140.916 244.219C141.161 244.36 141.407 244.501 141.649 244.644C143.27 245.605 143.845 247.703 144.308 249.389L144.31 249.397C144.43 249.842 144.548 250.265 144.658 250.569C145.589 253.124 147.468 256.109 151.163 255.871C153.591 255.71 156.521 253.885 157.484 249.245C158.222 245.677 157.555 241.837 156.909 238.12L156.873 237.912C156.806 237.53 156.74 237.149 156.677 236.768C156.664 236.693 156.656 236.617 156.654 236.542L141.042 236.586ZM159.646 235.316C159.864 235.553 160.018 235.855 160.076 236.197C160.15 236.636 160.225 237.076 160.303 237.518L160.305 237.533C161.006 241.565 161.73 245.735 160.86 249.946C160.791 250.279 160.712 250.606 160.624 250.927C161.247 250.827 161.871 250.749 162.487 250.672C165.073 250.351 167.322 250.069 168.834 248.44C168.891 248.247 168.917 248.043 168.911 247.842C168.076 243.947 165.523 236.805 163.264 230.489L163.174 230.235L163.17 230.225C162.887 229.433 162.607 228.649 162.333 227.88C162.263 228.203 162.101 228.501 161.863 228.737C161.544 229.059 161.104 229.24 160.65 229.24H160.622L160.043 229.231L160.185 232.872C160.2 233.32 160.233 234.421 159.646 235.316ZM156.59 229.174L138.548 228.878C138.332 230.292 138.25 231.724 138.302 233.154L156.743 233.102C156.743 233.082 156.743 233.06 156.742 233.038C156.741 233.025 156.741 233.012 156.74 232.999L156.59 229.174Z" fill="black"/>
</g>
<path d="M127.857 84.9989C125.705 84.8409 124.481 82.3123 124.613 80.1631C124.745 78.0139 125.762 76.0082 126.081 73.8763C126.814 69.0922 123.555 64.015 118.898 62.6903C117.625 62.3283 116.26 62.2104 115.102 61.5697C114.137 61.0325 113.332 60.133 112.249 59.9434C110.252 59.5757 108.608 61.6674 106.588 61.8915C103.908 62.179 101.836 59.1072 99.138 59.113C96.3507 59.113 94.4229 62.3656 91.6414 62.4979C89.7767 62.5869 88.11 61.2308 86.2453 61.1387C83.8345 61.0239 81.8319 63.0438 80.7399 65.196C79.6482 67.3479 79.1079 69.7788 77.7632 71.7844C76.5334 73.6177 73.9646 75.0314 72.1716 73.744C70.9334 72.8591 70.6948 71.1235 70.7838 69.6064C70.9648 66.4946 72.0423 63.5006 73.8842 60.9864C74.459 60.2222 75.0968 59.4693 75.3037 58.5441C75.591 57.1822 74.89 55.8288 74.6141 54.461C74.0077 51.444 75.8754 48.1225 78.769 47.0709C80.1365 46.5768 81.6653 46.5393 82.9466 45.8527C84.2282 45.1659 85.1361 43.8643 86.027 42.6747C90.7421 36.3763 98.2961 31.2215 106.037 32.618C110.786 33.48 114.944 36.678 120.852 37.79C124.964 34.7357 131.299 35.204 134.897 38.8619C139.543 43.5626 139.362 51.8953 144.666 55.8489C145.511 56.4811 146.493 56.9983 147.071 57.8776C148.298 59.7451 147.191 62.2824 147.717 64.4574C148.177 66.3452 149.781 67.6899 150.973 69.2243C152.165 70.7587 152.93 73.0833 151.657 74.5515C151.102 75.1893 150.277 75.5141 149.625 76.0485C148.022 77.3588 147.703 79.6918 147.901 81.752C148.1 83.8121 148.812 86.4298 148.404 87.9239C146.764 93.9954 142.968 92.4466 141.166 93.3834" fill="black"/>
<path d="M80.5934 72.1208C78.8694 74.7068 78.5821 77.8673 77.7201 81.028C77.7201 81.9359 74.226 94.1994 82.3174 102.291C85.1906 105.164 88.9261 106.313 92.8051 107.175C96.2846 107.713 100.086 108.253 103.436 106.888C103.244 109.879 103.215 112.014 103.353 115.008L123.55 112.922C123.219 108.991 124.004 105.454 125.713 101.897C126.098 101.093 126.935 101.101 127.759 100.84C128.489 100.61 129.213 100.345 129.92 100.047C131.36 99.449 132.719 98.676 133.971 97.748C136.448 95.8775 138.376 93.2512 139.103 90.2055C139.761 87.4441 139.298 84.1571 136.215 82.6027C134.055 81.5107 132.115 81.8986 128.819 84.795L127.848 85.0018C125.696 84.8439 124.472 82.3152 124.604 80.166C124.736 78.0168 125.754 76.0112 126.073 73.8792C126.805 69.0951 123.547 64.018 118.889 62.6933C117.616 62.3312 116.252 62.2134 115.093 61.5727C114.128 61.0354 113.324 60.1359 112.24 59.9463C110.243 59.5787 108.6 61.6703 106.58 61.8944C103.899 62.1819 101.827 59.1102 99.1292 59.116C96.3421 59.116 94.414 62.3685 91.6328 62.5008C89.7679 62.5898 88.1014 61.2337 86.2367 61.1417C83.8259 61.0268 81.8232 63.0467 80.7313 65.1989C79.6394 67.3509 79.0993 69.7817 77.7546 71.7874" fill="white"/>
<path d="M141.166 95.1074C140.542 95.1074 139.942 94.7684 139.635 94.1792C139.195 93.3345 139.525 92.2945 140.37 91.8548C141.106 91.4726 141.899 91.3691 142.666 91.2715C144.43 91.0446 145.824 90.8663 146.74 87.4729C146.924 86.7977 146.68 85.2778 146.485 84.0593C146.37 83.3469 146.252 82.6112 146.186 81.9188C145.881 78.7611 146.714 76.2009 148.536 74.7153C148.878 74.4338 149.231 74.2125 149.545 74.0201C149.878 73.8102 150.194 73.6149 150.358 73.4223C150.915 72.7788 150.418 71.319 149.614 70.2846C149.332 69.9226 149.016 69.5605 148.683 69.1784C147.651 68.0033 146.485 66.67 146.045 64.8656C145.766 63.7105 145.838 62.5611 145.904 61.5439C145.976 60.4147 146.036 59.4406 145.634 58.8258C145.384 58.4465 144.876 58.0959 144.335 57.7252C144.1 57.5645 143.864 57.4007 143.637 57.2311C140.396 54.8147 139.011 51.134 137.672 47.5739C136.594 44.7062 135.575 41.9996 133.675 40.0745C130.698 37.0489 125.3 36.6379 121.886 39.175C121.501 39.4625 121.013 39.5745 120.538 39.4853C117.248 38.8647 114.447 37.6292 111.979 36.5373C109.827 35.5863 107.795 34.6898 105.735 34.3133C100.931 33.4457 93.5893 35.457 87.4118 43.7063L87.2163 43.9677C86.314 45.1803 85.2913 46.5509 83.7655 47.3698C82.7971 47.8898 81.7771 48.1083 80.8748 48.298C80.329 48.4156 79.8118 48.5249 79.3577 48.6887C77.2661 49.4472 75.8696 51.9356 76.3062 54.1193C76.3752 54.4555 76.4816 54.8203 76.5965 55.2054C76.9182 56.2915 77.2833 57.5184 76.993 58.8976C76.723 60.1074 76.0506 60.9894 75.4559 61.768L75.2662 62.018C73.6284 64.2536 72.6716 66.9142 72.5078 69.7015C72.4302 71.0173 72.6744 71.9771 73.1772 72.3362C73.3237 72.4426 73.5681 72.5689 74.0305 72.4857C74.8266 72.342 75.7748 71.6582 76.3351 70.819C77.0275 69.7876 77.493 68.5692 77.9871 67.2792C78.3492 66.3366 78.7228 65.3626 79.2056 64.4116C80.4841 61.8917 83.0298 59.254 86.3313 59.412C87.4836 59.4695 88.5035 59.863 89.4 60.2078C90.2247 60.5267 90.9316 60.8026 91.5636 60.7711C92.4286 60.7308 93.3538 60.0785 94.3365 59.3861C95.6698 58.4465 97.1783 57.3835 99.1436 57.3835H99.155C100.934 57.3835 102.373 58.2683 103.643 59.0499C104.695 59.6964 105.603 60.2567 106.41 60.1705C106.942 60.1102 107.577 59.754 108.252 59.3747C109.401 58.7282 110.832 57.9235 112.568 58.2424C113.657 58.4321 114.493 59.0413 115.165 59.5298C115.444 59.7309 115.705 59.9233 115.947 60.0585C116.513 60.3716 117.254 60.5326 118.041 60.705C118.472 60.7998 118.921 60.8974 119.375 61.0267C124.883 62.5927 128.658 68.4716 127.791 74.1321C127.633 75.1924 127.331 76.1865 127.041 77.1491C126.71 78.238 126.4 79.2666 126.34 80.2637C126.259 81.594 126.96 83.1974 127.989 83.2749C128.937 83.3439 129.653 84.1714 129.581 85.1196C129.512 86.0678 128.684 86.7833 127.736 86.7115C124.509 86.476 122.711 83.0711 122.897 80.051C122.984 78.6518 123.369 77.3788 123.739 76.1492C124.006 75.2669 124.256 74.4338 124.38 73.6149C124.983 69.6756 122.259 65.4315 118.429 64.3426C118.076 64.242 117.699 64.1588 117.303 64.0726C116.355 63.8657 115.283 63.6299 114.272 63.0727C113.844 62.8341 113.467 62.5611 113.134 62.3197C112.691 61.998 112.272 61.6935 111.956 61.6387C111.436 61.5439 110.743 61.9318 109.941 62.3831C109.039 62.8916 108.019 63.4662 106.781 63.6013C104.798 63.814 103.224 62.8455 101.833 61.9893C100.868 61.3946 99.9539 60.8343 99.1464 60.8343H99.1436C98.2672 60.8343 97.3649 61.4693 96.3191 62.2076C95.0405 63.1071 93.5923 64.1299 91.7246 64.2161C90.3713 64.2823 89.1931 63.8254 88.1559 63.4261C87.4377 63.1472 86.7567 62.8858 86.1619 62.8572C84.5038 62.7766 83.0328 64.4863 82.2799 65.9718C81.8778 66.7648 81.553 67.6124 81.2082 68.5147C80.6679 69.9256 80.1076 71.3851 79.1997 72.7413C78.1078 74.3677 76.3638 75.5687 74.6426 75.879C73.364 76.1089 72.163 75.8531 71.1687 75.1407C70.1056 74.3791 68.873 72.7816 69.0654 69.5002C69.2667 66.0494 70.4532 62.7507 72.4962 59.9636L72.7147 59.6764C73.1313 59.1303 73.525 58.6161 73.6254 58.1621C73.7319 57.6593 73.5278 56.9753 73.2922 56.1823C73.1599 55.7398 73.025 55.2858 72.9272 54.7944C72.16 50.9702 74.5163 46.775 78.1826 45.4417C78.8608 45.1976 79.5187 45.0569 80.1538 44.9217C80.8951 44.7638 81.5961 44.6142 82.1364 44.3242C82.9839 43.8701 83.728 42.8702 84.4493 41.9019L84.6504 41.6317C89.3168 35.3994 97.4655 29.3109 106.347 30.9114C108.812 31.3597 111.025 32.3365 113.369 33.3737C115.588 34.3536 117.875 35.365 120.484 35.9455C125.276 32.8854 132.129 33.5778 136.129 37.6437C138.543 40.0859 139.741 43.2695 140.899 46.3499C142.117 49.588 143.266 52.6453 145.7 54.4583C145.893 54.602 146.091 54.7371 146.289 54.875C147.042 55.3922 147.895 55.9784 148.516 56.9236C149.553 58.501 149.444 60.2309 149.347 61.7538C149.292 62.6014 149.243 63.4002 149.398 64.0437C149.637 65.0236 150.433 65.9315 151.277 66.8969C151.631 67.2993 151.993 67.7158 152.338 68.1585C154.019 70.3191 154.863 73.4826 152.964 75.6721C152.458 76.2526 151.884 76.6117 151.375 76.9306C151.128 77.0858 150.895 77.2295 150.723 77.3732C149.464 78.4018 149.533 80.6575 149.622 81.5768C149.68 82.1629 149.783 82.8153 149.892 83.5021C150.165 85.2116 150.45 86.9787 150.071 88.3665C148.553 93.984 145.143 94.4178 143.106 94.6792C142.66 94.7367 142.154 94.7999 141.962 94.9005C141.706 95.0442 141.436 95.1074 141.166 95.1074Z" fill="black"/>
<path d="M123.575 112.747C122.69 112.747 121.935 112.066 121.86 111.166C121.495 106.839 122.337 104.857 124.124 101.135C124.779 99.7765 126.018 99.4776 126.759 99.2994C126.92 99.2593 127.072 99.2248 127.204 99.1817C127.888 98.9662 128.564 98.7191 129.216 98.4432C130.535 97.8974 131.773 97.1933 132.911 96.3486C135.204 94.6159 136.801 92.2827 137.393 89.7915C137.698 88.536 138.112 85.4846 135.419 84.1254C134.244 83.5306 133.092 83.2979 129.934 86.0735C129.219 86.7028 128.13 86.631 127.5 85.9156C126.871 85.2001 126.943 84.111 127.658 83.4817C132.193 79.4965 134.816 79.9561 136.971 81.0453C140.315 82.7348 141.761 86.3925 140.744 90.5932C139.968 93.8574 137.919 96.883 134.977 99.1042C133.603 100.124 132.115 100.969 130.546 101.618C129.802 101.932 129.023 102.219 128.239 102.463C128 102.538 127.771 102.595 127.569 102.644C127.443 102.676 127.279 102.713 127.173 102.747C125.521 106.195 125.009 107.491 125.297 110.87C125.377 111.819 124.673 112.655 123.725 112.732C123.673 112.744 123.624 112.747 123.575 112.747Z" fill="black"/>
<path d="M103.33 115.289C102.414 115.289 101.652 114.568 101.609 113.643C101.517 111.62 101.497 110.603 101.554 109.215C98.1009 109.882 94.5839 109.27 91.8714 108.796C87.4897 108.023 84.0847 106.463 81.4613 104.023C76.6399 99.5321 74.3901 92.2512 75.2865 84.042C75.6227 80.9991 76.8754 76.4708 78.6425 71.9281C78.9873 71.0402 79.9872 70.6006 80.8751 70.9454C81.763 71.2902 82.2026 72.2901 81.8578 73.178C79.8982 78.2179 78.95 82.2893 78.7145 84.4185C77.9357 91.53 79.792 97.7564 83.8117 101.497C85.9609 103.497 88.7107 104.736 92.4662 105.397C96.3049 106.066 99.73 106.517 102.761 105.279C103.31 105.055 103.937 105.13 104.419 105.474C104.902 105.819 105.172 106.391 105.135 106.983C104.951 109.873 104.919 110.511 105.057 113.476C105.1 114.427 104.365 115.235 103.414 115.278C103.385 115.289 103.359 115.289 103.33 115.289Z" fill="black"/>
<path d="M88.7622 80.4821C89.8731 80.4821 90.7735 79.3887 90.7735 78.0399C90.7735 76.6909 89.8731 75.5974 88.7622 75.5974C87.6513 75.5974 86.751 76.6909 86.751 78.0399C86.751 79.3887 87.6513 80.4821 88.7622 80.4821Z" fill="black"/>
<path d="M98.5313 81.1572C99.6422 81.1572 100.543 80.0638 100.543 78.7147C100.543 77.3659 99.6422 76.2725 98.5313 76.2725C97.4206 76.2725 96.52 77.3659 96.52 78.7147C96.52 80.0638 97.4206 81.1572 98.5313 81.1572Z" fill="black"/>
<path d="M130.024 49.1345C124.313 51.0309 118.667 49.9103 110.758 49.9749C101.88 50.0611 99.1428 49.8456 93.3243 46.9364C89.1436 37.8854 90.8245 33.2952 92.8071 23.6839C96.018 26.8302 98.8411 28.9206 101.793 32.2824C104.94 27.6276 112.245 21.8953 112.245 21.8953L120.434 32.1531C120.434 32.1531 125.886 30.2567 131.36 26.0975C131.963 36.0967 132.933 39.8895 130.045 49.1345H130.024Z" fill="#FFD30D"/>
<path d="M121.857 51.9758C120.371 51.9758 118.84 51.9109 117.224 51.8463C115.199 51.7601 113.087 51.6954 110.759 51.717C101.536 51.8032 98.5619 51.5015 92.5279 48.506C92.1831 48.3336 91.903 48.0535 91.7306 47.6871C87.7223 39.0456 88.7782 34.1968 90.5022 26.1587C90.6962 25.2751 90.8901 24.3485 91.0841 23.3572C91.2134 22.7322 91.6659 22.2366 92.2693 22.0642C92.8727 21.8918 93.5192 22.0426 93.9718 22.4736C95.157 23.6373 96.2992 24.6717 97.4198 25.663C98.8421 26.9345 100.221 28.1628 101.622 29.6067C105.199 25.232 110.867 20.7497 111.147 20.5342C111.901 19.9524 112.979 20.0817 113.561 20.8144L120.952 30.0808C122.763 29.3265 126.534 27.5594 130.284 24.7364C130.801 24.3485 131.469 24.2838 132.051 24.5424C132.632 24.801 133.02 25.3613 133.042 26.008C133.128 27.6027 133.236 29.0464 133.344 30.3825C133.861 37.3647 134.163 41.5885 131.663 49.6697C131.49 50.2085 131.081 50.6179 130.564 50.7903C127.698 51.7385 124.874 51.9971 121.857 51.9971V51.9758ZM111.557 48.269C113.647 48.269 115.522 48.3336 117.375 48.4198C121.728 48.5922 125.219 48.7215 128.646 47.7733C130.671 40.8989 130.413 37.1707 129.917 30.6411C129.896 30.2101 129.853 29.7575 129.809 29.2834C125.176 32.3004 121.168 33.7227 120.974 33.7874C120.284 34.0244 119.509 33.7874 119.056 33.2271L111.944 24.3485C109.746 26.2018 105.35 30.0592 103.195 33.2702C102.893 33.7227 102.419 34.0029 101.881 34.0244C101.342 34.046 100.825 33.8522 100.48 33.4428C98.7128 31.4386 96.9888 29.8868 95.1355 28.2275C94.7045 27.8396 94.2735 27.4517 93.8425 27.0638C92.2693 34.3477 91.4289 38.4853 94.6183 45.683C99.661 48.1181 102.204 48.3552 110.738 48.269C111.018 48.269 111.276 48.269 111.557 48.269Z" fill="black"/>
<path d="M92.2647 28.4221C91.0579 28.6592 89.8511 27.8834 89.0537 26.9352C88.6012 26.3964 88.2133 25.793 88.1055 25.1034C87.9116 23.8751 88.6443 22.6683 89.614 21.914C90.5838 21.1598 91.8121 20.815 92.9974 20.4702C93.4284 20.3409 93.9025 20.2116 94.3335 20.3409C94.7214 20.4487 95.0231 20.7504 95.3248 21.0305C95.8851 21.5908 96.4454 22.1511 96.7686 22.8622C97.3505 24.1121 97.0488 25.6853 96.1868 26.7628C95.3248 27.8403 93.9671 28.4652 92.5879 28.5514C92.2647 28.573 91.8552 28.4652 92.2431 28.4221H92.2647Z" fill="#FFD30D"/>
<path d="M92.4619 30.2753C92.2033 30.2753 91.9447 30.2537 91.7292 30.1891C90.3069 30.1675 88.863 29.3917 87.7209 28.0556C86.9666 27.1721 86.5356 26.2885 86.3848 25.3834C86.1046 23.6379 86.9451 21.7846 88.5613 20.5563C89.8112 19.6081 91.2335 19.1986 92.505 18.8323C93.0006 18.6814 93.8626 18.4228 94.8108 18.703C95.6297 18.94 96.19 19.4788 96.5348 19.8236C97.246 20.5132 97.914 21.2243 98.345 22.1725C99.1639 23.9827 98.8622 26.2239 97.5477 27.8617C96.4271 29.2624 94.66 30.1675 92.7205 30.2968C92.6343 30.2968 92.5481 30.2968 92.4619 30.2968V30.2753ZM92.2679 26.698C92.4619 26.698 92.6343 26.7195 92.8282 26.7842C93.6687 26.6549 94.4229 26.2454 94.8755 25.6636C95.3711 25.0386 95.5004 24.1766 95.2203 23.5517C95.0263 23.1207 94.6169 22.6897 94.1212 22.2156C94.035 22.1294 93.8842 21.9785 93.798 21.9354C93.8626 21.9785 93.604 22.0647 93.4747 22.0863C92.4403 22.388 91.3844 22.6897 90.6301 23.2715C90.0483 23.7025 89.7035 24.3275 89.7897 24.8016C89.8328 25.0817 90.0267 25.405 90.35 25.7929C90.8887 26.4178 91.5137 26.7842 91.9231 26.698C91.9878 26.698 92.0309 26.698 92.0955 26.6764C92.1386 26.6764 92.2033 26.6764 92.2464 26.6764L92.2679 26.698Z" fill="black"/>
<path d="M111.402 24.4378C110.217 23.3603 108.428 22.6707 108.126 21.0976C107.954 20.1494 108.45 19.2012 109.075 18.4469C110.152 17.1755 112.027 16.2919 113.492 17.1108C114.053 17.4341 115.259 17.9513 115.626 18.49C116.272 19.4598 116.983 20.9683 116.639 22.0888C116.359 23.037 114.591 23.3818 113.708 23.8344C113.191 24.1145 112.609 24.33 112.027 24.2438C111.445 24.1576 110.885 23.6835 111.38 24.4162L111.402 24.4378Z" fill="#FFD30D"/>
<path d="M111.339 26.1409C110.951 26.1409 110.563 26.0116 110.24 25.7099C109.939 25.4513 109.594 25.2142 109.249 24.9772C108.128 24.2014 106.749 23.2101 106.426 21.4215C106.189 20.0854 106.663 18.6415 107.762 17.3485C109.314 15.5383 112.072 14.3531 114.335 15.6245L114.701 15.8185C115.692 16.3357 116.554 16.8098 117.05 17.564C117.61 18.4045 118.882 20.6026 118.3 22.6067C117.847 24.1152 116.339 24.6755 115.218 25.1065C114.96 25.2142 114.701 25.3004 114.529 25.3866C113.947 25.6883 113.063 26.0978 112.029 25.99C111.813 26.0978 111.576 26.1409 111.339 26.1409ZM111.49 22.3265C111.684 22.3481 111.878 22.3912 112.094 22.4774C112.266 22.542 112.417 22.5636 112.912 22.305C113.193 22.1541 113.58 22.0033 113.968 21.8524C114.249 21.7447 114.723 21.5723 114.981 21.4215C114.981 21.0336 114.744 20.3009 114.162 19.4604C114.055 19.3527 113.408 19.0294 113.085 18.8786L112.611 18.62C112.072 18.3183 111.038 18.7493 110.348 19.5682C109.96 20.0207 109.723 20.5164 109.788 20.775C109.852 21.1844 110.542 21.6585 111.21 22.1326C111.296 22.1972 111.382 22.2403 111.469 22.305L111.49 22.3265Z" fill="black"/>
<path d="M131.337 28.1857C129.807 28.315 128.234 27.3022 127.695 25.8583C127.156 24.4145 127.695 22.6258 128.945 21.7207C129.721 21.1605 130.669 20.9234 131.639 20.9019C132.414 20.9019 133.255 21.0312 133.772 21.613C133.837 21.6776 133.923 21.7854 134.009 21.8931C134.871 22.8198 135.453 24.005 135.604 25.2765C135.604 25.4704 135.625 25.6428 135.625 25.7937C135.582 26.6772 134.332 27.4099 133.664 27.9702C132.996 28.5305 131.94 28.6814 131.358 28.2073L131.337 28.1857Z" fill="#FFD30D"/>
<path d="M132.262 30.214C131.788 30.214 131.314 30.1278 130.883 29.9338C128.793 29.8476 126.832 28.4684 126.077 26.4858C125.258 24.3093 126.034 21.7233 127.909 20.3656C128.879 19.6544 130.15 19.245 131.573 19.2019C133.512 19.1803 134.525 19.8915 135.064 20.538L135.258 20.7535C136.4 21.9819 137.132 23.5335 137.305 25.1282C137.326 25.4083 137.348 25.6669 137.326 25.904C137.262 27.3909 136.012 28.3607 135.171 29.0072C135.02 29.1149 134.891 29.2227 134.762 29.3304C134.051 29.9554 133.124 30.2786 132.241 30.2786L132.262 30.214ZM131.357 26.4643C131.702 26.4643 132.025 26.572 132.327 26.766C132.391 26.766 132.478 26.7229 132.542 26.6582C132.715 26.5289 132.887 26.3781 133.103 26.2057C133.34 26.0333 133.727 25.7316 133.9 25.5161C133.9 25.4945 133.9 25.473 133.9 25.4514C133.814 24.5894 133.404 23.749 132.758 23.0594C132.628 22.9301 132.521 22.8008 132.456 22.7146C132.435 22.7146 132.197 22.5853 131.702 22.6068C131.206 22.6068 130.517 22.7146 129.999 23.1025C129.374 23.555 129.094 24.5248 129.353 25.2575C129.611 25.9902 130.495 26.5074 131.249 26.4643C131.292 26.4643 131.335 26.4643 131.379 26.4643H131.357Z" fill="black"/>
</g>
<defs>
<clipPath id="clip0_845_2928">
<rect width="172.4" height="413.76" fill="white" transform="translate(26)"/>
</clipPath>
<clipPath id="clip1_845_2928">
<rect width="172.4" height="172.4" fill="white" transform="translate(26 109.905)"/>
</clipPath>
</defs>
</svg>
