<svg width="119" height="286" viewBox="0 0 119 286" fill="none" xmlns="http://www.w3.org/2000/svg">
<g clip-path="url(#clip0_845_2651)">
<path d="M63.181 255.246C63.4487 258.113 63.0798 259.95 62.0603 263.083C60.781 267.271 53.1353 271.008 57.8953 275.699C58.0937 275.89 61.6538 278.613 67.812 276.846C68.2583 276.62 68.7224 276.428 69.2003 276.272C69.8747 275.956 70.5014 275.552 71.0607 275.07C74.3749 272.365 76.5228 268.567 77.084 264.417C77.5086 261.395 77.8635 257.756 77.6097 255.168" fill="black"/>
<path d="M44.0302 251.553C44.0164 252.01 44.0164 252.584 43.8179 252.966C43.6196 253.348 43.4214 253.922 43.2229 254.304C40.6446 257.553 37.2729 259.465 34.0996 262.141C32.1164 263.861 30.3314 267.11 32.7114 269.213C37.3424 271.241 44.6906 270.025 46.1979 269.404C47.5864 268.831 48.9746 268.448 50.1646 267.684C55.7179 263.861 55.3214 256.98 55.7576 251.29" fill="black"/>
<path d="M59.9719 250.322C60.077 251.813 60.2753 253.151 60.2753 254.681C66.8203 255.063 73.5637 255.254 80.1087 254.872C82.927 254.646 85.6818 253.935 88.2403 252.769C91.2153 233.846 91.4137 214.54 89.6287 195.235C89.6287 194.661 89.827 193.897 89.6287 193.323C89.4303 192.368 89.4303 191.603 89.232 190.647V188.736C87.2487 170.96 84.472 153.757 80.902 136.554C67.0187 136.936 53.3337 137.701 39.4503 138.083C33.3139 164.988 31.1105 192.589 32.9053 220.084C32.8717 220.98 32.9391 221.876 33.1037 222.76C33.4765 228.11 34.3413 233.42 35.682 238.625C36.0787 239.963 36.4753 241.492 37.0703 242.83C38.062 245.315 39.4503 247.799 40.442 250.284C44.2103 251.24 48.177 251.431 52.1437 251.24C54.3253 251.049 56.7053 251.049 58.9822 250.512L59.9719 250.322Z" fill="black"/>
<path fill-rule="evenodd" clip-rule="evenodd" d="M79.8076 136.756C87.07 173.742 92.9846 213.288 87.2202 251.985C83.2569 253.688 78.6115 253.885 74.5497 253.931C70.2023 253.977 65.8053 253.87 61.4637 253.614C61.071 249.231 60.6545 244.812 60.2499 240.528C58.4511 221.471 56.5926 201.766 56.6799 182.447C56.7137 175.652 55.9897 168.941 50.5257 165.864C49.9583 165.544 49.2286 165.728 48.8973 166.275C48.5641 166.821 48.7564 167.525 49.3238 167.844C53.7466 170.334 54.3297 176.329 54.2999 182.436C54.2126 201.862 56.0766 221.621 57.8793 240.73L58.0173 242.198C58.2404 244.572 58.4668 246.98 58.6897 249.394C52.9567 250.288 47.1502 250.306 41.4162 249.447C35.1806 237.571 34.1929 225.73 33.7605 215.54C32.6676 189.659 34.9405 163.687 40.5157 138.347C40.6525 137.727 40.242 137.119 39.5994 136.988C38.9568 136.856 38.3261 137.251 38.1892 137.871C32.5724 163.398 30.2838 189.562 31.3824 215.634C31.8308 226.217 32.872 238.55 39.5756 251.016C39.7481 251.337 40.0675 251.561 40.4364 251.62C41.2307 251.747 42.0262 251.858 42.8228 251.953C42.8122 252.156 42.7923 252.366 42.751 252.452C42.6391 252.669 42.5374 252.913 42.438 253.151L42.4137 253.209C42.3423 253.383 42.2669 253.56 42.2016 253.7C40.5575 255.741 38.5623 257.24 36.4502 258.826L36.4023 258.862C35.3898 259.623 34.3412 260.411 33.3024 261.288C31.8962 262.508 30.3907 264.582 30.3809 266.746C30.375 268.026 30.9024 269.171 31.906 270.058C31.9972 270.14 32.1024 270.207 32.2175 270.257C34.3258 271.18 36.8802 271.494 39.2702 271.494C42.6241 271.494 45.6525 270.876 46.6661 270.461C47.0547 270.301 47.4593 270.15 47.8501 270.005L47.8626 270C48.8543 269.63 49.8791 269.249 50.823 268.642C50.8296 268.637 50.8369 268.633 50.8439 268.628C50.8476 268.626 50.8513 268.623 50.8549 268.621C56.1594 264.97 56.501 258.93 56.8023 253.601L56.8136 253.401C56.8416 252.906 56.8687 252.428 56.9001 251.957C57.5675 251.878 58.234 251.787 58.8996 251.684C58.994 252.721 59.0873 253.758 59.1789 254.791C59.2305 255.357 59.6985 255.801 60.2856 255.839C60.8708 255.877 61.457 255.912 62.0441 255.945C62.1959 258.349 61.8201 259.994 60.9263 262.739C60.9242 262.745 60.9223 262.753 60.9203 262.758C60.5553 263.951 59.4526 265.249 58.3856 266.503L58.374 266.516C57.1876 267.913 55.9622 269.356 55.4323 270.955C54.7778 272.933 55.3193 274.8 57.0548 276.508C57.0826 276.538 59.4566 278.589 63.7961 278.589C65.0794 278.589 66.535 278.41 68.1534 277.942C68.2268 277.922 68.2983 277.893 68.3657 277.859C68.7565 277.661 69.1649 277.492 69.5834 277.356C69.629 277.34 69.6766 277.324 69.7202 277.303C70.4899 276.943 71.2039 276.482 71.8424 275.934C75.3846 273.04 77.6656 269.003 78.2644 264.57C78.7557 261.079 78.9572 258.229 78.866 256.077C82.1325 255.857 85.5251 255.309 88.6136 253.893C88.7337 253.838 88.8398 253.765 88.9304 253.681C89.2245 253.509 89.4393 253.217 89.4922 252.865C95.4461 213.657 89.4802 173.685 82.1459 136.33C82.025 135.707 81.4022 135.3 80.7555 135.416C80.1091 135.535 79.6845 136.133 79.8076 136.756ZM54.4991 252.194C52.9609 252.314 51.42 252.374 49.8791 252.374C48.3154 252.374 46.7523 252.311 45.1918 252.188C45.1629 252.61 45.0908 253.066 44.877 253.478C44.8053 253.617 44.7216 253.816 44.6386 254.013L44.6193 254.059L44.595 254.117C44.4956 254.355 44.3939 254.599 44.282 254.816C44.2483 254.881 44.2087 254.942 44.163 255C42.3185 257.324 40.0775 259.008 37.9096 260.637L37.8462 260.684C36.8643 261.422 35.8499 262.185 34.8791 263.005C33.8338 263.911 32.7649 265.43 32.759 266.757C32.7569 267.336 32.9613 267.825 33.3837 268.248C37.6637 270.005 44.5102 268.852 45.7279 268.351C46.1288 268.185 46.5262 268.037 46.9119 267.893L46.9912 267.864C47.8996 267.525 48.7605 267.204 49.4864 266.742C53.8477 263.727 54.1412 258.511 54.4249 253.467C54.4482 253.047 54.4723 252.619 54.4991 252.194ZM64.4335 256.062C64.5614 258.665 64.1161 260.598 63.1992 263.418C62.698 265.05 61.4438 266.525 60.2318 267.951L60.2261 267.957C57.5367 271.121 56.5768 272.736 58.7188 274.869C58.935 275.034 62.023 277.27 67.368 275.777C67.8124 275.559 68.2744 275.371 68.7444 275.211C69.2958 274.947 69.8096 274.611 70.2678 274.215C70.2716 274.212 70.2757 274.208 70.2797 274.205C70.2835 274.202 70.2876 274.198 70.2916 274.194C73.3856 271.669 75.3787 268.145 75.9044 264.268C76.3702 260.955 76.5675 258.192 76.487 256.188C75.8397 256.207 75.202 256.218 74.5775 256.225C73.9052 256.231 73.2309 256.234 72.5564 256.234C69.8531 256.234 67.1376 256.177 64.4335 256.062Z" fill="black"/>
<g clip-path="url(#clip1_845_2651)">
<path d="M67.3081 75.8625C67.4866 77.8657 68.3058 82.3917 71.3541 81.7134L71.6814 82.2092C71.5327 85.3171 69.9578 87.5087 67.4907 89.7796C64.9836 92.0506 61.7865 93.415 58.4129 93.655C55.4379 93.8732 52.2744 93.1611 50.0491 91.1659C47.8238 89.1707 46.6538 86.4059 48.1273 84.0359H48.3415C49.0119 84.0557 49.6288 83.7046 50.1959 83.3476C50.9178 82.8915 52.4074 81.0212 52.8537 80.4837C53.4487 79.7122 53.6905 76.7868 53.9961 75.8625H67.3081Z" fill="white"/>
<path d="M71.7747 80.6046C74.8111 81.4158 77.3023 83.5975 79.3471 85.9775C81.9314 88.9981 83.9801 92.4392 85.4081 96.15C88.5675 104.367 88.5696 113.629 92.3796 121.566C90.3109 122.179 88.2067 122.655 86.0766 122.994L87.794 131.14C92.1872 144.742 95.2434 155.174 99.2578 168.302C99.456 168.972 100.249 171.342 99.8825 171.935C99.6366 172.332 99.224 172.586 98.8215 172.814C96.62 174.065 94.216 174.17 91.7329 174.67L82.5164 176.505C69.3252 178.871 56.0865 179.45 42.8715 177.221L40.3785 176.929L31.8502 175.297C31.0807 175.15 30.2358 174.954 29.7856 174.305C29.4126 173.774 29.4147 173.074 29.4424 172.425C29.5554 169.847 29.8529 167.288 30.1504 164.728L32.4968 144.498C33.5181 135.856 34.5099 127.179 35.8981 118.568L35.8029 118.528C33.4964 117.735 31.2255 116.854 28.9526 115.971C28.6391 115.882 28.3576 115.708 28.1355 115.47C27.6892 114.894 28.072 114.069 28.4547 113.449C31.8324 107.955 34.72 102.175 37.0881 96.1758C38.8969 91.5943 40.7852 86.4396 45.2001 84.2559L50.204 82.1615C49.7795 82.8854 50.3171 84.9501 50.8902 85.5629C51.4633 86.1758 52.2785 86.4971 53.0719 86.7529C55.7335 87.582 58.6252 87.8021 61.3265 87.1496C64.0278 86.4971 66.5525 84.9124 68.1393 82.6177C68.536 82.0544 68.8671 81.4436 69.359 80.9656C69.8509 80.4876 70.549 80.1504 71.2173 80.2992L71.7747 80.6046Z" fill="white"/>
<path d="M77.1517 123.816C77.5066 136.773 78.4765 149.688 80.0592 162.56C78.7483 162.641 77.3897 162.957 76.394 163.811C75.3984 164.666 74.8946 166.191 75.5095 167.354C76.3444 168.922 78.6333 169.109 79.7043 170.527C80.4064 171.459 80.434 172.709 80.7891 173.827C81.1085 174.821 81.6954 175.706 82.4889 176.382C83.2822 177.058 84.248 177.502 85.2773 177.661C86.3088 177.82 87.3619 177.689 88.3218 177.282C89.2817 176.876 90.1108 176.209 90.7137 175.36C92.2864 173.143 92.0565 170.166 91.7609 167.465L86.9414 123.518L77.1517 123.816Z" fill="white"/>
<path d="M30.8252 117.171L27.8719 152.33C27.7509 153.766 27.5586 155.353 26.4736 156.297C25.3888 157.241 23.4986 157.421 22.9572 158.786C22.3126 160.424 24.2147 161.87 24.8335 163.518C25.7201 165.872 23.9092 168.778 25.2301 170.924C26.0393 172.245 27.7172 172.697 29.2425 172.97L29.3912 172.457C29.5043 169.878 29.8018 167.32 30.0993 164.76L32.4455 144.53C33.5105 135.357 34.5775 126.168 36.075 117.058L30.8252 117.171Z" fill="white"/>
<path d="M78.1197 124.849C75.7199 124.849 73.3121 124.68 70.9023 124.341C70.3014 124.256 69.8611 123.734 69.8789 123.129L70.4204 104.125C70.4382 103.469 70.9877 102.945 71.6442 102.969C72.3006 102.987 72.8182 103.536 72.8004 104.192L72.2887 122.122C78.4748 122.86 84.6449 122.423 90.6623 120.823C88.9091 116.699 88.0285 112.278 87.1737 107.988C86.414 104.173 85.6286 100.23 84.2344 96.6061C82.852 93.0123 80.8826 89.7061 78.3796 86.7807C76.0372 84.0437 73.7545 82.4054 71.4042 81.7767C70.7695 81.6062 70.3927 80.9536 70.5632 80.319C70.7338 79.6843 71.3864 79.3075 72.0209 79.478C74.8512 80.2357 77.5247 82.1198 80.1903 85.2357C82.8699 88.3673 84.9781 91.9077 86.4577 95.7552C87.9234 99.5692 88.7306 103.615 89.5101 107.528C90.468 112.334 91.3703 116.874 93.3914 121.084C93.5421 121.4 93.548 121.763 93.4052 122.082C93.2624 122.401 92.9887 122.641 92.6555 122.741C87.8857 124.141 83.0206 124.849 78.1197 124.849Z" fill="black"/>
<path d="M35.7277 119.74C35.5987 119.74 35.4697 119.718 35.3409 119.674C33.0283 118.881 30.7237 117.987 28.4944 117.12L28.4904 117.118C27.9927 116.963 27.5424 116.681 27.1873 116.299C27.1635 116.273 27.1418 116.247 27.1199 116.219C26.4416 115.345 26.5249 114.21 27.3658 112.844C30.6978 107.425 33.5738 101.676 35.9121 95.7574L36.1183 95.2317C37.9113 90.6741 39.9441 85.5095 44.603 83.2069C45.192 82.9153 45.906 83.1573 46.1976 83.7463C46.4891 84.3354 46.2473 85.0494 45.6582 85.3409C41.8243 87.235 40.0493 91.7431 38.3338 96.1025L38.1255 96.63C35.7375 102.677 32.7982 108.552 29.3928 114.089C29.1667 114.456 29.0894 114.672 29.0637 114.783C29.1072 114.809 29.1548 114.831 29.2065 114.845C29.2422 114.855 29.2758 114.867 29.3095 114.879L29.3571 114.896C31.5646 115.753 33.8475 116.64 36.1144 117.417C36.7351 117.632 37.0664 118.308 36.8541 118.929C36.6835 119.43 36.2215 119.74 35.7277 119.74Z" fill="black"/>
<path d="M39.048 177.919C38.9745 177.919 38.8993 177.911 38.8239 177.897L31.5708 176.509C30.7894 176.352 29.5021 176.092 28.7565 175.033C28.1734 174.202 28.1615 173.246 28.1972 172.417C28.3121 169.795 28.6177 167.171 28.9112 164.635L31.315 143.907C32.9493 129.918 34.637 115.452 37.9254 101.495C38.0761 100.856 38.7148 100.458 39.3574 100.61C39.996 100.761 40.3927 101.402 40.2419 102.042C36.9853 115.866 35.3055 130.263 33.679 144.186L31.2752 164.912C30.9858 167.409 30.6862 169.99 30.5731 172.524C30.5593 172.84 30.5336 173.431 30.7021 173.669C30.9004 173.95 31.6065 174.093 32.027 174.176L39.2701 175.563C39.9146 175.686 40.3392 176.31 40.2142 176.955C40.1071 177.522 39.6073 177.919 39.048 177.919Z" fill="black"/>
<path d="M59.8906 179.847C53.9623 179.847 48.2265 179.373 42.6097 178.425C41.9611 178.316 41.5249 177.701 41.6339 177.054C41.7431 176.406 42.3559 175.967 43.0045 176.078C55.2317 178.141 68.0659 177.907 82.2407 175.364C82.8873 175.247 83.5061 175.678 83.6211 176.326C83.7382 176.973 83.3077 177.592 82.6591 177.707C74.704 179.133 67.1534 179.847 59.8906 179.847Z" fill="black"/>
<path d="M91.6655 175.89C91.1102 175.89 90.6145 175.499 90.4993 174.934C90.3705 174.289 90.787 173.663 91.4316 173.532C92.0603 173.405 92.6791 173.304 93.278 173.207C95.0313 172.919 96.6873 172.649 98.165 171.808C98.3276 171.715 98.5794 171.574 98.7222 171.433C98.7184 171.14 98.5994 170.465 98.1332 168.946C98.0996 168.837 98.0698 168.742 98.048 168.669C96.9532 165.089 95.9219 161.685 94.9261 158.393C92.2805 149.658 89.7834 141.408 86.5942 131.535C86.3919 130.91 86.7351 130.238 87.3618 130.037C87.9884 129.837 88.6569 130.178 88.8592 130.805C92.0544 140.698 94.5553 148.958 97.205 157.703C98.2007 160.993 99.232 164.395 100.329 167.982C100.353 168.062 100.378 168.147 100.41 168.246C101.078 170.42 101.342 171.757 100.829 172.59C100.436 173.224 99.8548 173.587 99.341 173.879C97.4946 174.928 95.547 175.247 93.6628 175.557C93.0837 175.652 92.4866 175.749 91.9016 175.868C91.8223 175.882 91.745 175.89 91.6655 175.89Z" fill="black"/>
<path d="M86.1362 178.917C85.789 178.917 85.4419 178.891 85.0949 178.837C83.8454 178.645 82.6771 178.109 81.7153 177.286C80.7533 176.465 80.0413 175.394 79.6545 174.19C79.5217 173.77 79.4325 173.361 79.3492 172.965C79.2004 172.266 79.0695 171.664 78.7541 171.243C78.419 170.801 77.7981 170.48 77.1398 170.14C76.1738 169.642 75.079 169.079 74.4582 167.913C73.6272 166.34 74.125 164.19 75.6185 162.909C76.4217 162.219 77.467 161.755 78.7344 161.523C77.2388 149.058 76.3068 136.388 75.9617 123.849C75.9438 123.193 76.4615 122.646 77.1179 122.628C77.1298 122.628 77.1398 122.628 77.1517 122.628C77.7943 122.628 78.3238 123.139 78.3417 123.784C78.6946 136.646 79.6705 149.643 81.2413 162.415C81.281 162.74 81.1858 163.068 80.9754 163.322C80.7653 163.573 80.4618 163.728 80.1346 163.748C78.8196 163.829 77.8219 164.155 77.1715 164.714C76.5229 165.271 76.2511 166.205 76.5645 166.796C76.8342 167.304 77.4828 167.637 78.2325 168.024C79.0576 168.451 79.9937 168.933 80.6562 169.809C81.2908 170.65 81.4971 171.614 81.6796 172.465C81.757 172.822 81.8284 173.159 81.9255 173.466C82.1754 174.246 82.6395 174.942 83.2643 175.478C83.889 176.011 84.6506 176.36 85.4617 176.485C86.2749 176.61 87.1039 176.507 87.8617 176.187C88.6192 175.866 89.2697 175.343 89.7457 174.672C91.033 172.858 90.8762 170.289 90.5808 167.594L85.7613 123.647C85.6899 122.994 86.1619 122.405 86.8145 122.334C87.4709 122.263 88.0559 122.735 88.1273 123.387L92.9468 167.334C93.2086 169.728 93.6053 173.345 91.6875 176.049C90.9557 177.08 89.954 177.885 88.7899 178.379C87.945 178.736 87.0444 178.917 86.1362 178.917Z" fill="black"/>
<path d="M29.2444 174.16C29.175 174.16 29.1036 174.154 29.0322 174.141C27.2393 173.819 25.2658 173.26 24.2147 171.544C23.2845 170.031 23.5205 168.343 23.7288 166.856C23.8815 165.771 24.0243 164.745 23.7188 163.936C23.5543 163.494 23.2349 163.024 22.8998 162.524C22.1421 161.4 21.2 160.001 21.8486 158.349C22.3563 157.068 23.5344 156.521 24.4785 156.08C24.9525 155.86 25.3988 155.652 25.6903 155.398C26.4142 154.767 26.5729 153.54 26.684 152.229L29.6371 117.07C29.6926 116.416 30.2698 115.93 30.9223 115.983C31.5768 116.039 32.0628 116.614 32.0092 117.268L29.056 152.427C28.9093 154.172 28.6494 155.977 27.2531 157.191C26.7078 157.665 26.0572 157.968 25.4821 158.236C24.8038 158.552 24.2186 158.823 24.062 159.222C23.8835 159.674 24.2504 160.269 24.8731 161.193C25.2718 161.784 25.6823 162.395 25.9462 163.097C26.4638 164.474 26.2615 165.914 26.085 167.183C25.9105 168.433 25.7597 169.511 26.2416 170.297C26.803 171.211 28.1774 171.568 29.4507 171.796C30.0972 171.911 30.5277 172.53 30.4126 173.177C30.3114 173.756 29.8097 174.16 29.2444 174.16Z" fill="black"/>
<path d="M47.0447 84.6111C46.6064 84.6111 46.1839 84.3671 45.9776 83.9487C45.686 83.3596 45.9281 82.6456 46.5171 82.3541L49.7282 80.7674C50.3172 80.4758 51.0312 80.7178 51.3228 81.3069C51.6143 81.8959 51.3723 82.6099 50.7833 82.9015L47.5722 84.4881C47.3998 84.5714 47.2211 84.6111 47.0447 84.6111Z" fill="black"/>
<path d="M57.9608 88.7423C56.2194 88.7423 54.4265 88.4646 52.6494 87.9093C51.6915 87.5999 50.7097 87.2052 49.9521 86.396C48.9545 85.329 48.7205 83.7979 49.3829 82.6713C49.7161 82.1041 50.446 81.9157 51.0112 82.2489C51.5784 82.5821 51.7669 83.3119 51.4337 83.8772C51.3147 84.0795 51.4337 84.496 51.6895 84.7697C52.0763 85.1842 52.7248 85.4321 53.3674 85.6404C55.9755 86.4535 58.6094 86.5824 60.9775 86.0132C63.5022 85.4063 65.7295 83.9287 67.0901 81.9613C67.1991 81.8046 67.2983 81.6539 67.3975 81.5031C67.6851 81.0648 68.0123 80.567 68.4586 80.1327C69.3134 79.3016 70.4142 78.9387 71.4058 79.1588C72.0464 79.3016 72.451 79.9363 72.3082 80.5789C72.1654 81.2195 71.5307 81.6241 70.8881 81.4813C70.6977 81.4397 70.3745 81.5904 70.1186 81.8403C69.8588 82.0922 69.6307 82.4412 69.3887 82.8101C69.2757 82.9827 69.1626 83.1552 69.0436 83.3238C67.3598 85.7574 64.6228 87.584 61.5368 88.3278C60.3844 88.6054 59.1865 88.7423 57.9608 88.7423Z" fill="black"/>
<path d="M58.5895 91.5984C57.6455 91.5984 56.749 91.5587 55.9339 91.5072C54.2301 91.402 52.2706 91.2076 50.567 90.216C48.8236 89.2025 46.9177 87.9411 46.3742 85.8011C46.2116 85.1644 46.5964 84.5159 47.235 84.3552C47.8716 84.1926 48.5202 84.5774 48.6808 85.216C48.9981 86.4615 50.438 87.3897 51.7629 88.1593C53.0163 88.8891 54.6487 89.0438 56.0786 89.1331C58.534 89.2838 61.4138 89.3294 64.1349 88.5262C66.9195 87.7051 68.8018 84.9264 69.6764 83.3437C69.9937 82.7686 70.7175 82.5603 71.2928 82.8776C71.868 83.195 72.0762 83.9189 71.7589 84.4941C70.7077 86.3961 68.407 89.7479 64.8073 90.809C62.7228 91.4258 60.5511 91.5984 58.5895 91.5984Z" fill="black"/>
<path d="M69.1808 82.2648C68.8338 82.2648 68.4906 82.1141 68.2547 81.8226C67.973 81.4735 67.7569 81.0887 67.5486 80.7178C67.3999 80.4541 67.2471 80.1804 67.0666 79.9126C66.6997 79.3672 66.8446 78.6274 67.3879 78.2605C67.9334 77.8936 68.6731 78.0384 69.0401 78.5818C69.276 78.9309 69.4605 79.2621 69.6232 79.5536C69.7977 79.865 69.9484 80.1328 70.1031 80.3251C70.5157 80.8368 70.4384 81.5846 69.9267 81.9991C69.7084 82.1796 69.4447 82.2648 69.1808 82.2648Z" fill="black"/>
<path d="M50.2003 84.504C49.7897 84.504 49.3911 84.2918 49.1709 83.911C48.8398 83.3438 49.0341 82.6139 49.6014 82.2847C50.1507 81.9653 50.5811 81.5746 50.8964 81.291L50.9699 81.2256C51.6779 80.5869 51.7989 80.335 51.9496 80.0177C51.9933 79.9265 52.0369 79.8372 52.0864 79.742C52.3939 79.1609 53.1138 78.9388 53.695 79.2442C54.276 79.5516 54.4982 80.2716 54.1927 80.8527C54.1591 80.9181 54.1293 80.9796 54.0996 81.0431C53.8397 81.5865 53.5442 82.1081 52.5664 82.9907L52.497 83.0542C52.1261 83.3894 51.5668 83.8971 50.8012 84.3414C50.6089 84.4524 50.4026 84.504 50.2003 84.504Z" fill="black"/>
</g>
<path d="M33.2841 58.4766C31.4713 57.6596 30.3586 55.7892 29.7241 53.9149C27.9707 48.7246 29.0774 42.8381 31.8818 38.1317C34.6864 33.4252 39.0397 29.8017 43.7818 27.0428C47.453 24.9067 51.5168 23.2129 55.7672 23.1496C60.0174 23.086 64.4661 24.9008 66.7172 28.5046L69.5315 30.9836C73.1015 30.4383 76.5782 32.4235 79.3193 34.7759C82.691 37.6635 85.5013 41.2733 87.088 45.4183C88.6746 49.5635 88.9742 54.2581 87.5303 58.4548C86.2172 62.2649 82.8397 65.8447 78.8214 65.5353" fill="black"/>
<path d="M53.3795 79.3809C53.2843 77.3142 53.3042 75.8407 53.4351 73.776C50.9599 74.7875 48.2229 74.371 45.6723 73.9267C43.2269 73.4964 40.9401 72.6515 39.0936 70.9339C35.6287 67.707 34.7084 62.6733 35.2043 58.1433C35.4026 56.3445 36.1682 53.3735 37.4475 50.0831L38.9667 47.9252C40.4542 45.4778 42.3165 43.2168 44.6687 41.5785C47.021 39.9403 49.8988 38.9764 52.7509 39.2163C53.5442 39.2839 54.3633 39.4524 55.0297 39.8987C55.6961 40.3449 56.1919 41.1105 56.1344 41.9098L59.1332 43.6393C60.4085 42.7685 62.2847 43.4408 63.1693 44.7162C64.0538 45.9915 64.1749 47.6258 64.1213 49.1707C64.0678 50.7158 63.8694 52.2866 64.2304 53.7879C64.5417 54.9998 65.1943 56.0965 66.1125 56.9473C67.0309 57.7982 68.1733 58.3675 69.4049 58.5857L70.9558 58.5103C73.2308 56.5111 74.5695 56.2433 76.063 56.997C78.1891 58.07 78.5084 60.3388 78.0463 62.2449C77.5465 64.3472 76.2137 66.16 74.5041 67.4512C73.6413 68.0917 72.7012 68.6253 71.7076 69.0377C71.2197 69.2441 70.7218 69.4266 70.2161 69.5851C69.6468 69.7657 69.0717 69.7598 68.804 70.3151C67.6259 72.7705 67.124 75.1008 67.3541 77.814" fill="white"/>
<path d="M69.4065 59.7857C69.3371 59.7857 69.2677 59.7797 69.1963 59.7678C67.7365 59.5079 66.3899 58.8377 65.303 57.83C64.2162 56.8226 63.4466 55.5295 63.0777 54.0934C62.7465 52.713 62.8179 51.3704 62.8873 50.0693C62.9032 49.758 62.921 49.4486 62.931 49.1392C62.9726 47.9571 62.925 46.4636 62.1911 45.4045C61.6794 44.6667 60.4994 44.1569 59.8032 44.6329C59.2598 45.0039 58.52 44.8631 58.1491 44.3216C57.7783 43.7782 57.919 43.0383 58.4605 42.6675C60.0095 41.6103 62.6632 41.9119 64.1448 44.0498C65.2792 45.6842 65.3625 47.6734 65.3089 49.2244C65.297 49.5497 65.2812 49.8749 65.2634 50.2002C65.1999 51.3823 65.1404 52.4969 65.3863 53.5222C65.6362 54.498 66.1678 55.3905 66.9194 56.0888C67.6711 56.7869 68.6013 57.249 69.6108 57.4295C70.2574 57.5444 70.6898 58.1632 70.5747 58.8099C70.4735 59.3811 69.9718 59.7857 69.4065 59.7857Z" fill="black"/>
<path d="M38.9586 49.1232C38.7483 49.1232 38.5362 49.0677 38.3437 48.9506C37.7824 48.6095 37.602 47.8777 37.9431 47.3163C39.6884 44.4365 41.7194 42.1795 43.9843 40.6087C46.7332 38.7007 49.8807 37.7884 52.8438 38.0383C54.0319 38.1395 54.9344 38.4172 55.682 38.917C56.757 39.6329 57.3977 40.8448 57.3144 42.005C57.2668 42.6615 56.6994 43.1534 56.0411 43.1058C55.3866 43.0582 54.8927 42.4889 54.9403 41.8325C54.962 41.529 54.7202 41.1363 54.3632 40.8983C53.9684 40.6344 53.4052 40.4759 52.6436 40.4124C50.2279 40.2081 47.6337 40.9736 45.3389 42.5663C43.3516 43.9467 41.5469 45.9597 39.9761 48.552C39.7538 48.9189 39.3611 49.1232 38.9586 49.1232Z" fill="black"/>
<path d="M79.3057 66.7352C79.1113 66.7352 78.919 66.7273 78.7246 66.7133C78.0701 66.6638 77.5782 66.0907 77.6298 65.4362C77.6793 64.7817 78.2526 64.2917 78.9071 64.3414C82.3164 64.6051 85.2557 61.3802 86.4001 58.0601C87.6972 54.2897 87.5444 49.9483 85.9717 45.8369C84.5556 42.1398 81.9871 38.6234 78.5401 35.6722C75.343 32.9292 72.3719 31.7452 69.7063 32.1519C69.0558 32.2509 68.4489 31.8047 68.3497 31.1561C68.2506 30.5076 68.6969 29.8987 69.3454 29.7995C72.7289 29.2819 76.3426 30.6504 80.0871 33.8655C83.8316 37.0725 86.6361 40.9181 88.193 44.986C89.9661 49.619 90.1288 54.5358 88.6492 58.8355C87.8995 61.0094 86.5945 62.9946 84.9721 64.4266C83.2485 65.9419 81.3009 66.7333 79.3057 66.7352Z" fill="black"/>
<path d="M33.2842 59.6565C33.1217 59.6565 32.9589 59.6229 32.8004 59.5534C30.93 58.7204 29.4782 56.8997 28.5976 54.2837C26.8385 49.0953 27.6834 42.824 30.8547 37.5106C33.4865 33.1017 37.6337 29.2303 43.1772 26.0033C47.7646 23.3338 51.874 22.0089 55.7436 21.9494C60.7951 21.8721 65.3945 24.1371 67.7209 27.8637C68.0699 28.4211 67.8994 29.1549 67.342 29.504C66.7847 29.853 66.0509 29.6825 65.7018 29.1251C63.8415 26.1482 59.9502 24.268 55.7793 24.3294C52.3302 24.383 48.5995 25.6027 44.375 28.062C39.1826 31.0846 35.3211 34.6745 32.8975 38.7324C30.0772 43.4547 29.3116 48.9843 30.8507 53.5241C31.3129 54.8986 32.1935 56.6796 33.7681 57.3817C34.3691 57.6494 34.6389 58.3515 34.3712 58.9525C34.1748 59.3928 33.7384 59.6565 33.2842 59.6565Z" fill="black"/>
<path d="M67.3522 77.824C66.7413 77.824 66.2196 77.3559 66.1682 76.7331C65.9162 73.7462 66.4973 72.3798 67.7309 69.8094C68.1831 68.8712 69.038 68.6649 69.5497 68.542C69.6608 68.5142 69.7658 68.4904 69.8572 68.4606C70.3291 68.3119 70.7952 68.1413 71.2454 67.9509C72.1558 67.5741 73.0106 67.0881 73.796 66.505C75.3787 65.3091 76.4814 63.7006 76.8901 61.9792C77.1002 61.1124 77.3858 59.0061 75.5275 58.0679C74.7162 57.6574 73.921 57.4967 71.7412 59.4126C71.2474 59.847 70.4957 59.7975 70.0614 59.3036C69.627 58.8098 69.6766 58.0581 70.1704 57.6238C73.3001 54.8728 75.1089 55.1902 76.5985 55.9419C78.9071 57.1081 79.9046 59.6328 79.2025 62.5325C78.667 64.7855 77.253 66.8739 75.222 68.4071C74.274 69.1111 73.2466 69.6942 72.1637 70.1426C71.65 70.3587 71.1126 70.557 70.5711 70.7257C70.4065 70.7771 70.2478 70.8168 70.109 70.8506C70.0217 70.8723 69.9086 70.8982 69.8353 70.922C68.6948 73.302 68.3418 74.1965 68.5401 76.5289C68.5958 77.1834 68.1098 77.7586 67.4553 77.8141C67.4196 77.8219 67.3858 77.824 67.3522 77.824Z" fill="black"/>
<path d="M53.3794 79.5794C52.7467 79.5794 52.2212 79.0815 52.1914 78.443C52.1279 77.0466 52.1141 76.3445 52.1537 75.3866C49.7698 75.8467 47.3422 75.4242 45.4699 75.097C42.4453 74.5636 40.0951 73.4866 38.2842 71.8028C34.9562 68.7028 33.4033 63.677 34.0221 58.0107C34.2541 55.9103 35.1188 52.7845 36.3386 49.6488C36.5766 49.036 37.2668 48.7325 37.8796 48.9705C38.4925 49.2085 38.7959 49.8987 38.5579 50.5116C37.2053 53.9904 36.5508 56.8007 36.3882 58.2704C35.8507 63.1791 37.132 67.4771 39.9066 70.0594C41.3901 71.4398 43.2882 72.2945 45.8804 72.7507C48.5301 73.2129 50.8963 73.5242 52.9867 72.6694C53.3655 72.5147 53.7979 72.5663 54.1311 72.8043C54.4643 73.0442 54.6507 73.4369 54.625 73.8455C54.498 75.8407 54.4762 76.281 54.5714 78.3278C54.6012 78.9844 54.0934 79.5416 53.4369 79.5714C53.4151 79.5794 53.3972 79.5794 53.3794 79.5794Z" fill="black"/>
<path d="M43.3219 55.5531C44.0887 55.5531 44.7102 54.7984 44.7102 53.8673C44.7102 52.9362 44.0887 52.1814 43.3219 52.1814C42.5551 52.1814 41.9336 52.9362 41.9336 53.8673C41.9336 54.7984 42.5551 55.5531 43.3219 55.5531Z" fill="black"/>
<path d="M50.065 56.0192C50.8318 56.0192 51.4535 55.2644 51.4535 54.3332C51.4535 53.4022 50.8318 52.6475 50.065 52.6475C49.2984 52.6475 48.6768 53.4022 48.6768 54.3332C48.6768 55.2644 49.2984 56.0192 50.065 56.0192Z" fill="black"/>
</g>
<defs>
<clipPath id="clip0_845_2651">
<rect width="119" height="285.6" fill="white"/>
</clipPath>
<clipPath id="clip1_845_2651">
<rect width="119" height="119" fill="white" transform="translate(0 75.8625)"/>
</clipPath>
</defs>
</svg>
