<svg width="119" height="286" viewBox="0 0 119 286" fill="none" xmlns="http://www.w3.org/2000/svg">
<g clip-path="url(#clip0_845_2524)">
<path d="M63.181 255.246C63.4487 258.113 63.0798 259.95 62.0603 263.083C60.781 267.271 53.1353 271.008 57.8953 275.699C58.0937 275.89 61.6538 278.613 67.812 276.846C68.2583 276.62 68.7224 276.428 69.2003 276.272C69.8747 275.956 70.5014 275.552 71.0607 275.07C74.3749 272.365 76.5228 268.567 77.084 264.417C77.5086 261.395 77.8635 257.756 77.6097 255.168" fill="black"/>
<path d="M44.0302 251.553C44.0164 252.01 44.0164 252.584 43.8179 252.966C43.6196 253.348 43.4214 253.922 43.2229 254.304C40.6446 257.553 37.2729 259.465 34.0996 262.141C32.1164 263.861 30.3314 267.11 32.7114 269.213C37.3424 271.241 44.6906 270.025 46.1979 269.404C47.5864 268.831 48.9746 268.448 50.1646 267.684C55.7179 263.861 55.3214 256.98 55.7576 251.29" fill="black"/>
<path d="M59.9719 250.322C60.077 251.813 60.2753 253.151 60.2753 254.681C66.8203 255.063 73.5637 255.254 80.1087 254.872C82.927 254.646 85.6818 253.935 88.2403 252.769C91.2153 233.846 91.4137 214.54 89.6287 195.235C89.6287 194.661 89.827 193.897 89.6287 193.323C89.4303 192.368 89.4303 191.603 89.232 190.647V188.736C87.2487 170.96 84.472 153.757 80.902 136.554C67.0187 136.936 53.3337 137.701 39.4503 138.083C33.3139 164.988 31.1105 192.589 32.9053 220.084C32.8717 220.98 32.9391 221.876 33.1037 222.76C33.4765 228.11 34.3413 233.42 35.682 238.625C36.0787 239.963 36.4753 241.492 37.0703 242.83C38.062 245.315 39.4503 247.799 40.442 250.284C44.2103 251.24 48.177 251.431 52.1437 251.24C54.3253 251.049 56.7053 251.049 58.9822 250.512L59.9719 250.322Z" fill="black"/>
<path fill-rule="evenodd" clip-rule="evenodd" d="M79.8076 136.756C87.07 173.742 92.9846 213.288 87.2202 251.985C83.2569 253.688 78.6115 253.885 74.5497 253.931C70.2023 253.977 65.8053 253.87 61.4637 253.614C61.071 249.231 60.6545 244.812 60.2499 240.528C58.4511 221.471 56.5926 201.766 56.6799 182.447C56.7137 175.652 55.9897 168.941 50.5257 165.864C49.9583 165.544 49.2286 165.728 48.8973 166.275C48.5641 166.821 48.7564 167.525 49.3238 167.844C53.7466 170.334 54.3297 176.329 54.2999 182.436C54.2126 201.862 56.0766 221.621 57.8793 240.73L58.0173 242.198C58.2404 244.572 58.4668 246.98 58.6897 249.394C52.9567 250.288 47.1502 250.306 41.4162 249.447C35.1806 237.571 34.1929 225.73 33.7605 215.54C32.6676 189.659 34.9405 163.687 40.5157 138.347C40.6525 137.727 40.242 137.119 39.5994 136.988C38.9568 136.856 38.3261 137.251 38.1892 137.871C32.5724 163.398 30.2838 189.562 31.3824 215.634C31.8308 226.217 32.872 238.55 39.5756 251.016C39.7481 251.337 40.0675 251.561 40.4364 251.62C41.2307 251.747 42.0262 251.858 42.8228 251.953C42.8122 252.156 42.7923 252.366 42.751 252.452C42.6391 252.669 42.5374 252.913 42.438 253.151L42.4137 253.209C42.3423 253.383 42.2669 253.56 42.2016 253.7C40.5575 255.741 38.5623 257.24 36.4502 258.826L36.4023 258.862C35.3898 259.623 34.3412 260.411 33.3024 261.288C31.8962 262.508 30.3907 264.582 30.3809 266.746C30.375 268.026 30.9024 269.171 31.906 270.058C31.9972 270.14 32.1024 270.207 32.2175 270.257C34.3258 271.18 36.8802 271.494 39.2702 271.494C42.6241 271.494 45.6525 270.876 46.6661 270.461C47.0547 270.301 47.4593 270.15 47.8501 270.005L47.8626 270C48.8543 269.63 49.8791 269.249 50.823 268.642C50.8296 268.637 50.8369 268.633 50.8439 268.628C50.8476 268.626 50.8513 268.623 50.8549 268.621C56.1594 264.97 56.501 258.93 56.8023 253.601L56.8136 253.401C56.8416 252.906 56.8687 252.428 56.9001 251.957C57.5675 251.878 58.234 251.787 58.8996 251.684C58.994 252.721 59.0873 253.758 59.1789 254.791C59.2305 255.357 59.6985 255.801 60.2856 255.839C60.8708 255.877 61.457 255.912 62.0441 255.945C62.1959 258.349 61.8201 259.994 60.9263 262.739C60.9242 262.745 60.9223 262.753 60.9203 262.758C60.5553 263.951 59.4526 265.249 58.3856 266.503L58.374 266.516C57.1876 267.913 55.9622 269.356 55.4323 270.955C54.7778 272.933 55.3193 274.8 57.0548 276.508C57.0826 276.538 59.4566 278.589 63.7961 278.589C65.0794 278.589 66.535 278.41 68.1534 277.942C68.2268 277.922 68.2983 277.893 68.3657 277.859C68.7565 277.661 69.1649 277.492 69.5834 277.356C69.629 277.34 69.6766 277.324 69.7202 277.303C70.4899 276.943 71.2039 276.482 71.8424 275.934C75.3846 273.04 77.6656 269.003 78.2644 264.57C78.7557 261.079 78.9572 258.229 78.866 256.077C82.1325 255.857 85.5251 255.309 88.6136 253.893C88.7337 253.838 88.8398 253.765 88.9304 253.681C89.2245 253.509 89.4393 253.217 89.4922 252.865C95.4461 213.657 89.4802 173.685 82.1459 136.33C82.025 135.707 81.4022 135.3 80.7555 135.416C80.1091 135.535 79.6845 136.133 79.8076 136.756ZM54.4991 252.194C52.9609 252.314 51.42 252.374 49.8791 252.374C48.3154 252.374 46.7523 252.311 45.1918 252.188C45.1629 252.61 45.0908 253.066 44.877 253.478C44.8053 253.617 44.7216 253.816 44.6386 254.013L44.6193 254.059L44.595 254.117C44.4956 254.355 44.3939 254.599 44.282 254.816C44.2483 254.881 44.2087 254.942 44.163 255C42.3185 257.324 40.0775 259.008 37.9096 260.637L37.8462 260.684C36.8643 261.422 35.8499 262.185 34.8791 263.005C33.8338 263.911 32.7649 265.43 32.759 266.757C32.7569 267.336 32.9613 267.825 33.3837 268.248C37.6637 270.005 44.5102 268.852 45.7279 268.351C46.1288 268.185 46.5262 268.037 46.9119 267.893L46.9912 267.864C47.8996 267.525 48.7605 267.204 49.4864 266.742C53.8477 263.727 54.1412 258.511 54.4249 253.467C54.4482 253.047 54.4723 252.619 54.4991 252.194ZM64.4335 256.062C64.5614 258.665 64.1161 260.598 63.1992 263.418C62.698 265.05 61.4438 266.525 60.2318 267.951L60.2261 267.957C57.5367 271.121 56.5768 272.736 58.7188 274.869C58.935 275.034 62.023 277.27 67.368 275.777C67.8124 275.559 68.2744 275.371 68.7444 275.211C69.2958 274.947 69.8096 274.611 70.2678 274.215C70.2716 274.212 70.2757 274.208 70.2797 274.205C70.2835 274.202 70.2876 274.198 70.2916 274.194C73.3856 271.669 75.3787 268.145 75.9044 264.268C76.3702 260.955 76.5675 258.192 76.487 256.188C75.8397 256.207 75.202 256.218 74.5775 256.225C73.9052 256.231 73.2309 256.234 72.5564 256.234C69.8531 256.234 67.1376 256.177 64.4335 256.062Z" fill="black"/>
<g clip-path="url(#clip1_845_2524)">
<path d="M67.3081 75.8625C67.4866 77.8657 68.3058 82.3917 71.3541 81.7134L71.6814 82.2092C71.5327 85.3171 69.9578 87.5087 67.4907 89.7796C64.9836 92.0506 61.7865 93.415 58.4129 93.655C55.4379 93.8732 52.2744 93.1611 50.0491 91.1659C47.8238 89.1707 46.6538 86.4059 48.1273 84.0359H48.3415C49.0119 84.0557 49.6288 83.7046 50.1959 83.3476C50.9178 82.8915 52.4074 81.0212 52.8537 80.4837C53.4487 79.7122 53.6905 76.7868 53.9961 75.8625H67.3081Z" fill="white"/>
<path d="M71.7096 80.6226C75.2182 81.5627 77.9392 84.2659 80.1308 87.0347C82.5207 90.0573 84.395 93.4527 85.6802 97.0843C86.4001 99.1132 87.5385 101.396 88.0086 103.494L88.6354 105.414C92.0308 120.037 92.6377 135.121 92.8599 150.158L93.0582 150.384C94.2799 154.855 98.8416 166.16 99.8333 170.92C99.865 171.326 99.7976 171.735 99.6349 172.11C97.6516 174.49 94.2799 173.895 91.6718 174.704L82.4553 176.538C69.2641 178.905 56.0254 179.484 42.8104 177.255L40.3174 176.963L31.7891 175.331C31.0195 175.184 30.1746 174.988 29.7245 174.339C29.3515 173.807 29.3535 173.107 29.3813 172.459C29.4943 169.88 29.7918 167.322 30.0893 164.762L31.45 153.032H31.3467C29.3318 152.786 27.7134 152.542 25.6982 152.298C26.5332 143.086 27.6042 133.897 28.9112 124.73C30.0477 116.747 31.3705 108.762 33.7188 101.049C35.8054 94.1945 39.1155 87.1061 45.4006 83.669L54.1273 84.264L71.7096 80.6226Z" fill="white"/>
<path d="M78.5283 162.124C76.6183 162.74 74.1451 164.928 75.7516 167.046C76.6421 168.214 77.9828 168.843 79.2145 169.575C80.1645 170.14 80.4144 172.042 80.7833 173.052C81.7094 175.597 83.5144 177.677 86.4656 177.487C89.4723 177.288 91.3425 174.728 91.9137 171.965C92.5346 168.97 91.7154 165.083 91.2175 162.124H78.5283Z" fill="white"/>
<path d="M29.375 172.994C27.3778 172.917 25.454 171.709 24.6607 169.924C24.859 166.751 25.454 162.982 22.8757 160.404C22.479 158.817 23.669 157.627 25.0573 157.11L31.0073 156.798L29.375 172.994Z" fill="white"/>
<path d="M54.145 84.2758L56.0451 92.5225C59.0657 91.4615 62.0942 90.3984 64.9701 88.9922C66.0054 88.4864 67.0446 87.9152 67.7943 87.0406C68.6809 86.0073 69.0776 84.6606 69.4524 83.3456C70.0158 81.3623 70.5829 79.379 70.7693 77.3223C68.314 77.5107 66.045 78.6392 63.8475 79.7479C60.9301 81.2175 58.0125 82.6911 54.145 84.2758Z" fill="white"/>
<path d="M52.0623 80.325L51.2789 81.761C51.1718 82.0625 51.1301 82.3838 51.152 82.7031C51.2869 83.6273 52.3877 84.0081 53.2999 84.2005C52.2746 86.6618 50.7931 88.9089 48.9367 90.8229C47.9092 89.7201 47.1279 88.4131 46.6438 86.9851C46.1599 85.5571 45.9874 84.0438 46.1342 82.5444L52.0623 79.5813C52.4312 80.1862 52.2806 80.5075 52.0623 80.325Z" fill="white"/>
<path d="M76.6677 156.929C76.3543 158.447 76.2512 159.998 76.3583 161.543C76.3543 161.632 76.3662 161.721 76.398 161.804C76.4297 161.888 76.4773 161.965 76.5387 162.031C76.6637 162.106 76.8105 162.14 76.9552 162.124L90.442 162.086C90.6462 162.102 90.8506 162.064 91.037 161.979C91.4178 161.763 91.4475 161.235 91.4337 160.789L91.2909 157.134L76.6677 156.929Z" fill="white"/>
<path d="M26.3088 152.707C25.6721 154.046 25.5433 155.563 25.4243 157.04C27.112 157.554 28.8654 157.822 30.6285 157.834L31.2553 153.169L26.3088 152.707Z" fill="white"/>
<path d="M88.0064 104.684C87.4611 104.684 86.9711 104.308 86.8462 103.754C86.5606 102.481 85.9875 101.077 85.4322 99.718C85.1287 98.9783 84.8172 98.2127 84.5575 97.4829C83.3119 93.9644 81.509 90.6978 79.1966 87.7724C77.5087 85.6403 74.865 82.701 71.4 81.7709C70.7654 81.6003 70.3885 80.9478 70.5591 80.3131C70.7297 79.6784 71.3821 79.3016 72.0169 79.4722C76.164 80.5828 79.1668 83.899 81.0628 86.2948C83.538 89.4265 85.4698 92.9212 86.8007 96.6856C87.0406 97.3618 87.3302 98.0679 87.6356 98.8157C88.2287 100.265 88.8394 101.765 89.1688 103.233C89.3116 103.873 88.9089 104.51 88.2682 104.655C88.1811 104.674 88.0938 104.684 88.0064 104.684Z" fill="black"/>
<path d="M38.5284 177.82C38.455 177.82 38.3797 177.812 38.3043 177.798L31.5708 176.509C30.7894 176.352 29.5023 176.092 28.7565 175.033C28.1734 174.202 28.1615 173.246 28.1972 172.417C28.3123 169.795 28.6177 167.171 28.9112 164.635L31.315 143.907C32.9493 129.918 34.6371 115.452 37.9254 101.495C38.0762 100.856 38.7168 100.458 39.3574 100.61C39.996 100.761 40.3927 101.402 40.242 102.042C36.9853 115.866 35.3055 130.263 33.6792 144.186L31.2754 164.912C30.9858 167.409 30.6863 169.99 30.5733 172.524C30.5593 172.84 30.5336 173.431 30.7021 173.669C30.9005 173.95 31.6065 174.093 32.027 174.176L38.7505 175.464C39.3951 175.586 39.8196 176.211 39.6946 176.856C39.5855 177.423 39.0877 177.82 38.5284 177.82Z" fill="black"/>
<path d="M59.8906 179.847C53.9623 179.847 48.2265 179.373 42.6097 178.425C41.9611 178.316 41.5249 177.701 41.6339 177.054C41.7431 176.406 42.3559 175.967 43.0045 176.078C55.2317 178.141 68.0659 177.907 82.2407 175.364C82.8873 175.247 83.5061 175.678 83.6211 176.326C83.7382 176.973 83.3077 177.592 82.6591 177.707C74.704 179.133 67.1534 179.847 59.8906 179.847Z" fill="black"/>
<path d="M91.6675 175.89C91.1598 175.89 90.6898 175.563 90.5311 175.053C90.3368 174.424 90.6879 173.758 91.3145 173.564C92.2566 173.272 93.2502 173.147 94.2103 173.028C95.9953 172.806 97.5482 172.612 98.5914 171.487C98.6311 171.354 98.649 171.213 98.6449 171.075C98.0678 168.381 96.3006 163.441 94.7398 159.075C93.5537 155.757 92.4312 152.624 91.9055 150.696C91.733 150.061 92.1059 149.407 92.7406 149.234C93.3732 149.061 94.0297 149.434 94.2022 150.069C94.706 151.91 95.8108 155.002 96.983 158.274C98.6647 162.977 100.404 167.84 100.995 170.676C101.005 170.725 101.013 170.775 101.017 170.827C101.063 171.424 100.961 172.031 100.726 172.58C100.68 172.685 100.62 172.782 100.547 172.87C98.9027 174.843 96.5684 175.135 94.5078 175.39C93.6112 175.501 92.7623 175.608 92.0226 175.839C91.9036 175.872 91.7846 175.89 91.6675 175.89Z" fill="black"/>
<path d="M86.0984 179.008C83.2165 179.008 80.8881 177.124 79.6684 173.774C79.5593 173.472 79.4661 173.135 79.3689 172.778C79.23 172.272 78.9068 171.088 78.6112 170.914C78.401 170.789 78.1908 170.668 77.9786 170.547C76.9056 169.934 75.6897 169.238 74.8091 168.08C73.8571 166.83 73.9266 165.703 74.1527 164.98C74.6625 163.353 76.4316 162.26 77.9191 161.78C78.5438 161.58 79.2162 161.921 79.4165 162.548C79.6167 163.175 79.2757 163.845 78.649 164.045C77.5461 164.402 76.6101 165.095 76.4237 165.692C76.388 165.805 76.2947 166.104 76.7012 166.638C77.2903 167.411 78.1987 167.931 79.1586 168.48C79.3828 168.609 79.6069 168.736 79.8271 168.867C80.9476 169.531 81.3443 170.983 81.6635 172.147C81.7468 172.455 81.8282 172.746 81.9036 172.956C82.5462 174.72 83.8433 176.78 86.3938 176.616C88.0698 176.505 90.0928 175.245 90.7572 172.042C91.2668 169.577 90.8048 166.923 90.3586 164.355C90.305 164.045 90.2515 163.738 90.1999 163.431C90.0908 162.782 90.5271 162.169 91.1757 162.06C91.8242 161.949 92.4371 162.387 92.5461 163.036C92.5977 163.339 92.6493 163.643 92.7029 163.948C93.1868 166.735 93.6885 169.617 93.0875 172.526C92.3181 176.243 89.7536 178.782 86.5525 178.992C86.3997 179.004 86.2471 179.008 86.0984 179.008Z" fill="black"/>
<path d="M29.2384 174.166C29.2245 174.166 29.2107 174.166 29.1988 174.166C28.0048 174.127 26.8485 173.756 25.8549 173.092C24.8612 172.429 24.0738 171.505 23.5799 170.418C23.4987 170.239 23.463 170.045 23.4749 169.851C23.4947 169.522 23.5204 169.184 23.5463 168.843C23.7525 166.057 23.9647 163.175 22.0369 161.245C21.8842 161.092 21.7771 160.902 21.7235 160.692C21.2297 158.716 22.4039 156.828 24.645 155.993C25.2599 155.763 25.9461 156.077 26.1762 156.693C26.4062 157.308 26.0929 157.994 25.476 158.224C25.2063 158.326 23.9548 158.847 23.9945 159.851C26.4002 162.524 26.1345 166.114 25.9203 169.018C25.9044 169.242 25.8866 169.462 25.8727 169.682C26.1841 170.257 26.6323 170.747 27.1777 171.112C27.8025 171.529 28.5284 171.763 29.28 171.786C29.9366 171.808 30.4522 172.358 30.4304 173.016C30.4066 173.659 29.8771 174.166 29.2384 174.166Z" fill="black"/>
<path d="M56.0529 93.7066C55.8546 93.7066 55.6543 93.657 55.4798 93.5618C55.1823 93.3992 54.9621 93.1195 54.8848 92.7903L52.9847 84.5436C52.8538 83.9764 53.1533 83.3972 53.6927 83.1751C57.475 81.6261 60.3924 80.1545 63.2148 78.7344L63.31 78.6868C65.4837 77.59 67.947 76.3465 70.6761 76.1382C71.0251 76.1105 71.3682 76.2394 71.6141 76.4893C71.8601 76.7392 71.983 77.0843 71.9513 77.4314C71.7569 79.5773 71.1738 81.6301 70.6106 83.6134L70.5928 83.6729C70.2258 84.9621 69.7696 86.5646 68.6927 87.8181C67.8101 88.8474 66.632 89.5059 65.4877 90.0632C62.5543 91.4971 59.4523 92.588 56.4516 93.6412C56.3266 93.6848 56.1898 93.7066 56.0529 93.7066ZM55.5313 84.9879L56.9057 90.9577C59.4563 90.0553 62.0367 89.1013 64.4464 87.9232C65.2973 87.5067 66.2591 87.001 66.8898 86.2671C67.6257 85.4083 67.9727 84.1945 68.3059 83.0204L68.3218 82.9609C68.7304 81.521 69.1231 80.1406 69.371 78.7483C67.6514 79.1608 65.9934 79.9958 64.3789 80.811L64.2818 80.8606C61.6598 82.1834 58.9486 83.548 55.5313 84.9879Z" fill="black"/>
<path d="M48.9369 92.0128C48.9329 92.0128 48.9289 92.0128 48.925 92.0128C48.5997 92.009 48.2883 91.8721 48.0661 91.6341C46.9158 90.4004 46.059 88.9645 45.5176 87.3659C44.9761 85.7673 44.7857 84.1073 44.9504 82.4274C44.988 82.0327 45.222 81.6837 45.5692 81.4952L51.9693 78.0442C52.4215 77.8003 52.9789 77.8737 53.3518 78.2267C53.7246 78.5797 53.8297 79.1331 53.6115 79.5972L52.3858 82.2053C52.3522 82.3144 52.3363 82.4274 52.3363 82.5424C52.3739 82.596 52.604 82.838 53.5461 83.0363C53.8932 83.1097 54.1887 83.3338 54.3533 83.6472C54.518 83.9605 54.5358 84.3314 54.399 84.6587C53.3121 87.2687 51.7611 89.621 49.7916 91.652C49.5676 91.8819 49.2582 92.0128 48.9369 92.0128ZM47.2788 83.2802C47.2411 84.4107 47.4077 85.5254 47.7726 86.6043C48.0642 87.4651 48.4707 88.2663 48.9864 89.0002C50.0455 87.7527 50.942 86.3881 51.6659 84.9224C50.6743 84.4623 50.107 83.7761 49.9741 82.8756C49.9701 82.8459 49.9662 82.8181 49.9642 82.7884C49.9404 82.4512 49.9642 82.118 50.0336 81.7908L47.2788 83.2802Z" fill="black"/>
<path d="M31.3465 154.224C31.2989 154.224 31.2493 154.222 31.2017 154.216C30.2062 154.095 29.2937 153.972 28.4131 153.853C27.5087 153.732 26.5726 153.605 25.5552 153.482C24.9166 153.405 24.4544 152.834 24.5139 152.193C25.3469 142.996 26.4298 133.701 27.7348 124.563C28.8377 116.818 30.1883 108.568 32.5821 100.704C35.4282 91.3901 39.3216 85.6483 44.8372 82.6316C45.4144 82.3163 46.1362 82.5285 46.4516 83.1057C46.7669 83.6828 46.5547 84.4047 45.9775 84.7201C41.043 87.4194 37.5087 92.7189 34.857 101.398C32.5107 109.107 31.1779 117.249 30.0891 124.898C28.8436 133.617 27.8024 142.481 26.9872 151.261C27.5901 151.338 28.1653 151.416 28.7306 151.493C29.6052 151.61 30.5075 151.733 31.4893 151.852C32.1418 151.931 32.6059 152.524 32.5267 153.177C32.4512 153.782 31.9395 154.224 31.3465 154.224Z" fill="black"/>
<path d="M50.7439 179.494C50.1489 179.494 49.6351 179.049 49.5637 178.445C47.4317 160.529 48.59 142.304 49.7086 124.678L52.2076 85.3071C52.2492 84.6506 52.8164 84.1588 53.4709 84.1945C54.1274 84.2361 54.6252 84.8014 54.5836 85.4578L52.0846 124.829C50.9719 142.348 49.8216 160.464 51.9279 178.163C52.0053 178.815 51.5391 179.408 50.8867 179.486C50.8391 179.492 50.7915 179.494 50.7439 179.494Z" fill="black"/>
<path d="M92.9428 158.234C92.9368 158.234 92.9289 158.234 92.923 158.234L75.6561 157.951C75.067 157.941 74.5732 157.5 74.4959 156.915C72.1456 139.02 71.3245 120.801 72.0563 102.766C72.0821 102.11 72.6354 101.602 73.2939 101.626C73.9504 101.652 74.4621 102.207 74.4343 102.864C73.7223 120.422 74.4918 138.155 76.7231 155.589L91.7389 155.834C91.7309 155.113 91.725 154.393 91.7171 153.675C91.5624 137.748 91.4156 122.707 87.7901 107.076C87.6413 106.436 88.04 105.797 88.6806 105.648C89.3212 105.499 89.9599 105.898 90.1086 106.539C93.7936 122.423 93.9404 137.592 94.0971 153.653C94.107 154.775 94.1189 155.9 94.1308 157.032C94.1347 157.354 94.0078 157.663 93.7798 157.889C93.5596 158.109 93.2562 158.234 92.9428 158.234Z" fill="black"/>
<path d="M76.8877 163.317C76.5485 163.317 76.2114 163.224 75.9199 163.048C75.8306 162.994 75.7493 162.929 75.6779 162.853C75.5034 162.671 75.3704 162.457 75.2812 162.219C75.2038 162.01 75.1662 161.792 75.1662 161.57C75.0572 159.936 75.1702 158.294 75.5013 156.691C75.6343 156.047 76.2629 155.632 76.9076 155.767C77.5521 155.9 77.9646 156.529 77.8318 157.173C77.5759 158.411 77.4708 159.674 77.5164 160.936L90.2454 160.9C90.2454 160.878 90.2454 160.854 90.2435 160.828L90.1007 157.179C90.0749 156.523 90.5866 155.969 91.2431 155.943C91.9035 155.914 92.4529 156.429 92.4787 157.086L92.6215 160.741C92.6354 161.162 92.673 162.417 91.6239 163.012C91.5941 163.028 91.5644 163.044 91.5327 163.058C91.1816 163.22 90.7928 163.294 90.4061 163.274L77.0028 163.312C76.965 163.316 76.9254 163.317 76.8877 163.317Z" fill="black"/>
<path d="M30.6287 159.024H30.6208C28.7406 159.012 26.8762 158.726 25.0773 158.179C24.5418 158.016 24.1927 157.503 24.2384 156.945C24.3593 155.448 24.4962 153.75 25.234 152.195C25.5157 151.602 26.2257 151.35 26.8207 151.632C27.4137 151.914 27.6656 152.624 27.384 153.219C26.9654 154.099 26.7988 155.121 26.6957 156.156C27.9849 156.471 29.3078 156.636 30.6366 156.644C31.2931 156.648 31.8227 157.185 31.8187 157.842C31.8147 158.496 31.2812 159.024 30.6287 159.024Z" fill="black"/>
</g>
<path d="M69.6664 57.2669C71.0409 55.6485 70.6146 52.8461 68.8215 51.7136C68.1789 51.305 67.3659 51.0511 67.0148 50.3768C66.6181 49.6331 66.977 48.7425 67.1853 47.9294C67.1853 47.9036 67.1993 47.8759 67.2072 47.85C67.8022 45.3986 64.9997 43.58 62.9589 45.0635C60.4103 46.9159 57.5146 48.2368 54.4444 48.9488C52.8577 49.3137 50.9082 49.3851 49.9284 48.088C49.3493 47.3185 49.2103 46.1563 47.7466 46.2654C47.3203 46.3011 46.9098 46.4498 46.5566 46.6938C43.9367 48.4609 40.9398 49.5855 37.8042 49.9801C36.9276 50.0893 36.0192 50.1388 35.1724 49.887C32.7407 49.163 31.6361 46.0671 32.3699 43.6395C33.1037 41.2119 35.1764 39.4169 37.366 38.1317C38.7226 37.3384 40.2339 36.6085 41.051 35.2619C41.531 34.4685 41.7193 33.5243 42.2012 32.733C42.6832 31.9416 43.4369 31.3447 44.2045 30.8053C48.3397 27.9434 53.2842 26.4876 58.31 26.6482C61.285 26.7513 64.7815 27.9473 65.4241 30.847L69.9858 32.7688C73.4963 33.3082 77.0663 34.4903 79.5515 37.029C82.0365 39.5676 83.1215 43.7148 81.3365 46.787C81.1023 47.1836 80.8129 47.6041 80.8248 48.0722C80.8405 48.6672 81.3384 49.1352 81.7509 49.5755C82.4729 50.357 83.0223 51.2812 83.3614 52.2887C83.7006 53.2963 83.8236 54.3633 83.7224 55.4224C83.6292 56.3427 83.3257 57.2947 82.6355 57.9036C81.9453 58.5124 80.7691 58.6374 80.1167 57.9829L70.2198 59.5001L69.6664 57.2669Z" fill="black"/>
<path d="M37.4473 50.0833C36.1681 53.3736 35.3986 56.3446 35.2042 58.1434C34.7144 62.6735 35.6286 67.7072 39.0936 70.934C40.94 72.6516 43.2267 73.4965 45.6722 73.9269C48.2228 74.3771 50.9598 74.7877 53.435 73.7762C53.3041 75.8408 53.2843 77.3143 53.3795 79.3811L67.362 77.8301C67.1359 75.1149 67.6396 72.7864 68.8217 70.3311C69.0894 69.7757 69.6647 69.7816 70.2338 69.6012C70.7395 69.4425 71.2355 69.2601 71.7253 69.0538C72.7189 68.6413 73.6571 68.1078 74.5218 67.4671C76.2314 66.1759 77.5642 64.3633 78.064 62.2608C78.5183 60.3549 78.1989 58.086 76.0807 57.0129C74.5872 56.2594 73.2485 56.5271 70.9737 58.5263L69.6844 57.2728C71.0589 55.6544 70.6324 52.852 68.8395 51.7195C68.1969 51.3109 67.3837 51.057 67.0327 50.3827C66.6361 49.639 66.995 48.7484 67.2033 47.9353C67.2033 47.9094 67.2171 47.8818 67.2252 47.8559C67.8202 45.4045 65.0177 43.5859 62.9769 45.0694C60.4282 46.9217 57.5326 48.2426 54.4624 48.9547C52.8757 49.3196 50.926 49.391 49.9464 48.0939C49.3671 47.3244 49.2283 46.1622 47.7646 46.2713C47.3382 46.307 46.9276 46.4557 46.5746 46.6997C43.9488 48.4668 40.944 49.5894 37.8043 49.98" fill="white"/>
<path d="M81.2612 59.6151C80.5175 59.6151 79.7956 59.3513 79.268 58.8237C78.8039 58.3577 78.8058 57.604 79.2699 57.1399C79.7361 56.6758 80.4897 56.6779 80.9538 57.142C81.1025 57.2907 81.5687 57.2529 81.8424 57.0111C82.2092 56.6877 82.4532 56.0808 82.5326 55.3013C82.6178 54.4088 82.5167 53.5223 82.2271 52.6676C81.9395 51.8127 81.4833 51.0451 80.8705 50.3828L80.7693 50.2757C80.2993 49.7797 79.6547 49.1014 79.629 48.1039C79.6091 47.3402 79.9681 46.7433 80.2299 46.307L80.3052 46.1821C81.884 43.4629 80.6563 39.8632 78.6948 37.8619C76.7452 35.8707 73.7523 34.5537 69.7996 33.9448C69.149 33.8456 68.7048 33.2368 68.8039 32.5882C68.9031 31.9397 69.5119 31.4934 70.1605 31.5927C74.6349 32.2808 78.078 33.8299 80.3965 36.1959C81.8027 37.6319 82.8003 39.5041 83.2049 41.4676C83.6432 43.5917 83.3437 45.6921 82.36 47.3859L82.2708 47.5346C82.1795 47.6853 82.0288 47.9352 82.0109 48.0385C82.0526 48.1713 82.3303 48.4628 82.4969 48.6394L82.6138 48.7623C83.4608 49.6786 84.0875 50.7338 84.4842 51.9079C84.8808 53.082 85.0197 54.3017 84.9026 55.5355C84.7598 56.9397 84.2481 58.0642 83.4191 58.7961C82.7983 59.3414 82.0188 59.6151 81.2612 59.6151Z" fill="black"/>
<path d="M69.6664 58.4568C69.3948 58.4568 69.1211 58.3635 68.8969 58.1731C68.3952 57.7466 68.3357 56.9969 68.7601 56.4952C69.1865 55.9935 69.371 55.2417 69.2559 54.4841C69.1409 53.7284 68.7403 53.068 68.1869 52.7189C68.0501 52.6317 67.8894 52.5463 67.7188 52.4551C67.1258 52.1398 66.386 51.7452 65.9596 50.926C65.4043 49.8847 65.7117 48.788 65.9378 47.9848C65.9655 47.8855 65.9933 47.7863 66.0191 47.6892C66.031 47.6257 66.0469 47.5683 66.0628 47.5207C66.2571 46.6163 65.6363 46.1184 65.438 45.9856C65.0037 45.694 64.3095 45.5531 63.6609 46.0232C60.9675 47.9807 57.9589 49.3533 54.7161 50.1049C52.0684 50.7137 50.085 50.2636 48.9823 48.8018C48.7859 48.542 48.6412 48.2763 48.5142 48.0422C48.1771 47.4234 48.1652 47.4234 47.8379 47.4493C47.6297 47.4671 47.4194 47.5424 47.2389 47.6673C44.4643 49.5377 41.2592 50.7415 37.9569 51.1561C37.0247 51.273 35.926 51.3465 34.8372 51.0231C33.5499 50.6404 32.4572 49.7162 31.759 48.423C30.926 46.876 30.7296 44.9581 31.2334 43.2902C31.9514 40.9162 33.8117 38.8337 36.7669 37.1001C36.9494 36.993 37.1318 36.8899 37.3163 36.7848C38.4329 36.1481 39.4861 35.5472 40.0375 34.6389C40.2219 34.3355 40.3647 33.9625 40.5174 33.5679C40.7018 33.0898 40.8922 32.596 41.1897 32.1081C41.7887 31.1225 42.6674 30.4282 43.5242 29.8254C47.8458 26.8344 53.1076 25.2855 58.3516 25.4521C61.6538 25.5671 65.791 26.9792 66.5903 30.5829C66.7331 31.2255 66.3285 31.8603 65.6859 32.0031C65.0453 32.1438 64.4087 31.7413 64.2659 31.0987C63.7938 28.9686 60.916 27.9233 58.2722 27.8321C53.538 27.6774 48.7819 29.0816 44.8847 31.7789C44.2441 32.2292 43.5935 32.7349 43.2207 33.3478C43.0342 33.6531 42.8895 34.028 42.7367 34.4247C42.5543 34.8986 42.3659 35.3886 42.0724 35.8725C41.2016 37.3084 39.7638 38.1295 38.4944 38.8515C38.3179 38.9527 38.1433 39.0517 37.9688 39.1529C35.5491 40.573 34.0497 42.1973 33.5103 43.9783C33.191 45.0374 33.3219 46.3069 33.8534 47.2925C34.133 47.8101 34.6468 48.4825 35.5134 48.7404C36.1819 48.9387 36.9732 48.8792 37.6594 48.794C40.5928 48.4251 43.4409 47.356 45.8942 45.7019C46.404 45.3489 47.0148 45.1288 47.6495 45.0752C49.5316 44.9324 50.2298 46.2155 50.6047 46.9038C50.7018 47.0823 50.793 47.2508 50.8823 47.3679C51.5646 48.2723 53.417 47.961 54.1806 47.7844C57.11 47.1061 59.8291 45.8645 62.2627 44.0954C63.6133 43.1136 65.3805 43.0779 66.7649 44.0042C68.1254 44.9146 68.7541 46.533 68.3674 48.1235C68.3614 48.1473 68.3555 48.1692 68.3476 48.193L68.3455 48.1969C68.3436 48.2028 68.3416 48.2109 68.3416 48.2168C68.3079 48.3496 68.2702 48.4846 68.2325 48.6214C68.1096 49.0577 67.9588 49.6011 68.0699 49.8093C68.1611 49.9859 68.5082 50.1703 68.8434 50.3488C69.0457 50.4559 69.2539 50.5671 69.4662 50.7018C70.6086 51.4239 71.3919 52.6693 71.6141 54.1171C71.8362 55.5689 71.4594 56.995 70.5808 58.0284C70.3388 58.314 70.0036 58.4568 69.6664 58.4568Z" fill="black"/>
<path d="M67.3522 77.824C66.7413 77.824 66.2196 77.3559 66.1682 76.7331C65.9162 73.7462 66.4973 72.3798 67.7309 69.8094C68.1831 68.8712 69.038 68.6649 69.5497 68.542C69.6608 68.5142 69.7658 68.4904 69.8572 68.4606C70.3291 68.3119 70.7952 68.1413 71.2454 67.9509C72.1558 67.5741 73.0106 67.0881 73.796 66.505C75.3787 65.3091 76.4814 63.7006 76.8901 61.9792C77.1002 61.1124 77.3858 59.0061 75.5275 58.0679C74.7162 57.6574 73.921 57.4967 71.7412 59.4126C71.2474 59.847 70.4957 59.7975 70.0614 59.3036C69.627 58.8098 69.6766 58.0581 70.1704 57.6238C73.3001 54.8728 75.1089 55.1902 76.5985 55.9419C78.9071 57.1081 79.9046 59.6328 79.2025 62.5325C78.667 64.7855 77.253 66.8739 75.222 68.4071C74.274 69.1111 73.2466 69.6942 72.1637 70.1426C71.65 70.3587 71.1126 70.557 70.5711 70.7257C70.4065 70.7771 70.2478 70.8168 70.109 70.8506C70.0217 70.8723 69.9086 70.8982 69.8353 70.922C68.6948 73.302 68.3418 74.1965 68.5401 76.5289C68.5958 77.1834 68.1098 77.7586 67.4553 77.8141C67.4196 77.8219 67.3858 77.824 67.3522 77.824Z" fill="black"/>
<path d="M53.3794 79.5794C52.7467 79.5794 52.2212 79.0815 52.1914 78.443C52.1279 77.0466 52.1141 76.3445 52.1537 75.3866C49.7698 75.8467 47.3422 75.4242 45.4699 75.097C42.4453 74.5636 40.0951 73.4866 38.2842 71.8028C34.9562 68.7028 33.4033 63.677 34.0221 58.0107C34.2541 55.9103 35.1188 52.7845 36.3386 49.6488C36.5766 49.036 37.2668 48.7325 37.8796 48.9705C38.4925 49.2085 38.7959 49.8987 38.5579 50.5116C37.2053 53.9904 36.5508 56.8007 36.3882 58.2704C35.8507 63.1791 37.132 67.4771 39.9066 70.0594C41.3901 71.4398 43.2882 72.2945 45.8804 72.7507C48.5301 73.2129 50.8963 73.5242 52.9867 72.6694C53.3655 72.5147 53.7979 72.5663 54.1311 72.8043C54.4643 73.0442 54.6507 73.4369 54.625 73.8455C54.498 75.8407 54.4762 76.281 54.5714 78.3278C54.6012 78.9844 54.0934 79.5416 53.4369 79.5714C53.4151 79.5794 53.3972 79.5794 53.3794 79.5794Z" fill="black"/>
<path d="M43.3219 55.5531C44.0887 55.5531 44.7102 54.7984 44.7102 53.8673C44.7102 52.9362 44.0887 52.1814 43.3219 52.1814C42.5551 52.1814 41.9336 52.9362 41.9336 53.8673C41.9336 54.7984 42.5551 55.5531 43.3219 55.5531Z" fill="black"/>
<path d="M50.065 56.0192C50.8318 56.0192 51.4535 55.2644 51.4535 54.3332C51.4535 53.4022 50.8318 52.6475 50.065 52.6475C49.2984 52.6475 48.6768 53.4022 48.6768 54.3332C48.6768 55.2644 49.2984 56.0192 50.065 56.0192Z" fill="black"/>
</g>
<defs>
<clipPath id="clip0_845_2524">
<rect width="119" height="285.6" fill="white"/>
</clipPath>
<clipPath id="clip1_845_2524">
<rect width="119" height="119" fill="white" transform="translate(0 75.8625)"/>
</clipPath>
</defs>
</svg>
