<svg width="119" height="286" viewBox="0 0 119 286" fill="none" xmlns="http://www.w3.org/2000/svg">
<g clip-path="url(#clip0_845_2275)">
<path d="M76.1422 260.982C74.9384 263.719 72.711 265.871 69.9364 266.979C67.1637 268.087 64.0677 268.064 61.3129 266.91L61.1482 266.842C59.9741 270.218 58.2248 273.405 57.485 276.901C57.37 277.435 57.2867 278.021 57.5425 278.505C57.9095 279.198 58.794 279.393 59.5695 279.498C62.2569 279.895 65.0474 280.223 67.6496 279.445C71.9951 278.154 74.9701 273.932 76.1046 269.533C76.9355 266.324 76.9733 262.994 76.8344 259.666L76.1422 260.982Z" fill="black"/>
<path d="M54.4624 259.842C52.7645 261.534 50.696 262.807 48.4231 263.562C46.1502 264.316 43.7324 264.533 41.3605 264.191C40.6186 264.11 39.9006 263.881 39.2501 263.516C38.6175 263.119 38.1058 262.481 38.0304 261.741V261.018C35.3569 263.282 32.6635 265.502 31.7551 268.782C31.5746 269.438 31.4814 270.161 31.767 270.768C32.3084 271.93 33.8435 272.129 35.1228 272.158C38.4826 272.264 41.89 272.357 45.1566 271.574C48.4231 270.792 51.5924 268.981 53.2881 266.076C54.6369 263.77 54.9422 261.018 55.1962 258.359L54.4624 259.842Z" fill="black"/>
<path d="M62.8595 243.585C63.8036 244.347 64.8944 244.905 66.0646 245.221C67.2348 245.537 68.4584 245.606 69.6565 245.423C70.8544 245.241 72.0027 244.81 73.0242 244.158C74.0476 243.507 74.9242 242.649 75.5965 241.638L76.2173 240.947C76.1182 228.653 76.4374 206.323 76.6754 196.193L61.3125 198.898C61.9075 209.341 62.213 231.287 62.3915 243.211L62.8595 243.585Z" fill="white"/>
<path d="M56.6339 239.782C57.3063 228.788 57.7209 214.723 57.6792 205.111L42.8042 201.475C43.2009 211.404 43.8792 229.261 44.3572 240.751L45.1802 241.039C47.0782 241.422 48.9941 241.807 50.9319 241.773C52.8697 241.74 54.853 241.259 56.3821 240.068L56.6339 239.782Z" fill="white"/>
<path d="M40.5435 137.227C35.9998 156.878 31.5135 176.542 27.0846 196.219C26.2299 200.018 26.079 205.203 29.7442 206.502C32.7847 207.58 35.738 204.875 38.8339 203.972C45.0001 202.169 51.1445 207.693 57.5546 207.246C62.5665 206.897 66.9219 202.933 71.9416 203.144C75.0199 203.273 77.7826 204.965 80.7081 205.924C83.6334 206.883 87.37 206.901 89.2245 204.436C90.7001 202.474 90.3985 199.748 90.0177 197.319C87.013 177.693 84.0044 158.064 80.9956 138.432L40.5435 137.227Z" fill="black"/>
<path d="M61.3126 266.91C64.0674 268.064 67.1634 268.088 69.9361 266.98C72.7088 265.871 74.9362 263.717 76.1419 260.982L76.8164 259.272C76.7667 257.839 76.7171 257.396 76.6379 255.968C76.388 251.492 76.263 246.317 76.2193 240.876L75.5985 241.641C74.9243 242.649 74.0496 243.507 73.0262 244.161C72.0028 244.812 70.8564 245.243 69.6564 245.427C68.4585 245.61 67.2348 245.543 66.0647 245.225C64.8945 244.909 63.8016 244.351 62.8596 243.589L62.3915 243.154C62.455 247.324 62.5026 251.327 62.5402 254.983C62.574 258.198 62.5878 261.453 61.8283 264.577C61.6398 265.347 61.4078 266.106 61.146 266.854L61.3126 266.91Z" fill="black"/>
<path d="M38.0305 261.741C38.1059 262.482 38.6255 263.131 39.2502 263.516C39.9007 263.882 40.6187 264.11 41.3605 264.191C43.7325 264.531 46.1503 264.316 48.4232 263.562C50.6961 262.807 52.7646 261.534 54.4624 259.842L55.1208 259.167L55.1981 258.373C55.7357 252.733 56.2236 246.432 56.6223 239.955L56.3724 240.066C54.8432 241.257 52.8598 241.74 50.9222 241.772C48.9844 241.803 47.0704 241.42 45.1705 241.037L44.3534 240.92C44.4327 242.82 44.506 244.615 44.5714 246.264C44.6826 249.044 44.7699 251.945 43.673 254.509C42.483 257.257 40.103 259.251 37.7646 261.238L38.0305 261.741Z" fill="black"/>
<path fill-rule="evenodd" clip-rule="evenodd" d="M39.167 205.115C39.9806 204.877 40.8026 204.785 41.6341 204.802C41.8714 210.74 42.2056 218.49 42.5311 226.032L42.5466 226.391C42.854 233.477 43.1694 240.802 43.3915 246.315L43.3916 246.319C43.4908 248.826 43.6031 251.668 42.5882 254.042C41.531 256.502 39.3712 258.331 37.0825 260.267C34.3872 262.547 31.6005 264.906 30.6149 268.467C30.3074 269.585 30.3352 270.502 30.6961 271.273C31.6264 273.268 34.1511 273.328 35.0931 273.35L35.1326 273.351C36.2131 273.384 37.3428 273.419 38.4946 273.419C40.7715 273.419 43.1456 273.282 45.4402 272.73C49.391 271.785 52.6278 269.577 54.3216 266.675C55.8537 264.058 56.1499 260.962 56.3877 258.475L56.3882 258.47C57.9388 242.207 58.9091 222.596 58.8774 208.282C59.3074 208.208 59.7315 208.113 60.1505 208.002C60.9333 222.138 61.211 241.561 61.3526 254.991C61.3843 257.916 61.418 261.232 60.6743 264.291C60.2071 266.217 59.4438 268.042 58.636 269.973L58.6215 270.008C57.7329 272.127 56.8166 274.317 56.3227 276.648C56.1642 277.384 56.059 278.244 56.4914 279.062C57.1834 280.371 58.7352 280.586 59.3892 280.675H59.395C60.9301 280.904 62.5167 281.106 64.0975 281.106C65.4084 281.106 66.7155 280.968 67.9928 280.583C73.1772 279.042 76.18 274.017 77.2608 269.827C78.3853 265.466 78.1235 260.944 77.8698 256.572L77.8301 255.896C77.0396 241.773 77.5047 220.626 77.8429 206.105C78.6521 206.441 79.4854 206.777 80.335 207.055C82.0803 207.627 83.9169 207.838 85.5075 207.647C87.5126 207.407 89.1251 206.543 90.1723 205.153C91.9097 202.841 91.6103 199.803 91.1918 197.138C88.4461 179.204 85.6969 161.266 82.9475 143.327L82.1695 138.251C82.0705 137.602 81.4636 137.157 80.8129 137.254C80.1644 137.353 79.7181 137.961 79.8174 138.612C82.822 158.217 85.8246 177.82 88.8273 197.423L88.8395 197.504C89.1986 199.789 89.4504 202.152 88.2723 203.719C86.7432 205.751 83.4409 205.566 81.0768 204.792C80.1822 204.498 79.3076 204.134 78.3815 203.749C76.3723 202.913 74.2917 202.049 71.9912 201.952C69.0419 201.831 66.3763 202.981 63.8 204.095C61.6441 205.028 59.6071 205.908 57.4732 206.057C54.8236 206.241 52.19 205.297 49.4024 204.298L49.3891 204.293C45.8786 203.034 42.2471 201.733 38.5025 202.828C37.3879 203.151 36.3248 203.672 35.2995 204.176L35.294 204.179C33.3724 205.121 31.7121 205.935 30.1427 205.377C26.7929 204.192 27.8441 198.268 28.2468 196.481C32.6536 176.897 37.1816 157.053 41.7036 137.494C41.8523 136.853 41.4537 136.214 40.8132 136.065C40.1725 135.916 39.5339 136.315 39.3852 136.956C34.8632 156.519 30.3331 176.369 25.9242 195.957C24.5597 202.019 25.839 206.38 29.3475 207.623C31.8584 208.515 34.2423 207.347 36.3447 206.317C37.3225 205.836 38.2487 205.383 39.167 205.115ZM48.5839 206.537C51.1338 207.453 53.7592 208.394 56.4977 208.46C56.5127 217.377 56.1393 228.336 55.4802 239.246C54.0164 240.305 52.1949 240.557 50.9023 240.58C49.1213 240.613 47.285 240.248 45.5076 239.889C45.3508 236.175 45.1754 232.106 45.0009 228.059L44.9173 226.12C44.5966 218.69 44.2663 211.037 44.0283 205.108C45.511 205.435 47.0271 205.978 48.5839 206.537ZM50.9439 242.961C52.5546 242.933 54.0296 242.629 55.3032 242.07C54.9428 247.614 54.5105 253.098 54.0201 258.246L54.0192 258.256C54.0034 258.42 53.9874 258.587 53.9707 258.756C53.845 258.813 53.7272 258.893 53.6235 258.996C52.0646 260.549 50.1368 261.737 48.0484 262.43C45.9599 263.123 43.7068 263.323 41.5291 263.012L41.4894 263.006C40.9122 262.942 40.3629 262.767 39.8552 262.487C39.4961 262.259 39.2462 261.92 39.2146 261.618C39.2134 261.606 39.212 261.595 39.2105 261.583C41.4146 259.706 43.6016 257.713 44.7759 254.979C46.0053 252.108 45.8747 248.844 45.7695 246.219C45.7207 245.007 45.6673 243.707 45.6104 242.341C47.2533 242.668 48.9419 242.967 50.6842 242.967C50.7714 242.967 50.8589 242.967 50.9439 242.961ZM37.3048 263.209C35.2974 264.963 33.56 266.75 32.9095 269.1C32.725 269.769 32.7767 270.101 32.8521 270.26C33.0563 270.699 33.8317 270.935 35.1586 270.967L35.1677 270.967C38.3978 271.068 41.7284 271.173 44.8868 270.415C48.209 269.618 50.9004 267.817 52.2689 265.474C52.8389 264.5 53.2066 263.396 53.4584 262.271C52.045 263.315 50.4662 264.139 48.8 264.692C47.1083 265.254 45.3233 265.538 43.5421 265.538C42.7627 265.538 41.9832 265.484 41.2118 265.373C40.3134 265.271 39.4585 264.997 38.6691 264.555C38.6553 264.547 38.6414 264.539 38.6255 264.529C38.0687 264.185 37.6159 263.727 37.3048 263.209ZM71.89 204.333C73.105 204.384 74.2861 204.715 75.4837 205.156C75.2501 215.134 74.9424 228.496 75.0318 240.589C74.8668 240.678 74.7206 240.808 74.6092 240.975C74.024 241.853 73.2764 242.586 72.3877 243.152C71.4993 243.718 70.5194 244.085 69.4782 244.244C68.4369 244.403 67.3938 244.343 66.3763 244.069C65.3589 243.793 64.4266 243.318 63.6076 242.655C63.5969 242.647 63.5861 242.638 63.5752 242.63C63.3948 230.98 63.086 217.788 62.5048 207.478C62.5 207.394 62.4865 207.312 62.4651 207.233C63.2361 206.934 63.9932 206.607 64.742 206.283L64.7468 206.281C67.1825 205.227 69.4838 204.232 71.89 204.333ZM63.7326 254.963C63.7019 252.057 63.6649 248.87 63.6177 245.517C64.291 245.883 65.0054 246.168 65.7556 246.371C66.6043 246.601 67.4671 246.716 68.3358 246.716C68.8356 246.716 69.3354 246.678 69.8373 246.599C71.2077 246.39 72.4948 245.906 73.6651 245.161C74.1686 244.84 74.6374 244.479 75.0697 244.079C75.1319 248.365 75.2524 252.423 75.4541 256.032L75.4945 256.726C75.5552 257.776 75.6165 258.836 75.6579 259.897C75.3976 260.013 75.1777 260.222 75.0533 260.504C73.9685 262.968 71.995 264.876 69.496 265.875C67.2852 266.758 64.88 266.842 62.6355 266.129C62.7641 265.707 62.8822 265.281 62.9867 264.851C63.8003 261.509 63.7644 258.043 63.7327 254.982L63.7326 254.963ZM61.8528 268.379C61.5211 269.243 61.1665 270.09 60.8171 270.925L60.8134 270.934C59.9322 273.04 59.0989 275.031 58.6513 277.143C58.5361 277.673 58.558 277.871 58.5977 277.944C58.6334 278.012 58.8198 278.188 59.7321 278.313C62.3958 278.705 64.9681 279 67.3124 278.298C70.091 277.472 73.556 274.658 74.9562 269.231C75.3855 267.566 75.5924 265.844 75.6704 264.098C74.3094 265.864 72.4969 267.241 70.3787 268.087C68.8694 268.689 67.2886 268.991 65.7099 268.991C64.4106 268.991 63.1112 268.787 61.8528 268.379Z" fill="black"/>
<g clip-path="url(#clip1_845_2275)">
<mask id="mask0_845_2275" style="mask-type:luminance" maskUnits="userSpaceOnUse" x="0" y="75" width="119" height="120">
<path d="M119 75.8625H0V194.863H119V75.8625Z" fill="white"/>
</mask>
<g mask="url(#mask0_845_2275)">
<path d="M67.3082 75.8625C67.4867 77.8657 68.3057 82.3917 71.3542 81.7134L71.6815 82.2092C71.5327 85.3171 69.9579 87.5087 67.4906 89.7796C64.9837 92.0506 61.7866 93.415 58.413 93.655C55.438 93.8732 52.2745 93.1611 50.0492 91.1659C47.8239 89.1707 46.6537 86.4059 48.1273 84.0359H48.3415C49.012 84.0557 49.6287 83.7046 50.196 83.3476C50.9179 82.8915 52.4073 81.0212 52.8536 80.4837C53.4486 79.7122 53.6906 76.7868 53.996 75.8625H67.3082Z" fill="white"/>
<path d="M25.1989 157.127C23.8106 157.645 22.6206 158.835 23.0173 160.422C25.5956 163 25.0006 166.768 24.8023 169.942C25.2048 170.826 25.8474 171.58 26.6547 172.119C27.4639 172.659 28.4059 172.962 29.3778 172.994L31.0398 157.847L25.1989 157.127Z" fill="white"/>
<path d="M71.8484 80.6443C75.357 81.5844 78.0781 84.2877 80.2698 87.0544C82.6596 90.079 84.5359 93.4764 85.823 97.1099C86.543 99.1369 87.6814 101.422 88.1514 103.52L88.7783 105.426C92.1498 119.968 92.7726 134.962 92.9987 149.916L93.197 150.396C94.407 154.869 98.9685 166.173 99.9602 170.933C99.9919 171.34 99.9245 171.749 99.762 172.124C97.7785 174.504 94.407 173.909 91.7988 174.716L82.5822 176.552C69.3911 178.918 64.6808 180.686 51.4677 178.458L50.8727 178.31C50.004 171.003 49.3634 163.411 48.9925 155.761L48.9014 156.158C47.6498 163.472 46.4776 170.239 46.2317 177.655L46.1941 177.97C43.3519 177.427 34.7601 175.89 31.9141 175.346C31.1445 175.198 30.2996 175.003 29.8495 174.355C29.4765 173.823 29.4785 173.123 29.5063 172.475C29.6193 169.896 29.9168 167.336 30.2143 164.775L31.575 153.056H31.4717C29.4568 152.812 27.8384 152.568 25.8232 152.324C26.6582 143.109 27.7292 133.921 29.0362 124.756C30.1746 116.773 31.4955 108.788 33.8438 101.075C35.9304 94.2201 41.4222 85.1484 47.7073 81.7113L51.6205 82.3361C54.1988 84.8985 58.5363 85.442 61.6582 83.5915L71.8484 80.6443Z" fill="white"/>
<path d="M78.6605 162.137C76.7506 162.754 74.2794 165.259 75.8938 167.377C76.7824 168.546 78.125 169.174 79.3567 169.906C80.3067 170.471 80.5566 172.373 80.9236 173.383C81.8518 175.928 83.6546 178.01 86.6078 177.818C89.6145 177.619 91.4848 175.059 92.056 172.296C92.6768 169.301 91.6831 164.958 91.1853 161.995L78.6605 162.137Z" fill="white"/>
<path d="M76.8066 156.947C76.4972 158.464 76.394 160.015 76.5031 161.56C76.4991 161.65 76.513 161.739 76.5427 161.822C76.5745 161.905 76.6221 161.983 76.6836 162.048C76.8085 162.124 76.9553 162.157 77.1001 162.139L90.5868 162.102C90.791 162.118 90.9953 162.082 91.1818 161.997C91.5605 161.781 91.5903 161.253 91.5784 160.817L91.4317 157.161L76.8066 156.947Z" fill="white"/>
<path d="M26.4481 152.723C25.8134 154.063 25.6825 155.579 25.5635 157.058C27.2513 157.572 29.0045 157.84 30.7678 157.852L31.3052 153.252L26.4481 152.723Z" fill="white"/>
<path d="M50.9877 113.256L51.1424 83.8808C51.1424 82.7325 51.3685 78.7063 51.7195 78.149C49.1412 79.8388 47.5685 82.6393 46.0849 85.3326C45.234 86.8777 44.3555 88.5337 44.4724 90.291C44.6371 92.7979 46.7593 94.803 47.1223 97.2882C47.5407 100.152 45.5515 102.83 45.3373 105.715C45.2281 107.262 45.835 110.674 46.2417 112.177L49.2048 123.117L49.1036 133.091C52.5466 125.912 56.5688 119.024 61.1324 112.498C62.5525 110.463 64.1074 108.202 63.802 105.739C63.6038 104.152 62.6556 102.556 63.1951 101.051C63.4253 100.408 63.9032 99.8903 64.3673 99.3905L71.0729 92.1989C71.5311 91.7071 72.0031 91.1914 72.2034 90.5488C72.4295 89.815 72.2689 89.0236 72.1063 88.2719L70.0634 78.859C69.8829 78.028 69.5359 77.0284 68.6949 76.8936C66.6778 78.2224 64.8869 80.2037 63.3182 82.2783C56.5093 91.2925 53.3241 102.32 51.0214 113.49" fill="white"/>
<path d="M61.6578 83.5914C58.5361 85.4418 54.1985 84.8984 51.6201 82.3359V108.488L61.6578 83.5914Z" fill="white"/>
<path fill-rule="evenodd" clip-rule="evenodd" d="M51.277 179.63C55.6344 180.366 59.0834 180.674 62.2072 180.674C67.2507 180.674 71.4495 179.87 77.2605 178.756L77.7273 178.667C79.2346 178.379 80.7987 178.081 82.5354 177.768C83.6026 178.587 84.8588 179.02 86.2431 179.02C86.3899 179.02 86.5366 179.016 86.6794 179.004C88.7799 178.864 90.6062 177.723 91.8313 175.905C91.9374 175.902 92.0435 175.884 92.1495 175.85C92.8893 175.62 93.7362 175.515 94.6326 175.404C96.6953 175.148 99.0317 174.857 100.676 172.883C100.749 172.796 100.809 172.699 100.854 172.594C101.09 172.044 101.192 171.437 101.146 170.84C101.142 170.791 101.134 170.739 101.124 170.69C100.539 167.878 98.8202 163.065 97.1541 158.401L97.0984 158.245C95.9342 154.986 94.8376 151.916 94.3411 150.085C94.3091 149.967 94.2606 149.858 94.1986 149.76C94.0491 135.274 93.6943 121.437 90.3129 106.858C90.1642 106.217 89.5256 105.819 88.8849 105.968C88.2444 106.116 87.8457 106.755 87.9945 107.396C91.5704 122.816 91.7073 137.506 91.8501 153.06L91.8504 153.107C91.8583 154.02 91.866 154.936 91.8758 155.856L76.86 155.61C74.6287 138.177 73.8592 120.442 74.5711 102.885C74.599 102.229 74.0873 101.674 73.4308 101.648C72.7723 101.624 72.219 102.132 72.1932 102.788C71.4614 120.823 72.2825 139.04 74.6327 156.937C74.6939 157.399 75.0149 157.771 75.4375 157.912C75.2722 159.129 75.231 160.36 75.313 161.588C75.311 161.808 75.3506 162.024 75.4279 162.237C75.5153 162.473 75.6481 162.685 75.8206 162.867C75.8377 162.885 75.8551 162.902 75.873 162.918C75.152 163.462 74.5543 164.159 74.2915 164.997C74.0635 165.721 73.994 166.848 74.946 168.097C75.8287 169.258 77.0463 169.954 78.1214 170.567L78.2728 170.654C78.4322 170.745 78.5916 170.836 78.748 170.929C79.0415 171.105 79.3625 172.274 79.5028 172.785L79.5058 172.796C79.6029 173.153 79.6962 173.488 79.8052 173.791C80.0587 174.487 80.3602 175.119 80.7047 175.684C79.3078 175.942 78.0041 176.191 76.8143 176.42L76.8107 176.42C67.7551 178.153 62.7312 179.115 51.9652 177.332C51.1689 170.474 50.5907 163.475 50.2365 156.522L50.2694 156.332C50.3091 156.1 50.2791 155.872 50.1943 155.671C49.8388 148.313 49.7346 141.015 49.8886 133.994C50.0076 133.891 50.1088 133.762 50.1822 133.609C53.5856 126.509 57.5998 119.637 62.1139 113.183C63.5538 111.12 65.3467 108.552 64.9897 105.601C64.9124 104.966 64.7438 104.369 64.5792 103.792C64.3193 102.878 64.0953 102.088 64.3214 101.455C64.4683 101.042 64.8552 100.625 65.2298 100.221L65.2436 100.206L71.9493 93.0144L71.9527 93.0106C72.4479 92.4778 73.0646 91.8143 73.3456 90.9041C73.6694 89.8551 73.4426 88.8042 73.2761 88.0335L71.9475 81.9125C75.212 82.9531 77.7144 85.7467 79.3352 87.7922C81.6497 90.7196 83.4545 93.9882 84.7001 97.5085C84.9598 98.2365 85.2713 99.0001 85.5727 99.7379L85.5813 99.7588C86.1339 101.113 86.7047 102.511 86.9888 103.78C87.1137 104.333 87.6037 104.71 88.149 104.71C88.2364 104.71 88.3237 104.7 88.4108 104.68C89.0515 104.535 89.4542 103.899 89.3114 103.258C88.982 101.789 88.3692 100.287 87.7763 98.8354C87.4707 98.0897 87.1832 97.3857 86.9433 96.7112C85.6105 92.9449 83.6787 89.4483 81.2015 86.3147C79.3035 83.9188 76.3007 80.6046 72.1554 79.494C71.9063 79.427 71.6545 79.4444 71.43 79.5287L71.2313 78.6134C70.8604 76.8859 70.071 75.9141 68.887 75.7237C68.5935 75.6761 68.292 75.7395 68.044 75.9041C66.1778 77.1318 64.3233 78.9843 62.3717 81.5646C62.1623 81.8419 61.9562 82.121 61.7535 82.402C61.5225 82.387 61.2848 82.4391 61.0707 82.5661C58.5377 84.0688 54.9568 83.6932 52.7461 81.7416C52.9567 80.9845 53.1944 80.2931 53.3218 80.0731C53.6212 79.5991 53.5479 78.9822 53.1492 78.5895C52.7506 78.1968 52.1318 78.1354 51.6636 78.4428C50.5195 79.1928 49.4645 79.9088 48.5094 80.6904C48.3763 80.7109 48.2445 80.7544 48.1195 80.8228C41.2016 84.607 34.7418 94.1011 32.7248 100.727C30.3369 108.572 28.9843 116.83 27.8776 124.587C26.5746 133.726 25.4896 143.02 24.6566 152.217C24.6228 152.581 24.7573 152.922 24.9968 153.163C24.6722 154.159 24.5363 155.18 24.4463 156.148C22.4261 157.041 21.3938 158.836 21.8622 160.709C21.9157 160.92 22.0228 161.11 22.1756 161.263C24.1034 163.193 23.8911 166.074 23.6848 168.861L23.6808 168.915C23.6564 169.238 23.6323 169.557 23.6134 169.868C23.6015 170.063 23.6372 170.257 23.7186 170.436C24.2124 171.523 24.9998 172.447 25.9934 173.109C26.7394 173.609 27.5783 173.943 28.4566 174.094C28.5424 174.422 28.6798 174.746 28.8951 175.053C29.6338 176.104 30.8708 176.357 31.7057 176.528L31.7094 176.529C32.9854 176.772 35.4399 177.219 37.966 177.679L40.5862 178.157C42.7913 178.559 44.8632 178.937 45.9894 179.153C46.0628 179.166 46.1361 179.174 46.2115 179.174C46.4614 179.174 46.7094 179.095 46.9155 178.942C47.1833 178.748 47.3558 178.45 47.3956 178.123L47.4332 177.808C47.4372 177.774 47.4391 177.74 47.4412 177.707C47.5663 173.931 47.9791 170.315 48.5225 166.692C48.8441 170.636 49.2363 174.566 49.6982 178.448C49.7558 178.938 50.1108 179.343 50.5907 179.462L51.1857 179.611C51.2113 179.617 51.2382 179.623 51.2641 179.628L51.277 179.63ZM43.8477 87.1875C39.7708 91.3652 36.3272 97.0611 34.9998 101.42C32.7883 108.681 31.4952 116.067 30.2317 124.922C28.9882 133.641 27.945 142.504 27.1318 151.285C27.6219 151.348 28.0939 151.411 28.5571 151.473L28.8256 151.509C29.3839 151.583 29.9546 151.66 30.5498 151.736L31.3999 144.406C33.0415 130.262 34.7392 115.635 38.0679 101.511C38.2187 100.872 38.8592 100.476 39.4999 100.626C40.1385 100.777 40.5352 101.418 40.3845 102.058C37.0866 116.051 35.3968 130.611 33.7626 144.692L31.4158 164.926C31.1263 167.421 30.8267 170.003 30.7137 172.54C30.6999 172.855 30.6741 173.446 30.8427 173.684C31.0378 173.961 31.7114 174.099 32.1636 174.192L32.1714 174.194C33.5692 174.462 36.4541 174.986 39.2679 175.498L39.4028 175.523C41.4634 175.898 43.5776 176.283 45.1048 176.566C45.3944 170.406 46.394 164.69 47.4491 158.657C47.504 158.341 47.5592 158.025 47.6147 157.708L47.6159 157.7L47.6164 157.697C47.6923 157.263 47.7686 156.826 47.8442 156.389C47.2694 144.931 47.2987 133.598 47.9589 123.203C47.9614 123.171 47.9647 123.14 47.9693 123.108L45.0929 112.489C44.6864 110.987 44.0238 107.413 44.1509 105.632C44.254 104.238 44.7021 102.951 45.1365 101.705L45.1378 101.702C45.655 100.216 46.144 98.8106 45.9457 97.4609C45.8029 96.4832 45.2971 95.5312 44.7616 94.5236L44.757 94.5148C44.0841 93.2463 43.389 91.9356 43.286 90.3686C43.21 89.2345 43.4653 88.1678 43.8477 87.1875ZM50.3944 123.091L50.4896 122.596C52.9131 109.381 55.6603 94.4025 64.2698 82.9965C65.8089 80.9597 67.2586 79.4365 68.6768 78.3655C68.7462 78.5261 68.8275 78.7621 68.9029 79.1132L70.9457 88.5261L70.9482 88.5375C71.0705 89.1059 71.2085 89.7469 71.0687 90.2C70.9491 90.5883 70.5773 90.9881 70.2163 91.3766L70.204 91.39L63.4963 98.5836L63.4855 98.5952C62.9956 99.1247 62.3873 99.7819 62.0761 100.652C61.5923 102.003 61.9612 103.3 62.2865 104.442C62.4331 104.954 62.5701 105.436 62.6237 105.886C62.8715 107.935 61.4316 110 60.1602 111.82C56.4415 117.14 53.054 122.739 50.0612 128.514C50.1332 126.831 50.2205 125.167 50.323 123.526C50.3731 123.389 50.3982 123.241 50.3944 123.091ZM48.9738 117.717L47.3896 111.868C46.9771 110.341 46.4297 107.12 46.5228 105.805C46.6021 104.727 46.9804 103.641 47.3805 102.492L47.3826 102.486C47.9714 100.793 48.5795 99.0445 48.298 97.1178C48.096 95.7354 47.4687 94.5547 46.8626 93.4138L46.8502 93.3904C46.2728 92.3005 45.7272 91.2709 45.6582 90.2139C45.5689 88.8573 46.2393 87.5185 47.1259 85.908C47.9073 84.49 48.9069 83.4249 50.1306 82.4392C50.0214 82.9866 49.9521 83.4923 49.9521 83.8751L49.7974 113.25C49.797 113.317 49.802 113.382 49.8121 113.445C49.5184 114.878 49.2411 116.304 48.9738 117.717ZM52.2298 103.307C53.9572 97.1743 56.2495 91.1467 59.5922 85.6607C58.9219 85.805 58.2362 85.8763 57.5503 85.8763C55.7183 85.8763 53.8808 85.3703 52.3294 84.3941L52.2298 103.307ZM26.8364 156.174C26.9213 155.323 27.0479 154.48 27.3247 153.714C27.7064 153.764 28.079 153.814 28.4469 153.863L28.8475 153.916L28.849 153.916L28.8504 153.916C29.3131 153.978 29.7852 154.041 30.2752 154.104L29.9812 156.638C28.9208 156.582 27.8678 156.426 26.8364 156.174ZM25.5103 158.284C26.8801 158.677 28.2861 158.92 29.7065 159.006L29.0435 164.723C28.7825 166.979 28.5137 169.302 28.3788 171.633C28.0038 171.519 27.646 171.35 27.3164 171.13C26.7709 170.765 26.3227 170.275 26.0113 169.7C26.0202 169.56 26.0306 169.42 26.041 169.28L26.0456 169.218L26.0592 169.032C26.2734 166.129 26.538 162.541 24.1331 159.869C24.0973 158.963 25.1138 158.449 25.5103 158.284ZM79.5458 163.321C79.4275 163.662 79.1562 163.945 78.7858 164.063C77.683 164.418 76.7469 165.11 76.5605 165.707C76.5248 165.82 76.4316 166.122 76.8381 166.655C77.4218 167.424 78.3207 167.939 79.2725 168.485L79.2995 168.5C79.5215 168.627 79.7438 168.754 79.962 168.883C81.0845 169.551 81.4812 171.003 81.7985 172.167C81.8818 172.475 81.9631 172.766 82.0385 172.976C82.6791 174.734 83.984 176.798 86.5268 176.63C88.2007 176.519 90.2237 175.259 90.8881 172.054C91.3973 169.598 90.9387 166.953 90.495 164.393L90.4933 164.384C90.4381 164.071 90.3851 163.76 90.3318 163.448L90.3308 163.442C90.3223 163.391 90.3171 163.341 90.315 163.29L79.5458 163.321ZM92.3898 162.451C92.5354 162.613 92.6382 162.817 92.677 163.048C92.7212 163.312 92.7665 163.576 92.8124 163.842L92.8357 163.978L92.8375 163.988C93.3188 166.766 93.8167 169.638 93.2146 172.536C93.1664 172.768 93.1112 172.996 93.0493 173.219C93.4814 173.15 93.9144 173.097 94.3411 173.044L94.3434 173.043C96.1295 172.822 97.6794 172.629 98.7243 171.503C98.764 171.37 98.7818 171.229 98.7778 171.09C98.2047 168.409 96.4474 163.492 94.8944 159.151L94.8685 159.078C94.6566 158.484 94.4467 157.897 94.2421 157.321C94.1935 157.542 94.0821 157.747 93.9186 157.909C93.6965 158.131 93.3931 158.256 93.0797 158.256H93.0599L92.6652 158.25L92.7662 160.767C92.775 161.08 92.7957 161.837 92.3898 162.451ZM90.2824 158.21L77.8288 158.006C77.6825 158.979 77.6277 159.964 77.6632 160.947L90.3922 160.912C90.3922 160.899 90.3922 160.884 90.3916 160.87C90.3913 160.863 90.3909 160.856 90.3903 160.848L90.2824 158.21Z" fill="black"/>
</g>
</g>
<path d="M39.385 48.8376C40.4579 49.1331 41.5646 49.2898 42.6773 49.3057C51.1957 49.5794 59.6547 44.4862 63.3992 36.8285C62.4591 40.6504 62.237 44.615 62.7466 48.5182C62.9827 50.4757 63.3833 52.4492 64.3174 54.1866C65.2516 55.924 66.7847 57.4134 68.6808 57.9351L68.3812 74.0258C69.3135 73.7959 70.1484 73.2742 70.7613 72.5345C70.5194 77.592 70.3647 82.8259 72.2349 87.5285C72.9787 89.3908 74.1111 91.2056 75.8704 92.1674C78.2325 93.4566 81.1897 92.9311 83.6589 91.862C85.3269 91.1401 86.9274 90.1584 88.0579 88.7363C90.4062 85.7851 90.2496 81.3741 88.4268 78.0718C86.6042 74.7696 83.409 72.4333 80.0453 70.7336C82.2131 68.4587 83.8355 65.7196 84.7835 62.7229C85.7335 59.7261 85.9873 56.5528 85.5272 53.4448C84.9322 49.6349 83.2701 46.0867 81.63 42.5979C80.6502 40.5154 79.6248 38.3715 77.9033 36.8464C75.3468 34.5773 71.6618 34.0221 68.9227 31.9793L63.4686 30.4085C62.5026 28.3993 59.9522 27.6437 57.7348 27.8579C55.5174 28.0721 53.4369 29.0162 51.2571 29.4763C49.3215 29.8868 47.3144 29.9166 45.3964 30.4104C38.8971 32.0824 34.9304 38.5203 32.0605 44.5873C29.6805 49.6032 27.5544 54.9403 27.6972 60.4877C27.84 66.035 30.8051 71.8403 35.9975 73.7919C33.2664 75.2813 31.0093 77.5087 29.4822 80.2179C28.8495 81.3464 28.3418 82.6098 28.4469 83.899C28.552 85.188 29.2978 86.4137 30.2319 87.35C33.193 90.315 38.308 90.797 41.7729 88.4388C45.2378 86.0805 46.6599 81.142 44.7737 77.0089C47.5107 77.4313 50.3111 77.0922 52.8696 76.031" fill="black"/>
<path d="M53.3796 79.3809C53.2844 77.3143 53.3042 75.8407 53.4351 73.776C50.9599 74.7875 48.2229 74.371 45.6724 73.9269C43.227 73.4964 40.9401 72.6515 39.0936 70.934C35.6288 67.707 34.7085 62.6733 35.2043 58.1435C35.4027 56.3446 36.1682 53.3735 37.4474 50.0831L39.3852 48.8376C40.4581 49.1332 41.5648 49.2899 42.6775 49.3058C51.1959 49.5795 59.6549 44.4863 63.3994 36.8286C62.4593 40.6504 62.2391 44.6151 62.7468 48.5183C62.9829 50.4758 63.3835 52.4493 64.3176 54.1867C65.2518 55.9241 66.7849 57.4135 68.6811 57.9352L70.9499 58.5202C73.2248 56.521 74.5635 56.2533 76.057 57.007C78.1832 58.0799 78.5024 60.349 78.0404 62.2549C77.5406 64.3572 76.2078 66.17 74.4981 67.4612C73.6353 68.1018 72.6952 68.6352 71.7016 69.0479C71.2137 69.254 70.716 69.4366 70.2102 69.5953C69.6409 69.7757 69.0657 69.7698 68.798 70.325C67.6199 72.7805 67.1181 74.9125 67.3483 77.6257" fill="white"/>
<path d="M36.7411 91.1223C34.0398 91.1223 31.3345 90.1187 29.4028 88.185C28.1474 86.9276 27.3917 85.438 27.2727 83.9902C27.1635 82.6515 27.5384 81.2651 28.4568 79.6308C29.7339 77.3638 31.4794 75.4182 33.5738 73.9149C31.7352 72.7904 30.1564 71.152 28.9406 69.0874C27.4572 66.5705 26.5963 63.5262 26.519 60.5134C26.3683 54.6746 28.5817 49.1608 30.9974 44.0717C33.8018 38.1414 37.943 31.0966 45.1127 29.2521C46.2413 28.9606 47.3797 28.8237 48.4804 28.689C49.3651 28.5819 50.2019 28.4807 51.023 28.3061C51.8441 28.1335 52.6514 27.8857 53.5042 27.6259C54.8212 27.2232 56.1838 26.8067 57.6315 26.6679C60.1881 26.422 63.3178 27.3205 64.5514 29.8869C64.837 30.4799 64.5871 31.1899 63.994 31.4755C63.403 31.7611 62.691 31.5112 62.4054 30.9181C61.6735 29.3949 59.5355 28.8754 57.8576 29.036C56.6458 29.1531 55.4558 29.516 54.1965 29.9007C53.3297 30.1646 52.4353 30.4383 51.5109 30.6325C50.5887 30.8289 49.6605 30.94 48.762 31.049C47.691 31.1799 46.6776 31.303 45.6999 31.5548C39.4881 33.1534 35.7256 39.627 33.1433 45.0872C30.8546 49.9105 28.7562 55.1089 28.893 60.448C29.0101 65.0157 31.4158 70.7871 36.4217 72.6693C36.8582 72.8339 37.1576 73.2366 37.1893 73.7007C37.2211 74.1648 36.981 74.6051 36.5726 74.8291C34.0338 76.2136 31.9435 78.2763 30.5253 80.7951C29.8529 81.995 29.5694 82.949 29.6387 83.7958C29.7101 84.6704 30.2358 85.6562 31.0807 86.503C33.6292 89.0537 38.1274 89.478 41.1103 87.4491C44.1607 85.3725 45.2972 81.0014 43.6986 77.4968C43.5162 77.0982 43.5677 76.6341 43.8316 76.285C44.0953 75.9358 44.5296 75.7614 44.9621 75.8268C47.4849 76.2155 50.0631 75.9042 52.4213 74.9264C53.0282 74.6744 53.7243 74.9621 53.9763 75.569C54.2281 76.1759 53.9406 76.8721 53.3337 77.1239C51.1658 78.0243 48.8374 78.4408 46.5091 78.3596C47.5363 82.5206 45.9676 87.0228 42.4512 89.4166C40.7673 90.565 38.7562 91.1223 36.7411 91.1223Z" fill="black"/>
<path d="M79.0734 94.1033C77.6889 94.1033 76.4177 93.8058 75.3149 93.2068C73.5477 92.241 72.1456 90.4777 71.142 87.9629C69.5196 83.9029 69.3351 79.607 69.4839 74.9086C69.2221 75.0176 68.9524 75.1069 68.6768 75.1743C68.038 75.3311 67.3935 74.9422 67.2369 74.3036C67.0801 73.6651 67.4689 73.0204 68.1075 72.8637C68.7877 72.6952 69.4086 72.3064 69.8568 71.767C70.1841 71.3722 70.7255 71.2315 71.2034 71.4179C71.6815 71.6023 71.9869 72.0724 71.9612 72.5841C71.7032 77.9669 71.6299 82.7724 73.3514 87.0802C74.1448 89.0675 75.188 90.4262 76.4534 91.1164C78.7421 92.3579 81.6616 91.4277 83.1986 90.7633C84.9777 89.9938 86.2669 89.0854 87.1396 87.9886C89.0258 85.6225 89.1308 81.7788 87.3974 78.6393C85.9397 75.9975 83.29 73.6927 79.5215 71.7887C79.1864 71.6183 78.9503 71.3008 78.8849 70.9281C78.8215 70.5571 78.9365 70.1784 79.1964 69.9047C81.2292 67.7725 82.7723 65.1625 83.6627 62.356C84.5533 59.5476 84.7953 56.525 84.3629 53.6115C83.7898 49.9522 82.1514 46.4676 80.5649 43.0959C79.6446 41.1403 78.6906 39.1173 77.1258 37.729C75.898 36.6382 74.3312 35.9718 72.6731 35.2638C71.1639 34.6212 69.605 33.9548 68.2225 32.9254C67.695 32.5327 67.5879 31.7869 67.9806 31.2594C68.3733 30.7337 69.119 30.6247 69.6466 31.0174C70.8009 31.8782 72.1635 32.4592 73.6072 33.0742C75.3684 33.8239 77.1872 34.6012 78.7064 35.948C80.6382 37.6616 81.7449 40.0098 82.7207 42.0825C84.3767 45.6049 86.0903 49.2482 86.7172 53.2525C87.203 56.531 86.9314 59.9244 85.9337 63.074C85.0907 65.7316 83.7243 68.2327 81.9491 70.3866C85.4458 72.3739 87.9786 74.7578 89.4839 77.4869C91.7033 81.5072 91.5108 86.3226 89.0039 89.4683C87.8834 90.8784 86.2947 92.0149 84.1468 92.945C82.3677 93.7166 80.6482 94.1033 79.0734 94.1033Z" fill="black"/>
<path d="M68.687 59.125C68.582 59.125 68.4768 59.1112 68.3716 59.0815C66.2991 58.5141 64.4427 56.9335 63.2725 54.7458C62.1639 52.6693 61.779 50.4023 61.5708 48.659C61.2833 46.4594 61.2197 44.25 61.3785 42.0545C59.7203 43.9961 57.7211 45.688 55.4423 47.0604C51.4777 49.4484 47.0549 50.6363 42.6498 50.4935C41.44 50.4757 40.2362 50.3052 39.07 49.9839C38.4353 49.8093 38.0644 49.1548 38.2389 48.5202C38.4134 47.8874 39.0679 47.5147 39.7026 47.6891C40.6784 47.9569 41.684 48.1016 42.6955 48.1156C42.7033 48.1156 42.7114 48.1156 42.7173 48.1156C50.7379 48.3753 58.804 43.5201 62.3383 36.3049C62.6061 35.7594 63.2408 35.5016 63.8139 35.7099C64.3851 35.9181 64.7085 36.5229 64.5636 37.112C63.6554 40.8069 63.445 44.5911 63.935 48.3634C64.2107 50.6582 64.655 52.2766 65.3749 53.6253C66.2356 55.2378 67.5586 56.39 69.0023 56.7867C69.6371 56.9612 70.01 57.6157 69.8353 58.2485C69.6906 58.778 69.2106 59.125 68.687 59.125Z" fill="black"/>
<path d="M67.3522 77.824C66.7412 77.824 66.2197 77.354 66.1681 76.7331C65.9163 73.7462 66.4973 72.3777 67.731 69.8094C68.1832 68.8712 69.0379 68.6649 69.5496 68.542C69.6608 68.5142 69.7659 68.4904 69.8571 68.4606C70.3291 68.3119 70.7953 68.1413 71.2454 67.9509C72.1557 67.5741 73.0106 67.0881 73.796 66.505C75.3787 65.3091 76.4814 63.6987 76.89 61.9792C77.1002 61.1124 77.3858 59.0061 75.5275 58.0679C74.7163 57.6574 73.921 57.4967 71.7413 59.4126C71.2475 59.847 70.4957 59.7975 70.0613 59.3036C69.627 58.8098 69.6767 58.0581 70.1705 57.6238C73.3002 54.8728 75.111 55.1902 76.5985 55.9419C78.9071 57.1081 79.9047 59.6328 79.2026 62.5325C78.6671 64.7855 77.253 66.8739 75.2221 68.4071C74.2739 69.1111 73.2467 69.6942 72.1638 70.1426C71.65 70.3587 71.1125 70.557 70.5711 70.7257C70.4064 70.7771 70.2479 70.8168 70.1089 70.8506C70.0218 70.8723 69.9087 70.8982 69.8352 70.922C68.6949 73.302 68.3418 74.1965 68.5402 76.5289C68.5957 77.1834 68.1097 77.7605 67.4552 77.8141C67.4195 77.8219 67.3859 77.824 67.3522 77.824Z" fill="black"/>
<path d="M53.3774 79.5794C52.7448 79.5794 52.2191 79.0815 52.1893 78.443C52.126 77.0466 52.112 76.3445 52.1517 75.3866C49.7677 75.8467 47.3401 75.4242 45.4679 75.097C42.4432 74.5636 40.093 73.4866 38.2823 71.8028C34.9543 68.7028 33.4013 63.677 34.0201 58.0107C34.2522 55.9103 35.1169 52.7845 36.3366 49.6488C36.5746 49.036 37.2648 48.7325 37.8777 48.9705C38.4905 49.2085 38.794 49.8987 38.556 50.5116C37.2034 53.9904 36.5489 56.8007 36.3861 58.2704C35.8487 63.1791 37.1299 67.4771 39.9047 70.0594C41.3882 71.4398 43.2862 72.2945 45.8785 72.7507C48.5282 73.2129 50.8922 73.5242 52.9847 72.6694C53.3636 72.5147 53.7958 72.5663 54.129 72.8043C54.4622 73.0442 54.6488 73.4369 54.6229 73.8455C54.496 75.8407 54.4741 76.281 54.5693 78.3278C54.5991 78.9844 54.0914 79.5416 53.435 79.5714C53.415 79.5794 53.3972 79.5794 53.3774 79.5794Z" fill="black"/>
<path d="M43.3219 55.5531C44.0887 55.5531 44.7102 54.7984 44.7102 53.8673C44.7102 52.9362 44.0887 52.1814 43.3219 52.1814C42.5551 52.1814 41.9336 52.9362 41.9336 53.8673C41.9336 54.7984 42.5551 55.5531 43.3219 55.5531Z" fill="black"/>
<path d="M50.065 56.0192C50.8318 56.0192 51.4535 55.2644 51.4535 54.3334C51.4535 53.4024 50.8318 52.6475 50.065 52.6475C49.2984 52.6475 48.6768 53.4024 48.6768 54.3334C48.6768 55.2644 49.2984 56.0192 50.065 56.0192Z" fill="black"/>
</g>
<defs>
<clipPath id="clip0_845_2275">
<rect width="119" height="285.6" fill="white"/>
</clipPath>
<clipPath id="clip1_845_2275">
<rect width="119" height="119" fill="white" transform="translate(0 75.8625)"/>
</clipPath>
</defs>
</svg>
