<svg width="198" height="408" viewBox="0 0 198 408" fill="none" xmlns="http://www.w3.org/2000/svg">
<path d="M102.154 115.735C102.016 112.748 102.045 110.618 102.234 107.634C98.6561 109.096 94.7001 108.494 91.0138 107.852C87.4792 107.23 84.1737 106.009 81.5049 103.526C76.497 98.8622 75.1667 91.5866 75.8833 85.0392C76.1702 82.4392 77.2765 78.1448 79.1255 73.389L80.1805 68.2778C81.0034 60.9592 86.0027 54.492 92.4125 50.8686C98.8226 47.245 106.459 46.2388 113.801 46.9384C121.971 47.718 130.321 50.8226 135.413 57.2584C140.504 63.694 141.241 73.885 135.562 79.8104L127.558 85.5868C130.846 82.6972 132.781 82.3102 134.94 83.3994C138.013 84.9504 138.474 88.2298 137.806 90.9846C137.084 94.0234 135.158 96.6434 132.686 98.5096C131.439 99.4356 130.081 100.207 128.644 100.803C127.939 101.101 127.22 101.365 126.489 101.594C125.666 101.855 124.835 101.846 124.448 102.649C122.745 106.198 121.418 109.452 121.75 113.373" fill="white"/>
<path d="M173.78 142.327C173.032 141.343 172.098 140.458 171.682 139.294C171.197 137.944 171.493 136.459 171.65 135.037C172.109 130.814 171.309 126.551 169.357 122.779C168.082 120.331 166.313 118.083 165.662 115.403C163.942 108.368 170.406 101.13 168.371 94.1896C166.588 88.098 159.054 85.1396 157.139 79.0852C155.732 74.6246 157.787 69.7026 156.75 65.1416C156.004 61.865 153.763 59.1704 152.183 56.2062C149.76 51.6626 148.857 46.3908 146.137 42.0192C143.417 37.6474 137.689 34.3136 133.154 36.7646C125.95 31.2462 120.185 28.669 114.346 28.0184C108.506 27.3676 102.593 28.5028 97.0283 30.392C90.9337 32.4616 85.0513 35.5204 80.5735 40.1386C76.0959 44.7568 73.1431 51.095 73.5101 57.5192L73.6363 57.697C67.1575 67.329 63.5083 79.928 65.5609 91.5236C66.1055 94.5966 67.2809 97.472 68.0463 100.491C68.6969 103.119 68.7773 105.854 68.2813 108.517C67.4013 113.571 65.0993 118.361 64.8041 123.521C64.6321 126.356 65.3573 129.174 66.8823 131.571C68.6023 134.343 70.5231 136.76 70.9329 140.105L70.9187 140.019C70.8843 140.188 70.9157 140.363 71.0075 140.512C71.0993 140.658 71.2425 140.764 71.4089 140.807C72.5153 140.177 72.6129 138.654 72.6817 137.382C72.8851 133.701 74.3415 129.642 77.7183 128.168C79.1947 127.52 80.9893 127.38 82.0729 126.187C83.4775 124.642 81.9811 120.666 83.7843 119.608C85.1401 118.814 87.0121 119.497 88.3537 118.677C89.4373 118.017 89.9303 115.738 90.7903 114.807C93.2271 112.181 98.9891 114.807 101.884 113.881C102.079 111.218 102.134 109.423 102.249 107.634C99.6369 108.701 96.7645 108.666 94.0097 108.319C90.1023 107.927 86.0891 107.067 82.6491 104.487C72.9023 96.7466 74.6223 82.9866 79.4957 73.24C79.4957 68.08 81.2157 61.7734 86.8601 60.2282C88.0957 63.78 92.1091 65.7866 95.8357 65.2134C99.2757 64.3534 101.282 61.4866 103.862 59.1934C105.009 58.3334 106.156 60.0534 106.442 61.2C106.729 63.78 107.302 66.9334 110.169 68.08C111.889 68.6534 113.896 68.08 115.616 68.94C117.622 70.3734 117.909 72.9534 119.916 74.1C121.349 74.6734 123.356 75.2466 124.216 76.3934C126.509 79.8334 124.502 83.56 125.076 87.2866C125.362 88.1466 125.649 88.72 125.936 89.58C127.942 93.3066 130.952 94.31 131.812 98.61C131.858 98.8766 131.79 98.9254 131.812 99.1834C130.7 99.7194 129.576 100.485 128.372 100.76C126.833 101.104 125.546 102.48 124.634 103.767C124.293 104.312 124.052 104.914 123.926 105.544C123.419 107.497 122.954 109.457 122.53 111.433C122.344 112.313 122.639 113.23 122.834 113.494C123.029 113.757 125.076 113.803 125.076 113.803C125.076 113.803 127.361 114.248 128.499 114.015C128.329 116.767 129.427 119.511 130.528 121.991C131.388 124.284 131.962 126.864 130.815 129.444C129.668 131.737 128.522 134.031 128.235 136.611C127.948 139.764 129.955 142.344 130.815 145.211C131.388 148.937 130.528 152.377 131.675 156.104C132.248 158.397 133.538 160.834 136.262 160.324L138.337 160.725C139.535 160.722 140.722 160.934 141.843 161.353C146.464 164.626 153.057 165.005 158.1 162.253C160.172 161.106 162.013 159.504 164.277 158.836C165.751 158.403 167.322 158.4 168.812 158.016C175.079 156.391 177.693 147.487 173.78 142.327Z" fill="black"/>
<path d="M70.9009 141.825C70.0439 141.825 69.3013 141.186 69.1953 140.314C68.9029 137.929 67.6931 136.057 66.2913 133.89C65.9903 133.426 65.6893 132.958 65.3913 132.48C63.6741 129.776 62.8629 126.64 63.0577 123.424C63.2413 120.21 64.1443 117.172 65.0185 114.23C65.6321 112.169 66.2083 110.226 66.5579 108.228C67.0137 105.771 66.9421 103.317 66.3487 100.909C66.0591 99.7679 65.6923 98.5986 65.3397 97.4662C64.7749 95.6602 64.1901 93.7909 63.8403 91.8273C61.8509 80.5813 64.9699 67.4663 72.1823 56.7393C72.7127 55.9509 73.7819 55.7417 74.5703 56.2722C75.3587 56.8023 75.5679 57.8718 75.0375 58.6599C68.3095 68.6647 65.3913 80.8393 67.2287 91.2281C67.5383 92.9739 68.0659 94.6567 68.6219 96.4369C68.9917 97.6124 69.3701 98.8305 69.6855 100.072C70.4021 102.967 70.4881 105.914 69.9435 108.835C69.5651 111.011 68.9315 113.144 68.3181 115.208C67.4639 118.086 66.6555 120.804 66.4949 123.622C66.3429 126.116 66.9707 128.541 68.3067 130.645C68.6019 131.121 68.8943 131.571 69.1809 132.018C70.6773 134.332 72.2225 136.722 72.6123 139.893C72.7271 140.836 72.0563 141.693 71.1131 141.808C71.0415 141.822 70.9727 141.825 70.9009 141.825Z" fill="black"/>
<path d="M150.698 165.782C147.169 165.782 143.634 164.741 140.73 162.697C139.954 162.15 139.767 161.078 140.315 160.301C140.862 159.524 141.934 159.337 142.711 159.885C146.905 162.838 152.742 163.17 157.236 160.719C157.896 160.361 158.538 159.942 159.218 159.501C160.599 158.601 162.03 157.669 163.753 157.162C164.661 156.895 165.553 156.775 166.413 156.66C167.098 156.568 167.746 156.482 168.348 156.327C170.575 155.754 172.436 153.876 173.33 151.308C174.313 148.484 173.946 145.443 172.375 143.37C172.203 143.144 172.011 142.914 171.808 142.671C171.166 141.897 170.435 141.022 170.028 139.876C169.477 138.342 169.666 136.814 169.833 135.467C169.858 135.26 169.884 135.057 169.907 134.85C170.329 130.955 169.6 127.053 167.797 123.573C167.43 122.868 167.015 122.174 166.576 121.44C165.541 119.709 164.469 117.92 163.959 115.81C163.002 111.891 164.225 108.102 165.406 104.435C166.522 100.975 167.577 97.7042 166.688 94.674C165.92 92.0338 163.778 89.9756 161.514 87.794C159.071 85.4462 156.548 83.0182 155.468 79.604C154.622 76.9208 154.863 74.2176 155.095 71.6032C155.287 69.4474 155.471 67.412 155.041 65.523C154.588 63.5392 153.467 61.7246 152.277 59.804C151.721 58.9066 151.148 57.9778 150.632 57.0146C149.471 54.836 148.648 52.5254 147.854 50.2894C146.914 47.6492 146.028 45.1552 144.643 42.9278C141.742 38.2552 136.768 36.753 133.945 38.281C133.349 38.602 132.618 38.5448 132.081 38.1348C125.311 32.949 119.775 30.3576 114.131 29.7326C109.145 29.1794 103.722 29.9304 97.5555 32.026C90.8961 34.282 85.5899 37.4152 81.7831 41.3426C77.2823 45.9838 74.8829 51.849 75.2011 57.4274C75.2557 58.3764 74.5303 59.1876 73.5815 59.242C72.6383 59.2966 71.8213 58.5712 71.7669 57.6224C71.3943 51.0836 74.1433 44.278 79.3119 38.946C83.5031 34.6232 89.2679 31.2004 96.4489 28.7666C103.103 26.5076 109.011 25.705 114.509 26.3126C120.575 26.9834 126.417 29.6036 133.349 34.7808C138.523 32.8228 144.612 36.3574 147.565 41.1132C149.144 43.656 150.136 46.4424 151.093 49.14C151.882 51.3558 152.624 53.4486 153.667 55.4008C154.129 56.2664 154.651 57.1064 155.201 57.998C156.485 60.0734 157.816 62.2206 158.395 64.7632C158.945 67.1798 158.73 69.5878 158.521 71.9128C158.309 74.295 158.108 76.5424 158.747 78.5692C159.562 81.1462 161.669 83.173 163.896 85.3172C166.387 87.7138 168.967 90.1934 169.987 93.7108C171.171 97.7528 169.904 101.689 168.677 105.493C167.594 108.85 166.573 112.023 167.298 114.999C167.689 116.601 168.58 118.095 169.526 119.674C169.97 120.42 170.432 121.188 170.847 121.988C172.966 126.076 173.82 130.654 173.324 135.226C173.301 135.45 173.273 135.67 173.244 135.891C173.112 136.952 172.989 137.952 173.264 138.718C173.468 139.291 173.946 139.864 174.451 140.469C174.669 140.73 174.892 141.002 175.113 141.289C177.372 144.267 177.934 148.539 176.578 152.437C175.305 156.095 172.547 158.796 169.205 159.659C168.405 159.865 167.625 159.968 166.872 160.071C166.106 160.175 165.381 160.272 164.727 160.464C163.489 160.828 162.328 161.585 161.101 162.385C160.396 162.843 159.665 163.319 158.885 163.741C156.38 165.108 153.538 165.782 150.698 165.782Z" fill="black"/>
<path d="M136.244 161.949C135.089 161.949 133.956 161.571 132.924 160.834C131.107 159.535 129.762 157.21 129.415 154.768C129.203 153.266 129.249 151.792 129.295 150.371C129.347 148.774 129.395 147.263 129.077 145.861C128.854 144.881 128.441 143.903 128.002 142.866C127.308 141.223 126.589 139.526 126.514 137.571C126.423 135.16 127.326 133.056 128.2 131.021C128.931 129.321 129.619 127.712 129.619 126.124C129.619 124.602 128.983 123.066 128.309 121.44C127.63 119.803 126.927 118.109 126.761 116.203C126.489 113.121 127.658 110.355 128.791 107.68C129.851 105.175 130.852 102.81 130.499 100.508C130.178 98.4122 128.753 96.5518 127.248 94.5824C125.502 92.2976 123.696 89.9354 123.312 86.871C123.126 85.3976 123.269 83.8724 123.404 82.3962C123.665 79.5782 123.76 77.8094 122.492 76.981C122.151 76.7574 121.655 76.6026 121.134 76.4364C120.489 76.2328 119.758 76.0034 119.055 75.5764C117.722 74.7622 116.908 73.498 116.189 72.3858C115.526 71.3566 114.953 70.468 114.196 70.2214C113.772 70.0838 113.176 70.121 112.548 70.1584C112.213 70.1784 111.869 70.1984 111.505 70.1984C109.033 70.1898 105.823 68.5702 104.427 60.9592C101.658 64.061 99.2208 65.9386 97.1684 66.5406C92.4642 67.9224 87.4446 65.1932 85.9768 60.4576C85.696 59.5488 86.2034 58.5856 87.112 58.3046C88.018 58.0238 88.984 58.5312 89.265 59.437C90.1966 62.4384 93.2438 64.1068 96.2022 63.2382C97.6156 62.8226 99.7598 61.0652 102.085 58.4164C102.486 57.955 103.013 57.6138 103.607 57.439C104.197 57.2612 104.825 57.2584 105.421 57.4246C106.018 57.5908 106.551 57.9234 106.964 58.382C107.379 58.8436 107.652 59.4084 107.755 60.016C108.024 61.5928 109.099 66.7498 111.513 66.7584C111.768 66.7584 112.049 66.7412 112.344 66.724C113.222 66.6724 114.219 66.6122 115.257 66.9476C117.183 67.5698 118.192 69.1378 119.084 70.5224C119.652 71.4054 120.188 72.2366 120.85 72.6408C121.194 72.8502 121.667 72.9992 122.169 73.1568C122.857 73.3718 123.639 73.6184 124.379 74.1028C127.446 76.1096 127.108 79.7732 126.835 82.7144C126.715 84.0072 126.592 85.3402 126.729 86.4438C126.999 88.5882 128.449 90.4858 129.986 92.4954C131.689 94.72 133.449 97.0218 133.905 99.9888C134.406 103.257 133.165 106.189 131.964 109.025C130.952 111.418 129.995 113.677 130.192 115.902C130.316 117.281 130.886 118.662 131.494 120.127C132.268 121.993 133.068 123.923 133.068 126.127C133.068 128.42 132.205 130.433 131.371 132.379C130.614 134.142 129.9 135.808 129.963 137.442C130.012 138.769 130.579 140.111 131.181 141.527C131.66 142.656 132.153 143.823 132.443 145.102C132.858 146.933 132.801 148.737 132.744 150.482C132.701 151.818 132.661 153.082 132.83 154.289C133.042 155.783 133.887 157.291 134.931 158.039C135.496 158.443 136.052 158.586 136.622 158.477C137.557 158.3 138.457 158.91 138.635 159.845C138.812 160.777 138.202 161.68 137.267 161.857C136.92 161.917 136.579 161.949 136.244 161.949Z" fill="black"/>
<path d="M102.151 116.022C101.237 116.022 100.477 115.303 100.434 114.379C100.342 112.361 100.322 111.347 100.379 109.962C96.9336 110.627 93.4248 110.016 90.7186 109.543C86.347 108.775 82.95 107.216 80.3328 104.782C75.5224 100.301 73.275 93.0371 74.1722 84.8469C74.5278 81.6305 75.8292 77.2275 77.7528 72.7095C77.638 68.2117 78.7762 64.8435 81.4192 61.8277C82.0442 61.1139 83.1334 61.0424 83.8472 61.6671C84.561 62.2921 84.6328 63.3785 84.0078 64.0954C81.8894 66.5147 81.0494 69.1663 81.207 72.9675C81.2186 73.2255 81.1698 73.4835 81.0666 73.7215C79.2148 77.9957 77.9162 82.2957 77.595 85.2225C76.8182 92.3175 78.67 98.5295 82.6806 102.262C84.8248 104.257 87.5682 105.493 91.315 106.152C95.1448 106.82 98.562 107.27 101.586 106.037C102.134 105.814 102.759 105.888 103.24 106.232C103.722 106.576 103.991 107.147 103.954 107.737C103.771 110.621 103.739 111.258 103.877 114.216C103.92 115.165 103.186 115.97 102.237 116.013C102.205 116.022 102.18 116.022 102.151 116.022Z" fill="black"/>
<path d="M122.35 113.485C121.467 113.485 120.713 112.809 120.638 111.908C120.274 107.591 121.114 105.613 122.897 101.901C123.551 100.545 124.786 100.247 125.526 100.066C125.686 100.029 125.838 99.9919 125.97 99.9489C126.876 99.6621 127.842 100.164 128.129 101.07C128.415 101.975 127.914 102.942 127.008 103.228C126.764 103.306 126.535 103.36 126.334 103.409C126.205 103.44 126.045 103.478 125.939 103.512C124.29 106.952 123.78 108.245 124.067 111.616C124.147 112.562 123.445 113.396 122.499 113.474C122.447 113.482 122.398 113.485 122.35 113.485Z" fill="black"/>
<path d="M87.6169 81.2955C88.7253 81.2955 89.6235 80.2046 89.6235 78.8589C89.6235 77.513 88.7253 76.4221 87.6169 76.4221C86.5086 76.4221 85.6104 77.513 85.6104 78.8589C85.6104 80.2046 86.5086 81.2955 87.6169 81.2955Z" fill="black"/>
<path d="M97.363 81.9691C98.4714 81.9691 99.3698 80.8782 99.3698 79.5325C99.3698 78.1868 98.4714 77.0957 97.363 77.0957C96.2549 77.0957 95.3564 78.1868 95.3564 79.5325C95.3564 80.8782 96.2549 81.9691 97.363 81.9691Z" fill="black"/>
<path d="M129.307 49.0505C123.609 50.9425 117.976 49.8245 110.086 49.889C101.228 49.975 98.4973 49.76 92.6923 46.8575C88.5213 37.8275 90.1983 33.248 92.1763 23.659C95.3798 26.798 98.1963 28.8835 101.142 32.2375C104.281 27.5935 111.569 21.8745 111.569 21.8745L119.739 32.1085C119.739 32.1085 125.179 30.2165 130.64 26.067C131.242 36.043 132.209 39.827 129.328 49.0505H129.307Z" fill="#FFD30D"/>
<path d="M121.16 51.8851C119.676 51.8851 118.15 51.8204 116.537 51.7559C114.516 51.6699 112.409 51.6054 110.087 51.6269C100.885 51.7129 97.9181 51.4119 91.8981 48.4234C91.5541 48.2514 91.2746 47.9719 91.1026 47.6064C87.1036 38.9849 88.1571 34.1474 89.8771 26.1279C90.0706 25.2464 90.2641 24.3219 90.4576 23.3329C90.5866 22.7094 91.0381 22.2149 91.6401 22.0429C92.2421 21.8709 92.8871 22.0214 93.3386 22.4514C94.5211 23.6124 95.6606 24.6444 96.7786 25.6334C98.1976 26.9019 99.5736 28.1274 100.971 29.5679C104.54 25.2034 110.195 20.7315 110.474 20.5165C111.227 19.936 112.302 20.065 112.882 20.796L120.257 30.0409C122.063 29.2884 125.825 27.5254 129.566 24.7089C130.082 24.3219 130.749 24.2574 131.329 24.5154C131.91 24.7734 132.297 25.3324 132.318 25.9776C132.404 27.5686 132.512 29.0089 132.619 30.3419C133.135 37.3079 133.436 41.5219 130.942 49.5844C130.77 50.1219 130.362 50.5304 129.846 50.7024C126.986 51.6484 124.17 51.9064 121.16 51.9064V51.8851ZM110.883 48.1869C112.968 48.1869 114.839 48.2514 116.688 48.3374C121.031 48.5094 124.514 48.6384 127.932 47.6924C129.953 40.8339 129.695 37.1144 129.201 30.5999C129.179 30.1699 129.136 29.7184 129.093 29.2454C124.471 32.2554 120.472 33.6744 120.278 33.7389C119.59 33.9754 118.816 33.7389 118.365 33.1799L111.27 24.3219C109.077 26.1709 104.691 30.0194 102.541 33.2229C102.24 33.6744 101.767 33.9539 101.229 33.9754C100.692 33.9969 100.176 33.8036 99.8316 33.3951C98.0686 31.3956 96.3486 29.8474 94.4996 28.1919C94.0696 27.8049 93.6396 27.4179 93.2096 27.0309C91.6401 34.2979 90.8016 38.4259 93.9836 45.6069C99.0146 48.0364 101.552 48.2729 110.066 48.1869C110.345 48.1869 110.603 48.1869 110.883 48.1869Z" fill="black"/>
<path d="M91.6348 28.3862C90.4308 28.6227 89.2268 27.8487 88.4313 26.9027C87.9798 26.3652 87.5928 25.7632 87.4853 25.0752C87.2918 23.8497 88.0228 22.6457 88.9903 21.8932C89.9578 21.1407 91.1833 20.7967 92.3658 20.4527C92.7958 20.3237 93.2688 20.1947 93.6988 20.3237C94.0858 20.4312 94.3868 20.7322 94.6878 21.0117C95.2468 21.5707 95.8058 22.1297 96.1283 22.8392C96.7088 24.0862 96.4078 25.6557 95.5478 26.7307C94.6878 27.8057 93.3333 28.4292 91.9573 28.5152C91.6348 28.5367 91.2263 28.4292 91.6133 28.3862H91.6348Z" fill="#FFD30D"/>
<path d="M91.8309 30.2352C91.5729 30.2352 91.3149 30.2137 91.0999 30.1492C89.6809 30.1277 88.2404 29.3537 87.1009 28.0207C86.3484 27.1392 85.9184 26.2577 85.7679 25.3547C85.4884 23.6132 86.3269 21.7642 87.9394 20.5388C89.1864 19.5928 90.6054 19.1843 91.8739 18.8188C92.3684 18.6683 93.2284 18.4103 94.1744 18.6898C94.9914 18.9263 95.5504 19.4638 95.8944 19.8078C96.6039 20.4958 97.2704 21.2053 97.7004 22.1512C98.5174 23.9572 98.2164 26.1932 96.9049 27.8272C95.7869 29.2247 94.0239 30.1277 92.0889 30.2567C92.0029 30.2567 91.9169 30.2567 91.8309 30.2567V30.2352ZM91.6374 26.6662C91.8309 26.6662 92.0029 26.6877 92.1964 26.7522C93.0349 26.6232 93.7874 26.2147 94.2389 25.6342C94.7334 25.0107 94.8624 24.1507 94.5829 23.5272C94.3894 23.0972 93.9809 22.6672 93.4864 22.1942C93.4004 22.1082 93.2499 21.9577 93.1639 21.9147C93.2284 21.9577 92.9704 22.0437 92.8414 22.0652C91.8094 22.3662 90.7559 22.6672 90.0034 23.2477C89.4229 23.6777 89.0789 24.3012 89.1649 24.7742C89.2079 25.0537 89.4014 25.3762 89.7239 25.7632C90.2614 26.3867 90.8849 26.7522 91.2934 26.6662C91.3579 26.6662 91.4009 26.6662 91.4654 26.6447C91.5084 26.6447 91.5729 26.6447 91.6159 26.6447L91.6374 26.6662Z" fill="black"/>
<path d="M110.728 24.411C109.546 23.336 107.761 22.648 107.46 21.0785C107.288 20.1325 107.783 19.1865 108.406 18.434C109.481 17.1655 111.352 16.284 112.814 17.101C113.373 17.4235 114.577 17.9395 114.942 18.477C115.587 19.4445 116.297 20.9495 115.953 22.0675C115.673 23.0135 113.91 23.3575 113.029 23.809C112.513 24.0885 111.932 24.3035 111.352 24.2175C110.771 24.1315 110.212 23.6585 110.707 24.3895L110.728 24.411Z" fill="#FFD30D"/>
<path d="M110.665 26.1099C110.278 26.1099 109.891 25.9809 109.568 25.6799C109.267 25.4219 108.923 25.1854 108.579 24.9489C107.461 24.1749 106.085 23.1859 105.763 21.4014C105.526 20.0684 105.999 18.6279 107.096 17.3379C108.644 15.5319 111.396 14.3494 113.653 15.6179L114.019 15.8114C115.008 16.3274 115.868 16.8004 116.362 17.5529C116.921 18.3914 118.19 20.5844 117.609 22.5839C117.158 24.0889 115.653 24.6479 114.535 25.0779C114.277 25.1854 114.019 25.2714 113.847 25.3574C113.266 25.6584 112.385 26.0669 111.353 25.9594C111.138 26.0669 110.901 26.1099 110.665 26.1099ZM110.815 22.3044C111.009 22.3259 111.202 22.3689 111.417 22.4549C111.589 22.5194 111.74 22.5409 112.234 22.2829C112.514 22.1324 112.901 21.9819 113.288 21.8314C113.567 21.7239 114.04 21.5519 114.298 21.4014C114.298 21.0144 114.062 20.2834 113.481 19.4449C113.374 19.3374 112.729 19.0149 112.406 18.8644L111.933 18.6064C111.396 18.3054 110.364 18.7354 109.676 19.5524C109.289 20.0039 109.052 20.4984 109.117 20.7564C109.181 21.1649 109.869 21.6379 110.536 22.1109C110.622 22.1754 110.708 22.2184 110.794 22.2829L110.815 22.3044Z" fill="black"/>
<path d="M130.617 28.15C129.09 28.279 127.521 27.2685 126.983 25.828C126.446 24.3875 126.983 22.603 128.23 21.7C129.004 21.1411 129.95 20.9046 130.918 20.8831C131.692 20.8831 132.53 21.0121 133.046 21.5925C133.111 21.657 133.197 21.7645 133.283 21.872C134.143 22.7965 134.723 23.979 134.874 25.2475C134.874 25.441 134.895 25.613 134.895 25.7635C134.852 26.645 133.605 27.376 132.939 27.935C132.272 28.494 131.219 28.6445 130.638 28.1715L130.617 28.15Z" fill="#FFD30D"/>
<path d="M131.54 30.1738C131.067 30.1738 130.594 30.0878 130.164 29.8943C128.078 29.8083 126.122 28.4323 125.369 26.4543C124.552 24.2828 125.326 21.7028 127.197 20.3482C128.164 19.6387 129.433 19.2302 130.852 19.1872C132.787 19.1657 133.797 19.8752 134.335 20.5202L134.528 20.7352C135.668 21.9608 136.399 23.5088 136.571 25.0998C136.592 25.3793 136.614 25.6373 136.592 25.8738C136.528 27.3573 135.281 28.3248 134.442 28.9698C134.292 29.0773 134.163 29.1848 134.034 29.2923C133.324 29.9158 132.4 30.2383 131.518 30.2383L131.54 30.1738ZM130.637 26.4328C130.981 26.4328 131.303 26.5403 131.604 26.7338C131.669 26.7338 131.755 26.6908 131.819 26.6263C131.991 26.4973 132.163 26.3468 132.378 26.1748C132.615 26.0028 133.002 25.7018 133.174 25.4868C133.174 25.4653 133.174 25.4438 133.174 25.4223C133.088 24.5623 132.679 23.7238 132.034 23.0358C131.905 22.9068 131.798 22.7778 131.733 22.6918C131.712 22.6918 131.475 22.5628 130.981 22.5843C130.486 22.5843 129.798 22.6918 129.282 23.0788C128.659 23.5303 128.379 24.4978 128.637 25.2288C128.895 25.9598 129.777 26.4758 130.529 26.4328C130.572 26.4328 130.615 26.4328 130.658 26.4328H130.637Z" fill="black"/>
<path d="M135.054 378.218C133.314 382.173 130.095 385.285 126.084 386.886C122.077 388.488 117.599 388.453 113.62 386.786L113.382 386.688C111.685 391.567 109.157 396.174 108.087 401.227C107.921 401.999 107.801 402.846 108.171 403.544C108.701 404.546 109.979 404.828 111.1 404.981C114.985 405.555 119.018 406.028 122.779 404.903C129.06 403.037 133.36 396.935 135 390.577C136.201 385.939 136.255 381.126 136.055 376.315L135.054 378.218Z" fill="black"/>
<path d="M103.719 376.57C101.265 379.016 98.275 380.856 94.9898 381.947C91.7046 383.037 88.21 383.35 84.7816 382.856C83.7094 382.739 82.6716 382.409 81.7314 381.881C80.817 381.307 80.0774 380.385 79.9684 379.315V378.27C76.1042 381.542 72.2112 384.751 70.8982 389.492C70.6374 390.44 70.5026 391.484 70.9154 392.363C71.698 394.042 73.9168 394.329 75.7658 394.372C80.622 394.524 85.547 394.659 90.2684 393.528C94.9898 392.397 99.5706 389.779 102.022 385.58C103.971 382.248 104.412 378.27 104.779 374.427L103.719 376.57Z" fill="black"/>
<path d="M115.217 349.863C115.346 355.46 115.441 363.927 115.504 369.524C115.552 374.171 115.57 378.872 114.472 383.387C114.202 384.501 113.867 385.592 113.491 386.671L113.729 386.768C117.711 388.433 122.186 388.471 126.193 386.869C130.201 385.267 133.42 382.156 135.163 378.201L136.152 376.054C136.078 374.352 135.972 372.647 135.866 370.953C135.533 364.969 135.329 356.108 135.223 350.115" fill="white"/>
<path d="M89.4456 351.189C89.4742 351.909 89.5028 356.209 89.5316 356.929C89.6892 360.948 89.8182 365.144 88.23 368.847C86.5732 372.704 83.288 375.532 79.9912 378.319L80.0716 379.297C80.1804 380.368 80.9316 381.306 81.8374 381.863C82.7776 382.391 83.8126 382.722 84.8846 382.839C88.3132 383.333 91.8106 383.023 95.0986 381.932C98.3866 380.841 101.377 378.999 103.833 376.553L104.894 374.429C105.533 367.733 106.072 357.446 106.508 350.735" fill="white"/>
<path d="M143.924 190.679C151.501 243.879 158.123 296.97 167.224 349.937C167.224 349.937 163.288 352.386 160.935 351.154C159.863 350.58 158.928 349.719 157.781 349.395C156.348 348.987 154.852 349.452 153.433 349.869C144.423 352.486 134.963 353.169 125.672 351.878C122.627 351.45 119.457 350.824 116.544 351.809C114.308 352.564 112.373 354.234 110.026 354.481C106.798 354.817 103.925 352.377 100.709 351.938C94.861 351.14 88.6374 356.924 83.5834 353.873C81.0722 352.357 79.8768 349.025 77.1192 348.032C74.046 346.927 70.007 349.119 67.6592 346.863C66.7992 346.025 66.4436 344.788 66.18 343.608C64.0042 333.893 64.5402 323.804 65.0934 313.858C67.3638 272.992 69.7632 231.769 80.668 192.312" fill="black"/>
<path fill-rule="evenodd" clip-rule="evenodd" d="M82.6944 355.348C84.0648 356.175 85.4894 356.485 86.917 356.485C87.2079 356.485 87.4988 356.472 87.7897 356.448L87.8114 356.995L87.8125 357.023C87.9529 360.647 88.1118 364.754 86.6476 368.164C85.1211 371.716 82.0008 374.358 78.6991 377.154L78.6898 377.162L78.6834 377.167C74.7923 380.464 70.7684 383.872 69.3444 389.016C68.9 390.629 68.9374 391.958 69.462 393.074C70.7903 395.923 74.4281 396.045 75.8086 396.091L75.8144 396.091L76.0279 396.097C77.5981 396.144 79.1835 396.192 80.7796 396.192C84.0992 396.192 87.456 395.991 90.7842 395.181C96.5834 393.772 101.141 390.663 103.615 386.43C105.665 382.917 106.178 378.979 106.597 374.57C107.179 368.46 107.682 362.263 108.099 356.121C108.78 356.228 109.483 356.262 110.209 356.186C111.445 356.056 112.529 355.638 113.55 355.144C113.653 359.929 113.732 364.762 113.783 369.544L113.784 369.576C113.827 373.791 113.875 378.562 112.8 382.983C112.122 385.77 111.019 388.411 109.851 391.205L109.816 391.29C108.542 394.339 107.225 397.49 106.511 400.85L106.509 400.859C106.362 401.564 106.058 403.018 106.76 404.331C107.761 406.228 110.006 406.535 110.953 406.664H110.96C113.173 406.993 115.463 407.285 117.745 407.285C119.64 407.285 121.535 407.081 123.381 406.526C130.86 404.288 135.203 397.027 136.771 390.976C138.4 384.69 138.021 378.175 137.654 371.875L137.594 370.841C137.297 365.488 137.095 360.032 136.978 354.203C142.686 354.028 148.352 353.131 153.92 351.513L154.046 351.476L154.052 351.474C155.263 351.119 156.401 350.785 157.317 351.045C157.795 351.18 158.32 351.528 158.873 351.895L158.895 351.909C159.281 352.163 159.679 352.425 160.14 352.673C163.271 354.312 167.645 351.697 168.133 351.393C168.729 351.025 169.038 350.331 168.921 349.639C162.313 311.183 156.918 271.976 151.701 234.06C149.734 219.766 147.699 204.981 145.626 190.429C145.492 189.488 144.62 188.833 143.68 188.968C142.74 189.103 142.086 189.976 142.221 190.917C144.259 205.223 146.259 219.754 148.195 233.825L148.292 234.533C153.458 272.076 158.799 310.885 165.32 349.002C164.071 349.584 162.511 350.032 161.749 349.633C161.436 349.464 161.112 349.252 160.771 349.025C160.054 348.551 159.246 348.017 158.254 347.736C156.385 347.205 154.628 347.722 153.077 348.178L152.956 348.212C144.124 350.778 135.023 351.436 125.915 350.17C125.608 350.127 125.296 350.081 124.986 350.035C122.045 349.602 119.004 349.157 115.999 350.173C114.996 350.511 114.093 350.986 113.219 351.446L113.19 351.462C112.032 352.073 110.937 352.65 109.85 352.765C108.426 352.914 106.921 352.285 105.327 351.617L105.292 351.602C103.927 351.032 102.516 350.444 100.944 350.23C98.0097 349.829 95.196 350.79 92.4765 351.719L92.464 351.723L92.4498 351.728C89.3341 352.79 86.6472 353.707 84.4718 352.394C83.6092 351.873 82.8737 350.986 82.0944 350.046L82.072 350.019C80.9469 348.66 79.6694 347.118 77.7036 346.41C76.0436 345.811 74.2903 345.963 72.7386 346.097L72.707 346.1C70.792 346.266 69.5794 346.318 68.86 345.626C68.3382 345.118 68.0716 344.174 67.8594 343.23C65.7165 333.663 66.2736 323.653 66.8122 313.972L66.8132 313.953C69.0348 273.93 71.3368 232.544 82.3276 192.771C82.5826 191.856 82.0438 190.905 81.1292 190.653C80.212 190.397 79.266 190.937 79.0136 191.853C67.9226 231.985 65.612 273.557 63.3788 313.764C62.8256 323.686 62.2552 333.944 64.5026 343.984C64.8294 345.448 65.2938 346.961 66.4692 348.106C68.375 349.937 70.8337 349.722 73.0033 349.533C74.3277 349.415 75.5794 349.306 76.5368 349.65C77.6187 350.04 78.4548 351.051 79.4217 352.219L79.4264 352.225C80.3152 353.301 81.3242 354.521 82.6944 355.348ZM133.537 354.221C130.843 354.167 128.142 353.952 125.439 353.577L124.488 353.439C121.83 353.049 119.322 352.681 117.097 353.433C117.05 353.449 117.002 353.466 116.955 353.483C117.075 358.798 117.166 364.183 117.223 369.507C117.269 373.933 117.321 378.947 116.143 383.798C115.992 384.417 115.823 385.03 115.638 385.637C118.881 386.667 122.356 386.546 125.554 385.267C129.166 383.824 132.018 381.068 133.586 377.506C133.766 377.101 134.081 376.799 134.456 376.631C134.396 375.116 134.308 373.603 134.221 372.103L134.16 371.039C133.859 365.626 133.654 360.113 133.537 354.221ZM104.719 355.088C104.475 354.988 104.235 354.887 104 354.788C102.775 354.274 101.617 353.792 100.479 353.637C98.3555 353.345 96.0436 354.135 93.5975 354.97L93.5764 354.978C92.8057 355.243 92.0121 355.515 91.2046 355.754L91.2486 356.858C91.4062 360.856 91.584 365.388 89.8096 369.524C88.1135 373.471 84.9582 376.35 81.7729 379.063C81.7757 379.083 81.7781 379.102 81.78 379.122C81.8258 379.558 82.187 380.049 82.706 380.379C83.4398 380.784 84.2338 381.037 85.068 381.128L85.0869 381.131L85.1254 381.137C88.273 381.591 91.5352 381.301 94.5538 380.299C97.5724 379.297 100.362 377.581 102.618 375.333C102.761 375.191 102.922 375.08 103.095 374.998C103.12 374.748 103.144 374.496 103.168 374.243C103.773 367.899 104.294 361.46 104.719 355.088ZM134.475 382.704C134.363 385.225 134.063 387.712 133.44 390.115C131.408 397.96 126.403 402.033 122.395 403.233C119.001 404.245 115.286 403.824 111.441 403.254C110.12 403.078 109.853 402.824 109.796 402.714C109.744 402.616 109.713 402.336 109.876 401.566C110.524 398.513 111.728 395.635 113.004 392.586C113.512 391.374 114.027 390.144 114.508 388.891C116.324 389.479 118.201 389.774 120.079 389.774C122.363 389.774 124.648 389.34 126.83 388.468C129.89 387.244 132.509 385.255 134.475 382.704ZM72.6582 389.934C73.5991 386.536 76.1126 383.953 79.0164 381.415C79.4673 382.17 80.1243 382.836 80.9344 383.333L80.9946 383.367C82.1354 384.007 83.371 384.403 84.6668 384.55C85.7848 384.708 86.917 384.788 88.0466 384.788C90.6208 384.788 93.198 384.375 95.6404 383.568C98.0392 382.772 100.314 381.588 102.353 380.085C101.982 381.754 101.454 383.296 100.64 384.69C98.6704 388.06 94.7804 390.663 89.9644 391.834C85.4236 392.939 80.5967 392.791 75.9297 392.647L75.9206 392.647C73.9654 392.584 72.8704 392.245 72.5752 391.613C72.4662 391.381 72.3916 390.899 72.6582 389.934Z" fill="black"/>
<path d="M122.286 110.65C122.544 113.545 123.728 120.087 128.134 119.107L128.607 119.823C128.392 124.315 126.116 127.483 122.55 130.765C118.927 134.048 114.306 136.02 109.429 136.367C105.129 136.682 100.557 135.653 97.3406 132.769C94.1242 129.885 92.433 125.889 94.5628 122.463H94.8724C95.8414 122.492 96.733 121.985 97.5528 121.469C98.5962 120.809 100.749 118.106 101.394 117.329C102.254 116.214 102.604 111.986 103.045 110.65H122.286Z" fill="white"/>
<path d="M147.432 145.959C146.808 146.968 146.131 147.942 145.409 148.883C142.935 152.076 139.71 154.82 135.854 156.049L135.298 156.932C134.988 183.042 136.275 209.172 138.827 236.052C137.835 236.135 136.895 236.525 136.132 237.167C135.37 237.81 134.825 238.67 134.573 239.633C134.32 240.596 134.369 241.614 134.719 242.545C135.066 243.477 135.693 244.28 136.516 244.842C137.405 245.444 138.471 245.736 139.383 246.306C143.562 248.912 143.061 256.099 147.478 258.272C150.738 259.874 154.823 257.429 156.299 254.107C157.775 250.784 157.371 246.974 156.933 243.368C155.061 228.026 150.597 183.085 149.818 173.679L147.625 147.229L147.432 145.959Z" fill="white"/>
<path d="M75.1665 146.733C70.9067 173.883 66.6841 200.402 64.6229 228.822C63.6971 228.711 62.7567 228.871 61.9169 229.278C61.0769 229.685 60.3717 230.327 59.8873 231.124C59.4027 231.921 59.1533 232.841 59.1763 233.773C59.1963 234.708 59.4859 235.614 60.0077 236.388C60.3173 236.84 60.7043 237.248 60.9881 237.712C61.7133 238.922 61.6731 240.427 61.5871 241.837C61.4267 244.472 61.2173 247.246 62.3497 249.632C63.4821 252.017 66.5093 253.728 68.8283 252.467C70.4451 251.584 71.1389 249.663 71.6951 247.909C72.4777 245.592 73.1427 243.236 73.6845 240.851C74.3009 237.913 74.5445 234.908 74.7911 231.913L76.2243 214.346L79.4665 152.265C78.5923 149.935 77.1761 147.848 75.3357 146.171L75.1665 146.733Z" fill="white"/>
<path d="M151.729 193.631C155.141 200.675 157.87 207.649 157.87 207.649C158.148 208.478 158.136 209.375 157.838 210.195C157.056 211.797 154.355 211.861 153.495 210.301L151.729 193.631Z" fill="white"/>
<path d="M79.4662 152.265C78.0902 148.61 75.4042 145.598 71.9326 143.809C75.1606 141.802 76.7888 138.075 78.7324 134.805C83.4308 126.958 90.6892 120.97 99.2836 117.848C98.4608 118.751 97.0934 120.357 97.2768 122.211C97.3972 123.507 98.2916 124.636 99.401 125.319C100.51 126.001 101.809 126.296 103.096 126.485C108.514 127.257 114.038 126.311 118.889 123.779C121.469 122.421 123.974 120.414 124.568 117.289C128.469 116.487 132.5 118.401 135.401 121.131C138.302 123.86 140.349 127.345 142.673 130.591C144.998 133.836 147.776 136.952 151.48 138.419C149.697 142.046 147.896 145.698 145.423 148.894C142.949 152.091 139.724 154.831 135.868 156.061L135.312 156.944C135.088 175.809 135.699 194.683 137.015 213.844L137 214.005C133.337 217.058 127.93 216.636 123.321 215.412C118.711 214.188 114.058 212.311 109.337 212.993C107.006 213.331 104.805 214.286 102.486 214.687C95.0782 215.968 87.5188 211.534 80.1486 212.999C77.6774 213.495 75.1146 214.641 72.7496 213.775C69.946 212.752 68.874 208.667 70.8146 206.4C74.9054 189.111 77.9498 171.592 79.9306 153.94L79.4662 152.265Z" fill="white"/>
<path d="M129.648 218.058C127.595 218.058 125.328 217.729 122.854 217.072C121.916 216.823 120.967 216.545 120.053 216.278C116.409 215.209 112.967 214.2 109.558 214.693C108.452 214.853 107.351 215.177 106.184 215.518C105.086 215.839 103.948 216.175 102.755 216.381C98.7908 217.066 94.8895 216.267 91.1169 215.49C87.3872 214.724 83.8671 214.002 80.4642 214.684C79.9052 214.796 79.3376 214.942 78.7356 215.1C76.7177 215.627 74.4301 216.224 72.1394 215.389C70.2904 214.713 68.8628 213.065 68.3183 210.98C67.8167 209.06 68.149 207.099 69.204 205.634C73.7534 186.362 77.0156 166.602 78.9021 146.89C78.9936 145.944 79.8336 145.254 80.7769 145.342C81.7229 145.434 82.4164 146.274 82.3249 147.217C80.4099 167.206 77.093 187.25 72.4635 206.789C72.4005 207.056 72.2743 207.303 72.0964 207.512C71.5546 208.145 71.3857 209.114 71.6437 210.106C71.9045 211.101 72.5295 211.866 73.3149 212.156C74.5935 212.623 76.1814 212.207 77.8642 211.769C78.4893 211.605 79.1343 211.436 79.7879 211.307C83.8729 210.487 87.9063 211.316 91.8076 212.119C95.4254 212.861 98.8454 213.563 102.168 212.99C103.168 212.818 104.163 212.526 105.215 212.216C106.445 211.855 107.715 211.482 109.065 211.287C113.219 210.685 117.186 211.849 121.022 212.976C121.916 213.237 122.842 213.509 123.737 213.747C129.2 215.197 133.283 214.839 135.874 212.68C136.605 212.073 137.689 212.17 138.296 212.901C138.904 213.632 138.807 214.716 138.076 215.323C135.891 217.144 133.07 218.058 129.648 218.058Z" fill="black"/>
<path d="M135.869 157.781C135.141 157.781 134.464 157.314 134.232 156.583C133.942 155.677 134.444 154.711 135.347 154.421C139.323 153.154 142.281 150.141 144.065 147.839C146.091 145.222 147.679 142.215 149.167 139.225C145.678 137.313 143.147 134.203 141.278 131.591C140.699 130.783 140.134 129.954 139.587 129.154C137.887 126.666 136.282 124.318 134.226 122.383C131.649 119.958 128.622 118.679 125.933 118.84C125.044 121.414 122.952 123.584 119.692 125.299C114.483 128.016 108.664 129.014 102.856 128.185C101.586 127.999 99.9493 127.672 98.5017 126.781C96.8247 125.749 95.7267 124.1 95.5661 122.366C95.5489 122.197 95.5403 122.033 95.5403 121.876C88.9699 125.107 83.7211 129.819 80.2095 135.685C79.8683 136.258 79.5387 136.843 79.1917 137.465C77.9735 139.632 76.7235 141.857 74.9205 143.622C77.7069 145.623 79.8511 148.404 81.0781 151.655C81.4135 152.543 80.9633 153.535 80.0747 153.871C79.1861 154.206 78.1941 153.756 77.8587 152.867C76.6289 149.605 74.2467 146.931 71.1479 145.334C70.5975 145.05 70.2421 144.494 70.2163 143.875C70.1905 143.256 70.5001 142.671 71.0275 142.344C73.2921 140.936 74.7025 138.431 76.1933 135.776C76.5373 135.166 76.8927 134.535 77.2567 133.922C81.9295 126.116 89.3569 120.193 98.7367 116.785C99.4821 116.515 100.313 116.788 100.752 117.444C101.191 118.1 101.128 118.975 100.594 119.56C100.451 119.717 100.293 119.878 100.13 120.044C99.3043 120.881 98.9231 121.351 98.9889 122.039C99.0491 122.699 99.5537 123.389 100.302 123.851C101.211 124.41 102.352 124.636 103.346 124.783C108.429 125.508 113.532 124.631 118.093 122.254C120.916 120.766 122.484 119.035 122.877 116.968C123.006 116.283 123.536 115.744 124.221 115.604C128.238 114.778 132.856 116.375 136.58 119.878C138.907 122.068 140.696 124.685 142.425 127.216C142.961 128.002 143.517 128.813 144.073 129.59C145.957 132.219 148.574 135.418 152.114 136.823C152.561 137 152.911 137.356 153.086 137.803C153.258 138.25 153.238 138.749 153.026 139.182C151.231 142.828 149.379 146.601 146.785 149.949C143.801 153.805 140.209 156.485 136.393 157.701C136.218 157.755 136.041 157.781 135.869 157.781Z" fill="black"/>
<path d="M155.623 213.153C154.066 213.153 152.682 212.385 151.988 211.13C151.529 210.298 151.83 209.252 152.664 208.793C153.496 208.335 154.542 208.636 155.001 209.47C155.084 209.619 155.356 209.722 155.654 209.713C155.915 209.708 156.156 209.616 156.259 209.49C156.382 209.08 156.38 208.638 156.251 208.231C156.013 207.627 153.381 200.99 150.182 194.38C149.769 193.525 150.124 192.496 150.979 192.081C151.833 191.668 152.862 192.023 153.278 192.88C156.678 199.904 159.444 206.95 159.473 207.022C159.484 207.047 159.493 207.073 159.501 207.102C159.9 208.294 159.885 209.602 159.455 210.783C159.435 210.84 159.41 210.895 159.384 210.949C158.739 212.268 157.343 213.113 155.74 213.153C155.703 213.153 155.663 213.153 155.623 213.153Z" fill="black"/>
<path d="M149.677 260.494C148.639 260.494 147.633 260.267 146.718 259.817C143.846 258.404 142.682 255.463 141.653 252.865C140.81 250.738 140.016 248.729 138.471 247.766C138.141 247.559 137.743 247.381 137.321 247.192C136.771 246.946 136.143 246.668 135.55 246.263C134.423 245.498 133.575 244.42 133.096 243.145C132.617 241.869 132.548 240.499 132.895 239.183C133.242 237.867 133.976 236.709 135.019 235.832C135.607 235.339 136.269 234.957 136.977 234.699C134.4 207.065 133.291 181.6 133.583 156.898C133.595 155.955 134.363 155.198 135.303 155.198C135.309 155.198 135.318 155.198 135.323 155.198C136.272 155.21 137.035 155.989 137.023 156.938C136.728 181.964 137.877 207.784 140.543 235.875C140.586 236.333 140.446 236.789 140.151 237.142C139.855 237.494 139.431 237.715 138.973 237.752C138.328 237.804 137.728 238.053 137.232 238.469C136.737 238.885 136.39 239.432 136.226 240.057C136.063 240.682 136.094 241.333 136.321 241.938C136.547 242.543 136.952 243.053 137.485 243.417C137.826 243.649 138.264 243.844 138.729 244.05C139.216 244.268 139.767 244.515 140.3 244.847C142.805 246.41 143.895 249.165 144.858 251.598C145.735 253.811 146.561 255.901 148.24 256.727C149.31 257.251 150.408 257.048 151.142 256.781C152.655 256.234 154.063 254.909 154.731 253.407C155.963 250.635 155.7 247.45 155.229 243.575C153.375 228.367 148.917 183.59 148.109 173.82L145.916 147.369C145.838 146.423 146.541 145.592 147.487 145.512C148.433 145.437 149.264 146.137 149.344 147.083L151.537 173.533C152.346 183.283 156.795 227.977 158.646 243.156C159.068 246.625 159.592 250.939 157.878 254.8C156.835 257.151 154.705 259.146 152.32 260.012C151.431 260.333 150.542 260.494 149.677 260.494Z" fill="black"/>
<path d="M67.1173 254.611C66.5011 254.611 65.8703 254.511 65.2455 254.307C63.3621 253.694 61.6563 252.186 60.7963 250.371C59.5063 247.657 59.6927 244.635 59.8561 241.966L59.8705 241.734C59.9449 240.519 59.9737 239.366 59.5121 238.598C59.4147 238.437 59.2569 238.24 59.0907 238.03C58.9331 237.833 58.7553 237.606 58.5861 237.362C57.8723 236.305 57.4825 235.083 57.4539 233.816C57.4251 232.552 57.7577 231.311 58.4171 230.23C59.0763 229.149 60.0253 228.287 61.1633 227.733C61.7539 227.447 62.3787 227.252 63.0209 227.148C65.0705 199.952 68.9979 174.926 73.1545 148.461L73.4671 146.466C73.6133 145.529 74.4933 144.889 75.4335 145.033C76.3709 145.179 77.0131 146.059 76.8669 146.999L76.5545 148.995C72.3319 175.89 68.3443 201.297 66.3405 228.949C66.3061 229.419 66.0825 229.852 65.7185 230.15C65.3573 230.448 64.8871 230.588 64.4199 230.531C63.8179 230.459 63.2129 230.563 62.6683 230.826C62.1237 231.09 61.6679 231.503 61.3553 232.022C61.0401 232.538 60.8823 233.131 60.8939 233.736C60.9081 234.341 61.0945 234.926 61.4327 235.427C61.5273 235.565 61.6535 235.726 61.7853 235.892C61.9975 236.161 62.2383 236.462 62.4533 236.815C63.4251 238.437 63.4051 240.238 63.3019 241.94L63.2875 242.176C63.1413 244.538 62.9923 246.98 63.9009 248.892C64.3653 249.867 65.3085 250.71 66.3089 251.034C66.7505 251.177 67.4041 251.28 68.0061 250.953C69.0295 250.394 69.5799 248.884 70.0557 247.387C70.0585 247.376 70.0615 247.367 70.0671 247.356C70.8269 245.108 71.4775 242.798 72.0051 240.481C72.5927 237.678 72.8363 234.716 73.0715 231.853L74.5105 214.205C74.5879 213.259 75.4193 212.551 76.3653 212.632C77.3113 212.709 78.0165 213.54 77.9391 214.486L76.4999 232.136C76.2563 235.112 76.0011 238.188 75.3705 241.204C75.3677 241.212 75.3677 241.224 75.3647 241.232C74.8115 243.66 74.1293 246.086 73.3323 248.442C72.8249 250.045 71.9735 252.708 69.6543 253.975C68.8775 254.399 68.0117 254.611 67.1173 254.611Z" fill="black"/>
<path d="M60.9029 241.502L2 200.179" stroke="black" stroke-width="3" stroke-linecap="round"/>
<path d="M53.0892 235.828C56.3516 231.099 55.1623 224.62 50.4329 221.358C45.7035 218.095 39.2249 219.285 35.9626 224.014C32.7003 228.743 33.8896 235.222 38.619 238.484C43.3484 241.747 49.8269 240.557 53.0892 235.828Z" fill="#4CAF50" stroke="black" stroke-width="3"/>
<path d="M37.4926 225.07C40.7549 220.34 39.5656 213.862 34.8362 210.6C30.1068 207.337 23.6282 208.527 20.3659 213.256C17.1036 217.985 18.2929 224.464 23.0223 227.726C27.7517 230.989 34.2303 229.799 37.4926 225.07Z" fill="#FFC0CB" stroke="black" stroke-width="3"/>
<path d="M19.2387 199.841C23.9681 203.103 25.1574 209.582 21.8951 214.311C18.6328 219.041 12.1542 220.23 7.42479 216.968C2.69536 213.705 1.50605 207.227 4.76838 202.497C8.03069 197.768 14.5093 196.578 19.2387 199.841Z" fill="#FFFFF0" stroke="black" stroke-width="3"/>
</svg>
