<svg width="120" height="286" viewBox="0 0 120 286" fill="none" xmlns="http://www.w3.org/2000/svg">
<g clip-path="url(#clip0_845_2499)">
<path d="M63.681 255.446C63.9487 258.313 63.5798 260.15 62.5603 263.283C61.281 267.471 53.6353 271.208 58.3953 275.899C58.5937 276.089 62.1538 278.813 68.312 277.046C68.7583 276.82 69.2224 276.628 69.7003 276.472C70.3747 276.156 71.0014 275.752 71.5607 275.27C74.8749 272.565 77.0228 268.767 77.584 264.617C78.0086 261.595 78.3635 257.956 78.1097 255.368" fill="black"/>
<path d="M44.5302 251.753C44.5164 252.21 44.5164 252.783 44.3179 253.166C44.1196 253.548 43.9214 254.121 43.7229 254.504C41.1446 257.753 37.7729 259.665 34.5996 262.341C32.6164 264.061 30.8314 267.31 33.2114 269.413C37.8424 271.441 45.1906 270.225 46.6979 269.604C48.0864 269.031 49.4746 268.648 50.6646 267.884C56.2179 264.061 55.8214 257.18 56.2576 251.49" fill="black"/>
<path d="M60.4719 250.522C60.577 252.013 60.7753 253.351 60.7753 254.881C67.3203 255.263 74.0637 255.454 80.6087 255.072C83.427 254.846 86.1818 254.135 88.7403 252.969C91.7153 234.046 91.9137 214.74 90.1287 195.435C90.1287 194.861 90.327 194.097 90.1287 193.523C89.9303 192.568 89.9303 191.803 89.732 190.847V188.936C87.7487 171.16 84.972 153.957 81.402 136.754C67.5187 137.136 53.8337 137.901 39.9503 138.283C33.8139 165.188 31.6105 192.789 33.4053 220.284C33.3717 221.18 33.4391 222.076 33.6037 222.96C33.9765 228.31 34.8413 233.62 36.182 238.824C36.5787 240.162 36.9753 241.692 37.5703 243.03C38.562 245.514 39.9503 247.999 40.942 250.484C44.7103 251.44 48.677 251.631 52.6437 251.44C54.8253 251.249 57.2053 251.249 59.4822 250.712L60.4719 250.522Z" fill="black"/>
<path fill-rule="evenodd" clip-rule="evenodd" d="M80.3076 136.956C87.57 173.942 93.4846 213.488 87.7202 252.185C83.7569 253.888 79.1115 254.085 75.0497 254.131C70.7023 254.177 66.3053 254.07 61.9637 253.814C61.571 249.431 61.1545 245.012 60.7499 240.728C58.9511 221.671 57.0926 201.966 57.1799 182.647C57.2137 175.852 56.4897 169.141 51.0257 166.064C50.4583 165.744 49.7286 165.928 49.3973 166.475C49.0641 167.021 49.2564 167.725 49.8238 168.044C54.2466 170.534 54.8297 176.529 54.7999 182.636C54.7126 202.062 56.5766 221.821 58.3793 240.93L58.5173 242.398C58.7404 244.772 58.9668 247.18 59.1897 249.594C53.4567 250.488 47.6502 250.506 41.9162 249.647C35.6806 237.771 34.6929 225.93 34.2605 215.74C33.1676 189.859 35.4405 163.886 41.0157 138.547C41.1525 137.927 40.742 137.319 40.0994 137.188C39.4568 137.056 38.8261 137.451 38.6892 138.071C33.0724 163.598 30.7838 189.762 31.8824 215.834C32.3308 226.417 33.372 238.75 40.0756 251.216C40.2481 251.537 40.5675 251.761 40.9364 251.82C41.7307 251.947 42.5262 252.058 43.3228 252.153C43.3122 252.356 43.2923 252.566 43.251 252.652C43.1391 252.869 43.0374 253.113 42.938 253.351L42.9137 253.409C42.8423 253.583 42.7669 253.76 42.7016 253.9C41.0575 255.941 39.0623 257.44 36.9502 259.026L36.9023 259.062C35.8898 259.823 34.8412 260.611 33.8024 261.488C32.3962 262.708 30.8907 264.782 30.8809 266.946C30.875 268.226 31.4024 269.371 32.406 270.258C32.4972 270.34 32.6024 270.407 32.7175 270.457C34.8258 271.38 37.3802 271.693 39.7702 271.693C43.1241 271.693 46.1525 271.076 47.1661 270.661C47.5547 270.501 47.9593 270.35 48.3501 270.204L48.3626 270.2C49.3543 269.83 50.3791 269.449 51.323 268.842C51.3296 268.837 51.3369 268.833 51.3439 268.828C51.3476 268.826 51.3513 268.823 51.3549 268.821C56.6594 265.17 57.001 259.13 57.3023 253.801L57.3136 253.601C57.3416 253.106 57.3687 252.628 57.4001 252.157C58.0675 252.078 58.734 251.987 59.3996 251.884C59.494 252.921 59.5873 253.958 59.6789 254.991C59.7305 255.557 60.1985 256 60.7856 256.039C61.3708 256.077 61.957 256.112 62.5441 256.144C62.6959 258.549 62.3201 260.194 61.4263 262.939C61.4242 262.945 61.4223 262.952 61.4203 262.958C61.0553 264.151 59.9526 265.449 58.8856 266.703L58.874 266.716C57.6876 268.113 56.4622 269.556 55.9323 271.155C55.2778 273.133 55.8193 275 57.5548 276.708C57.5826 276.738 59.9566 278.789 64.2961 278.789C65.5794 278.789 67.035 278.609 68.6534 278.142C68.7268 278.122 68.7983 278.093 68.8657 278.059C69.2565 277.861 69.6649 277.692 70.0834 277.556C70.129 277.54 70.1766 277.524 70.2202 277.503C70.9899 277.143 71.7039 276.682 72.3424 276.134C75.8846 273.24 78.1656 269.203 78.7644 264.77C79.2557 261.279 79.4572 258.429 79.366 256.277C82.6325 256.057 86.0251 255.509 89.1136 254.093C89.2337 254.038 89.3398 253.965 89.4304 253.881C89.7245 253.709 89.9393 253.417 89.9922 253.065C95.9461 213.857 89.9802 173.885 82.6459 136.53C82.525 135.907 81.9022 135.5 81.2555 135.616C80.6091 135.735 80.1845 136.333 80.3076 136.956ZM54.9991 252.394C53.4609 252.514 51.92 252.573 50.3791 252.573C48.8154 252.573 47.2523 252.511 45.6918 252.388C45.6629 252.81 45.5908 253.266 45.377 253.678C45.3053 253.817 45.2216 254.016 45.1386 254.213L45.1193 254.259L45.095 254.317C44.9956 254.555 44.8939 254.799 44.782 255.016C44.7483 255.081 44.7087 255.142 44.663 255.2C42.8185 257.524 40.5775 259.208 38.4096 260.837L38.3462 260.884C37.3643 261.622 36.3499 262.385 35.3791 263.205C34.3338 264.111 33.2649 265.63 33.259 266.957C33.2569 267.536 33.4613 268.025 33.8837 268.448C38.1637 270.204 45.0102 269.052 46.2279 268.551C46.6288 268.385 47.0262 268.237 47.4119 268.093L47.4912 268.064C48.3996 267.725 49.2605 267.404 49.9864 266.942C54.3477 263.927 54.6412 258.711 54.9249 253.667C54.9482 253.247 54.9723 252.819 54.9991 252.394ZM64.9335 256.262C65.0614 258.865 64.6161 260.798 63.6992 263.618C63.198 265.249 61.9438 266.725 60.7318 268.151L60.7261 268.157C58.0367 271.321 57.0768 272.936 59.2188 275.069C59.435 275.234 62.523 277.47 67.868 275.977C68.3124 275.759 68.7744 275.57 69.2444 275.411C69.7958 275.147 70.3096 274.811 70.7678 274.415C70.7716 274.412 70.7757 274.408 70.7797 274.405C70.7835 274.402 70.7876 274.398 70.7916 274.394C73.8856 271.869 75.8787 268.345 76.4044 264.468C76.8702 261.155 77.0675 258.392 76.987 256.388C76.3397 256.407 75.702 256.418 75.0775 256.425C74.4052 256.431 73.7309 256.434 73.0564 256.434C70.3531 256.434 67.6376 256.377 64.9335 256.262Z" fill="black"/>
<g clip-path="url(#clip1_845_2499)">
<path d="M67.8087 76.0625C67.9872 78.0657 68.8062 82.5916 71.8547 81.9133L72.182 82.4092C72.0332 85.517 70.4584 87.7086 67.9911 89.9795C65.4842 92.2505 62.2871 93.615 58.9135 93.8549C55.9385 94.0731 52.775 93.3611 50.5497 91.3659C48.3244 89.3707 47.1542 86.6059 48.6278 84.2358H48.842C49.5125 84.2556 50.1292 83.9046 50.6965 83.5476C51.4184 83.0914 52.9078 81.2211 53.3541 80.6837C53.9491 79.9121 54.1911 76.9867 54.4965 76.0625H67.8087Z" fill="white"/>
<path d="M29.7362 173.177C28.7643 173.145 27.8223 172.841 27.0131 172.302C26.2039 171.762 25.5632 171.009 25.1607 170.124C25.359 166.951 25.954 163.182 23.3757 160.604C22.979 159.017 24.169 157.827 25.5573 157.31L31.1265 158.032L29.7362 173.177Z" fill="white"/>
<path d="M31.1286 158.032C29.3655 158.02 27.6122 157.752 25.9243 157.238C26.0433 155.761 26.1723 154.244 26.8089 152.905L31.7137 153.452L31.1286 158.032Z" fill="white"/>
<path d="M77.1677 157.129C76.8543 158.647 76.7512 160.198 76.8583 161.743C76.8543 161.832 76.8662 161.921 76.898 162.004C76.9297 162.088 76.9773 162.165 77.0387 162.23C77.1637 162.306 77.3105 162.34 77.4552 162.324L90.942 162.286C91.1462 162.302 91.3506 162.264 91.537 162.179C91.9178 161.963 91.9475 161.435 91.9337 160.989L91.7909 157.334L77.1677 157.129Z" fill="white"/>
<path d="M31.8504 153.236C29.9206 152.869 28.1356 152.869 26.1523 152.472C27.5406 138.589 28.7306 125.301 31.7056 111.219C33.2923 104.079 34.6806 97.534 38.4489 91.1873C38.4489 91.1873 39.8769 89.1445 40.4323 88.5197L41.4358 86.8616C41.1701 86.0862 41.4914 85.1956 42.0725 84.6185C42.6536 84.0413 43.4609 83.7359 44.2542 83.5653C44.6231 83.486 45.0317 83.4146 45.2676 83.1211C45.4065 82.9168 45.4918 82.6788 45.5175 82.4329C45.8071 80.8184 46.2336 78.8629 47.7944 78.3631C49.0677 77.9545 50.4402 78.8331 51.1661 79.9596C51.892 81.0862 52.1577 82.4329 52.6694 83.6685C53.1811 84.9041 54.0578 86.1318 55.3648 86.4253L57.7091 87.1591C62.0407 85.9691 65.3608 82.6074 68.8713 79.8049C69.8035 79.0632 70.7833 78.3393 71.9197 77.9823C73.0562 77.6253 74.3869 77.6867 75.3291 78.4166C76.2711 79.1465 76.6301 80.6379 75.9082 81.5899C76.4496 81.2825 77.0625 81.1239 77.6853 81.1298C78.308 81.1358 78.9169 81.3043 79.4524 81.6217C79.9879 81.939 80.4302 82.3912 80.7356 82.9327C81.0411 83.4741 81.1977 84.0889 81.1898 84.7097L81.5864 88.5177C84.6566 93.1765 86.8383 98.3333 88.5043 103.708L89.135 105.614C92.5246 120.205 93.1334 135.255 93.3576 150.261L93.5559 150.584C94.7776 155.055 99.3393 166.36 100.331 171.12C100.363 171.526 100.295 171.935 100.133 172.31C98.1493 174.69 94.7776 174.095 92.1695 174.904L82.953 176.738C69.7618 179.105 56.5231 179.684 43.3081 177.454L40.8151 177.163L32.2868 175.53C31.5172 175.384 30.6723 175.187 30.2221 174.539C29.8492 174.007 29.8512 173.307 29.879 172.659C29.992 170.08 30.2895 167.522 30.587 164.961L31.9456 153.248L31.8504 153.236Z" fill="white"/>
<path d="M78.7859 162.536C76.874 163.153 74.6388 165.449 76.2552 167.568C77.1437 168.736 78.4865 169.365 79.7181 170.098C80.6661 170.662 80.9179 172.566 81.2849 173.573C82.2131 176.114 84.016 178.204 86.9731 178.006C89.9798 177.808 91.8502 175.247 92.4214 172.486C93.0402 169.491 91.9849 165.561 91.4872 162.599L78.7859 162.536Z" fill="white"/>
<path d="M61.8008 94.2973C61.8425 94.928 62.3661 95.4099 62.9868 95.4099C63.0146 95.4099 63.0404 95.4099 63.0642 95.404C68.3696 95.0568 73.564 93.3948 78.0879 90.6023C79.0222 90.0266 79.8054 89.4245 80.4361 88.7981C80.4678 88.925 80.521 89.0489 80.5969 89.1644C83.3418 93.3294 85.5572 98.2005 87.372 104.053C87.5306 104.565 88.0006 104.892 88.5084 104.892C88.6254 104.892 88.7444 104.874 88.8595 104.839C89.4881 104.644 89.8392 103.978 89.6449 103.349C87.7626 97.2782 85.454 92.2108 82.5842 87.8554C82.3605 87.5149 81.9921 87.3276 81.6136 87.3202C82.1092 86.4917 82.3645 85.6275 82.3759 84.7316C82.3859 83.9006 82.1756 83.0795 81.769 82.3556C81.3625 81.6317 80.7694 81.0248 80.0535 80.6023C79.3395 80.1799 78.5222 79.9538 77.6913 79.9458C77.6119 79.9458 77.5346 79.9458 77.4553 79.9498C77.3403 79.0176 76.8583 78.1053 76.053 77.4825C74.8809 76.5742 73.1991 76.3381 71.5588 76.8538C70.2082 77.2782 69.0796 78.1212 68.1257 78.8808C67.0794 79.7155 66.2034 80.5347 65.3562 81.327L65.3232 81.3579C63.317 83.2352 61.7324 84.718 58.9468 85.4833C58.3122 85.6578 57.9393 86.3123 58.1137 86.947C58.2884 87.5817 58.9448 87.9545 59.5775 87.78C62.9313 86.8597 64.8849 85.0311 66.9516 83.0954L66.9837 83.0652C67.7968 82.305 68.6384 81.5183 69.6092 80.7431C70.4303 80.0906 71.3109 79.4262 72.2728 79.1247C73.1574 78.8471 74.0479 78.9383 74.5973 79.3647C75.0674 79.7297 75.2478 80.4932 74.9563 80.878C74.6152 81.3282 74.6369 81.9569 75.0098 82.3814C75.3827 82.8058 76.0015 82.9109 76.4933 82.6333C76.8464 82.4329 77.247 82.3278 77.6516 82.3278H77.6714C78.084 82.3298 78.4906 82.4429 78.8456 82.6531C79.2006 82.8633 79.4942 83.1628 79.6965 83.5238C79.8988 83.8847 80.0038 84.2913 79.9979 84.7039C79.9821 85.995 78.919 87.2981 76.8405 88.5793C72.6457 91.1695 67.8282 92.7086 62.9095 93.0319C62.255 93.0755 61.7572 93.6407 61.8008 94.2973Z" fill="black"/>
<path fill-rule="evenodd" clip-rule="evenodd" d="M39.2822 178.069C39.2088 178.069 39.1334 178.062 39.0581 178.048L32.0688 176.709C31.2874 176.552 30.0001 176.292 29.2545 175.233C29.0395 174.927 28.9022 174.604 28.8162 174.276C27.9394 174.124 27.1012 173.791 26.3549 173.292C25.3612 172.629 24.5737 171.705 24.0799 170.618C23.9987 170.439 23.963 170.245 23.9749 170.051C23.9936 169.739 24.0177 169.42 24.0421 169.097L24.0463 169.043C24.2524 166.257 24.4647 163.375 22.5369 161.445C22.3841 161.292 22.277 161.102 22.2235 160.892C21.7551 159.018 22.7874 157.223 24.8077 156.33C24.8977 155.364 25.0338 154.343 25.356 153.351C25.0866 153.105 24.9354 152.74 24.9743 152.354C25.0606 151.494 25.1457 150.635 25.2303 149.78L25.2912 149.165C26.5744 136.244 27.7868 124.037 30.5476 110.971L30.6765 110.39C32.2135 103.462 33.6673 96.9193 37.4317 90.5766C37.4476 90.5508 37.4634 90.527 37.4793 90.5032L37.501 90.4722C37.7289 90.1482 38.9867 88.3585 39.5499 87.7266C39.7613 87.4883 40.0472 87.3552 40.3414 87.3311C40.3311 87.3039 40.3212 87.2764 40.3115 87.2486C39.9128 86.0883 40.2758 84.7258 41.2358 83.7738C41.9082 83.1074 42.8126 82.6592 44.0064 82.4013L44.0759 82.3854C44.1533 82.3696 44.2564 82.3478 44.3337 82.3259C44.3337 82.323 44.3347 82.318 44.3347 82.318C44.3347 82.318 44.3358 82.3131 44.3358 82.3101C44.3397 82.2783 44.3437 82.2486 44.3496 82.2188L44.3507 82.2135C44.6403 80.6242 45.1237 77.9717 47.4337 77.2288C48.8102 76.7885 50.8787 77.2585 52.1779 79.3252C52.3182 79.5483 52.4428 79.775 52.5557 80.0038C52.7904 79.4927 53.3645 79.2048 53.9291 79.349C54.5658 79.5097 54.9525 80.1582 54.7898 80.7949C54.6105 81.5072 54.3235 81.9835 53.5799 82.7115C53.6417 82.8812 53.7052 83.0474 53.7725 83.2105C54.0521 83.8829 54.665 85.0451 55.6289 85.2633C56.2694 85.408 56.6721 86.0447 56.5293 86.6853C56.3845 87.3259 55.7479 87.7286 55.1072 87.5857C53.6157 87.2506 52.3603 86.0209 51.5729 84.1248C51.3787 83.6568 51.2179 83.1867 51.0652 82.7305L51.0578 82.7087C50.7948 81.9353 50.5459 81.2036 50.1608 80.5925C49.7146 79.8825 48.8438 79.2776 48.1596 79.4957C47.2909 79.7754 46.9478 81.2411 46.6979 82.6056C46.6463 83.0281 46.4936 83.4346 46.2556 83.7877C46.2377 83.8134 46.2179 83.8392 46.1981 83.865C45.7117 84.47 45.0303 84.6158 44.5762 84.7129L44.5717 84.7139L44.5083 84.7278C43.7844 84.8844 43.2489 85.1304 42.9137 85.4616C42.6182 85.7551 42.4675 86.1915 42.5646 86.4751C42.6558 86.7408 42.9573 87.0264 43.2389 87.2684C45.7935 89.5056 48.9014 91.0031 52.2334 91.6019C52.88 91.719 53.3103 92.3378 53.1933 92.9844C53.0862 93.5595 52.5844 93.9641 52.0211 93.9641C51.9518 93.9641 51.8804 93.9581 51.809 93.9443C48.0526 93.2679 44.5479 91.5802 41.6761 89.0653C41.6334 89.0286 41.5905 88.9909 41.5472 88.9524C41.497 89.0801 41.4237 89.2011 41.327 89.3093C40.9184 89.7674 39.8612 91.2509 39.4547 91.8301C35.9006 97.8337 34.4905 104.182 32.9989 110.906L32.8721 111.475C30.1377 124.415 28.9318 136.572 27.655 149.444L27.6539 149.454C27.5864 150.128 27.519 150.804 27.4516 151.483C28.0445 151.566 28.6317 151.628 29.2405 151.689L29.2726 151.692C29.8078 151.747 30.3534 151.803 30.9117 151.878L31.8198 144.049C33.4519 130.078 35.1396 115.633 38.4234 101.695C38.5741 101.057 39.2148 100.658 39.8554 100.811C40.494 100.961 40.8907 101.602 40.7399 102.243C37.4869 116.051 35.8072 130.432 34.1826 144.34L31.7721 165.123C31.4829 167.616 31.1841 170.193 31.0711 172.724C31.0573 173.04 31.0316 173.631 31.2001 173.869C31.3984 174.15 32.1045 174.293 32.525 174.377L39.5023 175.711C40.147 175.834 40.5714 176.459 40.4464 177.104C40.3413 177.673 39.8435 178.069 39.2822 178.069ZM24.4945 160.051C24.4586 159.145 25.4752 158.632 25.8716 158.466C27.2402 158.859 28.6449 159.102 30.064 159.188L29.4008 164.906C29.1399 167.161 28.871 169.485 28.7362 171.814C28.3627 171.7 28.0062 171.531 27.6777 171.312C27.1323 170.947 26.6841 170.457 26.3727 169.882C26.3815 169.742 26.3919 169.602 26.4023 169.462C26.4084 169.381 26.4145 169.299 26.4203 169.218L26.4205 169.215C26.6347 166.312 26.8993 162.723 24.4945 160.051ZM30.6374 154.243L30.3386 156.82C29.2789 156.764 28.2266 156.608 27.1958 156.356C27.2801 155.509 27.4068 154.672 27.6791 153.914C28.1274 153.968 28.5665 154.013 28.9986 154.057L29.0901 154.067C29.6164 154.121 30.127 154.174 30.6374 154.243Z" fill="black"/>
<path fill-rule="evenodd" clip-rule="evenodd" d="M43.1097 178.625C48.7265 179.573 54.4623 180.047 60.3906 180.047C67.5731 180.047 75.0369 179.348 82.8951 177.954C83.9615 178.774 85.2162 179.208 86.5984 179.208C86.7471 179.208 86.8998 179.204 87.0525 179.192C89.1554 179.054 90.9835 177.911 92.2085 176.089C92.3123 176.086 92.4173 176.068 92.5225 176.038C93.2622 175.808 94.1112 175.701 95.0077 175.59C97.0683 175.334 99.4026 175.043 101.047 173.069C101.12 172.982 101.18 172.885 101.225 172.78C101.461 172.23 101.562 171.624 101.517 171.026C101.513 170.975 101.505 170.925 101.495 170.876C100.904 168.04 99.1652 163.178 97.4838 158.476L97.4829 158.474C96.3107 155.202 95.206 152.109 94.7021 150.269C94.6682 150.144 94.6157 150.029 94.5483 149.927C94.3527 135.587 93.8269 121.786 90.4519 107.238C90.3032 106.598 89.6646 106.199 89.0239 106.348C88.3834 106.497 87.9847 107.135 88.1335 107.776C91.8994 124.014 92.0624 139.419 92.235 155.728V155.733L92.239 156.034L77.2231 155.788C74.9919 138.355 74.2224 120.622 74.9343 103.064C74.9621 102.407 74.4504 101.852 73.794 101.826C73.1374 101.802 72.5821 102.31 72.5564 102.966C71.8245 121.001 72.6456 139.22 74.9959 157.115C75.0567 157.576 75.3753 157.946 75.7954 158.088C75.6278 159.307 75.584 160.541 75.6662 161.77C75.6662 161.992 75.7038 162.21 75.7811 162.419C75.8704 162.657 76.0034 162.871 76.1779 163.053C76.1944 163.071 76.2116 163.088 76.2292 163.104C75.5103 163.648 74.915 164.343 74.6527 165.18C74.4266 165.903 74.3572 167.03 75.3092 168.28C76.1898 169.438 77.4056 170.134 78.4786 170.747C78.6908 170.868 78.901 170.989 79.1112 171.114C79.4047 171.287 79.7255 172.456 79.866 172.968L79.8689 172.978C79.9661 173.335 80.0593 173.672 80.1684 173.974C80.4201 174.665 80.7187 175.293 81.06 175.856C67.5484 178.122 55.2466 178.259 43.5045 176.278C42.8559 176.167 42.2431 176.606 42.1339 177.254C42.0249 177.901 42.4611 178.516 43.1097 178.625ZM79.9082 163.505C79.7897 163.845 79.5186 164.127 79.149 164.246C78.0462 164.603 77.1101 165.295 76.9237 165.892C76.888 166.005 76.7947 166.304 77.2013 166.838C77.79 167.611 78.6977 168.13 79.6571 168.679L79.6586 168.68L79.8207 168.773C79.9905 168.87 80.1602 168.968 80.3271 169.067C81.4458 169.73 81.843 171.178 82.1621 172.342L82.1636 172.347C82.2469 172.655 82.3282 172.946 82.4036 173.157C83.0462 174.92 84.3433 176.98 86.8938 176.816C88.5698 176.705 90.5928 175.445 91.2572 172.242C91.7664 169.78 91.3059 167.129 90.8601 164.564L90.8352 164.42C90.7894 164.156 90.7439 163.893 90.6999 163.631C90.6911 163.578 90.6857 163.526 90.684 163.475L79.9082 163.505ZM92.7495 162.628C92.9 162.792 93.0065 163 93.0461 163.236C93.0977 163.539 93.1493 163.843 93.2029 164.148L93.2045 164.158C93.688 166.942 94.1879 169.82 93.5876 172.726C93.54 172.956 93.4854 173.182 93.4242 173.403C93.8546 173.334 94.2856 173.281 94.7102 173.228C96.4952 173.006 98.0481 172.811 99.0913 171.687C99.131 171.554 99.1489 171.413 99.1449 171.274C98.5686 168.585 96.8061 163.656 95.247 159.296L95.1845 159.121L95.182 159.114C94.9867 158.567 94.7932 158.026 94.6041 157.495C94.5561 157.718 94.4442 157.924 94.2798 158.087C94.0597 158.309 93.7562 158.434 93.4428 158.434H93.423L93.0233 158.428L93.1215 160.941C93.1316 161.25 93.1547 162.01 92.7495 162.628ZM90.6402 158.388L78.1863 158.184C78.0374 159.16 77.9807 160.149 78.0164 161.136L90.7454 161.1C90.7454 161.086 90.7454 161.071 90.7449 161.055C90.7446 161.047 90.7442 161.038 90.7435 161.029L90.6402 158.388Z" fill="black"/>
</g>
<path d="M70.8074 58.8711C69.322 58.762 68.4771 57.0166 68.5682 55.5331C68.6594 54.0496 69.3615 52.6652 69.5817 51.1936C70.0874 47.8914 67.8383 44.3868 64.6234 43.4725C63.7447 43.2226 62.8027 43.1412 62.0035 42.699C61.3371 42.3281 60.7816 41.7073 60.034 41.5764C58.6555 41.3226 57.521 42.7664 56.1268 42.9211C54.2763 43.1195 52.8464 40.9992 50.9841 41.0032C49.0601 41.0032 47.7294 43.2483 45.8095 43.3396C44.5224 43.4011 43.3719 42.465 42.0848 42.4015C40.4207 42.3222 39.0384 43.7164 38.2847 45.202C37.5311 46.6874 37.1582 48.3653 36.23 49.7497C35.3811 51.0151 33.608 51.9909 32.3704 51.1023C31.5157 50.4915 31.351 49.2935 31.4124 48.2463C31.5374 46.0984 32.2811 44.0318 33.5525 42.2963C33.9492 41.7688 34.3895 41.2491 34.5323 40.6105C34.7306 39.6704 34.2467 38.7363 34.0563 37.7922C33.6377 35.7097 34.9269 33.417 36.9242 32.6911C37.8682 32.35 38.9234 32.3241 39.8079 31.8502C40.6925 31.3761 41.3192 30.4777 41.9341 29.6566C45.1888 25.3091 50.4029 21.751 55.746 22.7149C59.0244 23.3099 61.8943 25.5173 65.9721 26.2849C68.8103 24.1766 73.1835 24.4999 75.6666 27.0247C78.8736 30.2694 78.7487 36.0211 82.4099 38.7501C82.993 39.1865 83.6713 39.5435 84.0699 40.1504C84.9169 41.4395 84.1532 43.1909 84.5162 44.6922C84.8336 45.9953 85.9403 46.9235 86.7633 47.9826C87.5864 49.0417 88.114 50.6462 87.2353 51.6597C86.8526 52.1 86.2833 52.3241 85.8332 52.693C84.7265 53.5974 84.5064 55.2078 84.6432 56.6299C84.7801 58.0519 85.2718 59.8588 84.9902 60.8901C83.8578 65.0809 81.2377 64.0119 79.9942 64.6585" fill="black"/>
<path d="M38.1834 49.9818C36.9934 51.7668 36.7951 53.9483 36.2001 56.13C36.2001 56.7567 33.7883 65.2216 39.3734 70.8068C41.3567 72.79 43.9351 73.5833 46.6126 74.1783C49.0143 74.5493 51.6383 74.9221 53.9509 73.98C53.818 76.0447 53.7981 77.5184 53.8933 79.5849L67.8342 78.145C67.6061 75.4318 68.1476 72.9904 69.3276 70.535C69.5934 69.9797 70.1706 69.9857 70.7398 69.8051C71.2435 69.6465 71.7435 69.464 72.2314 69.2577C73.225 68.8452 74.163 68.3116 75.0277 67.6711C76.7374 66.38 78.0683 64.5671 78.57 62.4649C79.0242 60.5588 78.7048 58.2899 76.5768 57.217C75.0853 56.4632 73.7465 56.731 71.4717 58.7302L70.8013 58.873C69.3157 58.764 68.471 57.0185 68.5621 55.535C68.6533 54.0516 69.3554 52.6671 69.5756 51.1955C70.0813 47.8933 67.8322 44.3887 64.6173 43.4744C63.7386 43.2245 62.7966 43.1431 61.9972 42.7009C61.3308 42.3301 60.7755 41.7092 60.0279 41.5783C58.6494 41.3245 57.5149 42.7683 56.1207 42.923C54.2702 43.1214 52.8402 41.0011 50.9778 41.0051C49.054 41.0051 47.7232 43.2502 45.8034 43.3416C44.5161 43.403 43.3658 42.4669 42.0787 42.4034C40.4146 42.3241 39.0323 43.7183 38.2786 45.2039C37.5249 46.6893 37.1521 48.3672 36.2239 49.7516" fill="white"/>
<path d="M79.9941 65.8483C79.5636 65.8483 79.1492 65.6144 78.9369 65.2077C78.6335 64.6246 78.8615 63.9067 79.4446 63.6033C79.9524 63.3394 80.4999 63.268 81.0294 63.2006C82.2471 63.044 83.209 62.9209 83.8417 60.5786C83.9687 60.1125 83.8 59.0634 83.6652 58.2224C83.5858 57.7306 83.5046 57.2228 83.4589 56.7448C83.2487 54.5652 83.8238 52.7981 85.0813 51.7726C85.3173 51.5783 85.5612 51.4255 85.7775 51.2927C86.0075 51.1478 86.2257 51.0131 86.3387 50.8801C86.7235 50.4359 86.3804 49.4283 85.8251 48.7143C85.6307 48.4644 85.4125 48.2145 85.1825 47.9507C84.4704 47.1396 83.6652 46.2193 83.3618 44.9738C83.1693 44.1765 83.219 43.3831 83.2645 42.681C83.3142 41.9015 83.3559 41.2292 83.0781 40.8048C82.9056 40.543 82.5545 40.301 82.1816 40.0451C82.019 39.9342 81.8565 39.8211 81.6997 39.704C79.4625 38.0361 78.5066 35.4955 77.5823 33.0381C76.8385 31.0587 76.1345 29.1904 74.8235 27.8616C72.7687 25.7732 69.0421 25.4895 66.6859 27.2407C66.4201 27.4392 66.083 27.5165 65.7557 27.4549C63.4848 27.0265 61.551 26.1737 59.8474 25.42C58.3618 24.7636 56.9596 24.1448 55.5375 23.8849C52.2214 23.2861 47.154 24.6743 42.8899 30.3685L42.755 30.5489C42.1322 31.3859 41.4262 32.332 40.373 32.8972C39.7046 33.2562 39.0005 33.407 38.3777 33.5379C38.0009 33.6191 37.6439 33.6945 37.3305 33.8076C35.8867 34.3312 34.9228 36.0488 35.2242 37.5561C35.2718 37.7881 35.3453 38.04 35.4246 38.3058C35.6467 39.0555 35.8986 39.9023 35.6983 40.8543C35.5119 41.6894 35.0478 42.2982 34.6372 42.8357L34.5063 43.0082C33.3758 44.5514 32.7154 46.3878 32.6023 48.3118C32.5488 49.22 32.7173 49.8826 33.0644 50.1304C33.1655 50.2039 33.3342 50.291 33.6534 50.2336C34.2029 50.1344 34.8574 49.6624 35.2441 49.0832C35.7221 48.3713 36.0434 47.5302 36.3845 46.6398C36.6344 45.9892 36.8923 45.3168 37.2255 44.6604C38.108 42.9211 39.8652 41.1004 42.1441 41.2094C42.9394 41.2491 43.6435 41.5207 44.2623 41.7587C44.8315 41.9789 45.3194 42.1693 45.7557 42.1476C46.3528 42.1197 46.9914 41.6695 47.6697 41.1915C48.59 40.543 49.6312 39.8092 50.9878 39.8092H50.9957C52.2234 39.8092 53.217 40.42 54.0937 40.9595C54.8196 41.4057 55.4463 41.7925 56.0037 41.733C56.3705 41.6913 56.8089 41.4455 57.2749 41.1837C58.0683 40.7374 59.056 40.182 60.2539 40.4021C61.0056 40.533 61.5827 40.9535 62.0468 41.2908C62.2393 41.4295 62.4197 41.5624 62.5863 41.6556C62.9771 41.8718 63.4888 41.9829 64.0322 42.1019C64.3297 42.1673 64.6391 42.2347 64.9525 42.324C68.7545 43.4049 71.3606 47.4628 70.7616 51.3701C70.6526 52.1019 70.4443 52.7881 70.244 53.4526C70.0159 54.2042 69.8017 54.9142 69.7601 55.6024C69.7045 56.5207 70.1885 57.6274 70.8985 57.6809C71.553 57.7285 72.0468 58.2997 71.9973 58.9542C71.9497 59.6087 71.3785 60.1026 70.724 60.053C68.4966 59.8905 67.2551 57.5402 67.384 55.4556C67.4435 54.4898 67.7093 53.6111 67.9651 52.7624C68.1496 52.1534 68.3221 51.5783 68.4074 51.0131C68.8239 48.2939 66.9437 45.3644 64.2999 44.6128C64.056 44.5433 63.7961 44.4859 63.5224 44.4264C62.8679 44.2836 62.1282 44.1209 61.4301 43.7362C61.1345 43.5715 60.8747 43.3831 60.6447 43.2165C60.3392 42.9944 60.0497 42.7842 59.8315 42.7464C59.4725 42.681 58.9945 42.9487 58.4411 43.2602C57.8184 43.6113 57.1143 44.0078 56.2595 44.1011C54.891 44.2479 53.8041 43.5794 52.8442 42.9884C52.1778 42.5779 51.5471 42.1911 50.9898 42.1911H50.9878C50.3829 42.1911 49.7601 42.6295 49.0382 43.1391C48.1556 43.76 47.156 44.466 45.8668 44.5255C44.9327 44.5711 44.1195 44.2558 43.4035 43.9802C42.9077 43.7877 42.4377 43.6072 42.0271 43.5875C40.8827 43.5318 39.8673 44.712 39.3476 45.7373C39.07 46.2847 38.8458 46.8698 38.6078 47.4926C38.2349 48.4665 37.8482 49.4739 37.2215 50.41C36.4678 51.5326 35.2639 52.3616 34.0759 52.5758C33.1933 52.7345 32.3643 52.558 31.678 52.0662C30.9442 51.5405 30.0934 50.4378 30.2262 48.1728C30.3651 45.7909 31.1842 43.514 32.5943 41.5902L32.7451 41.3919C33.0327 41.015 33.3044 40.6601 33.3738 40.3466C33.4472 39.9996 33.3064 39.5275 33.1438 38.9801C33.0525 38.6747 32.9593 38.3613 32.8918 38.0221C32.3623 35.3824 33.9887 32.4867 36.5194 31.5664C36.9875 31.3978 37.4416 31.3007 37.88 31.2074C38.3917 31.0984 38.8756 30.9952 39.2485 30.795C39.8335 30.4815 40.3472 29.7913 40.845 29.123L40.9838 28.9365C44.2048 24.6346 49.8295 20.432 55.96 21.5368C57.6617 21.8462 59.1889 22.5204 60.8073 23.2364C62.3384 23.9127 63.9172 24.6108 65.718 25.0116C69.0262 22.8993 73.7564 23.3772 76.5172 26.1837C78.1832 27.8695 79.0103 30.067 79.8097 32.1932C80.6505 34.4283 81.4438 36.5386 83.1238 37.7901C83.2566 37.8893 83.3935 37.9826 83.5303 38.0778C84.0499 38.4348 84.639 38.8394 85.0674 39.4918C85.7835 40.5806 85.708 41.7746 85.6406 42.8259C85.6029 43.4109 85.5692 43.9623 85.6763 44.4065C85.8409 45.0828 86.3903 45.7095 86.9734 46.3759C87.2174 46.6536 87.4673 46.9412 87.7053 47.2467C88.8655 48.7381 89.4486 50.9217 88.1376 52.433C87.7886 52.8338 87.3919 53.0816 87.0408 53.3017C86.8702 53.4088 86.7096 53.508 86.5906 53.6073C85.7219 54.3172 85.7695 55.8742 85.831 56.5088C85.8706 56.9134 85.942 57.3636 86.0174 57.8377C86.2059 59.0177 86.4022 60.2375 86.1404 61.1954C85.0932 65.0729 82.739 65.3723 81.3328 65.5528C81.0254 65.5925 80.6763 65.6361 80.5434 65.7055C80.3669 65.8048 80.1805 65.8483 79.9941 65.8483Z" fill="black"/>
<path d="M67.8522 78.0239C67.2412 78.0239 66.7197 77.5538 66.6681 76.9331C66.4163 73.9462 66.9973 72.5777 68.231 70.0092C68.6832 69.0712 69.5379 68.8649 70.0496 68.7419C70.1608 68.7142 70.2659 68.6904 70.3571 68.6607C70.8291 68.5119 71.2953 68.3413 71.7454 68.1509C72.6557 67.7741 73.5106 67.2882 74.296 66.7051C75.8787 65.5091 76.9814 63.8986 77.39 62.179C77.6002 61.3124 77.8858 59.2061 76.0275 58.268C75.2163 57.8574 74.421 57.6968 72.2413 59.6127C71.7475 60.047 70.9957 59.9975 70.5613 59.5036C70.127 59.0098 70.1767 58.258 70.6705 57.8236C73.8002 55.0728 75.611 55.3901 77.0985 56.1419C79.4071 57.3081 80.4047 59.8328 79.7026 62.7324C79.1671 64.9855 77.753 67.074 75.7221 68.6071C74.7739 69.3112 73.7467 69.8943 72.6638 70.3424C72.15 70.5587 71.6125 70.757 71.0711 70.9255C70.9064 70.9772 70.7479 71.0169 70.6089 71.0505C70.5218 71.0724 70.4087 71.0981 70.3352 71.1219C69.1949 73.5019 68.8418 74.3965 69.0402 76.7289C69.0957 77.3834 68.6097 77.9605 67.9552 78.0141C67.9195 78.022 67.8859 78.0239 67.8522 78.0239Z" fill="black"/>
<path d="M53.8774 79.7792C53.2448 79.7792 52.7192 79.2815 52.6895 78.6428C52.626 77.2466 52.6121 76.5445 52.6517 75.5865C50.2678 76.0466 47.8402 75.6242 45.9679 75.2969C42.9434 74.7634 40.5931 73.6864 38.7823 72.0026C35.4543 68.9026 33.9013 63.8769 34.5201 58.2105C34.7522 56.1101 35.6169 52.9844 36.8366 49.8488C37.0746 49.2359 37.7648 48.9325 38.3777 49.1705C38.9905 49.4085 39.294 50.0987 39.056 50.7115C37.7034 54.1903 37.0489 57.0007 36.8863 58.4703C36.3487 63.3791 37.63 67.6769 40.4047 70.2592C41.8882 71.6396 43.7862 72.4945 46.3785 72.9507C49.0282 73.4127 51.3924 73.7242 53.4847 72.8693C53.8636 72.7146 54.296 72.7662 54.6292 73.0042C54.9624 73.2422 55.1488 73.6369 55.123 74.0455C54.996 76.0407 54.9743 76.481 55.0695 78.5278C55.0992 79.1842 54.5914 79.7416 53.935 79.7713C53.9152 79.7792 53.8973 79.7792 53.8774 79.7792Z" fill="black"/>
<path d="M43.8219 55.7531C44.5887 55.7531 45.2102 54.9983 45.2102 54.0673C45.2102 53.1361 44.5887 52.3813 43.8219 52.3813C43.0551 52.3813 42.4336 53.1361 42.4336 54.0673C42.4336 54.9983 43.0551 55.7531 43.8219 55.7531Z" fill="black"/>
<path d="M50.565 56.2191C51.3318 56.2191 51.9535 55.4644 51.9535 54.5332C51.9535 53.6022 51.3318 52.8474 50.565 52.8474C49.7984 52.8474 49.1768 53.6022 49.1768 54.5332C49.1768 55.4644 49.7984 56.2191 50.565 56.2191Z" fill="black"/>
</g>
<defs>
<clipPath id="clip0_845_2499">
<rect width="119" height="285.6" fill="white" transform="translate(0.5 0.199951)"/>
</clipPath>
<clipPath id="clip1_845_2499">
<rect width="119" height="119" fill="white" transform="translate(0.5 76.0625)"/>
</clipPath>
</defs>
</svg>
