<svg width="40" height="78" viewBox="0 0 40 78" fill="none" xmlns="http://www.w3.org/2000/svg">
<path d="M1.34229 70.8659V24.901L17.8297 17.9064V2.41821H23.3255V14.4091L39.3133 21.9033V68.3678L1.34229 70.8659Z" fill="#F9D67B"/>
<path fill-rule="evenodd" clip-rule="evenodd" d="M17.5191 1.09574C16.9092 1.37453 16.4149 1.93781 16.2377 2.55631C16.0096 3.35204 16.0555 5.49896 16.3109 5.99334C16.6773 6.70226 17.4846 6.82729 18.0191 6.25783C18.3057 5.95242 18.346 5.73938 18.346 4.52766V3.14562H19.9996L21.6533 3.14562V8.71228V14.2789H19.9996H18.346V12.2712C18.346 10.4501 18.3178 10.238 18.0433 9.9893C17.5859 9.57496 16.8629 9.63619 16.4431 10.1249C16.1149 10.5067 16.091 10.6608 16.091 12.3982V14.2618L13.0468 14.3095L10.0025 14.3573L5.56773 16.7326C3.12859 18.0391 0.951029 19.3043 0.728838 19.5441C0.506497 19.7837 0.253188 20.2375 0.165845 20.5522C-0.0530384 21.3411 -0.0563462 70.8448 0.162387 71.6334C0.451476 72.6749 0.89225 72.9868 5.62471 75.4975L10.1894 77.9193H20.008H29.8267L34.2714 75.5729C38.9618 73.0966 39.5541 72.6757 39.8389 71.6172C39.9488 71.2088 39.989 68.8022 39.9607 64.3124C39.9201 57.8448 39.9084 57.6066 39.618 57.3212C39.1101 56.8221 38.5918 56.7836 38.0983 57.2082L37.6636 57.5819L37.6182 61.0415L37.573 64.5011L34.9123 65.5831C33.4489 66.1782 31.9555 66.7938 31.5937 66.9512C31.2317 67.1086 30.8766 67.2374 30.8044 67.2374C30.7303 67.2374 30.6732 58.0387 30.6732 46.0991C30.6732 34.4731 30.6983 24.9609 30.729 24.9609C30.7596 24.9609 32.028 25.4733 33.5477 26.0996C35.0673 26.726 36.597 27.3494 36.9472 27.4851L37.5835 27.732L37.6237 40.5018L37.6636 53.2717L38.0983 53.6457C38.5918 54.0706 39.1101 54.032 39.618 53.5327C39.9144 53.2413 39.9192 53.0117 39.9582 37.2044C39.9854 26.2393 39.9473 20.9839 39.838 20.578C39.7503 20.2513 39.4956 19.7857 39.2723 19.543C39.0449 19.296 36.9154 18.0576 34.4315 16.728L29.9967 14.3542L26.9589 14.308L23.9213 14.2618L23.8771 8.33841C23.8346 2.62642 23.822 2.40014 23.5231 1.9998C22.8066 1.03993 22.5807 0.967408 20.1772 0.926787C18.5608 0.899555 17.8494 0.94469 17.5191 1.09574ZM28.4182 46.0991V67.8391H19.9996H11.581L11.581 46.0991V24.3591H19.9996H28.4182L28.4182 46.0991ZM9.32603 46.0991C9.32603 57.7251 9.27522 67.2352 9.21328 67.2325C9.15135 67.2298 7.57842 66.6034 5.71806 65.8401L2.33559 64.4527L2.33559 46.1116L2.33559 27.7705L5.71806 26.3786C7.57842 25.6129 9.15135 24.9807 9.21328 24.9737C9.27522 24.9666 9.32603 34.4731 9.32603 46.0991ZM15.9543 26.3244C15.4764 26.5211 15.1986 26.9048 15.1986 27.3681C15.1986 28.1811 15.8817 28.5717 17.3034 28.5717H18.1956V29.2419C18.1956 29.8985 18.1842 29.9142 17.6319 30.0109C15.1743 30.4419 14.0268 33.4279 15.6206 35.245C16.6579 36.4279 18.8174 36.3302 19.8921 35.052C20.2749 34.5969 20.6009 33.472 20.6009 32.6072C20.6009 32.1497 20.6085 32.1452 21.2128 32.2419C22.4781 32.4444 22.8559 32.9875 22.8559 34.6043C22.8559 36.4565 23.6531 37.2199 24.7148 36.3841C25.0968 36.0835 25.1108 36.0179 25.1076 34.5411C25.105 33.3852 25.0371 32.8625 24.8302 32.4082C24.202 31.029 22.9947 30.1659 21.4377 29.9828L20.6009 29.8844V29.2439V28.6036L21.8182 28.5482C22.9311 28.4977 23.0662 28.4569 23.3967 28.0725C23.8531 27.5416 23.8526 27.1943 23.3953 26.6619L23.0329 26.2397L19.6746 26.2075C17.7206 26.1889 16.1651 26.2376 15.9543 26.3244ZM18.1956 32.9394C18.1956 33.7509 17.9365 34.0311 17.4611 33.7333C17.0438 33.472 17.0787 32.857 17.5312 32.5008C17.7535 32.3257 17.994 32.1825 18.0656 32.1825C18.1371 32.1825 18.1956 32.5231 18.1956 32.9394ZM14.7517 37.4523C13.7124 37.8952 13.7399 39.1462 14.7977 39.5487C15.0236 39.6346 15.8082 39.705 16.5411 39.705C18.2833 39.705 18.5097 39.9015 18.252 41.1907C18.165 41.6259 18.1119 41.6608 17.5379 41.6617C14.5468 41.6657 13.1849 44.8588 15.4402 46.5803C15.9172 46.9443 16.1287 47.0018 16.9922 47.0018C18.5279 47.0018 19.3541 46.3122 19.7665 44.6864C19.9139 44.1051 20.0062 43.9853 20.337 43.9462C20.7284 43.8998 20.7308 43.9057 20.6477 44.7106C20.5701 45.4636 20.5937 45.545 20.9786 45.848C21.7442 46.4507 22.3403 46.159 22.9415 44.8874C23.1545 44.4368 23.3842 44.068 23.4521 44.068C23.6318 44.068 23.7579 44.4717 23.7579 45.0473C23.7579 45.4119 23.8671 45.6366 24.154 45.8625C24.6975 46.2903 25.0544 46.2541 25.5915 45.7165C26.0143 45.2935 26.0439 45.1957 25.9806 44.4317C25.9293 43.8136 25.7894 43.4306 25.4268 42.9159L24.9416 42.227L25.2769 41.87C25.9845 41.1161 25.5329 40.0059 24.5188 40.0059C24.0566 40.0059 23.8483 40.1324 23.1566 40.8334C22.3461 41.6547 22.3332 41.6608 21.4329 41.6608H20.5258V40.5454C20.5258 39.5457 20.4783 39.3624 20.0682 38.7776C19.3255 37.7192 18.5794 37.4019 16.7003 37.3455C15.8277 37.3193 14.9509 37.3674 14.7517 37.4523ZM17.5943 43.983C17.5943 44.3222 17.2482 44.8203 17.0128 44.8203C16.6093 44.8203 16.4603 44.3494 16.7881 44.1096C17.0355 43.9286 17.5943 43.8409 17.5943 43.983ZM21.5589 47.7297C19.7422 48.4654 18.2436 49.414 17.1057 50.5481C16.1928 51.458 16.091 51.6194 16.091 52.1573C16.091 52.6833 16.192 52.8554 16.931 53.5891C17.8048 54.4566 20.1591 55.8032 20.8021 55.8032C21.584 55.8032 22.1727 54.8385 21.8077 54.1557C21.7161 53.9847 21.1197 53.5821 20.4822 53.2613C19.8448 52.9404 19.1606 52.5462 18.9619 52.3851L18.6008 52.0923L19.1122 51.7022C19.9658 51.0515 21.301 50.2917 22.3696 49.8488C23.7049 49.2953 23.9083 49.1078 23.9083 48.4311C23.9083 47.8549 23.6348 47.4887 23.0814 47.3241C22.9058 47.2719 22.2726 47.4405 21.5589 47.7297ZM15.5474 56.7848L15.1676 57.1649L15.2159 60.3705L15.2642 63.576L15.7191 64.312C16.0008 64.7676 16.4543 65.2213 16.91 65.5033L17.6459 65.9585H19.9996H22.3534L23.0892 65.5033C24.4574 64.6567 25.1975 62.8018 24.5133 61.934C23.8973 61.1527 22.5553 61.5473 22.5553 62.5098C22.5553 62.7377 22.3741 63.0788 22.1158 63.3372C21.6827 63.7707 21.6525 63.777 19.9996 63.777C18.3467 63.777 18.3165 63.7707 17.8834 63.3372L17.444 62.8975V59.9783C17.444 57.1215 17.4366 57.0522 17.0961 56.732C16.6302 56.2941 16.0169 56.315 15.5474 56.7848ZM22.2591 57.0498C22.055 57.1527 21.7905 57.4104 21.6715 57.6225C21.4795 57.9648 21.4849 58.0662 21.7182 58.523C21.8628 58.8061 22.0789 59.3583 22.1981 59.7499C22.4317 60.5164 22.7346 60.768 23.424 60.768C24.4448 60.768 24.7197 59.514 24.0073 58.1071C23.4559 57.0182 22.9407 56.7066 22.2591 57.0498ZM19.1203 58.0008C18.6125 58.3567 18.4949 58.8009 18.7463 59.4127C18.8651 59.7016 19.0304 60.2422 19.1137 60.6138C19.1968 60.9855 19.3732 61.4092 19.5053 61.5555C19.8419 61.9277 20.6737 61.8988 21.071 61.5011C21.3446 61.2273 21.3797 61.0585 21.3137 60.3352C21.1827 58.9023 20.4446 57.759 19.6501 57.759C19.5485 57.759 19.31 57.8678 19.1203 58.0008Z" fill="black"/>
<rect x="11.9548" y="17.6721" width="15.8466" height="3.75313" fill="#F9D67B"/>
<rect x="28.2185" y="74.3861" width="16.2636" height="3.75313" transform="rotate(-180 28.2185 74.3861)" fill="#F9D67B"/>
<path d="M2.57143 21.0083L9.66107 17.8808L9.66077 21.685L2.57153 24.5529L2.57143 21.0083Z" fill="#F9D67B"/>
<path d="M37.7438 71.2585L30.6541 74.3859L30.6544 70.5817L37.7437 67.7138L37.7438 71.2585Z" fill="#F9D67B"/>
<path d="M38.2982 21.0083L31.2086 17.8808L31.2089 21.685L38.2981 24.5529L38.2982 21.0083Z" fill="#F9D67B"/>
<path d="M2.01772 71.2585L9.10736 74.3859L9.10706 70.5817L2.01781 67.7138L2.01772 71.2585Z" fill="#F9D67B"/>
</svg>
