<svg width="225" height="76" viewBox="0 0 225 76" fill="none" xmlns="http://www.w3.org/2000/svg">
<mask id="path-1-inside-1_1322_6473" fill="white">
<path fill-rule="evenodd" clip-rule="evenodd" d="M209.312 75.7368C212.528 75.7368 215.258 73.3811 215.729 70.2001L224.929 8.10615C225.509 4.18744 222.473 0.667969 218.511 0.667969H177.838C177.816 0.667969 177.794 0.66808 177.772 0.668302H47.162H43.4549H15.6879C12.4722 0.668302 9.74176 3.02402 9.2705 6.20502L0.0713441 68.299C-0.509208 72.2177 2.52727 75.7372 6.48875 75.7372H43.4549H47.162H199.154V75.7368H209.312Z"/>
</mask>
<path fill-rule="evenodd" clip-rule="evenodd" d="M209.312 75.7368C212.528 75.7368 215.258 73.3811 215.729 70.2001L224.929 8.10615C225.509 4.18744 222.473 0.667969 218.511 0.667969H177.838C177.816 0.667969 177.794 0.66808 177.772 0.668302H47.162H43.4549H15.6879C12.4722 0.668302 9.74176 3.02402 9.2705 6.20502L0.0713441 68.299C-0.509208 72.2177 2.52727 75.7372 6.48875 75.7372H43.4549H47.162H199.154V75.7368H209.312Z" fill="#F9D67B"/>
<path d="M215.729 70.2001L218.48 70.6076L218.48 70.6076L215.729 70.2001ZM224.929 8.10615L227.679 8.51361L227.679 8.5136L224.929 8.10615ZM177.772 0.668302V3.44864H177.785L177.799 3.4485L177.772 0.668302ZM9.2705 6.20502L6.52018 5.79756L6.52018 5.79756L9.2705 6.20502ZM0.0713441 68.299L-2.67897 67.8915L-2.67897 67.8915L0.0713441 68.299ZM199.154 75.7372V78.5175H201.934V75.7372H199.154ZM199.154 75.7368V72.9565H196.374V75.7368H199.154ZM212.979 69.7927C212.71 71.6104 211.15 72.9565 209.312 72.9565V78.5172C213.906 78.5172 217.807 75.1519 218.48 70.6076L212.979 69.7927ZM222.178 7.69869L212.979 69.7927L218.48 70.6076L227.679 8.51361L222.178 7.69869ZM218.511 3.4483C220.775 3.4483 222.51 5.45943 222.178 7.69869L227.679 8.5136C228.508 2.91545 224.17 -2.11237 218.511 -2.11237V3.4483ZM177.838 3.4483H218.511V-2.11237H177.838V3.4483ZM177.799 3.4485C177.812 3.44837 177.825 3.4483 177.838 3.4483V-2.11237C177.807 -2.11237 177.775 -2.11221 177.744 -2.11189L177.799 3.4485ZM177.772 -2.11203H47.162V3.44864H177.772V-2.11203ZM47.162 -2.11203H43.4549V3.44864H47.162V-2.11203ZM43.4549 -2.11203H15.6879V3.44864H43.4549V-2.11203ZM15.6879 -2.11203C11.094 -2.11203 7.19341 1.25327 6.52018 5.79756L12.0208 6.61247C12.2901 4.79476 13.8503 3.44864 15.6879 3.44864V-2.11203ZM6.52018 5.79756L-2.67897 67.8915L2.82166 68.7065L12.0208 6.61247L6.52018 5.79756ZM-2.67897 67.8915C-3.50833 73.4897 0.829489 78.5175 6.48875 78.5175V72.9568C4.22505 72.9568 2.48992 70.9457 2.82166 68.7065L-2.67897 67.8915ZM6.48875 78.5175H43.4549V72.9568H6.48875V78.5175ZM43.4549 78.5175H47.162V72.9568H43.4549V78.5175ZM47.162 78.5175H199.154V72.9568H47.162V78.5175ZM201.934 75.7372V75.7368H196.374V75.7372H201.934ZM209.312 72.9565H199.154V78.5172H209.312V72.9565Z" fill="black" mask="url(#path-1-inside-1_1322_6473)"/>
<path d="M52.0771 59.304H55.2819V64.3884H52.0771V59.304ZM53.6915 47.8824C58.4626 47.8824 62.0288 50.3161 62.0288 54.027C62.0288 57.786 58.4626 60.1956 53.6915 60.1956C48.9205 60.1956 45.3542 57.786 45.3542 54.027C45.3542 50.3161 48.9205 47.8824 53.6915 47.8824ZM53.6915 50.4125C50.6313 50.4125 48.5108 51.7619 48.5108 54.027C48.5108 56.3402 50.6313 57.6655 53.6915 57.6655C56.7517 57.6655 58.8722 56.3402 58.8722 54.027C58.8722 51.7619 56.7517 50.4125 53.6915 50.4125ZM43.6193 63.8823H63.8119V66.4847H43.6193V63.8823ZM66.8703 48.7499H77.5931V63.7618H66.8703V48.7499ZM74.4606 51.2559H70.0269V61.2317H74.4606V51.2559ZM81.063 46.7258H84.2919V69.1112H81.063V46.7258ZM103.567 52.7981V55.2318L89.9285 55.9065L89.543 53.2077L103.567 52.7981ZM90.2899 47.9788H104.266V50.5089H90.2899V47.9788ZM87.9526 58.533H108.121V61.1113H87.9526V58.533ZM96.4104 60.5811H99.6152V69.0389H96.4104V60.5811ZM102.82 47.9788H105.904V49.9788C105.904 52.4366 105.904 55.1836 105.037 59.1836L101.928 58.8221C102.82 55.0631 102.82 52.3643 102.82 49.9788V47.9788ZM115.469 50.268H118.023V52.774C118.023 57.9306 115.926 62.9667 111.734 64.8703L109.926 62.3402C113.661 60.6775 115.469 56.5571 115.469 52.774V50.268ZM116.192 50.268H118.722V52.774C118.722 56.3884 120.505 60.2438 124.24 61.786L122.505 64.3161C118.264 62.4847 116.192 57.7378 116.192 52.774V50.268ZM110.818 48.8945H123.324V51.521H110.818V48.8945ZM125.396 46.7499H128.625V69.063H125.396V46.7499ZM139.759 47.1595H142.795V49.039H144.578V47.1595H147.566V55.5209H139.759V47.1595ZM142.795 51.4005V53.039H144.578V51.4005H142.795ZM148.916 47.1595H151.928V49.039H153.663V47.1595H156.699V55.5209H148.916V47.1595ZM151.928 51.4005V53.039H153.663V51.4005H151.928ZM146.602 54.8221H149.807V58.2438H146.602V54.8221ZM140.506 60.8221H143.663V62.3161H152.723V60.8221H155.904V68.8221H140.506V60.8221ZM143.663 64.7257V66.3161H152.723V64.7257H143.663ZM138.145 57.1354H158.313V59.6655H138.145V57.1354ZM175.685 46.7499H178.914V69.063H175.685V46.7499ZM169.106 49.0631H172.287C172.287 55.8824 169.974 61.4727 162.046 65.304L160.384 62.7498C166.793 59.6655 169.106 55.6173 169.106 49.6415V49.0631ZM161.564 49.0631H170.625V51.5932H161.564V49.0631Z" fill="black"/>
<path fill-rule="evenodd" clip-rule="evenodd" d="M37.4867 15.5731C37.9486 13.4414 39.8344 11.9204 42.0155 11.9204H80.4466H82.3002H156.443H162.93H200.743C203.698 11.9204 205.898 14.6481 205.272 17.5356L201.256 36.0711C200.794 38.2027 198.908 39.7237 196.727 39.7237H162.93H156.443H82.3002H80.4466H37.9995C35.045 39.7237 32.845 36.996 33.4707 34.1086L37.4867 15.5731Z" fill="black"/>
<path d="M121.345 33.5547H118.14V22.8319C118.14 22.4784 118.14 22.117 118.14 21.7475C118.156 21.3781 118.164 21.0086 118.164 20.6391C118.18 20.2536 118.196 19.9002 118.212 19.5789C118.052 19.7395 117.867 19.9323 117.658 20.1572C117.465 20.3821 117.249 20.5989 117.008 20.8078L115.224 22.3499L113.586 20.4704L118.598 16.35H121.345V33.5547Z" fill="white"/>
<rect x="0.738804" y="0.426549" width="20.5099" height="28.955" transform="matrix(0.965926 -0.258818 0.25882 0.965926 20.3034 14.8356)" fill="white" stroke="black" stroke-width="1.20646"/>
<path d="M31.189 12.9849L38.3708 39.7879" stroke="black" stroke-width="1.20646"/>
<path d="M35.8511 11.7358L43.033 38.5389" stroke="black" stroke-width="1.20646"/>
<path d="M26.5273 14.2339L33.7092 41.0369" stroke="black" stroke-width="1.20646"/>
</svg>
