<svg width="513" height="255" viewBox="0 0 513 255" fill="none" xmlns="http://www.w3.org/2000/svg">
<rect x="2.5" y="3.5" width="508" height="249" fill="white" stroke="black" stroke-width="5"/>
<rect x="11" y="12" width="491" height="232" fill="white" stroke="black" stroke-width="2"/>
<path d="M33.6213 105.151C47.1713 101.763 63.2938 92.6927 72.1487 86.2172C72.3592 86.0633 72.5694 85.9093 72.7795 85.7554C75.4225 83.8199 78.0446 81.8996 80.8527 80.2825L87.2349 76.6072C89.1476 75.6708 90.0934 74.9002 90.8123 74.2702C90.8739 74.2162 90.9332 74.1639 90.9908 74.1131C91.5945 73.5805 92.009 73.2147 92.8354 72.9101C93.7706 72.5654 95.244 72.2995 98.0467 72.0988C100.84 71.8987 104.909 71.7654 111.008 71.6655C123.097 71.4673 130.372 69.6301 134.556 67.3476C136.944 66.0447 138.935 63.9116 140.127 62.6344C140.146 62.6146 140.164 62.595 140.182 62.5757C140.136 62.7047 140.086 62.8435 140.031 62.9928C138.355 67.5414 134.771 70.0883 129.414 71.7506C124.42 73.3005 117.975 74.054 110.261 74.9559C109.662 75.0259 109.056 75.0968 108.442 75.169C100.692 76.0807 93.0877 79.54 87.0981 83.1509C83.4922 85.3248 79.0731 88.1995 76.5507 90.9219C75.306 92.2653 74.4152 93.6837 74.4652 95.0358C74.5184 96.4759 75.6053 97.5831 77.656 98.3415C82.7033 100.208 90.2896 101.818 96.9218 102.571C100.239 102.948 103.338 103.114 105.775 102.985C106.993 102.921 108.063 102.783 108.92 102.554C109.758 102.329 110.476 101.996 110.89 101.478C111.598 100.593 113.076 99.6855 115.116 98.8044C117.134 97.9328 119.623 97.1189 122.27 96.387C127.561 94.9235 133.433 93.8009 137.305 93.2015C137.43 93.182 137.555 93.1845 137.684 93.2087C138.118 93.2896 138.394 93.4103 138.546 93.5186C138.617 93.5691 138.649 93.6062 138.662 93.6269C138.647 93.6486 138.61 93.6894 138.523 93.7427C138.356 93.845 138.067 93.9502 137.63 94.0068C133.927 94.4861 129.932 95.3855 126.305 96.7488C122.684 98.1097 119.394 99.9465 117.137 102.321C112.557 107.143 105.27 108.041 96.9159 107.355C92.7546 107.013 88.3689 106.283 83.9808 105.478C82.822 105.266 81.6623 105.048 80.5068 104.832C77.2954 104.229 74.1159 103.632 71.0749 103.171C67.6796 102.657 63.0693 103.185 57.8765 104.35C52.6705 105.517 46.8275 107.337 40.9439 109.445C29.5498 113.527 17.9682 118.703 10.5 122.362V111.045C12.3289 110.545 18.8543 108.842 33.6213 105.151ZM138.671 93.6458C138.671 93.6456 138.67 93.6443 138.67 93.6417C138.671 93.6445 138.671 93.6459 138.671 93.6458Z" fill="black" stroke="black"/>
<path d="M131.725 41.3297C127.422 48.4912 107.755 61.3956 96.9453 66.8627C96.0131 67.3342 95.1319 67.8853 94.3187 68.5411C92.6713 69.8696 90.7362 70.8011 88.659 71.2063C77.8401 73.3166 67.0689 74.3307 93.2485 64.6998C110.805 58.2412 120.167 51.2064 125.039 45.6816C129.127 41.0449 134.909 36.0309 131.725 41.3297Z" fill="black" stroke="black"/>
<path d="M149.412 96.3795C148.563 99.8139 145.091 101.91 141.656 101.06C138.222 100.211 136.126 96.7387 136.975 93.3044C137.825 89.8701 141.297 87.7744 144.731 88.6236C148.166 89.4728 150.261 92.9452 149.412 96.3795Z" fill="white" stroke="black" stroke-width="1.83019"/>
<path d="M140.719 81.9755C144.154 82.8247 146.249 86.2972 145.4 89.7315C144.551 93.1658 141.079 95.2615 137.644 94.4123C134.21 93.5632 132.114 90.0907 132.963 86.6564C133.813 83.2221 137.285 81.1264 140.719 81.9755Z" fill="white" stroke="black" stroke-width="1.83019"/>
<path d="M152.045 85.7189C151.196 89.1532 147.724 91.2489 144.289 90.3997C140.855 89.5505 138.759 86.0781 139.609 82.6438C140.458 79.2094 143.93 77.1138 147.365 77.9629C150.799 78.8121 152.895 82.2846 152.045 85.7189Z" fill="white" stroke="black" stroke-width="1.83019"/>
<path d="M151.377 84.6118C154.811 85.4609 156.907 88.9334 156.057 92.3677C155.208 95.802 151.736 97.8977 148.301 97.0486C144.867 96.1994 142.771 92.7269 143.621 89.2926C144.47 85.8583 147.942 83.7626 151.377 84.6118Z" fill="white" stroke="black" stroke-width="1.83019"/>
<path d="M140.811 88.5971C141.317 86.5528 143.383 85.3054 145.428 85.8109C147.472 86.3163 148.719 88.3833 148.214 90.4275C147.708 92.4717 145.642 93.7192 143.597 93.2137C141.553 92.7082 140.306 90.6413 140.811 88.5971Z" fill="#F9D67B" stroke="black" stroke-width="1.52516"/>
<path d="M73.907 59.7515C74.3022 55.2202 78.2959 51.8671 82.8273 52.2623C87.3586 52.6575 90.7117 56.6512 90.3165 61.1825C89.9214 65.7139 85.9276 69.067 81.3963 68.6718C76.8649 68.2766 73.5118 64.2829 73.907 59.7515Z" fill="white" stroke="black" stroke-width="2.35311"/>
<path d="M87.8155 76.3186C83.2841 75.9234 79.9311 71.9297 80.3263 67.3983C80.7214 62.867 84.7152 59.5139 89.2465 59.9091C93.7779 60.3042 97.1309 64.298 96.7358 68.8293C96.3406 73.3607 92.3469 76.7137 87.8155 76.3186Z" fill="white" stroke="black" stroke-width="2.35311"/>
<path d="M72.6844 73.817C73.0795 69.2856 77.0733 65.9326 81.6046 66.3277C86.136 66.7229 89.489 70.7166 89.0939 75.248C88.6987 79.7793 84.705 83.1324 80.1736 82.7372C75.6422 82.3421 72.2892 78.3483 72.6844 73.817Z" fill="white" stroke="black" stroke-width="2.35311"/>
<path d="M73.7535 75.0901C69.2221 74.6949 65.8691 70.7012 66.2642 66.1698C66.6594 61.6384 70.6531 58.2854 75.1845 58.6806C79.7159 59.0757 83.0689 63.0695 82.6737 67.6008C82.2786 72.1322 78.2848 75.4852 73.7535 75.0901Z" fill="white" stroke="black" stroke-width="2.35311"/>
<path d="M86.3817 67.9249C86.1465 70.6222 83.7692 72.618 81.072 72.3828C78.3748 72.1476 76.3789 69.7704 76.6141 67.0732C76.8493 64.3759 79.2266 62.3801 81.9238 62.6153C84.621 62.8505 86.6169 65.2277 86.3817 67.9249Z" fill="#F9D67B" stroke="black" stroke-width="1.96093"/>
<circle cx="145.262" cy="36.5498" r="10.2069" transform="rotate(-165 145.262 36.5498)" fill="white" stroke="black" stroke-width="2.91624"/>
<circle cx="151.449" cy="47.266" r="10.2068" transform="rotate(105 151.449 47.266)" fill="white" stroke="black" stroke-width="2.91624"/>
<circle cx="140.738" cy="53.4526" r="10.2069" transform="rotate(-165 140.738 53.4526)" fill="white" stroke="black" stroke-width="2.91624"/>
<circle cx="134.551" cy="42.7362" r="10.2068" transform="rotate(105 134.551 42.7362)" fill="white" stroke="black" stroke-width="2.91624"/>
<circle cx="142.997" cy="44.9999" r="6.07551" transform="rotate(15 142.997 44.9999)" fill="#F9D67B" stroke="black" stroke-width="2.4302"/>
<path d="M450.497 97.4096L450.488 97.4078L450.479 97.4064C444.692 96.4979 435.684 95.335 427.549 94.8143C416.057 94.0787 403.613 95.02 392.251 96.7514C388.013 97.3972 383.543 98.4317 379.323 100.033C374.785 101.754 372.091 101.776 370.565 101.101C369.102 100.454 368.577 99.0915 368.581 97.5619C368.582 97.0967 368.831 96.7676 369.203 96.595C369.589 96.4162 370.105 96.4116 370.571 96.6572C371.429 97.1095 372.691 97.1788 373.858 97.0885C375.047 96.9966 376.256 96.7291 377.075 96.4102C383.803 93.7889 401.403 90.6373 417.474 91.4993C417.797 91.5166 418.112 91.5332 418.419 91.5489C419.675 91.6133 420.663 91.5867 421.406 91.469C422.127 91.3549 422.722 91.1403 423.068 90.7345C423.461 90.2739 423.423 89.7155 423.213 89.2195C423.009 88.7386 422.613 88.2275 422.117 87.7047C421.117 86.6511 419.563 85.4012 417.794 84.0492C417.088 83.5094 416.349 82.9539 415.591 82.3849C414.433 81.5148 413.233 80.6134 412.047 79.6893C404.932 74.144 396.026 68.0283 389.14 66.02C382.098 63.9661 376.959 61.1244 373.698 57.8462C370.448 54.5781 369.066 50.882 369.497 47.056C369.618 45.9856 369.698 45.0604 369.749 44.2614C369.76 44.0921 369.871 43.8332 370.131 43.5194C370.383 43.217 370.732 42.9138 371.12 42.6599C371.509 42.4055 371.916 42.2145 372.275 42.1199C372.648 42.0215 372.892 42.0465 373.021 42.1124C373.265 42.2365 373.427 42.4821 373.449 42.7663C373.681 45.824 374.489 50.1407 376.247 53.8063C378.001 57.4635 380.764 60.5886 384.952 60.9976C386.55 61.1538 388.6 61.77 390.942 62.7262C393.277 63.6794 395.874 64.9578 398.558 66.4157C403.927 69.3313 409.623 72.95 414.244 76.0805C417.944 78.5869 421.878 80.7444 426.061 82.3552C429.497 83.6783 433.909 85.3899 438.127 87.0622C440.751 88.1027 442.647 88.6985 443.891 88.8451C444.501 88.9169 445.051 88.8944 445.459 88.674C445.677 88.5561 445.851 88.3826 445.959 88.1543C446.064 87.9323 446.091 87.6917 446.074 87.4573C446.04 87.0028 445.836 86.4794 445.538 85.9185C445.235 85.3464 444.808 84.6859 444.279 83.9455C443.22 82.4645 441.721 80.621 439.907 78.4578C433.394 70.6911 425.202 61.6437 419.185 57.489C409.948 51.1099 411.162 40.0137 412.293 34.0147C412.499 32.9223 413.795 32.3609 414.753 32.9597C415.369 33.3446 415.641 34.1011 415.411 34.7901L413.702 39.9168C412.847 42.4808 413.114 45.3199 414.652 47.5827C415.802 49.2759 417.302 51.3129 418.851 52.9465C419.625 53.7631 420.424 54.4914 421.208 55.0265C421.985 55.5564 422.795 55.9289 423.583 55.9644C424.409 56.0017 425.151 55.6655 425.732 54.9129C426.294 54.1867 426.7 53.0845 426.956 51.5733C427.468 48.5456 427.408 43.6601 426.506 36.2184C426.497 36.1398 426.522 36.0552 426.576 35.9903C426.628 35.927 426.691 35.9004 426.748 35.9004C426.876 35.9004 426.972 35.9912 426.986 36.1041C427.348 39.1481 428.032 46.8157 428.402 57.917C428.488 60.5236 429.62 63.2629 431.41 66.0025C433.204 68.747 435.684 71.5293 438.526 74.2301C444.211 79.632 451.392 84.7535 457.568 88.6437C462.142 91.525 466.399 94.8979 470.282 98.6627C479.732 107.823 487.197 112.118 492.747 113.683C497.51 115.027 500.915 114.368 502.901 112.981V120.971C501.977 121.077 500.236 121.097 497.628 120.828C494.589 120.514 490.406 119.811 485.027 118.416C479.257 116.92 475.936 113.573 472.236 109.841C471.71 109.311 471.177 108.773 470.627 108.232C466.212 103.879 460.877 99.435 450.497 97.4096Z" fill="black" stroke="black"/>
<circle cx="368.378" cy="35.2064" r="10.2069" transform="rotate(-145.315 368.378 35.2064)" fill="white" stroke="black" stroke-width="2.91624"/>
<circle cx="370.594" cy="47.3798" r="10.2068" transform="rotate(124.685 370.594 47.3798)" fill="white" stroke="black" stroke-width="2.91624"/>
<circle cx="358.425" cy="49.5975" r="10.2069" transform="rotate(-145.315 358.425 49.5975)" fill="white" stroke="black" stroke-width="2.91624"/>
<circle cx="356.209" cy="37.4233" r="10.2068" transform="rotate(124.685 356.209 37.4233)" fill="white" stroke="black" stroke-width="2.91624"/>
<circle cx="363.399" cy="42.3997" r="6.07551" transform="rotate(34.6846 363.399 42.3997)" fill="#F9D67B" stroke="black" stroke-width="2.4302"/>
<path d="M384.034 94.3104C386.639 98.0392 385.728 103.174 381.999 105.778C378.27 108.383 373.136 107.472 370.531 103.743C367.926 100.014 368.837 94.8798 372.566 92.275C376.295 89.6703 381.43 90.5815 384.034 94.3104Z" fill="white" stroke="black" stroke-width="2.35311"/>
<path d="M362.736 90.5301C366.465 87.9253 371.599 88.8365 374.204 92.5654C376.809 96.2943 375.897 101.429 372.168 104.033C368.44 106.638 363.305 105.727 360.7 101.998C358.096 98.2693 359.007 93.1349 362.736 90.5301Z" fill="white" stroke="black" stroke-width="2.35311"/>
<path d="M375.946 82.7386C378.551 86.4675 377.64 91.6019 373.911 94.2067C370.182 96.8115 365.047 95.9002 362.443 92.1714C359.838 88.4425 360.749 83.3081 364.478 80.7033C368.207 78.0985 373.341 79.0097 375.946 82.7386Z" fill="white" stroke="black" stroke-width="2.35311"/>
<path d="M374.309 82.448C378.038 79.8433 383.172 80.7545 385.777 84.4834C388.382 88.2122 387.471 93.3467 383.742 95.9515C380.013 98.5563 374.878 97.645 372.274 93.9161C369.669 90.1873 370.58 85.0528 374.309 82.448Z" fill="white" stroke="black" stroke-width="2.35311"/>
<path d="M369.222 96.0469C367.672 93.8274 368.214 90.7712 370.434 89.2207C372.653 87.6702 375.71 88.2126 377.26 90.4322C378.81 92.6517 378.268 95.708 376.048 97.2584C373.829 98.8089 370.773 98.2665 369.222 96.0469Z" fill="#F9D67B" stroke="black" stroke-width="1.96093"/>
<path d="M409.555 34.4723C407.988 31.2066 409.365 27.2888 412.631 25.7218C415.897 24.1548 419.814 25.5319 421.381 28.7977C422.948 32.0635 421.571 35.9813 418.305 37.5483C415.04 39.1153 411.122 37.7381 409.555 34.4723Z" fill="white" stroke="black" stroke-width="1.87392"/>
<path d="M425.806 40.1854C422.541 41.7524 418.623 40.3752 417.056 37.1094C415.489 33.8436 416.866 29.9259 420.132 28.3589C423.398 26.7919 427.315 28.169 428.882 31.4348C430.449 34.7006 429.072 38.6184 425.806 40.1854Z" fill="white" stroke="black" stroke-width="1.87392"/>
<path d="M414.422 44.6081C412.855 41.3423 414.232 37.4245 417.498 35.8575C420.764 34.2905 424.682 35.6677 426.249 38.9335C427.816 42.1993 426.438 46.117 423.173 47.684C419.907 49.251 415.989 47.8739 414.422 44.6081Z" fill="white" stroke="black" stroke-width="1.87392"/>
<path d="M415.671 45.0472C412.405 46.6142 408.487 45.237 406.92 41.9712C405.353 38.7055 406.73 34.7877 409.996 33.2207C413.262 31.6537 417.18 33.0308 418.747 36.2966C420.314 39.5624 418.936 43.4802 415.671 45.0472Z" fill="white" stroke="black" stroke-width="1.87392"/>
<path d="M421.419 35.0151C422.352 36.959 421.532 39.291 419.588 40.2237C417.644 41.1565 415.312 40.3367 414.38 38.3928C413.447 36.4489 414.267 34.1169 416.21 33.1841C418.154 32.2514 420.486 33.0711 421.419 35.0151Z" fill="#F9D67B" stroke="black" stroke-width="1.5616"/>
<rect x="235" y="7" width="44" height="40" fill="white"/>
<circle cx="261.287" cy="24.2847" r="7.07134" transform="rotate(-45 261.287 24.2847)" fill="white" stroke="black" stroke-width="2.02038"/>
<circle cx="252.714" cy="24.2844" r="7.07134" transform="rotate(-135 252.714 24.2844)" fill="white" stroke="black" stroke-width="2.02038"/>
<circle cx="252.713" cy="15.7158" r="7.07134" transform="rotate(-45 252.713 15.7158)" fill="white" stroke="black" stroke-width="2.02038"/>
<circle cx="261.286" cy="15.7155" r="7.07134" transform="rotate(-135 261.286 15.7155)" fill="white" stroke="black" stroke-width="2.02038"/>
<circle cx="257.002" cy="19.9985" r="4.20913" transform="rotate(135 257.002 19.9985)" fill="white" stroke="black" stroke-width="1.68365"/>
<rect x="21" y="141" width="471" height="93" fill="white" stroke="black" stroke-width="2"/>
</svg>
