<svg width="118" height="230" viewBox="0 0 118 230" fill="none" xmlns="http://www.w3.org/2000/svg">
<path d="M31.2545 207.623L1.58541 190.541L6.54739 190.187L32.6316 205.558L31.2545 207.623Z" fill="#F9D67B" stroke="black" stroke-width="0.951613"/>
<path d="M86.7455 207.623L116.415 190.541L111.453 190.187L85.3684 205.558L86.7455 207.623Z" fill="#F9D67B" stroke="black" stroke-width="0.951613"/>
<rect x="31.4033" y="208.258" width="55.1936" height="20.9355" fill="black"/>
<path d="M0 190.177L31.4032 208.258V229.193L0 211.113V190.177Z" fill="black"/>
<path d="M118 190.177L86.5968 208.258V229.193L118 211.113V190.177Z" fill="black"/>
<rect x="34.2583" y="32.2099" width="49.4839" height="172.242" fill="#F9D67B" stroke="black" stroke-width="1.90323"/>
<rect x="42.3469" y="49.8147" width="34.2581" height="129.419" rx="1.42742" fill="white" stroke="black" stroke-width="0.951613"/>
<rect x="46.1535" y="53.6213" width="26.6452" height="122.758" rx="1.06735" fill="white" stroke="black" stroke-width="0.951613"/>
<path d="M61.5008 141.884C61.945 142.582 62.6429 143.777 63.0078 144.54L61.5801 145.187C61.1042 144.142 60.7076 143.345 60.1207 142.482L61.5008 141.884ZM63.6265 140.972C64.1024 141.635 64.8162 142.814 65.1811 143.561L63.801 144.258C63.2933 143.212 62.8492 142.449 62.2622 141.619L63.6265 140.972ZM57.408 140.54C57.3128 141.254 57.2335 142.1 57.2018 142.764C57.1383 144.54 57.0114 148.258 57.0114 150.316C57.0114 151.993 57.9632 152.54 59.2006 152.54C61.818 152.54 63.4837 150.964 64.6259 149.154L66.0694 150.997C65.0383 152.574 62.8016 154.798 59.1847 154.798C56.5831 154.798 54.9016 153.603 54.9016 150.764C54.9016 148.54 55.0602 144.175 55.0602 142.764C55.0602 141.967 54.9968 141.171 54.854 140.523L57.408 140.54Z" fill="black"/>
<path d="M63.7581 119.73C63.2459 120.091 62.7177 120.501 62.3495 120.8C61.3091 121.618 59.1961 123.223 58.1236 124.136C57.2753 124.844 57.2913 125.033 58.1557 125.773C59.3562 126.764 62.3975 129.109 64.0303 130.667L62.1734 132.367C61.7252 131.863 61.245 131.375 60.7648 130.903C59.8044 129.912 57.4513 127.929 55.9787 126.717C54.394 125.379 54.522 124.53 56.1227 123.223C57.3713 122.216 59.5803 120.469 60.6528 119.43C61.117 118.99 61.6292 118.47 61.8853 118.093L63.7581 119.73Z" fill="black"/>
<path d="M55.3746 96.9785C55.7985 97.0098 56.3482 97.0411 56.6779 97.0411C57.5887 97.0411 59.2532 96.9785 59.9756 96.9159C60.3682 96.8846 60.7765 96.7907 61.0591 96.6812L62.2997 97.667C62.0955 97.9018 61.9071 98.1052 61.7815 98.3086C61.2476 99.2006 60.3996 101.219 59.6929 102.847C59.0648 104.287 58.3111 106.149 57.6672 107.135C57.0391 108.089 56.301 108.512 55.2175 108.512C53.8514 108.512 52.8149 107.573 52.8149 105.977C52.8149 103.473 55.2175 101.548 58.578 101.548C62.2369 101.548 65.4403 103.488 67.0891 104.615L66.1784 106.79C64.2469 105.085 61.4831 103.301 58.2482 103.301C55.9556 103.301 54.6365 104.537 54.6365 105.679C54.6365 106.196 54.9349 106.462 55.3117 106.462C55.6258 106.462 55.83 106.321 56.1283 105.93C56.6465 105.163 57.2118 103.723 57.7771 102.487C58.3268 101.251 58.9706 99.717 59.4417 98.7468C58.8136 98.7625 57.4474 98.8094 56.7407 98.8563C56.411 98.872 55.8614 98.9346 55.4531 98.9815L55.3746 96.9785ZM65.7073 100.672C65.4874 105.116 64.608 107.995 60.855 109.936L59.1747 108.574C63.0534 106.916 63.5245 103.989 63.6658 102.158C63.6972 101.548 63.713 100.922 63.6501 100.437L65.7073 100.672Z" fill="black"/>
<path d="M58.5439 74.2505C58.4796 74.5644 58.4152 75.2748 58.3991 75.6878C58.3186 76.993 58.2704 78.7773 58.2704 80.3137C58.2704 82.1145 58.3669 84.9727 58.3669 85.9309C58.3669 87.963 57.6588 88.5247 56.5967 88.5247C55.0357 88.5247 52.8149 87.1369 52.8149 85.3857C52.8149 83.7831 54.8265 82.098 57.0634 81.2885C58.4957 80.7598 60.121 80.4954 61.3441 80.4954C63.8223 80.4954 65.7856 81.8171 65.7856 84.097C65.7856 86.063 64.7879 87.5334 62.2292 88.1777C61.4889 88.343 60.7647 88.3925 60.1049 88.4586L59.3807 86.3109C60.0888 86.3109 60.7969 86.3109 61.3441 86.1952C62.6476 85.9639 63.6936 85.2866 63.6936 84.097C63.6936 82.9571 62.728 82.3128 61.328 82.3128C59.9601 82.3128 58.5439 82.6101 57.2887 83.1223C55.8404 83.684 54.8104 84.5762 54.8104 85.2866C54.8104 85.8152 55.5668 86.2613 55.9852 86.2613C56.2749 86.2613 56.4841 86.1291 56.4841 85.5509C56.4841 84.6918 56.4036 82.3954 56.4036 80.3963C56.4036 78.5129 56.4197 76.4643 56.4197 75.7043C56.4197 75.3739 56.3714 74.5479 56.3231 74.2505H58.5439ZM63.1303 76.0513C64.3534 76.6626 66.2201 77.7364 67.0891 78.3642L66.1075 80.0494C65.335 79.3885 63.243 78.1495 62.2452 77.6538L63.1303 76.0513ZM53.2494 76.9599C54.1989 77.0756 54.8909 77.0756 55.4702 77.0756C57.1439 77.0756 59.6543 76.7617 61.3119 76.2661L61.3601 78.3147C59.5417 78.7442 56.9508 79.0416 55.5346 79.0416C54.4725 79.0416 53.8449 79.0251 53.2977 78.959L53.2494 76.9599Z" fill="black"/>
<path d="M7.61275 189.158V25.8155L32.3547 32.001V203.738L7.61275 189.158Z" fill="#F9D67B" stroke="black" stroke-width="1.90323"/>
<path d="M110.387 189.158V25.8155L85.6453 32.001V203.738L110.387 189.158Z" fill="#F9D67B" stroke="black" stroke-width="1.90323"/>
<rect x="33.3066" y="23.645" width="51.3871" height="7.6129" fill="black"/>
<path d="M4.7583 13.1772L33.3067 23.645V31.2579L4.7583 24.5966V13.1772Z" fill="black"/>
<path d="M33.4543 22.6859L5.70991 12.513V8.68055L32.4761 1.75825H85.5243L112.291 8.68055V12.513L84.5249 22.6937L33.4543 22.6859Z" fill="#F9D67B" stroke="black" stroke-width="1.90323"/>
<path d="M39.0827 17.9305L17.1289 11.6278V9.85171L38.3016 5.56441H80.6496L101.822 9.85171V11.6278L79.8516 17.9354L39.0827 17.9305Z" fill="#F9D67B" stroke="black" stroke-width="1.90323"/>
<path d="M113.242 13.1772L84.6933 23.645V31.2579L113.242 24.5966V13.1772Z" fill="black"/>
<path d="M31.8478 208.02L33.4339 205.641H84.5663L86.1523 208.02H31.8478Z" fill="#F9D67B" stroke="black" stroke-width="0.475806"/>
<ellipse cx="79.4598" cy="11.2741" rx="8.08871" ry="2.37903" fill="black"/>
</svg>
