<svg width="77" height="78" viewBox="0 0 77 78" fill="none" xmlns="http://www.w3.org/2000/svg">
<path d="M25.4099 59.8245V43.6545H29.2599L40.8099 40.9595L48.5099 35.5695H51.9749L61.5999 37.8795L66.9899 43.6545V59.4395L60.4449 64.8295L48.8949 65.9845L33.4949 65.2145L25.4099 59.8245Z" fill="#F9D67B"/>
<path fill-rule="evenodd" clip-rule="evenodd" d="M47.1406 25.5399C47.5331 24.6828 47.7413 23.7867 47.7413 22.8645C47.7413 16.6982 38.4333 11.6995 26.9513 11.6995C15.4693 11.6995 6.16128 16.6982 6.16128 22.8645C6.16128 23.1878 6.18687 23.508 6.23704 23.8243L5.77588 23.6345V37.1095C9.75421 40.1895 24.2559 43.2695 24.2559 43.2695L40.0409 41.7295L47.3559 37.1095L48.5109 26.7145L47.1406 25.5399Z" fill="#F9D67B"/>
<path fill-rule="evenodd" clip-rule="evenodd" d="M60.453 39.8622C56.9033 38.4261 51.8598 37.4944 46.2003 37.4944V33.6444C52.2333 33.6444 57.7811 34.63 61.8929 36.2894C63.945 37.121 65.7352 38.1528 67.0404 39.404C68.3494 40.6553 69.3003 42.253 69.3003 44.1241C69.3003 45.9991 68.3532 47.593 67.0404 48.8481C65.7314 50.0955 63.945 51.1311 61.8929 51.9589C57.7811 53.6221 52.2294 54.6038 46.2003 54.6038C40.1674 54.6038 34.6195 53.6221 30.5077 51.9589C28.4557 51.1311 26.6654 50.0955 25.3603 48.8481C24.0513 47.593 23.1003 45.9991 23.1003 44.1241H26.9503C26.9503 44.6131 27.189 45.2676 28.0206 46.0645C28.8522 46.8615 30.1689 47.67 31.9476 48.3899C35.5012 49.826 40.537 50.7538 46.2003 50.7538C51.8598 50.7538 56.9033 49.826 60.453 48.3899C62.2317 47.67 63.5446 46.8615 64.38 46.0645C65.2155 45.2676 65.4503 44.6131 65.4503 44.1241C65.4503 43.6352 65.2116 42.9807 64.38 42.1876C63.5446 41.3868 62.2317 40.5783 60.453 39.8622Z" fill="black"/>
<path fill-rule="evenodd" clip-rule="evenodd" d="M25.0253 43.9124C25.5359 43.9124 26.0255 44.1152 26.3865 44.4762C26.7475 44.8372 26.9503 45.3268 26.9503 45.8374V57.8109C26.9503 58.3037 27.189 58.9582 28.0206 59.7513C28.8561 60.5521 30.1689 61.3606 31.9476 62.0805C35.5012 63.5127 40.537 64.4444 46.2003 64.4444C51.8598 64.4444 56.9033 63.5127 60.453 62.0805C62.2317 61.3606 63.5446 60.5521 64.38 59.7513C65.2116 58.9582 65.4503 58.3037 65.4503 57.8147V45.8374C65.4503 45.3268 65.6532 44.8372 66.0142 44.4762C66.3752 44.1152 66.8648 43.9124 67.3753 43.9124C67.8859 43.9124 68.3755 44.1152 68.7365 44.4762C69.0975 44.8372 69.3003 45.3268 69.3003 45.8374V57.8109C69.3003 59.6897 68.3532 61.2836 67.0404 62.5348C65.7275 63.7861 63.945 64.8179 61.8929 65.6495C57.7811 67.3088 52.2294 68.2944 46.2003 68.2944C40.1674 68.2944 34.6195 67.3088 30.5077 65.6495C28.4557 64.8217 26.6654 63.7861 25.3603 62.5348C24.0513 61.2836 23.1003 59.6858 23.1003 57.8147V45.8374C23.1003 45.3268 23.3032 44.8372 23.6642 44.4762C24.0252 44.1152 24.5148 43.9124 25.0253 43.9124Z" fill="black"/>
<path fill-rule="evenodd" clip-rule="evenodd" d="M33.4958 65.3145V50.9694H37.3458V65.3145H33.4958ZM50.4358 64.4444V52.8944H54.2858V64.4444H50.4358ZM8.77113 19.0876C7.93953 19.8807 7.70083 20.5352 7.70083 21.0241C7.70083 21.5131 7.93953 22.1676 8.77113 22.9645C9.60273 23.7615 10.9194 24.57 12.6981 25.2899C16.2517 26.726 21.2875 27.6538 26.9508 27.6538C32.6103 27.6538 37.6538 26.726 41.2035 25.2899C42.9822 24.57 44.2951 23.7615 45.1305 22.9645C45.966 22.1676 46.2008 21.5131 46.2008 21.0241C46.2008 20.5352 45.9621 19.8807 45.1305 19.0876C44.2951 18.2868 42.9822 17.4783 41.2035 16.7583C37.65 15.3261 32.6103 14.3944 26.9508 14.3944C21.2913 14.3944 16.2478 15.3261 12.6981 16.7583C10.9194 17.4783 9.60658 18.2868 8.77113 19.0876ZM11.2582 13.1894C15.37 11.53 20.9217 10.5444 26.9508 10.5444C32.9838 10.5444 38.5316 11.53 42.6434 13.1894C44.6955 14.021 46.4857 15.0528 47.7909 16.304C49.0999 17.5553 50.0508 19.153 50.0508 21.0241C50.0508 22.8991 49.1037 24.493 47.7909 25.7481C46.4819 26.9955 44.6955 28.0311 42.6434 28.8589C38.5316 30.5221 32.9799 31.5038 26.9508 31.5038C20.9179 31.5038 15.37 30.5221 11.2582 28.8589C9.20618 28.0311 7.41593 26.9955 6.11078 25.7481C4.80178 24.493 3.85083 22.8991 3.85083 21.0241C3.85083 19.153 4.79793 17.5591 6.11078 16.304C7.42363 15.0489 9.20618 14.021 11.2582 13.1894Z" fill="black"/>
<path fill-rule="evenodd" clip-rule="evenodd" d="M5.77583 20.8124C6.28637 20.8124 6.776 21.0152 7.13701 21.3762C7.49802 21.7372 7.70083 22.2268 7.70083 22.7374V34.7109C7.70083 35.2037 7.93953 35.8582 8.77113 36.6513C9.60658 37.4521 10.9194 38.2606 12.6981 38.9805C16.2517 40.4127 21.2875 41.3444 26.9508 41.3444C32.6103 41.3444 37.6538 40.4127 41.2035 38.9805C42.9822 38.2606 44.2951 37.4521 45.1305 36.6513C45.9621 35.8582 46.2008 35.2037 46.2008 34.7147V22.7374C46.2008 22.2268 46.4036 21.7372 46.7646 21.3762C47.1257 21.0152 47.6153 20.8124 48.1258 20.8124C48.6364 20.8124 49.126 21.0152 49.487 21.3762C49.848 21.7372 50.0508 22.2268 50.0508 22.7374V34.7109C50.0508 36.5897 49.1037 38.1836 47.7909 39.4348C46.478 40.6861 44.6955 41.7217 42.6434 42.5495C38.5316 44.2088 32.9799 45.1944 26.9508 45.1944C20.9179 45.1944 15.37 44.2088 11.2582 42.5495C9.20618 41.7179 7.41593 40.6861 6.11078 39.4348C4.80178 38.1874 3.85083 36.5858 3.85083 34.7147V22.7374C3.85083 22.2268 4.05364 21.7372 4.41465 21.3762C4.77566 21.0152 5.26529 20.8124 5.77583 20.8124Z" fill="black"/>
<path fill-rule="evenodd" clip-rule="evenodd" d="M14.2461 41.3444V28.3044H18.0961V41.3444H14.2461ZM31.1861 41.3444V29.7944H35.0361V41.3444H31.1861Z" fill="black"/>
</svg>
