<svg width="120" height="286" viewBox="0 0 120 286" fill="none" xmlns="http://www.w3.org/2000/svg">
<g clip-path="url(#clip0_845_2238)">
<path d="M76.6422 261.182C75.4384 263.919 73.211 266.071 70.4364 267.179C67.6637 268.287 64.5677 268.263 61.8129 267.11L61.6482 267.042C60.4741 270.418 58.7248 273.605 57.985 277.101C57.87 277.635 57.7867 278.221 58.0425 278.705C58.4095 279.398 59.294 279.593 60.0695 279.698C62.7569 280.095 65.5474 280.423 68.1496 279.645C72.4951 278.353 75.4701 274.132 76.6046 269.733C77.4355 266.524 77.4733 263.194 77.3344 259.865L76.6422 261.182Z" fill="black"/>
<path d="M54.9624 260.042C53.2645 261.734 51.196 263.007 48.9231 263.762C46.6502 264.516 44.2324 264.733 41.8605 264.391C41.1186 264.31 40.4006 264.081 39.7501 263.716C39.1175 263.319 38.6058 262.681 38.5304 261.941V261.218C35.8569 263.482 33.1635 265.702 32.2551 268.982C32.0746 269.638 31.9814 270.361 32.267 270.968C32.8084 272.13 34.3435 272.328 35.6228 272.358C38.9826 272.464 42.39 272.557 45.6566 271.774C48.9231 270.992 52.0924 269.181 53.7881 266.276C55.1369 263.97 55.4422 261.218 55.6962 258.559L54.9624 260.042Z" fill="black"/>
<path d="M42.9434 186.277C43.3401 196.425 44.3853 226.083 44.9406 240.953L45.7479 241.227C47.5329 241.584 49.4229 241.995 51.4995 241.962C53.4353 241.93 55.4205 241.447 56.9477 240.256L57.0489 239.994C57.8164 226.307 58.5443 210.119 59.3377 199.334C59.5022 197.094 59.536 188.656 59.7145 186.953" fill="white"/>
<path d="M59.5083 186.73C60.129 197.636 61.3885 224.558 61.9835 242.353L63.4253 243.773C64.3695 244.535 65.4602 245.093 66.6304 245.409C67.8007 245.725 69.0243 245.794 70.2223 245.611C71.4202 245.429 72.5685 244.996 73.5919 244.345C74.6153 243.693 75.49 242.835 76.1643 241.825L76.7495 240.778C76.4618 222.552 76.5986 196.379 76.8585 185.511" fill="white"/>
<path d="M61.8859 267.098C64.6408 268.25 67.7367 268.276 70.5094 267.168C73.2821 266.059 75.5095 263.907 76.7153 261.17L77.4095 259.961C77.3579 258.69 77.2805 257.419 77.2112 256.156C77.0128 252.437 76.8561 247.021 76.759 240.778L76.1738 241.825C75.5015 242.835 74.6249 243.693 73.6015 244.345C72.5781 244.996 71.4317 245.427 70.2338 245.611C69.0359 245.794 67.8121 245.727 66.6419 245.409C65.4719 245.093 64.379 244.535 63.437 243.773L61.9852 242.353C62.1596 247.516 62.2806 251.992 62.3143 255.167C62.3481 258.382 63.1533 261.635 62.3936 264.759C62.2072 265.527 61.9752 266.282 61.7153 267.028L61.8859 267.098Z" fill="black"/>
<path d="M38.6016 261.929C38.6771 262.67 39.1966 263.319 39.8233 263.704C40.474 264.07 41.1899 264.298 41.9317 264.379C44.3037 264.721 46.7234 264.506 48.9982 263.752C51.2732 262.997 53.3417 261.722 55.0415 260.031L55.7753 258.561C56.2215 253.886 56.642 247.295 57.0507 239.994L56.9495 240.256C55.4223 241.447 53.4369 241.93 51.5012 241.962C49.5656 241.993 47.6497 241.608 45.7495 241.227L44.9424 240.953C45.0217 243.111 45.0931 244.978 45.1526 246.451C45.2616 249.232 45.3509 252.135 44.2522 254.697C43.0979 257.383 40.8012 259.347 38.5005 261.292L38.6016 261.929Z" fill="black"/>
<path d="M40.3472 137.738C36.3569 153.208 32.9573 168.814 30.1509 184.56C49.8534 188.446 70.1548 188.092 89.7084 183.523C86.8267 168.302 83.9509 153.08 81.079 137.859" fill="black"/>
<path d="M64.6646 281.293C63.0839 281.293 61.5012 281.091 59.9701 280.863C59.3175 280.774 57.7586 280.564 57.0645 279.249C56.5766 278.336 56.7908 277.327 56.8939 276.841C57.3897 274.507 58.306 272.319 59.1906 270.202C60.0039 268.256 60.7733 266.419 61.2453 264.479C61.7075 262.58 61.529 260.585 61.3386 258.474C61.2434 257.401 61.1422 256.293 61.1323 255.181C60.9835 240.985 59.0697 200.833 58.3219 187.55C58.2843 186.893 58.786 186.331 59.4425 186.293C60.0991 186.256 60.6603 186.758 60.6979 187.415C61.4476 200.716 63.3616 240.923 63.5123 255.155C63.5222 256.172 63.6134 257.187 63.7107 258.259C63.909 260.471 64.1132 262.759 63.5579 265.041C63.0422 267.164 62.2013 269.175 61.3862 271.121C60.5036 273.23 59.6706 275.222 59.2223 277.335C59.1093 277.867 59.1311 278.059 59.1668 278.129C59.2065 278.205 59.391 278.379 60.3052 278.502C62.9669 278.895 65.5373 279.188 67.8855 278.486C72.114 277.222 74.6052 272.97 75.5274 269.412C76.5606 265.426 76.3088 261.107 76.0668 256.933L76.0251 256.214C75.2278 241.924 75.3171 201.241 75.6662 186.327C75.6821 185.67 76.2314 185.144 76.884 185.163C77.5404 185.179 78.0621 185.725 78.0462 186.383C77.6991 201.266 77.6078 241.847 78.4013 256.079L78.4429 256.794C78.6967 261.155 78.9585 265.662 77.832 270.011C76.7471 274.197 73.7424 279.221 68.5678 280.771C67.2866 281.152 65.9756 281.293 64.6646 281.293Z" fill="black"/>
<path d="M57.5369 188.424C48.2787 188.424 39.0008 187.519 29.9211 185.729C29.2844 185.604 28.8658 184.991 28.9789 184.351C31.7775 168.649 35.2145 152.868 39.195 137.44C39.3597 136.803 40.0082 136.42 40.6449 136.584C41.2815 136.749 41.6643 137.399 41.4998 138.036C37.6323 153.025 34.2803 168.353 31.5295 183.612C40.8869 185.376 50.4486 186.186 59.9645 186.021C69.4924 185.856 79.0283 184.711 88.3263 182.619C85.5536 167.966 82.7214 152.989 79.9109 138.082C79.788 137.434 80.2143 136.813 80.859 136.69C81.5055 136.567 82.1264 136.993 82.2492 137.639C85.133 152.928 88.0366 168.29 90.8788 183.303C90.9978 183.93 90.6011 184.54 89.9804 184.685C80.1667 186.978 70.0836 188.229 60.0062 188.404C59.1832 188.418 58.36 188.424 57.5369 188.424Z" fill="black"/>
<path d="M68.907 246.904C68.0402 246.904 67.1775 246.789 66.3287 246.561C64.9899 246.199 63.7662 245.574 62.6852 244.702C62.1735 244.289 62.0942 243.538 62.5067 243.026C62.9193 242.514 63.669 242.434 64.1807 242.847C65.0018 243.51 65.932 243.985 66.9494 244.261C67.9669 244.535 69.0101 244.595 70.0513 244.436C71.0926 244.277 72.0724 243.91 72.9609 243.342C73.8495 242.776 74.5971 242.043 75.1823 241.165C75.5472 240.617 76.2869 240.47 76.8324 240.836C77.3798 241.201 77.5266 241.942 77.1616 242.488C76.3921 243.641 75.4084 244.607 74.2382 245.351C73.068 246.096 71.7808 246.581 70.4104 246.791C69.9085 246.864 69.4068 246.904 68.907 246.904Z" fill="black"/>
<path d="M51.2696 243.147C49.2961 243.147 47.3783 242.762 45.5219 242.39C44.8772 242.261 44.4548 241.632 44.5837 240.987C44.7127 240.341 45.3354 239.92 45.978 240.051L45.9899 240.053C47.884 240.432 49.675 240.792 51.4758 240.762C52.8145 240.74 54.7225 240.47 56.212 239.308C56.7296 238.903 57.4774 238.997 57.882 239.515C58.2866 240.033 58.1933 240.782 57.6757 241.187C55.6666 242.754 53.2172 243.117 51.5155 243.145C51.4341 243.147 51.3508 243.147 51.2696 243.147Z" fill="black"/>
<path d="M66.2813 269.177C64.6351 269.177 62.9889 268.849 61.4281 268.196C60.8212 267.942 60.5356 267.245 60.7895 266.637C61.0432 266.03 61.7394 265.744 62.3463 265.998C64.8274 267.036 67.5704 267.058 70.0694 266.059C72.5684 265.06 74.5419 263.154 75.6267 260.69C75.8925 260.088 76.5946 259.816 77.1956 260.08C77.7965 260.346 78.0702 261.049 77.8044 261.651C76.4656 264.689 74.0321 267.042 70.9521 268.274C69.4427 268.877 67.8619 269.177 66.2813 269.177Z" fill="black"/>
<path d="M39.0975 273.617C37.9432 273.617 36.7968 273.582 35.6624 273.548C34.7104 273.516 32.1876 273.435 31.2673 271.461C30.9043 270.688 30.8786 269.769 31.1859 268.653C32.1717 265.092 34.9582 262.733 37.6516 260.451C39.9384 258.515 42.1003 256.686 43.1573 254.224C44.1728 251.857 44.0598 249.009 43.9626 246.497C43.7187 240.44 43.2585 227.689 42.8143 215.358C42.3957 203.744 42.0011 192.777 41.7809 187.211C41.7552 186.553 42.2669 185.999 42.9233 185.973C43.5738 185.954 44.1331 186.46 44.159 187.117C44.3791 192.687 44.7757 203.657 45.1943 215.272C45.6385 227.6 46.0987 240.349 46.3406 246.404C46.4497 249.17 46.5726 252.304 45.345 255.167C44.0657 258.144 41.5865 260.243 39.1887 262.272C36.658 264.415 34.268 266.437 33.4787 269.288C33.2943 269.955 33.3458 270.289 33.4212 270.45C33.6254 270.889 34.3831 271.121 35.7357 271.165C38.9666 271.264 42.3085 271.367 45.4521 270.603C48.7841 269.793 51.4754 267.992 52.838 265.66C54.0122 263.65 54.3255 261.198 54.5873 258.432C55.3033 250.906 55.9657 238.186 56.6064 225.886C57.2569 213.403 57.9292 200.496 58.6511 193.263C58.7166 192.608 59.2977 192.134 59.9542 192.197C60.6087 192.262 61.0847 192.846 61.0192 193.502C60.3033 200.676 59.6329 213.556 58.9824 226.011C58.3398 238.337 57.6753 251.082 56.9554 258.658C56.6659 261.708 56.3108 264.433 54.8928 266.864C53.1811 269.793 50.0276 271.943 46.0154 272.918C43.7166 273.478 41.3942 273.617 39.0975 273.617Z" fill="black"/>
<path d="M44.1193 265.728C43.3379 265.728 42.5544 265.672 41.7809 265.563C40.8844 265.462 40.0297 265.188 39.2403 264.745C39.2264 264.737 39.2124 264.729 39.1986 264.721C38.189 264.101 37.5226 263.103 37.4155 262.05C37.3482 261.395 37.8242 260.811 38.4787 260.743C39.1312 260.676 39.7163 261.152 39.7836 261.808C39.8155 262.11 40.0654 262.449 40.4243 262.678C40.932 262.958 41.4815 263.132 42.0586 263.196C42.0725 263.198 42.0863 263.2 42.0982 263.202C44.278 263.516 46.533 263.315 48.6215 262.622C50.7099 261.929 52.6396 260.742 54.1985 259.189C54.6646 258.724 55.4183 258.726 55.8824 259.193C56.3465 259.659 56.3446 260.414 55.8784 260.878C54.0577 262.692 51.8066 264.078 49.3712 264.886C47.6833 265.442 45.9002 265.728 44.1193 265.728Z" fill="black"/>
<g clip-path="url(#clip1_845_2238)">
<path d="M67.8087 76.0625C67.9872 78.0657 68.8062 82.5916 71.8547 81.9133L72.182 82.4092C72.0332 85.517 70.4584 87.7086 67.9911 89.9795C65.4842 92.2505 62.2871 93.615 58.9135 93.8549C55.9385 94.0731 52.775 93.3611 50.5497 91.3659C48.3244 89.3707 47.1542 86.6059 48.6278 84.2358H48.842C49.5125 84.2556 50.1292 83.9046 50.6965 83.5476C51.4184 83.0914 52.9078 81.2211 53.3541 80.6837C53.9491 79.9121 54.1911 76.9867 54.4965 76.0625H67.8087Z" fill="white"/>
<path d="M29.7362 173.177C28.7643 173.145 27.8223 172.841 27.0131 172.302C26.2039 171.762 25.5632 171.009 25.1607 170.124C25.359 166.951 25.954 163.182 23.3757 160.604C22.979 159.017 24.169 157.827 25.5573 157.31L31.1265 158.032L29.7362 173.177Z" fill="white"/>
<path d="M31.1286 158.032C29.3655 158.02 27.6122 157.752 25.9243 157.238C26.0433 155.761 26.1723 154.244 26.8089 152.905L31.7137 153.452L31.1286 158.032Z" fill="white"/>
<path d="M77.1677 157.129C76.8543 158.647 76.7512 160.198 76.8583 161.743C76.8543 161.832 76.8662 161.921 76.898 162.004C76.9297 162.088 76.9773 162.165 77.0387 162.23C77.1637 162.306 77.3105 162.34 77.4552 162.324L90.942 162.286C91.1462 162.302 91.3506 162.264 91.537 162.179C91.9178 161.963 91.9475 161.435 91.9337 160.989L91.7909 157.334L77.1677 157.129Z" fill="white"/>
<path d="M31.8504 153.236C29.9206 152.869 28.1356 152.869 26.1523 152.472C27.5406 138.589 28.7306 125.301 31.7056 111.219C33.2923 104.079 34.6806 97.534 38.4489 91.1873C38.4489 91.1873 39.8769 89.1445 40.4323 88.5197L41.4358 86.8616C41.1701 86.0862 41.4914 85.1956 42.0725 84.6185C42.6536 84.0413 43.4609 83.7359 44.2542 83.5653C44.6231 83.486 45.0317 83.4146 45.2676 83.1211C45.4065 82.9168 45.4918 82.6788 45.5175 82.4329C45.8071 80.8184 46.2336 78.8629 47.7944 78.3631C49.0677 77.9545 50.4402 78.8331 51.1661 79.9596C51.892 81.0862 52.1577 82.4329 52.6694 83.6685C53.1811 84.9041 54.0578 86.1318 55.3648 86.4253L57.7091 87.1591C62.0407 85.9691 65.3608 82.6074 68.8713 79.8049C69.8035 79.0632 70.7833 78.3393 71.9197 77.9823C73.0562 77.6253 74.3869 77.6867 75.3291 78.4166C76.2711 79.1465 76.6301 80.6379 75.9082 81.5899C76.4496 81.2825 77.0625 81.1239 77.6853 81.1298C78.308 81.1358 78.9169 81.3043 79.4524 81.6217C79.9879 81.939 80.4302 82.3912 80.7356 82.9327C81.0411 83.4741 81.1977 84.0889 81.1898 84.7097L81.5864 88.5177C84.6566 93.1765 86.8383 98.3333 88.5043 103.708L89.135 105.614C92.5246 120.205 93.1334 135.255 93.3576 150.261L93.5559 150.584C94.7776 155.055 99.3393 166.36 100.331 171.12C100.363 171.526 100.295 171.935 100.133 172.31C98.1493 174.69 94.7776 174.095 92.1695 174.904L82.953 176.738C69.7618 179.105 56.5231 179.684 43.3081 177.454L40.8151 177.163L32.2868 175.53C31.5172 175.384 30.6723 175.187 30.2221 174.539C29.8492 174.007 29.8512 173.307 29.879 172.659C29.992 170.08 30.2895 167.522 30.587 164.961L31.9456 153.248L31.8504 153.236Z" fill="white"/>
<path d="M78.7859 162.536C76.874 163.153 74.6388 165.449 76.2552 167.568C77.1437 168.736 78.4865 169.365 79.7181 170.098C80.6661 170.662 80.9179 172.566 81.2849 173.573C82.2131 176.114 84.016 178.204 86.9731 178.006C89.9798 177.808 91.8502 175.247 92.4214 172.486C93.0402 169.491 91.9849 165.561 91.4872 162.599L78.7859 162.536Z" fill="white"/>
<path d="M61.8008 94.2973C61.8425 94.928 62.3661 95.4099 62.9868 95.4099C63.0146 95.4099 63.0404 95.4099 63.0642 95.404C68.3696 95.0568 73.564 93.3948 78.0879 90.6023C79.0222 90.0266 79.8054 89.4245 80.4361 88.7981C80.4678 88.925 80.521 89.0489 80.5969 89.1644C83.3418 93.3294 85.5572 98.2005 87.372 104.053C87.5306 104.565 88.0006 104.892 88.5084 104.892C88.6254 104.892 88.7444 104.874 88.8595 104.839C89.4881 104.644 89.8392 103.978 89.6449 103.349C87.7626 97.2782 85.454 92.2108 82.5842 87.8554C82.3605 87.5149 81.9921 87.3276 81.6136 87.3202C82.1092 86.4917 82.3645 85.6275 82.3759 84.7316C82.3859 83.9006 82.1756 83.0795 81.769 82.3556C81.3625 81.6317 80.7694 81.0248 80.0535 80.6023C79.3395 80.1799 78.5222 79.9538 77.6913 79.9458C77.6119 79.9458 77.5346 79.9458 77.4553 79.9498C77.3403 79.0176 76.8583 78.1053 76.053 77.4825C74.8809 76.5742 73.1991 76.3381 71.5588 76.8538C70.2082 77.2782 69.0796 78.1212 68.1257 78.8808C67.0794 79.7155 66.2034 80.5347 65.3562 81.327L65.3232 81.3579C63.317 83.2352 61.7324 84.718 58.9468 85.4833C58.3122 85.6578 57.9393 86.3123 58.1137 86.947C58.2884 87.5817 58.9448 87.9545 59.5775 87.78C62.9313 86.8597 64.8849 85.0311 66.9516 83.0954L66.9837 83.0652C67.7968 82.305 68.6384 81.5183 69.6092 80.7431C70.4303 80.0906 71.3109 79.4262 72.2728 79.1247C73.1574 78.8471 74.0479 78.9383 74.5973 79.3647C75.0674 79.7297 75.2478 80.4932 74.9563 80.878C74.6152 81.3282 74.6369 81.9569 75.0098 82.3814C75.3827 82.8058 76.0015 82.9109 76.4933 82.6333C76.8464 82.4329 77.247 82.3278 77.6516 82.3278H77.6714C78.084 82.3298 78.4906 82.4429 78.8456 82.6531C79.2006 82.8633 79.4942 83.1628 79.6965 83.5238C79.8988 83.8847 80.0038 84.2913 79.9979 84.7039C79.9821 85.995 78.919 87.2981 76.8405 88.5793C72.6457 91.1695 67.8282 92.7086 62.9095 93.0319C62.255 93.0755 61.7572 93.6407 61.8008 94.2973Z" fill="black"/>
<path fill-rule="evenodd" clip-rule="evenodd" d="M39.2822 178.069C39.2088 178.069 39.1334 178.062 39.0581 178.048L32.0688 176.709C31.2874 176.552 30.0001 176.292 29.2545 175.233C29.0395 174.927 28.9022 174.604 28.8162 174.276C27.9394 174.124 27.1012 173.791 26.3549 173.292C25.3612 172.629 24.5737 171.705 24.0799 170.618C23.9987 170.439 23.963 170.245 23.9749 170.051C23.9936 169.739 24.0177 169.42 24.0421 169.097L24.0463 169.043C24.2524 166.257 24.4647 163.375 22.5369 161.445C22.3841 161.292 22.277 161.102 22.2235 160.892C21.7551 159.018 22.7874 157.223 24.8077 156.33C24.8977 155.364 25.0338 154.343 25.356 153.351C25.0866 153.105 24.9354 152.74 24.9743 152.354C25.0606 151.494 25.1457 150.635 25.2303 149.78L25.2912 149.165C26.5744 136.244 27.7868 124.037 30.5476 110.971L30.6765 110.39C32.2135 103.462 33.6673 96.9193 37.4317 90.5766C37.4476 90.5508 37.4634 90.527 37.4793 90.5032L37.501 90.4722C37.7289 90.1482 38.9867 88.3585 39.5499 87.7266C39.7613 87.4883 40.0472 87.3552 40.3414 87.3311C40.3311 87.3039 40.3212 87.2764 40.3115 87.2486C39.9128 86.0883 40.2758 84.7258 41.2358 83.7738C41.9082 83.1074 42.8126 82.6592 44.0064 82.4013L44.0759 82.3854C44.1533 82.3696 44.2564 82.3478 44.3337 82.3259C44.3337 82.323 44.3347 82.318 44.3347 82.318C44.3347 82.318 44.3358 82.3131 44.3358 82.3101C44.3397 82.2783 44.3437 82.2486 44.3496 82.2188L44.3507 82.2135C44.6403 80.6242 45.1237 77.9717 47.4337 77.2288C48.8102 76.7885 50.8787 77.2585 52.1779 79.3252C52.3182 79.5483 52.4428 79.775 52.5557 80.0038C52.7904 79.4927 53.3645 79.2048 53.9291 79.349C54.5658 79.5097 54.9525 80.1582 54.7898 80.7949C54.6105 81.5072 54.3235 81.9835 53.5799 82.7115C53.6417 82.8812 53.7052 83.0474 53.7725 83.2105C54.0521 83.8829 54.665 85.0451 55.6289 85.2633C56.2694 85.408 56.6721 86.0447 56.5293 86.6853C56.3845 87.3259 55.7479 87.7286 55.1072 87.5857C53.6157 87.2506 52.3603 86.0209 51.5729 84.1248C51.3787 83.6568 51.2179 83.1867 51.0652 82.7305L51.0578 82.7087C50.7948 81.9353 50.5459 81.2036 50.1608 80.5925C49.7146 79.8825 48.8438 79.2776 48.1596 79.4957C47.2909 79.7754 46.9478 81.2411 46.6979 82.6056C46.6463 83.0281 46.4936 83.4346 46.2556 83.7877C46.2377 83.8134 46.2179 83.8392 46.1981 83.865C45.7117 84.47 45.0303 84.6158 44.5762 84.7129L44.5717 84.7139L44.5083 84.7278C43.7844 84.8844 43.2489 85.1304 42.9137 85.4616C42.6182 85.7551 42.4675 86.1915 42.5646 86.4751C42.6558 86.7408 42.9573 87.0264 43.2389 87.2684C45.7935 89.5056 48.9014 91.0031 52.2334 91.6019C52.88 91.719 53.3103 92.3378 53.1933 92.9844C53.0862 93.5595 52.5844 93.9641 52.0211 93.9641C51.9518 93.9641 51.8804 93.9581 51.809 93.9443C48.0526 93.2679 44.5479 91.5802 41.6761 89.0653C41.6334 89.0286 41.5905 88.9909 41.5472 88.9524C41.497 89.0801 41.4237 89.2011 41.327 89.3093C40.9184 89.7674 39.8612 91.2509 39.4547 91.8301C35.9006 97.8337 34.4905 104.182 32.9989 110.906L32.8721 111.475C30.1377 124.415 28.9318 136.572 27.655 149.444L27.6539 149.454C27.5864 150.128 27.519 150.804 27.4516 151.483C28.0445 151.566 28.6317 151.628 29.2405 151.689L29.2726 151.692C29.8078 151.747 30.3534 151.803 30.9117 151.878L31.8198 144.049C33.4519 130.078 35.1396 115.633 38.4234 101.695C38.5741 101.057 39.2148 100.658 39.8554 100.811C40.494 100.961 40.8907 101.602 40.7399 102.243C37.4869 116.051 35.8072 130.432 34.1826 144.34L31.7721 165.123C31.4829 167.616 31.1841 170.193 31.0711 172.724C31.0573 173.04 31.0316 173.631 31.2001 173.869C31.3984 174.15 32.1045 174.293 32.525 174.377L39.5023 175.711C40.147 175.834 40.5714 176.459 40.4464 177.104C40.3413 177.673 39.8435 178.069 39.2822 178.069ZM24.4945 160.051C24.4586 159.145 25.4752 158.632 25.8716 158.466C27.2402 158.859 28.6449 159.102 30.064 159.188L29.4008 164.906C29.1399 167.161 28.871 169.485 28.7362 171.814C28.3627 171.7 28.0062 171.531 27.6777 171.312C27.1323 170.947 26.6841 170.457 26.3727 169.882C26.3815 169.742 26.3919 169.602 26.4023 169.462C26.4084 169.381 26.4145 169.299 26.4203 169.218L26.4205 169.215C26.6347 166.312 26.8993 162.723 24.4945 160.051ZM30.6374 154.243L30.3386 156.82C29.2789 156.764 28.2266 156.608 27.1958 156.356C27.2801 155.509 27.4068 154.672 27.6791 153.914C28.1274 153.968 28.5665 154.013 28.9986 154.057L29.0901 154.067C29.6164 154.121 30.127 154.174 30.6374 154.243Z" fill="black"/>
<path fill-rule="evenodd" clip-rule="evenodd" d="M43.1097 178.625C48.7265 179.573 54.4623 180.047 60.3906 180.047C67.5731 180.047 75.0369 179.348 82.8951 177.954C83.9615 178.774 85.2162 179.208 86.5984 179.208C86.7471 179.208 86.8998 179.204 87.0525 179.192C89.1554 179.054 90.9835 177.911 92.2085 176.089C92.3123 176.086 92.4173 176.068 92.5225 176.038C93.2622 175.808 94.1112 175.701 95.0077 175.59C97.0683 175.334 99.4026 175.043 101.047 173.069C101.12 172.982 101.18 172.885 101.225 172.78C101.461 172.23 101.562 171.624 101.517 171.026C101.513 170.975 101.505 170.925 101.495 170.876C100.904 168.04 99.1652 163.178 97.4838 158.476L97.4829 158.474C96.3107 155.202 95.206 152.109 94.7021 150.269C94.6682 150.144 94.6157 150.029 94.5483 149.927C94.3527 135.587 93.8269 121.786 90.4519 107.238C90.3032 106.598 89.6646 106.199 89.0239 106.348C88.3834 106.497 87.9847 107.135 88.1335 107.776C91.8994 124.014 92.0624 139.419 92.235 155.728V155.733L92.239 156.034L77.2231 155.788C74.9919 138.355 74.2224 120.622 74.9343 103.064C74.9621 102.407 74.4504 101.852 73.794 101.826C73.1374 101.802 72.5821 102.31 72.5564 102.966C71.8245 121.001 72.6456 139.22 74.9959 157.115C75.0567 157.576 75.3753 157.946 75.7954 158.088C75.6278 159.307 75.584 160.541 75.6662 161.77C75.6662 161.992 75.7038 162.21 75.7811 162.419C75.8704 162.657 76.0034 162.871 76.1779 163.053C76.1944 163.071 76.2116 163.088 76.2292 163.104C75.5103 163.648 74.915 164.343 74.6527 165.18C74.4266 165.903 74.3572 167.03 75.3092 168.28C76.1898 169.438 77.4056 170.134 78.4786 170.747C78.6908 170.868 78.901 170.989 79.1112 171.114C79.4047 171.287 79.7255 172.456 79.866 172.968L79.8689 172.978C79.9661 173.335 80.0593 173.672 80.1684 173.974C80.4201 174.665 80.7187 175.293 81.06 175.856C67.5484 178.122 55.2466 178.259 43.5045 176.278C42.8559 176.167 42.2431 176.606 42.1339 177.254C42.0249 177.901 42.4611 178.516 43.1097 178.625ZM79.9082 163.505C79.7897 163.845 79.5186 164.127 79.149 164.246C78.0462 164.603 77.1101 165.295 76.9237 165.892C76.888 166.005 76.7947 166.304 77.2013 166.838C77.79 167.611 78.6977 168.13 79.6571 168.679L79.6586 168.68L79.8207 168.773C79.9905 168.87 80.1602 168.968 80.3271 169.067C81.4458 169.73 81.843 171.178 82.1621 172.342L82.1636 172.347C82.2469 172.655 82.3282 172.946 82.4036 173.157C83.0462 174.92 84.3433 176.98 86.8938 176.816C88.5698 176.705 90.5928 175.445 91.2572 172.242C91.7664 169.78 91.3059 167.129 90.8601 164.564L90.8352 164.42C90.7894 164.156 90.7439 163.893 90.6999 163.631C90.6911 163.578 90.6857 163.526 90.684 163.475L79.9082 163.505ZM92.7495 162.628C92.9 162.792 93.0065 163 93.0461 163.236C93.0977 163.539 93.1493 163.843 93.2029 164.148L93.2045 164.158C93.688 166.942 94.1879 169.82 93.5876 172.726C93.54 172.956 93.4854 173.182 93.4242 173.403C93.8546 173.334 94.2856 173.281 94.7102 173.228C96.4952 173.006 98.0481 172.811 99.0913 171.687C99.131 171.554 99.1489 171.413 99.1449 171.274C98.5686 168.585 96.8061 163.656 95.247 159.296L95.1845 159.121L95.182 159.114C94.9867 158.567 94.7932 158.026 94.6041 157.495C94.5561 157.718 94.4442 157.924 94.2798 158.087C94.0597 158.309 93.7562 158.434 93.4428 158.434H93.423L93.0233 158.428L93.1215 160.941C93.1316 161.25 93.1547 162.01 92.7495 162.628ZM90.6402 158.388L78.1863 158.184C78.0374 159.16 77.9807 160.149 78.0164 161.136L90.7454 161.1C90.7454 161.086 90.7454 161.071 90.7449 161.055C90.7446 161.047 90.7442 161.038 90.7435 161.029L90.6402 158.388Z" fill="black"/>
</g>
<path d="M71.6482 73.3056C74.1194 73.7478 76.7155 73.1428 78.8853 71.8814C83.7862 69.0354 86.299 63.1549 86.541 57.5003C86.7829 51.8458 85.1031 46.2866 83.3419 40.9019C83.1436 40.3069 82.9551 39.6503 83.215 39.0831C83.5877 38.262 84.6508 38.0914 85.5355 37.9288C87.4276 37.5658 89.1848 36.6991 90.6247 35.4219C92.0646 34.1446 93.1336 32.5005 93.7187 30.6658C94.3037 28.8312 94.3831 26.8737 93.9507 24.9975C93.5164 23.1212 92.5841 21.3978 91.2534 20.0055C88.675 17.322 84.8155 16.1458 81.0968 16.2153C77.6972 16.2767 74.2224 17.3656 71.7651 19.7158C69.3077 22.0661 68.0544 25.7848 69.1233 29.0176L67.374 29.5809C61.5965 27.2466 55.0139 26.8558 49.0639 28.7103C43.1139 30.5646 37.862 34.688 34.8434 40.1403C33.1238 43.2462 32.1321 46.715 31.6166 50.2274C31.1444 53.4483 33.1377 58.9699 35.5852 61.1219L40.2836 49.1029C43.3638 49.6027 46.5035 48.8392 49.4764 47.891C54.9723 46.1379 60.6347 43.3968 63.3598 38.3136C62.4057 40.9652 62.4336 43.621 62.6399 46.2231C62.8382 48.6645 63.1932 51.1437 64.2721 53.3433C65.351 55.5427 67.2471 57.4467 69.6371 58.01" fill="black"/>
<path d="M67.8343 78.145C67.6082 75.4298 68.1397 72.9863 69.3218 70.5309C69.5896 69.9756 70.1648 69.9816 70.7339 69.8011C71.2397 69.6424 71.7356 69.4599 72.2254 69.2537C73.2191 68.8411 74.1572 68.3077 75.0219 67.667C76.7315 66.3759 78.0643 64.5631 78.5641 62.4608C79.0184 60.5548 78.699 58.2858 76.5808 57.2129C75.0874 56.4592 73.7486 56.7269 71.4738 58.7261L69.651 58.0121C67.271 57.4489 65.3651 55.5449 64.2862 53.3454C63.2072 51.1458 62.8482 48.6667 62.6538 46.2252C62.4555 43.6231 62.4198 40.9674 63.3738 38.3157C60.6427 43.3989 54.9804 46.1399 49.4905 47.8932C46.5155 48.8412 43.3779 49.6048 40.2977 49.105L37.9713 50.295C36.692 53.5853 35.9225 56.5564 35.7281 58.3553C35.2383 62.8852 36.1525 67.9189 39.6175 71.1458C41.4639 72.8633 43.7507 73.7082 46.1961 74.1387C48.7467 74.5888 51.4837 74.9994 53.9589 73.9879C53.828 76.0525 53.8082 77.5262 53.9034 79.5928" fill="white"/>
<path d="M69.6332 59.1961C69.542 59.1961 69.4509 59.1863 69.3576 59.1644C66.8367 58.5675 64.5341 56.5861 63.1993 53.863C61.9915 51.3977 61.6364 48.6626 61.45 46.3124C61.3648 45.1819 61.3053 44.0157 61.347 42.8297C58.6674 45.3723 54.8594 47.4151 49.8356 49.0196C46.9221 49.9478 43.4851 50.8244 40.0895 50.2732C39.441 50.168 39.0007 49.5571 39.1059 48.9085C39.2109 48.26 39.8237 47.8197 40.4703 47.9248C43.362 48.393 46.333 47.6393 49.1117 46.7546C55.9939 44.5572 60.1867 41.6952 62.3088 37.7484C62.6043 37.1989 63.2727 36.9709 63.8419 37.2248C64.4112 37.4786 64.6888 38.1292 64.4767 38.7143C63.6416 41.0328 63.6118 43.3572 63.8241 46.1299C63.9926 48.2521 64.306 50.7114 65.3373 52.8158C66.3628 54.9061 68.0724 56.4136 69.9069 56.8479C70.5457 56.9986 70.9422 57.6412 70.7915 58.2798C70.6626 58.8272 70.1727 59.1961 69.6332 59.1961Z" fill="black"/>
<path d="M33.6893 60.5409C33.4097 60.5409 33.13 60.4438 32.9039 60.2455C30.5715 58.1947 29.7385 54.7675 30.4308 50.0551C31.0158 46.0667 32.1482 42.5383 33.7945 39.5633C36.9163 33.9227 42.3506 29.5533 48.7011 27.5741C54.8436 25.6601 61.6305 25.9795 67.8106 28.4785C68.4195 28.7243 68.715 29.4186 68.4691 30.0274C68.2231 30.6362 67.529 30.9318 66.9201 30.6859C61.2478 28.3952 55.03 28.0956 49.4092 29.847C43.6377 31.6458 38.7052 35.6085 35.875 40.7176C34.3676 43.4406 33.3284 46.6974 32.7849 50.4021C32.2197 54.2637 32.787 56.9749 34.4768 58.4584C34.9706 58.8928 35.0182 59.6446 34.5839 60.1384C34.3478 60.4041 34.0186 60.5409 33.6893 60.5409Z" fill="black"/>
<path d="M73.3143 74.6403C72.6855 74.6403 72.0608 74.5868 71.45 74.4777C70.8034 74.3626 70.373 73.7438 70.488 73.0973C70.603 72.4507 71.2218 72.0204 71.8684 72.1354C73.9529 72.5083 76.2377 72.0521 78.2984 70.8542C83.2072 68.0041 85.1667 62.062 85.363 57.4508C85.5931 52.0819 84.0084 46.7348 82.2214 41.2727C82.0172 40.652 81.676 39.6087 82.1441 38.5893C82.7529 37.2465 84.2285 36.9689 85.2043 36.7845L85.3233 36.7626C87.0012 36.4394 88.5661 35.6698 89.8453 34.5333C91.1246 33.3969 92.0766 31.9352 92.5963 30.3069C93.1159 28.6766 93.1873 26.9352 92.8025 25.2672C92.4178 23.6012 91.5887 22.0661 90.4046 20.8305C88.2528 18.5854 84.8751 17.3399 81.1306 17.4073C77.749 17.4687 74.6392 18.623 72.6003 20.5767C70.3293 22.7523 69.3873 25.9971 70.256 28.6488C70.4602 29.2735 70.1211 29.9459 69.4963 30.1502C68.8716 30.3545 68.1992 30.0153 67.995 29.3906C66.8466 25.886 68.0366 21.6536 70.9541 18.8591C73.4571 16.4612 77.0549 15.1006 81.0869 15.0273C85.492 14.946 89.5142 16.4593 92.1242 19.1844C93.6038 20.7293 94.6391 22.6473 95.121 24.7317C95.603 26.8162 95.5137 28.9939 94.8652 31.0308C94.2147 33.0677 93.0266 34.8943 91.4261 36.3144C89.8275 37.7344 87.872 38.6964 85.7716 39.101L85.6446 39.1248C85.2123 39.2061 84.4091 39.3568 84.3099 39.5789C84.2285 39.7555 84.415 40.3227 84.4844 40.5349C86.3408 46.2132 87.9889 51.7864 87.7411 57.5559C87.4555 64.2417 84.296 70.1262 79.4944 72.9148C77.5368 74.0473 75.3968 74.6403 73.3143 74.6403Z" fill="black"/>
<path d="M67.8522 78.024C67.2412 78.024 66.7197 77.5559 66.6681 76.933C66.4163 73.9461 66.9973 72.5797 68.231 70.0093C68.6832 69.0711 69.5379 68.8648 70.0496 68.742C70.1608 68.7142 70.2659 68.6903 70.3571 68.6606C70.8291 68.5118 71.2953 68.3412 71.7454 68.1508C72.6557 67.7741 73.5106 67.2881 74.296 66.705C75.8787 65.509 76.9814 63.9006 77.39 62.1791C77.6002 61.3123 77.8858 59.2061 76.0275 58.2679C75.2163 57.8573 74.421 57.6967 72.2413 59.6126C71.7475 60.0469 70.9957 59.9974 70.5613 59.5036C70.127 59.0097 70.1767 58.2581 70.6705 57.8237C73.8002 55.0727 75.609 55.3902 77.0985 56.1418C79.4071 57.308 80.4047 59.8327 79.7026 62.7325C79.1671 64.9854 77.753 67.0739 75.7221 68.607C74.7739 69.3111 73.7467 69.8942 72.6638 70.3425C72.15 70.5587 71.6125 70.7569 71.0711 70.9256C70.9064 70.9771 70.7479 71.0168 70.6089 71.0506C70.5218 71.0723 70.4087 71.0982 70.3352 71.122C69.1949 73.502 68.8418 74.3964 69.0402 76.7288C69.0957 77.3833 68.6097 77.9585 67.9552 78.014C67.9195 78.0219 67.8859 78.024 67.8522 78.024Z" fill="black"/>
<path d="M53.8795 79.7794C53.2467 79.7794 52.7212 79.2815 52.6914 78.6429C52.6279 77.2466 52.6141 76.5445 52.6538 75.5865C50.2698 76.0466 47.8422 75.6242 45.9699 75.2969C42.9453 74.7635 40.5951 73.6866 38.7844 72.0027C35.4562 68.9028 33.9033 63.8769 34.5221 58.2106C34.7541 56.1103 35.619 52.9844 36.8387 49.8488C37.0767 49.2359 37.7669 48.9325 38.3798 49.1705C38.9926 49.4085 39.2961 50.0987 39.0581 50.7115C37.7053 54.1903 37.0508 57.0007 36.8882 58.4703C36.3508 63.3791 37.632 67.6771 40.4066 70.2594C41.8903 71.6398 43.7883 72.4945 46.3804 72.9507C49.0303 73.4129 51.3963 73.7242 53.4868 72.8693C53.8655 72.7146 54.2979 72.7662 54.6311 73.0042C54.9643 73.2442 55.1507 73.6369 55.125 74.0455C54.9981 76.0407 54.9762 76.481 55.0714 78.5278C55.1012 79.1844 54.5935 79.7416 53.9369 79.7713C53.9152 79.7794 53.8974 79.7794 53.8795 79.7794Z" fill="black"/>
<path d="M43.8219 55.7531C44.5887 55.7531 45.2102 54.9983 45.2102 54.0673C45.2102 53.1361 44.5887 52.3813 43.8219 52.3813C43.0551 52.3813 42.4336 53.1361 42.4336 54.0673C42.4336 54.9983 43.0551 55.7531 43.8219 55.7531Z" fill="black"/>
<path d="M50.565 56.2191C51.3318 56.2191 51.9535 55.4644 51.9535 54.5333C51.9535 53.6023 51.3318 52.8474 50.565 52.8474C49.7984 52.8474 49.1768 53.6023 49.1768 54.5333C49.1768 55.4644 49.7984 56.2191 50.565 56.2191Z" fill="black"/>
</g>
<defs>
<clipPath id="clip0_845_2238">
<rect width="119" height="285.6" fill="white" transform="translate(0.5 0.199951)"/>
</clipPath>
<clipPath id="clip1_845_2238">
<rect width="119" height="119" fill="white" transform="translate(0.5 76.0625)"/>
</clipPath>
</defs>
</svg>
