<svg width="199" height="414" viewBox="0 0 199 414" fill="none" xmlns="http://www.w3.org/2000/svg">
<g clip-path="url(#clip0_845_2938)">
<path d="M117.533 369.785C117.921 373.939 117.387 376.6 115.91 381.139C114.057 387.206 102.98 392.62 109.876 399.416C110.163 399.692 115.321 403.638 124.243 401.078C124.889 400.75 125.561 400.472 126.254 400.246C127.231 399.789 128.139 399.203 128.949 398.504C133.75 394.586 136.862 389.084 137.675 383.072C138.29 378.694 138.805 373.421 138.437 369.672" fill="black"/>
<path d="M89.7876 364.435C89.7675 365.097 89.7675 365.928 89.48 366.482C89.1928 367.036 88.9055 367.866 88.618 368.42C84.8828 373.128 79.998 375.897 75.4008 379.774C72.5275 382.266 69.9415 386.974 73.3895 390.02C80.0987 392.958 90.7444 391.197 92.928 390.297C94.9395 389.466 96.9508 388.912 98.6748 387.804C106.72 382.266 106.146 372.297 106.778 364.053" fill="black"/>
<path d="M112.884 362.652C113.036 364.812 113.323 366.751 113.323 368.966C122.805 369.52 132.575 369.797 142.057 369.243C146.14 368.916 150.131 367.886 153.837 366.197C158.147 338.782 158.435 310.813 155.849 282.845C155.849 282.014 156.136 280.906 155.849 280.075C155.561 278.691 155.561 277.583 155.274 276.199V273.429C152.401 247.676 148.378 222.753 143.206 197.831C123.093 198.385 103.267 199.492 83.1534 200.046C74.2634 239.025 71.0712 279.012 73.6714 318.844C73.6227 320.142 73.7203 321.441 73.9589 322.721C74.4989 330.472 75.7519 338.164 77.6942 345.705C78.2689 347.643 78.8434 349.859 79.7054 351.797C81.1422 355.397 83.1534 358.997 84.5902 362.597C90.0494 363.981 95.7962 364.258 101.543 363.981C104.703 363.704 108.151 363.704 111.45 362.926L112.884 362.652Z" fill="black"/>
<path fill-rule="evenodd" clip-rule="evenodd" d="M141.62 198.124C152.141 251.707 160.71 308.999 152.359 365.061C146.617 367.527 139.887 367.813 134.003 367.88C127.705 367.947 121.334 367.792 115.045 367.421C114.476 361.071 113.872 354.669 113.286 348.463C110.68 320.854 107.988 292.307 108.114 264.319C108.163 254.474 107.114 244.752 99.1983 240.293C98.3763 239.831 97.3191 240.097 96.8392 240.889C96.3565 241.681 96.6351 242.7 97.457 243.162C103.864 246.77 104.709 255.455 104.666 264.302C104.54 292.446 107.24 321.071 109.852 348.755L110.052 350.882C110.375 354.321 110.703 357.81 111.026 361.307C102.72 362.603 94.3081 362.628 86.001 361.384C76.9673 344.179 75.5364 327.024 74.9099 312.261C73.3266 274.767 76.6195 237.139 84.6964 200.428C84.8947 199.531 84.2999 198.65 83.3689 198.459C82.438 198.268 81.5242 198.841 81.326 199.739C73.1887 236.721 69.873 274.626 71.4647 312.397C72.1142 327.73 73.6227 345.597 83.3344 363.657C83.5844 364.123 84.0471 364.446 84.5815 364.532C85.7323 364.716 86.8848 364.877 88.0388 365.015C88.0235 365.309 87.9946 365.613 87.9347 365.737C87.7727 366.052 87.6253 366.405 87.4813 366.75L87.4462 366.834C87.3427 367.085 87.2335 367.343 87.1389 367.545C84.757 370.502 81.8665 372.674 78.8066 374.972L78.7372 375.024C77.2703 376.127 75.7512 377.268 74.2462 378.539C72.209 380.306 70.028 383.31 70.0137 386.445C70.0051 388.3 70.7693 389.959 72.2233 391.244C72.3554 391.363 72.5077 391.46 72.6745 391.532C75.7288 392.869 79.4296 393.323 82.892 393.323C87.7509 393.323 92.1383 392.429 93.6067 391.828C94.1698 391.596 94.7559 391.377 95.3221 391.166L95.3402 391.16C96.7769 390.624 98.2615 390.072 99.629 389.192C99.6385 389.185 99.6491 389.179 99.6592 389.172C99.6646 389.169 99.67 389.165 99.6752 389.161C107.36 383.872 107.855 375.122 108.291 367.402L108.308 367.113C108.348 366.395 108.388 365.702 108.433 365.02C109.4 364.905 110.366 364.774 111.33 364.625C111.467 366.128 111.602 367.629 111.735 369.126C111.809 369.946 112.487 370.588 113.338 370.644C114.186 370.699 115.035 370.75 115.886 370.797C116.105 374.28 115.561 376.663 114.266 380.641C114.263 380.649 114.26 380.66 114.257 380.668C113.729 382.396 112.131 384.277 110.585 386.093L110.568 386.113C108.85 388.137 107.074 390.227 106.307 392.543C105.359 395.409 106.143 398.114 108.657 400.589C108.698 400.632 112.137 403.604 118.424 403.604C120.283 403.604 122.392 403.343 124.736 402.666C124.843 402.636 124.946 402.595 125.044 402.546C125.61 402.259 126.202 402.013 126.808 401.817C126.874 401.793 126.943 401.77 127.006 401.74C128.121 401.218 129.156 400.55 130.081 399.757C135.212 395.564 138.517 389.715 139.384 383.294C140.096 378.236 140.388 374.107 140.256 370.989C144.988 370.67 149.903 369.877 154.378 367.825C154.552 367.745 154.705 367.64 154.837 367.517C155.263 367.269 155.574 366.846 155.651 366.335C164.276 309.534 155.633 251.625 145.008 197.507C144.833 196.604 143.93 196.014 142.993 196.183C142.057 196.355 141.442 197.222 141.62 198.124ZM104.955 365.363C102.726 365.537 100.494 365.624 98.2615 365.624C95.9962 365.624 93.7317 365.534 91.4709 365.355C91.4291 365.966 91.3245 366.627 91.0149 367.224C90.911 367.424 90.7897 367.713 90.6694 367.999L90.6414 368.066L90.6063 368.15C90.4623 368.494 90.3149 368.847 90.1529 369.162C90.1039 369.257 90.0466 369.345 89.9805 369.428C87.3083 372.796 84.0615 375.235 80.9208 377.595L80.829 377.663C79.4065 378.733 77.9368 379.838 76.5305 381.025C75.0161 382.338 73.4676 384.54 73.4589 386.461C73.4559 387.3 73.752 388.009 74.364 388.621C80.5646 391.166 90.4834 389.496 92.2475 388.771C92.8283 388.53 93.4041 388.316 93.9629 388.107L94.0778 388.065C95.3938 387.575 96.6409 387.109 97.6926 386.439C104.011 382.072 104.436 374.515 104.847 367.207C104.881 366.599 104.916 365.979 104.955 365.363ZM119.347 370.967C119.532 374.738 118.887 377.539 117.559 381.624C116.833 383.988 115.016 386.125 113.26 388.191L113.252 388.201C109.355 392.784 107.965 395.124 111.068 398.214C111.381 398.452 115.855 401.692 123.598 399.529C124.242 399.214 124.912 398.94 125.592 398.71C126.391 398.327 127.136 397.84 127.799 397.267C127.805 397.261 127.811 397.257 127.817 397.252C127.822 397.247 127.828 397.242 127.834 397.236C132.316 393.578 135.204 388.472 135.965 382.856C136.64 378.057 136.926 374.053 136.809 371.15C135.872 371.177 134.948 371.193 134.043 371.203C133.069 371.212 132.092 371.217 131.115 371.217C127.199 371.217 123.265 371.134 119.347 370.967Z" fill="black"/>
<g clip-path="url(#clip1_845_2938)">
<path d="M123.512 109.905C123.771 112.807 124.958 119.364 129.374 118.381L129.848 119.1C129.632 123.602 127.351 126.777 123.777 130.067C120.145 133.357 115.513 135.334 110.625 135.682C106.315 135.998 101.732 134.966 98.5085 132.076C95.2846 129.185 93.5895 125.18 95.7242 121.746H96.0345C97.0058 121.775 97.8995 121.266 98.7212 120.749C99.767 120.088 101.925 117.379 102.572 116.6C103.434 115.482 103.784 111.244 104.227 109.905H123.512Z" fill="white"/>
<path d="M129.983 116.775C134.382 117.95 137.991 121.111 140.953 124.559C144.697 128.935 147.665 133.92 149.734 139.296C154.311 151.201 154.314 164.619 159.834 176.118C156.837 177.006 153.788 177.696 150.702 178.187L153.191 189.988C159.555 209.693 163.983 224.807 169.798 243.825C170.086 244.797 171.235 248.23 170.704 249.089C170.347 249.664 169.75 250.032 169.166 250.362C165.977 252.175 162.494 252.327 158.897 253.052L145.545 255.71C126.434 259.137 107.255 259.976 88.1095 256.747L84.4977 256.324L72.1425 253.96C71.0277 253.747 69.8036 253.463 69.1513 252.523C68.6111 251.753 68.6141 250.739 68.6542 249.799C68.8179 246.064 69.2489 242.357 69.6799 238.648L73.0792 209.34C74.5589 196.821 75.9956 184.25 78.0069 171.774L77.8689 171.716C74.5274 170.567 71.2374 169.291 67.9445 168.012C67.4905 167.883 67.0825 167.63 66.7608 167.286C66.1143 166.452 66.6688 165.257 67.2232 164.358C72.1166 156.399 76.3001 148.025 79.7309 139.334C82.3513 132.696 85.0869 125.229 91.4829 122.065L98.7324 119.031C98.1173 120.079 98.8961 123.071 99.7265 123.958C100.557 124.846 101.738 125.312 102.887 125.682C106.743 126.884 110.932 127.203 114.846 126.257C118.759 125.312 122.417 123.016 124.716 119.692C125.291 118.876 125.77 117.991 126.483 117.298C127.196 116.606 128.207 116.117 129.175 116.333L129.983 116.775Z" fill="white"/>
<path d="M137.773 179.377C138.287 198.148 139.692 216.859 141.985 235.507C140.086 235.625 138.118 236.082 136.675 237.32C135.233 238.558 134.503 240.768 135.394 242.452C136.603 244.725 139.919 244.995 141.471 247.049C142.488 248.4 142.528 250.21 143.042 251.83C143.505 253.27 144.355 254.552 145.505 255.531C146.654 256.511 148.053 257.155 149.545 257.385C151.039 257.614 152.565 257.425 153.955 256.836C155.346 256.247 156.547 255.281 157.42 254.052C159.699 250.839 159.366 246.526 158.938 242.613L151.955 178.946L137.773 179.377Z" fill="white"/>
<path d="M70.6575 169.751L66.379 220.687C66.2038 222.767 65.9251 225.065 64.3533 226.433C62.7816 227.801 60.0433 228.062 59.2589 230.039C58.3251 232.413 61.0807 234.507 61.9772 236.895C63.2616 240.306 60.6381 244.515 62.5517 247.624C63.724 249.538 66.1549 250.193 68.3646 250.589L68.5801 249.845C68.7439 246.11 69.1749 242.403 69.6059 238.694L73.005 209.386C74.5479 196.096 76.0937 182.784 78.2632 169.587L70.6575 169.751Z" fill="white"/>
<path d="M139.175 180.874C135.698 180.874 132.21 180.629 128.719 180.138C127.848 180.014 127.21 179.259 127.236 178.382L128.021 150.85C128.046 149.899 128.842 149.141 129.793 149.175C130.744 149.201 131.494 149.997 131.469 150.948L130.727 176.923C139.689 177.992 148.628 177.359 157.346 175.041C154.806 169.067 153.53 162.662 152.292 156.447C151.191 150.919 150.053 145.207 148.033 139.957C146.031 134.751 143.178 129.961 139.551 125.723C136.158 121.758 132.851 119.384 129.446 118.473C128.526 118.226 127.98 117.281 128.227 116.361C128.475 115.442 129.42 114.896 130.339 115.143C134.44 116.241 138.313 118.97 142.175 123.484C146.057 128.021 149.111 133.15 151.254 138.725C153.378 144.25 154.547 150.112 155.677 155.781C157.064 162.743 158.372 169.32 161.3 175.42C161.518 175.877 161.526 176.403 161.32 176.865C161.113 177.328 160.716 177.676 160.233 177.819C153.323 179.848 146.275 180.874 139.175 180.874Z" fill="black"/>
<path d="M77.7601 173.472C77.5732 173.472 77.3864 173.44 77.1998 173.377C73.8494 172.228 70.5106 170.932 67.2809 169.676L67.2751 169.673C66.5541 169.449 65.9017 169.041 65.3873 168.487C65.3529 168.449 65.3214 168.412 65.2897 168.372C64.307 167.105 64.4277 165.461 65.6459 163.481C70.4731 155.631 74.6396 147.301 78.0273 138.728L78.326 137.966C80.9236 131.363 83.8686 123.881 90.6181 120.545C91.4715 120.123 92.5059 120.473 92.9282 121.327C93.3506 122.18 93.0002 123.214 92.1468 123.637C86.5925 126.381 84.021 132.912 81.5356 139.228L81.2339 139.992C77.7743 148.753 73.516 157.263 68.5826 165.286C68.255 165.817 68.1429 166.131 68.1057 166.291C68.1688 166.329 68.2378 166.36 68.3125 166.381C68.3643 166.395 68.413 166.412 68.4619 166.429L68.5308 166.455C71.7289 167.696 75.0361 168.981 78.3204 170.107C79.2196 170.417 79.6996 171.397 79.392 172.297C79.1449 173.024 78.4755 173.472 77.7601 173.472Z" fill="black"/>
<path d="M82.5699 257.758C82.4635 257.758 82.3544 257.747 82.2452 257.727L71.7374 255.715C70.6054 255.488 68.7404 255.112 67.6601 253.577C66.8154 252.374 66.7981 250.989 66.8498 249.788C67.0164 245.989 67.4591 242.187 67.8842 238.513L71.3667 208.483C73.7344 188.218 76.1795 167.26 80.9435 147.04C81.1618 146.115 82.0872 145.537 83.0182 145.758C83.9433 145.977 84.518 146.905 84.2995 147.833C79.5816 167.86 77.1479 188.718 74.7917 208.888L71.3092 238.915C70.8898 242.532 70.4558 246.271 70.292 249.943C70.272 250.4 70.2347 251.256 70.4788 251.601C70.7661 252.009 71.7891 252.215 72.3983 252.336L82.8917 254.344C83.8254 254.523 84.4405 255.428 84.2594 256.362C84.1043 257.184 83.3802 257.758 82.5699 257.758Z" fill="black"/>
<path d="M112.766 260.551C104.178 260.551 95.8681 259.864 87.7308 258.491C86.7913 258.333 86.1592 257.442 86.3172 256.505C86.4753 255.566 87.3632 254.931 88.3028 255.092C106.017 258.08 124.61 257.741 145.146 254.057C146.083 253.888 146.979 254.511 147.146 255.451C147.315 256.388 146.692 257.284 145.752 257.451C134.227 259.517 123.288 260.551 112.766 260.551Z" fill="black"/>
<path d="M158.799 254.819C157.995 254.819 157.277 254.253 157.11 253.434C156.923 252.5 157.527 251.592 158.46 251.402C159.371 251.219 160.268 251.072 161.135 250.931C163.675 250.515 166.075 250.124 168.215 248.905C168.451 248.77 168.816 248.566 169.023 248.362C169.017 247.937 168.845 246.96 168.169 244.759C168.121 244.601 168.077 244.463 168.046 244.357C166.46 239.171 164.966 234.24 163.523 229.47C159.69 216.816 156.073 204.863 151.452 190.56C151.159 189.655 151.656 188.68 152.564 188.39C153.472 188.1 154.441 188.594 154.734 189.502C159.363 203.834 162.986 215.802 166.825 228.47C168.267 233.237 169.761 238.165 171.35 243.363C171.385 243.478 171.422 243.601 171.468 243.745C172.436 246.894 172.818 248.831 172.074 250.037C171.505 250.957 170.663 251.483 169.919 251.905C167.244 253.425 164.423 253.888 161.693 254.336C160.854 254.474 159.989 254.615 159.141 254.787C159.026 254.807 158.914 254.819 158.799 254.819Z" fill="black"/>
<path d="M150.789 259.203C150.286 259.203 149.783 259.166 149.28 259.089C147.47 258.81 145.777 258.034 144.384 256.842C142.99 255.652 141.959 254.1 141.399 252.356C141.206 251.747 141.077 251.155 140.956 250.581C140.741 249.569 140.551 248.696 140.094 248.086C139.609 247.446 138.709 246.98 137.755 246.489C136.356 245.768 134.77 244.952 133.87 243.262C132.666 240.984 133.388 237.869 135.551 236.013C136.715 235.013 138.229 234.341 140.065 234.004C137.899 215.946 136.548 197.591 136.049 179.425C136.023 178.474 136.773 177.681 137.724 177.655C137.741 177.655 137.755 177.655 137.773 177.655C138.703 177.655 139.471 178.397 139.497 179.331C140.008 197.964 141.422 216.793 143.697 235.297C143.755 235.768 143.617 236.243 143.312 236.61C143.008 236.975 142.568 237.199 142.094 237.228C140.189 237.346 138.744 237.817 137.801 238.628C136.862 239.435 136.468 240.788 136.922 241.645C137.313 242.38 138.252 242.863 139.338 243.423C140.534 244.041 141.89 244.739 142.85 246.009C143.769 247.227 144.068 248.624 144.332 249.857C144.444 250.374 144.548 250.862 144.689 251.308C145.051 252.437 145.723 253.445 146.628 254.221C147.533 254.994 148.637 255.5 149.812 255.681C150.99 255.862 152.191 255.712 153.289 255.25C154.386 254.784 155.328 254.026 156.018 253.055C157.883 250.426 157.656 246.704 157.228 242.8L150.246 179.132C150.142 178.187 150.826 177.334 151.771 177.23C152.722 177.127 153.57 177.811 153.673 178.756L160.656 242.423C161.035 245.891 161.61 251.132 158.831 255.049C157.771 256.543 156.32 257.709 154.633 258.425C153.409 258.942 152.105 259.203 150.789 259.203Z" fill="black"/>
<path d="M68.3675 252.313C68.2669 252.313 68.1635 252.305 68.06 252.284C65.4626 251.819 62.6036 251.009 61.0808 248.523C59.7331 246.331 60.0751 243.886 60.3768 241.731C60.5981 240.159 60.805 238.673 60.3624 237.501C60.124 236.86 59.6613 236.179 59.1758 235.455C58.0781 233.826 56.7133 231.801 57.6529 229.407C58.3884 227.551 60.0951 226.758 61.4629 226.12C62.1497 225.801 62.7962 225.499 63.2186 225.131C64.2672 224.218 64.4972 222.439 64.6581 220.54L68.9365 169.604C69.0168 168.656 69.853 167.952 70.7984 168.03C71.7466 168.11 72.4506 168.943 72.373 169.892L68.0945 220.827C67.882 223.356 67.5055 225.971 65.4826 227.729C64.6926 228.416 63.75 228.855 62.9169 229.243C61.9342 229.7 61.0864 230.094 60.8595 230.671C60.6009 231.326 61.1326 232.188 62.0346 233.527C62.6122 234.384 63.207 235.269 63.5892 236.286C64.3392 238.28 64.0461 240.366 63.7903 242.205C63.5375 244.015 63.319 245.578 64.0172 246.716C64.8305 248.041 66.8218 248.558 68.6664 248.888C69.603 249.055 70.2266 249.951 70.0599 250.888C69.9133 251.727 69.1864 252.313 68.3675 252.313Z" fill="black"/>
<path d="M94.1557 122.579C93.5206 122.579 92.9086 122.226 92.6097 121.62C92.1873 120.766 92.5379 119.732 93.3913 119.31L98.0433 117.011C98.8967 116.588 99.9311 116.939 100.353 117.792C100.776 118.646 100.425 119.68 99.5719 120.103L94.9199 122.401C94.6701 122.522 94.4113 122.579 94.1557 122.579Z" fill="black"/>
<path d="M109.97 128.565C107.447 128.565 104.85 128.162 102.275 127.358C100.887 126.909 99.4652 126.338 98.3677 125.165C96.9223 123.62 96.5833 121.401 97.5429 119.769C98.0257 118.947 99.0831 118.675 99.902 119.157C100.724 119.64 100.997 120.697 100.514 121.516C100.342 121.809 100.514 122.413 100.885 122.809C101.445 123.41 102.385 123.769 103.316 124.071C107.094 125.249 110.91 125.435 114.341 124.611C117.998 123.732 121.225 121.591 123.196 118.741C123.354 118.514 123.498 118.295 123.641 118.077C124.058 117.442 124.532 116.721 125.179 116.091C126.417 114.887 128.012 114.362 129.448 114.681C130.377 114.887 130.963 115.807 130.756 116.738C130.549 117.666 129.629 118.252 128.698 118.045C128.423 117.985 127.954 118.203 127.584 118.565C127.207 118.93 126.877 119.436 126.526 119.97C126.362 120.22 126.199 120.47 126.026 120.715C123.587 124.24 119.622 126.886 115.151 127.964C113.481 128.366 111.746 128.565 109.97 128.565Z" fill="black"/>
<path d="M110.881 132.702C109.513 132.702 108.214 132.645 107.033 132.57C104.565 132.418 101.726 132.136 99.2581 130.699C96.7325 129.231 93.9713 127.404 93.1838 124.303C92.9483 123.381 93.5058 122.441 94.4309 122.209C95.3533 121.973 96.2929 122.53 96.5256 123.456C96.9853 125.26 99.0713 126.605 100.991 127.72C102.807 128.777 105.171 129.001 107.243 129.13C110.8 129.349 114.972 129.415 118.915 128.251C122.949 127.062 125.676 123.036 126.943 120.743C127.402 119.91 128.451 119.608 129.284 120.068C130.118 120.528 130.419 121.577 129.96 122.41C128.437 125.165 125.104 130.021 119.889 131.558C116.869 132.452 113.722 132.702 110.881 132.702Z" fill="black"/>
<path d="M126.225 119.18C125.722 119.18 125.225 118.962 124.883 118.539C124.475 118.034 124.162 117.476 123.86 116.939C123.645 116.557 123.423 116.16 123.162 115.772C122.63 114.982 122.84 113.91 123.628 113.379C124.418 112.847 125.489 113.057 126.021 113.844C126.363 114.35 126.63 114.83 126.866 115.252C127.119 115.703 127.337 116.091 127.561 116.37C128.159 117.111 128.047 118.195 127.306 118.795C126.989 119.057 126.607 119.18 126.225 119.18Z" fill="black"/>
<path d="M98.7274 122.424C98.1326 122.424 97.5551 122.117 97.2361 121.565C96.7564 120.743 97.0379 119.686 97.8598 119.209C98.6556 118.746 99.2791 118.18 99.7359 117.769L99.8424 117.674C100.868 116.749 101.043 116.384 101.262 115.925C101.325 115.792 101.388 115.663 101.46 115.525C101.905 114.683 102.948 114.361 103.79 114.804C104.632 115.249 104.954 116.292 104.511 117.134C104.463 117.229 104.42 117.318 104.377 117.41C104 118.197 103.572 118.953 102.155 120.232L102.055 120.324C101.517 120.809 100.707 121.545 99.598 122.188C99.3194 122.349 99.0205 122.424 98.7274 122.424Z" fill="black"/>
</g>
<path d="M74.22 84.7175C71.5937 83.5337 69.9817 80.824 69.0624 78.1087C66.5223 70.5893 68.1256 62.0613 72.1884 55.2429C76.2515 48.4245 82.5583 43.1749 89.4284 39.178C94.747 36.0834 100.634 33.6295 106.792 33.5377C112.95 33.4457 119.395 36.0748 122.656 41.2957L126.733 44.8873C131.905 44.0972 136.942 46.9733 140.913 50.3812C145.798 54.5647 149.869 59.7943 152.168 65.7994C154.466 71.8047 154.9 78.6059 152.809 84.6858C150.906 90.2056 146.013 95.3918 140.192 94.9436" fill="black"/>
<path d="M103.333 115.002C103.195 112.008 103.224 109.874 103.414 106.882C99.8278 108.348 95.8626 107.744 92.1674 107.101C88.6246 106.477 85.3117 105.253 82.6365 102.765C77.6168 98.09 76.2835 90.7975 77.002 84.2347C77.2893 81.6286 78.3985 77.3245 80.2518 72.5576L82.4527 69.4313C84.6077 65.8857 87.3057 62.6101 90.7134 60.2366C94.1213 57.8633 98.2904 56.4669 102.422 56.8145C103.572 56.9123 104.758 57.1565 105.724 57.803C106.689 58.4495 107.408 59.5586 107.324 60.7165L111.669 63.2221C113.516 61.9606 116.234 62.9347 117.516 64.7824C118.797 66.6298 118.973 68.9975 118.895 71.2357C118.818 73.4741 118.53 75.7498 119.053 77.9248C119.504 79.6805 120.45 81.2694 121.78 82.5021C123.11 83.7347 124.765 84.5594 126.55 84.8756L128.797 84.7663C132.092 81.87 134.032 81.4821 136.196 82.574C139.276 84.1284 139.738 87.4155 139.069 90.1769C138.345 93.2225 136.414 95.8488 133.937 97.7194C132.687 98.6473 131.325 99.4203 129.886 100.018C129.179 100.317 128.458 100.581 127.725 100.811C126.9 101.073 126.067 101.064 125.679 101.868C123.972 105.426 123.245 108.802 123.579 112.732" fill="white"/>
<path d="M126.553 86.6137C126.452 86.6137 126.352 86.6051 126.248 86.5878C124.133 86.2114 122.182 85.2403 120.608 83.7805C119.033 82.3209 117.918 80.4476 117.384 78.3672C116.904 76.3673 117.007 74.4222 117.108 72.5372C117.131 72.0862 117.157 71.638 117.171 71.1897C117.232 69.4771 117.163 67.3135 116.099 65.7792C115.358 64.7103 113.648 63.9718 112.64 64.6614C111.853 65.1988 110.781 64.9947 110.244 64.2103C109.706 63.4231 109.91 62.3512 110.695 61.814C112.939 60.2824 116.783 60.7192 118.93 63.8166C120.573 66.1843 120.694 69.0662 120.616 71.3132C120.599 71.7845 120.576 72.2556 120.55 72.7269C120.458 74.4395 120.372 76.0542 120.728 77.5396C121.09 78.9533 121.861 80.2463 122.949 81.2579C124.038 82.2692 125.386 82.9388 126.849 83.2002C127.785 83.3668 128.412 84.2632 128.245 85.2C128.098 86.0275 127.372 86.6137 126.553 86.6137Z" fill="black"/>
<path d="M82.441 71.1668C82.1363 71.1668 81.829 71.0864 81.5501 70.9168C80.737 70.4227 80.4756 69.3624 80.9698 68.5491C83.4982 64.3771 86.4407 61.1073 89.7219 58.8316C93.7043 56.0674 98.2643 54.7457 102.557 55.1078C104.278 55.2543 105.586 55.6566 106.669 56.3807C108.226 57.4179 109.154 59.1736 109.034 60.8545C108.965 61.8055 108.143 62.5182 107.189 62.4492C106.241 62.3802 105.525 61.5555 105.594 60.6045C105.626 60.1649 105.275 59.596 104.758 59.2512C104.186 58.8689 103.37 58.6392 102.267 58.5471C98.7673 58.2513 95.0089 59.3602 91.6844 61.6676C88.8053 63.6674 86.1907 66.5838 83.915 70.3393C83.593 70.8709 83.0241 71.1668 82.441 71.1668Z" fill="black"/>
<path d="M140.893 96.682C140.612 96.682 140.333 96.6706 140.051 96.6503C139.103 96.5786 138.391 95.7482 138.465 94.8C138.537 93.8518 139.368 93.142 140.316 93.214C145.255 93.596 149.513 88.924 151.171 84.114C153.05 78.6518 152.829 72.3622 150.551 66.4058C148.499 61.0497 144.778 55.9553 139.784 51.6798C135.152 47.706 130.848 45.9906 126.986 46.5798C126.044 46.7233 125.165 46.0768 125.021 45.1372C124.877 44.1976 125.524 43.3156 126.463 43.1718C131.365 42.4219 136.601 44.4045 142.025 49.0623C147.45 53.7085 151.513 59.2798 153.769 65.1731C156.337 71.8851 156.573 79.0082 154.43 85.2374C153.343 88.3868 151.453 91.2628 149.102 93.3374C146.605 95.5327 143.784 96.6792 140.893 96.682Z" fill="black"/>
<path d="M74.2199 86.4269C73.9844 86.4269 73.7486 86.3782 73.5189 86.2776C70.8092 85.0708 68.7059 82.4331 67.4302 78.6431C64.8817 71.1264 66.1057 62.0409 70.7002 54.3433C74.513 47.9559 80.5212 42.3472 88.5522 37.6722C95.1982 33.8048 101.152 31.8854 106.758 31.7992C114.076 31.6871 120.739 34.9685 124.11 40.3674C124.615 41.1749 124.368 42.238 123.561 42.7438C122.753 43.2493 121.69 43.0024 121.185 42.1949C118.489 37.8821 112.852 35.1582 106.809 35.2472C101.813 35.3248 96.4078 37.0918 90.2876 40.6547C82.7652 45.0337 77.1708 50.2345 73.6596 56.1134C69.5738 62.9546 68.4646 70.9656 70.6944 77.5427C71.3639 79.5339 72.6397 82.1141 74.921 83.1313C75.7916 83.5192 76.1825 84.5363 75.7946 85.4069C75.5101 86.0448 74.8779 86.4269 74.2199 86.4269Z" fill="black"/>
<path d="M123.575 112.747C122.69 112.747 121.935 112.069 121.86 111.166C121.495 106.839 122.337 104.859 124.124 101.136C124.779 99.7764 126.018 99.4775 126.759 99.2995C126.92 99.2592 127.072 99.2247 127.205 99.1816C127.888 98.9661 128.563 98.719 129.216 98.4431C130.535 97.8973 131.773 97.1932 132.911 96.3485C135.204 94.6158 136.801 92.2856 137.393 89.7917C137.698 88.5359 138.112 85.4845 135.419 84.1253C134.244 83.5305 133.092 83.2978 129.934 86.0734C129.219 86.7027 128.13 86.6309 127.5 85.9155C126.871 85.2 126.943 84.1111 127.658 83.4818C132.192 79.4964 134.813 79.9562 136.971 81.0452C140.316 82.7347 141.761 86.3924 140.744 90.5933C139.968 93.8573 137.919 96.8829 134.977 99.1041C133.603 100.124 132.115 100.969 130.546 101.618C129.802 101.931 129.023 102.219 128.239 102.463C128 102.538 127.77 102.595 127.569 102.644C127.443 102.676 127.279 102.713 127.173 102.748C125.521 106.196 125.009 107.491 125.296 110.87C125.377 111.819 124.673 112.652 123.725 112.732C123.673 112.744 123.624 112.747 123.575 112.747Z" fill="black"/>
<path d="M103.333 115.29C102.416 115.29 101.655 114.568 101.612 113.643C101.52 111.62 101.5 110.603 101.557 109.215C98.1033 109.882 94.5864 109.27 91.8739 108.796C87.4921 108.023 84.0872 106.463 81.4637 104.023C76.6423 99.5323 74.3925 92.2512 75.289 84.0422C75.6252 80.9993 76.8779 76.4708 78.645 71.9281C78.9898 71.0402 79.9897 70.6006 80.8775 70.9454C81.7654 71.2902 82.205 72.2901 81.8602 73.178C79.9007 78.2179 78.9525 82.2893 78.7169 84.4185C77.9381 91.53 79.7944 97.7566 83.8142 101.498C85.9633 103.498 88.7131 104.736 92.4686 105.397C96.3073 106.066 99.7353 106.517 102.764 105.279C103.313 105.055 103.939 105.13 104.422 105.474C104.904 105.822 105.175 106.391 105.137 106.983C104.953 109.873 104.922 110.511 105.06 113.476C105.103 114.428 104.367 115.235 103.416 115.278C103.384 115.29 103.358 115.29 103.333 115.29Z" fill="black"/>
<path d="M88.7622 80.4821C89.8731 80.4821 90.7735 79.3887 90.7735 78.0399C90.7735 76.6909 89.8731 75.5974 88.7622 75.5974C87.6513 75.5974 86.751 76.6909 86.751 78.0399C86.751 79.3887 87.6513 80.4821 88.7622 80.4821Z" fill="black"/>
<path d="M98.5318 81.1572C99.6427 81.1572 100.543 80.0638 100.543 78.7147C100.543 77.3659 99.6427 76.2725 98.5318 76.2725C97.4211 76.2725 96.5205 77.3659 96.5205 78.7147C96.5205 80.0638 97.4211 81.1572 98.5318 81.1572Z" fill="black"/>
<path d="M130.024 49.1345C124.313 51.0309 118.667 49.9103 110.758 49.9749C101.88 50.0611 99.1428 49.8456 93.3243 46.9364C89.1436 37.8854 90.8245 33.2952 92.8071 23.6839C96.018 26.8302 98.8411 28.9206 101.793 32.2824C104.94 27.6276 112.245 21.8953 112.245 21.8953L120.434 32.1531C120.434 32.1531 125.886 30.2567 131.36 26.0975C131.963 36.0967 132.933 39.8895 130.045 49.1345H130.024Z" fill="#FFD30D"/>
<path d="M121.858 51.9758C120.371 51.9758 118.841 51.9109 117.225 51.8463C115.199 51.7601 113.087 51.6954 110.76 51.717C101.536 51.8032 98.5624 51.5015 92.5284 48.506C92.1836 48.3336 91.9035 48.0535 91.7311 47.6871C87.7228 39.0456 88.7787 34.1968 90.5027 26.1587C90.6967 25.2751 90.8906 24.3485 91.0846 23.3572C91.2139 22.7322 91.6664 22.2366 92.2698 22.0642C92.8732 21.8918 93.5197 22.0426 93.9723 22.4736C95.1575 23.6373 96.2997 24.6717 97.4203 25.663C98.8426 26.9345 100.222 28.1628 101.623 29.6067C105.2 25.232 110.867 20.7497 111.148 20.5342C111.902 19.9524 112.979 20.0817 113.561 20.8144L120.953 30.0808C122.763 29.3265 126.534 27.5594 130.284 24.7364C130.801 24.3485 131.469 24.2838 132.051 24.5424C132.633 24.801 133.021 25.3613 133.042 26.008C133.129 27.6027 133.236 29.0464 133.344 30.3825C133.861 37.3647 134.163 41.5885 131.663 49.6697C131.491 50.2085 131.081 50.6179 130.564 50.7903C127.698 51.7385 124.875 51.9971 121.858 51.9971V51.9758ZM111.557 48.269C113.647 48.269 115.522 48.3336 117.376 48.4198C121.729 48.5922 125.22 48.7215 128.646 47.7733C130.672 40.8989 130.413 37.1707 129.918 30.6411C129.896 30.2101 129.853 29.7575 129.81 29.2834C125.177 32.3004 121.168 33.7227 120.974 33.7874C120.285 34.0244 119.509 33.7874 119.056 33.2271L111.945 24.3485C109.747 26.2018 105.351 30.0592 103.196 33.2702C102.894 33.7227 102.42 34.0029 101.881 34.0244C101.342 34.046 100.825 33.8522 100.48 33.4428C98.7133 31.4386 96.9893 29.8868 95.136 28.2275C94.705 27.8396 94.274 27.4517 93.843 27.0638C92.2698 34.3477 91.4294 38.4853 94.6188 45.683C99.6615 48.1181 102.204 48.3552 110.738 48.269C111.018 48.269 111.277 48.269 111.557 48.269Z" fill="black"/>
<path d="M92.2647 28.4221C91.0579 28.6592 89.8511 27.8834 89.0537 26.9352C88.6012 26.3964 88.2133 25.793 88.1055 25.1034C87.9116 23.8751 88.6443 22.6683 89.614 21.914C90.5838 21.1598 91.8121 20.815 92.9974 20.4702C93.4284 20.3409 93.9025 20.2116 94.3335 20.3409C94.7214 20.4487 95.0231 20.7504 95.3248 21.0305C95.8851 21.5908 96.4454 22.1511 96.7686 22.8622C97.3505 24.1121 97.0488 25.6853 96.1868 26.7628C95.3248 27.8403 93.9671 28.4652 92.5879 28.5514C92.2647 28.573 91.8552 28.4652 92.2431 28.4221H92.2647Z" fill="#FFD30D"/>
<path d="M92.4624 30.2753C92.2038 30.2753 91.9452 30.2537 91.7297 30.1891C90.3074 30.1675 88.8635 29.3917 87.7214 28.0556C86.9671 27.1721 86.5361 26.2885 86.3853 25.3834C86.1051 23.6379 86.9456 21.7846 88.5618 20.5563C89.8117 19.6081 91.234 19.1986 92.5055 18.8323C93.0011 18.6814 93.8631 18.4228 94.8113 18.703C95.6302 18.94 96.1905 19.4788 96.5353 19.8236C97.2465 20.5132 97.9145 21.2243 98.3455 22.1725C99.1644 23.9827 98.8627 26.2239 97.5482 27.8617C96.4276 29.2624 94.6605 30.1675 92.721 30.2968C92.6348 30.2968 92.5486 30.2968 92.4624 30.2968V30.2753ZM92.2684 26.698C92.4624 26.698 92.6348 26.7195 92.8287 26.7842C93.6692 26.6549 94.4234 26.2454 94.876 25.6636C95.3716 25.0386 95.5009 24.1766 95.2208 23.5517C95.0268 23.1207 94.6174 22.6897 94.1217 22.2156C94.0355 22.1294 93.8847 21.9785 93.7985 21.9354C93.8631 21.9785 93.6045 22.0647 93.4752 22.0863C92.4408 22.388 91.3849 22.6897 90.6306 23.2715C90.0488 23.7025 89.704 24.3275 89.7902 24.8016C89.8333 25.0817 90.0272 25.405 90.3505 25.7929C90.8892 26.4178 91.5142 26.7842 91.9236 26.698C91.9883 26.698 92.0314 26.698 92.096 26.6764C92.1391 26.6764 92.2038 26.6764 92.2469 26.6764L92.2684 26.698Z" fill="black"/>
<path d="M111.402 24.4378C110.217 23.3603 108.428 22.6707 108.126 21.0976C107.954 20.1494 108.45 19.2012 109.075 18.4469C110.152 17.1755 112.027 16.2919 113.492 17.1108C114.053 17.4341 115.259 17.9513 115.626 18.49C116.272 19.4598 116.983 20.9683 116.639 22.0888C116.359 23.037 114.591 23.3818 113.708 23.8344C113.191 24.1145 112.609 24.33 112.027 24.2438C111.445 24.1576 110.885 23.6835 111.38 24.4162L111.402 24.4378Z" fill="#FFD30D"/>
<path d="M111.339 26.1409C110.951 26.1409 110.563 26.0116 110.24 25.7099C109.939 25.4513 109.594 25.2142 109.249 24.9772C108.128 24.2014 106.749 23.2101 106.426 21.4215C106.189 20.0854 106.663 18.6415 107.762 17.3485C109.314 15.5383 112.072 14.3531 114.335 15.6245L114.701 15.8185C115.692 16.3357 116.554 16.8098 117.05 17.564C117.61 18.4045 118.882 20.6026 118.3 22.6067C117.847 24.1152 116.339 24.6755 115.218 25.1065C114.96 25.2142 114.701 25.3004 114.529 25.3866C113.947 25.6883 113.063 26.0978 112.029 25.99C111.813 26.0978 111.576 26.1409 111.339 26.1409ZM111.49 22.3265C111.684 22.3481 111.878 22.3912 112.094 22.4774C112.266 22.542 112.417 22.5636 112.912 22.305C113.193 22.1541 113.58 22.0033 113.968 21.8524C114.249 21.7447 114.723 21.5723 114.981 21.4215C114.981 21.0336 114.744 20.3009 114.162 19.4604C114.055 19.3527 113.408 19.0294 113.085 18.8786L112.611 18.62C112.072 18.3183 111.038 18.7493 110.348 19.5682C109.96 20.0207 109.723 20.5164 109.788 20.775C109.852 21.1844 110.542 21.6585 111.21 22.1326C111.296 22.1972 111.382 22.2403 111.469 22.305L111.49 22.3265Z" fill="black"/>
<path d="M131.337 28.1857C129.807 28.315 128.234 27.3022 127.695 25.8583C127.157 24.4145 127.695 22.6258 128.945 21.7207C129.721 21.1605 130.669 20.9234 131.639 20.9019C132.415 20.9019 133.255 21.0312 133.773 21.613C133.837 21.6776 133.923 21.7854 134.01 21.8931C134.872 22.8198 135.453 24.005 135.604 25.2765C135.604 25.4704 135.626 25.6428 135.626 25.7937C135.583 26.6772 134.333 27.4099 133.665 27.9702C132.997 28.5305 131.941 28.6814 131.359 28.2073L131.337 28.1857Z" fill="#FFD30D"/>
<path d="M132.262 30.214C131.788 30.214 131.314 30.1278 130.883 29.9338C128.793 29.8476 126.832 28.4684 126.077 26.4858C125.258 24.3093 126.034 21.7233 127.909 20.3656C128.879 19.6544 130.15 19.245 131.573 19.2019C133.512 19.1803 134.525 19.8915 135.064 20.538L135.258 20.7535C136.4 21.9819 137.132 23.5335 137.305 25.1282C137.326 25.4083 137.348 25.6669 137.326 25.904C137.262 27.3909 136.012 28.3607 135.171 29.0072C135.02 29.1149 134.891 29.2227 134.762 29.3304C134.051 29.9554 133.124 30.2786 132.241 30.2786L132.262 30.214ZM131.357 26.4643C131.702 26.4643 132.025 26.572 132.327 26.766C132.391 26.766 132.478 26.7229 132.542 26.6582C132.715 26.5289 132.887 26.3781 133.103 26.2057C133.34 26.0333 133.727 25.7316 133.9 25.5161C133.9 25.4945 133.9 25.473 133.9 25.4514C133.814 24.5894 133.404 23.749 132.758 23.0594C132.628 22.9301 132.521 22.8008 132.456 22.7146C132.435 22.7146 132.197 22.5853 131.702 22.6068C131.206 22.6068 130.517 22.7146 129.999 23.1025C129.374 23.555 129.094 24.5248 129.353 25.2575C129.611 25.9902 130.495 26.5074 131.249 26.4643C131.292 26.4643 131.335 26.4643 131.379 26.4643H131.357Z" fill="black"/>
</g>
<path d="M60.9029 241.844L2 200.521" stroke="black" stroke-width="3" stroke-linecap="round"/>
<path d="M53.0892 236.17C56.3516 231.441 55.1623 224.962 50.4329 221.7C45.7035 218.437 39.2249 219.627 35.9626 224.356C32.7003 229.086 33.8896 235.564 38.619 238.826C43.3484 242.089 49.8269 240.899 53.0892 236.17Z" fill="#4CAF50" stroke="black" stroke-width="3"/>
<path d="M37.4916 225.412C40.7539 220.683 39.5646 214.204 34.8352 210.942C30.1058 207.679 23.6273 208.869 20.3649 213.598C17.1026 218.327 18.2919 224.806 23.0213 228.068C27.7507 231.331 34.2293 230.141 37.4916 225.412Z" fill="#FFC0CB" stroke="black" stroke-width="3"/>
<path d="M19.2387 200.183C23.9681 203.445 25.1574 209.924 21.8951 214.653C18.6328 219.383 12.1542 220.572 7.42479 217.31C2.69536 214.047 1.50605 207.569 4.76838 202.839C8.03069 198.11 14.5093 196.92 19.2387 200.183Z" fill="#FFFFF0" stroke="black" stroke-width="3"/>
<defs>
<clipPath id="clip0_845_2938">
<rect width="172.4" height="413.76" fill="white" transform="translate(26)"/>
</clipPath>
<clipPath id="clip1_845_2938">
<rect width="172.4" height="172.4" fill="white" transform="translate(26 109.905)"/>
</clipPath>
</defs>
</svg>
