<svg width="199" height="414" viewBox="0 0 199 414" fill="none" xmlns="http://www.w3.org/2000/svg">
<path d="M60.9029 241.844L2 200.521" stroke="black" stroke-width="3" stroke-linecap="round"/>
<path d="M53.0888 236.17C56.3511 231.441 55.1618 224.962 50.4324 221.7C45.703 218.437 39.2244 219.627 35.9621 224.356C32.6998 229.086 33.8891 235.564 38.6185 238.826C43.3479 242.089 49.8264 240.899 53.0888 236.17Z" fill="#4CAF50" stroke="black" stroke-width="3"/>
<path d="M37.4921 225.412C40.7544 220.683 39.5651 214.204 34.8357 210.942C30.1063 207.679 23.6277 208.869 20.3654 213.598C17.1031 218.327 18.2924 224.806 23.0218 228.068C27.7512 231.331 34.2298 230.141 37.4921 225.412Z" fill="#FFC0CB" stroke="black" stroke-width="3"/>
<path d="M19.2387 200.183C23.9681 203.445 25.1574 209.924 21.8951 214.653C18.6328 219.383 12.1542 220.572 7.42479 217.31C2.69536 214.047 1.50605 207.569 4.76838 202.839C8.03069 198.11 14.5093 196.92 19.2387 200.183Z" fill="#FFFFF0" stroke="black" stroke-width="3"/>
<g clip-path="url(#clip0_845_2937)">
<path d="M117.533 369.61C117.921 373.764 117.386 376.425 115.909 380.964C114.056 387.031 102.979 392.445 109.875 399.241C110.163 399.517 115.32 403.463 124.242 400.903C124.889 400.575 125.561 400.297 126.253 400.071C127.23 399.614 128.138 399.028 128.949 398.329C133.75 394.411 136.862 388.909 137.675 382.897C138.29 378.519 138.804 373.246 138.436 369.497" fill="black"/>
<path d="M89.788 364.26C89.768 364.922 89.768 365.753 89.4805 366.307C89.1933 366.86 88.906 367.691 88.6185 368.245C84.8833 372.953 79.9985 375.722 75.4013 379.599C72.528 382.091 69.942 386.799 73.39 389.845C80.0992 392.783 90.7449 391.021 92.9285 390.122C94.94 389.291 96.9513 388.737 98.6753 387.629C106.721 382.091 106.146 372.122 106.778 363.878" fill="black"/>
<path d="M112.884 362.477C113.036 364.637 113.323 366.575 113.323 368.791C122.805 369.345 132.575 369.622 142.057 369.068C146.14 368.741 150.131 367.711 153.837 366.022C158.147 338.607 158.435 310.638 155.849 282.669C155.849 281.839 156.136 280.731 155.849 279.9C155.561 278.516 155.561 277.408 155.274 276.023V273.254C152.401 247.501 148.378 222.578 143.206 197.656C123.093 198.21 103.267 199.317 83.1534 199.871C74.2634 238.85 71.0712 278.837 73.6714 318.669C73.6227 319.967 73.7203 321.266 73.9589 322.546C74.4989 330.296 75.7519 337.989 77.6942 345.53C78.2689 347.468 78.8434 349.684 79.7054 351.622C81.1422 355.222 83.1534 358.822 84.5902 362.422C90.0494 363.806 95.7962 364.083 101.543 363.806C104.703 363.529 108.151 363.529 111.45 362.751L112.884 362.477Z" fill="black"/>
<path fill-rule="evenodd" clip-rule="evenodd" d="M141.62 197.949C152.141 251.532 160.71 308.824 152.359 364.886C146.617 367.352 139.887 367.638 134.003 367.705C127.705 367.772 121.334 367.617 115.045 367.245C114.476 360.896 113.872 354.494 113.286 348.288C110.68 320.679 107.988 292.132 108.114 264.144C108.163 254.299 107.114 244.577 99.1983 240.118C98.3763 239.656 97.3191 239.922 96.8392 240.714C96.3565 241.506 96.6351 242.525 97.457 242.987C103.864 246.595 104.709 255.279 104.666 264.127C104.54 292.27 107.24 320.896 109.852 348.58L110.052 350.707C110.375 354.146 110.703 357.635 111.026 361.132C102.72 362.428 94.3081 362.453 86.001 361.209C76.9673 344.004 75.5364 326.849 74.9099 312.086C73.3266 274.592 76.6195 236.964 84.6964 200.253C84.8947 199.356 84.2999 198.475 83.3689 198.284C82.438 198.093 81.5242 198.666 81.326 199.564C73.1887 236.546 69.873 274.451 71.4647 312.222C72.1142 327.555 73.6227 345.422 83.3344 363.482C83.5844 363.947 84.0471 364.271 84.5815 364.357C85.7323 364.541 86.8848 364.702 88.0388 364.839C88.0235 365.134 87.9946 365.438 87.9347 365.562C87.7727 365.877 87.6253 366.23 87.4813 366.575L87.4462 366.658C87.3427 366.91 87.2335 367.168 87.1389 367.37C84.757 370.327 81.8665 372.499 78.8066 374.797L78.7372 374.849C77.2703 375.951 75.7512 377.093 74.2462 378.364C72.209 380.13 70.028 383.135 70.0137 386.27C70.0051 388.125 70.7693 389.784 72.2233 391.069C72.3554 391.188 72.5077 391.285 72.6745 391.357C75.7288 392.694 79.4296 393.148 82.892 393.148C87.7509 393.148 92.1383 392.254 93.6067 391.653C94.1698 391.421 94.7559 391.202 95.3221 390.991L95.3402 390.985C96.7769 390.449 98.2615 389.897 99.629 389.017C99.6385 389.01 99.6491 389.004 99.6592 388.997C99.6646 388.994 99.67 388.99 99.6752 388.986C107.36 383.697 107.855 374.947 108.291 367.227L108.308 366.938C108.348 366.22 108.388 365.527 108.433 364.845C109.4 364.73 110.366 364.599 111.33 364.45C111.467 365.953 111.602 367.454 111.735 368.951C111.809 369.771 112.487 370.413 113.338 370.469C114.186 370.524 115.035 370.575 115.886 370.622C116.105 374.105 115.561 376.488 114.266 380.466C114.263 380.474 114.26 380.485 114.257 380.493C113.729 382.221 112.131 384.101 110.585 385.918L110.568 385.938C108.85 387.962 107.074 390.052 106.307 392.368C105.359 395.234 106.143 397.939 108.657 400.414C108.698 400.457 112.137 403.429 118.424 403.429C120.283 403.429 122.392 403.168 124.736 402.491C124.843 402.461 124.946 402.42 125.044 402.37C125.61 402.084 126.202 401.838 126.808 401.642C126.874 401.618 126.943 401.595 127.006 401.565C128.121 401.043 129.156 400.375 130.081 399.582C135.212 395.389 138.517 389.54 139.384 383.119C140.096 378.061 140.388 373.932 140.256 370.814C144.988 370.495 149.903 369.702 154.378 367.65C154.552 367.57 154.705 367.465 154.837 367.342C155.263 367.094 155.574 366.671 155.651 366.16C164.276 309.359 155.633 251.45 145.008 197.332C144.833 196.429 143.93 195.839 142.993 196.008C142.057 196.18 141.442 197.047 141.62 197.949ZM104.955 365.188C102.726 365.362 100.494 365.448 98.2615 365.448C95.9962 365.448 93.7317 365.359 91.4709 365.18C91.4291 365.791 91.3245 366.452 91.0149 367.049C90.911 367.249 90.7897 367.538 90.6694 367.824L90.6414 367.891L90.6063 367.975C90.4623 368.319 90.3149 368.672 90.1529 368.987C90.1039 369.082 90.0466 369.17 89.9805 369.253C87.3083 372.621 84.0615 375.06 80.9208 377.419L80.829 377.488C79.4065 378.558 77.9368 379.663 76.5305 380.85C75.0161 382.163 73.4676 384.365 73.4589 386.286C73.4559 387.125 73.752 387.834 74.364 388.446C80.5646 390.991 90.4834 389.321 92.2475 388.596C92.8283 388.355 93.4041 388.141 93.9629 387.932L94.0778 387.89C95.3938 387.399 96.6409 386.934 97.6926 386.264C104.011 381.897 104.436 374.34 104.847 367.032C104.881 366.424 104.916 365.804 104.955 365.188ZM119.347 370.792C119.532 374.563 118.887 377.364 117.559 381.449C116.833 383.813 115.016 385.95 113.26 388.016L113.252 388.026C109.355 392.609 107.965 394.948 111.068 398.039C111.381 398.277 115.855 401.517 123.598 399.354C124.242 399.039 124.912 398.765 125.592 398.535C126.391 398.152 127.136 397.665 127.799 397.092C127.805 397.086 127.811 397.081 127.817 397.077C127.822 397.072 127.828 397.067 127.834 397.061C132.316 393.403 135.204 388.297 135.965 382.681C136.64 377.882 136.926 373.878 136.809 370.975C135.872 371.002 134.948 371.018 134.043 371.028C133.069 371.037 132.092 371.042 131.115 371.042C127.199 371.042 123.265 370.959 119.347 370.792Z" fill="black"/>
<g clip-path="url(#clip1_845_2937)">
<path d="M123.512 109.905C123.771 112.807 124.958 119.364 129.374 118.381L129.848 119.1C129.632 123.602 127.351 126.777 123.777 130.067C120.145 133.357 115.513 135.334 110.625 135.682C106.315 135.998 101.732 134.966 98.5085 132.076C95.2846 129.185 93.5895 125.18 95.7242 121.746H96.0345C97.0058 121.775 97.8995 121.266 98.7212 120.749C99.767 120.088 101.925 117.379 102.572 116.6C103.434 115.482 103.784 111.244 104.227 109.905H123.512Z" fill="white"/>
<path d="M129.888 116.801C134.971 118.163 138.914 122.079 142.089 126.091C145.551 130.469 148.266 135.389 150.128 140.65C151.171 143.589 152.82 146.896 153.501 149.936L154.41 152.718C159.329 173.903 160.208 195.754 160.53 217.54L160.817 217.868C162.587 224.344 169.196 240.722 170.632 247.618C170.678 248.207 170.581 248.799 170.345 249.342C167.472 252.79 162.587 251.928 158.809 253.1L145.456 255.758C126.346 259.186 107.166 260.025 88.0211 256.796L84.4093 256.373L72.0541 254.008C70.9391 253.796 69.715 253.511 69.0629 252.572C68.5227 251.802 68.5255 250.788 68.5658 249.848C68.7295 246.112 69.1605 242.406 69.5915 238.696L71.5627 221.704H71.4132C68.494 221.347 66.1494 220.994 63.23 220.64C64.4396 207.294 65.9912 193.982 67.8848 180.701C69.5312 169.136 71.4476 157.568 74.8497 146.393C77.8726 136.463 82.6681 126.194 91.7736 121.214L104.416 122.076L129.888 116.801Z" fill="white"/>
<path d="M139.767 234.875C137 235.768 133.417 238.938 135.744 242.007C137.034 243.699 138.977 244.61 140.761 245.67C142.137 246.489 142.499 249.245 143.034 250.707C144.376 254.393 146.99 257.408 151.266 257.132C155.622 256.844 158.331 253.135 159.159 249.132C160.058 244.794 158.872 239.162 158.15 234.875H139.767Z" fill="white"/>
<path d="M68.5567 250.624C65.6632 250.511 62.8761 248.762 61.7269 246.176C62.0141 241.578 62.8761 236.119 59.1409 232.384C58.5661 230.085 60.2901 228.361 62.3014 227.611L70.9214 227.16L68.5567 250.624Z" fill="white"/>
<path d="M104.442 122.094L107.195 134.041C111.571 132.504 115.958 130.964 120.125 128.926C121.625 128.194 123.13 127.366 124.216 126.099C125.501 124.602 126.075 122.651 126.618 120.746C127.434 117.873 128.256 114.999 128.526 112.02C124.969 112.293 121.682 113.928 118.498 115.534C114.272 117.663 110.045 119.798 104.442 122.094Z" fill="white"/>
<path d="M101.425 116.37L100.29 118.45C100.135 118.887 100.074 119.353 100.106 119.815C100.302 121.154 101.896 121.706 103.218 121.985C101.733 125.55 99.5861 128.806 96.8967 131.579C95.4082 129.981 94.2762 128.087 93.575 126.019C92.8739 123.95 92.624 121.758 92.8367 119.585L101.425 115.292C101.959 116.169 101.741 116.634 101.425 116.37Z" fill="white"/>
<path d="M137.071 227.35C136.617 229.548 136.468 231.795 136.623 234.033C136.617 234.162 136.635 234.292 136.681 234.412C136.727 234.533 136.796 234.645 136.885 234.74C137.066 234.849 137.278 234.898 137.488 234.875L157.027 234.82C157.323 234.843 157.619 234.789 157.889 234.665C158.44 234.352 158.484 233.587 158.464 232.941L158.257 227.645L137.071 227.35Z" fill="white"/>
<path d="M64.1144 221.232C63.192 223.172 63.0054 225.37 62.833 227.511C65.2781 228.255 67.8182 228.643 70.3725 228.66L71.2806 221.902L64.1144 221.232Z" fill="white"/>
<path d="M153.498 151.66C152.708 151.66 151.998 151.114 151.817 150.313C151.404 148.468 150.573 146.434 149.769 144.465C149.329 143.394 148.878 142.284 148.502 141.227C146.697 136.13 144.085 131.397 140.735 127.159C138.29 124.07 134.46 119.812 129.44 118.465C128.52 118.217 127.974 117.272 128.222 116.353C128.469 115.433 129.414 114.887 130.333 115.134C136.342 116.743 140.692 121.548 143.439 125.019C147.025 129.556 149.823 134.618 151.751 140.072C152.099 141.052 152.519 142.075 152.961 143.158C153.82 145.258 154.705 147.431 155.182 149.557C155.389 150.485 154.806 151.407 153.877 151.617C153.751 151.646 153.625 151.66 153.498 151.66Z" fill="black"/>
<path d="M81.8177 257.615C81.7112 257.615 81.6022 257.603 81.4929 257.583L71.7379 255.715C70.6058 255.488 68.7411 255.112 67.6606 253.577C66.8158 252.374 66.7986 250.989 66.8503 249.788C67.0171 245.989 67.4595 242.187 67.8847 238.513L71.3672 208.483C73.7349 188.218 76.1802 167.26 80.944 147.04C81.1625 146.115 82.0905 145.537 83.0186 145.758C83.9438 145.977 84.5185 146.905 84.3002 147.833C79.5821 167.86 77.1484 188.718 74.7924 208.888L71.3099 238.915C70.8903 242.532 70.4565 246.271 70.2927 249.943C70.2725 250.4 70.2352 251.256 70.4793 251.601C70.7668 252.008 71.7896 252.215 72.3988 252.336L82.1394 254.201C83.0732 254.379 83.6882 255.284 83.5072 256.218C83.349 257.04 82.6279 257.615 81.8177 257.615Z" fill="black"/>
<path d="M112.766 260.551C104.178 260.551 95.8681 259.864 87.7308 258.491C86.7913 258.333 86.1592 257.442 86.3172 256.505C86.4753 255.566 87.3632 254.931 88.3028 255.092C106.017 258.08 124.61 257.741 145.146 254.057C146.083 253.888 146.979 254.511 147.146 255.451C147.315 256.388 146.692 257.284 145.752 257.451C134.227 259.517 123.288 260.551 112.766 260.551Z" fill="black"/>
<path d="M158.803 254.819C158.067 254.819 157.386 254.344 157.156 253.606C156.875 252.695 157.383 251.73 158.291 251.448C159.656 251.026 161.096 250.845 162.486 250.672C165.072 250.351 167.322 250.069 168.833 248.44C168.891 248.247 168.917 248.043 168.911 247.842C168.075 243.94 165.515 236.783 163.254 230.458C161.535 225.651 159.909 221.112 159.147 218.319C158.897 217.399 159.438 216.451 160.357 216.201C161.274 215.951 162.225 216.491 162.475 217.411C163.205 220.077 164.805 224.557 166.503 229.298C168.94 236.11 171.46 243.156 172.316 247.265C172.33 247.336 172.342 247.408 172.348 247.483C172.414 248.348 172.267 249.227 171.925 250.023C171.859 250.175 171.773 250.316 171.667 250.443C169.285 253.301 165.903 253.724 162.917 254.095C161.619 254.255 160.389 254.411 159.317 254.744C159.145 254.793 158.972 254.819 158.803 254.819Z" fill="black"/>
<path d="M150.734 259.336C146.559 259.336 143.186 256.606 141.419 251.753C141.261 251.316 141.126 250.828 140.985 250.31C140.784 249.578 140.316 247.863 139.887 247.61C139.583 247.429 139.278 247.253 138.971 247.078C137.417 246.19 135.655 245.182 134.379 243.504C133 241.693 133.101 240.061 133.428 239.013C134.167 236.656 136.73 235.073 138.885 234.378C139.79 234.088 140.764 234.582 141.054 235.49C141.344 236.398 140.85 237.369 139.942 237.659C138.344 238.177 136.988 239.179 136.718 240.044C136.667 240.208 136.531 240.642 137.12 241.415C137.974 242.535 139.29 243.288 140.68 244.084C141.005 244.271 141.33 244.455 141.649 244.644C143.272 245.607 143.847 247.71 144.31 249.397C144.43 249.842 144.548 250.265 144.657 250.569C145.588 253.124 147.467 256.109 151.162 255.87C153.59 255.71 156.521 253.885 157.484 249.245C158.222 245.673 157.553 241.828 156.906 238.108C156.829 237.659 156.751 237.214 156.676 236.768C156.518 235.829 157.151 234.941 158.09 234.783C159.03 234.622 159.918 235.257 160.075 236.197C160.15 236.636 160.225 237.076 160.303 237.519C161.004 241.556 161.731 245.73 160.86 249.946C159.745 255.33 156.03 259.008 151.392 259.313C151.171 259.33 150.95 259.336 150.734 259.336Z" fill="black"/>
<path d="M68.3584 252.322C68.3384 252.322 68.3184 252.322 68.3011 252.322C66.5713 252.264 64.8962 251.727 63.4567 250.765C62.0171 249.805 60.8763 248.466 60.1608 246.891C60.0432 246.633 59.9914 246.351 60.0087 246.069C60.0373 245.593 60.0746 245.104 60.1121 244.61C60.4108 240.573 60.7183 236.398 57.9254 233.602C57.7041 233.381 57.549 233.105 57.4714 232.8C56.7559 229.939 58.4571 227.203 61.7038 225.993C62.5947 225.66 63.5888 226.114 63.9222 227.008C64.2553 227.898 63.8015 228.893 62.9078 229.226C62.5171 229.372 60.7039 230.128 60.7614 231.582C64.2467 235.455 63.8618 240.656 63.5515 244.863C63.5284 245.187 63.5026 245.506 63.4825 245.825C63.9336 246.658 64.5829 247.368 65.3731 247.897C66.2782 248.5 67.3299 248.839 68.4188 248.874C69.37 248.905 70.1169 249.701 70.0855 250.655C70.051 251.586 69.2838 252.322 68.3584 252.322Z" fill="black"/>
<path d="M107.206 135.756C106.919 135.756 106.629 135.685 106.376 135.547C105.945 135.311 105.626 134.906 105.514 134.429L102.761 122.482C102.571 121.66 103.005 120.821 103.787 120.499C109.266 118.255 113.493 116.123 117.582 114.066L117.72 113.997C120.869 112.408 124.438 110.606 128.391 110.304C128.897 110.264 129.394 110.451 129.75 110.813C130.107 111.175 130.285 111.675 130.239 112.178C129.957 115.287 129.112 118.261 128.297 121.134L128.271 121.22C127.739 123.088 127.078 125.41 125.518 127.226C124.239 128.717 122.533 129.671 120.875 130.478C116.625 132.555 112.131 134.136 107.784 135.662C107.603 135.725 107.404 135.756 107.206 135.756ZM106.45 123.125L108.442 131.774C112.137 130.467 115.875 129.085 119.366 127.378C120.599 126.774 121.992 126.042 122.906 124.979C123.972 123.734 124.475 121.976 124.958 120.275L124.981 120.189C125.573 118.103 126.142 116.103 126.501 114.086C124.009 114.683 121.607 115.893 119.268 117.074L119.128 117.146C115.329 119.062 111.401 121.039 106.45 123.125Z" fill="black"/>
<path d="M96.8965 133.302C96.8907 133.302 96.8849 133.302 96.8793 133.302C96.408 133.297 95.957 133.099 95.635 132.754C93.9685 130.966 92.7273 128.886 91.9428 126.57C91.1584 124.254 90.8826 121.849 91.1211 119.416C91.1757 118.844 91.5146 118.338 92.0176 118.065L101.29 113.066C101.945 112.712 102.752 112.819 103.293 113.33C103.833 113.841 103.985 114.643 103.669 115.315L101.893 119.094C101.844 119.252 101.821 119.416 101.821 119.582C101.876 119.66 102.209 120.01 103.574 120.298C104.077 120.404 104.505 120.729 104.744 121.183C104.982 121.637 105.008 122.174 104.81 122.648C103.235 126.429 100.988 129.837 98.1348 132.78C97.8103 133.113 97.362 133.302 96.8965 133.302ZM94.4944 120.651C94.4398 122.289 94.6812 123.904 95.2098 125.467C95.6322 126.714 96.2212 127.875 96.9683 128.938C98.5027 127.131 99.8015 125.154 100.85 123.03C99.4136 122.364 98.5917 121.37 98.3992 120.065C98.3934 120.022 98.3878 119.982 98.3848 119.939C98.3503 119.45 98.3848 118.967 98.4854 118.493L94.4944 120.651Z" fill="black"/>
<path d="M71.4129 223.431C71.3439 223.431 71.2721 223.428 71.2032 223.419C69.7608 223.244 68.439 223.066 67.1632 222.893C65.853 222.718 64.4968 222.534 63.0228 222.356C62.0977 222.244 61.4281 221.416 61.5143 220.488C62.7211 207.165 64.2899 193.697 66.1805 180.46C67.7782 169.239 69.735 157.286 73.203 145.894C77.3262 132.401 82.9667 124.082 90.9574 119.712C91.7936 119.255 92.8394 119.562 93.2962 120.399C93.7531 121.235 93.4456 122.281 92.6094 122.737C85.4607 126.648 80.3404 134.326 76.4987 146.899C73.0996 158.068 71.1687 169.863 69.5912 180.945C67.7869 193.577 66.2784 206.417 65.0974 219.138C65.9708 219.25 66.8042 219.362 67.6231 219.474C68.8902 219.644 70.1974 219.822 71.6197 219.994C72.5651 220.109 73.2375 220.968 73.1226 221.913C73.0134 222.79 72.2721 223.431 71.4129 223.431Z" fill="black"/>
<path d="M99.5142 260.039C98.6522 260.039 97.9079 259.396 97.8044 258.52C94.7157 232.565 96.3938 206.162 98.0143 180.626L101.635 123.588C101.695 122.637 102.517 121.924 103.465 121.976C104.416 122.036 105.137 122.855 105.077 123.806L101.457 180.845C99.8446 206.225 98.1781 232.47 101.23 258.111C101.342 259.057 100.666 259.916 99.7211 260.028C99.6521 260.036 99.5832 260.039 99.5142 260.039Z" fill="black"/>
<path d="M160.65 229.24C160.642 229.24 160.63 229.24 160.622 229.24L135.606 228.829C134.753 228.815 134.038 228.177 133.926 227.33C130.521 201.403 129.331 175.009 130.391 148.882C130.429 147.931 131.23 147.195 132.184 147.23C133.135 147.267 133.877 148.071 133.836 149.023C132.805 174.46 133.92 200.151 137.152 225.407L158.906 225.763C158.895 224.718 158.886 223.675 158.875 222.634C158.65 199.562 158.438 177.77 153.185 155.126C152.97 154.197 153.547 153.272 154.476 153.057C155.404 152.841 156.329 153.419 156.544 154.347C161.883 177.359 162.096 199.335 162.323 222.603C162.337 224.229 162.354 225.858 162.372 227.499C162.377 227.965 162.193 228.413 161.863 228.74C161.544 229.059 161.104 229.24 160.65 229.24Z" fill="black"/>
<path d="M137.391 236.605C136.899 236.605 136.411 236.469 135.989 236.214C135.859 236.136 135.741 236.041 135.638 235.932C135.385 235.668 135.193 235.357 135.063 235.013C134.951 234.711 134.897 234.395 134.897 234.073C134.739 231.706 134.902 229.327 135.382 227.005C135.575 226.071 136.486 225.47 137.419 225.666C138.353 225.858 138.951 226.769 138.758 227.703C138.388 229.496 138.235 231.326 138.302 233.154L156.743 233.102C156.743 233.07 156.743 233.036 156.74 232.999L156.533 227.712C156.496 226.761 157.237 225.959 158.188 225.922C159.145 225.879 159.941 226.625 159.978 227.577L160.185 232.872C160.205 233.481 160.259 235.3 158.74 236.162C158.696 236.185 158.653 236.208 158.607 236.228C158.099 236.464 157.536 236.57 156.975 236.541L137.557 236.596C137.503 236.602 137.445 236.605 137.391 236.605Z" fill="black"/>
<path d="M70.3731 230.384H70.3616C67.6377 230.367 64.9366 229.953 62.3306 229.16C61.5548 228.924 61.049 228.18 61.1152 227.373C61.2904 225.203 61.4886 222.744 62.5575 220.491C62.9657 219.632 63.9943 219.267 64.8563 219.675C65.7155 220.083 66.0803 221.112 65.6724 221.974C65.0659 223.249 64.8246 224.729 64.6752 226.229C66.543 226.686 68.4594 226.924 70.3845 226.936C71.3357 226.942 72.1029 227.72 72.0971 228.671C72.0912 229.62 71.3185 230.384 70.3731 230.384Z" fill="black"/>
</g>
<path d="M126.929 82.9648C128.92 80.6201 128.302 76.5601 125.705 74.9195C124.774 74.3275 123.596 73.9597 123.087 72.9828C122.512 71.9053 123.032 70.6151 123.334 69.4372C123.334 69.3997 123.354 69.3596 123.366 69.3221C124.228 65.7707 120.168 63.136 117.211 65.2852C113.519 67.9688 109.324 69.8824 104.876 70.914C102.577 71.4426 99.7528 71.5461 98.3333 69.6669C97.4944 68.5521 97.2931 66.8684 95.1726 67.0264C94.5549 67.0781 93.9602 67.2936 93.4486 67.647C89.653 70.2072 85.3113 71.8363 80.7685 72.4081C79.4986 72.5662 78.1825 72.638 76.9557 72.2732C73.4329 71.2243 71.8326 66.7391 72.8957 63.2222C73.9587 59.7052 76.9615 57.1048 80.1337 55.2429C82.099 54.0936 84.2885 53.0361 85.4723 51.0852C86.1677 49.9357 86.4405 48.568 87.1387 47.4215C87.8369 46.275 88.9289 45.4102 90.0409 44.6288C96.0318 40.4826 103.195 38.3735 110.476 38.6063C114.786 38.7556 119.852 40.4882 120.783 44.6892L127.391 47.4734C132.477 48.2548 137.649 49.9674 141.249 53.6454C144.85 57.3231 146.421 63.3312 143.835 67.7822C143.496 68.3567 143.077 68.9659 143.094 69.6441C143.117 70.5061 143.838 71.184 144.436 71.8219C145.482 72.9541 146.278 74.2931 146.769 75.7526C147.26 77.2124 147.439 78.7582 147.292 80.2926C147.157 81.6259 146.717 83.0051 145.717 83.8871C144.718 84.7692 143.014 84.9502 142.068 84.002L127.73 86.2001L126.929 82.9648Z" fill="black"/>
<path d="M80.2516 72.5575C78.3983 77.3244 77.2836 81.6285 77.0019 84.2346C76.2923 90.7974 77.6167 98.0899 82.6366 102.765C85.3116 105.253 88.6245 106.477 92.1673 107.101C95.8625 107.753 99.8277 108.348 103.414 106.882C103.224 109.873 103.195 112.008 103.333 115.002L123.59 112.755C123.263 108.822 123.992 105.448 125.705 101.891C126.093 101.087 126.926 101.095 127.751 100.834C128.483 100.604 129.202 100.34 129.911 100.041C131.351 99.4433 132.71 98.6703 133.963 97.7421C136.44 95.8716 138.37 93.2455 139.095 90.1996C139.753 87.4384 139.29 84.1514 136.221 82.5968C134.058 81.5051 132.118 81.893 128.823 84.7893L126.955 82.9733C128.946 80.6286 128.328 76.5686 125.731 74.928C124.8 74.336 123.622 73.9682 123.113 72.9913C122.539 71.9138 123.059 70.6236 123.36 69.4457C123.36 69.4082 123.38 69.3681 123.392 69.3306C124.254 65.7792 120.194 63.1445 117.237 65.2936C113.545 67.9773 109.35 69.8909 104.902 70.9225C102.603 71.4511 99.7787 71.5546 98.3595 69.6754C97.5203 68.5606 97.3192 66.8769 95.1987 67.0349C94.5809 67.0866 93.9861 67.3021 93.4747 67.6555C89.6705 70.2157 85.3174 71.842 80.7688 72.4079" fill="white"/>
<path d="M143.726 86.3667C142.649 86.3667 141.603 85.9846 140.838 85.2202C140.166 84.5451 140.169 83.4531 140.841 82.7808C141.517 82.1084 142.608 82.1114 143.281 82.7838C143.496 82.9993 144.172 82.9445 144.568 82.5941C145.1 82.1256 145.453 81.2464 145.568 80.1172C145.692 78.8242 145.545 77.5398 145.125 76.3015C144.709 75.0631 144.048 73.9511 143.16 72.9915L143.014 72.8363C142.333 72.1178 141.399 71.1351 141.362 69.69C141.333 68.5836 141.853 67.7188 142.232 67.0868L142.341 66.9057C144.628 62.9664 142.85 57.7513 140.008 54.852C137.184 51.9673 132.848 50.0593 127.121 49.1772C126.179 49.0335 125.535 48.1514 125.679 47.2119C125.822 46.2723 126.704 45.6258 127.644 45.7695C134.126 46.7664 139.114 49.0106 142.473 52.4384C144.511 54.5188 145.956 57.2311 146.542 60.0757C147.177 63.153 146.743 66.1959 145.318 68.6498L145.189 68.8653C145.056 69.0836 144.838 69.4456 144.812 69.5952C144.873 69.7876 145.275 70.21 145.516 70.4658L145.686 70.6438C146.913 71.9713 147.821 73.5 148.395 75.201C148.97 76.9019 149.171 78.669 149.002 80.4564C148.795 82.4907 148.053 84.1199 146.852 85.1801C145.953 85.9702 144.824 86.3667 143.726 86.3667Z" fill="black"/>
<path d="M126.929 84.6887C126.535 84.6887 126.139 84.5536 125.814 84.2778C125.087 83.6599 125.001 82.5738 125.616 81.8469C126.234 81.12 126.501 80.0309 126.334 78.9334C126.167 77.8386 125.587 76.8818 124.785 76.376C124.587 76.2497 124.354 76.126 124.107 75.9939C123.248 75.5371 122.176 74.9654 121.559 73.7786C120.754 72.2701 121.199 70.6812 121.527 69.5175C121.567 69.3738 121.607 69.23 121.645 69.0893C121.662 68.9973 121.685 68.9141 121.708 68.8452C121.989 67.5349 121.09 66.8136 120.803 66.6212C120.174 66.1988 119.168 65.9947 118.228 66.6757C114.326 69.5117 109.968 71.5001 105.27 72.589C101.434 73.4711 98.5603 72.819 96.9628 70.7013C96.6784 70.3248 96.4687 69.9399 96.2847 69.6007C95.7963 68.7042 95.7791 68.7042 95.305 68.7417C95.0033 68.7676 94.6986 68.8766 94.4372 69.0576C90.4175 71.7673 85.7741 73.5114 80.99 74.112C79.6394 74.2814 78.0478 74.3878 76.4703 73.9193C74.6054 73.3648 73.0223 72.0259 72.0107 70.1524C70.8039 67.9112 70.5195 65.1327 71.2494 62.7163C72.2896 59.277 74.9846 56.26 79.266 53.7485C79.5304 53.5934 79.7946 53.444 80.0618 53.2917C81.6796 52.3693 83.2053 51.4987 84.0042 50.1829C84.2714 49.7432 84.4783 49.203 84.6994 48.6313C84.9666 47.9386 85.2424 47.2232 85.6734 46.5163C86.5413 45.0884 87.8142 44.0827 89.0555 43.2093C95.3164 38.8762 102.939 36.6322 110.537 36.8736C115.321 37.0402 121.314 39.0859 122.472 44.3068C122.679 45.2378 122.093 46.1573 121.162 46.3642C120.234 46.5681 119.312 45.9849 119.105 45.054C118.421 41.968 114.252 40.4537 110.421 40.3216C103.563 40.0975 96.6726 42.1318 91.0265 46.0394C90.0985 46.6918 89.1559 47.4245 88.6159 48.3123C88.3456 48.7547 88.136 49.2978 87.9146 49.8725C87.6504 50.5591 87.3774 51.269 86.9522 51.97C85.6907 54.0502 83.6077 55.2398 81.7686 56.2858C81.513 56.4324 81.26 56.5759 81.0072 56.7224C77.5017 58.7798 75.3294 61.1331 74.548 63.7132C74.0854 65.2476 74.275 67.0867 75.045 68.5146C75.4501 69.2645 76.1945 70.2386 77.45 70.6123C78.4184 70.8995 79.5649 70.8133 80.559 70.6898C84.8086 70.1554 88.9348 68.6066 92.4891 66.2102C93.2276 65.6989 94.1124 65.3799 95.032 65.3023C97.7587 65.0955 98.7702 66.9544 99.3133 67.9515C99.454 68.2101 99.5861 68.4542 99.7154 68.6238C100.704 69.9341 103.388 69.483 104.494 69.2272C108.738 68.2446 112.677 66.4458 116.203 63.8828C118.159 62.4605 120.72 62.4088 122.725 63.7507C124.696 65.0696 125.607 67.4142 125.047 69.7186C125.038 69.7531 125.03 69.7847 125.018 69.8192L125.015 69.8248C125.012 69.8334 125.01 69.8451 125.01 69.8537C124.961 70.0461 124.906 70.2416 124.851 70.4399C124.673 71.0719 124.455 71.8591 124.616 72.1608C124.748 72.4166 125.251 72.6839 125.736 72.9425C126.029 73.0976 126.331 73.2586 126.639 73.4538C128.294 74.4999 129.429 76.3043 129.751 78.4017C130.072 80.505 129.526 82.571 128.253 84.0681C127.903 84.4818 127.417 84.6887 126.929 84.6887Z" fill="black"/>
<path d="M123.575 112.747C122.69 112.747 121.935 112.069 121.86 111.166C121.495 106.839 122.337 104.859 124.124 101.136C124.779 99.7764 126.018 99.4775 126.759 99.2995C126.92 99.2592 127.072 99.2247 127.205 99.1816C127.888 98.9661 128.563 98.719 129.216 98.4431C130.535 97.8973 131.773 97.1932 132.911 96.3485C135.204 94.6158 136.801 92.2856 137.393 89.7917C137.698 88.5359 138.112 85.4845 135.419 84.1253C134.244 83.5305 133.092 83.2978 129.934 86.0734C129.219 86.7027 128.13 86.6309 127.5 85.9155C126.871 85.2 126.943 84.1111 127.658 83.4818C132.192 79.4964 134.813 79.9562 136.971 81.0452C140.316 82.7347 141.761 86.3924 140.744 90.5933C139.968 93.8573 137.919 96.8829 134.977 99.1041C133.603 100.124 132.115 100.969 130.546 101.618C129.802 101.931 129.023 102.219 128.239 102.463C128 102.538 127.77 102.595 127.569 102.644C127.443 102.676 127.279 102.713 127.173 102.748C125.521 106.196 125.009 107.491 125.296 110.87C125.377 111.819 124.673 112.652 123.725 112.732C123.673 112.744 123.624 112.747 123.575 112.747Z" fill="black"/>
<path d="M103.333 115.29C102.416 115.29 101.655 114.568 101.612 113.643C101.52 111.62 101.5 110.603 101.557 109.215C98.1033 109.882 94.5864 109.27 91.8739 108.796C87.4921 108.023 84.0872 106.463 81.4637 104.023C76.6423 99.5323 74.3925 92.2512 75.289 84.0422C75.6252 80.9993 76.8779 76.4708 78.645 71.9281C78.9898 71.0402 79.9897 70.6006 80.8775 70.9454C81.7654 71.2902 82.205 72.2901 81.8602 73.178C79.9007 78.2179 78.9525 82.2893 78.7169 84.4185C77.9381 91.53 79.7944 97.7566 83.8142 101.498C85.9633 103.498 88.7131 104.736 92.4686 105.397C96.3073 106.066 99.7353 106.517 102.764 105.279C103.313 105.055 103.939 105.13 104.422 105.474C104.904 105.822 105.175 106.391 105.137 106.983C104.953 109.873 104.922 110.511 105.06 113.476C105.103 114.428 104.367 115.235 103.416 115.278C103.384 115.29 103.358 115.29 103.333 115.29Z" fill="black"/>
<path d="M88.7622 80.4821C89.8731 80.4821 90.7735 79.3887 90.7735 78.0399C90.7735 76.6909 89.8731 75.5974 88.7622 75.5974C87.6513 75.5974 86.751 76.6909 86.751 78.0399C86.751 79.3887 87.6513 80.4821 88.7622 80.4821Z" fill="black"/>
<path d="M98.5313 81.1572C99.6422 81.1572 100.543 80.0638 100.543 78.7147C100.543 77.3659 99.6422 76.2725 98.5313 76.2725C97.4206 76.2725 96.52 77.3659 96.52 78.7147C96.52 80.0638 97.4206 81.1572 98.5313 81.1572Z" fill="black"/>
<path d="M130.024 49.1345C124.313 51.0309 118.667 49.9103 110.758 49.9749C101.88 50.0611 99.1428 49.8456 93.3243 46.9364C89.1436 37.8854 90.8245 33.2952 92.8071 23.6839C96.018 26.8302 98.8411 28.9206 101.793 32.2824C104.94 27.6276 112.245 21.8953 112.245 21.8953L120.434 32.1531C120.434 32.1531 125.886 30.2567 131.36 26.0975C131.963 36.0967 132.933 39.8895 130.045 49.1345H130.024Z" fill="#FFD30D"/>
<path d="M121.857 51.9758C120.371 51.9758 118.84 51.9109 117.224 51.8463C115.199 51.7601 113.087 51.6954 110.759 51.717C101.536 51.8032 98.5619 51.5015 92.5279 48.506C92.1831 48.3336 91.903 48.0535 91.7306 47.6871C87.7223 39.0456 88.7782 34.1968 90.5022 26.1587C90.6962 25.2751 90.8901 24.3485 91.0841 23.3572C91.2134 22.7322 91.6659 22.2366 92.2693 22.0642C92.8727 21.8918 93.5192 22.0426 93.9718 22.4736C95.157 23.6373 96.2992 24.6717 97.4198 25.663C98.8421 26.9345 100.221 28.1628 101.622 29.6067C105.199 25.232 110.867 20.7497 111.147 20.5342C111.901 19.9524 112.979 20.0817 113.561 20.8144L120.952 30.0808C122.763 29.3265 126.534 27.5594 130.284 24.7364C130.801 24.3485 131.469 24.2838 132.051 24.5424C132.632 24.801 133.02 25.3613 133.042 26.008C133.128 27.6027 133.236 29.0464 133.344 30.3825C133.861 37.3647 134.163 41.5885 131.663 49.6697C131.49 50.2085 131.081 50.6179 130.564 50.7903C127.698 51.7385 124.874 51.9971 121.857 51.9971V51.9758ZM111.557 48.269C113.647 48.269 115.522 48.3336 117.375 48.4198C121.728 48.5922 125.219 48.7215 128.646 47.7733C130.671 40.8989 130.413 37.1707 129.917 30.6411C129.896 30.2101 129.853 29.7575 129.809 29.2834C125.176 32.3004 121.168 33.7227 120.974 33.7874C120.284 34.0244 119.509 33.7874 119.056 33.2271L111.944 24.3485C109.746 26.2018 105.35 30.0592 103.195 33.2702C102.893 33.7227 102.419 34.0029 101.881 34.0244C101.342 34.046 100.825 33.8522 100.48 33.4428C98.7128 31.4386 96.9888 29.8868 95.1355 28.2275C94.7045 27.8396 94.2735 27.4517 93.8425 27.0638C92.2693 34.3477 91.4289 38.4853 94.6183 45.683C99.661 48.1181 102.204 48.3552 110.738 48.269C111.018 48.269 111.276 48.269 111.557 48.269Z" fill="black"/>
<path d="M92.2647 28.4221C91.0579 28.6592 89.8511 27.8834 89.0537 26.9352C88.6012 26.3964 88.2133 25.793 88.1055 25.1034C87.9116 23.8751 88.6443 22.6683 89.614 21.914C90.5838 21.1598 91.8121 20.815 92.9974 20.4702C93.4284 20.3409 93.9025 20.2116 94.3335 20.3409C94.7214 20.4487 95.0231 20.7504 95.3248 21.0305C95.8851 21.5908 96.4454 22.1511 96.7686 22.8622C97.3505 24.1121 97.0488 25.6853 96.1868 26.7628C95.3248 27.8403 93.9671 28.4652 92.5879 28.5514C92.2647 28.573 91.8552 28.4652 92.2431 28.4221H92.2647Z" fill="#FFD30D"/>
<path d="M92.4619 30.2753C92.2033 30.2753 91.9447 30.2537 91.7292 30.1891C90.3069 30.1675 88.863 29.3917 87.7209 28.0556C86.9666 27.1721 86.5356 26.2885 86.3848 25.3834C86.1046 23.6379 86.9451 21.7846 88.5613 20.5563C89.8112 19.6081 91.2335 19.1986 92.505 18.8323C93.0006 18.6814 93.8626 18.4228 94.8108 18.703C95.6297 18.94 96.19 19.4788 96.5348 19.8236C97.246 20.5132 97.914 21.2243 98.345 22.1725C99.1639 23.9827 98.8622 26.2239 97.5477 27.8617C96.4271 29.2624 94.66 30.1675 92.7205 30.2968C92.6343 30.2968 92.5481 30.2968 92.4619 30.2968V30.2753ZM92.2679 26.698C92.4619 26.698 92.6343 26.7195 92.8282 26.7842C93.6687 26.6549 94.4229 26.2454 94.8755 25.6636C95.3711 25.0386 95.5004 24.1766 95.2203 23.5517C95.0263 23.1207 94.6169 22.6897 94.1212 22.2156C94.035 22.1294 93.8842 21.9785 93.798 21.9354C93.8626 21.9785 93.604 22.0647 93.4747 22.0863C92.4403 22.388 91.3844 22.6897 90.6301 23.2715C90.0483 23.7025 89.7035 24.3275 89.7897 24.8016C89.8328 25.0817 90.0267 25.405 90.35 25.7929C90.8887 26.4178 91.5137 26.7842 91.9231 26.698C91.9878 26.698 92.0309 26.698 92.0955 26.6764C92.1386 26.6764 92.2033 26.6764 92.2464 26.6764L92.2679 26.698Z" fill="black"/>
<path d="M111.402 24.4378C110.217 23.3603 108.428 22.6707 108.126 21.0976C107.954 20.1494 108.45 19.2012 109.075 18.4469C110.152 17.1755 112.027 16.2919 113.492 17.1108C114.053 17.4341 115.259 17.9513 115.626 18.49C116.272 19.4598 116.983 20.9683 116.639 22.0888C116.359 23.037 114.591 23.3818 113.708 23.8344C113.191 24.1145 112.609 24.33 112.027 24.2438C111.445 24.1576 110.885 23.6835 111.38 24.4162L111.402 24.4378Z" fill="#FFD30D"/>
<path d="M111.339 26.1409C110.951 26.1409 110.563 26.0116 110.24 25.7099C109.939 25.4513 109.594 25.2142 109.249 24.9772C108.128 24.2014 106.749 23.2101 106.426 21.4215C106.189 20.0854 106.663 18.6415 107.762 17.3485C109.314 15.5383 112.072 14.3531 114.335 15.6245L114.701 15.8185C115.692 16.3357 116.554 16.8098 117.05 17.564C117.61 18.4045 118.882 20.6026 118.3 22.6067C117.847 24.1152 116.339 24.6755 115.218 25.1065C114.96 25.2142 114.701 25.3004 114.529 25.3866C113.947 25.6883 113.063 26.0978 112.029 25.99C111.813 26.0978 111.576 26.1409 111.339 26.1409ZM111.49 22.3265C111.684 22.3481 111.878 22.3912 112.094 22.4774C112.266 22.542 112.417 22.5636 112.912 22.305C113.193 22.1541 113.58 22.0033 113.968 21.8524C114.249 21.7447 114.723 21.5723 114.981 21.4215C114.981 21.0336 114.744 20.3009 114.162 19.4604C114.055 19.3527 113.408 19.0294 113.085 18.8786L112.611 18.62C112.072 18.3183 111.038 18.7493 110.348 19.5682C109.96 20.0207 109.723 20.5164 109.788 20.775C109.852 21.1844 110.542 21.6585 111.21 22.1326C111.296 22.1972 111.382 22.2403 111.469 22.305L111.49 22.3265Z" fill="black"/>
<path d="M131.337 28.1857C129.807 28.315 128.234 27.3022 127.695 25.8583C127.156 24.4145 127.695 22.6258 128.945 21.7207C129.721 21.1605 130.669 20.9234 131.639 20.9019C132.414 20.9019 133.255 21.0312 133.772 21.613C133.837 21.6776 133.923 21.7854 134.009 21.8931C134.871 22.8198 135.453 24.005 135.604 25.2765C135.604 25.4704 135.625 25.6428 135.625 25.7937C135.582 26.6772 134.332 27.4099 133.664 27.9702C132.996 28.5305 131.94 28.6814 131.358 28.2073L131.337 28.1857Z" fill="#FFD30D"/>
<path d="M132.262 30.214C131.788 30.214 131.314 30.1278 130.883 29.9338C128.793 29.8476 126.832 28.4684 126.077 26.4858C125.258 24.3093 126.034 21.7233 127.909 20.3656C128.879 19.6544 130.15 19.245 131.573 19.2019C133.512 19.1803 134.525 19.8915 135.064 20.538L135.258 20.7535C136.4 21.9819 137.132 23.5335 137.305 25.1282C137.326 25.4083 137.348 25.6669 137.326 25.904C137.262 27.3909 136.012 28.3607 135.171 29.0072C135.02 29.1149 134.891 29.2227 134.762 29.3304C134.051 29.9554 133.124 30.2786 132.241 30.2786L132.262 30.214ZM131.357 26.4643C131.702 26.4643 132.025 26.572 132.327 26.766C132.391 26.766 132.478 26.7229 132.542 26.6582C132.715 26.5289 132.887 26.3781 133.103 26.2057C133.34 26.0333 133.727 25.7316 133.9 25.5161C133.9 25.4945 133.9 25.473 133.9 25.4514C133.814 24.5894 133.404 23.749 132.758 23.0594C132.628 22.9301 132.521 22.8008 132.456 22.7146C132.435 22.7146 132.197 22.5853 131.702 22.6068C131.206 22.6068 130.517 22.7146 129.999 23.1025C129.374 23.555 129.094 24.5248 129.353 25.2575C129.611 25.9902 130.495 26.5074 131.249 26.4643C131.292 26.4643 131.335 26.4643 131.379 26.4643H131.357Z" fill="black"/>
</g>
<defs>
<clipPath id="clip0_845_2937">
<rect width="172.4" height="413.76" fill="white" transform="translate(26)"/>
</clipPath>
<clipPath id="clip1_845_2937">
<rect width="172.4" height="172.4" fill="white" transform="translate(26 109.905)"/>
</clipPath>
</defs>
</svg>
