<svg width="198" height="413" viewBox="0 0 198 413" fill="none" xmlns="http://www.w3.org/2000/svg">
<g clip-path="url(#clip0_845_2939)">
<path d="M136.054 377.218C134.314 381.173 131.095 384.285 127.084 385.886C123.077 387.488 118.602 387.453 114.62 385.786L114.382 385.688C112.685 390.567 110.157 395.174 109.087 400.227C108.921 400.999 108.801 401.846 109.171 402.544C109.701 403.546 110.979 403.828 112.1 403.981C115.985 404.555 120.018 405.028 123.779 403.903C130.06 402.037 134.36 395.935 136 389.577C137.201 384.939 137.255 380.126 137.055 375.315L136.054 377.218Z" fill="black"/>
<path d="M104.719 375.57C102.265 378.016 99.275 379.856 95.9898 380.947C92.7046 382.037 89.21 382.35 85.7816 381.856C84.7094 381.739 83.6716 381.409 82.7314 380.881C81.817 380.307 81.0774 379.385 80.9684 378.315V377.27C77.1042 380.542 73.2112 383.751 71.8982 388.492C71.6374 389.44 71.5026 390.484 71.9154 391.363C72.698 393.042 74.9168 393.329 76.7658 393.372C81.622 393.524 86.547 393.659 91.2684 392.528C95.9898 391.397 100.571 388.779 103.022 384.58C104.971 381.248 105.412 377.27 105.779 373.427L104.719 375.57Z" fill="black"/>
<path d="M87.3467 268.952C87.9201 283.619 89.4309 326.486 90.2335 347.979L91.4003 348.375C93.9803 348.892 96.7121 349.486 99.7135 349.437C102.511 349.391 105.381 348.694 107.588 346.971L107.734 346.593C108.844 326.811 109.896 303.412 111.043 287.824C111.28 284.587 111.329 272.391 111.587 269.928" fill="white"/>
<path d="M111.289 269.607C112.186 285.37 114.007 324.282 114.867 350.002L116.951 352.055C118.315 353.157 119.892 353.963 121.583 354.42C123.275 354.876 125.043 354.977 126.775 354.712C128.506 354.448 130.166 353.823 131.645 352.881C133.124 351.94 134.389 350.7 135.363 349.239L136.209 347.726C135.793 321.383 135.991 283.553 136.367 267.844" fill="white"/>
<path d="M114.726 385.768C118.708 387.433 123.183 387.471 127.19 385.869C131.198 384.267 134.417 381.156 136.16 377.201L137.163 375.453C137.089 373.616 136.977 371.779 136.877 369.953C136.59 364.577 136.364 356.75 136.223 347.726L135.377 349.239C134.406 350.7 133.139 351.94 131.659 352.881C130.18 353.823 128.523 354.445 126.792 354.712C125.061 354.977 123.292 354.879 121.6 354.42C119.909 353.963 118.329 353.157 116.968 352.054L114.87 350.002C115.122 357.465 115.296 363.935 115.345 368.524C115.394 373.171 116.558 377.873 115.46 382.387C115.19 383.498 114.855 384.589 114.479 385.668L114.726 385.768Z" fill="black"/>
<path d="M81.0715 378.297C81.1805 379.368 81.9315 380.306 82.8373 380.863C83.7777 381.391 84.8125 381.722 85.8847 381.839C89.3131 382.333 92.8105 382.023 96.0985 380.932C99.3867 379.841 102.376 377.999 104.833 375.553L105.894 373.429C106.539 366.673 107.147 357.146 107.737 346.593L107.591 346.971C105.384 348.694 102.514 349.391 99.7163 349.437C96.9185 349.483 94.1493 348.926 91.4029 348.375L90.2363 347.979C90.3509 351.099 90.4541 353.797 90.5401 355.927C90.6977 359.945 90.8267 364.141 89.2387 367.844C87.5703 371.727 84.2507 374.566 80.9253 377.376L81.0715 378.297Z" fill="black"/>
<path d="M83.5941 198.795C77.8265 221.154 72.9129 243.711 68.8564 266.469C97.3341 272.087 126.677 271.576 154.94 264.971C150.774 242.971 146.618 220.97 142.467 198.97" fill="black"/>
<path d="M118.743 406.286C116.458 406.286 114.17 405.993 111.957 405.664C111.014 405.535 108.761 405.232 107.758 403.332C107.052 402.011 107.362 400.554 107.511 399.851C108.228 396.478 109.552 393.315 110.831 390.255C112.006 387.442 113.118 384.787 113.8 381.983C114.468 379.239 114.21 376.354 113.935 373.303C113.798 371.753 113.651 370.152 113.637 368.544C113.422 348.025 110.656 289.991 109.575 270.792C109.521 269.842 110.246 269.03 111.195 268.975C112.144 268.921 112.955 269.647 113.009 270.597C114.093 289.822 116.859 347.936 117.077 368.507C117.091 369.977 117.223 371.443 117.364 372.993C117.65 376.191 117.946 379.497 117.143 382.795C116.398 385.863 115.182 388.771 114.004 391.584C112.728 394.632 111.524 397.511 110.876 400.564C110.713 401.334 110.745 401.612 110.796 401.713C110.854 401.822 111.12 402.074 112.442 402.252C116.289 402.82 120.004 403.243 123.398 402.229C129.51 400.401 133.11 394.256 134.443 389.112C135.937 383.352 135.573 377.109 135.223 371.076L135.163 370.037C134.01 349.382 134.139 290.58 134.644 269.024C134.667 268.074 135.461 267.313 136.404 267.342C137.353 267.365 138.107 268.154 138.084 269.104C137.582 290.617 137.45 349.271 138.597 369.842L138.657 370.875C139.024 377.178 139.403 383.693 137.774 389.979C136.206 396.03 131.863 403.291 124.384 405.531C122.532 406.081 120.637 406.286 118.743 406.286Z" fill="black"/>
<path d="M108.44 272.055C95.058 272.055 81.6478 270.746 68.5242 268.16C67.604 267.979 66.999 267.092 67.1624 266.168C71.2074 243.473 76.1752 220.663 81.9286 198.364C82.1666 197.443 83.104 196.889 84.0242 197.127C84.9444 197.365 85.4976 198.304 85.2598 199.225C79.6698 220.89 74.825 243.045 70.849 265.1C84.374 267.649 98.1942 268.82 111.948 268.582C125.72 268.344 139.503 266.688 152.942 263.665C148.934 242.486 144.841 220.838 140.778 199.291C140.601 198.356 141.217 197.457 142.149 197.279C143.083 197.101 143.981 197.718 144.158 198.651C148.326 220.749 152.523 242.953 156.631 264.652C156.803 265.56 156.23 266.441 155.333 266.65C141.148 269.965 126.574 271.774 112.009 272.026C110.819 272.046 109.629 272.055 108.44 272.055Z" fill="black"/>
<path d="M124.874 356.581C123.621 356.581 122.374 356.415 121.148 356.085C119.213 355.562 117.444 354.658 115.881 353.398C115.142 352.801 115.027 351.716 115.623 350.975C116.22 350.235 117.303 350.12 118.043 350.717C119.23 351.676 120.574 352.362 122.045 352.761C123.515 353.157 125.023 353.243 126.528 353.013C128.033 352.784 129.449 352.253 130.734 351.432C132.018 350.614 133.099 349.555 133.944 348.286C134.472 347.494 135.541 347.281 136.329 347.81C137.121 348.338 137.333 349.408 136.805 350.198C135.693 351.865 134.271 353.26 132.58 354.337C130.888 355.413 129.028 356.113 127.047 356.417C126.322 356.524 125.597 356.581 124.874 356.581Z" fill="black"/>
<path d="M99.3812 351.15C96.5288 351.15 93.7568 350.594 91.0736 350.057C90.1418 349.87 89.5312 348.96 89.7176 348.028C89.904 347.095 90.804 346.486 91.7328 346.676L91.75 346.678C94.4878 347.227 97.0764 347.746 99.6792 347.703C101.614 347.672 104.372 347.281 106.525 345.602C107.273 345.017 108.354 345.151 108.939 345.901C109.523 346.65 109.389 347.732 108.64 348.317C105.737 350.582 102.196 351.107 99.7366 351.147C99.619 351.15 99.4986 351.15 99.3812 351.15Z" fill="black"/>
<path d="M121.079 388.774C118.699 388.774 116.32 388.3 114.064 387.356C113.187 386.988 112.774 385.981 113.141 385.103C113.508 384.224 114.514 383.811 115.391 384.178C118.977 385.68 122.942 385.711 126.554 384.267C130.166 382.824 133.018 380.068 134.586 376.506C134.97 375.637 135.985 375.243 136.854 375.625C137.722 376.01 138.118 377.026 137.734 377.895C135.799 382.287 132.281 385.688 127.83 387.468C125.648 388.34 123.363 388.774 121.079 388.774Z" fill="black"/>
<path d="M81.7884 395.191C80.12 395.191 78.463 395.14 76.8234 395.091C75.4474 395.045 71.801 394.927 70.4708 392.074C69.9462 390.958 69.909 389.629 70.3532 388.016C71.778 382.87 75.8056 379.46 79.6986 376.162C83.0038 373.363 86.1286 370.72 87.6564 367.161C89.1242 363.739 88.9608 359.623 88.8204 355.992C88.4678 347.238 87.8026 328.808 87.1606 310.984C86.5556 294.199 85.9852 278.346 85.667 270.301C85.6298 269.351 86.3694 268.55 87.3182 268.513C88.2584 268.484 89.0668 269.216 89.1042 270.166C89.4224 278.217 89.9956 294.073 90.6006 310.861C91.2426 328.679 91.9078 347.106 92.2574 355.858C92.4152 359.856 92.5928 364.385 90.8184 368.524C88.9694 372.827 85.386 375.86 81.9202 378.794C78.2624 381.891 74.808 384.813 73.6672 388.934C73.4006 389.899 73.475 390.381 73.584 390.613C73.8792 391.248 74.9744 391.584 76.9294 391.647C81.5992 391.79 86.4296 391.94 90.9732 390.834C95.7892 389.663 99.6792 387.06 101.649 383.69C103.346 380.786 103.799 377.241 104.177 373.243C105.212 362.364 106.169 343.98 107.095 326.202C108.036 308.16 109.007 289.503 110.051 279.05C110.145 278.102 110.985 277.417 111.934 277.508C112.88 277.603 113.568 278.447 113.474 279.394C112.439 289.764 111.47 308.381 110.53 326.383C109.601 344.199 108.64 362.62 107.6 373.57C107.181 377.979 106.668 381.916 104.619 385.43C102.145 389.663 97.5866 392.772 91.7874 394.181C88.4648 394.991 85.108 395.191 81.7884 395.191Z" fill="black"/>
<path d="M89.0467 383.788C87.9173 383.788 86.7849 383.708 85.6669 383.55C84.3711 383.404 83.1357 383.008 81.9947 382.367C81.9747 382.356 81.9545 382.344 81.9345 382.333C80.4753 381.437 79.5121 379.994 79.3573 378.473C79.2599 377.525 79.9479 376.681 80.8939 376.584C81.8371 376.486 82.6827 377.175 82.7801 378.122C82.8261 378.559 83.1873 379.049 83.7061 379.379C84.4399 379.784 85.2341 380.037 86.0683 380.129C86.0883 380.131 86.1083 380.134 86.1255 380.137C89.2761 380.591 92.5355 380.301 95.5541 379.299C98.5727 378.297 101.362 376.581 103.615 374.336C104.289 373.665 105.378 373.668 106.049 374.342C106.72 375.017 106.717 376.107 106.043 376.779C103.412 379.4 100.158 381.403 96.6377 382.571C94.1981 383.375 91.6209 383.788 89.0467 383.788Z" fill="black"/>
<g clip-path="url(#clip1_845_2939)">
<path d="M123.286 109.65C123.544 112.545 124.728 119.087 129.134 118.107L129.607 118.823C129.392 123.315 127.116 126.483 123.55 129.765C119.926 133.048 115.305 135.02 110.429 135.367C106.129 135.682 101.557 134.653 98.3402 131.769C95.1238 128.885 93.4324 124.889 95.5624 121.463H95.872C96.841 121.492 97.7324 120.985 98.5524 120.469C99.5958 119.809 101.749 117.106 102.394 116.329C103.254 115.214 103.603 110.986 104.045 109.65H123.286Z" fill="white"/>
<path d="M68.2578 250.016C66.853 249.97 65.4914 249.532 64.3218 248.752C63.1522 247.972 62.2262 246.883 61.6444 245.605C61.931 241.018 62.791 235.571 59.0644 231.845C58.491 229.551 60.211 227.831 62.2176 227.083L70.2672 228.126L68.2578 250.016Z" fill="white"/>
<path d="M70.2698 228.126C67.7214 228.109 65.1872 227.722 62.7476 226.98C62.9196 224.844 63.106 222.651 64.0262 220.716L71.1154 221.507L70.2698 228.126Z" fill="white"/>
<path d="M136.814 226.822C136.361 229.015 136.212 231.257 136.367 233.49C136.361 233.619 136.378 233.748 136.424 233.868C136.47 233.989 136.539 234.1 136.628 234.195C136.808 234.304 137.02 234.353 137.23 234.33L156.723 234.275C157.018 234.298 157.314 234.244 157.583 234.12C158.133 233.808 158.176 233.045 158.156 232.4L157.95 227.117L136.814 226.822Z" fill="white"/>
<path d="M71.3134 221.195C68.5242 220.665 65.9442 220.665 63.0776 220.091C65.0842 200.025 66.8042 180.818 71.1042 160.465C73.3976 150.145 75.4042 140.685 80.8508 131.511C80.8508 131.511 82.9148 128.558 83.7176 127.655L85.168 125.259C84.784 124.138 85.2484 122.851 86.0882 122.017C86.9282 121.182 88.095 120.741 89.2416 120.494C89.7748 120.38 90.3654 120.277 90.7064 119.852C90.9072 119.557 91.0304 119.213 91.0676 118.858C91.4862 116.524 92.1026 113.698 94.3586 112.975C96.199 112.385 98.1828 113.655 99.232 115.283C100.281 116.911 100.665 118.858 101.405 120.644C102.144 122.429 103.412 124.204 105.301 124.628L108.689 125.689C114.95 123.969 119.749 119.11 124.823 115.059C126.17 113.987 127.586 112.941 129.229 112.425C130.871 111.909 132.795 111.998 134.157 113.053C135.518 114.108 136.037 116.263 134.994 117.639C135.776 117.195 136.662 116.966 137.562 116.974C138.462 116.983 139.342 117.226 140.116 117.685C140.89 118.144 141.53 118.797 141.971 119.58C142.413 120.363 142.639 121.251 142.628 122.149L143.201 127.653C147.638 134.386 150.792 141.84 153.2 149.608L154.111 152.363C159.011 173.453 159.891 195.206 160.215 216.895L160.501 217.362C162.267 223.824 168.86 240.164 170.294 247.044C170.34 247.631 170.242 248.222 170.007 248.764C167.14 252.204 162.267 251.344 158.497 252.513L145.176 255.165C126.11 258.585 106.975 259.422 87.8742 256.2L84.2708 255.778L71.9442 253.419C70.8318 253.207 69.6106 252.923 68.96 251.986C68.421 251.217 68.4238 250.206 68.464 249.268C68.6274 245.541 69.0574 241.843 69.4874 238.143L71.451 221.212L71.3134 221.195Z" fill="white"/>
<path d="M139.153 234.636C136.389 235.528 133.159 238.848 135.495 241.909C136.779 243.598 138.72 244.506 140.5 245.567C141.87 246.381 142.234 249.133 142.765 250.589C144.106 254.262 146.712 257.283 150.986 256.996C155.332 256.71 158.036 253.009 158.861 249.019C159.756 244.69 158.23 239.008 157.511 234.728L139.153 234.636Z" fill="white"/>
<path d="M114.603 136.006C114.663 136.918 115.42 137.614 116.317 137.614C116.358 137.614 116.395 137.614 116.429 137.606C124.098 137.104 131.605 134.702 138.144 130.665C139.495 129.833 140.627 128.963 141.538 128.058C141.584 128.241 141.661 128.42 141.771 128.587C145.738 134.607 148.94 141.648 151.563 150.107C151.792 150.847 152.472 151.32 153.206 151.32C153.375 151.32 153.547 151.294 153.713 151.242C154.622 150.962 155.129 149.998 154.848 149.09C152.128 140.315 148.791 132.99 144.643 126.695C144.32 126.203 143.787 125.932 143.24 125.922C143.957 124.724 144.325 123.475 144.342 122.18C144.356 120.979 144.052 119.792 143.465 118.746C142.877 117.7 142.02 116.822 140.985 116.212C139.953 115.601 138.772 115.274 137.571 115.263C137.456 115.263 137.344 115.263 137.23 115.269C137.064 113.921 136.367 112.603 135.203 111.702C133.509 110.39 131.078 110.048 128.707 110.794C126.755 111.407 125.124 112.626 123.745 113.723C122.233 114.93 120.967 116.114 119.742 117.259L119.694 117.304C116.795 120.017 114.504 122.16 110.478 123.267C109.561 123.519 109.022 124.465 109.274 125.382C109.526 126.3 110.475 126.838 111.39 126.586C116.237 125.256 119.061 122.613 122.048 119.815L122.094 119.772C123.27 118.673 124.486 117.536 125.889 116.415C127.076 115.472 128.349 114.512 129.739 114.076C131.018 113.675 132.305 113.807 133.099 114.423C133.778 114.95 134.039 116.054 133.618 116.61C133.125 117.261 133.156 118.17 133.695 118.783C134.234 119.397 135.129 119.549 135.839 119.147C136.35 118.858 136.929 118.706 137.514 118.706H137.542C138.139 118.709 138.726 118.872 139.239 119.176C139.752 119.48 140.177 119.913 140.469 120.434C140.762 120.956 140.913 121.544 140.905 122.14C140.882 124.006 139.345 125.89 136.341 127.741C130.278 131.485 123.315 133.71 116.206 134.177C115.26 134.24 114.54 135.057 114.603 136.006Z" fill="black"/>
<path fill-rule="evenodd" clip-rule="evenodd" d="M82.0549 257.088C81.9489 257.088 81.8399 257.077 81.7311 257.057L71.6289 255.122C70.4995 254.895 68.6389 254.52 67.5611 252.989C67.2505 252.546 67.052 252.079 66.9277 251.605C65.6603 251.386 64.4488 250.904 63.3701 250.182C61.9339 249.225 60.7957 247.889 60.0819 246.318C59.9645 246.06 59.9129 245.779 59.9301 245.498C59.9572 245.048 59.9921 244.587 60.0273 244.12L60.0333 244.042C60.3313 240.014 60.6381 235.849 57.8517 233.06C57.6309 232.839 57.4761 232.564 57.3987 232.26C56.7217 229.552 58.2138 226.957 61.1339 225.667C61.264 224.27 61.4607 222.795 61.9264 221.361C61.537 221.005 61.3184 220.478 61.3747 219.919C61.4994 218.677 61.6224 217.436 61.7447 216.199L61.8327 215.31C63.6875 196.635 65.4397 178.991 69.4301 160.106L69.6165 159.266C71.8381 149.253 73.9393 139.796 79.3803 130.628C79.4033 130.591 79.4261 130.556 79.4491 130.522L79.4805 130.477C79.8099 130.009 81.6279 127.422 82.4419 126.509C82.7474 126.164 83.1607 125.972 83.5859 125.937C83.5711 125.898 83.5567 125.858 83.5427 125.818C82.9665 124.141 83.4911 122.171 84.8787 120.795C85.8505 119.832 87.1577 119.184 88.8833 118.812L88.9837 118.789C89.0955 118.766 89.2445 118.734 89.3563 118.703C89.3563 118.698 89.3578 118.691 89.3578 118.691C89.3578 118.691 89.3593 118.684 89.3593 118.68C89.3649 118.634 89.3707 118.591 89.3793 118.548L89.3808 118.54C89.7994 116.243 90.4982 112.409 93.8369 111.335C95.8265 110.699 98.8163 111.378 100.694 114.365C100.897 114.688 101.077 115.016 101.24 115.346C101.58 114.608 102.409 114.191 103.225 114.4C104.146 114.632 104.705 115.57 104.469 116.49C104.21 117.519 103.795 118.208 102.721 119.26C102.81 119.505 102.902 119.746 102.999 119.981C103.403 120.953 104.289 122.633 105.682 122.948C106.608 123.158 107.19 124.078 106.984 125.004C106.774 125.93 105.854 126.512 104.928 126.305C102.772 125.821 100.958 124.043 99.8197 121.303C99.5389 120.626 99.3065 119.947 99.0859 119.288L99.0752 119.256C98.6951 118.138 98.3354 117.08 97.7787 116.197C97.1337 115.171 95.8751 114.297 94.8861 114.612C93.6305 115.016 93.1347 117.135 92.7735 119.107C92.6989 119.718 92.4781 120.305 92.1341 120.815C92.1083 120.853 92.0797 120.89 92.0511 120.927C91.3481 121.802 90.3632 122.012 89.7068 122.153L89.7003 122.154L89.6087 122.174C88.5623 122.401 87.7883 122.756 87.3039 123.235C86.8767 123.659 86.6589 124.29 86.7993 124.7C86.9311 125.084 87.3669 125.497 87.7739 125.846C91.4663 129.08 95.9583 131.244 100.774 132.11C101.709 132.279 102.331 133.174 102.162 134.108C102.007 134.939 101.282 135.524 100.468 135.524C100.367 135.524 100.264 135.516 100.161 135.496C94.7315 134.518 89.6659 132.079 85.5151 128.444C85.4534 128.391 85.3913 128.336 85.3287 128.28C85.2563 128.465 85.1503 128.64 85.0105 128.796C84.4199 129.458 82.8919 131.603 82.3043 132.44C77.1673 141.117 75.1291 150.293 72.9733 160.011L72.7899 160.834C68.8378 179.537 67.0948 197.108 65.2492 215.713L65.2477 215.728C65.1501 216.703 65.0527 217.68 64.9553 218.66C65.8123 218.781 66.6609 218.87 67.5409 218.959L67.5874 218.963C68.3609 219.042 69.1496 219.123 69.9564 219.232L71.269 207.916C73.628 187.723 76.0674 166.844 80.8137 146.699C81.0315 145.776 81.9575 145.199 82.8835 145.42C83.8065 145.638 84.3799 146.564 84.1619 147.49C79.4601 167.449 77.0323 188.234 74.6841 208.337L71.2 238.376C70.782 241.98 70.3501 245.704 70.1869 249.363C70.1669 249.818 70.1297 250.673 70.3733 251.017C70.6599 251.424 71.6805 251.63 72.2883 251.751L82.3731 253.68C83.3049 253.857 83.9183 254.761 83.7377 255.692C83.5857 256.515 82.8663 257.088 82.0549 257.088ZM60.6811 231.044C60.6293 229.735 62.0986 228.993 62.6716 228.754C64.6498 229.322 66.6801 229.673 68.7312 229.798L67.7727 238.062C67.3956 241.322 67.0069 244.68 66.8121 248.046C66.2722 247.882 65.7569 247.638 65.2821 247.321C64.4937 246.794 63.8459 246.086 63.3959 245.255C63.4086 245.053 63.4237 244.85 63.4387 244.647C63.4475 244.531 63.4564 244.412 63.4647 244.294L63.465 244.29C63.7746 240.094 64.157 234.907 60.6811 231.044ZM69.56 222.651L69.1281 226.375C67.5964 226.294 66.0755 226.068 64.5855 225.704C64.7074 224.48 64.8906 223.27 65.2841 222.174C65.9321 222.253 66.5668 222.318 67.1913 222.381L67.3236 222.395C68.0842 222.474 68.8223 222.55 69.56 222.651Z" fill="black"/>
<path fill-rule="evenodd" clip-rule="evenodd" d="M87.5874 257.891C95.7058 259.261 103.996 259.946 112.565 259.946C122.946 259.946 133.734 258.937 145.092 256.921C146.634 258.107 148.447 258.734 150.445 258.734C150.66 258.734 150.881 258.728 151.101 258.711C154.141 258.511 156.783 256.859 158.554 254.226C158.704 254.221 158.856 254.196 159.008 254.153C160.077 253.82 161.304 253.665 162.6 253.505C165.578 253.135 168.952 252.714 171.329 249.861C171.435 249.735 171.521 249.595 171.587 249.443C171.928 248.649 172.074 247.772 172.008 246.909C172.002 246.834 171.991 246.762 171.976 246.691C171.122 242.592 168.609 235.565 166.178 228.769L166.177 228.766C164.483 224.036 162.886 219.566 162.158 216.906C162.109 216.726 162.033 216.56 161.936 216.412C161.653 195.685 160.893 175.738 156.015 154.711C155.8 153.785 154.877 153.209 153.951 153.424C153.025 153.639 152.449 154.562 152.664 155.488C158.107 178.958 158.343 201.224 158.592 224.797V224.804L158.598 225.239L136.894 224.884C133.669 199.686 132.557 174.055 133.586 148.677C133.626 147.728 132.887 146.925 131.938 146.888C130.989 146.853 130.186 147.587 130.149 148.536C129.091 174.603 130.278 200.936 133.675 226.802C133.763 227.467 134.223 228.003 134.831 228.208C134.588 229.969 134.525 231.753 134.644 233.53C134.644 233.851 134.698 234.166 134.81 234.467C134.939 234.811 135.131 235.121 135.383 235.385C135.407 235.41 135.432 235.435 135.458 235.458C134.418 236.244 133.558 237.249 133.179 238.458C132.852 239.504 132.752 241.132 134.128 242.938C135.401 244.612 137.158 245.619 138.709 246.504C139.016 246.679 139.319 246.854 139.623 247.035C140.047 247.285 140.511 248.975 140.714 249.714L140.718 249.729C140.859 250.245 140.994 250.733 141.151 251.169C141.515 252.167 141.947 253.076 142.44 253.889C122.911 257.164 105.13 257.363 88.158 254.5C87.2206 254.339 86.3348 254.973 86.177 255.91C86.0194 256.845 86.65 257.733 87.5874 257.891ZM140.775 236.037C140.604 236.529 140.212 236.937 139.678 237.108C138.084 237.624 136.731 238.624 136.461 239.487C136.41 239.65 136.275 240.083 136.863 240.854C137.714 241.972 139.025 242.723 140.412 243.516L140.414 243.517L140.649 243.652C140.894 243.792 141.139 243.933 141.381 244.076C142.998 245.035 143.572 247.128 144.033 248.81L144.035 248.818C144.155 249.262 144.273 249.684 144.382 249.987C145.311 252.536 147.186 255.514 150.872 255.277C153.294 255.116 156.218 253.296 157.179 248.666C157.915 245.107 157.249 241.276 156.605 237.567L156.569 237.36C156.503 236.978 156.437 236.599 156.373 236.219C156.36 236.143 156.353 236.068 156.35 235.993L140.775 236.037ZM159.336 234.77C159.553 235.007 159.707 235.307 159.764 235.648C159.839 236.087 159.914 236.526 159.991 236.967L159.993 236.981C160.692 241.005 161.415 245.165 160.547 249.365C160.478 249.698 160.399 250.025 160.311 250.344C160.933 250.245 161.556 250.167 162.17 250.091C164.75 249.77 166.994 249.489 168.502 247.863C168.559 247.671 168.585 247.468 168.579 247.267C167.746 243.38 165.199 236.256 162.946 229.954L162.855 229.701L162.852 229.691C162.569 228.901 162.29 228.119 162.016 227.351C161.947 227.673 161.785 227.971 161.548 228.206C161.229 228.528 160.791 228.708 160.338 228.708H160.309L159.731 228.699L159.873 232.332C159.888 232.778 159.921 233.877 159.336 234.77ZM156.287 228.642L138.286 228.346C138.071 229.757 137.989 231.186 138.041 232.613L156.439 232.561C156.439 232.541 156.439 232.519 156.438 232.497C156.438 232.484 156.437 232.471 156.436 232.458L156.287 228.642Z" fill="black"/>
</g>
<path d="M128.836 105.665C132.408 106.305 136.16 105.43 139.296 103.607C146.38 99.4935 150.012 90.9939 150.362 82.8209C150.711 74.6481 148.283 66.6129 145.738 58.8299C145.451 57.9699 145.179 57.0209 145.554 56.2011C146.093 55.0143 147.63 54.7677 148.908 54.5327C151.643 54.0081 154.183 52.7553 156.264 50.9093C158.345 49.0631 159.891 46.6867 160.736 44.0349C161.582 41.3833 161.697 38.5539 161.072 35.8421C160.444 33.1301 159.096 30.6391 157.173 28.6267C153.446 24.7481 147.868 23.0481 142.493 23.1485C137.579 23.2373 132.557 24.8111 129.005 28.2081C125.453 31.6051 123.642 36.9801 125.187 41.6527L122.658 42.4669C114.308 39.0929 104.793 38.5281 96.1932 41.2085C87.5932 43.8887 80.0022 49.8485 75.6392 57.7291C73.1538 62.2183 71.7204 67.2321 70.9752 72.3089C70.2928 76.9643 73.1738 84.9451 76.7114 88.0555L83.5024 70.6835C87.9544 71.4059 92.4924 70.3023 96.7894 68.9319C104.733 66.3979 112.917 62.4361 116.856 55.0889C115.477 58.9215 115.517 62.7601 115.816 66.5211C116.102 70.0499 116.615 73.6333 118.175 76.8125C119.734 79.9915 122.475 82.7435 125.929 83.5577" fill="black"/>
<path d="M123.324 112.66C122.997 108.736 123.765 105.204 125.474 101.655C125.861 100.852 126.692 100.861 127.515 100.6C128.246 100.371 128.962 100.107 129.67 99.8088C131.107 99.2123 132.463 98.4414 133.712 97.5154C136.183 95.6492 138.11 93.0289 138.832 89.9904C139.489 87.2356 139.027 83.9559 135.966 82.4052C133.807 81.3157 131.872 81.7027 128.584 84.5923L125.949 83.5603C122.509 82.7464 119.755 79.9944 118.195 76.8152C116.636 73.6359 116.117 70.0528 115.836 66.5237C115.549 62.7628 115.498 58.9244 116.876 55.0916C112.929 62.4387 104.745 66.4005 96.8098 68.9348C92.5098 70.3049 87.9748 71.4085 83.5228 70.6861L80.1602 72.4061C78.3112 77.1619 77.199 81.4564 76.918 84.0564C76.21 90.6037 77.5314 97.8793 82.5396 102.544C85.2084 105.026 88.5136 106.247 92.0482 106.869C95.7348 107.52 99.6908 108.113 103.268 106.651C103.079 109.636 103.051 111.766 103.188 114.753" fill="white"/>
<path d="M125.923 85.2718C125.792 85.2718 125.66 85.2576 125.525 85.226C121.881 84.3632 118.553 81.4994 116.624 77.5634C114.878 74.0002 114.365 70.047 114.096 66.65C113.972 65.016 113.886 63.3304 113.947 61.6162C110.074 65.2912 104.57 68.2438 97.3084 70.563C93.0972 71.9046 88.1294 73.1716 83.2216 72.3748C82.2842 72.2228 81.6478 71.3398 81.7998 70.4024C81.9516 69.465 82.8374 68.8286 83.772 68.9806C87.9516 69.6572 92.2458 68.5678 96.262 67.2892C106.209 64.113 112.27 59.9764 115.337 54.2718C115.764 53.4776 116.73 53.148 117.553 53.515C118.376 53.8818 118.777 54.8222 118.47 55.6678C117.263 59.019 117.22 62.3786 117.527 66.3862C117.771 69.4536 118.224 73.0082 119.714 76.0498C121.196 79.0712 123.667 81.25 126.319 81.8778C127.242 82.0956 127.815 83.0244 127.598 83.9474C127.411 84.7386 126.703 85.2718 125.923 85.2718Z" fill="black"/>
<path d="M73.9708 87.2153C73.5666 87.2153 73.1624 87.075 72.8356 86.7884C69.4644 83.8242 68.2604 78.8705 69.261 72.0593C70.1066 66.2946 71.7434 61.1948 74.1228 56.8948C78.635 48.742 86.4896 42.4265 95.6686 39.5658C104.547 36.7994 114.356 37.261 123.289 40.873C124.169 41.2284 124.596 42.2318 124.241 43.1118C123.885 43.9917 122.882 44.4189 122.002 44.0636C113.803 40.7526 104.816 40.3195 96.692 42.851C88.35 45.451 81.2206 51.1786 77.13 58.5632C74.9512 62.4989 73.4492 67.2062 72.6636 72.5609C71.8466 78.1423 72.6666 82.0611 75.109 84.2053C75.8228 84.8331 75.8916 85.9198 75.2638 86.6336C74.9226 87.0175 74.4468 87.2153 73.9708 87.2153Z" fill="black"/>
<path d="M131.244 107.595C130.335 107.595 129.432 107.517 128.55 107.36C127.615 107.193 126.993 106.299 127.159 105.364C127.325 104.43 128.22 103.808 129.154 103.974C132.167 104.513 135.47 103.854 138.448 102.122C145.543 98.0028 148.375 89.4142 148.659 82.7492C148.992 74.9892 146.701 67.2606 144.118 59.3658C143.823 58.4686 143.33 56.9606 144.007 55.4872C144.887 53.5464 147.019 53.1452 148.43 52.8786L148.602 52.847C151.027 52.3798 153.289 51.2674 155.138 49.6248C156.987 47.9822 158.363 45.8696 159.114 43.516C159.865 41.1596 159.968 38.6426 159.412 36.2318C158.856 33.8238 157.658 31.605 155.946 29.819C152.836 26.574 147.954 24.7738 142.542 24.8712C137.654 24.96 133.159 26.6284 130.212 29.4522C126.93 32.5968 125.568 37.2868 126.824 41.1194C127.119 42.0224 126.629 42.9942 125.726 43.2896C124.823 43.5848 123.851 43.0946 123.556 42.1916C121.896 37.1262 123.616 31.0088 127.833 26.9696C131.451 23.5038 136.651 21.5372 142.479 21.4313C148.846 21.3137 154.659 23.501 158.432 27.4398C160.57 29.6728 162.067 32.445 162.763 35.4578C163.46 38.4706 163.331 41.6182 162.393 44.5624C161.453 47.5064 159.736 50.1466 157.423 52.1992C155.112 54.2516 152.286 55.642 149.25 56.2268L149.066 56.2612C148.441 56.3788 147.28 56.5966 147.137 56.9176C147.019 57.1728 147.289 57.9926 147.389 58.2994C150.072 66.5066 152.455 74.562 152.096 82.9012C151.684 92.5646 147.117 101.07 140.177 105.101C137.347 106.737 134.254 107.595 131.244 107.595Z" fill="black"/>
<path d="M123.349 112.485C122.466 112.485 121.712 111.809 121.638 110.908C121.274 106.591 122.113 104.616 123.897 100.901C124.55 99.5449 125.786 99.2467 126.525 99.0691C126.686 99.0289 126.838 98.9945 126.97 98.9515C127.652 98.7365 128.326 98.4899 128.976 98.2147C130.292 97.6701 131.528 96.9677 132.663 96.1249C134.95 94.3963 136.544 92.0715 137.135 89.5833C137.439 88.3305 137.851 85.2861 135.165 83.9301C133.993 83.3367 132.843 83.1045 129.693 85.8737C128.979 86.5015 127.893 86.4299 127.265 85.7161C126.637 85.0023 126.709 83.9159 127.423 83.2881C131.946 79.3119 134.561 79.7707 136.713 80.8571C140.05 82.5427 141.492 86.1919 140.477 90.3831C139.703 93.6395 137.659 96.6581 134.724 98.8741C133.354 99.8917 131.869 100.735 130.304 101.383C129.561 101.695 128.784 101.982 128.002 102.225C127.764 102.3 127.534 102.357 127.334 102.406C127.208 102.437 127.044 102.475 126.938 102.509C125.29 105.949 124.779 107.242 125.066 110.613C125.146 111.559 124.444 112.391 123.498 112.471C123.446 112.482 123.398 112.485 123.349 112.485Z" fill="black"/>
<path d="M103.154 115.022C102.239 115.022 101.479 114.303 101.436 113.38C101.345 111.361 101.325 110.347 101.382 108.962C97.9362 109.627 94.4274 109.016 91.7212 108.543C87.3496 107.772 83.9526 106.216 81.3354 103.782C76.525 99.3014 74.2804 92.0372 75.1748 83.8472C75.5102 80.8114 76.7602 76.2934 78.5232 71.7612C78.8672 70.8754 79.8648 70.4368 80.7506 70.7808C81.6364 71.1248 82.075 72.1224 81.731 73.0082C79.7758 78.0364 78.8298 82.0984 78.5948 84.2226C77.818 91.3176 79.6698 97.5298 83.6802 101.262C85.8246 103.257 88.568 104.493 92.3146 105.152C96.1446 105.82 99.5644 106.27 102.586 105.035C103.133 104.811 103.758 104.886 104.24 105.23C104.722 105.576 104.991 106.144 104.954 106.735C104.77 109.618 104.739 110.255 104.876 113.213C104.919 114.162 104.186 114.968 103.237 115.011C103.205 115.022 103.179 115.022 103.154 115.022Z" fill="black"/>
<path d="M88.6165 80.2955C89.7248 80.2955 90.6231 79.2046 90.6231 77.8589C90.6231 76.513 89.7248 75.4221 88.6165 75.4221C87.5081 75.4221 86.6099 76.513 86.6099 77.8589C86.6099 79.2046 87.5081 80.2955 88.6165 80.2955Z" fill="black"/>
<path d="M98.363 80.9691C99.4714 80.9691 100.37 79.8782 100.37 78.5325C100.37 77.1868 99.4714 76.0957 98.363 76.0957C97.2549 76.0957 96.3564 77.1868 96.3564 78.5325C96.3564 79.8782 97.2549 80.9691 98.363 80.9691Z" fill="black"/>
<path d="M129.782 49.0205C124.085 50.9125 118.452 49.7945 110.561 49.859C101.703 49.945 98.9729 49.73 93.1679 46.8275C88.9969 37.7975 90.6739 33.218 92.6519 23.629C95.8554 26.768 98.6719 28.8535 101.617 32.2075C104.756 27.5635 112.045 21.8445 112.045 21.8445L120.215 32.0785C120.215 32.0785 125.654 30.1865 131.115 26.037C131.717 36.013 132.685 39.797 129.804 49.0205H129.782Z" fill="#FFD30D"/>
<path d="M121.635 51.8551C120.152 51.8551 118.625 51.7904 117.013 51.7259C114.992 51.6399 112.885 51.5754 110.563 51.5969C101.361 51.6829 98.3937 51.3819 92.3737 48.3934C92.0297 48.2214 91.7502 47.9419 91.5782 47.5764C87.5792 38.9549 88.6327 34.1174 90.3527 26.0979C90.5462 25.2164 90.7397 24.2919 90.9332 23.3029C91.0622 22.6794 91.5137 22.1849 92.1157 22.0129C92.7177 21.8409 93.3627 21.9914 93.8142 22.4214C94.9967 23.5824 96.1362 24.6144 97.2542 25.6034C98.6732 26.8719 100.049 28.0974 101.447 29.5379C105.016 25.1734 110.67 20.7015 110.95 20.4865C111.702 19.906 112.777 20.035 113.358 20.766L120.732 30.0109C122.538 29.2584 126.301 27.4954 130.042 24.6789C130.558 24.2919 131.224 24.2274 131.805 24.4854C132.385 24.7434 132.772 25.3024 132.794 25.9476C132.88 27.5386 132.987 28.9789 133.095 30.3119C133.611 37.2779 133.912 41.4919 131.418 49.5544C131.246 50.0919 130.837 50.5004 130.321 50.6724C127.462 51.6184 124.645 51.8764 121.635 51.8764V51.8551ZM111.358 48.1569C113.444 48.1569 115.314 48.2214 117.163 48.3074C121.506 48.4794 124.989 48.6084 128.408 47.6624C130.429 40.8039 130.171 37.0844 129.676 30.5699C129.655 30.1399 129.612 29.6884 129.569 29.2154C124.946 32.2254 120.947 33.6444 120.754 33.7089C120.066 33.9454 119.292 33.7089 118.84 33.1499L111.745 24.2919C109.552 26.1409 105.166 29.9894 103.016 33.1929C102.715 33.6444 102.242 33.9239 101.705 33.9454C101.167 33.9669 100.651 33.7736 100.307 33.3651C98.5442 31.3656 96.8242 29.8174 94.9752 28.1619C94.5452 27.7749 94.1152 27.3879 93.6852 27.0009C92.1157 34.2679 91.2772 38.3959 94.4592 45.5769C99.4902 48.0064 102.027 48.2429 110.541 48.1569C110.821 48.1569 111.079 48.1569 111.358 48.1569Z" fill="black"/>
<path d="M92.1109 28.3561C90.9069 28.5926 89.7029 27.8186 88.9074 26.8726C88.4559 26.3351 88.0689 25.7331 87.9614 25.0451C87.7679 23.8196 88.4989 22.6156 89.4664 21.8631C90.4339 21.1107 91.6594 20.7667 92.8419 20.4227C93.2719 20.2937 93.7449 20.1647 94.1749 20.2937C94.5619 20.4012 94.8629 20.7022 95.1639 20.9817C95.7229 21.5406 96.2819 22.0996 96.6044 22.8091C97.1849 24.0561 96.8839 25.6256 96.0239 26.7006C95.1639 27.7756 93.8094 28.3991 92.4334 28.4851C92.1109 28.5066 91.7024 28.3991 92.0894 28.3561H92.1109Z" fill="#FFD30D"/>
<path d="M92.3075 30.2052C92.0495 30.2052 91.7915 30.1837 91.5765 30.1192C90.1575 30.0977 88.717 29.3237 87.5775 27.9907C86.825 27.1092 86.395 26.2277 86.2445 25.3247C85.965 23.5832 86.8035 21.7342 88.416 20.5087C89.663 19.5627 91.082 19.1542 92.3505 18.7887C92.845 18.6382 93.705 18.3802 94.651 18.6597C95.468 18.8962 96.027 19.4337 96.371 19.7777C97.0805 20.4657 97.747 21.1752 98.177 22.1212C98.994 23.9272 98.693 26.1632 97.3815 27.7972C96.2635 29.1947 94.5005 30.0977 92.5655 30.2267C92.4795 30.2267 92.3935 30.2267 92.3075 30.2267V30.2052ZM92.114 26.6362C92.3075 26.6362 92.4795 26.6577 92.673 26.7222C93.5115 26.5932 94.264 26.1847 94.7155 25.6042C95.21 24.9807 95.339 24.1207 95.0595 23.4972C94.866 23.0672 94.4575 22.6372 93.963 22.1642C93.877 22.0782 93.7265 21.9277 93.6405 21.8847C93.705 21.9277 93.447 22.0137 93.318 22.0352C92.286 22.3362 91.2325 22.6372 90.48 23.2177C89.8995 23.6477 89.5555 24.2712 89.6415 24.7442C89.6845 25.0237 89.878 25.3462 90.2005 25.7332C90.738 26.3567 91.3615 26.7222 91.77 26.6362C91.8345 26.6362 91.8775 26.6362 91.942 26.6147C91.985 26.6147 92.0495 26.6147 92.0925 26.6147L92.114 26.6362Z" fill="black"/>
<path d="M111.204 24.381C110.021 23.306 108.237 22.618 107.936 21.0485C107.764 20.1025 108.258 19.1565 108.882 18.404C109.957 17.1355 111.827 16.254 113.289 17.071C113.848 17.3935 115.052 17.9095 115.418 18.447C116.063 19.4145 116.772 20.9195 116.428 22.0375C116.149 22.9835 114.386 23.3275 113.504 23.779C112.988 24.0585 112.408 24.2735 111.827 24.1875C111.247 24.1015 110.688 23.6285 111.182 24.3595L111.204 24.381Z" fill="#FFD30D"/>
<path d="M111.142 26.0801C110.755 26.0801 110.368 25.9511 110.045 25.6501C109.744 25.3921 109.4 25.1556 109.056 24.9191C107.938 24.1451 106.562 23.1561 106.24 21.3717C106.003 20.0387 106.476 18.5981 107.573 17.3081C109.121 15.5021 111.873 14.3196 114.13 15.5881L114.496 15.7816C115.485 16.2976 116.345 16.7706 116.839 17.5231C117.398 18.3616 118.667 20.5546 118.086 22.5541C117.635 24.0591 116.13 24.6181 115.012 25.0481C114.754 25.1556 114.496 25.2416 114.324 25.3276C113.743 25.6286 112.862 26.0371 111.83 25.9296C111.615 26.0371 111.378 26.0801 111.142 26.0801ZM111.292 22.2746C111.486 22.2961 111.679 22.3391 111.894 22.4251C112.066 22.4896 112.217 22.5111 112.711 22.2531C112.991 22.1026 113.378 21.9521 113.765 21.8016C114.044 21.6941 114.517 21.5221 114.775 21.3717C114.775 20.9847 114.539 20.2536 113.958 19.4151C113.851 19.3076 113.206 18.9851 112.883 18.8346L112.41 18.5766C111.873 18.2756 110.841 18.7056 110.153 19.5226C109.766 19.9741 109.529 20.4686 109.594 20.7266C109.658 21.1351 110.346 21.6081 111.013 22.0811C111.099 22.1456 111.185 22.1886 111.271 22.2531L111.292 22.2746Z" fill="black"/>
<path d="M131.093 28.1202C129.566 28.2492 127.997 27.2387 127.459 25.7982C126.922 24.3577 127.459 22.5732 128.706 21.6702C129.48 21.1113 130.426 20.8748 131.394 20.8533C132.168 20.8533 133.006 20.9823 133.522 21.5627C133.587 21.6272 133.673 21.7347 133.759 21.8422C134.619 22.7667 135.199 23.9492 135.35 25.2177C135.35 25.4112 135.371 25.5832 135.371 25.7337C135.328 26.6152 134.081 27.3462 133.415 27.9052C132.748 28.4642 131.695 28.6147 131.114 28.1417L131.093 28.1202Z" fill="#FFD30D"/>
<path d="M132.016 30.1438C131.543 30.1438 131.07 30.0578 130.64 29.8643C128.554 29.7783 126.598 28.4023 125.845 26.4243C125.028 24.2528 125.802 21.6728 127.673 20.3182C128.64 19.6087 129.909 19.2002 131.328 19.1572C133.263 19.1357 134.273 19.8452 134.811 20.4902L135.004 20.7052C136.144 21.9308 136.875 23.4788 137.047 25.0698C137.068 25.3493 137.09 25.6073 137.068 25.8438C137.004 27.3273 135.757 28.2948 134.918 28.9398C134.768 29.0473 134.639 29.1548 134.51 29.2623C133.8 29.8858 132.876 30.2083 131.994 30.2083L132.016 30.1438ZM131.113 26.4028C131.457 26.4028 131.779 26.5103 132.08 26.7038C132.145 26.7038 132.231 26.6608 132.295 26.5963C132.467 26.4673 132.639 26.3168 132.854 26.1448C133.091 25.9728 133.478 25.6718 133.65 25.4568C133.65 25.4353 133.65 25.4138 133.65 25.3923C133.564 24.5323 133.155 23.6938 132.51 23.0058C132.381 22.8768 132.274 22.7478 132.209 22.6618C132.188 22.6618 131.951 22.5328 131.457 22.5543C130.962 22.5543 130.274 22.6618 129.758 23.0488C129.135 23.5003 128.855 24.4678 129.113 25.1988C129.371 25.9298 130.253 26.4458 131.005 26.4028C131.048 26.4028 131.091 26.4028 131.134 26.4028H131.113Z" fill="black"/>
</g>
<path d="M60.9029 240.502L2 199.179" stroke="black" stroke-width="3" stroke-linecap="round"/>
<path d="M53.0892 234.828C56.3516 230.099 55.1623 223.62 50.4329 220.358C45.7035 217.095 39.2249 218.285 35.9626 223.014C32.7003 227.743 33.8896 234.222 38.619 237.484C43.3484 240.747 49.8269 239.557 53.0892 234.828Z" fill="#4CAF50" stroke="black" stroke-width="3"/>
<path d="M37.4926 224.07C40.7549 219.34 39.5656 212.862 34.8362 209.6C30.1068 206.337 23.6282 207.527 20.3659 212.256C17.1036 216.985 18.2929 223.464 23.0223 226.726C27.7517 229.989 34.2303 228.799 37.4926 224.07Z" fill="#FFC0CB" stroke="black" stroke-width="3"/>
<path d="M19.2387 198.841C23.9681 202.103 25.1574 208.582 21.8951 213.311C18.6328 218.041 12.1542 219.23 7.42479 215.968C2.69536 212.705 1.50605 206.227 4.76838 201.497C8.03069 196.768 14.5093 195.578 19.2387 198.841Z" fill="#FFFFF0" stroke="black" stroke-width="3"/>
<defs>
<clipPath id="clip0_845_2939">
<rect width="172" height="412.8" fill="white" transform="translate(26)"/>
</clipPath>
<clipPath id="clip1_845_2939">
<rect width="172" height="172" fill="white" transform="translate(26 109.65)"/>
</clipPath>
</defs>
</svg>
