<svg width="119" height="286" viewBox="0 0 119 286" fill="none" xmlns="http://www.w3.org/2000/svg">
<g clip-path="url(#clip0_845_2310)">
<path d="M76.1422 260.982C74.9384 263.719 72.711 265.871 69.9364 266.979C67.1637 268.087 64.0657 268.064 61.3129 266.91L61.1482 266.842C59.9741 270.218 58.2248 273.405 57.485 276.901C57.37 277.435 57.2867 278.021 57.5425 278.505C57.9095 279.198 58.794 279.393 59.5695 279.498C62.2569 279.895 65.0474 280.223 67.6496 279.445C71.9951 278.154 74.9701 273.932 76.1046 269.533C76.9355 266.324 76.9733 262.994 76.8344 259.666L76.1422 260.982Z" fill="black"/>
<path d="M54.4624 259.842C52.7645 261.534 50.696 262.807 48.4231 263.562C46.1502 264.316 43.7324 264.533 41.3605 264.191C40.6186 264.11 39.9006 263.881 39.2501 263.516C38.6175 263.119 38.1058 262.481 38.0304 261.741V261.018C35.3569 263.282 32.6635 265.502 31.7551 268.782C31.5746 269.438 31.4814 270.161 31.767 270.768C32.3084 271.93 33.8435 272.129 35.1228 272.158C38.4826 272.264 41.89 272.357 45.1566 271.574C48.4231 270.792 51.5924 268.981 53.2881 266.076C54.6369 263.77 54.9422 261.018 55.1962 258.359L54.4624 259.842Z" fill="black"/>
<path d="M62.4176 241.365C62.5069 245.237 62.5724 251.095 62.6159 254.967C62.6497 258.182 62.6616 261.435 61.9019 264.559C61.7156 265.329 61.4835 266.084 61.2236 266.83L61.3883 266.898C64.1432 268.05 67.2391 268.076 70.0118 266.967C72.7845 265.859 75.0117 263.707 76.2176 260.97L76.9019 259.485C76.8503 258.307 76.7769 257.128 76.7036 255.956C76.4735 251.816 76.3326 245.686 76.2593 241.539" fill="white"/>
<path d="M44.5875 242.282C44.6073 242.78 44.6271 245.755 44.647 246.254C44.7561 249.034 44.8453 251.937 43.7465 254.499C42.6002 257.167 40.3273 259.124 38.0464 261.052L38.102 261.729C38.1773 262.47 38.697 263.119 39.3237 263.504C39.9742 263.87 40.6903 264.098 41.4319 264.179C43.8041 264.521 46.2238 264.306 48.4986 263.552C50.7734 262.797 52.8421 261.522 54.5419 259.831L55.2757 258.361C55.7179 253.728 56.0908 246.611 56.3923 241.968" fill="white"/>
<path d="M82.2788 131.231C87.5208 168.038 92.1023 204.77 98.3993 241.416C98.3993 241.416 95.6761 243.11 94.0479 242.258C93.3061 241.861 92.6595 241.265 91.8662 241.041C90.8745 240.759 89.8392 241.08 88.8574 241.368C82.6239 243.179 76.0789 243.652 69.6508 242.758C67.5445 242.462 65.3511 242.03 63.3359 242.711C61.7889 243.233 60.4502 244.389 58.8258 244.56C56.5926 244.792 54.6054 243.104 52.3801 242.8C48.3341 242.248 44.0282 246.249 40.5315 244.139C38.7941 243.09 37.9671 240.785 36.0592 240.097C33.933 239.333 31.1386 240.85 29.5142 239.289C28.9192 238.709 28.6732 237.853 28.4908 237.037C26.9855 230.315 27.3563 223.335 27.739 216.454C29.3098 188.18 30.9699 159.66 38.5145 132.361" fill="black"/>
<path fill-rule="evenodd" clip-rule="evenodd" d="M39.9164 245.159C40.8646 245.731 41.8502 245.946 42.8379 245.946C43.0391 245.946 43.2404 245.937 43.4416 245.92L43.4567 246.299L43.4574 246.318C43.5545 248.826 43.6645 251.667 42.6515 254.026C41.5954 256.484 39.4365 258.312 37.1522 260.246L37.1458 260.252L37.1413 260.255C34.4493 262.536 31.6653 264.894 30.6801 268.453C30.3726 269.569 30.3985 270.488 30.7615 271.261C31.6804 273.232 34.1973 273.316 35.1524 273.348L35.1564 273.348L35.3041 273.352C36.3904 273.385 37.4873 273.418 38.5917 273.418C40.8884 273.418 43.2108 273.279 45.5134 272.718C49.5257 271.743 52.6792 269.593 54.3908 266.664C55.8089 264.233 56.1639 261.509 56.4535 258.458C56.8564 254.231 57.2043 249.944 57.493 245.694C57.964 245.768 58.4507 245.792 58.9525 245.739C59.808 245.649 60.5576 245.36 61.264 245.018C61.3352 248.329 61.39 251.673 61.4257 254.981L61.426 255.004C61.4557 257.919 61.4893 261.221 60.7454 264.279C60.2761 266.208 59.5129 268.034 58.7049 269.968L58.6805 270.026C57.7991 272.136 56.8879 274.316 56.394 276.641L56.3926 276.647C56.2908 277.135 56.0809 278.14 56.5666 279.049C57.259 280.361 58.812 280.574 59.4674 280.663H59.4721C61.0032 280.891 62.588 281.093 64.1667 281.093C65.4776 281.093 66.7887 280.952 68.0659 280.568C73.2404 279.019 76.2452 273.995 77.33 269.809C78.4566 265.46 78.1948 260.953 77.9409 256.594L77.8993 255.879C77.6939 252.175 77.554 248.4 77.4734 244.367C81.4221 244.246 85.342 243.625 89.1943 242.506L89.2816 242.481L89.2861 242.479C90.1234 242.234 90.911 242.002 91.5446 242.183C91.8758 242.276 92.2388 242.516 92.6215 242.771L92.6365 242.78C92.9035 242.956 93.1789 243.137 93.4982 243.309C95.664 244.443 98.6905 242.634 99.0277 242.423C99.4402 242.169 99.6544 241.688 99.5732 241.21C95.0015 214.604 91.2689 187.478 87.6592 161.245C86.2987 151.356 84.8905 141.127 83.4566 131.059C83.3633 130.407 82.7604 129.954 82.1099 130.048C81.4593 130.141 81.0071 130.745 81.1004 131.396C82.5107 141.294 83.8941 151.348 85.2337 161.083L85.3011 161.573C88.8751 187.547 92.57 214.397 97.0821 240.769C96.2174 241.172 95.1384 241.482 94.6109 241.206C94.3946 241.089 94.1706 240.942 93.9345 240.785C93.4387 240.457 92.8794 240.088 92.1931 239.893C90.9 239.526 89.6843 239.883 88.6112 240.199L88.5279 240.223C82.4173 241.998 76.1202 242.453 69.8192 241.577C69.6069 241.547 69.3908 241.516 69.1766 241.484C67.1417 241.184 65.0373 240.876 62.9588 241.579C62.2643 241.813 61.6397 242.142 61.0349 242.46L61.0151 242.471C60.2139 242.894 59.4562 243.293 58.7046 243.372C57.7188 243.475 56.6776 243.041 55.5749 242.578L55.5509 242.568C54.6064 242.174 53.63 241.766 52.5423 241.619C50.5125 241.341 48.5658 242.006 46.6842 242.649L46.6756 242.651L46.6658 242.655C44.5101 243.39 42.6512 244.024 41.1461 243.116C40.5493 242.755 40.0405 242.142 39.5013 241.491L39.4858 241.473C38.7074 240.533 37.8235 239.465 36.4635 238.976C35.315 238.561 34.1019 238.666 33.0284 238.759L33.0065 238.761C31.6816 238.876 30.8427 238.912 30.3449 238.434C29.9839 238.082 29.7995 237.429 29.6527 236.775C28.1701 230.157 28.5555 223.231 28.9281 216.533L28.9288 216.52C30.4659 188.83 32.0585 160.196 39.6626 132.679C39.8391 132.046 39.4663 131.388 38.8335 131.214C38.1989 131.037 37.5445 131.41 37.3698 132.044C29.6964 159.809 28.0978 188.572 26.5527 216.389C26.17 223.254 25.7754 230.351 27.3302 237.298C27.5563 238.31 27.8776 239.357 28.6909 240.149C30.0094 241.416 31.7105 241.267 33.2115 241.136C34.1278 241.055 34.9938 240.979 35.6562 241.218C36.4047 241.487 36.9832 242.186 37.6521 242.995L37.6554 242.999C38.2703 243.743 38.9684 244.587 39.9164 245.159ZM75.0927 244.38C73.2284 244.342 71.3595 244.194 69.49 243.934L68.8315 243.839C66.9929 243.569 65.2575 243.315 63.7185 243.835C63.6856 243.846 63.6528 243.858 63.6199 243.869C63.7029 247.546 63.7661 251.272 63.8057 254.955C63.8375 258.018 63.8732 261.487 63.058 264.843C62.9539 265.271 62.8366 265.695 62.7089 266.115C64.9528 266.828 67.3568 266.744 69.5693 265.859C72.0683 264.861 74.0417 262.954 75.1266 260.49C75.2505 260.21 75.469 260.001 75.728 259.884C75.6866 258.836 75.6261 257.79 75.5658 256.752L75.5233 256.016C75.3153 252.271 75.1734 248.456 75.0927 244.38ZM55.1547 244.979C54.9858 244.91 54.8198 244.841 54.6566 244.772C53.8097 244.417 53.0085 244.083 52.221 243.976C50.7517 243.774 49.1522 244.32 47.4598 244.898L47.4452 244.903C46.912 245.087 46.3629 245.275 45.8042 245.441L45.8347 246.204C45.9438 248.97 46.0668 252.106 44.8391 254.967C43.6657 257.698 41.4826 259.69 39.2789 261.567C39.2808 261.581 39.2824 261.594 39.2838 261.608C39.3155 261.91 39.5654 262.249 39.9244 262.478C40.4321 262.758 40.9815 262.933 41.5586 262.996L41.5717 262.998L41.5983 263.002C43.776 263.316 46.033 263.115 48.1215 262.422C50.2099 261.729 52.1398 260.542 53.7006 258.987C53.7996 258.888 53.9114 258.811 54.0309 258.755C54.048 258.582 54.0648 258.408 54.0814 258.232C54.5 253.843 54.8606 249.388 55.1547 244.979ZM75.7417 264.086C75.664 265.83 75.4565 267.551 75.0254 269.214C73.6193 274.641 70.1564 277.459 67.3837 278.289C65.0354 278.99 62.465 278.698 59.8053 278.304C58.891 278.182 58.7065 278.006 58.6669 277.931C58.6312 277.862 58.6094 277.669 58.7224 277.136C59.1706 275.024 60.0036 273.032 60.8863 270.923C61.2376 270.084 61.5939 269.233 61.9267 268.366C63.1836 268.773 64.4823 268.977 65.7811 268.977C67.3618 268.977 68.9426 268.677 70.4518 268.074C72.5693 267.227 74.381 265.851 75.7417 264.086ZM32.9728 269.088C33.6237 266.737 35.3627 264.95 37.3718 263.194C37.6837 263.716 38.1383 264.177 38.6988 264.521L38.7404 264.545C39.5297 264.988 40.3845 265.262 41.2811 265.363C42.0546 265.472 42.8379 265.528 43.6194 265.528C45.4004 265.528 47.1834 265.242 48.8732 264.684C50.5329 264.133 52.1069 263.314 53.5175 262.274C53.2611 263.429 52.8957 264.496 52.3321 265.46C50.9696 267.792 48.2782 269.593 44.9462 270.403C41.8046 271.167 38.4651 271.065 35.2361 270.965L35.2299 270.965C33.8772 270.921 33.1196 270.687 32.9154 270.25C32.8399 270.089 32.7883 269.756 32.9728 269.088Z" fill="black"/>
<g clip-path="url(#clip1_845_2310)">
<path d="M67.3081 75.8625C67.4866 77.8657 68.3058 82.3917 71.3541 81.7134L71.6814 82.2092C71.5327 85.3171 69.9578 87.5087 67.4907 89.7796C64.9836 92.0506 61.7865 93.415 58.4129 93.655C55.4379 93.8732 52.2744 93.1611 50.0491 91.1659C47.8238 89.1707 46.6538 86.4059 48.1273 84.0359H48.3415C49.0119 84.0557 49.6288 83.7046 50.1959 83.3476C50.9178 82.8915 52.4074 81.0212 52.8537 80.4837C53.4487 79.7122 53.6905 76.7868 53.9961 75.8625H67.3081Z" fill="white"/>
<path d="M84.7061 100.291C84.2738 100.989 83.8057 101.664 83.3059 102.314C81.5943 104.524 79.363 106.422 76.6955 107.273L76.3107 107.883C76.0965 125.948 76.987 144.026 78.7522 162.623C78.0659 162.681 77.4154 162.951 76.8878 163.395C76.3603 163.839 75.9834 164.434 75.8089 165.101C75.6344 165.767 75.6681 166.471 75.9101 167.116C76.15 167.76 76.5844 168.316 77.1536 168.704C77.7684 169.121 78.5062 169.323 79.1369 169.718C82.0286 171.521 81.6816 176.493 84.7379 177.996C86.993 179.105 89.8192 177.413 90.8406 175.114C91.862 172.816 91.5824 170.18 91.2789 167.685C89.9838 157.07 86.8957 125.977 86.3563 119.47L84.8391 101.17L84.7061 100.291Z" fill="white"/>
<path d="M34.7085 100.827C31.7613 119.611 28.8399 137.959 27.4138 157.622C26.7733 157.544 26.1227 157.655 25.5417 157.937C24.9605 158.218 24.4726 158.663 24.1375 159.214C23.8022 159.765 23.6296 160.402 23.6455 161.047C23.6594 161.693 23.8597 162.32 24.2208 162.856C24.435 163.169 24.7027 163.451 24.8991 163.772C25.4008 164.609 25.373 165.65 25.3135 166.626C25.2025 168.449 25.0576 170.368 25.8411 172.019C26.6246 173.669 28.719 174.853 30.3234 173.98C31.442 173.369 31.922 172.04 32.3068 170.826C32.8483 169.224 33.3083 167.594 33.6832 165.944C34.1097 163.911 34.2782 161.832 34.4488 159.759L35.4404 147.606L37.6835 104.655C37.0787 103.042 36.0989 101.598 34.8256 100.438L34.7085 100.827Z" fill="white"/>
<path d="M87.6792 133.274C90.0393 138.147 91.9275 142.973 91.9275 142.973C92.1198 143.546 92.112 144.167 91.9056 144.734C91.3642 145.843 89.4959 145.886 88.9009 144.807L87.6792 133.274Z" fill="white"/>
<path d="M37.6831 104.655C36.7311 102.126 34.8728 100.041 32.4709 98.8039C34.7043 97.4154 35.8307 94.8371 37.1754 92.5742C40.4261 87.1458 45.4479 83.0026 51.394 80.8427C50.8247 81.4675 49.8787 82.5782 50.0056 83.8614C50.0889 84.7578 50.7077 85.5393 51.4752 86.0113C52.2428 86.4833 53.1412 86.6876 54.0318 86.8185C57.7803 87.352 61.6021 86.6975 64.9579 84.9463C66.7429 84.0062 68.4765 82.6178 68.887 80.456C71.5862 79.9007 74.3748 81.2255 76.3819 83.1137C78.3892 85.0018 79.8053 87.4135 81.4137 89.6587C83.0221 91.9038 84.944 94.0596 87.5065 95.0751C86.2729 97.5841 85.0273 100.111 83.3158 102.322C81.6041 104.534 79.3728 106.43 76.7053 107.281L76.3205 107.891C76.1658 120.944 76.5882 134.002 77.4986 147.259L77.4886 147.37C74.9539 149.482 71.2135 149.19 68.0243 148.344C64.8351 147.497 61.6161 146.198 58.3496 146.67C56.7371 146.904 55.2139 147.564 53.6093 147.842C48.4845 148.728 43.2544 145.66 38.1553 146.674C36.4455 147.017 34.6724 147.81 33.0362 147.211C31.0965 146.503 30.3548 143.677 31.6974 142.108C34.5277 130.146 36.634 118.026 38.0044 105.813L37.6831 104.655Z" fill="white"/>
<path d="M72.4016 150.174C70.9816 150.174 69.4128 149.946 67.7011 149.492C67.0526 149.319 66.3961 149.127 65.7635 148.942C63.2426 148.203 60.8607 147.505 58.5024 147.846C57.7369 147.957 56.9753 148.181 56.1681 148.417C55.4084 148.639 54.6211 148.871 53.796 149.014C51.053 149.488 48.3538 148.935 45.7437 148.397C43.1633 147.868 40.7278 147.368 38.3736 147.84C37.9868 147.917 37.5941 148.018 37.1776 148.127C35.7814 148.492 34.1987 148.905 32.614 148.328C31.3347 147.86 30.347 146.719 29.9702 145.277C29.6232 143.948 29.8532 142.592 30.5831 141.578C33.7306 128.245 35.9876 114.573 37.2927 100.936C37.3561 100.281 37.9373 99.8035 38.5898 99.8649C39.2443 99.9285 39.7242 100.509 39.6608 101.162C38.3359 114.992 36.0412 128.859 32.8381 142.378C32.7945 142.562 32.7072 142.733 32.5842 142.877C32.2094 143.316 32.0924 143.986 32.2709 144.672C32.4514 145.361 32.8838 145.89 33.4272 146.09C34.3118 146.414 35.4105 146.126 36.5747 145.823C37.0071 145.71 37.4534 145.593 37.9056 145.503C40.7318 144.936 43.5224 145.509 46.2216 146.065C48.7246 146.578 51.0908 147.064 53.3894 146.668C54.0816 146.549 54.7698 146.346 55.4977 146.132C56.3485 145.882 57.2272 145.624 58.1613 145.49C61.0352 145.073 63.7801 145.878 66.4338 146.658C67.0526 146.838 67.6932 147.027 68.312 147.191C72.0922 148.195 74.9165 147.947 76.7094 146.453C77.2152 146.033 77.9649 146.1 78.3854 146.606C78.8059 147.112 78.7384 147.862 78.2326 148.282C76.7213 149.541 74.7697 150.174 72.4016 150.174Z" fill="black"/>
<path d="M76.7056 108.471C76.2017 108.471 75.7336 108.147 75.573 107.641C75.3728 107.015 75.7198 106.346 76.3445 106.146C79.0954 105.269 81.1422 103.185 82.3759 101.592C83.778 99.7814 84.8768 97.701 85.9062 95.6324C83.4924 94.3095 81.7412 92.1576 80.4481 90.3507C80.0474 89.7914 79.6568 89.2182 79.2779 88.6649C78.1017 86.9434 76.9912 85.319 75.5691 83.9803C73.786 82.3024 71.6916 81.4178 69.8312 81.5289C69.2164 83.3099 67.7687 84.8113 65.5136 85.9973C61.9098 87.8775 57.8836 88.5677 53.8654 87.9945C52.9868 87.8656 51.8543 87.6395 50.8528 87.0227C49.6926 86.3087 48.9329 85.1683 48.8218 83.9684C48.8099 83.8513 48.8039 83.7383 48.8039 83.6292C44.2581 85.8644 40.6267 89.125 38.1972 93.1829C37.9611 93.5796 37.7331 93.9842 37.493 94.4145C36.6502 95.9139 35.7853 97.4531 34.5379 98.6747C36.4657 100.059 37.9492 101.983 38.7981 104.232C39.0302 104.847 38.7187 105.533 38.1039 105.765C37.4891 105.997 36.8028 105.686 36.5707 105.071C35.7199 102.814 34.0717 100.964 31.9278 99.8588C31.547 99.6624 31.3011 99.2778 31.2833 98.8494C31.2654 98.421 31.4796 98.0164 31.8445 97.7903C33.4113 96.8164 34.3871 95.083 35.4185 93.2464C35.6565 92.824 35.9024 92.3877 36.1542 91.9631C39.3872 86.5626 44.5259 82.465 51.0154 80.1068C51.5311 79.9204 52.1062 80.1088 52.4096 80.563C52.7131 81.0172 52.6695 81.6221 52.3006 82.0267C52.2014 82.1358 52.0923 82.2468 51.9793 82.3619C51.4081 82.941 51.1444 83.2663 51.1899 83.7423C51.2315 84.1984 51.5806 84.6764 52.0983 84.9957C52.7271 85.3825 53.5163 85.5392 54.2046 85.6403C57.721 86.1421 61.2513 85.5352 64.4069 83.891C66.3604 82.8617 67.4453 81.6637 67.717 80.2337C67.8063 79.7597 68.1733 79.3869 68.6472 79.2897C71.4258 78.7185 74.621 79.8232 77.1973 82.2468C78.8078 83.7621 80.0454 85.5729 81.2414 87.3242C81.6122 87.8676 81.997 88.4289 82.3819 88.9664C83.6849 90.785 85.4956 92.9984 87.9451 93.9704C88.2545 94.0932 88.4964 94.3393 88.6175 94.6487C88.7365 94.9581 88.7225 95.3032 88.5758 95.6026C87.3342 98.1254 86.053 100.735 84.258 103.052C82.1934 105.72 79.7082 107.574 77.0685 108.415C76.9474 108.453 76.8246 108.471 76.7056 108.471Z" fill="black"/>
<path d="M90.3727 146.781C89.2957 146.781 88.3378 146.249 87.8578 145.38C87.5405 144.805 87.7487 144.081 88.3259 143.764C88.9009 143.447 89.6249 143.655 89.9422 144.232C89.9998 144.335 90.1882 144.407 90.3944 144.401C90.575 144.397 90.7416 144.333 90.813 144.246C90.8982 143.962 90.8963 143.657 90.807 143.375C90.6424 142.957 88.8217 138.365 86.6083 133.792C86.3227 133.201 86.5685 132.489 87.1597 132.201C87.7507 131.916 88.4627 132.162 88.7503 132.755C91.1024 137.614 93.0164 142.489 93.0362 142.538C93.0442 142.556 93.0502 142.574 93.0561 142.594C93.3318 143.419 93.3218 144.323 93.0243 145.141C93.0105 145.18 92.9926 145.218 92.9748 145.256C92.5285 146.168 91.5627 146.753 90.4539 146.781C90.4282 146.781 90.4003 146.781 90.3727 146.781Z" fill="black"/>
<path d="M86.2589 179.533C85.541 179.533 84.8449 179.377 84.2121 179.065C82.2248 178.087 81.4196 176.053 80.7075 174.256C80.1244 172.784 79.5751 171.394 78.506 170.727C78.278 170.585 78.0024 170.461 77.7108 170.331C77.33 170.16 76.8957 169.968 76.4851 169.688C75.7057 169.158 75.1186 168.413 74.7873 167.53C74.4562 166.648 74.4086 165.7 74.6485 164.789C74.8884 163.879 75.3963 163.078 76.1182 162.471C76.5247 162.13 76.9828 161.866 77.4728 161.687C75.6897 142.568 74.9222 124.95 75.1245 107.86C75.1324 107.207 75.664 106.683 76.3145 106.683C76.3185 106.683 76.3245 106.683 76.3283 106.683C76.9849 106.691 77.5124 107.231 77.5045 107.887C77.3003 125.202 78.0955 143.066 79.94 162.5C79.9697 162.818 79.8726 163.133 79.6684 163.377C79.464 163.621 79.1705 163.774 78.8532 163.8C78.407 163.835 77.9924 164.008 77.6492 164.295C77.3062 164.583 77.0661 164.962 76.9531 165.394C76.84 165.826 76.8619 166.277 77.0185 166.695C77.1753 167.114 77.455 167.467 77.8239 167.719C78.0598 167.879 78.3632 168.014 78.6845 168.157C79.0218 168.308 79.4025 168.478 79.7714 168.708C81.5048 169.789 82.2586 171.695 82.925 173.379C83.5319 174.91 84.1031 176.356 85.2652 176.927C86.0051 177.29 86.7646 177.149 87.2725 176.965C88.3197 176.586 89.2934 175.67 89.7556 174.63C90.6083 172.713 90.426 170.509 90.1006 167.828C88.8174 157.306 85.7333 126.326 85.174 119.567L83.6568 101.267C83.6033 100.612 84.0892 100.037 84.7437 99.9818C85.3982 99.9302 85.9733 100.414 86.0289 101.069L87.5462 119.369C88.1055 126.114 91.1836 157.036 92.4647 167.538C92.7563 169.938 93.1192 172.923 91.9333 175.594C91.2114 177.221 89.7377 178.601 88.0876 179.2C87.4727 179.422 86.8579 179.533 86.2589 179.533Z" fill="black"/>
<path d="M29.1391 175.464C28.7127 175.464 28.2763 175.394 27.844 175.253C26.541 174.829 25.3608 173.786 24.7658 172.53C23.8733 170.652 24.0023 168.562 24.1153 166.715L24.1253 166.554C24.1768 165.713 24.1967 164.916 23.8773 164.385C23.8099 164.274 23.7008 164.137 23.5858 163.992C23.4767 163.855 23.3537 163.698 23.2367 163.53C22.7428 162.798 22.4731 161.953 22.4533 161.076C22.4334 160.202 22.6635 159.343 23.1197 158.595C23.5758 157.848 24.2324 157.251 25.0197 156.868C25.4283 156.669 25.8606 156.535 26.3049 156.463C27.723 137.647 30.4402 120.333 33.316 102.023L33.5322 100.642C33.6334 99.9938 34.2422 99.5514 34.8927 99.6506C35.5413 99.7518 35.9856 100.361 35.8844 101.011L35.6683 102.392C32.7468 120.999 29.988 138.577 28.6016 157.709C28.5778 158.034 28.4231 158.334 28.1713 158.54C27.9214 158.746 27.5961 158.843 27.2728 158.804C26.8563 158.754 26.4378 158.825 26.061 159.008C25.6842 159.19 25.3688 159.476 25.1526 159.835C24.9345 160.192 24.8253 160.602 24.8333 161.021C24.8432 161.439 24.9721 161.844 25.2061 162.191C25.2716 162.286 25.3589 162.397 25.4501 162.512C25.5969 162.699 25.7635 162.907 25.9122 163.151C26.5846 164.274 26.5707 165.519 26.4993 166.697L26.4894 166.86C26.3882 168.494 26.2851 170.184 26.9138 171.507C27.2351 172.181 27.8876 172.764 28.5798 172.988C28.8853 173.087 29.3375 173.159 29.754 172.933C30.462 172.546 30.8428 171.501 31.172 170.466C31.174 170.458 31.176 170.452 31.1799 170.444C31.7056 168.889 32.1557 167.29 32.5207 165.688C32.9273 163.748 33.0958 161.699 33.2585 159.718L34.2541 147.508C34.3077 146.854 34.8829 146.364 35.5374 146.42C36.1919 146.473 36.6798 147.048 36.6262 147.703L35.6305 159.914C35.462 161.973 35.2854 164.101 34.8491 166.188C34.8472 166.193 34.8472 166.201 34.8451 166.207C34.4624 167.887 33.9904 169.565 33.439 171.195C33.0879 172.304 32.4989 174.147 30.8943 175.023C30.3569 175.317 29.7579 175.464 29.1391 175.464Z" fill="black"/>
</g>
<path d="M53.3796 79.3809C53.2844 77.3143 53.3042 75.8407 53.4351 73.776C50.9599 74.7875 48.2229 74.371 45.6724 73.9269C43.227 73.4964 40.9401 72.6515 39.0936 70.934C35.6288 67.707 34.7085 62.6733 35.2043 58.1434C35.4027 56.3446 36.1682 53.3735 37.4474 50.0831L38.1773 46.5469C38.7466 41.4834 42.2055 37.009 46.6402 34.5022C51.075 31.9951 56.3586 31.299 61.4378 31.783C67.0903 32.3224 72.8678 34.4703 76.3902 38.923C79.9126 43.3755 80.4223 50.4263 76.4934 54.5258L70.9559 58.5223C73.2307 56.5231 74.5695 56.2554 76.0629 57.0089C78.1892 58.082 78.5084 60.3509 78.0464 62.2568C77.5466 64.3593 76.2138 66.1719 74.504 67.4631C73.6413 68.1037 72.7012 68.6373 71.7075 69.0498C71.2196 69.2561 70.7219 69.4385 70.2162 69.5972C69.6469 69.7776 69.0717 69.7717 68.8039 70.3271C67.6258 72.7824 66.7076 75.0336 66.9377 77.7468" fill="white"/>
<path d="M102.935 97.7783C102.417 97.098 101.771 96.4852 101.483 95.68C101.148 94.7458 101.352 93.7184 101.461 92.7347C101.779 89.8133 101.225 86.864 99.8747 84.2539C98.9922 82.5602 97.7684 81.0052 97.3182 79.1509C96.1282 74.2838 100.601 69.2758 99.1924 64.4742C97.9588 60.2596 92.7466 58.2128 91.4217 54.024C90.448 50.9379 91.8701 47.5326 91.152 44.377C90.6363 42.1101 89.0855 40.2458 87.9926 38.195C86.3166 35.0514 85.6919 31.4041 83.8097 28.3795C81.9276 25.3549 77.9649 23.0483 74.8272 24.7441C69.8432 20.9261 65.8546 19.1431 61.8145 18.6929C57.7745 18.2427 53.683 19.0281 49.8333 20.3351C45.6167 21.767 41.5469 23.8833 38.4489 27.0784C35.351 30.2736 33.3081 34.6587 33.562 39.1034L33.6493 39.2264C29.1669 45.8904 26.6421 54.6071 28.0623 62.6297C28.439 64.7558 29.2523 66.7451 29.7818 68.8336C30.2319 70.6522 30.2876 72.5443 29.9444 74.3869C29.3356 77.8835 27.7429 81.1977 27.5387 84.7677C27.4197 86.7291 27.9214 88.6788 28.9765 90.3369C30.1665 92.2547 31.4954 93.9267 31.7789 96.2412L31.7691 96.1817C31.7453 96.2988 31.767 96.4197 31.8305 96.5228C31.8941 96.624 31.9931 96.6974 32.1083 96.7272C32.8737 96.2908 32.9413 95.2376 32.9889 94.357C33.1296 91.8104 34.1372 89.002 36.4735 87.9826C37.4949 87.5344 38.7366 87.4372 39.4863 86.6122C40.458 85.5431 39.4227 82.7923 40.6703 82.0604C41.6083 81.511 42.9035 81.9831 43.8317 81.4158C44.5814 80.9597 44.9225 79.3829 45.5175 78.7383C47.2034 76.9216 51.1899 78.7383 53.193 78.0977C53.3279 76.2552 53.3655 75.0136 53.445 73.776C51.6381 74.5138 49.6508 74.49 47.7449 74.25C45.0415 73.9783 42.2649 73.3833 39.8849 71.5983C33.1415 66.2433 34.3315 56.7233 37.7032 49.98C37.7032 46.41 38.8932 42.0467 42.7983 40.9776C43.6532 43.435 46.4299 44.8233 49.0082 44.4267C51.3882 43.8317 52.7765 41.8483 54.5615 40.2617C55.3549 39.6667 56.1482 40.8567 56.3465 41.65C56.5449 43.435 56.9415 45.6167 58.9249 46.41C60.1149 46.8067 61.5032 46.41 62.6932 47.005C64.0815 47.9967 64.2799 49.7817 65.6682 50.575C66.6599 50.9717 68.0482 51.3683 68.6432 52.1617C70.2299 54.5417 68.8415 57.12 69.2382 59.6983C69.4365 60.2933 69.6349 60.69 69.8332 61.285C71.2215 63.8633 73.304 64.5575 73.899 67.5325C73.9308 67.7169 73.8832 67.7507 73.899 67.9292C73.1295 68.3 72.352 68.8296 71.519 69.02C70.4539 69.258 69.5635 70.21 68.9328 71.1005C68.6967 71.4773 68.5301 71.8938 68.4428 72.3301C68.0918 73.6808 67.7705 75.0374 67.477 76.4039C67.348 77.0128 67.5524 77.6475 67.6872 77.83C67.8221 78.0124 69.2382 78.0442 69.2382 78.0442C69.2382 78.0442 70.819 78.3515 71.6063 78.1909C71.4892 80.0949 72.2489 81.9929 73.0105 83.7086C73.6055 85.2952 74.0022 87.0802 73.2088 88.8652C72.4155 90.4519 71.6222 92.0386 71.4238 93.8236C71.2255 96.0052 72.6138 97.7902 73.2088 99.7736C73.6055 102.352 73.0105 104.732 73.8038 107.31C74.2005 108.897 75.093 110.583 76.9772 110.23L78.4131 110.507C79.2421 110.505 80.0632 110.652 80.8388 110.942C84.0358 113.207 88.5976 113.468 92.0862 111.564C93.5201 110.771 94.7934 109.662 96.3602 109.2C97.3797 108.901 98.4665 108.899 99.4979 108.633C103.833 107.509 105.642 101.348 102.935 97.7783Z" fill="black"/>
<path d="M31.7571 97.4313C31.1642 97.4313 30.6504 96.989 30.577 96.386C30.3747 94.7359 29.5377 93.4407 28.5679 91.9413C28.3596 91.62 28.1514 91.2968 27.9452 90.9655C26.7571 89.0953 26.1959 86.9255 26.3307 84.7002C26.4577 82.4768 27.0825 80.3745 27.6873 78.3396C28.1118 76.9136 28.5105 75.5689 28.7523 74.1865C29.0677 72.4868 29.0181 70.7891 28.6076 69.1231C28.4072 68.3337 28.1535 67.5246 27.9095 66.7412C27.5187 65.4917 27.1141 64.1984 26.8721 62.8399C25.4957 55.0592 27.6537 45.9855 32.6436 38.5639C33.0106 38.0184 33.7503 37.8737 34.2958 38.2407C34.8413 38.6075 34.986 39.3474 34.619 39.8927C29.9642 46.8146 27.9452 55.2377 29.2164 62.4253C29.4306 63.6332 29.7957 64.7974 30.1803 66.0291C30.4362 66.8423 30.698 67.6851 30.9162 68.544C31.412 70.5471 31.4715 72.586 31.0947 74.6071C30.8329 76.1124 30.3945 77.588 29.9701 79.016C29.3792 81.0072 28.8199 82.8875 28.7087 84.837C28.6036 86.5625 29.0379 88.2404 29.9623 89.6963C30.1665 90.0254 30.3688 90.3369 30.5671 90.6463C31.6024 92.2469 32.6714 93.901 32.9411 96.0944C33.0206 96.747 32.5565 97.3401 31.9039 97.4194C31.8544 97.4293 31.8068 97.4313 31.7571 97.4313Z" fill="black"/>
<path d="M86.9653 114.006C84.5239 114.006 82.0784 113.286 80.0692 111.872C79.5318 111.493 79.4028 110.751 79.7817 110.214C80.1604 109.676 80.9022 109.547 81.4397 109.926C84.3413 111.969 88.3795 112.199 91.4892 110.503C91.9454 110.255 92.3898 109.966 92.8598 109.66C93.8157 109.038 94.8055 108.393 95.9974 108.042C96.6262 107.858 97.2429 107.774 97.8379 107.695C98.3119 107.631 98.7601 107.572 99.1766 107.465C100.718 107.068 102.005 105.769 102.624 103.992C103.304 102.038 103.05 99.9342 101.963 98.5002C101.844 98.3435 101.711 98.1849 101.571 98.0162C101.126 97.4807 100.621 96.8759 100.339 96.0825C99.9581 95.0214 100.089 93.9643 100.204 93.0322C100.222 92.8894 100.24 92.7485 100.256 92.6057C100.547 89.9104 100.043 87.211 98.7958 84.8034C98.542 84.3155 98.2544 83.8354 97.9509 83.3278C97.235 82.1297 96.4932 80.8921 96.1402 79.4324C95.4778 76.7212 96.3246 74.0993 97.1417 71.5625C97.9133 69.1687 98.6432 66.9058 98.0283 64.8093C97.4968 62.9826 96.0152 61.5586 94.4485 60.0493C92.7587 58.4249 91.0132 56.7451 90.2656 54.3829C89.6804 52.5265 89.847 50.6563 90.0077 48.8475C90.1407 47.356 90.2675 45.9478 89.97 44.6409C89.6566 43.2683 88.8812 42.0129 88.0582 40.6841C87.6733 40.0632 87.2766 39.4206 86.9196 38.7542C86.1164 37.2469 85.5473 35.6483 84.9978 34.1013C84.3473 32.2747 83.7344 30.5492 82.7765 29.0081C80.7694 25.7753 77.3282 24.736 75.3747 25.7932C74.9622 26.0153 74.4565 25.9757 74.0855 25.692C69.4009 22.1042 65.571 20.3113 61.6659 19.8789C58.2168 19.4962 54.4645 20.0157 50.1983 21.4656C45.5909 23.0264 41.9198 25.1942 39.286 27.9114C36.1721 31.1225 34.512 35.1804 34.7322 39.0398C34.77 39.6964 34.2681 40.2576 33.6116 40.2953C32.9591 40.3331 32.3938 39.8312 32.3562 39.1747C32.0984 34.6508 34.0003 29.9423 37.5763 26.2533C40.476 23.2625 44.4644 20.8944 49.4327 19.2106C54.0361 17.6476 58.1237 17.0924 61.9277 17.5127C66.1244 17.9768 70.1665 19.7896 74.9622 23.3715C78.542 22.0169 82.7546 24.4623 84.7976 27.7527C85.8903 29.5119 86.5766 31.4397 87.239 33.3061C87.7845 34.8391 88.2981 36.2871 89.02 37.6377C89.3393 38.2366 89.7004 38.8177 90.0812 39.4346C90.9696 40.8705 91.89 42.3561 92.2905 44.1152C92.6713 45.7871 92.5226 47.4531 92.3779 49.0617C92.231 50.7099 92.0923 52.2647 92.5345 53.667C93.0978 55.4499 94.5556 56.8522 96.0966 58.3357C97.82 59.9938 99.605 61.7093 100.311 64.1429C101.13 66.9394 100.254 69.6625 99.4048 72.2944C98.6551 74.617 97.949 76.8125 98.4507 78.8712C98.7206 79.9798 99.3373 81.0132 99.9918 82.1059C100.299 82.6216 100.619 83.1531 100.906 83.7065C102.372 86.5348 102.963 89.7021 102.62 92.8656C102.604 93.0203 102.584 93.1729 102.564 93.3257C102.473 94.0595 102.388 94.7518 102.578 95.2813C102.719 95.6779 103.05 96.0746 103.399 96.493C103.55 96.6736 103.705 96.8619 103.857 97.0604C105.42 99.121 105.809 102.076 104.871 104.773C103.99 107.304 102.082 109.172 99.7697 109.77C99.2163 109.912 98.6768 109.984 98.1553 110.055C97.6258 110.127 97.1239 110.194 96.6717 110.327C95.8149 110.579 95.0116 111.102 94.1629 111.656C93.675 111.973 93.1692 112.302 92.6297 112.594C90.8963 113.54 88.9307 114.006 86.9653 114.006Z" fill="black"/>
<path d="M76.9651 111.354C76.1658 111.354 75.3824 111.092 74.6684 110.583C73.411 109.684 72.4808 108.076 72.2408 106.386C72.0941 105.347 72.1258 104.327 72.1575 103.344C72.1932 102.239 72.2269 101.194 72.0068 100.224C71.8521 99.5454 71.5665 98.8692 71.263 98.1512C70.783 97.0147 70.2853 95.8407 70.2337 94.4879C70.1702 92.82 70.7949 91.3642 71.3999 89.9561C71.9056 88.7799 72.3816 87.6673 72.3816 86.5685C72.3816 85.5153 71.9413 84.4523 71.4753 83.3278C71.0053 82.1952 70.5193 81.0231 70.4043 79.7042C70.2158 77.5721 71.025 75.6582 71.8085 73.8078C72.5423 72.0743 73.2344 70.438 72.9905 68.8455C72.7684 67.3956 71.7826 66.1085 70.7414 64.7459C69.5335 63.1652 68.284 61.5309 68.0183 59.4107C67.8894 58.3914 67.9886 57.3361 68.0817 56.3148C68.2623 54.3651 68.3277 53.1414 67.451 52.5682C67.2151 52.4135 66.8719 52.3064 66.5109 52.1915C66.0647 52.0506 65.5589 51.8919 65.0731 51.5965C64.1509 51.0331 63.5875 50.1585 63.0897 49.389C62.6315 48.6769 62.2349 48.0622 61.7113 47.8915C61.4177 47.7963 61.0052 47.8221 60.5709 47.848C60.3388 47.8618 60.1008 47.8756 59.849 47.8756C58.1393 47.8697 55.918 46.7491 54.9521 41.4834C53.0362 43.6294 51.3503 44.9284 49.9304 45.3449C46.6757 46.301 43.2028 44.4127 42.1873 41.1364C41.993 40.5076 42.3441 39.8412 42.9727 39.6468C43.5995 39.4525 44.2679 39.8036 44.4623 40.4302C45.1068 42.5068 47.2151 43.6611 49.2619 43.0601C50.2397 42.7726 51.7232 41.5567 53.3317 39.7241C53.6094 39.4049 53.9743 39.1688 54.3848 39.0479C54.7934 38.9249 55.2278 38.923 55.6403 39.0379C56.0529 39.1529 56.4218 39.383 56.7074 39.7003C56.9949 40.0197 57.1834 40.4105 57.2548 40.8308C57.4412 41.9218 58.1849 45.4897 59.855 45.4956C60.0314 45.4956 60.2258 45.4837 60.43 45.4718C61.0369 45.4361 61.7271 45.3945 62.4451 45.6265C63.7779 46.057 64.476 47.1418 65.0929 48.0998C65.4856 48.7107 65.8564 49.2858 66.3146 49.5654C66.5526 49.7103 66.8798 49.8134 67.227 49.9224C67.703 50.0712 68.2444 50.2418 68.7561 50.5769C70.8782 51.9654 70.6442 54.5001 70.4558 56.535C70.3725 57.4294 70.2872 58.3516 70.3824 59.1152C70.5688 60.5988 71.5724 61.9117 72.6355 63.302C73.8136 64.8412 75.0313 66.4337 75.3467 68.4864C75.6939 70.7474 74.835 72.7764 74.0041 74.7379C73.3039 76.394 72.6415 77.9569 72.7784 79.496C72.8636 80.4499 73.2582 81.406 73.6787 82.4194C74.2142 83.7105 74.7676 85.0453 74.7676 86.5705C74.7676 88.1571 74.1707 89.5494 73.5935 90.8962C73.0699 92.116 72.576 93.2682 72.6196 94.3987C72.6534 95.317 73.0461 96.2452 73.4626 97.2249C73.7937 98.0064 74.135 98.8136 74.3352 99.6982C74.6229 100.966 74.5831 102.213 74.5434 103.421C74.5137 104.345 74.486 105.22 74.6029 106.055C74.7497 107.088 75.3348 108.131 76.0568 108.649C76.4474 108.929 76.8322 109.028 77.2269 108.952C77.8735 108.829 78.4963 109.252 78.6192 109.898C78.7422 110.543 78.3197 111.168 77.6731 111.291C77.4332 111.332 77.1971 111.354 76.9651 111.354Z" fill="black"/>
<path d="M53.3777 79.5792C52.745 79.5792 52.2194 79.0815 52.1896 78.4428C52.1262 77.0466 52.1123 76.3445 52.152 75.3866C49.768 75.8467 47.3404 75.4242 45.4681 75.0969C42.4435 74.5655 40.0933 73.4864 38.2825 71.8026C34.9544 68.7026 33.3995 63.677 34.0203 58.0105C34.2663 55.7852 35.1667 52.7389 36.4975 49.6131C36.4181 46.5012 37.2056 44.1709 39.0342 42.0844C39.4666 41.5906 40.2202 41.541 40.714 41.9733C41.2079 42.4057 41.2575 43.1574 40.8251 43.6533C39.3595 45.3272 38.7783 47.1617 38.8873 49.7916C38.8954 49.9701 38.8616 50.1486 38.7902 50.3133C37.509 53.2704 36.6106 56.2454 36.3884 58.2704C35.8509 63.1791 37.1321 67.4769 39.9069 70.0592C41.3904 71.4396 43.2884 72.2945 45.8807 72.7507C48.5304 73.2127 50.8946 73.5242 52.9869 72.6713C53.3658 72.5166 53.798 72.5682 54.1312 72.8062C54.4644 73.0442 54.651 73.439 54.6252 73.8475C54.4982 75.8428 54.4763 76.2829 54.5715 78.3297C54.6013 78.9863 54.0936 79.5435 53.4372 79.5733C53.4153 79.5792 53.3975 79.5792 53.3777 79.5792Z" fill="black"/>
<path d="M67.3522 77.824C66.7413 77.824 66.2196 77.3559 66.1682 76.733C65.9162 73.7461 66.4973 72.3776 67.7309 69.8093C68.1831 68.8712 69.038 68.6648 69.5497 68.5399C69.6608 68.5142 69.7658 68.4884 69.8572 68.4587C70.4838 68.2602 71.1522 68.6074 71.3506 69.2341C71.5489 69.8608 71.2019 70.5293 70.575 70.7276C70.4065 70.7811 70.2478 70.8187 70.109 70.8525C70.0197 70.8744 69.9086 70.9001 69.8353 70.9239C68.6948 73.3039 68.3418 74.1983 68.5401 76.5307C68.5958 77.1852 68.1098 77.7624 67.4553 77.8159C67.4196 77.8219 67.3858 77.824 67.3522 77.824Z" fill="black"/>
<path d="M43.3219 55.5531C44.0887 55.5531 44.7102 54.7984 44.7102 53.8673C44.7102 52.9362 44.0887 52.1814 43.3219 52.1814C42.5551 52.1814 41.9336 52.9362 41.9336 53.8673C41.9336 54.7984 42.5551 55.5531 43.3219 55.5531Z" fill="black"/>
<path d="M50.065 56.0192C50.8318 56.0192 51.4535 55.2644 51.4535 54.3334C51.4535 53.4024 50.8318 52.6475 50.065 52.6475C49.2984 52.6475 48.6768 53.4024 48.6768 54.3334C48.6768 55.2644 49.2984 56.0192 50.065 56.0192Z" fill="black"/>
</g>
<defs>
<clipPath id="clip0_845_2310">
<rect width="119" height="285.6" fill="white"/>
</clipPath>
<clipPath id="clip1_845_2310">
<rect width="119" height="119" fill="white" transform="translate(0 75.8625)"/>
</clipPath>
</defs>
</svg>
