<svg width="198" height="413" viewBox="0 0 198 413" fill="none" xmlns="http://www.w3.org/2000/svg">
<path d="M136.054 377.218C134.314 381.173 131.095 384.285 127.084 385.886C123.077 387.488 118.602 387.453 114.62 385.786L114.382 385.688C112.685 390.567 110.157 395.174 109.087 400.227C108.921 400.999 108.801 401.846 109.171 402.544C109.701 403.546 110.979 403.828 112.1 403.981C115.985 404.555 120.018 405.028 123.779 403.903C130.06 402.037 134.36 395.935 136 389.577C137.201 384.939 137.255 380.126 137.055 375.315L136.054 377.218Z" fill="black"/>
<path d="M104.719 375.57C102.265 378.016 99.275 379.856 95.9898 380.947C92.7046 382.037 89.21 382.35 85.7816 381.856C84.7094 381.739 83.6716 381.409 82.7314 380.881C81.817 380.307 81.0774 379.385 80.9684 378.315V377.27C77.1042 380.542 73.2112 383.751 71.8982 388.492C71.6374 389.44 71.5026 390.484 71.9154 391.363C72.698 393.042 74.9168 393.329 76.7658 393.372C81.622 393.524 86.547 393.659 91.2684 392.528C95.9898 391.397 100.571 388.779 103.022 384.58C104.971 381.248 105.412 377.27 105.779 373.427L104.719 375.57Z" fill="black"/>
<path d="M116.856 352.072C118.221 353.174 119.797 353.981 121.489 354.437C123.18 354.893 124.949 354.994 126.68 354.73C128.412 354.466 130.072 353.843 131.548 352.901C133.027 351.96 134.294 350.72 135.266 349.259L136.163 348.26C136.02 330.49 136.481 298.215 136.825 283.573L114.62 287.483C115.48 302.577 115.922 334.296 116.18 351.532L116.856 352.072Z" fill="white"/>
<path d="M107.857 346.575C108.829 330.685 109.428 310.355 109.368 296.463L87.8682 291.208C88.4416 305.559 89.422 331.369 90.1128 347.976L91.3024 348.392C94.0458 348.946 96.815 349.503 99.6158 349.454C102.417 349.405 105.283 348.711 107.493 346.988L107.857 346.575Z" fill="white"/>
<path d="M84.6003 198.344C78.033 226.748 71.5485 255.169 65.1471 283.611C63.9117 289.102 63.6937 296.596 68.9913 298.473C73.3859 300.032 77.6546 296.122 82.1293 294.816C91.0417 292.21 99.9227 300.195 109.188 299.549C116.432 299.044 122.727 293.315 129.983 293.619C134.432 293.806 138.425 296.251 142.653 297.638C146.882 299.024 152.282 299.05 154.963 295.488C157.096 292.652 156.66 288.711 156.109 285.201C151.766 256.834 147.418 228.462 143.069 200.086L84.6003 198.344Z" fill="black"/>
<path d="M114.62 385.786C118.602 387.453 123.077 387.488 127.084 385.886C131.092 384.285 134.311 381.17 136.054 377.218L137.029 374.747C136.957 372.674 136.886 372.034 136.771 369.971C136.41 363.501 136.229 356.021 136.166 348.157L135.269 349.262C134.294 350.72 133.03 351.96 131.551 352.904C130.072 353.846 128.415 354.468 126.68 354.735C124.949 354.999 123.18 354.902 121.489 354.443C119.797 353.986 118.218 353.18 116.856 352.077L116.18 351.449C116.271 357.477 116.34 363.263 116.395 368.547C116.443 373.194 116.463 377.898 115.366 382.413C115.093 383.527 114.758 384.623 114.379 385.705L114.62 385.786Z" fill="black"/>
<path d="M80.9682 378.315C81.0772 379.385 81.8282 380.324 82.7312 380.881C83.6714 381.409 84.7092 381.739 85.7814 381.856C89.2098 382.347 92.7044 382.037 95.9896 380.947C99.2748 379.856 102.265 378.016 104.719 375.571L105.67 374.595L105.782 373.447C106.559 365.295 107.264 356.188 107.84 346.825L107.479 346.986C105.269 348.708 102.402 349.405 99.6016 349.451C96.8008 349.497 94.0344 348.943 91.2882 348.389L90.1072 348.22C90.2218 350.967 90.3278 353.562 90.4224 355.944C90.583 359.962 90.7092 364.156 89.1238 367.861C87.4038 371.834 83.9638 374.715 80.584 377.588L80.9682 378.315Z" fill="black"/>
<path fill-rule="evenodd" clip-rule="evenodd" d="M82.6111 296.469C83.7872 296.125 84.9753 295.992 86.1771 296.016C86.52 304.598 87.0032 315.801 87.4736 326.702L87.4959 327.221C87.9403 337.462 88.3961 348.051 88.7171 356.018L88.7173 356.024C88.8607 359.648 89.0231 363.756 87.5561 367.186C86.0281 370.743 82.9063 373.386 79.5983 376.185C75.7025 379.48 71.6747 382.89 70.2501 388.036C69.8057 389.652 69.8459 390.978 70.3675 392.092C71.7121 394.976 75.3613 395.062 76.7229 395.094L76.7799 395.096C78.3417 395.144 79.9746 395.194 81.6393 395.194C84.9303 395.194 88.3617 394.996 91.6783 394.198C97.3887 392.832 102.067 389.64 104.515 385.447C106.73 381.663 107.158 377.189 107.502 373.594L107.502 373.587C109.743 350.081 111.146 321.736 111.1 301.047C111.722 300.94 112.335 300.802 112.94 300.642C114.072 321.074 114.473 349.147 114.678 368.559C114.724 372.786 114.772 377.58 113.697 382C113.022 384.785 111.919 387.422 110.751 390.213L110.73 390.263C109.446 393.326 108.122 396.492 107.408 399.861C107.179 400.926 107.027 402.168 107.652 403.351C108.652 405.243 110.895 405.552 111.84 405.681H111.848C114.067 406.012 116.36 406.305 118.645 406.305C120.54 406.305 122.429 406.105 124.275 405.548C131.769 403.321 136.109 396.058 137.671 390.002C139.297 383.699 138.918 377.163 138.551 370.843L138.494 369.867C137.351 349.454 138.024 318.888 138.512 297.9C139.682 298.385 140.886 298.871 142.115 299.274C144.637 300.1 147.292 300.404 149.591 300.129C152.489 299.782 154.82 298.533 156.333 296.524C158.844 293.183 158.412 288.791 157.807 284.939C153.838 259.018 149.864 233.091 145.891 207.162L144.766 199.825C144.623 198.886 143.746 198.244 142.805 198.384C141.868 198.528 141.223 199.406 141.366 200.347C145.709 228.684 150.049 257.018 154.389 285.352L154.407 285.467C154.926 288.771 155.29 292.187 153.587 294.451C151.377 297.388 146.604 297.121 143.187 296.001C141.894 295.577 140.63 295.051 139.291 294.494C136.387 293.286 133.38 292.038 130.055 291.897C125.792 291.722 121.939 293.384 118.215 294.994C115.099 296.343 112.155 297.615 109.071 297.83C105.241 298.096 101.434 296.732 97.4053 295.288L97.3859 295.281C92.3119 293.461 87.0631 291.581 81.6507 293.163C80.0397 293.631 78.5031 294.383 77.0211 295.112L77.0132 295.116C74.2358 296.477 71.836 297.654 69.5677 296.848C64.7259 295.135 66.2453 286.573 66.8273 283.989C73.1969 255.683 79.7415 227.001 86.2775 198.732C86.4925 197.804 85.9163 196.88 84.9905 196.665C84.0645 196.45 83.1415 197.027 82.9265 197.954C76.3905 226.229 69.8429 254.919 63.4703 283.232C61.4981 291.994 63.3471 298.298 68.4183 300.094C72.0475 301.383 75.4931 299.695 78.5319 298.206C79.9451 297.511 81.2839 296.857 82.6111 296.469ZM96.2221 298.524C99.9077 299.848 103.702 301.208 107.661 301.303C107.682 314.192 107.143 330.032 106.19 345.801C104.074 347.332 101.441 347.696 99.5731 347.729C96.9989 347.777 94.3448 347.25 91.7757 346.731C91.5491 341.363 91.2956 335.481 91.0434 329.631L90.9226 326.829C90.4591 316.09 89.9815 305.029 89.6375 296.459C91.7807 296.931 93.9719 297.717 96.2221 298.524ZM99.6333 351.171C101.961 351.131 104.093 350.691 105.934 349.883C105.413 357.896 104.788 365.822 104.08 373.263L104.078 373.277C104.055 373.515 104.032 373.756 104.008 374.001C103.826 374.083 103.656 374.199 103.506 374.348C101.253 376.592 98.4667 378.309 95.4481 379.31C92.4295 380.312 89.1729 380.602 86.0253 380.151L85.9679 380.143C85.1337 380.051 84.3397 379.798 83.6059 379.394C83.0869 379.063 82.7257 378.573 82.6799 378.136C82.6782 378.12 82.6763 378.103 82.6741 378.087C85.8598 375.374 89.0209 372.493 90.7181 368.541C92.4951 364.391 92.3063 359.673 92.1543 355.879C92.0838 354.128 92.0066 352.248 91.9243 350.275C94.299 350.746 96.7396 351.179 99.2579 351.179C99.3839 351.179 99.5103 351.179 99.6333 351.171ZM79.9195 380.436C77.0181 382.972 74.5069 385.555 73.5667 388.952C73.3001 389.919 73.3747 390.398 73.4837 390.628C73.7789 391.262 74.8997 391.604 76.8175 391.65L76.8306 391.65C81.4994 391.796 86.3134 391.947 90.8785 390.852C95.6803 389.701 99.5703 387.097 101.548 383.71C102.372 382.302 102.904 380.706 103.268 379.08C101.225 380.59 98.9427 381.78 96.5345 382.58C94.0893 383.392 91.5093 383.802 88.9349 383.802C87.8083 383.802 86.6817 383.725 85.5667 383.564C84.2681 383.418 83.0325 383.022 81.8915 382.382C81.8715 382.37 81.8515 382.359 81.8285 382.344C81.0238 381.848 80.3693 381.185 79.9195 380.436ZM129.908 295.338C131.664 295.413 133.372 295.89 135.103 296.528C134.765 310.95 134.32 330.264 134.449 347.742C134.211 347.871 134 348.059 133.839 348.3C132.993 349.569 131.912 350.628 130.628 351.446C129.344 352.264 127.927 352.795 126.422 353.025C124.917 353.254 123.41 353.168 121.939 352.772C120.468 352.373 119.121 351.687 117.937 350.729C117.922 350.716 117.906 350.704 117.89 350.692C117.629 333.854 117.183 314.786 116.343 299.885C116.336 299.763 116.317 299.644 116.286 299.531C117.4 299.098 118.494 298.625 119.577 298.157L119.584 298.154C123.104 296.631 126.43 295.192 129.908 295.338ZM118.118 368.518C118.073 364.318 118.02 359.712 117.952 354.865C118.925 355.394 119.957 355.806 121.042 356.099C122.269 356.432 123.516 356.598 124.771 356.598C125.494 356.598 126.216 356.544 126.941 356.429C128.922 356.127 130.783 355.427 132.474 354.351C133.202 353.887 133.879 353.364 134.504 352.787C134.594 358.981 134.768 364.847 135.06 370.062L135.118 371.066C135.206 372.584 135.295 374.116 135.354 375.649C134.978 375.817 134.66 376.119 134.481 376.526C132.913 380.088 130.06 382.847 126.448 384.29C123.253 385.566 119.776 385.687 116.532 384.657C116.718 384.047 116.889 383.431 117.04 382.809C118.216 377.98 118.164 372.97 118.118 368.545L118.118 368.518ZM115.401 387.91C114.921 389.158 114.409 390.383 113.904 391.589L113.898 391.602C112.625 394.646 111.42 397.524 110.773 400.577C110.607 401.343 110.639 401.629 110.696 401.734C110.748 401.833 111.017 402.087 112.336 402.267C116.186 402.835 119.904 403.26 123.292 402.246C127.308 401.052 132.316 396.985 134.34 389.141C134.961 386.735 135.26 384.245 135.372 381.722C133.405 384.274 130.786 386.264 127.724 387.488C125.542 388.357 123.258 388.794 120.976 388.794C119.098 388.794 117.22 388.499 115.401 387.91Z" fill="black"/>
<g clip-path="url(#clip0_845_2955)">
<mask id="mask0_845_2955" style="mask-type:luminance" maskUnits="userSpaceOnUse" x="26" y="109" width="172" height="173">
<path d="M198 109.65H26V281.65H198V109.65Z" fill="white"/>
</mask>
<g mask="url(#mask0_845_2955)">
<path d="M123.286 109.65C123.544 112.545 124.728 119.087 129.134 118.107L129.607 118.823C129.392 123.315 127.116 126.483 123.55 129.765C119.926 133.048 115.305 135.02 110.429 135.367C106.129 135.682 101.557 134.653 98.3402 131.769C95.1238 128.885 93.4324 124.889 95.5624 121.463H95.872C96.841 121.492 97.7324 120.985 98.5524 120.469C99.5958 119.809 101.749 117.106 102.394 116.329C103.254 115.214 103.603 110.986 104.045 109.65H123.286Z" fill="white"/>
<path d="M62.4222 227.108C60.4156 227.857 58.6956 229.577 59.269 231.87C62.9956 235.597 62.1356 241.043 61.849 245.63C62.4308 246.908 63.3596 247.998 64.5264 248.778C65.696 249.557 67.0576 249.996 68.4624 250.042L70.8646 228.149L62.4222 227.108Z" fill="white"/>
<path d="M129.848 116.561C134.919 117.92 138.852 121.827 142.02 125.826C145.474 130.198 148.186 135.109 150.047 140.36C151.087 143.29 152.733 146.593 153.412 149.625L154.318 152.38C159.191 173.399 160.091 195.071 160.418 216.685L160.705 217.379C162.454 223.843 169.047 240.183 170.48 247.063C170.526 247.651 170.429 248.242 170.194 248.783C167.327 252.223 162.454 251.363 158.684 252.53L145.362 255.185C126.296 258.605 119.488 261.159 100.39 257.94L99.5302 257.725C98.2746 247.164 97.3486 236.19 96.8126 225.133L96.6808 225.707C94.8718 236.279 93.1776 246.06 92.8222 256.779L92.7678 257.234C88.6598 256.449 76.2414 254.227 72.1278 253.442C71.0154 253.227 69.7942 252.946 69.1436 252.008C68.6046 251.24 68.6074 250.228 68.6476 249.291C68.811 245.564 69.241 241.863 69.671 238.162L71.6376 221.223H71.4884C68.576 220.871 66.2368 220.518 63.3242 220.166C64.531 206.847 66.079 193.566 67.9682 180.319C69.6136 168.781 71.5228 157.239 74.917 146.091C77.9328 136.184 85.8706 123.071 94.955 118.104L100.611 119.007C104.338 122.71 110.607 123.496 115.119 120.821L129.848 116.561Z" fill="white"/>
<path d="M139.694 234.35C136.934 235.241 133.362 238.862 135.695 241.924C136.98 243.612 138.92 244.521 140.7 245.579C142.074 246.396 142.435 249.145 142.965 250.604C144.307 254.282 146.913 257.292 151.181 257.014C155.527 256.727 158.23 253.026 159.056 249.033C159.953 244.704 158.517 238.426 157.797 234.143L139.694 234.35Z" fill="white"/>
<path d="M137.015 226.848C136.568 229.041 136.418 231.282 136.576 233.516C136.57 233.645 136.59 233.774 136.633 233.894C136.679 234.014 136.748 234.126 136.837 234.221C137.018 234.33 137.23 234.378 137.439 234.353L156.932 234.298C157.228 234.321 157.523 234.269 157.792 234.146C158.34 233.834 158.383 233.071 158.366 232.441L158.154 227.157L137.015 226.848Z" fill="white"/>
<path d="M64.2273 220.742C63.3099 222.679 63.1207 224.87 62.9487 227.008C65.3883 227.751 67.9223 228.138 70.4709 228.155L71.2477 221.507L64.2273 220.742Z" fill="white"/>
<path d="M99.6964 163.698L99.92 121.239C99.92 119.58 100.247 113.76 100.754 112.955C97.0276 115.397 94.7544 119.445 92.61 123.338C91.3802 125.571 90.1104 127.965 90.2794 130.504C90.5174 134.128 93.5848 137.026 94.1094 140.618C94.7142 144.758 91.839 148.628 91.5294 152.799C91.3716 155.035 92.2488 159.965 92.8366 162.138L97.1194 177.951L96.9732 192.367C101.95 181.99 107.763 172.034 114.359 162.603C116.412 159.661 118.659 156.393 118.218 152.833C117.931 150.54 116.561 148.232 117.341 146.056C117.673 145.127 118.364 144.379 119.035 143.657L128.727 133.262C129.389 132.551 130.072 131.806 130.361 130.877C130.688 129.816 130.456 128.673 130.221 127.586L127.268 113.981C127.007 112.78 126.506 111.335 125.29 111.14C122.375 113.061 119.786 115.925 117.519 118.923C107.677 131.952 103.073 147.891 99.7452 164.036" fill="white"/>
<path d="M115.119 120.821C110.607 123.496 104.337 122.71 100.61 119.007V156.806L115.119 120.821Z" fill="white"/>
<path fill-rule="evenodd" clip-rule="evenodd" d="M100.115 259.634C106.413 260.697 111.398 261.142 115.913 261.142C123.203 261.142 129.272 259.981 137.671 258.37L138.346 258.241C140.524 257.826 142.785 257.394 145.295 256.942C146.838 258.126 148.653 258.751 150.654 258.751C150.866 258.751 151.078 258.745 151.285 258.728C154.321 258.527 156.961 256.878 158.731 254.25C158.885 254.245 159.038 254.219 159.191 254.17C160.26 253.837 161.485 253.685 162.78 253.525C165.762 253.155 169.139 252.734 171.515 249.881C171.621 249.755 171.707 249.615 171.773 249.463C172.114 248.669 172.26 247.792 172.194 246.929C172.189 246.857 172.177 246.783 172.163 246.711C171.317 242.647 168.833 235.691 166.425 228.949L166.344 228.724C164.661 224.013 163.076 219.576 162.359 216.929C162.313 216.759 162.242 216.602 162.153 216.46C161.937 195.522 161.424 175.522 156.537 154.45C156.322 153.524 155.399 152.948 154.473 153.163C153.547 153.378 152.971 154.301 153.186 155.227C158.354 177.515 158.552 198.749 158.758 221.229L158.759 221.298C158.77 222.617 158.781 223.941 158.796 225.271L137.092 224.916C133.867 199.718 132.755 174.084 133.784 148.708C133.824 147.759 133.084 146.957 132.136 146.919C131.184 146.885 130.384 147.619 130.347 148.568C129.289 174.634 130.476 200.965 133.873 226.833C133.961 227.501 134.425 228.039 135.036 228.242C134.797 230.001 134.738 231.781 134.856 233.556C134.853 233.874 134.91 234.186 135.022 234.493C135.148 234.834 135.34 235.141 135.59 235.405C135.615 235.43 135.64 235.455 135.665 235.478C134.623 236.264 133.76 237.272 133.38 238.483C133.05 239.53 132.95 241.158 134.326 242.964C135.601 244.641 137.361 245.647 138.915 246.533L139.134 246.659C139.365 246.791 139.595 246.923 139.821 247.058C140.245 247.311 140.709 249.001 140.912 249.74L140.916 249.755C141.057 250.271 141.191 250.756 141.349 251.194C141.715 252.199 142.151 253.113 142.649 253.93C140.63 254.303 138.746 254.663 137.026 254.993L137.021 254.994C123.932 257.499 116.671 258.888 101.11 256.311C99.9587 246.399 99.123 236.284 98.6111 226.234L98.6586 225.959C98.716 225.624 98.6726 225.295 98.55 225.003C98.0362 214.369 97.8857 203.819 98.1082 193.672C98.2802 193.523 98.4264 193.336 98.5326 193.116C103.452 182.853 109.254 172.92 115.778 163.592C117.86 160.611 120.451 156.898 119.935 152.633C119.823 151.715 119.58 150.852 119.342 150.018C118.966 148.697 118.642 147.556 118.969 146.641C119.181 146.044 119.741 145.441 120.282 144.857L120.302 144.835L129.994 134.441L129.999 134.436C130.715 133.665 131.606 132.706 132.012 131.391C132.48 129.875 132.153 128.356 131.912 127.242L129.992 118.395C134.71 119.899 138.327 123.936 140.67 126.893C144.015 131.124 146.624 135.848 148.424 140.937C148.799 141.989 149.25 143.092 149.685 144.159L149.698 144.189C150.496 146.146 151.321 148.167 151.732 150.001C151.913 150.801 152.621 151.346 153.409 151.346C153.535 151.346 153.661 151.331 153.787 151.303C154.713 151.093 155.295 150.173 155.089 149.247C154.613 147.123 153.727 144.953 152.87 142.854C152.429 141.777 152.013 140.759 151.666 139.784C149.74 134.34 146.948 129.287 143.367 124.757C140.624 121.294 136.284 116.504 130.292 114.899C129.932 114.802 129.568 114.827 129.244 114.949L128.956 113.626C128.42 111.129 127.279 109.724 125.568 109.449C125.144 109.38 124.708 109.472 124.35 109.71C121.652 111.485 118.972 114.162 116.151 117.892C115.848 118.292 115.551 118.696 115.257 119.102C114.924 119.08 114.58 119.156 114.271 119.339C110.609 121.511 105.434 120.968 102.238 118.147C102.543 117.053 102.886 116.054 103.07 115.736C103.503 115.051 103.397 114.159 102.821 113.592C102.245 113.024 101.35 112.935 100.674 113.379C99.02 114.464 97.4952 115.498 96.1147 116.628C95.9223 116.658 95.7318 116.721 95.5512 116.819C85.5522 122.289 76.2154 136.012 73.3 145.589C69.8486 156.927 67.8936 168.864 66.294 180.075C64.4106 193.285 62.8424 206.718 61.6384 220.011C61.5896 220.537 61.784 221.03 62.1301 221.379C61.661 222.817 61.4645 224.294 61.3344 225.693C58.4145 226.983 56.9224 229.578 57.5994 232.286C57.6768 232.59 57.8316 232.865 58.0524 233.086C60.8388 235.875 60.532 240.04 60.2338 244.068L60.228 244.146C60.1927 244.612 60.1579 245.073 60.1306 245.524C60.1134 245.805 60.165 246.086 60.2826 246.344C60.9964 247.915 62.1344 249.251 63.5706 250.208C64.6488 250.931 65.8614 251.413 67.1308 251.632C67.2548 252.106 67.4535 252.574 67.7646 253.018C68.8323 254.538 70.6202 254.903 71.827 255.149L71.8324 255.15C73.6767 255.502 77.2244 256.149 80.8755 256.814L84.6628 257.504C87.8499 258.085 90.8447 258.631 92.4724 258.943C92.5784 258.963 92.6844 258.975 92.7934 258.975C93.1546 258.975 93.513 258.86 93.811 258.639C94.198 258.358 94.4474 257.928 94.5048 257.455L94.5592 256.999C94.565 256.951 94.5678 256.902 94.5708 256.853C94.7516 251.396 95.3483 246.17 96.1337 240.933C96.5985 246.634 97.1654 252.314 97.833 257.925C97.9162 258.633 98.4294 259.218 99.123 259.39L99.983 259.605C100.02 259.615 100.059 259.623 100.096 259.63L100.115 259.634ZM89.3768 126.019C83.4841 132.057 78.5069 140.29 76.5882 146.59C73.3918 157.085 71.5228 167.76 69.6966 180.56C67.8992 193.162 66.3914 205.973 65.216 218.663C65.9244 218.755 66.6066 218.846 67.2761 218.935L67.6642 218.987C68.4711 219.095 69.2961 219.206 70.1563 219.316L71.385 208.722C73.7577 188.278 76.2115 167.136 81.0228 146.722C81.2408 145.798 82.1666 145.225 83.0926 145.443C84.0156 145.661 84.589 146.587 84.3712 147.513C79.6044 167.738 77.162 188.783 74.8001 209.134L71.408 238.38C70.9896 241.987 70.5566 245.719 70.3932 249.385C70.3732 249.841 70.336 250.696 70.5796 251.04C70.8617 251.439 71.8352 251.639 72.4888 251.774L72.5002 251.776C74.5206 252.163 78.6903 252.922 82.7572 253.662L82.9522 253.697C85.9306 254.239 88.9864 254.795 91.1938 255.205C91.6124 246.301 93.0572 238.039 94.5822 229.319C94.6615 228.863 94.7413 228.406 94.8215 227.947L94.8232 227.936L94.8241 227.932C94.9337 227.304 95.044 226.674 95.1532 226.041C94.3225 209.481 94.3648 193.1 95.319 178.074C95.3227 178.029 95.3274 177.984 95.3341 177.938L91.1766 162.589C90.589 160.418 89.6314 155.253 89.815 152.678C89.964 150.663 90.6118 148.803 91.2396 147.002L91.2415 146.998C91.9891 144.849 92.6958 142.819 92.4092 140.868C92.2028 139.455 91.4718 138.079 90.6978 136.622L90.6911 136.61C89.7185 134.776 88.7138 132.882 88.565 130.617C88.4551 128.978 88.8241 127.436 89.3768 126.019ZM98.8392 177.913L98.9768 177.197C102.48 158.097 106.45 136.447 118.894 119.961C121.119 117.017 123.214 114.816 125.264 113.268C125.365 113.5 125.482 113.841 125.591 114.348L128.544 127.954L128.547 127.97C128.724 128.792 128.924 129.718 128.721 130.373C128.549 130.934 128.011 131.512 127.489 132.074L127.472 132.093L117.776 142.49L117.761 142.507C117.053 143.273 116.174 144.223 115.724 145.48C115.024 147.433 115.558 149.307 116.028 150.959C116.24 151.698 116.438 152.395 116.515 153.045C116.873 156.007 114.792 158.991 112.955 161.623C107.58 169.311 102.683 177.404 98.3576 185.751C98.4617 183.319 98.5879 180.914 98.736 178.542C98.8085 178.343 98.8448 178.13 98.8392 177.913ZM96.786 170.146L94.4962 161.691C93.9 159.484 93.1088 154.828 93.2434 152.928C93.358 151.37 93.9047 149.8 94.4831 148.14L94.4861 148.131C95.3371 145.684 96.216 143.157 95.8092 140.372C95.5172 138.374 94.6106 136.667 93.7345 135.018L93.7166 134.984C92.882 133.409 92.0934 131.921 91.9936 130.393C91.8646 128.432 92.8336 126.497 94.115 124.17C95.2444 122.12 96.6892 120.58 98.458 119.156C98.3002 119.947 98.2 120.678 98.2 121.231L97.9764 163.689C97.9758 163.785 97.9831 163.879 97.9977 163.971C97.5731 166.042 97.1723 168.103 96.786 170.146ZM101.492 149.318C103.989 140.454 107.302 131.741 112.134 123.812C111.165 124.021 110.174 124.124 109.182 124.124C106.534 124.124 103.878 123.392 101.636 121.981L101.492 149.318ZM64.789 225.73C64.9118 224.5 65.0947 223.281 65.4949 222.174C66.0465 222.247 66.5851 222.319 67.1168 222.39L67.6958 222.467L67.698 222.467L67.7001 222.467C68.3688 222.556 69.0512 222.647 69.7594 222.738L69.3345 226.401C67.8018 226.32 66.2798 226.095 64.789 225.73ZM62.8723 228.78C64.8522 229.349 66.8844 229.699 68.9374 229.824L67.9792 238.088C67.6019 241.347 67.2134 244.706 67.0183 248.074C66.4763 247.909 65.9593 247.665 65.4828 247.347C64.6944 246.82 64.0466 246.112 63.5964 245.28C63.6093 245.078 63.6244 244.876 63.6394 244.673L63.6461 244.584L63.6656 244.316C63.9752 240.12 64.3577 234.933 60.8818 231.07C60.83 229.761 62.2993 229.019 62.8723 228.78ZM140.974 236.06C140.803 236.553 140.411 236.962 139.876 237.133C138.282 237.646 136.929 238.647 136.659 239.51C136.608 239.673 136.473 240.109 137.06 240.88C137.904 241.991 139.203 242.735 140.579 243.524L140.618 243.546C140.939 243.729 141.26 243.913 141.576 244.099C143.198 245.065 143.771 247.164 144.23 248.846C144.35 249.291 144.468 249.712 144.577 250.016C145.503 252.556 147.389 255.54 151.064 255.296C153.484 255.136 156.408 253.316 157.368 248.683C158.104 245.133 157.441 241.31 156.8 237.611L156.797 237.598C156.718 237.145 156.641 236.695 156.564 236.245L156.562 236.236C156.55 236.162 156.543 236.089 156.54 236.016L140.974 236.06ZM159.538 234.803C159.749 235.037 159.897 235.332 159.954 235.666C160.017 236.048 160.083 236.429 160.149 236.813L160.183 237.01L160.186 237.025C160.881 241.039 161.601 245.191 160.731 249.38C160.661 249.716 160.581 250.045 160.492 250.367C161.116 250.268 161.742 250.19 162.359 250.114L162.362 250.113C164.944 249.792 167.184 249.514 168.694 247.886C168.752 247.694 168.777 247.491 168.772 247.29C167.943 243.414 165.403 236.308 163.159 230.033L163.121 229.928C162.815 229.07 162.511 228.22 162.216 227.388C162.146 227.708 161.984 228.004 161.748 228.238C161.427 228.559 160.989 228.74 160.536 228.74H160.507L159.937 228.73L160.083 232.369C160.095 232.821 160.125 233.915 159.538 234.803ZM156.493 228.674L138.492 228.378C138.281 229.785 138.202 231.208 138.253 232.63L156.651 232.578C156.651 232.559 156.651 232.539 156.65 232.518C156.65 232.508 156.649 232.497 156.648 232.486L156.493 228.674Z" fill="black"/>
</g>
</g>
<path d="M82.9265 70.5887C84.4773 71.0159 86.0769 71.2423 87.6851 71.2653C99.9975 71.6609 112.224 64.2993 117.636 53.2311C116.277 58.7551 115.956 64.4855 116.693 70.1271C117.034 72.9565 117.613 75.8089 118.963 78.3201C120.313 80.8313 122.529 82.9841 125.27 83.7381L124.837 106.995C126.184 106.663 127.391 105.909 128.277 104.84C127.927 112.15 127.704 119.715 130.407 126.512C131.482 129.203 133.119 131.826 135.662 133.217C139.076 135.08 143.35 134.32 146.919 132.775C149.33 131.732 151.643 130.313 153.277 128.257C156.671 123.992 156.445 117.616 153.81 112.843C151.176 108.07 146.558 104.693 141.696 102.237C144.829 98.9487 147.174 94.9897 148.544 90.6583C149.918 86.3267 150.284 81.7401 149.619 77.2479C148.759 71.7411 146.357 66.6127 143.986 61.5701C142.57 58.5601 141.088 55.4613 138.6 53.2569C134.905 49.9773 129.579 49.1747 125.62 46.2221L117.736 43.9517C116.34 41.0477 112.654 39.9555 109.449 40.2651C106.244 40.5747 103.237 41.9393 100.086 42.6043C97.2885 43.1977 94.3875 43.2407 91.6153 43.9545C82.2213 46.3711 76.4879 55.6763 72.3399 64.4455C68.8999 71.6953 65.8269 79.4095 66.0333 87.4275C66.2397 95.4455 70.5253 103.836 78.0303 106.657C74.0829 108.81 70.8205 112.029 68.6133 115.945C67.6987 117.576 66.9649 119.402 67.1169 121.266C67.2687 123.129 68.3467 124.9 69.6969 126.254C73.9767 130.539 81.3699 131.236 86.3779 127.827C91.3861 124.419 93.4415 117.281 90.7153 111.307C94.6713 111.917 98.7189 111.427 102.417 109.893" fill="black"/>
<path d="M103.154 114.735C103.016 111.748 103.045 109.618 103.234 106.634C99.6561 108.096 95.7001 107.494 92.0138 106.852C88.4792 106.23 85.1737 105.009 82.5049 102.526C77.497 97.8622 76.1667 90.5866 76.8833 84.0392C77.1702 81.4392 78.2765 77.1448 80.1255 72.389L82.9263 70.5888C84.4771 71.016 86.0767 71.2424 87.6849 71.2654C99.9973 71.661 112.224 64.2994 117.636 53.2312C116.277 58.7552 115.959 64.4856 116.693 70.1272C117.034 72.9566 117.613 75.809 118.963 78.3202C120.313 80.8314 122.529 82.9842 125.27 83.7382L128.549 84.5838C131.837 81.6942 133.772 81.3072 135.931 82.3966C139.004 83.9474 139.466 87.227 138.798 89.9818C138.075 93.0204 136.149 95.6406 133.678 97.5068C132.431 98.4328 131.072 99.2038 129.636 99.8002C128.931 100.098 128.211 100.362 127.48 100.591C126.657 100.852 125.826 100.844 125.439 101.646C123.736 105.195 123.011 108.277 123.344 112.198" fill="white"/>
<path d="M79.1051 131.706C75.2007 131.706 71.2905 130.256 68.4985 127.461C66.6839 125.643 65.5917 123.49 65.4197 121.398C65.2619 119.463 65.8037 117.459 67.1311 115.097C68.9771 111.82 71.4999 109.008 74.5271 106.835C71.8697 105.21 69.5877 102.842 67.8305 99.8573C65.6863 96.2195 64.4421 91.8193 64.3303 87.4647C64.1125 79.0253 67.3117 71.0559 70.8033 63.7001C74.8567 55.1287 80.8423 44.9463 91.2053 42.2803C92.8365 41.8589 94.4819 41.6611 96.0729 41.4663C97.3515 41.3115 98.5611 41.1653 99.7479 40.9129C100.935 40.6635 102.102 40.3053 103.334 39.9297C105.238 39.3477 107.207 38.7457 109.3 38.5451C112.995 38.1897 117.519 39.4883 119.302 43.1977C119.714 44.0549 119.353 45.0811 118.496 45.4939C117.642 45.9067 116.613 45.5455 116.2 44.6883C115.142 42.4867 112.052 41.7357 109.627 41.9679C107.875 42.1371 106.155 42.6617 104.335 43.2177C103.082 43.5991 101.789 43.9947 100.453 44.2755C99.1201 44.5593 97.7785 44.7199 96.4799 44.8775C94.9319 45.0667 93.4671 45.2445 92.0539 45.6085C83.0755 47.9191 77.6373 57.2759 73.9049 65.1679C70.5969 72.1395 67.5639 79.6531 67.7617 87.3701C67.9309 93.9721 71.4081 102.314 78.6435 105.035C79.2743 105.273 79.7071 105.855 79.7529 106.525C79.7989 107.196 79.4519 107.833 78.8615 108.156C75.1921 110.157 72.1707 113.139 70.1209 116.779C69.1491 118.514 68.7393 119.893 68.8395 121.117C68.9427 122.381 69.7025 123.806 70.9237 125.03C74.6073 128.716 81.1089 129.33 85.4203 126.397C89.8293 123.396 91.4719 117.078 89.1613 112.012C88.8977 111.436 88.9721 110.765 89.3535 110.261C89.7347 109.756 90.3625 109.504 90.9875 109.598C94.6339 110.16 98.3605 109.71 101.769 108.297C102.646 107.933 103.652 108.349 104.017 109.226C104.381 110.103 103.965 111.109 103.088 111.473C99.9543 112.775 96.5889 113.377 93.2235 113.259C94.7083 119.273 92.4409 125.781 87.3583 129.241C84.9245 130.901 82.0177 131.706 79.1051 131.706Z" fill="black"/>
<path d="M140.291 136.015C138.29 136.015 136.453 135.585 134.859 134.719C132.305 133.323 130.278 130.775 128.827 127.14C126.482 121.272 126.216 115.062 126.431 108.271C126.052 108.429 125.663 108.558 125.264 108.655C124.341 108.882 123.409 108.32 123.183 107.397C122.956 106.474 123.518 105.542 124.441 105.316C125.425 105.072 126.322 104.51 126.97 103.731C127.443 103.16 128.225 102.957 128.916 103.226C129.607 103.493 130.049 104.172 130.011 104.912C129.639 112.692 129.533 119.638 132.021 125.864C133.168 128.736 134.675 130.7 136.504 131.698C139.812 133.492 144.032 132.148 146.254 131.187C148.825 130.075 150.689 128.762 151.95 127.177C154.676 123.757 154.828 118.201 152.323 113.664C150.216 109.845 146.386 106.514 140.939 103.762C140.455 103.516 140.113 103.057 140.019 102.518C139.927 101.982 140.093 101.434 140.469 101.039C143.407 97.9569 145.638 94.1845 146.925 90.1281C148.212 86.0689 148.562 81.7001 147.937 77.4889C147.108 72.1999 144.74 67.1633 142.447 62.2899C141.117 59.4633 139.738 56.5393 137.476 54.5327C135.702 52.9561 133.437 51.9929 131.04 50.9695C128.859 50.0407 126.606 49.0775 124.608 47.5897C123.845 47.0221 123.69 45.9441 124.258 45.1817C124.826 44.4219 125.903 44.2643 126.666 44.8319C128.334 46.0761 130.304 46.9159 132.391 47.8047C134.936 48.8883 137.565 50.0119 139.761 51.9585C142.553 54.4353 144.153 57.8293 145.563 60.8251C147.957 65.9163 150.433 71.1823 151.339 76.9701C152.042 81.7087 151.649 86.6135 150.207 91.1659C148.989 95.0071 147.014 98.6221 144.448 101.735C149.502 104.608 153.163 108.053 155.338 111.998C158.546 117.809 158.268 124.769 154.645 129.316C153.025 131.354 150.729 132.996 147.624 134.341C145.053 135.456 142.567 136.015 140.291 136.015Z" fill="black"/>
<path d="M125.278 85.4582C125.127 85.4582 124.975 85.4383 124.823 85.3953C121.827 84.5752 119.144 82.2907 117.452 79.1286C115.85 76.1272 115.294 72.8506 114.993 70.3308C114.577 67.1516 114.485 63.9582 114.715 60.7848C112.318 63.5912 109.429 66.0367 106.135 68.0202C100.404 71.4719 94.0117 73.1888 87.6447 72.9824C85.8961 72.9566 84.1561 72.7102 82.4705 72.2458C81.5531 71.9934 81.0171 71.0474 81.2693 70.1302C81.5215 69.2156 82.4675 68.6769 83.3849 68.929C84.7953 69.316 86.2487 69.5252 87.7107 69.5454C87.7221 69.5454 87.7337 69.5454 87.7423 69.5454C99.3351 69.9208 110.994 62.9032 116.102 52.4745C116.489 51.686 117.407 51.3135 118.235 51.6145C119.061 51.9155 119.528 52.7896 119.319 53.641C118.006 58.9816 117.702 64.4512 118.41 69.9036C118.808 73.2204 119.451 75.5596 120.491 77.5091C121.735 79.8397 123.647 81.505 125.734 82.0784C126.652 82.3306 127.191 83.2766 126.938 84.1912C126.729 84.9566 126.035 85.4582 125.278 85.4582Z" fill="black"/>
<path d="M123.349 112.485C122.466 112.485 121.712 111.806 121.638 110.908C121.274 106.591 122.113 104.613 123.897 100.901C124.55 99.5449 125.786 99.2467 126.525 99.0691C126.686 99.0289 126.838 98.9945 126.97 98.9515C127.652 98.7365 128.326 98.4899 128.976 98.2147C130.292 97.6701 131.528 96.9677 132.663 96.1249C134.95 94.3963 136.544 92.0687 137.135 89.5833C137.439 88.3305 137.851 85.2861 135.165 83.9301C133.993 83.3367 132.843 83.1045 129.693 85.8737C128.979 86.5015 127.893 86.4299 127.265 85.7161C126.637 85.0023 126.709 83.9159 127.423 83.2881C131.946 79.3119 134.563 79.7707 136.713 80.8571C140.05 82.5427 141.492 86.1919 140.477 90.3831C139.703 93.6395 137.659 96.6581 134.724 98.8741C133.354 99.8917 131.869 100.735 130.304 101.383C129.561 101.695 128.784 101.982 128.002 102.225C127.764 102.3 127.534 102.357 127.334 102.406C127.208 102.437 127.044 102.475 126.938 102.509C125.29 105.949 124.779 107.242 125.066 110.613C125.146 111.559 124.444 112.393 123.498 112.471C123.446 112.482 123.398 112.485 123.349 112.485Z" fill="black"/>
<path d="M103.15 115.022C102.236 115.022 101.476 114.303 101.433 113.38C101.342 111.361 101.321 110.347 101.379 108.962C97.933 109.627 94.4242 109.016 91.7182 108.543C87.3464 107.772 83.9494 106.216 81.3322 103.782C76.522 99.3014 74.2774 92.0372 75.1718 83.8472C75.5072 80.8114 76.757 76.2934 78.52 71.7612C78.864 70.8754 79.8616 70.4368 80.7474 70.7808C81.6332 71.1248 82.0718 72.1224 81.7278 73.0082C79.7728 78.0364 78.8268 82.0984 78.5916 84.2226C77.8148 91.3176 79.6666 97.5298 83.6772 101.262C85.8214 103.257 88.5648 104.493 92.3116 105.152C96.1414 105.82 99.5584 106.27 102.583 105.035C103.13 104.811 103.755 104.886 104.237 105.23C104.718 105.576 104.988 106.144 104.951 106.735C104.767 109.618 104.736 110.255 104.873 113.213C104.916 114.162 104.182 114.968 103.234 115.011C103.205 115.022 103.179 115.022 103.15 115.022Z" fill="black"/>
<path d="M88.6165 80.2955C89.7248 80.2955 90.6231 79.2046 90.6231 77.8589C90.6231 76.513 89.7248 75.4221 88.6165 75.4221C87.5081 75.4221 86.6099 76.513 86.6099 77.8589C86.6099 79.2046 87.5081 80.2955 88.6165 80.2955Z" fill="black"/>
<path d="M98.363 80.9691C99.4714 80.9691 100.37 79.8782 100.37 78.5325C100.37 77.1868 99.4714 76.0957 98.363 76.0957C97.2549 76.0957 96.3564 77.1868 96.3564 78.5325C96.3564 79.8782 97.2549 80.9691 98.363 80.9691Z" fill="black"/>
<path d="M129.782 49.0205C124.085 50.9125 118.452 49.7945 110.561 49.859C101.703 49.945 98.9729 49.73 93.1679 46.8275C88.9969 37.7975 90.6739 33.218 92.6519 23.629C95.8554 26.768 98.6719 28.8535 101.617 32.2075C104.756 27.5635 112.045 21.8445 112.045 21.8445L120.215 32.0785C120.215 32.0785 125.654 30.1865 131.115 26.037C131.717 36.013 132.685 39.797 129.804 49.0205H129.782Z" fill="#FFD30D"/>
<path d="M121.635 51.8551C120.152 51.8551 118.625 51.7904 117.013 51.7259C114.992 51.6399 112.885 51.5754 110.563 51.5969C101.361 51.6829 98.3937 51.3819 92.3737 48.3934C92.0297 48.2214 91.7502 47.9419 91.5782 47.5764C87.5792 38.9549 88.6327 34.1174 90.3527 26.0979C90.5462 25.2164 90.7397 24.2919 90.9332 23.3029C91.0622 22.6794 91.5137 22.1849 92.1157 22.0129C92.7177 21.8409 93.3627 21.9914 93.8142 22.4214C94.9967 23.5824 96.1362 24.6144 97.2542 25.6034C98.6732 26.8719 100.049 28.0974 101.447 29.5379C105.016 25.1734 110.67 20.7015 110.95 20.4865C111.702 19.906 112.777 20.035 113.358 20.766L120.732 30.0109C122.538 29.2584 126.301 27.4954 130.042 24.6789C130.558 24.2919 131.224 24.2274 131.805 24.4854C132.385 24.7434 132.772 25.3024 132.794 25.9476C132.88 27.5386 132.987 28.9789 133.095 30.3119C133.611 37.2779 133.912 41.4919 131.418 49.5544C131.246 50.0919 130.837 50.5004 130.321 50.6724C127.462 51.6184 124.645 51.8764 121.635 51.8764V51.8551ZM111.358 48.1569C113.444 48.1569 115.314 48.2214 117.163 48.3074C121.506 48.4794 124.989 48.6084 128.408 47.6624C130.429 40.8039 130.171 37.0844 129.676 30.5699C129.655 30.1399 129.612 29.6884 129.569 29.2154C124.946 32.2254 120.947 33.6444 120.754 33.7089C120.066 33.9454 119.292 33.7089 118.84 33.1499L111.745 24.2919C109.552 26.1409 105.166 29.9894 103.016 33.1929C102.715 33.6444 102.242 33.9239 101.705 33.9454C101.167 33.9669 100.651 33.7736 100.307 33.3651C98.5442 31.3656 96.8242 29.8174 94.9752 28.1619C94.5452 27.7749 94.1152 27.3879 93.6852 27.0009C92.1157 34.2679 91.2772 38.3959 94.4592 45.5769C99.4902 48.0064 102.027 48.2429 110.541 48.1569C110.821 48.1569 111.079 48.1569 111.358 48.1569Z" fill="black"/>
<path d="M92.1109 28.3561C90.9069 28.5926 89.7029 27.8186 88.9074 26.8726C88.4559 26.3351 88.0689 25.7331 87.9614 25.0451C87.7679 23.8196 88.4989 22.6156 89.4664 21.8631C90.4339 21.1107 91.6594 20.7667 92.8419 20.4227C93.2719 20.2937 93.7449 20.1647 94.1749 20.2937C94.5619 20.4012 94.8629 20.7022 95.1639 20.9817C95.7229 21.5406 96.2819 22.0996 96.6044 22.8091C97.1849 24.0561 96.8839 25.6256 96.0239 26.7006C95.1639 27.7756 93.8094 28.3991 92.4334 28.4851C92.1109 28.5066 91.7024 28.3991 92.0894 28.3561H92.1109Z" fill="#FFD30D"/>
<path d="M92.3075 30.2052C92.0495 30.2052 91.7915 30.1837 91.5765 30.1192C90.1575 30.0977 88.717 29.3237 87.5775 27.9907C86.825 27.1092 86.395 26.2277 86.2445 25.3247C85.965 23.5832 86.8035 21.7342 88.416 20.5087C89.663 19.5627 91.082 19.1542 92.3505 18.7887C92.845 18.6382 93.705 18.3802 94.651 18.6597C95.468 18.8962 96.027 19.4337 96.371 19.7777C97.0805 20.4657 97.747 21.1752 98.177 22.1212C98.994 23.9272 98.693 26.1632 97.3815 27.7972C96.2635 29.1947 94.5005 30.0977 92.5655 30.2267C92.4795 30.2267 92.3935 30.2267 92.3075 30.2267V30.2052ZM92.114 26.6362C92.3075 26.6362 92.4795 26.6577 92.673 26.7222C93.5115 26.5932 94.264 26.1847 94.7155 25.6042C95.21 24.9807 95.339 24.1207 95.0595 23.4972C94.866 23.0672 94.4575 22.6372 93.963 22.1642C93.877 22.0782 93.7265 21.9277 93.6405 21.8847C93.705 21.9277 93.447 22.0137 93.318 22.0352C92.286 22.3362 91.2325 22.6372 90.48 23.2177C89.8995 23.6477 89.5555 24.2712 89.6415 24.7442C89.6845 25.0237 89.878 25.3462 90.2005 25.7332C90.738 26.3567 91.3615 26.7222 91.77 26.6362C91.8345 26.6362 91.8775 26.6362 91.942 26.6147C91.985 26.6147 92.0495 26.6147 92.0925 26.6147L92.114 26.6362Z" fill="black"/>
<path d="M111.204 24.381C110.021 23.306 108.237 22.618 107.936 21.0485C107.764 20.1025 108.258 19.1565 108.882 18.404C109.957 17.1355 111.827 16.254 113.289 17.071C113.848 17.3935 115.052 17.9095 115.418 18.447C116.063 19.4145 116.772 20.9195 116.428 22.0375C116.149 22.9835 114.386 23.3275 113.504 23.779C112.988 24.0585 112.408 24.2735 111.827 24.1875C111.247 24.1015 110.688 23.6285 111.182 24.3595L111.204 24.381Z" fill="#FFD30D"/>
<path d="M111.142 26.0801C110.755 26.0801 110.368 25.9511 110.045 25.6501C109.744 25.3921 109.4 25.1556 109.056 24.9191C107.938 24.1451 106.562 23.1561 106.24 21.3717C106.003 20.0387 106.476 18.5981 107.573 17.3081C109.121 15.5021 111.873 14.3196 114.13 15.5881L114.496 15.7816C115.485 16.2976 116.345 16.7706 116.839 17.5231C117.398 18.3616 118.667 20.5546 118.086 22.5541C117.635 24.0591 116.13 24.6181 115.012 25.0481C114.754 25.1556 114.496 25.2416 114.324 25.3276C113.743 25.6286 112.862 26.0371 111.83 25.9296C111.615 26.0371 111.378 26.0801 111.142 26.0801ZM111.292 22.2746C111.486 22.2961 111.679 22.3391 111.894 22.4251C112.066 22.4896 112.217 22.5111 112.711 22.2531C112.991 22.1026 113.378 21.9521 113.765 21.8016C114.044 21.6941 114.517 21.5221 114.775 21.3717C114.775 20.9847 114.539 20.2536 113.958 19.4151C113.851 19.3076 113.206 18.9851 112.883 18.8346L112.41 18.5766C111.873 18.2756 110.841 18.7056 110.153 19.5226C109.766 19.9741 109.529 20.4686 109.594 20.7266C109.658 21.1351 110.346 21.6081 111.013 22.0811C111.099 22.1456 111.185 22.1886 111.271 22.2531L111.292 22.2746Z" fill="black"/>
<path d="M131.093 28.1202C129.566 28.2492 127.997 27.2387 127.459 25.7982C126.922 24.3577 127.459 22.5732 128.706 21.6702C129.48 21.1113 130.426 20.8748 131.394 20.8533C132.168 20.8533 133.006 20.9823 133.522 21.5627C133.587 21.6272 133.673 21.7347 133.759 21.8422C134.619 22.7667 135.199 23.9492 135.35 25.2177C135.35 25.4112 135.371 25.5832 135.371 25.7337C135.328 26.6152 134.081 27.3462 133.415 27.9052C132.748 28.4642 131.695 28.6147 131.114 28.1417L131.093 28.1202Z" fill="#FFD30D"/>
<path d="M132.016 30.1438C131.543 30.1438 131.07 30.0578 130.64 29.8643C128.554 29.7783 126.598 28.4023 125.845 26.4243C125.028 24.2528 125.802 21.6728 127.673 20.3182C128.64 19.6087 129.909 19.2002 131.328 19.1572C133.263 19.1357 134.273 19.8452 134.811 20.4902L135.004 20.7052C136.144 21.9308 136.875 23.4788 137.047 25.0698C137.068 25.3493 137.09 25.6073 137.068 25.8438C137.004 27.3273 135.757 28.2948 134.918 28.9398C134.768 29.0473 134.639 29.1548 134.51 29.2623C133.8 29.8858 132.876 30.2083 131.994 30.2083L132.016 30.1438ZM131.113 26.4028C131.457 26.4028 131.779 26.5103 132.08 26.7038C132.145 26.7038 132.231 26.6608 132.295 26.5963C132.467 26.4673 132.639 26.3168 132.854 26.1448C133.091 25.9728 133.478 25.6718 133.65 25.4568C133.65 25.4353 133.65 25.4138 133.65 25.3923C133.564 24.5323 133.155 23.6938 132.51 23.0058C132.381 22.8768 132.274 22.7478 132.209 22.6618C132.188 22.6618 131.951 22.5328 131.457 22.5543C130.962 22.5543 130.274 22.6618 129.758 23.0488C129.135 23.5003 128.855 24.4678 129.113 25.1988C129.371 25.9298 130.253 26.4458 131.005 26.4028C131.048 26.4028 131.091 26.4028 131.134 26.4028H131.113Z" fill="black"/>
<path d="M60.9029 240.502L2 199.179" stroke="black" stroke-width="3" stroke-linecap="round"/>
<path d="M53.0892 234.828C56.3516 230.099 55.1623 223.62 50.4329 220.358C45.7035 217.095 39.2249 218.285 35.9626 223.014C32.7003 227.743 33.8896 234.222 38.619 237.484C43.3484 240.747 49.8269 239.557 53.0892 234.828Z" fill="#4CAF50" stroke="black" stroke-width="3"/>
<path d="M37.4926 224.07C40.7549 219.34 39.5656 212.862 34.8362 209.6C30.1068 206.337 23.6282 207.527 20.3659 212.256C17.1036 216.985 18.2929 223.464 23.0223 226.726C27.7517 229.989 34.2303 228.799 37.4926 224.07Z" fill="#FFC0CB" stroke="black" stroke-width="3"/>
<path d="M19.2387 198.841C23.9681 202.103 25.1574 208.582 21.8951 213.311C18.6328 218.041 12.1542 219.23 7.42479 215.968C2.69536 212.705 1.50605 206.227 4.76838 201.497C8.03069 196.768 14.5093 195.578 19.2387 198.841Z" fill="#FFFFF0" stroke="black" stroke-width="3"/>
<defs>
<clipPath id="clip0_845_2955">
<rect width="172" height="172" fill="white" transform="translate(26 109.65)"/>
</clipPath>
</defs>
</svg>
