<svg width="80" height="80" viewBox="0 0 80 80" fill="none" xmlns="http://www.w3.org/2000/svg">
<mask id="mask0_846_13255" style="mask-type:alpha" maskUnits="userSpaceOnUse" x="0" y="0" width="80" height="80">
<circle cx="40" cy="40" r="40" fill="white"/>
</mask>
<g mask="url(#mask0_846_13255)">
<rect width="80" height="80" fill="white"/>
<g clip-path="url(#clip0_846_13255)">
<path d="M45.2494 56C45.3694 57.3467 45.92 60.3893 47.9694 59.9333L48.1894 60.2667C48.0894 62.356 47.0307 63.8293 45.372 65.356C43.6867 66.8827 41.5374 67.8 39.2694 67.9613C37.2694 68.108 35.1427 67.6293 33.6467 66.288C32.1507 64.9467 31.364 63.088 32.3547 61.4947H32.4987C32.9494 61.508 33.364 61.272 33.7454 61.032C34.2307 60.7253 35.232 59.468 35.532 59.1067C35.932 58.588 36.0947 56.6213 36.3 56H45.2494Z" fill="white"/>
<path d="M21.076 107.881C19.7787 107.635 18.5787 107.635 17.2454 107.368C18.1787 98.0347 18.9787 89.1014 20.9787 79.6348C22.0454 74.8348 22.9787 70.4348 25.512 66.1681C25.512 66.1681 26.472 64.7947 26.8454 64.3747L27.52 63.26C27.3414 62.7387 27.5574 62.14 27.948 61.752C28.3387 61.364 28.8814 61.1587 29.4147 61.044C29.6627 60.9907 29.9374 60.9427 30.096 60.7454C30.1894 60.608 30.2467 60.448 30.264 60.2827C30.4587 59.1974 30.7454 57.8827 31.7947 57.5467C32.6507 57.272 33.5734 57.8627 34.0614 58.62C34.5494 59.3774 34.728 60.2827 35.072 61.1134C35.416 61.944 36.0054 62.7694 36.884 62.9667L38.46 63.46C41.372 62.66 43.604 60.4 45.964 58.516C46.5907 58.0174 47.2494 57.5307 48.0134 57.2907C48.7774 57.0507 49.672 57.092 50.3054 57.5827C50.9387 58.0734 51.18 59.076 50.6947 59.716C51.0587 59.5094 51.4707 59.4027 51.8894 59.4067C52.308 59.4107 52.7174 59.524 53.0774 59.7374C53.4374 59.9507 53.7347 60.2547 53.94 60.6187C54.1454 60.9827 54.2507 61.396 54.2454 61.8134L54.512 64.3734C56.576 67.5054 58.0427 70.972 59.1627 74.5854L59.5867 75.8667C61.8654 85.676 62.2747 95.7934 62.4254 105.881L62.5587 106.099C63.38 109.104 66.4467 116.704 67.1134 119.904C67.1347 120.177 67.0894 120.452 66.98 120.704C65.6467 122.304 63.38 121.904 61.6267 122.448L55.4307 123.681C46.5627 125.272 37.6627 125.661 28.7787 124.163L27.1027 123.967L21.3694 122.869C20.852 122.771 20.284 122.639 19.9814 122.203C19.7307 121.845 19.732 121.375 19.7507 120.939C19.8267 119.205 20.0267 117.485 20.2267 115.764L21.14 107.889L21.076 107.881Z" fill="white"/>
<path d="M41.2107 68.2587C41.2387 68.6827 41.5907 69.0067 42.008 69.0067C42.0267 69.0067 42.044 69.0067 42.06 69.0027C45.6267 68.7693 49.1187 67.652 52.16 65.7747C52.7881 65.3877 53.3146 64.9829 53.7386 64.5618C53.7599 64.6471 53.7957 64.7304 53.8467 64.808C55.692 67.608 57.1814 70.8827 58.4014 74.8173C58.508 75.1613 58.824 75.3813 59.1654 75.3813C59.244 75.3813 59.324 75.3693 59.4014 75.3453C59.824 75.2147 60.06 74.7667 59.9294 74.344C58.664 70.2627 57.112 66.856 55.1827 63.928C55.0323 63.6992 54.7847 63.5732 54.5302 63.5682C54.8634 63.0113 55.035 62.4303 55.0427 61.828C55.0494 61.2694 54.908 60.7174 54.6347 60.2307C54.3614 59.744 53.9627 59.336 53.4814 59.052C53.0014 58.768 52.452 58.616 51.8934 58.6107C51.84 58.6107 51.788 58.6107 51.7347 58.6134C51.6574 57.9867 51.3334 57.3734 50.792 56.9547C50.004 56.344 48.8734 56.1854 47.7707 56.532C46.8627 56.8174 46.104 57.384 45.4627 57.8947C44.7593 58.4558 44.1704 59.0066 43.6009 59.5392L43.5787 59.56C42.23 60.822 41.1647 61.8189 39.292 62.3334C38.8654 62.4507 38.6147 62.8907 38.732 63.3174C38.8494 63.744 39.2907 63.9947 39.716 63.8774C41.9707 63.2587 43.284 62.0294 44.6734 60.728L44.695 60.7078C45.2416 60.1967 45.8074 59.6678 46.46 59.1467C47.012 58.708 47.604 58.2614 48.2507 58.0587C48.8454 57.872 49.444 57.9334 49.8134 58.22C50.1294 58.4654 50.2507 58.9787 50.0547 59.2374C49.8254 59.54 49.84 59.9627 50.0907 60.248C50.3414 60.5334 50.7574 60.604 51.088 60.4174C51.3254 60.2827 51.5947 60.212 51.8667 60.212H51.88C52.1574 60.2134 52.4307 60.2894 52.6694 60.4307C52.908 60.572 53.1054 60.7734 53.2414 61.016C53.3774 61.2587 53.448 61.532 53.444 61.8094C53.4334 62.6774 52.7187 63.5534 51.3214 64.4147C48.5014 66.156 45.2627 67.1907 41.956 67.408C41.516 67.4373 41.1814 67.8173 41.2107 68.2587Z" fill="black"/>
<path fill-rule="evenodd" clip-rule="evenodd" d="M26.072 124.576C26.0227 124.576 25.972 124.571 25.9214 124.561L21.2227 123.661C20.6974 123.556 19.832 123.381 19.3307 122.669C19.1862 122.463 19.0939 122.246 19.0361 122.026C18.4466 121.924 17.8831 121.699 17.3814 121.364C16.7134 120.919 16.184 120.297 15.852 119.567C15.7974 119.447 15.7734 119.316 15.7814 119.185C15.794 118.976 15.8102 118.761 15.8266 118.544L15.8294 118.508C15.968 116.635 16.1107 114.697 14.8147 113.4C14.712 113.297 14.64 113.169 14.604 113.028C14.2891 111.768 14.9831 110.561 16.3413 109.961C16.4018 109.312 16.4933 108.626 16.7099 107.959C16.5288 107.793 16.4271 107.548 16.4533 107.288C16.5113 106.71 16.5685 106.133 16.6254 105.558L16.6663 105.144C17.529 96.458 18.344 88.2515 20.2 79.468L20.2867 79.0773C21.32 74.42 22.2973 70.0213 24.828 65.7573C24.8387 65.74 24.8493 65.724 24.86 65.708L24.8746 65.6872C25.0278 65.4693 25.8734 64.2661 26.252 63.8413C26.3941 63.6811 26.5863 63.5916 26.7841 63.5755C26.7772 63.5572 26.7705 63.5387 26.764 63.52C26.496 62.74 26.74 61.824 27.3854 61.184C27.8374 60.736 28.4454 60.4347 29.248 60.2613L29.2947 60.2506C29.3467 60.24 29.416 60.2253 29.468 60.2106C29.468 60.2086 29.4687 60.2053 29.4687 60.2053C29.4687 60.2053 29.4694 60.202 29.4694 60.2C29.472 60.1786 29.4747 60.1587 29.4787 60.1387L29.4794 60.135C29.6741 59.0666 29.9991 57.2834 31.552 56.784C32.4774 56.488 33.868 56.804 34.7414 58.1933C34.8357 58.3434 34.9195 58.4958 34.9954 58.6496C35.1532 58.3059 35.5391 58.1124 35.9187 58.2093C36.3467 58.3174 36.6067 58.7534 36.4973 59.1813C36.3768 59.6602 36.1838 59.9804 35.6839 60.4698C35.7255 60.584 35.7682 60.6957 35.8134 60.8053C36.0014 61.2573 36.4134 62.0386 37.0614 62.1853C37.492 62.2827 37.7627 62.7107 37.6667 63.1413C37.5694 63.572 37.1414 63.8427 36.7107 63.7466C35.708 63.5213 34.864 62.6947 34.3347 61.42C34.2041 61.1053 34.096 60.7893 33.9934 60.4827L33.9884 60.4679C33.8116 59.948 33.6443 59.4561 33.3854 59.0453C33.0854 58.568 32.5 58.1613 32.04 58.308C31.456 58.496 31.2254 59.4813 31.0574 60.3987C31.0227 60.6827 30.92 60.956 30.76 61.1933C30.748 61.2107 30.7347 61.228 30.7214 61.2453C30.3944 61.652 29.9363 61.75 29.631 61.8154L29.628 61.816L29.5854 61.8253C29.0987 61.9306 28.7387 62.096 28.5134 62.3187C28.3147 62.516 28.2134 62.8093 28.2787 63C28.34 63.1787 28.5427 63.3707 28.732 63.5333C30.4494 65.0373 32.5387 66.044 34.7787 66.4466C35.2134 66.5253 35.5027 66.9413 35.424 67.376C35.352 67.7626 35.0147 68.0346 34.636 68.0346C34.5894 68.0346 34.5414 68.0306 34.4934 68.0213C31.9681 67.5666 29.612 66.432 27.6814 64.7413C27.6527 64.7166 27.6238 64.6913 27.5947 64.6654C27.561 64.7512 27.5117 64.8326 27.4467 64.9053C27.172 65.2133 26.4613 66.2106 26.188 66.6C23.7987 70.636 22.8507 74.904 21.848 79.424L21.7627 79.8066C19.9245 88.5057 19.1138 96.6783 18.2554 105.332L18.2547 105.339C18.2093 105.792 18.164 106.247 18.1187 106.703C18.5173 106.759 18.912 106.8 19.3213 106.841L19.3429 106.843C19.7027 106.88 20.0695 106.918 20.4448 106.968L21.0553 101.705C22.1525 92.3132 23.2871 82.6017 25.4947 73.232C25.596 72.8027 26.0267 72.5347 26.4574 72.6373C26.8867 72.7387 27.1534 73.1693 27.052 73.6C24.8651 82.8831 23.7359 92.5506 22.6437 101.901L21.0232 115.872C20.8288 117.549 20.6279 119.281 20.552 120.983C20.5427 121.195 20.5254 121.592 20.6387 121.752C20.772 121.941 21.2467 122.037 21.5294 122.093L26.22 122.991C26.6534 123.073 26.9387 123.493 26.8547 123.927C26.784 124.309 26.4494 124.576 26.072 124.576ZM16.1307 112.463C16.1066 111.854 16.79 111.509 17.0565 111.397C17.9766 111.662 18.9209 111.825 19.8749 111.883L19.4291 115.727C19.2537 117.243 19.0729 118.805 18.9823 120.37C18.7312 120.294 18.4915 120.181 18.2707 120.033C17.904 119.788 17.6027 119.459 17.3934 119.072C17.3993 118.978 17.4063 118.884 17.4133 118.789C17.4174 118.735 17.4215 118.68 17.4254 118.625L17.4255 118.623C17.5695 116.672 17.7474 114.259 16.1307 112.463ZM20.2604 108.558L20.0595 110.291C19.3471 110.253 18.6397 110.148 17.9467 109.979C18.0034 109.41 18.0886 108.847 18.2716 108.337C18.573 108.374 18.8682 108.404 19.1587 108.433L19.2202 108.44C19.574 108.476 19.9173 108.512 20.2604 108.558Z" fill="black"/>
<path fill-rule="evenodd" clip-rule="evenodd" d="M28.6453 124.949C32.4213 125.587 36.2773 125.905 40.2627 125.905C45.0913 125.905 50.109 125.436 55.3918 124.498C56.1087 125.05 56.9522 125.341 57.8814 125.341C57.9814 125.341 58.084 125.339 58.1867 125.331C59.6004 125.238 60.8294 124.47 61.6529 123.245C61.7227 123.242 61.7933 123.231 61.864 123.211C62.3613 123.056 62.932 122.984 63.5347 122.909C64.92 122.737 66.4893 122.541 67.5947 121.215C67.644 121.156 67.684 121.091 67.7147 121.02C67.8733 120.651 67.9413 120.243 67.9107 119.841C67.908 119.807 67.9027 119.773 67.896 119.74C67.4987 117.834 66.3297 114.565 65.1993 111.404L65.1987 111.403C64.4107 109.203 63.668 107.124 63.3293 105.887C63.3065 105.803 63.2712 105.726 63.2259 105.657C63.0944 96.0163 62.7409 86.7386 60.472 76.9586C60.372 76.528 59.9427 76.26 59.512 76.36C59.0814 76.46 58.8134 76.8893 58.9134 77.32C61.4451 88.2362 61.5547 98.5926 61.6707 109.557V109.56L61.6734 109.763L51.5787 109.597C50.0787 97.8773 49.5614 85.956 50.04 74.152C50.0587 73.7106 49.7147 73.3373 49.2734 73.32C48.832 73.304 48.4587 73.6453 48.4414 74.0866C47.9494 86.2106 48.5014 98.4586 50.0814 110.489C50.1223 110.799 50.3365 111.048 50.6189 111.144C50.5062 111.963 50.4768 112.792 50.532 113.619C50.532 113.768 50.5573 113.915 50.6093 114.055C50.6693 114.215 50.7587 114.359 50.876 114.481C50.8871 114.493 50.8987 114.504 50.9105 114.515C50.4272 114.881 50.027 115.348 49.8507 115.911C49.6987 116.397 49.652 117.155 50.292 117.995C50.884 118.773 51.7014 119.241 52.4227 119.653C52.5654 119.735 52.7067 119.816 52.848 119.9C53.0453 120.017 53.261 120.802 53.3554 121.146L53.3574 121.153C53.4227 121.393 53.4854 121.62 53.5587 121.823C53.7279 122.287 53.9287 122.71 54.1581 123.088C45.0747 124.611 36.8046 124.704 28.9107 123.372C28.4747 123.297 28.0627 123.592 27.9893 124.028C27.916 124.463 28.2093 124.876 28.6453 124.949ZM53.3838 114.785C53.3041 115.013 53.1219 115.203 52.8734 115.283C52.132 115.523 51.5027 115.988 51.3774 116.389C51.3534 116.465 51.2907 116.667 51.564 117.025C51.9598 117.545 52.57 117.894 53.215 118.263L53.216 118.264L53.325 118.326C53.4391 118.392 53.5532 118.457 53.6654 118.524C54.4175 118.97 54.6845 119.944 54.899 120.726L54.9 120.729C54.956 120.936 55.0107 121.132 55.0614 121.273C55.4934 122.459 56.3654 123.844 58.08 123.733C59.2067 123.659 60.5667 122.812 61.0134 120.659C61.3557 119.003 61.0461 117.221 60.7464 115.496L60.7297 115.4C60.6989 115.223 60.6683 115.046 60.6387 114.869C60.6328 114.834 60.6292 114.799 60.628 114.764L53.3838 114.785ZM62.0166 114.195C62.1178 114.306 62.1894 114.445 62.216 114.604C62.2507 114.808 62.2854 115.012 62.3214 115.217L62.3225 115.224C62.6475 117.095 62.9836 119.03 62.58 120.984C62.548 121.139 62.5113 121.291 62.4702 121.439C62.7595 121.393 63.0493 121.357 63.3347 121.321C64.5347 121.172 65.5787 121.041 66.28 120.285C66.3067 120.196 66.3187 120.101 66.316 120.008C65.9286 118.2 64.7437 114.886 63.6956 111.955L63.6536 111.838L63.6519 111.833C63.5206 111.466 63.3905 111.102 63.2634 110.745C63.2311 110.894 63.1559 111.033 63.0454 111.143C62.8974 111.292 62.6934 111.376 62.4827 111.376H62.4694L62.2007 111.372L62.2667 113.061C62.2735 113.269 62.289 113.78 62.0166 114.195ZM60.5986 111.345L52.2262 111.208C52.1261 111.864 52.088 112.528 52.112 113.192L60.6693 113.168C60.6693 113.159 60.6693 113.149 60.669 113.138C60.6688 113.132 60.6685 113.126 60.668 113.12L60.5986 111.345Z" fill="black"/>
<path d="M47.2653 44.4427C46.2667 44.3694 45.6987 43.196 45.76 42.1987C45.8213 41.2014 46.2933 40.2707 46.4413 39.2814C46.7813 37.0614 45.2693 34.7054 43.108 34.0907C42.5173 33.9227 41.884 33.868 41.3467 33.5707C40.8987 33.3214 40.5253 32.904 40.0227 32.816C39.096 32.6454 38.3333 33.616 37.396 33.72C36.152 33.8534 35.1907 32.428 33.9387 32.4307C32.6453 32.4307 31.7507 33.94 30.46 34.0014C29.5947 34.0427 28.8213 33.4134 27.956 33.3707C26.8373 33.3174 25.908 34.2547 25.4013 35.2534C24.8947 36.252 24.644 37.38 24.02 38.3107C23.4493 39.1614 22.2573 39.8174 21.4253 39.22C20.8507 38.8094 20.74 38.004 20.7813 37.3C20.8653 35.856 21.3653 34.4667 22.22 33.3C22.4867 32.9454 22.7827 32.596 22.8787 32.1667C23.012 31.5347 22.6867 30.9067 22.5587 30.272C22.2773 28.872 23.144 27.3307 24.4867 26.8427C25.1213 26.6134 25.8307 26.596 26.4253 26.2774C27.02 25.9587 27.4413 25.3547 27.8547 24.8027C30.0427 21.88 33.548 19.488 37.14 20.136C39.344 20.536 41.2733 22.02 44.0147 22.536C45.9227 21.1187 48.8627 21.336 50.532 23.0334C52.688 25.2147 52.604 29.0814 55.0653 30.916C55.4573 31.2094 55.9133 31.4494 56.1813 31.8574C56.7507 32.724 56.2373 33.9014 56.4813 34.9107C56.6947 35.7867 57.4387 36.4107 57.992 37.1227C58.5453 37.8347 58.9 38.9134 58.3093 39.5947C58.052 39.8907 57.6693 40.0414 57.3667 40.2894C56.6227 40.8974 56.4747 41.98 56.5667 42.936C56.6587 43.892 56.9893 45.1067 56.8 45.8C56.0387 48.6174 54.2773 47.8987 53.4413 48.3334" fill="black"/>
<path d="M25.3332 38.4667C24.5332 39.6667 24.3999 41.1333 23.9999 42.6C23.9999 43.0213 22.3785 48.712 26.1332 52.4667C27.4665 53.8 29.1999 54.3333 30.9999 54.7333C32.6145 54.9827 34.3785 55.2333 35.9332 54.6C35.8439 55.988 35.8305 56.9787 35.8945 58.368L45.2665 57.4C45.1132 55.576 45.4772 53.9347 46.2705 52.284C46.4492 51.9107 46.8372 51.9147 47.2199 51.7933C47.5585 51.6867 47.8946 51.564 48.2226 51.4253C48.8906 51.148 49.5212 50.7893 50.1025 50.3587C51.2519 49.4907 52.1466 48.272 52.4839 46.8587C52.7892 45.5773 52.5745 44.052 51.1439 43.3307C50.1412 42.824 49.2412 43.004 47.7119 44.348L47.2612 44.444C46.2625 44.3707 45.6946 43.1973 45.7559 42.2C45.8172 41.2027 46.2892 40.272 46.4372 39.2827C46.7772 37.0627 45.2652 34.7067 43.1039 34.092C42.5132 33.924 41.8799 33.8693 41.3425 33.572C40.8945 33.3227 40.5212 32.9053 40.0186 32.8173C39.0919 32.6467 38.3292 33.6173 37.3919 33.7213C36.1479 33.8547 35.1865 32.4293 33.9345 32.432C32.6412 32.432 31.7465 33.9413 30.4559 34.0027C29.5905 34.044 28.8172 33.4147 27.9519 33.372C26.8332 33.3187 25.9039 34.256 25.3972 35.2547C24.8905 36.2533 24.6399 37.3813 24.0159 38.312" fill="white"/>
<path d="M53.4414 49.1333C53.152 49.1333 52.8734 48.976 52.7307 48.7026C52.5267 48.3106 52.68 47.828 53.072 47.624C53.4134 47.4466 53.7814 47.3986 54.1374 47.3533C54.956 47.248 55.6027 47.1653 56.028 45.5906C56.1134 45.2773 56 44.572 55.9094 44.0066C55.856 43.676 55.8014 43.3346 55.7707 43.0133C55.6294 41.548 56.016 40.36 56.8614 39.6706C57.02 39.54 57.184 39.4373 57.3294 39.348C57.484 39.2506 57.6307 39.16 57.7067 39.0706C57.9654 38.772 57.7347 38.0946 57.3614 37.6146C57.2307 37.4466 57.084 37.2786 56.9294 37.1013C56.4507 36.556 55.9094 35.9373 55.7054 35.1C55.576 34.564 55.6094 34.0306 55.64 33.5586C55.6734 33.0346 55.7014 32.5826 55.5147 32.2973C55.3987 32.1213 55.1627 31.9586 54.912 31.7866C54.8027 31.712 54.6934 31.636 54.588 31.5573C53.084 30.436 52.4414 28.728 51.82 27.076C51.32 25.7453 50.8467 24.4893 49.9654 23.596C48.584 22.192 46.0787 22.0013 44.4947 23.1786C44.316 23.312 44.0894 23.364 43.8694 23.3226C42.3427 23.0346 41.0427 22.4613 39.8974 21.9546C38.8987 21.5133 37.956 21.0973 37 20.9226C34.7707 20.52 31.364 21.4533 28.4974 25.2813L28.4067 25.4026C27.988 25.9653 27.5134 26.6013 26.8054 26.9813C26.356 27.2226 25.8827 27.324 25.464 27.412C25.2107 27.4666 24.9707 27.5173 24.76 27.5933C23.7894 27.9453 23.1414 29.1 23.344 30.1133C23.376 30.2693 23.4254 30.4386 23.4787 30.6173C23.628 31.1213 23.7974 31.6906 23.6627 32.3306C23.5374 32.892 23.2254 33.3013 22.9494 33.6626L22.8614 33.7786C22.1014 34.816 21.6574 36.0506 21.5814 37.344C21.5454 37.9546 21.6587 38.4 21.892 38.5666C21.96 38.616 22.0734 38.6746 22.288 38.636C22.6574 38.5693 23.0974 38.252 23.3574 37.8626C23.6787 37.384 23.8947 36.8186 24.124 36.22C24.292 35.7826 24.4654 35.3306 24.6894 34.8893C25.2827 33.72 26.464 32.496 27.996 32.5693C28.5307 32.596 29.004 32.7786 29.42 32.9386C29.8027 33.0866 30.1307 33.2146 30.424 33.2C30.8254 33.1813 31.2547 32.8786 31.7107 32.5573C32.3294 32.1213 33.0294 31.628 33.9414 31.628H33.9467C34.772 31.628 35.44 32.0386 36.0294 32.4013C36.5174 32.7013 36.9387 32.9613 37.3134 32.9213C37.56 32.8933 37.8547 32.728 38.168 32.552C38.7014 32.252 39.3654 31.8786 40.1707 32.0266C40.676 32.1146 41.064 32.3973 41.376 32.624C41.5054 32.7173 41.6267 32.8066 41.7387 32.8693C42.0014 33.0146 42.3454 33.0893 42.7107 33.1693C42.9107 33.2133 43.1187 33.2586 43.3294 33.3186C45.8854 34.0453 47.6374 36.7733 47.2347 39.4C47.1614 39.892 47.0214 40.3533 46.8867 40.8C46.7334 41.3053 46.5894 41.7826 46.5614 42.2453C46.524 42.8626 46.8494 43.6066 47.3267 43.6426C47.7667 43.6746 48.0987 44.0586 48.0654 44.4986C48.0334 44.9386 47.6494 45.2706 47.2094 45.2373C45.712 45.128 44.8774 43.548 44.964 42.1466C45.004 41.4973 45.1827 40.9066 45.3547 40.336C45.4787 39.9266 45.5947 39.54 45.652 39.16C45.932 37.332 44.668 35.3626 42.8907 34.8573C42.7267 34.8106 42.552 34.772 42.368 34.732C41.928 34.636 41.4307 34.5266 40.9614 34.268C40.7627 34.1573 40.588 34.0306 40.4334 33.9186C40.228 33.7693 40.0334 33.628 39.8867 33.6026C39.6454 33.5586 39.324 33.7386 38.952 33.948C38.5334 34.184 38.06 34.4506 37.4854 34.5133C36.5654 34.612 35.8347 34.1626 35.1894 33.7653C34.7414 33.4893 34.3174 33.2293 33.9427 33.2293H33.9414C33.5347 33.2293 33.116 33.524 32.6307 33.8666C32.0374 34.284 31.3654 34.7586 30.4987 34.7986C29.8707 34.8293 29.324 34.6173 28.8427 34.432C28.5094 34.3026 28.1934 34.1813 27.9174 34.168C27.148 34.1306 26.4654 34.924 26.116 35.6133C25.9294 35.9813 25.7787 36.3746 25.6187 36.7933C25.368 37.448 25.108 38.1253 24.6867 38.7546C24.18 39.5093 23.3707 40.0666 22.572 40.2106C21.9787 40.3173 21.4214 40.1986 20.96 39.868C20.4667 39.5146 19.8947 38.7733 19.984 37.2506C20.0774 35.6493 20.628 34.1186 21.576 32.8253L21.6774 32.692C21.8707 32.4386 22.0534 32.2 22.1 31.9893C22.1494 31.756 22.0547 31.4386 21.9454 31.0706C21.884 30.8653 21.8214 30.6546 21.776 30.4266C21.42 28.652 22.5134 26.7053 24.2147 26.0866C24.5294 25.9733 24.8347 25.908 25.1294 25.8453C25.4734 25.772 25.7987 25.7026 26.0494 25.568C26.4427 25.3573 26.788 24.8933 27.1227 24.444L27.216 24.3186C29.3814 21.4266 33.1627 18.6013 37.284 19.344C38.428 19.552 39.4547 20.0053 40.5427 20.4866C41.572 20.9413 42.6334 21.4106 43.844 21.68C46.068 20.26 49.248 20.5813 51.104 22.468C52.224 23.6013 52.78 25.0786 53.3174 26.508C53.8827 28.0106 54.416 29.4293 55.5454 30.2706C55.6347 30.3373 55.7267 30.4 55.8187 30.464C56.168 30.704 56.564 30.976 56.852 31.4146C57.3334 32.1466 57.2827 32.9493 57.2374 33.656C57.212 34.0493 57.1894 34.42 57.2614 34.7186C57.372 35.1733 57.7414 35.5946 58.1334 36.0426C58.2974 36.2293 58.4654 36.4226 58.6254 36.628C59.4054 37.6306 59.7974 39.0986 58.916 40.1146C58.6814 40.384 58.4147 40.5506 58.1787 40.6986C58.064 40.7706 57.956 40.8373 57.876 40.904C57.292 41.3813 57.324 42.428 57.3654 42.8546C57.392 43.1266 57.44 43.4293 57.4907 43.748C57.6174 44.5413 57.7494 45.3613 57.5734 46.0053C56.8694 48.612 55.2867 48.8133 54.3414 48.9346C54.1347 48.9613 53.9 48.9906 53.8107 49.0373C53.692 49.104 53.5667 49.1333 53.4414 49.1333Z" fill="black"/>
<path d="M45.2787 57.3185C44.868 57.3185 44.5174 57.0025 44.4827 56.5852C44.3134 54.5772 44.704 53.6572 45.5334 51.9305C45.8374 51.2999 46.412 51.1612 46.756 51.0785C46.8307 51.0599 46.9014 51.0439 46.9627 51.0239C47.28 50.9239 47.5934 50.8092 47.896 50.6812C48.508 50.4279 49.0827 50.1012 49.6107 49.7092C50.6747 48.9052 51.416 47.8225 51.6907 46.6665C51.832 46.0839 52.024 44.6679 50.7747 44.0372C50.2294 43.7612 49.6947 43.6532 48.2294 44.9412C47.8974 45.2332 47.392 45.1999 47.1 44.8679C46.808 44.5359 46.8414 44.0305 47.1734 43.7385C49.2774 41.8892 50.4947 42.1025 51.4947 42.6079C53.0467 43.3919 53.7174 45.0892 53.2454 47.0385C52.8854 48.5532 51.9347 49.9572 50.5694 50.9879C49.932 51.4612 49.2414 51.8532 48.5134 52.1545C48.168 52.2999 47.8067 52.4332 47.4427 52.5465C47.332 52.5812 47.2254 52.6079 47.132 52.6305C47.0734 52.6452 46.9974 52.6625 46.948 52.6785C46.1814 54.2785 45.944 54.8799 46.0774 56.4479C46.1147 56.8879 45.788 57.2759 45.348 57.3119C45.324 57.3172 45.3014 57.3185 45.2787 57.3185Z" fill="black"/>
<path d="M35.884 58.4987C35.4587 58.4987 35.1054 58.1641 35.0854 57.7347C35.0427 56.7961 35.0334 56.3241 35.06 55.6801C33.4574 55.9894 31.8254 55.7054 30.5667 55.4854C28.5334 55.1267 26.9534 54.4027 25.736 53.2707C23.4987 51.1867 22.4547 47.8081 22.8707 43.9987C23.0267 42.5867 23.608 40.4854 24.428 38.3774C24.588 37.9654 25.052 37.7614 25.464 37.9214C25.876 38.0814 26.08 38.5454 25.92 38.9574C25.0107 41.2961 24.5707 43.1854 24.4614 44.1734C24.1 47.4734 24.9614 50.3627 26.8267 52.0987C27.824 53.0267 29.1 53.6014 30.8427 53.9081C32.624 54.2187 34.2134 54.4281 35.62 53.8534C35.8747 53.7494 36.1654 53.7841 36.3894 53.9441C36.6134 54.1041 36.7387 54.3694 36.7214 54.6441C36.636 55.9854 36.6214 56.2814 36.6854 57.6574C36.7054 58.0987 36.364 58.4734 35.9227 58.4934C35.9094 58.4987 35.8974 58.4987 35.884 58.4987Z" fill="black"/>
<path d="M29.124 42.3467C29.6395 42.3467 30.0573 41.8393 30.0573 41.2134C30.0573 40.5874 29.6395 40.08 29.124 40.08C28.6085 40.08 28.1907 40.5874 28.1907 41.2134C28.1907 41.8393 28.6085 42.3467 29.124 42.3467Z" fill="black"/>
<path d="M33.6573 42.66C34.1728 42.66 34.5907 42.1526 34.5907 41.5266C34.5907 40.9007 34.1728 40.3933 33.6573 40.3933C33.1419 40.3933 32.724 40.9007 32.724 41.5266C32.724 42.1526 33.1419 42.66 33.6573 42.66Z" fill="black"/>
<path d="M51.5218 34.9116C51.1118 34.9116 50.7718 34.6016 50.7318 34.1916C50.5018 31.9716 50.3818 29.7216 50.3518 27.4916C50.3118 24.2816 50.5318 20.9316 52.3818 18.2116C52.6318 17.8516 53.1318 17.7516 53.4918 18.0016C53.8618 18.2516 53.9518 18.7516 53.7018 19.1116C52.1018 21.4716 51.9118 24.5316 51.9518 27.4816C51.9818 29.6616 52.1018 31.8616 52.3218 34.0316C52.3618 34.4716 52.0418 34.8616 51.6118 34.9116C51.5818 34.9116 51.5618 34.9116 51.5318 34.9116H51.5218Z" fill="black"/>
<path d="M50.3898 13.1899C43.2698 10.4599 34.3298 9.99988 28.2198 12.1299C26.3898 12.7599 25.3398 13.5799 24.9398 14.7799C24.2898 16.6999 25.8498 18.4999 29.7798 19.3599C35.4198 20.5899 48.0998 22.1999 53.5398 20.1499C53.5398 20.1499 55.6498 19.1799 55.7098 18.1499C55.8198 16.2599 52.8698 14.1399 50.3898 13.1899ZM48.5698 18.2299C42.8398 18.3699 35.7598 17.8499 30.2298 16.5199C29.7698 16.4099 28.0298 15.9199 27.9198 15.4599C28.6498 14.9999 29.8698 14.5599 30.7098 14.3699C35.4198 13.2499 42.2098 13.5499 48.3898 15.3999C50.8598 16.1399 51.7198 17.6099 51.7198 17.6099C51.7198 17.6099 49.2698 18.2299 48.5698 18.2399V18.2299Z" fill="#FFD900"/>
<path d="M45.8487 21.9201C39.9487 21.9201 33.1487 20.9101 29.6187 20.1401C26.9987 19.5701 25.2087 18.5501 24.4287 17.1801C23.9587 16.3601 23.8787 15.4401 24.1887 14.5201C24.6687 13.1001 25.8687 12.1001 27.9587 11.3701C34.2087 9.20009 43.3387 9.63009 50.6687 12.4501C53.0987 13.3801 56.6487 15.6801 56.4987 18.2001C56.4187 19.6101 54.4587 20.6101 53.8687 20.8801C51.8587 21.6401 48.9687 21.9201 45.8387 21.9201H45.8487ZM37.1387 11.5901C33.9787 11.5901 30.9787 12.0201 28.4787 12.8901C26.8687 13.4501 26.0087 14.1101 25.6987 15.0401C25.5387 15.5301 25.5687 15.9701 25.8187 16.4001C26.3587 17.3501 27.8287 18.1201 29.9587 18.5901C36.4687 20.0101 48.3787 21.2501 53.2687 19.4201C54.1087 19.0301 54.8987 18.3701 54.9187 18.1201C54.9887 16.9101 52.7387 14.9601 50.1087 13.9501C46.0687 12.4001 41.4587 11.6001 37.1487 11.6001L37.1387 11.5901ZM46.6987 19.0601C40.7987 19.0601 34.6887 18.4201 30.0387 17.3001C27.3887 16.6601 27.1987 15.9101 27.1387 15.6601C27.0487 15.3201 27.1987 14.9701 27.4887 14.7801C28.3287 14.2501 29.6487 13.7901 30.5187 13.5901C35.5487 12.4001 42.4787 12.8001 48.6087 14.6301C51.3487 15.4501 52.3587 17.1301 52.3987 17.2001C52.5287 17.4201 52.5487 17.6801 52.4487 17.9101C52.3487 18.1401 52.1487 18.3201 51.9087 18.3801C51.4887 18.4901 49.3287 19.0201 48.5887 19.0401C47.9587 19.0501 47.3287 19.0601 46.6987 19.0601ZM29.6587 15.5301C29.9087 15.6101 30.1687 15.6901 30.4087 15.7501C35.4287 16.9601 42.2087 17.5901 48.5487 17.4401C48.7987 17.4401 49.4587 17.3101 50.1687 17.1501C49.7187 16.8101 49.0587 16.4401 48.1587 16.1701C42.2787 14.4201 35.6587 14.0301 30.8887 15.1601C30.5387 15.2401 30.0987 15.3801 29.6587 15.5401V15.5301Z" fill="black"/>
</g>
</g>
<circle cx="40" cy="40" r="38.5" stroke="black" stroke-width="3"/>
<defs>
<clipPath id="clip0_846_13255">
<rect width="80" height="192" fill="white" transform="translate(0 5)"/>
</clipPath>
</defs>
</svg>
