<svg width="80" height="80" viewBox="0 0 80 80" fill="none" xmlns="http://www.w3.org/2000/svg">
<mask id="mask0_846_13247" style="mask-type:alpha" maskUnits="userSpaceOnUse" x="0" y="0" width="80" height="80">
<circle cx="40" cy="40" r="40" fill="white"/>
</mask>
<g mask="url(#mask0_846_13247)">
<rect width="80" height="80" fill="white"/>
<g clip-path="url(#clip0_846_13247)">
<path d="M45.2493 51C45.3693 52.3467 45.92 55.3893 47.9693 54.9333L48.1893 55.2667C48.0893 57.356 47.0306 58.8293 45.372 60.356C43.6866 61.8827 41.5373 62.8 39.2693 62.9613C37.2693 63.108 35.1426 62.6293 33.6466 61.288C32.1506 59.9467 31.364 58.088 32.3546 56.4947H32.4986C32.9493 56.508 33.364 56.272 33.7453 56.032C34.2306 55.7253 34.644 54.348 34.944 53.9867C35.344 53.468 36.0933 51.6213 36.2986 51H45.2493Z" fill="white"/>
<path d="M58.9773 88.1813C61.9307 97.3253 63.9853 104.339 66.684 113.164C66.8173 113.615 67.3507 115.208 67.104 115.607C66.9387 115.873 66.6613 116.044 66.3907 116.197C64.9107 117.039 63.2947 117.109 61.6253 117.445L55.4293 118.679C46.5613 120.269 37.6613 120.659 28.7773 119.16L27.1013 118.964L21.368 117.867C20.8507 117.768 20.2827 117.636 19.98 117.2C19.7294 116.843 19.7307 116.372 19.7493 115.936C19.8253 114.203 20.0253 112.483 20.2253 110.761L21.8027 97.1613C22.4787 91.3347 23.156 85.4987 24.0773 79.708L24.0133 79.688C22.4627 79.1547 20.936 78.5626 19.408 77.9692C19.1973 77.9092 19.008 77.792 18.8587 77.632C18.5587 77.2453 18.816 76.6907 19.0733 76.2733C21.3453 72.58 23.288 68.6947 24.8813 64.6613C26.0973 61.5813 27.3667 58.116 30.3347 56.648L36.5373 57.356L48.208 54.2C50.2493 54.7466 51.924 56.2106 53.2987 57.8173C55.036 59.848 56.4133 62.1613 57.3733 64.656C59.4973 70.18 59.4987 76.4067 62.06 81.7427C60.8453 82.1027 59.612 82.3919 58.3653 82.6119L58.9773 88.1813Z" fill="white"/>
<path d="M36.2067 58.132C36.3067 59.504 36.6813 60.8414 37.3067 62.0667C37.36 62.1947 37.4467 62.3054 37.5573 62.388C37.7533 62.508 38.008 62.4347 38.224 62.356C40.1747 61.648 42.0627 60.776 43.8667 59.7507C44.7867 59.228 45.7173 58.6334 46.2667 57.7307C46.7867 56.8787 46.9107 55.852 47.0227 54.8614L47.2613 52.7454C47.284 52.6374 47.2733 52.5254 47.2293 52.4254C47.112 52.2227 46.8093 52.2694 46.588 52.344C43.0133 53.5587 39.5773 55.1907 36.2067 58.132Z" fill="white"/>
<path d="M35.0667 53.12C34.6787 53.8293 34.2787 54.5946 34.348 55.4C34.4174 56.2053 35.1787 57 35.9587 56.7893C36.004 57.7453 35.3294 58.5653 34.6947 59.2813L33.044 61.148C32.9827 61.2307 32.9 61.2947 32.804 61.332C32.5747 61.3973 32.3827 61.1547 32.2707 60.9426C31.572 59.624 31.0547 58.2173 30.7334 56.76C30.66 56.5573 30.652 56.3373 30.708 56.1293C30.7654 55.9213 30.884 55.736 31.0507 55.5986C31.8987 54.6333 32.8854 53.7973 33.8987 53.0066C34.1454 52.8133 34.432 52.6066 34.7414 52.6466C35.0507 52.6866 35.3 53.104 35.0667 53.12Z" fill="white"/>
<path d="M20.2307 110.767C20.0307 112.488 19.8307 114.211 19.7547 115.941L19.6547 116.287C18.6294 116.103 17.5014 115.799 16.9574 114.911C16.0734 113.468 17.2907 111.515 16.6907 109.932C16.2747 108.824 14.996 107.852 15.4294 106.751C15.7907 105.833 17.052 105.727 17.7934 105.077C18.5347 104.428 18.652 103.372 18.7334 102.411L20.7187 78.7748L20.7734 78.5081C21.848 78.9214 22.9254 79.3254 24.0147 79.6988L24.076 79.7348C23.156 85.5214 22.476 91.3521 21.8094 97.1721" fill="white"/>
<path d="M52.5173 83.932C50.904 83.932 49.2853 83.8187 47.6653 83.5907C47.2613 83.5333 46.9653 83.1827 46.9773 82.776L47.3413 70C47.3533 69.5587 47.7213 69.2067 48.164 69.2227C48.6053 69.2347 48.9533 69.604 48.9413 70.0453L48.5973 82.0987C52.756 82.5947 56.904 82.3013 60.9493 81.2253C59.7707 78.4533 59.1787 75.4813 58.604 72.5973C58.0933 70.032 57.5653 67.3813 56.628 64.9453C55.6987 62.5293 54.3747 60.3067 52.692 58.34C51.1173 56.5 49.5827 55.3987 48.0027 54.976C47.576 54.8613 47.3227 54.4227 47.4373 53.996C47.552 53.5693 47.9907 53.316 48.4173 53.4307C50.32 53.94 52.1173 55.2067 53.9093 57.3013C55.7107 59.4067 57.128 61.7867 58.1227 64.3733C59.108 66.9373 59.6507 69.6573 60.1747 72.288C60.8187 75.5187 61.4253 78.5707 62.784 81.4013C62.8853 81.6133 62.8893 81.8573 62.7933 82.072C62.6973 82.2867 62.5133 82.448 62.2893 82.5147C59.0827 83.456 55.812 83.932 52.5173 83.932Z" fill="black"/>
<path d="M24.0187 80.4973C23.932 80.4973 23.8453 80.4827 23.7587 80.4533C22.204 79.92 20.6547 79.3187 19.156 78.736L19.1533 78.7347C18.8187 78.6307 18.516 78.4413 18.2773 78.184C18.2613 78.1667 18.2467 78.1493 18.232 78.1307C17.776 77.5427 17.832 76.78 18.3973 75.8613C20.6373 72.2187 22.5707 68.3533 24.1427 64.3747L24.2813 64.0213C25.4867 60.9573 26.8533 57.4853 29.9853 55.9373C30.3813 55.7413 30.8613 55.904 31.0573 56.3C31.2533 56.696 31.0907 57.176 30.6947 57.372C28.1173 58.6453 26.924 61.676 25.7707 64.6067L25.6307 64.9613C24.0253 69.0267 22.0493 72.976 19.76 76.6987C19.608 76.9453 19.556 77.0907 19.5387 77.1653C19.568 77.1827 19.6 77.1973 19.6347 77.2067C19.6587 77.2133 19.6813 77.2213 19.704 77.2293L19.736 77.2413C21.22 77.8173 22.7547 78.4133 24.2787 78.936C24.696 79.08 24.9187 79.5347 24.776 79.952C24.6613 80.2893 24.3507 80.4973 24.0187 80.4973Z" fill="black"/>
<path d="M26.0227 119.565C25.9733 119.565 25.9227 119.56 25.872 119.551L21.2227 118.661C20.6973 118.556 19.832 118.381 19.3307 117.669C18.9387 117.111 18.9307 116.468 18.9547 115.911C19.032 114.148 19.2373 112.384 19.4347 110.679L21.0507 96.744C22.1493 87.34 23.284 77.6147 25.4947 68.232C25.596 67.8027 26.0253 67.5347 26.4573 67.6374C26.8867 67.7387 27.1533 68.1694 27.052 68.6C24.8627 77.8934 23.7333 87.572 22.64 96.932L21.024 110.865C20.8293 112.544 20.628 114.279 20.552 115.983C20.5427 116.195 20.5253 116.592 20.6387 116.752C20.772 116.941 21.2467 117.037 21.5293 117.093L26.1707 117.981C26.604 118.064 26.8893 118.484 26.8053 118.917C26.7347 119.299 26.4 119.565 26.0227 119.565Z" fill="black"/>
<path d="M19.6599 117.083C19.6132 117.083 19.5652 117.079 19.5172 117.069C18.3119 116.853 16.9852 116.477 16.2786 115.324C15.6532 114.307 15.8119 113.172 15.9519 112.172C16.0546 111.443 16.1506 110.753 15.9452 110.209C15.8346 109.912 15.6199 109.596 15.3946 109.26C14.8852 108.504 14.2519 107.564 14.6879 106.453C15.0292 105.592 15.8212 105.224 16.4559 104.928C16.7746 104.78 17.0746 104.64 17.2706 104.469C17.7572 104.045 17.8639 103.22 17.9386 102.339L19.9239 78.7026C19.9612 78.2626 20.3506 77.9359 20.7879 77.9719C21.2279 78.0092 21.5546 78.3959 21.5186 78.8359L19.5332 102.472C19.4346 103.645 19.2599 104.859 18.3212 105.675C17.9546 105.993 17.5172 106.197 17.1306 106.377C16.6746 106.589 16.2812 106.772 16.1759 107.04C16.0559 107.344 16.3026 107.744 16.7212 108.365C16.9892 108.763 17.2652 109.173 17.4426 109.645C17.7906 110.571 17.6546 111.539 17.5359 112.392C17.4186 113.232 17.3172 113.957 17.6412 114.485C18.0186 115.1 18.9426 115.34 19.7986 115.493C20.2332 115.571 20.5226 115.987 20.4452 116.421C20.3772 116.811 20.0399 117.083 19.6599 117.083Z" fill="black"/>
<path d="M37.8 63.2507C37.5907 63.2507 37.3613 63.2054 37.14 63.0694C37.12 63.0574 37.1013 63.044 37.0827 63.0307C36.864 62.8694 36.692 62.6534 36.5827 62.4054C35.912 61.0854 35.5173 59.6667 35.4093 58.1893C35.3907 57.9387 35.492 57.6933 35.6813 57.528C38.6973 54.896 41.9827 53.0627 46.332 51.5853C47.1573 51.3067 47.6947 51.6293 47.9227 52.0227C47.9373 52.0493 47.9507 52.076 47.9627 52.1027C48.068 52.344 48.0987 52.6053 48.0533 52.864L47.8187 54.9493C47.7093 55.92 47.572 57.1267 46.9507 58.1453C46.288 59.2347 45.216 59.9027 44.2627 60.444C42.424 61.4894 40.4853 62.384 38.4973 63.1054C38.3653 63.156 38.104 63.2507 37.8 63.2507ZM37.0413 58.4693C37.1667 59.56 37.4773 60.6107 37.9667 61.5987C39.864 60.9093 41.716 60.0533 43.472 59.056C44.2507 58.6133 45.12 58.0787 45.584 57.316C46.0227 56.5987 46.1267 55.6707 46.228 54.7733L46.3987 53.2573C42.6253 54.584 39.7067 56.2093 37.0413 58.4693Z" fill="black"/>
<path d="M32.792 62.1987C32.4707 62.1987 31.9934 62.0613 31.6294 61.3733C30.9 59.9973 30.36 58.528 30.0227 57.0066C29.9454 56.7226 29.9267 56.432 29.9667 56.1413C29.972 56.104 29.98 56.068 29.9894 56.032C30.0894 55.6786 30.28 55.356 30.5387 55.0973C31.432 54.12 32.42 53.2213 33.4774 52.4253C33.752 52.212 34.256 51.8213 34.9134 51.9093C35.4307 51.9786 36.1707 52.4986 36.1494 53.1586C36.1414 53.3986 36.04 53.6106 35.876 53.76C35.8374 53.8266 35.7987 53.8933 35.76 53.9613C35.472 54.46 35.1734 54.976 35.208 55.3933C35.224 55.5866 35.364 55.8053 36.2614 56.0853C36.5827 56.1853 36.8067 56.476 36.8227 56.812C36.884 58.1493 35.9294 59.228 35.3587 59.872L33.7254 61.7173C33.5787 61.904 33.384 62.0493 33.1627 62.136C33.1374 62.1453 33.112 62.1547 33.0867 62.1613C33.0267 62.176 32.9227 62.1987 32.792 62.1987ZM31.548 56.416C31.5454 56.476 31.5534 56.5346 31.5694 56.5933C31.5734 56.6093 31.5774 56.6253 31.5814 56.6413C31.8587 57.9013 32.2894 59.1213 32.864 60.2746L34.1627 58.808C34.5734 58.344 34.976 57.86 35.1454 57.3813C34.4894 57.1 33.7054 56.576 33.6174 55.5253C33.576 55.0306 33.6854 54.5773 33.8587 54.16C33.0934 54.7826 32.3734 55.4626 31.7094 56.1906C31.6987 56.2026 31.688 56.2133 31.676 56.2253C31.62 56.28 31.576 56.3453 31.548 56.416Z" fill="black"/>
<path d="M35 64.6C35.405 64.6 35.7334 64.2717 35.7334 63.8667C35.7334 63.4617 35.405 63.1333 35 63.1333C34.595 63.1333 34.2667 63.4617 34.2667 63.8667C34.2667 64.2717 34.595 64.6 35 64.6Z" fill="black"/>
<path d="M34.4667 69.6667C34.8717 69.6667 35.2 69.3383 35.2 68.9333C35.2 68.5283 34.8717 68.2 34.4667 68.2C34.0617 68.2 33.7333 68.5283 33.7333 68.9333C33.7333 69.3383 34.0617 69.6667 34.4667 69.6667Z" fill="black"/>
<path d="M50.2668 46.2147C50.5335 47.0334 51.7815 46.7134 52.4575 46.1774C55.6788 43.6214 57.5934 39.5481 57.6867 35.4361C57.78 31.3241 56.1015 27.2348 53.2788 24.2441C51.5921 22.4588 49.3174 20.9894 46.8654 21.1148L42.9334 19.1654C42.388 17.9534 40.9467 17.3974 39.62 17.3334C38.2934 17.2694 36.9667 17.5708 35.64 17.5108C34.5827 17.4628 33.54 17.1867 32.4827 17.2161C30.0254 17.2827 27.9214 18.9574 26.2027 20.7161C23.3134 23.6721 20.8174 27.4054 20.8254 31.5401C20.8254 33.8841 21.492 36.6627 19.7587 38.2441C19.5347 38.4494 19.2507 38.7108 19.3587 38.9948C19.3974 39.0694 19.4494 39.1361 19.5147 39.1894C19.58 39.2428 19.6547 39.2828 19.7347 39.3054C21.184 39.8934 23.0414 39.0548 23.5574 37.5721L26.168 32.6468C27.0427 31.3134 28.8535 30.9214 30.4415 31.0841C32.0295 31.2468 33.552 31.8361 35.1427 31.9788C36.4227 32.0828 37.7108 31.8988 38.9108 31.4401C40.1108 30.9814 41.192 30.2574 42.076 29.3241L42.876 29.5401C43.6414 29.9188 44.2868 30.5041 44.7401 31.2281C45.1921 31.9534 45.4348 32.7894 45.4388 33.6441C45.4308 34.5201 45.172 35.3707 45.028 36.2361C44.884 37.1014 44.8854 38.0428 45.348 38.7868C45.8107 39.5308 46.864 39.9548 47.604 39.4841" fill="black"/>
<path d="M45.2799 52.1853C45.1265 50.3613 45.4812 48.9373 46.2745 47.2866C46.4532 46.9133 46.8412 46.9173 47.2239 46.796C47.5625 46.6893 47.8985 46.5666 48.2265 46.428C48.8945 46.1506 49.5252 45.792 50.1065 45.3613C51.2559 44.4933 52.1505 43.2746 52.4879 41.8613C52.7932 40.58 52.5785 39.0546 51.1479 38.3333C50.1452 37.8266 49.2452 38.0066 47.7159 39.3506L47.6079 39.4933C46.8679 39.964 45.8132 39.5413 45.3519 38.796C44.8905 38.0506 44.8919 37.1106 45.0319 36.2453C45.1719 35.38 45.4319 34.5293 45.4425 33.6533C45.4385 32.7986 45.1959 31.9626 44.7439 31.2373C44.2919 30.512 43.6465 29.928 42.8799 29.5493L42.0799 29.3333C41.1959 30.2666 40.1145 30.9893 38.9145 31.4493C37.7145 31.9093 36.4265 32.0933 35.1465 31.988C33.5559 31.8453 32.0332 31.2573 30.4452 31.0933C28.8572 30.9293 27.0465 31.32 26.1719 32.656L25.3332 33.4666C24.5332 34.6666 24.3999 36.1333 23.9999 37.6C23.9999 38.0213 22.3785 43.712 26.1332 47.4666C27.4665 48.8 29.1999 49.3333 30.9999 49.7333C32.6145 49.9826 34.3785 50.2333 35.9332 49.6C35.8439 50.988 35.8585 52.2093 35.9225 53.5986" fill="white"/>
<path d="M51.0374 47.5107C50.8534 47.5107 50.672 47.488 50.4987 47.436C50.0147 47.2907 49.66 46.9467 49.5014 46.4667C49.3627 46.0467 49.5907 45.5947 50.0094 45.456C50.412 45.3227 50.844 45.5267 51.0014 45.9133C51.1747 45.932 51.6094 45.824 51.956 45.5507C54.9494 43.176 56.7907 39.388 56.8814 35.4187C56.968 31.58 55.4414 27.708 52.6907 24.7933C51.6227 23.6627 49.448 21.7853 46.9 21.9133C46.4587 21.9373 46.0827 21.596 46.06 21.1547C46.0374 20.7133 46.3774 20.3373 46.8187 20.3147C49.184 20.1933 51.6814 21.3933 53.8547 23.6933C56.892 26.9107 58.5773 31.1973 58.4813 35.4533C58.3813 39.892 56.312 44.1347 52.9494 46.8027C52.4707 47.1813 51.732 47.5107 51.0374 47.5107Z" fill="black"/>
<path d="M46.9053 40.4867C46.7307 40.4867 46.5533 40.4667 46.376 40.4267C45.684 40.2693 45.048 39.816 44.6733 39.2147C44.1707 38.4067 44.0307 37.3907 44.244 36.1107C44.292 35.8213 44.352 35.5373 44.4093 35.264C44.528 34.6987 44.64 34.164 44.644 33.6427C44.64 32.948 44.44 32.2573 44.0667 31.6573C43.692 31.0587 43.16 30.576 42.5267 30.2627C42.1307 30.0667 41.968 29.5867 42.164 29.1907C42.36 28.7947 42.84 28.632 43.236 28.828C44.136 29.2733 44.892 29.9587 45.424 30.8093C45.956 31.6613 46.2387 32.6413 46.244 33.6453C46.2373 34.336 46.104 34.9733 45.9747 35.5907C45.9187 35.8613 45.864 36.116 45.8227 36.3733C45.6787 37.2413 45.7493 37.9133 46.0333 38.3707C46.1813 38.6093 46.456 38.804 46.732 38.868C46.8547 38.896 47.0333 38.9093 47.18 38.816C47.5533 38.5787 48.0467 38.6893 48.284 39.0613C48.5213 39.4347 48.4107 39.928 48.0387 40.1653C47.7027 40.3773 47.312 40.4867 46.9053 40.4867Z" fill="black"/>
<path d="M26.1667 33.452C26.016 33.452 25.864 33.4093 25.728 33.3213C25.3587 33.0787 25.256 32.5827 25.4973 32.2133C26.4347 30.7853 28.3133 30.068 30.5213 30.2933C31.3493 30.3787 32.1493 30.5693 32.9213 30.7533C33.7107 30.9413 34.456 31.12 35.212 31.1867C36.3587 31.28 37.5413 31.112 38.6227 30.6973C39.704 30.2827 40.696 29.62 41.4933 28.7787C41.7973 28.4573 42.304 28.444 42.624 28.748C42.9453 29.052 42.9587 29.5587 42.6547 29.8787C41.6947 30.892 40.4987 31.692 39.1947 32.1907C37.8907 32.6893 36.4667 32.8933 35.0747 32.78C34.1973 32.7013 33.3587 32.5013 32.5493 32.308C31.7933 32.128 31.08 31.9573 30.3573 31.884C29.12 31.7573 27.544 32.008 26.8347 33.0893C26.6827 33.3253 26.428 33.452 26.1667 33.452Z" fill="black"/>
<path d="M20.7292 40.2933C20.2932 40.2933 19.8639 40.216 19.4666 40.0587C19.2972 40.004 19.1426 39.9187 19.0052 39.804C18.8559 39.68 18.7346 39.5293 18.6466 39.3573C18.6333 39.332 18.6212 39.3053 18.6119 39.2773C18.3106 38.4853 18.9466 37.9013 19.2186 37.652C20.2972 36.668 20.1959 34.9573 20.0892 33.1467C20.0586 32.616 20.0252 32.0667 20.0252 31.5373C20.0186 27.7973 21.9039 23.9667 25.6306 20.1547C27.1626 18.5867 29.5373 16.4933 32.4613 16.4147C33.1319 16.396 33.7759 16.4853 34.3986 16.572C34.8426 16.6333 35.2612 16.692 35.6772 16.7107C36.2826 16.7373 36.8972 16.6827 37.5479 16.624C38.2306 16.5627 38.9373 16.4987 39.6599 16.5333C41.1266 16.604 42.9493 17.2467 43.6639 18.836C43.8453 19.2387 43.6653 19.712 43.2626 19.8933C42.8599 20.0747 42.3866 19.8947 42.2053 19.492C41.7866 18.5613 40.5759 18.1787 39.5826 18.1307C38.9706 18.1013 38.3493 18.1573 37.6919 18.216C37.0173 18.2773 36.3173 18.34 35.6053 18.308C35.1159 18.2853 34.6399 18.22 34.1799 18.156C33.5959 18.0747 33.0453 17.9987 32.5066 18.0133C30.1639 18.0773 28.1146 19.904 26.7759 21.2733C23.3533 24.776 21.6199 28.2293 21.6266 31.536C21.6266 32.02 21.6559 32.5213 21.6879 33.052C21.8026 34.9907 21.9319 37.1773 20.4639 38.6747C20.8519 38.728 21.2719 38.664 21.6679 38.484C22.2159 38.236 22.6292 37.8067 22.8039 37.3067C22.9492 36.8893 23.4052 36.668 23.8226 36.8147C24.2399 36.96 24.4599 37.416 24.3159 37.8333C23.9986 38.7453 23.2746 39.5147 22.3292 39.9427C21.8119 40.1773 21.2652 40.2933 20.7292 40.2933Z" fill="black"/>
<path d="M45.2787 52.3187C44.868 52.3187 44.5174 52.0027 44.4827 51.5853C44.3134 49.5773 44.704 48.6573 45.5334 46.9307C45.8374 46.3 46.412 46.1613 46.756 46.0787C46.8307 46.06 46.9014 46.044 46.9627 46.024C47.28 45.924 47.5934 45.8093 47.896 45.6813C48.508 45.428 49.0827 45.1013 49.6107 44.7093C50.6747 43.9053 51.416 42.8227 51.6907 41.6667C51.832 41.084 52.024 39.668 50.7747 39.0373C50.2294 38.7613 49.6947 38.6533 48.2294 39.9413C47.8974 40.2333 47.392 40.2 47.1 39.868C46.808 39.536 46.8414 39.0307 47.1734 38.7387C49.2774 36.8893 50.4947 37.1027 51.4947 37.608C53.0467 38.392 53.7174 40.0893 53.2454 42.0387C52.8854 43.5533 51.9347 44.9573 50.5694 45.988C49.932 46.4613 49.2414 46.8533 48.5134 47.1547C48.168 47.3 47.8067 47.4333 47.4427 47.5467C47.332 47.5813 47.2254 47.608 47.132 47.6307C47.0734 47.6453 46.9974 47.6627 46.948 47.6787C46.1814 49.2787 45.944 49.88 46.0774 51.448C46.1147 51.888 45.788 52.276 45.348 52.312C45.324 52.3173 45.3014 52.3187 45.2787 52.3187Z" fill="black"/>
<path d="M35.884 53.4988C35.4587 53.4988 35.1053 53.1641 35.0853 52.7348C35.0427 51.7961 35.0333 51.3241 35.06 50.6801C33.4573 50.9894 31.8253 50.7054 30.5667 50.4854C28.5333 50.1268 26.9533 49.4028 25.736 48.2708C23.4987 46.1868 22.4547 42.8081 22.8707 38.9988C23.0267 37.5868 23.608 35.4854 24.428 33.3774C24.588 32.9654 25.052 32.7614 25.464 32.9214C25.876 33.0814 26.08 33.5454 25.92 33.9574C25.0107 36.2961 24.5707 38.1854 24.4613 39.1734C24.1 42.4734 24.9613 45.3628 26.8267 47.0988C27.824 48.0268 29.1 48.6014 30.8427 48.9081C32.624 49.2188 34.2133 49.4281 35.62 48.8534C35.8747 48.7494 36.1653 48.7841 36.3893 48.9441C36.6133 49.1041 36.7387 49.3694 36.7213 49.6441C36.636 50.9854 36.6213 51.2814 36.6853 52.6574C36.7053 53.0988 36.364 53.4734 35.9227 53.4934C35.9093 53.4988 35.8973 53.4988 35.884 53.4988Z" fill="black"/>
<path d="M29.124 37.3467C29.6395 37.3467 30.0573 36.8393 30.0573 36.2134C30.0573 35.5874 29.6395 35.08 29.124 35.08C28.6085 35.08 28.1907 35.5874 28.1907 36.2134C28.1907 36.8393 28.6085 37.3467 29.124 37.3467Z" fill="black"/>
<path d="M33.6573 37.66C34.1728 37.66 34.5907 37.1526 34.5907 36.5266C34.5907 35.9007 34.1728 35.3933 33.6573 35.3933C33.1419 35.3933 32.724 35.9007 32.724 36.5266C32.724 37.1526 33.1419 37.66 33.6573 37.66Z" fill="black"/>
</g>
</g>
<circle cx="40" cy="40" r="38.5" stroke="black" stroke-width="3"/>
<defs>
<clipPath id="clip0_846_13247">
<rect width="80" height="192" fill="white"/>
</clipPath>
</defs>
</svg>
