<svg width="80" height="80" viewBox="0 0 80 80" fill="none" xmlns="http://www.w3.org/2000/svg">
<mask id="mask0_846_13252" style="mask-type:alpha" maskUnits="userSpaceOnUse" x="0" y="0" width="80" height="80">
<circle cx="40" cy="40" r="40" fill="white"/>
</mask>
<g mask="url(#mask0_846_13252)">
<rect width="80" height="80" fill="white"/>
<g clip-path="url(#clip0_846_13252)">
<path d="M45.2493 51C45.3693 52.3467 45.92 55.3893 47.9693 54.9333L48.1893 55.2667C48.0893 57.356 47.0306 58.8293 45.372 60.356C43.6866 61.8827 41.5373 62.8 39.2693 62.9613C37.2693 63.108 35.1426 62.6293 33.6466 61.288C32.1506 59.9467 31.364 58.088 32.3546 56.4947H32.4986C32.9493 56.508 33.364 56.272 33.7453 56.032C34.2306 55.7253 35.232 54.468 35.532 54.1067C35.932 53.588 36.0946 51.6213 36.3 51H45.2493Z" fill="white"/>
<path d="M48.208 54.2C50.5667 54.832 52.396 56.6493 53.8693 58.5106C55.476 60.5426 56.736 62.8253 57.6 65.2667C58.084 66.6307 58.8493 68.1653 59.1653 69.576L59.5867 70.8666C61.8693 80.6972 62.2773 90.8373 62.4267 100.947L62.56 101.099C63.3813 104.104 66.448 111.704 67.1147 114.904C67.136 115.177 67.0907 115.452 66.9813 115.704C65.648 117.304 63.3813 116.904 61.628 117.448L55.432 118.681C46.564 120.272 37.664 120.661 28.78 119.163L27.104 118.967L21.3707 117.869C20.8533 117.771 20.2853 117.639 19.9827 117.203C19.732 116.845 19.7333 116.375 19.752 115.939C19.828 114.205 20.028 112.485 20.228 110.764L21.1427 102.879H21.0733C19.7187 102.713 18.6307 102.549 17.276 102.385C17.8373 96.192 18.5573 90.0147 19.436 83.852C20.2 78.4853 21.0893 73.1173 22.668 67.932C24.0707 63.324 26.296 58.5586 30.5213 56.248L36.388 56.648L48.208 54.2Z" fill="white"/>
<path d="M36.4 56.656L37.6774 62.2C39.708 61.4867 41.744 60.772 43.6774 59.8267C44.3734 59.4867 45.072 59.1027 45.576 58.5147C46.172 57.82 46.4387 56.9147 46.6907 56.0307C47.0694 54.6973 47.4507 53.364 47.576 51.9813C45.9254 52.108 44.4 52.8667 42.9227 53.612C40.9614 54.6 39 55.5907 36.4 56.656Z" fill="white"/>
<path d="M35 54L34.4733 54.9653C34.4013 55.168 34.3733 55.384 34.388 55.5987C34.4787 56.22 35.2187 56.476 35.832 56.6054C35.1427 58.26 34.1467 59.7707 32.8987 61.0574C32.208 60.316 31.6827 59.4374 31.3573 58.4774C31.032 57.5174 30.916 56.5 31.0147 55.492L35 53.5C35.248 53.9067 35.1467 54.1227 35 54Z" fill="white"/>
<path d="M59.164 70.376C58.7974 70.376 58.468 70.1227 58.384 69.7507C58.192 68.8947 57.8067 67.9507 57.4334 67.0373C57.2294 66.54 57.02 66.0253 56.8454 65.5347C56.008 63.1693 54.796 60.9733 53.2414 59.0066C52.1067 57.5733 50.3294 55.5973 48 54.972C47.5734 54.8573 47.32 54.4186 47.4347 53.992C47.5494 53.5653 47.988 53.312 48.4147 53.4266C51.2027 54.1733 53.2214 56.4026 54.496 58.0133C56.16 60.1186 57.4587 62.468 58.3534 64.9987C58.5147 65.4533 58.7094 65.928 58.9147 66.4307C59.3134 67.4053 59.724 68.4133 59.9454 69.4C60.0414 69.8307 59.7707 70.2587 59.34 70.356C59.2814 70.3693 59.2227 70.376 59.164 70.376Z" fill="black"/>
<path d="M25.9014 119.543C25.852 119.543 25.8014 119.537 25.7507 119.528L21.224 118.661C20.6987 118.556 19.8334 118.381 19.332 117.669C18.94 117.111 18.932 116.468 18.956 115.911C19.0334 114.148 19.2387 112.384 19.436 110.679L21.052 96.7439C22.1507 87.3399 23.2854 77.6147 25.496 68.232C25.5974 67.8027 26.028 67.5347 26.4587 67.6373C26.888 67.7387 27.1547 68.1693 27.0534 68.6C24.864 77.8932 23.7347 87.5719 22.6414 96.9319L21.0254 110.865C20.8307 112.544 20.6294 114.279 20.5534 115.983C20.544 116.195 20.5267 116.592 20.64 116.752C20.7734 116.941 21.248 117.037 21.5307 117.093L26.0507 117.959C26.484 118.041 26.7694 118.461 26.6854 118.895C26.612 119.276 26.2774 119.543 25.9014 119.543Z" fill="black"/>
<path d="M37.6827 62.996C37.5494 62.996 37.4147 62.9626 37.2974 62.8986C37.0974 62.7893 36.9494 62.6013 36.8974 62.38L35.62 56.836C35.532 56.4547 35.7334 56.0654 36.096 55.916C38.6387 54.8747 40.6 53.8854 42.4974 52.9307L42.5614 52.8987C44.0227 52.1614 45.6787 51.3254 47.5134 51.1854C47.748 51.1667 47.9787 51.2534 48.144 51.4214C48.3094 51.5894 48.392 51.8214 48.3707 52.0547C48.24 53.4974 47.848 54.8774 47.4694 56.2107L47.4574 56.2507C47.2107 57.1174 46.904 58.1947 46.18 59.0374C45.5867 59.7294 44.7947 60.172 44.0254 60.5467C42.0534 61.5106 39.968 62.244 37.9507 62.952C37.8667 62.9813 37.7747 62.996 37.6827 62.996ZM37.332 57.1347L38.256 61.148C39.9707 60.5414 41.7054 59.9 43.3254 59.108C43.8974 58.828 44.544 58.488 44.968 57.9947C45.4627 57.4174 45.696 56.6014 45.92 55.812L45.9307 55.772C46.2054 54.804 46.4694 53.876 46.636 52.94C45.48 53.2174 44.3654 53.7787 43.28 54.3267L43.2147 54.36C41.452 55.2494 39.6294 56.1667 37.332 57.1347Z" fill="black"/>
<path d="M32.8987 61.8573C32.896 61.8573 32.8933 61.8573 32.8907 61.8573C32.672 61.8547 32.4627 61.7627 32.3133 61.6027C31.54 60.7733 30.964 59.808 30.6 58.7333C30.236 57.6587 30.108 56.5427 30.2187 55.4133C30.244 55.148 30.4013 54.9133 30.6347 54.7867L34.9373 52.4667C35.2413 52.3027 35.616 52.352 35.8667 52.5893C36.1173 52.8267 36.188 53.1987 36.0413 53.5107L35.2173 55.264C35.1947 55.3373 35.184 55.4133 35.184 55.4907C35.2093 55.5267 35.364 55.6893 35.9973 55.8227C36.2307 55.872 36.4293 56.0227 36.54 56.2333C36.6507 56.444 36.6627 56.6933 36.5707 56.9133C35.84 58.668 34.7973 60.2493 33.4733 61.6147C33.3227 61.7693 33.1147 61.8573 32.8987 61.8573ZM31.784 55.9867C31.7587 56.7467 31.8707 57.496 32.116 58.2213C32.312 58.8 32.5853 59.3387 32.932 59.832C33.644 58.9933 34.2467 58.076 34.7333 57.0907C34.0667 56.7813 33.6853 56.32 33.596 55.7147C33.5933 55.6947 33.5907 55.676 33.5893 55.656C33.5733 55.4293 33.5893 55.2053 33.636 54.9853L31.784 55.9867Z" fill="black"/>
<path d="M21.0733 103.68C21.0413 103.68 21.008 103.679 20.976 103.675C20.3067 103.593 19.6933 103.511 19.1013 103.431C18.4933 103.349 17.864 103.264 17.18 103.181C16.7507 103.129 16.44 102.745 16.48 102.315C17.04 96.132 17.768 89.8827 18.6453 83.74C19.3867 78.5333 20.2947 72.9867 21.904 67.7C23.8173 61.4387 26.4347 57.5787 30.1427 55.5507C30.5307 55.3387 31.016 55.4814 31.228 55.8694C31.44 56.2574 31.2973 56.7427 30.9093 56.9547C27.592 58.7694 25.216 62.332 23.4333 68.1667C21.856 73.3493 20.96 78.8227 20.228 83.9653C19.3907 89.8267 18.6907 95.7853 18.1427 101.688C18.548 101.74 18.9347 101.792 19.3147 101.844C19.9027 101.923 20.5093 102.005 21.1693 102.085C21.608 102.139 21.92 102.537 21.8667 102.976C21.816 103.383 21.472 103.68 21.0733 103.68Z" fill="black"/>
<path d="M34.1135 120.668C33.7135 120.668 33.3681 120.369 33.3201 119.963C31.8868 107.919 32.6655 95.6667 33.4175 83.8173L35.0975 57.3493C35.1255 56.908 35.5068 56.5773 35.9468 56.6013C36.3881 56.6293 36.7228 57.0093 36.6948 57.4507L35.0148 83.9187C34.2668 95.696 33.4935 107.875 34.9095 119.773C34.9615 120.212 34.6481 120.611 34.2095 120.663C34.1775 120.667 34.1455 120.668 34.1135 120.668Z" fill="black"/>
<path d="M62.4827 106.376C62.4787 106.376 62.4734 106.376 62.4694 106.376L50.8614 106.185C50.4654 106.179 50.1334 105.883 50.0814 105.489C48.5014 93.4586 47.9494 81.2106 48.4414 69.0866C48.4587 68.6453 48.8307 68.304 49.2734 68.32C49.7147 68.3373 50.0587 68.7106 50.04 69.152C49.5614 80.956 50.0787 92.8773 51.5787 104.597L61.6734 104.763C61.668 104.277 61.664 103.793 61.6587 103.311C61.5547 92.604 61.456 82.492 59.0187 71.984C58.9187 71.5533 59.1867 71.124 59.6174 71.024C60.048 70.924 60.4774 71.192 60.5774 71.6226C63.0547 82.3013 63.1534 92.4986 63.2587 103.296C63.2654 104.051 63.2734 104.807 63.2814 105.568C63.284 105.784 63.1987 105.992 63.0454 106.144C62.8974 106.292 62.6934 106.376 62.4827 106.376Z" fill="black"/>
<path d="M25.8866 32.244C26.6572 30.4573 27.8466 28.8813 29.3532 27.6493C30.2332 26.932 31.2479 26.328 32.3706 26.16C33.4932 25.992 34.7372 26.3253 35.4506 27.2093L36.7452 27.9853C38.5892 27.008 40.9266 26.9333 42.7559 27.9387C44.5852 28.944 45.7932 31.056 45.5759 33.1387C45.4546 34.3027 44.9266 35.3947 44.7946 36.5573C44.6626 37.72 45.1119 39.112 45.6266 39.2787L45.0932 51.256C45.8039 51.4533 45.9106 51.4773 46.0159 51.5C47.5266 52.4573 48.6092 53.9627 49.0359 55.7C49.2306 56.5227 49.4212 57.5667 50.2359 57.7773C51.3026 58.0587 52.0812 56.5693 53.1866 56.4627C54.4186 56.344 55.2239 57.9533 56.4586 58.0347C58.0079 58.1347 58.6186 55.9747 59.9799 55.2347C60.7799 54.7973 61.7492 54.9027 62.6599 54.876C63.5706 54.8493 64.6119 54.5773 64.9959 53.752C65.3799 52.9267 64.8972 51.9227 64.2039 51.3267C63.5106 50.7307 62.6359 50.3933 61.8932 49.86C60.0532 48.5333 59.2439 46.2187 58.6666 44.028C58.1559 42.0933 57.7412 40.1387 57.4252 38.1613C57.0999 36.1373 56.8772 34.0867 56.3012 32.1187C55.4199 29.1187 53.7546 26.408 51.4759 24.2667C49.8092 22.7053 47.5799 21.424 45.3426 21.8533L42.7532 20.52C41.8279 19.2147 39.9986 18.892 38.4132 19.1107C36.8279 19.3293 35.3226 19.9707 33.7332 20.1613C32.6666 20.2947 31.5786 20.212 30.5199 20.3987C29.1732 20.6347 27.9292 21.2907 26.8212 22.092C21.8452 25.692 19.5372 32.2027 19.9039 38.3307C19.9839 39.68 20.1786 41.052 19.8839 42.372C19.0026 46.32 14.2932 48.1987 12.5506 51.848C12.0426 52.9147 10.1732 54.5413 11.2986 54.8867C12.1399 55.1453 13.0319 54.4493 13.8906 54.62C14.6612 54.772 15.1239 55.5373 15.5199 56.22C15.9892 57.02 16.5172 57.82 17.2786 58.344C18.0399 58.868 19.0892 59.08 19.9039 58.6373C20.7186 58.1947 21.2372 57.1413 22.1706 57.0267C23.2239 56.8933 23.8092 57.7493 24.8666 57.6667C25.2666 57.636 25.8652 57.2493 26.1999 57.0267C27.2959 56.2947 28.3092 55.8627 29.0892 54.8L33.6706 50" fill="black"/>
<path d="M45.2667 52.3333C45.1133 50.5093 45.4813 48.9373 46.2747 47.2867C46.4533 46.9133 46.8413 46.9173 47.224 46.796C47.5627 46.6893 47.8987 46.5667 48.2267 46.428C48.8947 46.1507 49.5253 45.792 50.1067 45.3613C51.256 44.4933 52.1507 43.2747 52.488 41.8613C52.7933 40.58 52.5787 39.0547 51.148 38.3333C50.1453 37.8267 49.2453 38.0067 47.716 39.3507L46.232 39.4493C45.1133 39.1093 44.664 37.716 44.796 36.5547C44.928 35.3933 45.456 34.3 45.5773 33.136C45.7947 31.06 44.5867 28.948 42.7573 27.936C40.928 26.924 38.5907 27.0027 36.7467 27.9827L35.452 27.2067C34.7387 26.3227 33.4947 25.988 32.372 26.1573C31.2493 26.3267 30.2387 26.9293 29.3547 27.6467C27.848 28.8787 26.6587 30.4547 25.888 32.2413L25.3333 33.4667C24.5333 34.6667 24.4 36.1333 24 37.6C24 38.0213 22.3787 43.712 26.1333 47.4667C27.4667 48.8 29.2 49.3333 31 49.7333C32.6147 49.9827 34.3787 50.2333 35.9333 49.6C35.844 50.988 35.8307 51.9787 35.8947 53.368" fill="white"/>
<path d="M46.232 40.252C46.1547 40.252 46.076 40.2413 45.9987 40.2173C44.46 39.7493 43.8293 37.9773 44 36.4667C44.0733 35.8253 44.2467 35.2267 44.4147 34.6467C44.5747 34.0947 44.7267 33.5733 44.78 33.0547C44.96 31.3333 43.9693 29.5173 42.3707 28.6387C41.0213 27.8973 39.7867 28.0093 37.82 29.052C37.4293 29.2587 36.9453 29.1107 36.7387 28.72C36.532 28.3293 36.68 27.8453 37.0707 27.6387C40.1213 26.0213 41.852 26.528 43.1413 27.2373C45.288 28.4173 46.616 30.8773 46.372 33.2213C46.3027 33.8827 46.124 34.4973 45.952 35.0933C45.796 35.632 45.648 36.1413 45.5907 36.648C45.4947 37.4907 45.796 38.484 46.464 38.6867C46.8867 38.8147 47.1253 39.2627 46.9973 39.6853C46.892 40.0293 46.5747 40.252 46.232 40.252Z" fill="black"/>
<path d="M25.8867 33.044C25.7813 33.044 25.6733 33.0227 25.5707 32.9787C25.1653 32.804 24.9773 32.3333 25.1533 31.9267C25.972 30.0293 27.2493 28.336 28.848 27.0293C30.0133 26.08 31.1267 25.5373 32.2533 25.368C33.7613 25.1427 35.2253 25.6547 36.0747 26.7067C36.352 27.0507 36.2987 27.5547 35.9547 27.832C35.6107 28.1093 35.1067 28.056 34.8293 27.712C34.344 27.1107 33.4253 26.812 32.4907 26.952C31.656 27.0773 30.796 27.508 29.86 28.2707C28.4587 29.416 27.34 30.9 26.6227 32.5627C26.4907 32.8627 26.196 33.044 25.8867 33.044Z" fill="black"/>
<path d="M18.9107 59.6747C18.208 59.6747 17.4707 59.4467 16.8253 59.0027C15.9413 58.3947 15.344 57.5 14.8307 56.624C14.552 56.144 14.1733 55.4907 13.736 55.404C13.512 55.3587 13.196 55.4467 12.8627 55.54C12.3573 55.68 11.728 55.8547 11.064 55.6507C10.4813 55.472 10.2747 55.076 10.2027 54.856C9.9533 54.0867 10.5387 53.3107 11.1587 52.488C11.4253 52.1334 11.7027 51.768 11.828 51.504C12.6707 49.74 14.1107 48.396 15.5027 47.0974C17.1307 45.5787 18.6693 44.144 19.1027 42.1974C19.316 41.2427 19.24 40.2294 19.1587 39.156C19.1387 38.896 19.12 38.636 19.104 38.3773C18.6907 31.4653 21.4667 24.976 26.3507 21.4427C27.7347 20.4414 29.0533 19.8427 30.38 19.6094C31.0213 19.496 31.6573 19.4747 32.272 19.4533C32.7453 19.4373 33.1933 19.4214 33.632 19.3667C34.3973 19.2747 35.144 19.0707 35.9347 18.8533C36.696 18.6453 37.4827 18.4294 38.3013 18.3174C40.508 18.0134 42.416 18.6627 43.4027 20.056C43.6587 20.416 43.5733 20.916 43.212 21.1707C42.852 21.4267 42.352 21.3414 42.0973 20.98C41.348 19.924 39.7587 19.7294 38.52 19.9C37.804 19.9987 37.1013 20.1907 36.3573 20.3947C35.5453 20.6174 34.7053 20.8467 33.8267 20.952C33.32 21.0147 32.816 21.0333 32.3267 21.0493C31.7413 21.0693 31.1893 21.0893 30.656 21.1827C29.572 21.372 28.4707 21.8814 27.2867 22.736C22.8427 25.952 20.3173 31.9067 20.6987 38.2787C20.7133 38.5293 20.732 38.7814 20.752 39.032C20.8373 40.1734 20.9267 41.3547 20.6613 42.5414C20.1187 44.9707 18.3253 46.644 16.5907 48.2627C15.248 49.5147 13.98 50.6974 13.2693 52.188C13.0747 52.5987 12.748 53.0294 12.4333 53.448C12.2933 53.6334 12.0987 53.8907 11.9507 54.1134C12.1 54.0867 12.264 54.0413 12.432 53.9947C12.908 53.8627 13.448 53.712 14.044 53.8307C15.1907 54.0574 15.804 55.1147 16.2093 55.8134C16.6933 56.6374 17.1373 57.272 17.7293 57.68C18.2227 58.02 18.968 58.2294 19.5187 57.9294C19.7453 57.8054 19.9773 57.5774 20.2213 57.336C20.6747 56.888 21.24 56.3293 22.0693 56.228C22.8293 56.132 23.4067 56.3947 23.8707 56.6067C24.2533 56.7813 24.5027 56.8867 24.8 56.864C24.8533 56.8574 25.0813 56.8027 25.752 56.356C26.0307 56.1694 26.3 56.0054 26.5613 55.8454C27.3027 55.392 27.9427 55 28.44 54.3227C28.7013 53.9667 29.2027 53.8894 29.5587 54.1507C29.9147 54.412 29.992 54.912 29.7307 55.2694C29.048 56.2 28.2093 56.7147 27.3973 57.2107C27.1493 57.3627 26.8933 57.5187 26.64 57.688C26.0747 58.064 25.476 58.4174 24.924 58.46C24.2013 58.516 23.6493 58.2654 23.2067 58.0627C22.8053 57.88 22.564 57.7774 22.2667 57.816C21.976 57.852 21.684 58.14 21.3453 58.4747C21.0467 58.7694 20.708 59.104 20.2813 59.336C19.872 59.5654 19.4 59.6747 18.9107 59.6747Z" fill="black"/>
<path d="M56.564 58.824C56.5093 58.824 56.4533 58.8227 56.3973 58.8187C55.5667 58.764 54.9467 58.2787 54.3987 57.8493C53.9627 57.508 53.584 57.212 53.256 57.244C52.9867 57.2707 52.6467 57.5293 52.3187 57.78C51.728 58.2307 50.9933 58.7933 50.0227 58.5347C48.784 58.2093 48.4813 56.8827 48.2813 56.0053L48.2493 55.8653C47.8827 54.376 46.9773 53.088 45.696 52.2347L45.52 52.196C45.088 52.1027 44.8147 51.676 44.908 51.244C45.0013 50.812 45.428 50.5387 45.86 50.632L46.1787 50.7013C46.2707 50.7213 46.3573 50.7573 46.4373 50.808C48.1307 51.8813 49.3267 53.5453 49.8053 55.492L49.8413 55.648C49.9627 56.1787 50.1293 56.9067 50.432 56.9867C50.6307 57.04 50.924 56.8307 51.348 56.508C51.8307 56.1387 52.3787 55.72 53.104 55.6507C54.0707 55.5573 54.8 56.1293 55.3853 56.588C55.7867 56.9013 56.1653 57.1987 56.5053 57.22C56.984 57.252 57.3667 56.808 57.948 56.08C58.392 55.5253 58.896 54.896 59.5893 54.516C60.4093 54.068 61.3107 54.0667 62.1053 54.0653C62.2813 54.0653 62.456 54.0653 62.6293 54.06C62.9453 54.0507 63.996 53.9733 64.2653 53.3973C64.476 52.9467 64.1187 52.2987 63.676 51.916C63.34 51.6267 62.9307 51.396 62.4973 51.1533C62.1427 50.9547 61.776 50.748 61.4213 50.4947C59.3747 49.0307 58.4853 46.504 57.8853 44.228C57.3693 42.276 56.9467 40.276 56.628 38.284C56.556 37.832 56.488 37.3773 56.42 36.924C56.1933 35.3973 55.9587 33.8173 55.5253 32.34C54.6853 29.4813 53.092 26.8907 50.92 24.8507C49.8467 23.8413 47.7133 22.2133 45.4853 22.64C45.052 22.7227 44.632 22.4387 44.5493 22.004C44.4667 21.5707 44.7507 21.1507 45.1853 21.068C47.3533 20.6533 49.78 21.5813 52.0173 23.684C54.3973 25.92 56.1413 28.7573 57.0627 31.8893C57.5267 33.4747 57.7693 35.108 58.004 36.6893C58.0707 37.1373 58.1373 37.5853 58.2093 38.032C58.52 39.972 58.932 41.92 59.4347 43.8213C59.9893 45.924 60.7267 48.0293 62.356 49.196C62.6387 49.3987 62.9507 49.5747 63.2827 49.76C63.7667 50.032 64.2667 50.312 64.724 50.7067C65.9813 51.792 66.12 53.2147 65.7187 54.076C65.2627 55.052 64.1853 55.6147 62.6827 55.6613C62.4947 55.6667 62.3027 55.668 62.112 55.668C61.4493 55.6693 60.824 55.6693 60.3613 55.9227C59.9493 56.148 59.5853 56.6027 59.2013 57.0827C58.5733 57.8613 57.8027 58.824 56.564 58.824Z" fill="black"/>
<path d="M45.2787 52.3187C44.868 52.3187 44.5173 52.004 44.4827 51.5853C44.3133 49.5773 44.704 48.6587 45.5333 46.9307C45.8373 46.3 46.412 46.1613 46.756 46.0787C46.8307 46.06 46.9013 46.044 46.9627 46.024C47.28 45.924 47.5933 45.8093 47.896 45.6813C48.508 45.428 49.0827 45.1013 49.6107 44.7093C50.6747 43.9053 51.416 42.824 51.6907 41.6667C51.832 41.084 52.024 39.668 50.7747 39.0373C50.2293 38.7613 49.6947 38.6533 48.2293 39.9413C47.8973 40.2333 47.392 40.2 47.1 39.868C46.808 39.536 46.8413 39.0307 47.1733 38.7387C49.2773 36.8893 50.4933 37.1027 51.4947 37.608C53.0467 38.392 53.7173 40.0893 53.2453 42.0387C52.8853 43.5533 51.9347 44.9573 50.5693 45.988C49.932 46.4613 49.2413 46.8533 48.5133 47.1547C48.168 47.3 47.8067 47.4333 47.4427 47.5467C47.332 47.5813 47.2253 47.608 47.132 47.6307C47.0733 47.6453 46.9973 47.6627 46.948 47.6787C46.1813 49.2787 45.944 49.88 46.0773 51.448C46.1147 51.888 45.788 52.2747 45.348 52.312C45.324 52.3173 45.3013 52.3187 45.2787 52.3187Z" fill="black"/>
<path d="M35.8853 53.4988C35.46 53.4988 35.1067 53.1641 35.0867 52.7348C35.044 51.7961 35.0347 51.3241 35.0613 50.6801C33.4587 50.9894 31.8267 50.7054 30.568 50.4854C28.5347 50.1268 26.9547 49.4028 25.7373 48.2708C23.5 46.1868 22.456 42.8081 22.872 38.9988C23.028 37.5868 23.6093 35.4854 24.4293 33.3774C24.5893 32.9654 25.0533 32.7614 25.4653 32.9214C25.8773 33.0814 26.0813 33.5454 25.9213 33.9574C25.012 36.2961 24.572 38.1854 24.4627 39.1734C24.1013 42.4734 24.9627 45.3628 26.828 47.0988C27.8253 48.0268 29.1013 48.6014 30.844 48.9081C32.6253 49.2188 34.216 49.4281 35.6213 48.8534C35.876 48.7494 36.1667 48.7841 36.3907 48.9441C36.6147 49.1054 36.74 49.3694 36.7227 49.6441C36.6373 50.9854 36.6227 51.2814 36.6867 52.6574C36.7067 53.0988 36.3653 53.4734 35.924 53.4934C35.9093 53.4988 35.8973 53.4988 35.8853 53.4988Z" fill="black"/>
<path d="M29.124 37.3467C29.6395 37.3467 30.0573 36.8393 30.0573 36.2134C30.0573 35.5874 29.6395 35.08 29.124 35.08C28.6085 35.08 28.1907 35.5874 28.1907 36.2134C28.1907 36.8393 28.6085 37.3467 29.124 37.3467Z" fill="black"/>
<path d="M33.6573 37.66C34.1728 37.66 34.5907 37.1526 34.5907 36.5267C34.5907 35.9008 34.1728 35.3933 33.6573 35.3933C33.1419 35.3933 32.724 35.9008 32.724 36.5267C32.724 37.1526 33.1419 37.66 33.6573 37.66Z" fill="black"/>
</g>
</g>
<circle cx="40" cy="40" r="38.5" stroke="black" stroke-width="3"/>
<defs>
<clipPath id="clip0_846_13252">
<rect width="80" height="192" fill="white"/>
</clipPath>
</defs>
</svg>
