<svg width="80" height="80" viewBox="0 0 80 80" fill="none" xmlns="http://www.w3.org/2000/svg">
<mask id="mask0_846_13250" style="mask-type:alpha" maskUnits="userSpaceOnUse" x="0" y="0" width="80" height="80">
<circle cx="40" cy="40" r="40" fill="white"/>
</mask>
<g mask="url(#mask0_846_13250)">
<rect width="80" height="80" fill="white"/>
<g clip-path="url(#clip0_846_13250)">
<path d="M28.7026 58.9707L28.9492 58.2053C28.1679 58.4187 27.5786 59.052 27.0826 59.6893C25.5399 61.6613 24.7252 64.1627 24.3412 66.636C22.8199 76.44 20.1706 92.9213 18.4292 105.964C17.9986 105.912 17.5612 105.987 17.1706 106.176C16.7799 106.365 16.4519 106.664 16.2266 107.035C16.0012 107.405 15.8852 107.833 15.8959 108.267C15.9052 108.701 16.0399 109.123 16.2826 109.483C16.4266 109.693 16.6066 109.883 16.7386 110.099C17.0759 110.661 17.0572 111.361 17.0172 112.017C16.9426 113.243 16.8452 114.533 17.3719 115.643C17.8986 116.752 19.3066 117.548 20.3852 116.961C21.1372 116.551 21.4599 115.657 21.7186 114.841C22.0826 113.764 22.3919 112.668 22.6439 111.559C22.9306 110.192 24.1106 104.128 24.2252 102.735L23.1559 102.211C23.1559 102.211 26.9972 73.5133 28.7026 58.9707Z" fill="white"/>
<path d="M50.0853 72.3334L50.2707 72.5441C50.1267 84.6881 51.756 96.8188 52.9427 109.321C52.48 109.36 52.04 109.54 51.6853 109.839C51.3293 110.137 51.0746 110.539 50.9572 110.988C50.8386 111.437 50.864 111.912 51.0267 112.347C51.1893 112.781 51.484 113.155 51.868 113.416C52.2813 113.696 52.7773 113.832 53.2013 114.097C55.1453 115.309 54.912 118.652 56.9667 119.663C58.4827 120.408 60.3827 119.271 61.0693 117.725C61.756 116.18 61.5679 114.408 61.3639 112.731C60.4932 105.595 58.4173 84.6921 58.0547 80.3174C58.0547 80.3174 56.316 64.1467 55.868 62.2894C55.42 60.432 53.9013 58.8427 52.5173 57.5254L52.2187 57.332C51.284 59.696 48.7107 69.8254 50.0853 72.3334Z" fill="white"/>
<path d="M45.2493 51C45.3693 52.3467 45.92 55.3893 47.9693 54.9333L48.1893 55.2667C48.0893 57.356 47.0306 58.8293 45.372 60.356C43.6866 61.8827 41.5373 62.8 39.2693 62.9613C37.2693 63.108 35.1426 62.6293 33.6466 61.288C32.1506 59.9467 31.364 58.088 32.3546 56.4947H32.4986C32.9493 56.508 33.364 56.272 33.7453 56.032C34.2306 55.7253 35.232 54.468 35.532 54.1067C35.932 53.588 36.0946 51.6213 36.3 51H45.2493Z" fill="white"/>
<path d="M50.0853 72.3334C48.7107 69.8254 51.284 59.696 52.2173 57.332C52.312 57.1507 52.1827 57.2733 52.1613 57.0707C52.096 56.76 49.4227 55.072 48.2253 54.9333C47.9987 57.2 47.0493 58.8147 45.3707 60.356C43.6853 61.8827 41.536 62.8 39.268 62.9613C37.268 63.108 35.1413 62.6294 33.6453 61.288C32.1493 59.9467 31.4453 57.648 32.436 56.0587L29.7333 57.2987C29.412 57.4453 29.0667 57.608 28.884 57.908C28.7013 58.208 28.7507 58.6093 28.7107 58.9747C27 73.5174 22.668 101.392 23.0547 101.435C31.9987 102.493 43.556 103.447 52.224 100.999H52.2453C51.5333 91.3987 50.1667 81.98 50.2813 72.5467" fill="white"/>
<path d="M38.8306 103.335C33.3772 103.335 27.8199 102.804 22.9599 102.229C22.7386 102.203 22.5306 102.08 22.3986 101.9C22.1812 101.601 22.0919 101.477 22.5946 96.4667C22.9092 93.3307 23.3692 89.2987 23.8919 85.1133C24.5292 79.9987 26.1972 67.216 27.9186 58.8547C27.9239 58.788 27.9279 58.712 27.9306 58.6333C27.9439 58.3 27.9612 57.8867 28.1999 57.4933C28.5146 56.976 29.0479 56.7333 29.3999 56.572L32.1026 55.3333C32.4239 55.1867 32.8039 55.2667 33.0359 55.532C33.2692 55.7973 33.3012 56.184 33.1146 56.484C32.3972 57.636 32.8746 59.524 34.1786 60.6947C35.3839 61.776 37.2172 62.312 39.2092 62.1653C41.2906 62.0173 43.2879 61.1653 44.8332 59.7653C46.4559 58.276 47.2332 56.8067 47.4279 54.856C47.4492 54.6427 47.5559 54.4467 47.7226 54.312C47.8892 54.1773 48.1039 54.116 48.3159 54.14C49.1746 54.24 50.3759 54.876 51.0159 55.2467C52.5306 56.124 52.8252 56.5373 52.9106 56.7853C53.0532 57.0013 53.1119 57.304 52.9479 57.6547C52.5426 58.696 51.6759 61.6933 51.0706 64.9267C50.0946 70.144 50.6052 71.6213 50.7852 71.9493C50.9972 72.3373 50.8559 72.8227 50.4679 73.036C50.0799 73.248 49.5946 73.1067 49.3812 72.7187C48.6892 71.4573 48.7279 68.736 49.4972 64.632C50.0319 61.7787 50.8226 58.8307 51.3466 57.368C50.8986 57.0107 49.7546 56.3173 48.8799 55.9547C48.5012 57.86 47.5612 59.4293 45.9106 60.944C44.0972 62.5867 41.7599 63.5853 39.3239 63.7587C36.9026 63.9347 34.6386 63.252 33.1106 61.8827C31.9319 60.8253 31.1066 59.1307 31.1839 57.512L30.0652 58.0253C29.8999 58.1013 29.6252 58.2267 29.5652 58.324C29.5399 58.376 29.5332 58.5693 29.5279 58.6973C29.5239 58.808 29.5186 58.9333 29.5039 59.0613C29.5012 59.0867 29.4972 59.112 29.4919 59.136C26.8879 71.7627 24.0492 96.5013 23.8319 100.72C32.7146 101.748 43.7572 102.557 52.0052 100.228C52.4306 100.108 52.8719 100.356 52.9919 100.78C53.1119 101.205 52.8652 101.647 52.4399 101.768C48.3519 102.924 43.6306 103.335 38.8306 103.335ZM23.1426 100.64C23.1466 100.64 23.1506 100.641 23.1559 100.641C23.1506 100.64 23.1466 100.64 23.1426 100.64Z" fill="black"/>
<path d="M57.9892 120.695C57.5066 120.695 57.0386 120.589 56.6132 120.38C55.2772 119.723 54.7359 118.355 54.2572 117.147C53.8652 116.157 53.4959 115.223 52.7772 114.775C52.6239 114.679 52.4386 114.596 52.2426 114.508C51.9866 114.393 51.6946 114.264 51.4186 114.076C50.8946 113.72 50.4999 113.219 50.2772 112.625C50.0546 112.032 50.0226 111.395 50.1839 110.783C50.3452 110.171 50.6866 109.632 51.1719 109.224C51.4452 108.995 51.7519 108.817 52.0812 108.697C51.8466 106.265 51.5946 103.823 51.3506 101.453C50.3266 91.5188 49.3586 82.1348 49.4719 72.5347C49.4772 72.0933 49.8426 71.7427 50.2812 71.744C50.7226 71.7493 51.0772 72.1121 51.0719 72.5534C50.9586 82.0628 51.9226 91.4013 52.9412 101.289C53.2092 103.888 53.4866 106.576 53.7399 109.245C53.7599 109.459 53.6946 109.671 53.5572 109.835C53.4199 109.999 53.2226 110.101 53.0092 110.119C52.7092 110.143 52.4306 110.259 52.1999 110.452C51.9692 110.645 51.8079 110.9 51.7319 111.191C51.6559 111.481 51.6706 111.784 51.7759 112.065C51.8812 112.347 52.0692 112.584 52.3172 112.753C52.4759 112.861 52.6799 112.952 52.8959 113.048C53.1226 113.149 53.3786 113.264 53.6266 113.419C54.7919 114.145 55.2986 115.427 55.7466 116.559C56.1546 117.588 56.5386 118.56 57.3199 118.944C57.8172 119.188 58.3279 119.093 58.6692 118.969C59.3732 118.715 60.0279 118.099 60.3386 117.4C60.9119 116.111 60.7892 114.629 60.5706 112.827C59.7079 105.759 57.6372 84.9573 57.2586 80.3933C56.6586 74.816 55.4346 63.9067 55.0919 62.4773C54.7079 60.8827 53.3639 59.4334 51.9679 58.1067C51.6479 57.8027 51.6346 57.296 51.9399 56.976C52.2439 56.656 52.7506 56.6427 53.0706 56.948C54.6439 58.444 56.1666 60.1054 56.6479 62.104C57.1012 63.9907 58.7799 79.5707 58.8506 80.2333C58.8506 80.24 58.8519 80.2467 58.8519 80.2533C59.2279 84.788 61.2972 105.576 62.1586 112.636C62.3546 114.249 62.5986 116.256 61.8012 118.052C61.3159 119.145 60.3252 120.073 59.2159 120.476C58.8052 120.62 58.3919 120.695 57.9892 120.695Z" fill="black"/>
<path d="M47.8133 55.9C47.7973 55.9 47.7813 55.9 47.7653 55.8986C46.2787 55.8106 45.7973 54.9533 45.412 54.2653C45.312 54.088 45.2093 53.904 45.088 53.724C44.8413 53.3573 44.9387 52.86 45.304 52.6133C45.6707 52.3666 46.168 52.464 46.4147 52.8293C46.5733 53.064 46.6974 53.2853 46.8068 53.4813C47.1534 54.0986 47.2453 54.264 47.86 54.3013C48.3013 54.328 48.6373 54.7066 48.6107 55.1466C48.5853 55.572 48.2333 55.9 47.8133 55.9Z" fill="black"/>
<path d="M19.5893 117.959C19.3027 117.959 19.0093 117.912 18.7187 117.817C17.8427 117.532 17.0493 116.831 16.6493 115.987C16.0493 114.724 16.136 113.319 16.212 112.077L16.2187 111.969C16.2533 111.404 16.2667 110.868 16.052 110.511C16.0067 110.436 15.9333 110.344 15.856 110.245C15.7827 110.153 15.7 110.049 15.6213 109.935C15.2893 109.443 15.108 108.875 15.0947 108.285C15.0813 107.697 15.236 107.12 15.5427 106.617C15.8493 106.115 16.2907 105.713 16.82 105.456C17.108 105.316 17.4147 105.223 17.728 105.177C19.1373 94.8333 20.9933 82.9493 22.4907 73.3613C22.88 70.8653 23.2413 68.556 23.556 66.5147C24.016 63.5333 24.992 61.0707 26.4573 59.1974C27.0133 58.4827 27.72 57.7134 28.744 57.4347C29.1707 57.3187 29.6107 57.5694 29.7267 57.996C29.8427 58.4227 29.592 58.8627 29.1653 58.9787C28.596 59.1347 28.1147 59.6747 27.72 60.1827C26.424 61.84 25.556 64.052 25.1373 66.76C24.8227 68.8027 24.4613 71.1133 24.072 73.6093C22.5427 83.4013 20.64 95.588 19.2227 106.071C19.164 106.504 18.768 106.808 18.336 106.757C18.056 106.724 17.7747 106.772 17.5213 106.895C17.268 107.017 17.056 107.209 16.9107 107.451C16.764 107.691 16.6907 107.967 16.696 108.248C16.7027 108.529 16.7893 108.801 16.9467 109.035C16.9907 109.099 17.0493 109.173 17.1107 109.251C17.2093 109.376 17.3213 109.516 17.4213 109.68C17.8733 110.435 17.864 111.272 17.816 112.064L17.8093 112.173C17.7413 113.272 17.672 114.408 18.0947 115.297C18.3107 115.751 18.7493 116.143 19.2147 116.293C19.42 116.36 19.724 116.408 20.004 116.256C20.48 115.996 20.736 115.293 20.9573 114.597C20.9587 114.592 20.96 114.588 20.9627 114.583C21.316 113.537 21.6187 112.461 21.864 111.385C22.1587 109.975 23.3187 102.848 23.4293 101.503C23.4653 101.063 23.8533 100.736 24.292 100.771C24.732 100.807 25.06 101.193 25.024 101.633C24.9067 103.063 23.7333 110.261 23.428 111.72C23.4267 111.724 23.4267 111.729 23.4253 111.733C23.168 112.863 22.8507 113.991 22.48 115.087C22.244 115.832 21.848 117.071 20.7693 117.66C20.408 117.86 20.0053 117.959 19.5893 117.959Z" fill="black"/>
<path d="M32.3547 57.2946C31.9613 57.2946 31.6173 57.004 31.5627 56.6026C31.5027 56.1653 31.8093 55.7613 32.2467 55.7013C33.1947 55.572 33.808 55.016 34.2147 54.6493L34.2627 54.6053C34.7773 54.1413 34.832 54.0173 34.9413 53.768C34.9573 53.7306 34.9747 53.6933 34.992 53.6533C35.1747 53.2506 35.648 53.072 36.0507 53.2546C36.4533 53.4373 36.632 53.9106 36.4493 54.3133L36.4053 54.412C36.2173 54.84 36.052 55.148 35.3333 55.7946L35.2867 55.836C34.8013 56.2746 33.9 57.0906 32.4613 57.288C32.428 57.292 32.3907 57.2946 32.3547 57.2946Z" fill="black"/>
<path d="M50.056 36.8C49.9413 36.0533 49.2279 35.564 48.5586 35.2147C47.8893 34.8653 47.1413 34.5067 46.8333 33.816C46.2573 32.5267 47.5746 30.9573 46.9919 29.6707C46.7319 29.096 46.1333 28.7373 45.5173 28.5947C44.9013 28.452 44.2613 28.5133 43.6319 28.5693L41.9772 27.7053C40.8692 25.936 38.4506 25.372 36.4118 25.828C34.3733 26.284 32.6239 27.548 30.9333 28.7773L25.6385 32.6373C24.7772 33.2653 23.56 33.8947 22.7373 33.216C21.5106 32.2053 23.0039 29.8933 21.9519 28.7067C21.6999 28.424 21.34 28.264 21.052 28.0173C20.252 27.3267 20.152 26.1187 20.264 25.064C20.6973 20.9933 23.3866 17.2987 27.0013 15.3773C30.6159 13.456 35.0413 13.264 38.9159 14.5773C41.1399 15.3347 43.4252 16.8947 43.7025 19.2267L45.1813 19.708C46.9973 18.108 49.7692 18.4653 52.1012 19.096C53.7745 19.548 55.4412 20.1067 56.9012 21.0387C58.3612 21.9707 59.6132 23.3173 60.1559 24.964C60.4905 25.9773 60.5558 27.0973 61.1385 27.996C61.5158 28.58 62.0786 29.02 62.4933 29.5773C63.684 31.1773 63.3093 33.7213 61.7066 34.9107C60.9319 35.4853 59.8933 35.8147 59.4613 36.6787C59.0999 37.4027 59.2653 38.344 58.768 38.9813C58.044 39.908 56.368 39.6387 55.7346 40.6293C55.56 40.9027 55.4945 41.24 55.2878 41.4893C55.0812 41.7387 54.6213 41.8347 54.4626 41.5547L50.5505 41.7333L50.056 36.8Z" fill="black"/>
<path d="M25.1747 33.6693C24.3147 35.8813 23.7974 37.8786 23.6667 39.088C23.3374 42.1333 23.952 45.5173 26.2814 47.6866C27.5227 48.8413 29.06 49.4093 30.704 49.6986C32.4187 50.0013 34.2587 50.2773 35.9227 49.5973C35.8347 50.9853 35.8214 51.8426 35.8854 53.232L45.2667 52.2666C45.1147 50.4413 45.472 48.932 46.2667 47.2813C46.4467 46.908 46.8334 46.912 47.216 46.7906C47.556 46.684 47.8894 46.5613 48.2187 46.4226C48.8867 46.1453 49.5187 45.7866 50.0987 45.356C51.248 44.488 52.144 43.2693 52.48 41.856C52.7854 40.5746 52.5707 39.0493 51.1467 38.328C50.1427 37.8213 49.2427 38.0013 47.7134 39.3453L50.068 36.812C49.9534 36.0653 49.24 35.576 48.5707 35.2266C47.9014 34.8773 47.1534 34.5186 46.8454 33.828C46.2694 32.5386 47.5867 30.9693 47.004 29.6826C46.744 29.108 46.1454 28.7493 45.5294 28.6066C44.9134 28.464 44.2734 28.5253 43.644 28.5813L41.9894 27.7173C40.8814 25.948 38.4627 25.384 36.424 25.84C34.3854 26.296 32.624 27.548 30.9334 28.7773L25.6387 32.6373" fill="white"/>
<path d="M23.5774 34.3132C22.988 34.3132 22.5454 34.096 22.228 33.8333C21.264 33.0386 21.3907 31.8332 21.492 30.8639C21.5627 30.1879 21.6294 29.5479 21.3534 29.2372C21.2747 29.1492 21.1347 29.0559 20.9867 28.9572C20.8467 28.8639 20.6867 28.7572 20.532 28.6252C19.6627 27.8745 19.296 26.6145 19.4694 24.9799C19.9227 20.7279 22.664 16.7772 26.6267 14.6719C30.2987 12.7199 34.988 12.4025 39.1734 13.8212C42.236 14.8639 44.2254 16.8505 44.4974 19.1332C44.5494 19.5719 44.236 19.9705 43.7974 20.0225C43.3587 20.0745 42.9614 19.7612 42.908 19.3225C42.616 16.8665 39.5814 15.6505 38.6574 15.3359C34.8827 14.0572 30.6654 14.3372 27.376 16.0852C23.876 17.9452 21.456 21.4185 21.0587 25.1505C20.9787 25.9105 21.0014 26.9199 21.5734 27.4132C21.652 27.4799 21.7587 27.5519 21.8707 27.6265C22.0854 27.7692 22.3307 27.932 22.5467 28.176C23.292 29.016 23.1747 30.1345 23.0814 31.0319C22.996 31.8532 22.964 32.3692 23.244 32.5999C23.7174 32.9905 24.8347 32.2332 25.1654 31.9919L30.46 28.1319C32.124 26.9225 34.008 25.552 36.2347 25.0533C38.976 24.44 41.2174 25.1572 42.384 27.0199C42.6187 27.3945 42.5054 27.888 42.1307 28.1226C41.756 28.3573 41.2627 28.244 41.028 27.8693C39.9134 26.0893 37.548 26.3985 36.584 26.6145C34.6814 27.0399 33.0134 28.2519 31.4014 29.4252L26.108 33.2852C25.0627 34.0479 24.2294 34.3132 23.5774 34.3132Z" fill="black"/>
<path d="M54.788 42.5306C54.7494 42.5306 54.712 42.5293 54.6747 42.5253C54.2854 42.4906 53.956 42.2826 53.7694 41.9546C53.552 41.5706 53.6867 41.0826 54.0707 40.864C54.2907 40.7386 54.5467 40.7306 54.764 40.8186C54.78 40.7813 54.7974 40.7413 54.8147 40.7026C54.8787 40.552 54.9507 40.38 55.0627 40.2053C55.5507 39.4426 56.3814 39.2 57.048 39.0053C57.5107 38.8706 57.948 38.7426 58.14 38.496C58.2907 38.304 58.3414 37.9786 58.4014 37.6013C58.464 37.2066 58.5334 36.7586 58.748 36.328C59.1534 35.5173 59.888 35.0906 60.536 34.7133C60.7894 34.5666 61.028 34.4266 61.2334 34.2746C61.828 33.8333 62.2387 33.1093 62.36 32.288C62.4814 31.4666 62.2974 30.6546 61.856 30.0613C61.7 29.852 61.508 29.6493 61.304 29.436C61.0174 29.1346 60.72 28.8226 60.4707 28.436C60.0107 27.7266 59.832 26.956 59.66 26.2106C59.5787 25.8613 59.5027 25.532 59.4 25.2213C58.96 23.8866 57.9214 22.6426 56.4747 21.72C55.02 20.7906 53.344 20.2666 51.896 19.8746C49.1174 19.1226 47.3814 19.2866 46.092 20.424C45.76 20.716 45.2547 20.684 44.9627 20.352C44.6707 20.02 44.7027 19.5146 45.0347 19.2226C47.2374 17.2826 50.0814 17.7266 52.3134 18.3293C53.8774 18.752 55.6974 19.3253 57.3347 20.3706C59.0907 21.492 60.364 23.036 60.9187 24.72C61.044 25.1 61.132 25.4813 61.2174 25.8506C61.3654 26.4893 61.5054 27.0933 61.812 27.5666C61.9814 27.828 62.2147 28.0733 62.4614 28.3333C62.688 28.572 62.924 28.8186 63.1374 29.1066C63.8307 30.0386 64.124 31.2826 63.9414 32.5213C63.7587 33.76 63.1187 34.868 62.1854 35.56C61.9094 35.7653 61.62 35.9333 61.34 36.096C60.82 36.3986 60.3694 36.6613 60.1787 37.0426C60.0747 37.2506 60.0294 37.5413 59.98 37.8493C59.8987 38.3693 59.8054 38.96 59.4 39.48C58.8894 40.1333 58.1494 40.3493 57.496 40.54C57.0014 40.684 56.5747 40.8093 56.4107 41.0666C56.372 41.128 56.3307 41.224 56.288 41.3266C56.204 41.5266 56.0987 41.7746 55.9067 42.0066C55.636 42.332 55.2067 42.5306 54.788 42.5306Z" fill="black"/>
<path d="M50.0547 37.6C49.6667 37.6 49.3254 37.3173 49.2654 36.9213C49.216 36.6026 48.864 36.276 48.188 35.924L48.0827 35.8693C47.3814 35.5053 46.508 35.052 46.1027 34.1426C45.7014 33.244 45.9347 32.3426 46.14 31.5466C46.3 30.9253 46.4387 30.3893 46.264 30.0013C46.136 29.7173 45.78 29.4773 45.3374 29.3746C44.8587 29.264 44.3174 29.312 43.744 29.3626L43.704 29.3666C43.2627 29.4066 42.876 29.0813 42.836 28.6413C42.7974 28.2013 43.1214 27.8133 43.5614 27.7733L43.6014 27.7693C44.2427 27.712 44.9707 27.6466 45.6974 27.816C46.644 28.0346 47.3814 28.5906 47.72 29.3413C48.128 30.2426 47.8947 31.148 47.688 31.9466C47.5347 32.5413 47.3894 33.1026 47.5627 33.4906C47.7414 33.8893 48.2894 34.1746 48.8187 34.4493L48.9267 34.5053C49.6667 34.8906 50.6694 35.536 50.844 36.6786C50.9107 37.116 50.612 37.524 50.1747 37.5906C50.136 37.5973 50.096 37.6 50.0547 37.6Z" fill="black"/>
<path d="M45.2787 52.3185C44.8681 52.3185 44.5174 52.0039 44.4827 51.5852C44.3134 49.5772 44.7041 48.6585 45.5334 46.9305C45.8374 46.2999 46.4121 46.1612 46.7561 46.0785C46.8307 46.0599 46.9014 46.0439 46.9627 46.0239C47.2801 45.9239 47.5934 45.8092 47.8961 45.6812C48.5081 45.4279 49.0827 45.1012 49.6107 44.7092C50.6747 43.9052 51.4161 42.8239 51.6907 41.6665C51.8321 41.0839 52.0241 39.6679 50.7747 39.0372C50.2294 38.7612 49.6947 38.6532 48.2294 39.9412C47.8974 40.2332 47.3921 40.1999 47.1001 39.8679C46.8081 39.5359 46.8414 39.0305 47.1734 38.7385C49.2774 36.8892 50.4934 37.1025 51.4947 37.6079C53.0467 38.3919 53.7174 40.0892 53.2454 42.0385C52.8854 43.5532 51.9347 44.9572 50.5694 45.9879C49.9321 46.4612 49.2414 46.8532 48.5134 47.1545C48.1681 47.2999 47.8067 47.4332 47.4427 47.5465C47.3321 47.5812 47.2254 47.6079 47.1321 47.6305C47.0734 47.6452 46.9974 47.6625 46.9481 47.6785C46.1814 49.2785 45.9441 49.8799 46.0774 51.4479C46.1147 51.8879 45.7881 52.2745 45.3481 52.3119C45.3241 52.3172 45.3014 52.3185 45.2787 52.3185Z" fill="black"/>
<path d="M35.8855 53.4987C35.4602 53.4987 35.1068 53.1641 35.0868 52.7347C35.0442 51.7961 35.0348 51.3241 35.0615 50.6801C33.4588 50.9894 31.8268 50.7054 30.5682 50.4854C28.5348 50.1267 26.9548 49.4027 25.7375 48.2707C23.5002 46.1867 22.4562 42.8081 22.8722 38.9987C23.0282 37.5867 23.6095 35.4854 24.4295 33.3774C24.5895 32.9654 25.0535 32.7614 25.4655 32.9214C25.8775 33.0814 26.0815 33.5454 25.9215 33.9574C25.0122 36.2961 24.5722 38.1854 24.4628 39.1734C24.1015 42.4734 24.9628 45.3627 26.8282 47.0987C27.8255 48.0267 29.1015 48.6014 30.8442 48.9081C32.6255 49.2187 34.2162 49.4281 35.6215 48.8534C35.8762 48.7494 36.1668 48.7841 36.3908 48.9441C36.6148 49.1054 36.7402 49.3694 36.7228 49.6441C36.6375 50.9854 36.6228 51.2814 36.6868 52.6574C36.7068 53.0987 36.3655 53.4734 35.9242 53.4934C35.9095 53.4987 35.8975 53.4987 35.8855 53.4987Z" fill="black"/>
<path d="M29.124 37.3467C29.6395 37.3467 30.0573 36.8393 30.0573 36.2134C30.0573 35.5874 29.6395 35.08 29.124 35.08C28.6085 35.08 28.1907 35.5874 28.1907 36.2134C28.1907 36.8393 28.6085 37.3467 29.124 37.3467Z" fill="black"/>
<path d="M33.6573 37.66C34.1728 37.66 34.5907 37.1526 34.5907 36.5266C34.5907 35.9007 34.1728 35.3933 33.6573 35.3933C33.1419 35.3933 32.724 35.9007 32.724 36.5266C32.724 37.1526 33.1419 37.66 33.6573 37.66Z" fill="black"/>
</g>
</g>
<circle cx="40" cy="40" r="38.5" stroke="black" stroke-width="3"/>
<defs>
<clipPath id="clip0_846_13250">
<rect width="80" height="192" fill="white"/>
</clipPath>
</defs>
</svg>
