<svg width="80" height="80" viewBox="0 0 80 80" fill="none" xmlns="http://www.w3.org/2000/svg">
<mask id="mask0_846_13248" style="mask-type:alpha" maskUnits="userSpaceOnUse" x="0" y="0" width="80" height="80">
<circle cx="40" cy="40" r="40" fill="white"/>
</mask>
<g mask="url(#mask0_846_13248)">
<rect width="80" height="80" fill="white"/>
<g clip-path="url(#clip0_846_13248)">
<path d="M45.2494 51C45.3694 52.3467 45.92 55.3893 47.9694 54.9333L48.1894 55.2667C48.0894 57.356 47.0307 58.8293 45.372 60.356C43.6867 61.8827 41.5374 62.8 39.2694 62.9613C37.2694 63.108 35.1427 62.6293 33.6467 61.288C32.1507 59.9467 31.364 58.088 32.3547 56.4947H32.4987C32.9494 56.508 33.364 56.272 33.7454 56.032C34.2307 55.7253 35.232 54.468 35.532 54.1067C35.932 53.588 36.0947 51.6213 36.3 51H45.2494Z" fill="white"/>
<path d="M21.076 102.881C19.7787 102.635 18.5787 102.635 17.2454 102.368C18.1787 93.0347 18.9787 84.1014 20.9787 74.6348C22.0454 69.8348 22.9787 65.4348 25.512 61.1681C25.512 61.1681 26.472 59.7947 26.8454 59.3747L27.52 58.26C27.3414 57.7387 27.5574 57.14 27.948 56.752C28.3387 56.364 28.8814 56.1587 29.4147 56.044C29.6627 55.9907 29.9374 55.9427 30.096 55.7454C30.1894 55.608 30.2467 55.448 30.264 55.2827C30.4587 54.1974 30.7454 52.8827 31.7947 52.5467C32.6507 52.272 33.5734 52.8627 34.0614 53.62C34.5494 54.3774 34.728 55.2827 35.072 56.1134C35.416 56.944 36.0054 57.7694 36.884 57.9667L38.46 58.46C41.372 57.66 43.604 55.4 45.964 53.516C46.5907 53.0174 47.2494 52.5307 48.0134 52.2907C48.7774 52.0507 49.672 52.092 50.3054 52.5827C50.9387 53.0734 51.18 54.076 50.6947 54.716C51.0587 54.5094 51.4707 54.4027 51.8894 54.4067C52.308 54.4107 52.7174 54.524 53.0774 54.7374C53.4374 54.9507 53.7347 55.2547 53.94 55.6187C54.1454 55.9827 54.2507 56.396 54.2454 56.8134L54.512 59.3734C56.576 62.5054 58.0427 65.972 59.1627 69.5854L59.5867 70.8667C61.8654 80.676 62.2747 90.7934 62.4254 100.881L62.5587 101.099C63.38 104.104 66.4467 111.704 67.1134 114.904C67.1347 115.177 67.0894 115.452 66.98 115.704C65.6467 117.304 63.38 116.904 61.6267 117.448L55.4307 118.681C46.5627 120.272 37.6627 120.661 28.7787 119.163L27.1027 118.967L21.3694 117.869C20.852 117.771 20.284 117.639 19.9814 117.203C19.7307 116.845 19.732 116.375 19.7507 115.939C19.8267 114.205 20.0267 112.485 20.2267 110.764L21.14 102.889L21.076 102.881Z" fill="white"/>
<path d="M41.2107 63.2587C41.2387 63.6827 41.5907 64.0067 42.008 64.0067C42.0267 64.0067 42.044 64.0067 42.06 64.0027C45.6267 63.7693 49.1187 62.652 52.16 60.7747C52.7881 60.3877 53.3146 59.9829 53.7386 59.5618C53.7599 59.6471 53.7957 59.7304 53.8467 59.808C55.692 62.608 57.1814 65.8827 58.4014 69.8173C58.508 70.1613 58.824 70.3813 59.1654 70.3813C59.244 70.3813 59.324 70.3693 59.4014 70.3453C59.824 70.2147 60.06 69.7667 59.9294 69.344C58.664 65.2627 57.112 61.856 55.1827 58.928C55.0323 58.6992 54.7847 58.5732 54.5302 58.5682C54.8634 58.0113 55.035 57.4303 55.0427 56.828C55.0494 56.2694 54.908 55.7174 54.6347 55.2307C54.3614 54.744 53.9627 54.336 53.4814 54.052C53.0014 53.768 52.452 53.616 51.8934 53.6107C51.84 53.6107 51.788 53.6107 51.7347 53.6134C51.6574 52.9867 51.3334 52.3734 50.792 51.9547C50.004 51.344 48.8734 51.1854 47.7707 51.532C46.8627 51.8174 46.104 52.384 45.4627 52.8947C44.7593 53.4558 44.1704 54.0066 43.6009 54.5392L43.5787 54.56C42.23 55.822 41.1647 56.8189 39.292 57.3334C38.8654 57.4507 38.6147 57.8907 38.732 58.3174C38.8494 58.744 39.2907 58.9947 39.716 58.8774C41.9707 58.2587 43.284 57.0294 44.6734 55.728L44.695 55.7078C45.2416 55.1967 45.8074 54.6678 46.46 54.1467C47.012 53.708 47.604 53.2614 48.2507 53.0587C48.8454 52.872 49.444 52.9334 49.8134 53.22C50.1294 53.4654 50.2507 53.9787 50.0547 54.2374C49.8254 54.54 49.84 54.9627 50.0907 55.248C50.3414 55.5334 50.7574 55.604 51.088 55.4174C51.3254 55.2827 51.5947 55.212 51.8667 55.212H51.88C52.1574 55.2134 52.4307 55.2894 52.6694 55.4307C52.908 55.572 53.1054 55.7734 53.2414 56.016C53.3774 56.2587 53.448 56.532 53.444 56.8094C53.4334 57.6774 52.7187 58.5534 51.3214 59.4147C48.5014 61.156 45.2627 62.1907 41.956 62.408C41.516 62.4373 41.1814 62.8173 41.2107 63.2587Z" fill="black"/>
<path fill-rule="evenodd" clip-rule="evenodd" d="M26.072 119.576C26.0227 119.576 25.972 119.571 25.9214 119.561L21.2227 118.661C20.6974 118.556 19.832 118.381 19.3307 117.669C19.1862 117.463 19.0939 117.246 19.0361 117.026C18.4466 116.924 17.8831 116.699 17.3814 116.364C16.7134 115.919 16.184 115.297 15.852 114.567C15.7974 114.447 15.7734 114.316 15.7814 114.185C15.794 113.976 15.8102 113.761 15.8266 113.544L15.8294 113.508C15.968 111.635 16.1107 109.697 14.8147 108.4C14.712 108.297 14.64 108.169 14.604 108.028C14.2891 106.768 14.9831 105.561 16.3413 104.961C16.4018 104.312 16.4933 103.626 16.7099 102.959C16.5288 102.793 16.4271 102.548 16.4533 102.288C16.5113 101.71 16.5685 101.133 16.6254 100.558L16.6663 100.144C17.529 91.458 18.344 83.2515 20.2 74.468L20.2867 74.0773C21.32 69.42 22.2973 65.0213 24.828 60.7573C24.8387 60.74 24.8493 60.724 24.86 60.708L24.8746 60.6872C25.0278 60.4693 25.8734 59.2661 26.252 58.8413C26.3941 58.6811 26.5863 58.5916 26.7841 58.5755C26.7772 58.5572 26.7705 58.5387 26.764 58.52C26.496 57.74 26.74 56.824 27.3854 56.184C27.8374 55.736 28.4454 55.4347 29.248 55.2613L29.2947 55.2506C29.3467 55.24 29.416 55.2253 29.468 55.2106C29.468 55.2086 29.4687 55.2053 29.4687 55.2053C29.4687 55.2053 29.4694 55.202 29.4694 55.2C29.472 55.1786 29.4747 55.1587 29.4787 55.1387L29.4794 55.135C29.6741 54.0666 29.9991 52.2834 31.552 51.784C32.4774 51.488 33.868 51.804 34.7414 53.1933C34.8357 53.3434 34.9195 53.4958 34.9954 53.6496C35.1532 53.3059 35.5391 53.1124 35.9187 53.2093C36.3467 53.3174 36.6067 53.7534 36.4973 54.1813C36.3768 54.6602 36.1838 54.9804 35.6839 55.4698C35.7255 55.584 35.7682 55.6957 35.8134 55.8053C36.0014 56.2573 36.4134 57.0386 37.0614 57.1853C37.492 57.2827 37.7627 57.7107 37.6667 58.1413C37.5694 58.572 37.1414 58.8427 36.7107 58.7466C35.708 58.5213 34.864 57.6947 34.3347 56.42C34.2041 56.1053 34.096 55.7893 33.9934 55.4827L33.9884 55.4679C33.8116 54.948 33.6443 54.4561 33.3854 54.0453C33.0854 53.568 32.5 53.1613 32.04 53.308C31.456 53.496 31.2254 54.4813 31.0574 55.3987C31.0227 55.6827 30.92 55.956 30.76 56.1933C30.748 56.2107 30.7347 56.228 30.7214 56.2453C30.3944 56.652 29.9363 56.75 29.631 56.8154L29.628 56.816L29.5854 56.8253C29.0987 56.9306 28.7387 57.096 28.5134 57.3187C28.3147 57.516 28.2134 57.8093 28.2787 58C28.34 58.1787 28.5427 58.3707 28.732 58.5333C30.4494 60.0373 32.5387 61.044 34.7787 61.4466C35.2134 61.5253 35.5027 61.9413 35.424 62.376C35.352 62.7626 35.0147 63.0346 34.636 63.0346C34.5894 63.0346 34.5414 63.0306 34.4934 63.0213C31.9681 62.5666 29.612 61.432 27.6814 59.7413C27.6527 59.7166 27.6238 59.6913 27.5947 59.6654C27.561 59.7512 27.5117 59.8326 27.4467 59.9053C27.172 60.2133 26.4613 61.2106 26.188 61.6C23.7987 65.636 22.8507 69.904 21.848 74.424L21.7627 74.8066C19.9245 83.5057 19.1138 91.6783 18.2554 100.332L18.2547 100.339C18.2093 100.792 18.164 101.247 18.1187 101.703C18.5173 101.759 18.912 101.8 19.3213 101.841L19.3429 101.843C19.7027 101.88 20.0695 101.918 20.4448 101.968L21.0553 96.7051C22.1525 87.3132 23.2871 77.6017 25.4947 68.232C25.596 67.8027 26.0267 67.5347 26.4574 67.6373C26.8867 67.7387 27.1534 68.1693 27.052 68.6C24.8651 77.8831 23.7359 87.5506 22.6437 96.9009L21.0232 110.872C20.8288 112.549 20.6279 114.281 20.552 115.983C20.5427 116.195 20.5254 116.592 20.6387 116.752C20.772 116.941 21.2467 117.037 21.5294 117.093L26.22 117.991C26.6534 118.073 26.9387 118.493 26.8547 118.927C26.784 119.309 26.4494 119.576 26.072 119.576ZM16.1307 107.463C16.1066 106.854 16.79 106.509 17.0565 106.397C17.9766 106.662 18.9209 106.825 19.8749 106.883L19.4291 110.727C19.2537 112.243 19.0729 113.805 18.9823 115.37C18.7312 115.294 18.4915 115.181 18.2707 115.033C17.904 114.788 17.6027 114.459 17.3934 114.072C17.3993 113.978 17.4063 113.884 17.4133 113.789C17.4174 113.735 17.4215 113.68 17.4254 113.625L17.4255 113.623C17.5695 111.672 17.7474 109.259 16.1307 107.463ZM20.2604 103.558L20.0595 105.291C19.3471 105.253 18.6397 105.148 17.9467 104.979C18.0034 104.41 18.0886 103.847 18.2716 103.337C18.573 103.374 18.8682 103.404 19.1587 103.433L19.2202 103.44C19.574 103.476 19.9173 103.512 20.2604 103.558Z" fill="black"/>
<path fill-rule="evenodd" clip-rule="evenodd" d="M28.6453 119.949C32.4213 120.587 36.2773 120.905 40.2627 120.905C45.0913 120.905 50.109 120.436 55.3918 119.498C56.1087 120.05 56.9522 120.341 57.8814 120.341C57.9814 120.341 58.084 120.339 58.1867 120.331C59.6004 120.238 60.8294 119.47 61.6529 118.245C61.7227 118.242 61.7933 118.231 61.864 118.211C62.3613 118.056 62.932 117.984 63.5347 117.909C64.92 117.737 66.4893 117.541 67.5947 116.215C67.644 116.156 67.684 116.091 67.7147 116.02C67.8733 115.651 67.9413 115.243 67.9107 114.841C67.908 114.807 67.9027 114.773 67.896 114.74C67.4987 112.834 66.3297 109.565 65.1993 106.404L65.1987 106.403C64.4107 104.203 63.668 102.124 63.3293 100.887C63.3065 100.803 63.2712 100.726 63.2259 100.657C63.0944 91.0163 62.7409 81.7386 60.472 71.9586C60.372 71.528 59.9427 71.26 59.512 71.36C59.0814 71.46 58.8134 71.8893 58.9134 72.32C61.4451 83.2362 61.5547 93.5926 61.6707 104.557V104.56L61.6734 104.763L51.5787 104.597C50.0787 92.8773 49.5614 80.956 50.04 69.152C50.0587 68.7106 49.7147 68.3373 49.2734 68.32C48.832 68.304 48.4587 68.6453 48.4414 69.0866C47.9494 81.2106 48.5014 93.4586 50.0814 105.489C50.1223 105.799 50.3365 106.048 50.6189 106.144C50.5062 106.963 50.4768 107.792 50.532 108.619C50.532 108.768 50.5573 108.915 50.6093 109.055C50.6693 109.215 50.7587 109.359 50.876 109.481C50.8871 109.493 50.8987 109.504 50.9105 109.515C50.4272 109.881 50.027 110.348 49.8507 110.911C49.6987 111.397 49.652 112.155 50.292 112.995C50.884 113.773 51.7014 114.241 52.4227 114.653C52.5654 114.735 52.7067 114.816 52.848 114.9C53.0453 115.017 53.261 115.802 53.3554 116.146L53.3574 116.153C53.4227 116.393 53.4854 116.62 53.5587 116.823C53.7279 117.287 53.9287 117.71 54.1581 118.088C45.0747 119.611 36.8046 119.704 28.9107 118.372C28.4747 118.297 28.0627 118.592 27.9893 119.028C27.916 119.463 28.2093 119.876 28.6453 119.949ZM53.3838 109.785C53.3041 110.013 53.1219 110.203 52.8734 110.283C52.132 110.523 51.5027 110.988 51.3774 111.389C51.3534 111.465 51.2907 111.667 51.564 112.025C51.9598 112.545 52.57 112.894 53.215 113.263L53.216 113.264L53.325 113.326C53.4391 113.392 53.5532 113.457 53.6654 113.524C54.4175 113.97 54.6845 114.944 54.899 115.726L54.9 115.729C54.956 115.936 55.0107 116.132 55.0614 116.273C55.4934 117.459 56.3654 118.844 58.08 118.733C59.2067 118.659 60.5667 117.812 61.0134 115.659C61.3557 114.003 61.0461 112.221 60.7464 110.496L60.7297 110.4C60.6989 110.223 60.6683 110.046 60.6387 109.869C60.6328 109.834 60.6292 109.799 60.628 109.764L53.3838 109.785ZM62.0166 109.195C62.1178 109.306 62.1894 109.445 62.216 109.604C62.2507 109.808 62.2854 110.012 62.3214 110.217L62.3225 110.224C62.6475 112.095 62.9836 114.03 62.58 115.984C62.548 116.139 62.5113 116.291 62.4702 116.439C62.7595 116.393 63.0493 116.357 63.3347 116.321C64.5347 116.172 65.5787 116.041 66.28 115.285C66.3067 115.196 66.3187 115.101 66.316 115.008C65.9286 113.2 64.7437 109.886 63.6956 106.955L63.6536 106.838L63.6519 106.833C63.5206 106.466 63.3905 106.102 63.2634 105.745C63.2311 105.894 63.1559 106.033 63.0454 106.143C62.8974 106.292 62.6934 106.376 62.4827 106.376H62.4694L62.2007 106.372L62.2667 108.061C62.2735 108.269 62.289 108.78 62.0166 109.195ZM60.5986 106.345L52.2262 106.208C52.1261 106.864 52.088 107.528 52.112 108.192L60.6693 108.168C60.6693 108.159 60.6693 108.149 60.669 108.138C60.6688 108.132 60.6685 108.126 60.668 108.12L60.5986 106.345Z" fill="black"/>
<path d="M47.2653 39.4427C46.2667 39.3694 45.6987 38.196 45.76 37.1987C45.8213 36.2014 46.2933 35.2707 46.4413 34.2814C46.7813 32.0614 45.2693 29.7054 43.108 29.0907C42.5173 28.9227 41.884 28.868 41.3467 28.5707C40.8987 28.3214 40.5253 27.904 40.0227 27.816C39.096 27.6454 38.3333 28.616 37.396 28.72C36.152 28.8534 35.1907 27.428 33.9387 27.4307C32.6453 27.4307 31.7507 28.94 30.46 29.0014C29.5947 29.0427 28.8213 28.4134 27.956 28.3707C26.8373 28.3174 25.908 29.2547 25.4013 30.2534C24.8947 31.252 24.644 32.38 24.02 33.3107C23.4493 34.1614 22.2573 34.8174 21.4253 34.22C20.8507 33.8094 20.74 33.004 20.7813 32.3C20.8653 30.856 21.3653 29.4667 22.22 28.3C22.4867 27.9454 22.7827 27.596 22.8787 27.1667C23.012 26.5347 22.6867 25.9067 22.5587 25.272C22.2773 23.872 23.144 22.3307 24.4867 21.8427C25.1213 21.6134 25.8307 21.596 26.4253 21.2774C27.02 20.9587 27.4413 20.3547 27.8547 19.8027C30.0427 16.88 33.548 14.488 37.14 15.136C39.344 15.536 41.2733 17.02 44.0147 17.536C45.9227 16.1187 48.8627 16.336 50.532 18.0334C52.688 20.2147 52.604 24.0814 55.0653 25.916C55.4573 26.2094 55.9133 26.4494 56.1813 26.8574C56.7507 27.724 56.2373 28.9014 56.4813 29.9107C56.6947 30.7867 57.4387 31.4107 57.992 32.1227C58.5453 32.8347 58.9 33.9134 58.3093 34.5947C58.052 34.8907 57.6693 35.0414 57.3667 35.2894C56.6227 35.8974 56.4747 36.98 56.5667 37.936C56.6587 38.892 56.9893 40.1067 56.8 40.8C56.0387 43.6174 54.2773 42.8987 53.4413 43.3334" fill="black"/>
<path d="M25.3332 33.4667C24.5332 34.6667 24.3999 36.1333 23.9999 37.6C23.9999 38.0213 22.3785 43.712 26.1332 47.4667C27.4665 48.8 29.1999 49.3333 30.9999 49.7333C32.6145 49.9827 34.3785 50.2333 35.9332 49.6C35.8439 50.988 35.8305 51.9787 35.8945 53.368L45.2665 52.4C45.1132 50.576 45.4772 48.9347 46.2705 47.284C46.4492 46.9107 46.8372 46.9147 47.2199 46.7933C47.5585 46.6867 47.8946 46.564 48.2226 46.4253C48.8906 46.148 49.5212 45.7893 50.1025 45.3587C51.2519 44.4907 52.1466 43.272 52.4839 41.8587C52.7892 40.5773 52.5745 39.052 51.1439 38.3307C50.1412 37.824 49.2412 38.004 47.7119 39.348L47.2612 39.444C46.2625 39.3707 45.6946 38.1973 45.7559 37.2C45.8172 36.2027 46.2892 35.272 46.4372 34.2827C46.7772 32.0627 45.2652 29.7067 43.1039 29.092C42.5132 28.924 41.8799 28.8693 41.3425 28.572C40.8945 28.3227 40.5212 27.9053 40.0186 27.8173C39.0919 27.6467 38.3292 28.6173 37.3919 28.7213C36.1479 28.8547 35.1865 27.4293 33.9345 27.432C32.6412 27.432 31.7465 28.9413 30.4559 29.0027C29.5905 29.044 28.8172 28.4147 27.9519 28.372C26.8332 28.3187 25.9039 29.256 25.3972 30.2547C24.8905 31.2533 24.6399 32.3813 24.0159 33.312" fill="white"/>
<path d="M53.4414 44.1333C53.152 44.1333 52.8734 43.976 52.7307 43.7026C52.5267 43.3106 52.68 42.828 53.072 42.624C53.4134 42.4466 53.7814 42.3986 54.1374 42.3533C54.956 42.248 55.6027 42.1653 56.028 40.5906C56.1134 40.2773 56 39.572 55.9094 39.0066C55.856 38.676 55.8014 38.3346 55.7707 38.0133C55.6294 36.548 56.016 35.36 56.8614 34.6706C57.02 34.54 57.184 34.4373 57.3294 34.348C57.484 34.2506 57.6307 34.16 57.7067 34.0706C57.9654 33.772 57.7347 33.0946 57.3614 32.6146C57.2307 32.4466 57.084 32.2786 56.9294 32.1013C56.4507 31.556 55.9094 30.9373 55.7054 30.1C55.576 29.564 55.6094 29.0306 55.64 28.5586C55.6734 28.0346 55.7014 27.5826 55.5147 27.2973C55.3987 27.1213 55.1627 26.9586 54.912 26.7866C54.8027 26.712 54.6934 26.636 54.588 26.5573C53.084 25.436 52.4414 23.728 51.82 22.076C51.32 20.7453 50.8467 19.4893 49.9654 18.596C48.584 17.192 46.0787 17.0013 44.4947 18.1786C44.316 18.312 44.0894 18.364 43.8694 18.3226C42.3427 18.0346 41.0427 17.4613 39.8974 16.9546C38.8987 16.5133 37.956 16.0973 37 15.9226C34.7707 15.52 31.364 16.4533 28.4974 20.2813L28.4067 20.4026C27.988 20.9653 27.5134 21.6013 26.8054 21.9813C26.356 22.2226 25.8827 22.324 25.464 22.412C25.2107 22.4666 24.9707 22.5173 24.76 22.5933C23.7894 22.9453 23.1414 24.1 23.344 25.1133C23.376 25.2693 23.4254 25.4386 23.4787 25.6173C23.628 26.1213 23.7974 26.6906 23.6627 27.3306C23.5374 27.892 23.2254 28.3013 22.9494 28.6626L22.8614 28.7786C22.1014 29.816 21.6574 31.0506 21.5814 32.344C21.5454 32.9546 21.6587 33.4 21.892 33.5666C21.96 33.616 22.0734 33.6746 22.288 33.636C22.6574 33.5693 23.0974 33.252 23.3574 32.8626C23.6787 32.384 23.8947 31.8186 24.124 31.22C24.292 30.7826 24.4654 30.3306 24.6894 29.8893C25.2827 28.72 26.464 27.496 27.996 27.5693C28.5307 27.596 29.004 27.7786 29.42 27.9386C29.8027 28.0866 30.1307 28.2146 30.424 28.2C30.8254 28.1813 31.2547 27.8786 31.7107 27.5573C32.3294 27.1213 33.0294 26.628 33.9414 26.628H33.9467C34.772 26.628 35.44 27.0386 36.0294 27.4013C36.5174 27.7013 36.9387 27.9613 37.3134 27.9213C37.56 27.8933 37.8547 27.728 38.168 27.552C38.7014 27.252 39.3654 26.8786 40.1707 27.0266C40.676 27.1146 41.064 27.3973 41.376 27.624C41.5054 27.7173 41.6267 27.8066 41.7387 27.8693C42.0014 28.0146 42.3454 28.0893 42.7107 28.1693C42.9107 28.2133 43.1187 28.2586 43.3294 28.3186C45.8854 29.0453 47.6374 31.7733 47.2347 34.4C47.1614 34.892 47.0214 35.3533 46.8867 35.8C46.7334 36.3053 46.5894 36.7826 46.5614 37.2453C46.524 37.8626 46.8494 38.6066 47.3267 38.6426C47.7667 38.6746 48.0987 39.0586 48.0654 39.4986C48.0334 39.9386 47.6494 40.2706 47.2094 40.2373C45.712 40.128 44.8774 38.548 44.964 37.1466C45.004 36.4973 45.1827 35.9066 45.3547 35.336C45.4787 34.9266 45.5947 34.54 45.652 34.16C45.932 32.332 44.668 30.3626 42.8907 29.8573C42.7267 29.8106 42.552 29.772 42.368 29.732C41.928 29.636 41.4307 29.5266 40.9614 29.268C40.7627 29.1573 40.588 29.0306 40.4334 28.9186C40.228 28.7693 40.0334 28.628 39.8867 28.6026C39.6454 28.5586 39.324 28.7386 38.952 28.948C38.5334 29.184 38.06 29.4506 37.4854 29.5133C36.5654 29.612 35.8347 29.1626 35.1894 28.7653C34.7414 28.4893 34.3174 28.2293 33.9427 28.2293H33.9414C33.5347 28.2293 33.116 28.524 32.6307 28.8666C32.0374 29.284 31.3654 29.7586 30.4987 29.7986C29.8707 29.8293 29.324 29.6173 28.8427 29.432C28.5094 29.3026 28.1934 29.1813 27.9174 29.168C27.148 29.1306 26.4654 29.924 26.116 30.6133C25.9294 30.9813 25.7787 31.3746 25.6187 31.7933C25.368 32.448 25.108 33.1253 24.6867 33.7546C24.18 34.5093 23.3707 35.0666 22.572 35.2106C21.9787 35.3173 21.4214 35.1986 20.96 34.868C20.4667 34.5146 19.8947 33.7733 19.984 32.2506C20.0774 30.6493 20.628 29.1186 21.576 27.8253L21.6774 27.692C21.8707 27.4386 22.0534 27.2 22.1 26.9893C22.1494 26.756 22.0547 26.4386 21.9454 26.0706C21.884 25.8653 21.8214 25.6546 21.776 25.4266C21.42 23.652 22.5134 21.7053 24.2147 21.0866C24.5294 20.9733 24.8347 20.908 25.1294 20.8453C25.4734 20.772 25.7987 20.7026 26.0494 20.568C26.4427 20.3573 26.788 19.8933 27.1227 19.444L27.216 19.3186C29.3814 16.4266 33.1627 13.6013 37.284 14.344C38.428 14.552 39.4547 15.0053 40.5427 15.4866C41.572 15.9413 42.6334 16.4106 43.844 16.68C46.068 15.26 49.248 15.5813 51.104 17.468C52.224 18.6013 52.78 20.0786 53.3174 21.508C53.8827 23.0106 54.416 24.4293 55.5454 25.2706C55.6347 25.3373 55.7267 25.4 55.8187 25.464C56.168 25.704 56.564 25.976 56.852 26.4146C57.3334 27.1466 57.2827 27.9493 57.2374 28.656C57.212 29.0493 57.1894 29.42 57.2614 29.7186C57.372 30.1733 57.7414 30.5946 58.1334 31.0426C58.2974 31.2293 58.4654 31.4226 58.6254 31.628C59.4054 32.6306 59.7974 34.0986 58.916 35.1146C58.6814 35.384 58.4147 35.5506 58.1787 35.6986C58.064 35.7706 57.956 35.8373 57.876 35.904C57.292 36.3813 57.324 37.428 57.3654 37.8546C57.392 38.1266 57.44 38.4293 57.4907 38.748C57.6174 39.5413 57.7494 40.3613 57.5734 41.0053C56.8694 43.612 55.2867 43.8133 54.3414 43.9346C54.1347 43.9613 53.9 43.9906 53.8107 44.0373C53.692 44.104 53.5667 44.1333 53.4414 44.1333Z" fill="black"/>
<path d="M45.2787 52.3185C44.868 52.3185 44.5174 52.0025 44.4827 51.5852C44.3134 49.5772 44.704 48.6572 45.5334 46.9305C45.8374 46.2999 46.412 46.1612 46.756 46.0785C46.8307 46.0599 46.9014 46.0439 46.9627 46.0239C47.28 45.9239 47.5934 45.8092 47.896 45.6812C48.508 45.4279 49.0827 45.1012 49.6107 44.7092C50.6747 43.9052 51.416 42.8225 51.6907 41.6665C51.832 41.0839 52.024 39.6679 50.7747 39.0372C50.2294 38.7612 49.6947 38.6532 48.2294 39.9412C47.8974 40.2332 47.392 40.1999 47.1 39.8679C46.808 39.5359 46.8414 39.0305 47.1734 38.7385C49.2774 36.8892 50.4947 37.1025 51.4947 37.6079C53.0467 38.3919 53.7174 40.0892 53.2454 42.0385C52.8854 43.5532 51.9347 44.9572 50.5694 45.9879C49.932 46.4612 49.2414 46.8532 48.5134 47.1545C48.168 47.2999 47.8067 47.4332 47.4427 47.5465C47.332 47.5812 47.2254 47.6079 47.132 47.6305C47.0734 47.6452 46.9974 47.6625 46.948 47.6785C46.1814 49.2785 45.944 49.8799 46.0774 51.4479C46.1147 51.8879 45.788 52.2759 45.348 52.3119C45.324 52.3172 45.3014 52.3185 45.2787 52.3185Z" fill="black"/>
<path d="M35.884 53.4987C35.4587 53.4987 35.1054 53.1641 35.0854 52.7347C35.0427 51.7961 35.0334 51.3241 35.06 50.6801C33.4574 50.9894 31.8254 50.7054 30.5667 50.4854C28.5334 50.1267 26.9534 49.4027 25.736 48.2707C23.4987 46.1867 22.4547 42.8081 22.8707 38.9987C23.0267 37.5867 23.608 35.4854 24.428 33.3774C24.588 32.9654 25.052 32.7614 25.464 32.9214C25.876 33.0814 26.08 33.5454 25.92 33.9574C25.0107 36.2961 24.5707 38.1854 24.4614 39.1734C24.1 42.4734 24.9614 45.3627 26.8267 47.0987C27.824 48.0267 29.1 48.6014 30.8427 48.9081C32.624 49.2187 34.2134 49.4281 35.62 48.8534C35.8747 48.7494 36.1654 48.7841 36.3894 48.9441C36.6134 49.1041 36.7387 49.3694 36.7214 49.6441C36.636 50.9854 36.6214 51.2814 36.6854 52.6574C36.7054 53.0987 36.364 53.4734 35.9227 53.4934C35.9094 53.4987 35.8974 53.4987 35.884 53.4987Z" fill="black"/>
<path d="M29.124 37.3467C29.6395 37.3467 30.0573 36.8393 30.0573 36.2134C30.0573 35.5874 29.6395 35.08 29.124 35.08C28.6085 35.08 28.1907 35.5874 28.1907 36.2134C28.1907 36.8393 28.6085 37.3467 29.124 37.3467Z" fill="black"/>
<path d="M33.6573 37.66C34.1728 37.66 34.5907 37.1526 34.5907 36.5266C34.5907 35.9007 34.1728 35.3933 33.6573 35.3933C33.1419 35.3933 32.724 35.9007 32.724 36.5266C32.724 37.1526 33.1419 37.66 33.6573 37.66Z" fill="black"/>
</g>
</g>
<circle cx="40" cy="40" r="38.5" stroke="black" stroke-width="3"/>
<defs>
<clipPath id="clip0_846_13248">
<rect width="80" height="192" fill="white"/>
</clipPath>
</defs>
</svg>
