<svg width="80" height="80" viewBox="0 0 80 80" fill="none" xmlns="http://www.w3.org/2000/svg">
<mask id="mask0_846_13246" style="mask-type:alpha" maskUnits="userSpaceOnUse" x="0" y="0" width="80" height="80">
<circle cx="40" cy="40" r="40" fill="white"/>
</mask>
<g mask="url(#mask0_846_13246)">
<rect width="80" height="80" fill="white"/>
<g clip-path="url(#clip0_846_13246)">
<path d="M45.2493 51C45.3693 52.3467 45.92 55.3893 47.9693 54.9333L48.1893 55.2667C48.0893 57.356 47.0306 58.8293 45.372 60.356C43.6866 61.8827 41.5373 62.8 39.2693 62.9613C37.2693 63.108 35.1426 62.6293 33.6466 61.288C32.1506 59.9467 31.364 58.088 32.3546 56.4947H32.4986C32.9493 56.508 33.364 56.272 33.7453 56.032C34.2306 55.7253 34.644 54.348 34.944 53.9867C35.344 53.468 36.0933 51.6213 36.2986 51H45.2493Z" fill="white"/>
<path d="M58.9773 88.1813C61.9307 97.3253 63.9853 104.339 66.684 113.164C66.8173 113.615 67.3507 115.208 67.104 115.607C66.9387 115.873 66.6613 116.044 66.3907 116.197C64.9107 117.039 63.2947 117.109 61.6253 117.445L55.4293 118.679C46.5613 120.269 37.6613 120.659 28.7773 119.16L27.1013 118.964L21.368 117.867C20.8507 117.768 20.2827 117.636 19.98 117.2C19.7294 116.843 19.7307 116.372 19.7493 115.936C19.8253 114.203 20.0253 112.483 20.2253 110.761L21.8027 97.1613C22.4787 91.3347 23.156 85.4987 24.0773 79.708L24.0133 79.688C22.4627 79.1547 20.936 78.5626 19.408 77.9692C19.1973 77.9092 19.008 77.792 18.8587 77.632C18.5587 77.2453 18.816 76.6907 19.0733 76.2733C21.3453 72.58 23.288 68.6947 24.8813 64.6613C26.0973 61.5813 27.3667 58.116 30.3347 56.648L36.5373 57.356L48.208 54.2C50.2493 54.7466 51.924 56.2106 53.2987 57.8173C55.036 59.848 56.4133 62.1613 57.3733 64.656C59.4973 70.18 59.4987 76.4067 62.06 81.7427C60.8453 82.1027 59.612 82.3919 58.3653 82.6119L58.9773 88.1813Z" fill="white"/>
<path d="M36.2067 58.132C36.3067 59.504 36.6813 60.8414 37.3067 62.0667C37.36 62.1947 37.4467 62.3054 37.5573 62.388C37.7533 62.508 38.008 62.4347 38.224 62.356C40.1747 61.648 42.0627 60.776 43.8667 59.7507C44.7867 59.228 45.7173 58.6334 46.2667 57.7307C46.7867 56.8787 46.9107 55.852 47.0227 54.8614L47.2613 52.7454C47.284 52.6374 47.2733 52.5254 47.2293 52.4254C47.112 52.2227 46.8093 52.2694 46.588 52.344C43.0133 53.5587 39.5773 55.1907 36.2067 58.132Z" fill="white"/>
<path d="M35.0667 53.12C34.6787 53.8293 34.2787 54.5946 34.348 55.4C34.4174 56.2053 35.1787 57 35.9587 56.7893C36.004 57.7453 35.3294 58.5653 34.6947 59.2813L33.044 61.148C32.9827 61.2307 32.9 61.2947 32.804 61.332C32.5747 61.3973 32.3827 61.1547 32.2707 60.9426C31.572 59.624 31.0547 58.2173 30.7334 56.76C30.66 56.5573 30.652 56.3373 30.708 56.1293C30.7654 55.9213 30.884 55.736 31.0507 55.5986C31.8987 54.6333 32.8854 53.7973 33.8987 53.0066C34.1454 52.8133 34.432 52.6066 34.7414 52.6466C35.0507 52.6866 35.3 53.104 35.0667 53.12Z" fill="white"/>
<path d="M20.2307 110.767C20.0307 112.488 19.8307 114.211 19.7547 115.941L19.6547 116.287C18.6294 116.103 17.5014 115.799 16.9574 114.911C16.0734 113.468 17.2907 111.515 16.6907 109.932C16.2747 108.824 14.996 107.852 15.4294 106.751C15.7907 105.833 17.052 105.727 17.7934 105.077C18.5347 104.428 18.652 103.372 18.7334 102.411L20.7187 78.7748L20.7734 78.5081C21.848 78.9214 22.9254 79.3254 24.0147 79.6988L24.076 79.7348C23.156 85.5214 22.476 91.3521 21.8094 97.1721" fill="white"/>
<path d="M52.5173 83.932C50.904 83.932 49.2853 83.8187 47.6653 83.5907C47.2613 83.5333 46.9653 83.1827 46.9773 82.776L47.3413 70C47.3533 69.5587 47.7213 69.2067 48.164 69.2227C48.6053 69.2347 48.9533 69.604 48.9413 70.0453L48.5973 82.0987C52.756 82.5947 56.904 82.3013 60.9493 81.2253C59.7707 78.4533 59.1787 75.4813 58.604 72.5973C58.0933 70.032 57.5653 67.3813 56.628 64.9453C55.6987 62.5293 54.3747 60.3067 52.692 58.34C51.1173 56.5 49.5827 55.3987 48.0027 54.976C47.576 54.8613 47.3227 54.4227 47.4373 53.996C47.552 53.5693 47.9907 53.316 48.4173 53.4307C50.32 53.94 52.1173 55.2067 53.9093 57.3013C55.7107 59.4067 57.128 61.7867 58.1227 64.3733C59.108 66.9373 59.6507 69.6573 60.1747 72.288C60.8187 75.5187 61.4253 78.5707 62.784 81.4013C62.8853 81.6133 62.8893 81.8573 62.7933 82.072C62.6973 82.2867 62.5133 82.448 62.2893 82.5147C59.0827 83.456 55.812 83.932 52.5173 83.932Z" fill="black"/>
<path d="M24.0187 80.4973C23.932 80.4973 23.8453 80.4827 23.7587 80.4533C22.204 79.92 20.6547 79.3187 19.156 78.736L19.1533 78.7347C18.8187 78.6307 18.516 78.4413 18.2773 78.184C18.2613 78.1667 18.2467 78.1493 18.232 78.1307C17.776 77.5427 17.832 76.78 18.3973 75.8613C20.6373 72.2187 22.5707 68.3533 24.1427 64.3747L24.2813 64.0213C25.4867 60.9573 26.8533 57.4853 29.9853 55.9373C30.3813 55.7413 30.8613 55.904 31.0573 56.3C31.2533 56.696 31.0907 57.176 30.6947 57.372C28.1173 58.6453 26.924 61.676 25.7707 64.6067L25.6307 64.9613C24.0253 69.0267 22.0493 72.976 19.76 76.6987C19.608 76.9453 19.556 77.0907 19.5387 77.1653C19.568 77.1827 19.6 77.1973 19.6347 77.2067C19.6587 77.2133 19.6813 77.2213 19.704 77.2293L19.736 77.2413C21.22 77.8173 22.7547 78.4133 24.2787 78.936C24.696 79.08 24.9187 79.5347 24.776 79.952C24.6613 80.2893 24.3507 80.4973 24.0187 80.4973Z" fill="black"/>
<path d="M26.0227 119.565C25.9733 119.565 25.9227 119.56 25.872 119.551L21.2227 118.661C20.6973 118.556 19.832 118.381 19.3307 117.669C18.9387 117.111 18.9307 116.468 18.9547 115.911C19.032 114.148 19.2373 112.384 19.4347 110.679L21.0507 96.744C22.1493 87.34 23.284 77.6147 25.4947 68.232C25.596 67.8027 26.0253 67.5347 26.4573 67.6374C26.8867 67.7387 27.1533 68.1694 27.052 68.6C24.8627 77.8934 23.7333 87.572 22.64 96.932L21.024 110.865C20.8293 112.544 20.628 114.279 20.552 115.983C20.5427 116.195 20.5253 116.592 20.6387 116.752C20.772 116.941 21.2467 117.037 21.5293 117.093L26.1707 117.981C26.604 118.064 26.8893 118.484 26.8053 118.917C26.7347 119.299 26.4 119.565 26.0227 119.565Z" fill="black"/>
<path d="M19.6599 117.083C19.6132 117.083 19.5652 117.079 19.5172 117.069C18.3119 116.853 16.9852 116.477 16.2786 115.324C15.6532 114.307 15.8119 113.172 15.9519 112.172C16.0546 111.443 16.1506 110.753 15.9452 110.209C15.8346 109.912 15.6199 109.596 15.3946 109.26C14.8852 108.504 14.2519 107.564 14.6879 106.453C15.0292 105.592 15.8212 105.224 16.4559 104.928C16.7746 104.78 17.0746 104.64 17.2706 104.469C17.7572 104.045 17.8639 103.22 17.9386 102.339L19.9239 78.7026C19.9612 78.2626 20.3506 77.9359 20.7879 77.9719C21.2279 78.0092 21.5546 78.3959 21.5186 78.8359L19.5332 102.472C19.4346 103.645 19.2599 104.859 18.3212 105.675C17.9546 105.993 17.5172 106.197 17.1306 106.377C16.6746 106.589 16.2812 106.772 16.1759 107.04C16.0559 107.344 16.3026 107.744 16.7212 108.365C16.9892 108.763 17.2652 109.173 17.4426 109.645C17.7906 110.571 17.6546 111.539 17.5359 112.392C17.4186 113.232 17.3172 113.957 17.6412 114.485C18.0186 115.1 18.9426 115.34 19.7986 115.493C20.2332 115.571 20.5226 115.987 20.4452 116.421C20.3772 116.811 20.0399 117.083 19.6599 117.083Z" fill="black"/>
<path d="M37.8 63.2507C37.5907 63.2507 37.3613 63.2054 37.14 63.0694C37.12 63.0574 37.1013 63.044 37.0827 63.0307C36.864 62.8694 36.692 62.6534 36.5827 62.4054C35.912 61.0854 35.5173 59.6667 35.4093 58.1893C35.3907 57.9387 35.492 57.6933 35.6813 57.528C38.6973 54.896 41.9827 53.0627 46.332 51.5853C47.1573 51.3067 47.6947 51.6293 47.9227 52.0227C47.9373 52.0493 47.9507 52.076 47.9627 52.1027C48.068 52.344 48.0987 52.6053 48.0533 52.864L47.8187 54.9493C47.7093 55.92 47.572 57.1267 46.9507 58.1453C46.288 59.2347 45.216 59.9027 44.2627 60.444C42.424 61.4894 40.4853 62.384 38.4973 63.1054C38.3653 63.156 38.104 63.2507 37.8 63.2507ZM37.0413 58.4693C37.1667 59.56 37.4773 60.6107 37.9667 61.5987C39.864 60.9093 41.716 60.0533 43.472 59.056C44.2507 58.6133 45.12 58.0787 45.584 57.316C46.0227 56.5987 46.1267 55.6707 46.228 54.7733L46.3987 53.2573C42.6253 54.584 39.7067 56.2093 37.0413 58.4693Z" fill="black"/>
<path d="M32.792 62.1987C32.4707 62.1987 31.9934 62.0613 31.6294 61.3733C30.9 59.9973 30.36 58.528 30.0227 57.0066C29.9454 56.7226 29.9267 56.432 29.9667 56.1413C29.972 56.104 29.98 56.068 29.9894 56.032C30.0894 55.6786 30.28 55.356 30.5387 55.0973C31.432 54.12 32.42 53.2213 33.4774 52.4253C33.752 52.212 34.256 51.8213 34.9134 51.9093C35.4307 51.9786 36.1707 52.4986 36.1494 53.1586C36.1414 53.3986 36.04 53.6106 35.876 53.76C35.8374 53.8266 35.7987 53.8933 35.76 53.9613C35.472 54.46 35.1734 54.976 35.208 55.3933C35.224 55.5866 35.364 55.8053 36.2614 56.0853C36.5827 56.1853 36.8067 56.476 36.8227 56.812C36.884 58.1493 35.9294 59.228 35.3587 59.872L33.7254 61.7173C33.5787 61.904 33.384 62.0493 33.1627 62.136C33.1374 62.1453 33.112 62.1547 33.0867 62.1613C33.0267 62.176 32.9227 62.1987 32.792 62.1987ZM31.548 56.416C31.5454 56.476 31.5534 56.5346 31.5694 56.5933C31.5734 56.6093 31.5774 56.6253 31.5814 56.6413C31.8587 57.9013 32.2894 59.1213 32.864 60.2746L34.1627 58.808C34.5734 58.344 34.976 57.86 35.1454 57.3813C34.4894 57.1 33.7054 56.576 33.6174 55.5253C33.576 55.0306 33.6854 54.5773 33.8587 54.16C33.0934 54.7826 32.3734 55.4626 31.7094 56.1906C31.6987 56.2026 31.688 56.2133 31.676 56.2253C31.62 56.28 31.576 56.3453 31.548 56.416Z" fill="black"/>
<path d="M35 64.6C35.405 64.6 35.7334 64.2717 35.7334 63.8667C35.7334 63.4617 35.405 63.1333 35 63.1333C34.595 63.1333 34.2667 63.4617 34.2667 63.8667C34.2667 64.2717 34.595 64.6 35 64.6Z" fill="black"/>
<path d="M34.4667 69.6667C34.8717 69.6667 35.2 69.3383 35.2 68.9333C35.2 68.5283 34.8717 68.2 34.4667 68.2C34.0617 68.2 33.7333 68.5283 33.7333 68.9333C33.7333 69.3383 34.0617 69.6667 34.4667 69.6667Z" fill="black"/>
<path d="M46.8345 38.4987C47.7585 37.4107 47.4719 35.5267 46.2665 34.7654C45.8345 34.4907 45.2879 34.32 45.0519 33.8667C44.7852 33.3667 45.0265 32.768 45.1665 32.2214C45.1665 32.204 45.1759 32.1854 45.1812 32.168C45.5812 30.52 43.6972 29.2974 42.3252 30.2947C40.6119 31.54 38.6652 32.428 36.6012 32.9067C35.5345 33.152 34.2239 33.2 33.5652 32.328C33.1759 31.8107 33.0825 31.0294 32.0985 31.1027C31.8119 31.1267 31.5359 31.2267 31.2985 31.3907C29.5372 32.5787 27.5225 33.3347 25.4145 33.6C24.8252 33.6734 24.2145 33.7067 23.6452 33.5374C22.0105 33.0507 21.2679 30.9694 21.7612 29.3374C22.2545 27.7054 23.6479 26.4987 25.1199 25.6347C26.0319 25.1014 27.0479 24.6107 27.5972 23.7054C27.9199 23.172 28.0465 22.5373 28.3705 22.0053C28.6945 21.4733 29.2012 21.072 29.7172 20.7094C32.4972 18.7854 35.8212 17.8067 39.1999 17.9147C41.1999 17.984 43.5505 18.788 43.9825 20.7374L47.0492 22.0294C49.4092 22.392 51.8092 23.1867 53.4799 24.8934C55.1505 26.6 55.8799 29.388 54.6799 31.4534C54.5225 31.72 54.3279 32.0027 54.3359 32.3174C54.3465 32.7174 54.6812 33.032 54.9585 33.328C55.4439 33.8534 55.8132 34.4747 56.0412 35.152C56.2692 35.8294 56.3519 36.5467 56.2839 37.2587C56.2212 37.8774 56.0172 38.5174 55.5532 38.9267C55.0892 39.336 54.2985 39.42 53.8599 38.98L47.2065 40L46.8345 38.4987Z" fill="black"/>
<path d="M25.1747 33.6694C24.3147 35.8814 23.7974 37.8787 23.6667 39.088C23.3374 42.1334 23.952 45.5174 26.2814 47.6867C27.5227 48.8414 29.06 49.4094 30.704 49.6987C32.4187 50.0014 34.2587 50.2774 35.9227 49.5974C35.8347 50.9854 35.8214 51.976 35.8854 53.3654L45.2854 52.3227C45.1334 50.4974 45.472 48.932 46.2667 47.2814C46.4467 46.908 46.8334 46.912 47.216 46.7907C47.556 46.684 47.8894 46.5614 48.2187 46.4227C48.8867 46.1454 49.5174 45.7867 50.0987 45.356C51.248 44.488 52.144 43.2694 52.48 41.856C52.7854 40.5747 52.5707 39.0494 51.1467 38.328C50.1427 37.8214 49.2427 38.0014 47.7134 39.3454L46.8467 38.5027C47.7707 37.4147 47.484 35.5307 46.2787 34.7694C45.8467 34.4947 45.3 34.324 45.064 33.8707C44.7974 33.3707 45.0387 32.772 45.1787 32.2254C45.1787 32.208 45.188 32.1894 45.1934 32.172C45.5934 30.524 43.7094 29.3014 42.3374 30.2987C40.624 31.544 38.6774 32.432 36.6134 32.9107C35.5467 33.156 34.236 33.204 33.5774 32.332C33.188 31.8147 33.0947 31.0334 32.1107 31.1067C31.824 31.1307 31.548 31.2307 31.3107 31.3947C29.5454 32.5827 27.5254 33.3374 25.4147 33.6" fill="white"/>
<path d="M54.6293 40.0773C54.1293 40.0773 53.644 39.8999 53.2893 39.5452C52.9773 39.2319 52.9786 38.7252 53.2906 38.4132C53.604 38.1012 54.1106 38.1026 54.4226 38.4146C54.5226 38.5146 54.8361 38.4892 55.0201 38.3266C55.2667 38.1092 55.4307 37.7012 55.4841 37.1772C55.5414 36.5772 55.4733 35.9812 55.2786 35.4066C55.0853 34.8319 54.7786 34.316 54.3666 33.8707L54.2986 33.7986C53.9826 33.4652 53.5494 33.0092 53.5321 32.3386C53.5187 31.8252 53.76 31.4239 53.936 31.1306L53.9866 31.0466C55.048 29.2186 54.2226 26.7987 52.904 25.4533C51.5933 24.1147 49.5813 23.2292 46.924 22.8199C46.4866 22.7532 46.188 22.344 46.2546 21.908C46.3213 21.472 46.7306 21.172 47.1666 21.2387C50.1746 21.7013 52.4893 22.7426 54.048 24.3332C54.9933 25.2986 55.6641 26.5573 55.9361 27.8773C56.2307 29.3053 56.0293 30.7173 55.368 31.856L55.308 31.9559C55.2466 32.0572 55.1454 32.2253 55.1334 32.2947C55.1614 32.384 55.348 32.5799 55.46 32.6986L55.5387 32.7812C56.1081 33.3972 56.5294 34.1066 56.7961 34.8959C57.0627 35.6852 57.1561 36.5053 57.0774 37.3347C56.9814 38.2787 56.6374 39.0346 56.0801 39.5266C55.6627 39.8932 55.1386 40.0773 54.6293 40.0773Z" fill="black"/>
<path d="M46.8346 39.2987C46.652 39.2987 46.468 39.236 46.3173 39.108C45.98 38.8213 45.94 38.3173 46.2253 37.98C46.512 37.6427 46.636 37.1373 46.5586 36.628C46.4813 36.12 46.212 35.676 45.84 35.4413C45.748 35.3827 45.64 35.3253 45.5253 35.264C45.1266 35.052 44.6293 34.7867 44.3426 34.236C43.9693 33.536 44.176 32.7987 44.328 32.2587C44.3466 32.192 44.3653 32.1253 44.3826 32.06C44.3906 32.0173 44.4013 31.9787 44.412 31.9467C44.5426 31.3387 44.1253 31.004 43.992 30.9147C43.7 30.7187 43.2333 30.624 42.7973 30.94C40.9866 32.256 38.964 33.1787 36.784 33.684C35.004 34.0933 33.6706 33.7907 32.9293 32.808C32.7973 32.6333 32.7 32.4547 32.6146 32.2973C32.388 31.8813 32.38 31.8813 32.16 31.8987C32.02 31.9107 31.8786 31.9613 31.7573 32.0453C29.892 33.3027 27.7373 34.112 25.5173 34.3907C24.8906 34.4693 24.152 34.5187 23.42 34.3013C22.5546 34.044 21.82 33.4227 21.3506 32.5533C20.7906 31.5133 20.6586 30.224 20.9973 29.1027C21.48 27.5067 22.7306 26.1067 24.7173 24.9413C24.84 24.8693 24.9626 24.8 25.0866 24.7293C25.8373 24.3013 26.5453 23.8973 26.916 23.2867C27.04 23.0827 27.136 22.832 27.2386 22.5667C27.3626 22.2453 27.4906 21.9133 27.6906 21.5853C28.0933 20.9227 28.684 20.456 29.26 20.0507C32.1653 18.04 35.7026 16.9987 39.228 17.1107C41.448 17.188 44.2293 18.1373 44.7666 20.56C44.8626 20.992 44.5906 21.4187 44.1586 21.5147C43.728 21.6093 43.3 21.3387 43.204 20.9067C42.8866 19.4747 40.952 18.772 39.1746 18.7107C35.992 18.6067 32.7946 19.5507 30.1746 21.364C29.744 21.6667 29.3066 22.0067 29.056 22.4187C28.9306 22.624 28.8333 22.876 28.7306 23.1427C28.608 23.4613 28.4813 23.7907 28.284 24.116C27.6986 25.0813 26.732 25.6333 25.8786 26.1187C25.76 26.1867 25.6426 26.2533 25.5253 26.3213C23.8986 27.276 22.8906 28.368 22.528 29.5653C22.3133 30.2773 22.4013 31.1307 22.7586 31.7933C22.9466 32.1413 23.292 32.5933 23.8746 32.7667C24.324 32.9 24.856 32.86 25.3173 32.8027C27.2893 32.5547 29.204 31.836 30.8533 30.724C31.196 30.4867 31.6066 30.3387 32.0333 30.3027C33.2986 30.2067 33.768 31.0693 34.02 31.532C34.0853 31.652 34.1466 31.7653 34.2066 31.844C34.6653 32.452 35.9106 32.2427 36.424 32.124C38.3933 31.668 40.2213 30.8333 41.8573 29.644C42.7653 28.984 43.9533 28.96 44.884 29.5827C45.7986 30.1947 46.2213 31.2827 45.9613 32.352C45.9573 32.368 45.9533 32.3827 45.948 32.3987L45.9466 32.4013C45.9453 32.4053 45.944 32.4107 45.944 32.4147C45.9213 32.504 45.896 32.5947 45.8706 32.6867C45.788 32.98 45.6866 33.3453 45.7613 33.4853C45.8226 33.604 46.056 33.728 46.2813 33.848C46.4173 33.92 46.5573 33.9947 46.7 34.0853C47.468 34.5707 47.9946 35.408 48.144 36.3813C48.2933 37.3573 48.04 38.316 47.4493 39.0107C47.2866 39.2027 47.0613 39.2987 46.8346 39.2987Z" fill="black"/>
<path d="M45.2787 52.3187C44.868 52.3187 44.5173 52.004 44.4827 51.5853C44.3133 49.5773 44.704 48.6587 45.5333 46.9307C45.8373 46.3 46.412 46.1613 46.756 46.0787C46.8307 46.06 46.9013 46.044 46.9627 46.024C47.28 45.924 47.5933 45.8093 47.896 45.6813C48.508 45.428 49.0827 45.1013 49.6107 44.7093C50.6747 43.9053 51.416 42.824 51.6907 41.6667C51.832 41.084 52.024 39.668 50.7747 39.0373C50.2293 38.7613 49.6947 38.6533 48.2293 39.9413C47.8973 40.2333 47.392 40.2 47.1 39.868C46.808 39.536 46.8413 39.0307 47.1733 38.7387C49.2773 36.8893 50.4933 37.1027 51.4947 37.608C53.0467 38.392 53.7173 40.0893 53.2453 42.0387C52.8853 43.5533 51.9347 44.9573 50.5693 45.988C49.932 46.4613 49.2413 46.8533 48.5133 47.1547C48.168 47.3 47.8067 47.4333 47.4427 47.5467C47.332 47.5813 47.2253 47.608 47.132 47.6307C47.0733 47.6453 46.9973 47.6627 46.948 47.6787C46.1813 49.2787 45.944 49.88 46.0773 51.448C46.1147 51.888 45.788 52.2747 45.348 52.312C45.324 52.3173 45.3013 52.3187 45.2787 52.3187Z" fill="black"/>
<path d="M35.8853 53.4988C35.46 53.4988 35.1067 53.1641 35.0867 52.7348C35.044 51.7961 35.0347 51.3241 35.0613 50.6801C33.4587 50.9894 31.8267 50.7054 30.568 50.4854C28.5347 50.1268 26.9547 49.4028 25.7373 48.2708C23.5 46.1868 22.456 42.8081 22.872 38.9988C23.028 37.5868 23.6093 35.4854 24.4293 33.3774C24.5893 32.9654 25.0533 32.7614 25.4653 32.9214C25.8773 33.0814 26.0813 33.5454 25.9213 33.9574C25.012 36.2961 24.572 38.1854 24.4627 39.1734C24.1013 42.4734 24.9627 45.3628 26.828 47.0988C27.8253 48.0268 29.1013 48.6014 30.844 48.9081C32.6253 49.2188 34.216 49.4281 35.6213 48.8534C35.876 48.7494 36.1667 48.7841 36.3907 48.9441C36.6147 49.1054 36.74 49.3694 36.7227 49.6441C36.6373 50.9854 36.6227 51.2814 36.6867 52.6574C36.7067 53.0988 36.3653 53.4734 35.924 53.4934C35.9093 53.4988 35.8973 53.4988 35.8853 53.4988Z" fill="black"/>
<path d="M29.124 37.3467C29.6395 37.3467 30.0573 36.8393 30.0573 36.2134C30.0573 35.5874 29.6395 35.08 29.124 35.08C28.6085 35.08 28.1907 35.5874 28.1907 36.2134C28.1907 36.8393 28.6085 37.3467 29.124 37.3467Z" fill="black"/>
<path d="M33.6573 37.66C34.1728 37.66 34.5907 37.1526 34.5907 36.5266C34.5907 35.9007 34.1728 35.3933 33.6573 35.3933C33.1419 35.3933 32.724 35.9007 32.724 36.5266C32.724 37.1526 33.1419 37.66 33.6573 37.66Z" fill="black"/>
</g>
</g>
<circle cx="40" cy="40" r="38.5" stroke="black" stroke-width="3"/>
<defs>
<clipPath id="clip0_846_13246">
<rect width="80" height="192" fill="white"/>
</clipPath>
</defs>
</svg>
