<svg width="80" height="80" viewBox="0 0 80 80" fill="none" xmlns="http://www.w3.org/2000/svg">
<mask id="mask0_846_13256" style="mask-type:alpha" maskUnits="userSpaceOnUse" x="0" y="0" width="80" height="80">
<circle cx="40" cy="40" r="40" fill="white"/>
</mask>
<g mask="url(#mask0_846_13256)">
<rect width="80" height="80" fill="white"/>
<g clip-path="url(#clip0_846_13256)">
<path d="M45.2493 56C45.3693 57.3467 45.92 60.3893 47.9693 59.9333L48.1893 60.2667C48.0893 62.356 47.0306 63.8293 45.372 65.356C43.6866 66.8827 41.5373 67.8 39.2693 67.9613C37.2693 68.108 35.1426 67.6293 33.6466 66.288C32.1506 64.9467 31.364 63.088 32.3546 61.4947H32.4986C32.9493 61.508 33.364 61.272 33.7453 61.032C34.2306 60.7253 34.644 59.348 34.944 58.9867C35.344 58.468 36.0933 56.6213 36.2986 56H45.2493Z" fill="white"/>
<path d="M58.9773 93.1813C61.9307 102.325 63.9853 109.339 66.684 118.164C66.8173 118.615 67.3507 120.208 67.104 120.607C66.9387 120.873 66.6613 121.044 66.3907 121.197C64.9107 122.039 63.2947 122.109 61.6253 122.445L55.4293 123.679C46.5613 125.269 37.6613 125.659 28.7773 124.16L27.1013 123.964L21.368 122.867C20.8507 122.768 20.2827 122.636 19.98 122.2C19.7294 121.843 19.7307 121.372 19.7493 120.936C19.8253 119.203 20.0253 117.483 20.2253 115.761L21.8027 102.161C22.4787 96.3347 23.156 90.4987 24.0773 84.708L24.0133 84.688C22.4627 84.1547 20.936 83.5626 19.408 82.9692C19.1973 82.9092 19.008 82.792 18.8587 82.632C18.5587 82.2453 18.816 81.6907 19.0733 81.2733C21.3453 77.58 23.288 73.6947 24.8813 69.6613C26.0973 66.5813 27.3667 63.116 30.3347 61.648L36.5373 62.356L48.208 59.2C50.2493 59.7466 51.924 61.2106 53.2987 62.8173C55.036 64.848 56.4133 67.1613 57.3733 69.656C59.4973 75.18 59.4987 81.4067 62.06 86.7427C60.8453 87.1027 59.612 87.3919 58.3653 87.6119L58.9773 93.1813Z" fill="white"/>
<path d="M36.2067 63.132C36.3067 64.504 36.6813 65.8414 37.3067 67.0667C37.36 67.1947 37.4467 67.3054 37.5573 67.388C37.7533 67.508 38.008 67.4347 38.224 67.356C40.1747 66.648 42.0627 65.776 43.8667 64.7507C44.7867 64.228 45.7173 63.6334 46.2667 62.7307C46.7867 61.8787 46.9107 60.852 47.0227 59.8614L47.2613 57.7454C47.284 57.6374 47.2733 57.5254 47.2293 57.4254C47.112 57.2227 46.8093 57.2694 46.588 57.344C43.0133 58.5587 39.5773 60.1907 36.2067 63.132Z" fill="white"/>
<path d="M35.0667 58.12C34.6787 58.8293 34.2787 59.5946 34.348 60.4C34.4174 61.2053 35.1787 62 35.9587 61.7893C36.004 62.7453 35.3294 63.5653 34.6947 64.2813L33.044 66.148C32.9827 66.2307 32.9 66.2947 32.804 66.332C32.5747 66.3973 32.3827 66.1547 32.2707 65.9426C31.572 64.624 31.0547 63.2173 30.7334 61.76C30.66 61.5573 30.652 61.3373 30.708 61.1293C30.7654 60.9213 30.884 60.736 31.0507 60.5986C31.8987 59.6333 32.8854 58.7973 33.8987 58.0066C34.1454 57.8133 34.432 57.6066 34.7414 57.6466C35.0507 57.6866 35.3 58.104 35.0667 58.12Z" fill="white"/>
<path d="M52.5173 88.932C50.904 88.932 49.2853 88.8187 47.6653 88.5907C47.2613 88.5333 46.9653 88.1827 46.9773 87.776L47.3413 75C47.3533 74.5587 47.7213 74.2067 48.164 74.2227C48.6053 74.2347 48.9533 74.604 48.9413 75.0453L48.5973 87.0987C52.756 87.5947 56.904 87.3013 60.9493 86.2253C59.7707 83.4533 59.1787 80.4813 58.604 77.5973C58.0933 75.032 57.5653 72.3813 56.628 69.9453C55.6987 67.5293 54.3747 65.3067 52.692 63.34C51.1173 61.5 49.5827 60.3987 48.0027 59.976C47.576 59.8613 47.3227 59.4227 47.4373 58.996C47.552 58.5693 47.9907 58.316 48.4173 58.4307C50.32 58.94 52.1173 60.2067 53.9093 62.3013C55.7107 64.4067 57.128 66.7867 58.1227 69.3733C59.108 71.9373 59.6507 74.6573 60.1747 77.288C60.8187 80.5187 61.4253 83.5707 62.784 86.4013C62.8853 86.6133 62.8893 86.8573 62.7933 87.072C62.6973 87.2867 62.5133 87.448 62.2893 87.5147C59.0827 88.456 55.812 88.932 52.5173 88.932Z" fill="black"/>
<path d="M24.0187 85.4973C23.932 85.4973 23.8453 85.4827 23.7587 85.4533C22.204 84.92 20.6547 84.3187 19.156 83.736L19.1533 83.7347C18.8187 83.6307 18.516 83.4413 18.2773 83.184C18.2613 83.1667 18.2467 83.1493 18.232 83.1307C17.776 82.5427 17.832 81.78 18.3973 80.8613C20.6373 77.2187 22.5707 73.3533 24.1427 69.3747L24.2813 69.0213C25.4867 65.9573 26.8533 62.4853 29.9853 60.9373C30.3813 60.7413 30.8613 60.904 31.0573 61.3C31.2533 61.696 31.0907 62.176 30.6947 62.372C28.1173 63.6453 26.924 66.676 25.7707 69.6067L25.6307 69.9613C24.0253 74.0267 22.0493 77.976 19.76 81.6987C19.608 81.9453 19.556 82.0907 19.5387 82.1653C19.568 82.1827 19.6 82.1973 19.6347 82.2067C19.6587 82.2133 19.6813 82.2213 19.704 82.2293L19.736 82.2413C21.22 82.8173 22.7547 83.4133 24.2787 83.936C24.696 84.08 24.9187 84.5347 24.776 84.952C24.6613 85.2893 24.3507 85.4973 24.0187 85.4973Z" fill="black"/>
<path d="M26.0227 124.565C25.9733 124.565 25.9227 124.56 25.872 124.551L21.2227 123.661C20.6973 123.556 19.832 123.381 19.3307 122.669C18.9387 122.111 18.9307 121.468 18.9547 120.911C19.032 119.148 19.2373 117.384 19.4347 115.679L21.0507 101.744C22.1493 92.34 23.284 82.6147 25.4947 73.232C25.596 72.8027 26.0253 72.5347 26.4573 72.6374C26.8867 72.7387 27.1533 73.1694 27.052 73.6C24.8627 82.8934 23.7333 92.572 22.64 101.932L21.024 115.865C20.8293 117.544 20.628 119.279 20.552 120.983C20.5427 121.195 20.5253 121.592 20.6387 121.752C20.772 121.941 21.2467 122.037 21.5293 122.093L26.1707 122.981C26.604 123.064 26.8893 123.484 26.8053 123.917C26.7347 124.299 26.4 124.565 26.0227 124.565Z" fill="black"/>
<path d="M37.8 68.2507C37.5907 68.2507 37.3613 68.2054 37.14 68.0694C37.12 68.0574 37.1013 68.044 37.0827 68.0307C36.864 67.8694 36.692 67.6534 36.5827 67.4054C35.912 66.0854 35.5173 64.6667 35.4093 63.1893C35.3907 62.9387 35.492 62.6933 35.6813 62.528C38.6973 59.896 41.9827 58.0627 46.332 56.5853C47.1573 56.3067 47.6947 56.6293 47.9227 57.0227C47.9373 57.0493 47.9507 57.076 47.9627 57.1027C48.068 57.344 48.0987 57.6053 48.0533 57.864L47.8187 59.9493C47.7093 60.92 47.572 62.1267 46.9507 63.1453C46.288 64.2347 45.216 64.9027 44.2627 65.444C42.424 66.4894 40.4853 67.384 38.4973 68.1054C38.3653 68.156 38.104 68.2507 37.8 68.2507ZM37.0413 63.4693C37.1667 64.56 37.4773 65.6107 37.9667 66.5987C39.864 65.9093 41.716 65.0533 43.472 64.056C44.2507 63.6133 45.12 63.0787 45.584 62.316C46.0227 61.5987 46.1267 60.6707 46.228 59.7733L46.3987 58.2573C42.6253 59.584 39.7067 61.2093 37.0413 63.4693Z" fill="black"/>
<path d="M32.792 67.1987C32.4707 67.1987 31.9934 67.0613 31.6294 66.3733C30.9 64.9973 30.36 63.528 30.0227 62.0066C29.9454 61.7226 29.9267 61.432 29.9667 61.1413C29.972 61.104 29.98 61.068 29.9894 61.032C30.0894 60.6786 30.28 60.356 30.5387 60.0973C31.432 59.12 32.42 58.2213 33.4774 57.4253C33.752 57.212 34.256 56.8213 34.9134 56.9093C35.4307 56.9786 36.1707 57.4986 36.1494 58.1586C36.1414 58.3986 36.04 58.6106 35.876 58.76C35.8374 58.8266 35.7987 58.8933 35.76 58.9613C35.472 59.46 35.1734 59.976 35.208 60.3933C35.224 60.5866 35.364 60.8053 36.2614 61.0853C36.5827 61.1853 36.8067 61.476 36.8227 61.812C36.884 63.1493 35.9294 64.228 35.3587 64.872L33.7254 66.7173C33.5787 66.904 33.384 67.0493 33.1627 67.136C33.1374 67.1453 33.112 67.1547 33.0867 67.1613C33.0267 67.176 32.9227 67.1987 32.792 67.1987ZM31.548 61.416C31.5454 61.476 31.5534 61.5346 31.5694 61.5933C31.5734 61.6093 31.5774 61.6253 31.5814 61.6413C31.8587 62.9013 32.2894 64.1213 32.864 65.2746L34.1627 63.808C34.5734 63.344 34.976 62.86 35.1454 62.3813C34.4894 62.1 33.7054 61.576 33.6174 60.5253C33.576 60.0306 33.6854 59.5773 33.8587 59.16C33.0934 59.7826 32.3734 60.4626 31.7094 61.1906C31.6987 61.2026 31.688 61.2133 31.676 61.2253C31.62 61.28 31.576 61.3453 31.548 61.416Z" fill="black"/>
<path d="M35 69.6C35.405 69.6 35.7334 69.2717 35.7334 68.8667C35.7334 68.4617 35.405 68.1333 35 68.1333C34.595 68.1333 34.2667 68.4617 34.2667 68.8667C34.2667 69.2717 34.595 69.6 35 69.6Z" fill="black"/>
<path d="M34.4667 74.6667C34.8717 74.6667 35.2 74.3383 35.2 73.9333C35.2 73.5283 34.8717 73.2 34.4667 73.2C34.0617 73.2 33.7333 73.5283 33.7333 73.9333C33.7333 74.3383 34.0617 74.6667 34.4667 74.6667Z" fill="black"/>
<path d="M50.2668 51.2147C50.5335 52.0334 51.7815 51.7134 52.4575 51.1774C55.6788 48.6214 57.5934 44.5481 57.6867 40.4361C57.78 36.3241 56.1015 32.2348 53.2788 29.2441C51.5921 27.4588 49.3174 25.9894 46.8654 26.1148L42.9334 24.1654C42.388 22.9534 40.9467 22.3974 39.62 22.3334C38.2934 22.2694 36.9667 22.5708 35.64 22.5108C34.5827 22.4628 33.54 22.1867 32.4827 22.2161C30.0254 22.2827 27.9214 23.9574 26.2027 25.7161C23.3134 28.6721 20.8174 32.4054 20.8254 36.5401C20.8254 38.8841 21.492 41.6627 19.7587 43.2441C19.5347 43.4494 19.2507 43.7108 19.3587 43.9948C19.3974 44.0694 19.4494 44.1361 19.5147 44.1894C19.58 44.2428 19.6547 44.2828 19.7347 44.3054C21.184 44.8934 23.0414 44.0548 23.5574 42.5721L26.168 37.6468C27.0427 36.3134 28.8535 35.9214 30.4415 36.0841C32.0295 36.2468 33.552 36.8361 35.1427 36.9788C36.4227 37.0828 37.7108 36.8988 38.9108 36.4401C40.1108 35.9814 41.192 35.2574 42.076 34.3241L42.876 34.5401C43.6414 34.9188 44.2868 35.5041 44.7401 36.2281C45.1921 36.9534 45.4348 37.7894 45.4388 38.6441C45.4308 39.5201 45.172 40.3707 45.028 41.2361C44.884 42.1014 44.8854 43.0428 45.348 43.7868C45.8107 44.5308 46.864 44.9548 47.604 44.4841" fill="black"/>
<path d="M45.2799 57.1853C45.1265 55.3613 45.4812 53.9373 46.2745 52.2866C46.4532 51.9133 46.8412 51.9173 47.2239 51.796C47.5625 51.6893 47.8985 51.5666 48.2265 51.428C48.8945 51.1506 49.5252 50.792 50.1065 50.3613C51.2559 49.4933 52.1505 48.2746 52.4879 46.8613C52.7932 45.58 52.5785 44.0546 51.1479 43.3333C50.1452 42.8266 49.2452 43.0066 47.7159 44.3506L47.6079 44.4933C46.8679 44.964 45.8132 44.5413 45.3519 43.796C44.8905 43.0506 44.8919 42.1106 45.0319 41.2453C45.1719 40.38 45.4319 39.5293 45.4425 38.6533C45.4385 37.7986 45.1959 36.9626 44.7439 36.2373C44.2919 35.512 43.6465 34.928 42.8799 34.5493L42.0799 34.3333C41.1959 35.2666 40.1145 35.9893 38.9145 36.4493C37.7145 36.9093 36.4265 37.0933 35.1465 36.988C33.5559 36.8453 32.0332 36.2573 30.4452 36.0933C28.8572 35.9293 27.0465 36.32 26.1719 37.656L25.3332 38.4666C24.5332 39.6666 24.3999 41.1333 23.9999 42.6C23.9999 43.0213 22.3785 48.712 26.1332 52.4666C27.4665 53.8 29.1999 54.3333 30.9999 54.7333C32.6145 54.9826 34.3785 55.2333 35.9332 54.6C35.8439 55.988 35.8585 57.2093 35.9225 58.5986" fill="white"/>
<path d="M51.0374 52.5107C50.8534 52.5107 50.672 52.488 50.4987 52.436C50.0147 52.2907 49.66 51.9467 49.5014 51.4667C49.3627 51.0467 49.5907 50.5947 50.0094 50.456C50.412 50.3227 50.844 50.5267 51.0014 50.9133C51.1747 50.932 51.6094 50.824 51.956 50.5507C54.9494 48.176 56.7907 44.388 56.8814 40.4187C56.968 36.58 55.4414 32.708 52.6907 29.7933C51.6227 28.6627 49.448 26.7853 46.9 26.9133C46.4587 26.9373 46.0827 26.596 46.06 26.1547C46.0374 25.7133 46.3774 25.3373 46.8187 25.3147C49.184 25.1933 51.6814 26.3933 53.8547 28.6933C56.892 31.9107 58.5773 36.1973 58.4813 40.4533C58.3813 44.892 56.312 49.1347 52.9494 51.8027C52.4707 52.1813 51.732 52.5107 51.0374 52.5107Z" fill="black"/>
<path d="M46.9053 45.4867C46.7307 45.4867 46.5533 45.4667 46.376 45.4267C45.684 45.2693 45.048 44.816 44.6733 44.2147C44.1707 43.4067 44.0307 42.3907 44.244 41.1107C44.292 40.8213 44.352 40.5373 44.4093 40.264C44.528 39.6987 44.64 39.164 44.644 38.6427C44.64 37.948 44.44 37.2573 44.0667 36.6573C43.692 36.0587 43.16 35.576 42.5267 35.2627C42.1307 35.0667 41.968 34.5867 42.164 34.1907C42.36 33.7947 42.84 33.632 43.236 33.828C44.136 34.2733 44.892 34.9587 45.424 35.8093C45.956 36.6613 46.2387 37.6413 46.244 38.6453C46.2373 39.336 46.104 39.9733 45.9747 40.5907C45.9187 40.8613 45.864 41.116 45.8227 41.3733C45.6787 42.2413 45.7493 42.9133 46.0333 43.3707C46.1813 43.6093 46.456 43.804 46.732 43.868C46.8547 43.896 47.0333 43.9093 47.18 43.816C47.5533 43.5787 48.0467 43.6893 48.284 44.0613C48.5213 44.4347 48.4107 44.928 48.0387 45.1653C47.7027 45.3773 47.312 45.4867 46.9053 45.4867Z" fill="black"/>
<path d="M26.1667 38.452C26.016 38.452 25.864 38.4093 25.728 38.3213C25.3587 38.0787 25.256 37.5827 25.4973 37.2133C26.4347 35.7853 28.3133 35.068 30.5213 35.2933C31.3493 35.3787 32.1493 35.5693 32.9213 35.7533C33.7107 35.9413 34.456 36.12 35.212 36.1867C36.3587 36.28 37.5413 36.112 38.6227 35.6973C39.704 35.2827 40.696 34.62 41.4933 33.7787C41.7973 33.4573 42.304 33.444 42.624 33.748C42.9453 34.052 42.9587 34.5587 42.6547 34.8787C41.6947 35.892 40.4987 36.692 39.1947 37.1907C37.8907 37.6893 36.4667 37.8933 35.0747 37.78C34.1973 37.7013 33.3587 37.5013 32.5493 37.308C31.7933 37.128 31.08 36.9573 30.3573 36.884C29.12 36.7573 27.544 37.008 26.8347 38.0893C26.6827 38.3253 26.428 38.452 26.1667 38.452Z" fill="black"/>
<path d="M20.7292 45.2933C20.2932 45.2933 19.8639 45.216 19.4666 45.0587C19.2972 45.004 19.1426 44.9187 19.0052 44.804C18.8559 44.68 18.7346 44.5293 18.6466 44.3573C18.6333 44.332 18.6212 44.3053 18.6119 44.2773C18.3106 43.4853 18.9466 42.9013 19.2186 42.652C20.2972 41.668 20.1959 39.9573 20.0892 38.1467C20.0586 37.616 20.0252 37.0667 20.0252 36.5373C20.0186 32.7973 21.9039 28.9667 25.6306 25.1547C27.1626 23.5867 29.5373 21.4933 32.4613 21.4147C33.1319 21.396 33.7759 21.4853 34.3986 21.572C34.8426 21.6333 35.2612 21.692 35.6772 21.7107C36.2826 21.7373 36.8972 21.6827 37.5479 21.624C38.2306 21.5627 38.9373 21.4987 39.6599 21.5333C41.1266 21.604 42.9493 22.2467 43.6639 23.836C43.8453 24.2387 43.6653 24.712 43.2626 24.8933C42.8599 25.0747 42.3866 24.8947 42.2053 24.492C41.7866 23.5613 40.5759 23.1787 39.5826 23.1307C38.9706 23.1013 38.3493 23.1573 37.6919 23.216C37.0173 23.2773 36.3173 23.34 35.6053 23.308C35.1159 23.2853 34.6399 23.22 34.1799 23.156C33.5959 23.0747 33.0453 22.9987 32.5066 23.0133C30.1639 23.0773 28.1146 24.904 26.7759 26.2733C23.3533 29.776 21.6199 33.2293 21.6266 36.536C21.6266 37.02 21.6559 37.5213 21.6879 38.052C21.8026 39.9907 21.9319 42.1773 20.4639 43.6747C20.8519 43.728 21.2719 43.664 21.6679 43.484C22.2159 43.236 22.6292 42.8067 22.8039 42.3067C22.9492 41.8893 23.4052 41.668 23.8226 41.8147C24.2399 41.96 24.4599 42.416 24.3159 42.8333C23.9986 43.7453 23.2746 44.5147 22.3292 44.9427C21.8119 45.1773 21.2652 45.2933 20.7292 45.2933Z" fill="black"/>
<path d="M45.2787 57.3187C44.868 57.3187 44.5174 57.0027 44.4827 56.5853C44.3134 54.5773 44.704 53.6573 45.5334 51.9307C45.8374 51.3 46.412 51.1613 46.756 51.0787C46.8307 51.06 46.9014 51.044 46.9627 51.024C47.28 50.924 47.5934 50.8093 47.896 50.6813C48.508 50.428 49.0827 50.1013 49.6107 49.7093C50.6747 48.9053 51.416 47.8227 51.6907 46.6667C51.832 46.084 52.024 44.668 50.7747 44.0373C50.2294 43.7613 49.6947 43.6533 48.2294 44.9413C47.8974 45.2333 47.392 45.2 47.1 44.868C46.808 44.536 46.8414 44.0307 47.1734 43.7387C49.2774 41.8893 50.4947 42.1027 51.4947 42.608C53.0467 43.392 53.7174 45.0893 53.2454 47.0387C52.8854 48.5533 51.9347 49.9573 50.5694 50.988C49.932 51.4613 49.2414 51.8533 48.5134 52.1547C48.168 52.3 47.8067 52.4333 47.4427 52.5467C47.332 52.5813 47.2254 52.608 47.132 52.6307C47.0734 52.6453 46.9974 52.6627 46.948 52.6787C46.1814 54.2787 45.944 54.88 46.0774 56.448C46.1147 56.888 45.788 57.276 45.348 57.312C45.324 57.3173 45.3014 57.3187 45.2787 57.3187Z" fill="black"/>
<path d="M35.884 58.4988C35.4587 58.4988 35.1053 58.1641 35.0853 57.7348C35.0427 56.7961 35.0333 56.3241 35.06 55.6801C33.4573 55.9894 31.8253 55.7054 30.5667 55.4854C28.5333 55.1268 26.9533 54.4028 25.736 53.2708C23.4987 51.1868 22.4547 47.8081 22.8707 43.9988C23.0267 42.5868 23.608 40.4854 24.428 38.3774C24.588 37.9654 25.052 37.7614 25.464 37.9214C25.876 38.0814 26.08 38.5454 25.92 38.9574C25.0107 41.2961 24.5707 43.1854 24.4613 44.1734C24.1 47.4734 24.9613 50.3628 26.8267 52.0988C27.824 53.0268 29.1 53.6014 30.8427 53.9081C32.624 54.2188 34.2133 54.4281 35.62 53.8534C35.8747 53.7494 36.1653 53.7841 36.3893 53.9441C36.6133 54.1041 36.7387 54.3694 36.7213 54.6441C36.636 55.9854 36.6213 56.2814 36.6853 57.6574C36.7053 58.0988 36.364 58.4734 35.9227 58.4934C35.9093 58.4988 35.8973 58.4988 35.884 58.4988Z" fill="black"/>
<path d="M29.124 42.3467C29.6395 42.3467 30.0573 41.8393 30.0573 41.2134C30.0573 40.5874 29.6395 40.08 29.124 40.08C28.6085 40.08 28.1907 40.5874 28.1907 41.2134C28.1907 41.8393 28.6085 42.3467 29.124 42.3467Z" fill="black"/>
<path d="M33.6573 42.66C34.1728 42.66 34.5907 42.1526 34.5907 41.5266C34.5907 40.9007 34.1728 40.3933 33.6573 40.3933C33.1419 40.3933 32.724 40.9007 32.724 41.5266C32.724 42.1526 33.1419 42.66 33.6573 42.66Z" fill="black"/>
<path d="M39.291 28.9299C38.951 28.9299 38.641 28.7199 38.531 28.3799C36.921 23.5099 37.7911 17.5299 39.1411 13.5499C39.2811 13.1299 39.731 12.8999 40.151 13.0499C40.571 13.1899 40.791 13.6499 40.651 14.0599C39.061 18.7499 38.821 24.1699 40.041 27.8699C40.181 28.2899 39.951 28.7399 39.531 28.8799C39.451 28.9099 39.361 28.9199 39.281 28.9199L39.291 28.9299Z" fill="black"/>
<path d="M38.5593 15.481C38.1993 16.861 36.7493 18.101 35.8993 18.151C33.0693 18.301 32.4293 14.971 34.8193 14.341C35.4193 14.181 36.0993 13.9909 36.3293 13.8709C36.3193 13.8709 34.6893 13.401 33.7093 12.851C32.8093 12.341 32.2593 11.351 32.3593 10.321C32.4393 9.53095 33.1693 8.45095 34.6093 8.29095C35.7693 8.16095 37.4593 9.42095 37.5793 10.581C37.6193 10.171 37.6293 9.22095 37.6393 8.70095C37.6693 7.23095 38.9793 5.37095 40.9493 5.90095C43.5093 6.59095 41.8893 9.92095 41.4693 10.641C42.9393 10.591 46.5893 10.171 46.6993 12.551C46.7693 14.041 45.2893 15.231 44.0793 15.071C43.5193 15.001 42.4693 14.5109 41.7293 14.2809C42.8893 14.4709 43.7593 16.391 43.3393 17.481C42.9193 18.571 41.6593 19.081 40.5693 18.661C39.4793 18.241 38.7993 16.671 38.5693 15.501L38.5593 15.481Z" fill="#FA2A0A"/>
<path d="M41.3587 19.5897C40.9887 19.5897 40.6187 19.5197 40.2687 19.3897C39.4387 19.0597 38.8087 18.3097 38.3787 17.4497C37.6787 18.2897 36.7487 18.8997 35.9387 18.9497C33.9087 19.0597 32.7787 17.7597 32.5787 16.5097C32.3987 15.3897 32.9387 14.3697 33.9187 13.8397C33.6887 13.7397 33.4887 13.6296 33.3187 13.5396C32.1187 12.8596 31.4287 11.5596 31.5687 10.2296C31.6987 9.01965 32.7487 7.68965 34.5287 7.48965C35.2587 7.40965 36.1187 7.68965 36.8787 8.23965C37.0287 7.22965 37.5987 6.23965 38.3987 5.63965C39.1987 5.03965 40.1787 4.85965 41.1587 5.11965C42.2587 5.40965 42.7387 6.08965 42.9487 6.60965C43.3687 7.62965 43.0887 8.86965 42.7487 9.77965C44.0987 9.73965 45.7087 9.83965 46.6887 10.7396C47.1787 11.1896 47.4587 11.7997 47.4887 12.5096C47.5287 13.4297 47.1387 14.3396 46.4087 14.9997C45.7387 15.6097 44.8887 15.9297 44.0887 15.8697C44.2787 16.5397 44.2787 17.2197 44.0687 17.7697C43.7887 18.4797 43.2487 19.0397 42.5487 19.3597C42.1687 19.5297 41.7587 19.6097 41.3487 19.6097L41.3587 19.5897ZM38.5587 14.6797H38.5787C38.9487 14.6897 39.2687 14.9597 39.3387 15.3197C39.5487 16.3897 40.1387 17.6097 40.8487 17.8897C41.1887 18.0197 41.5787 18.0197 41.9087 17.8697C42.2187 17.7297 42.4587 17.4797 42.5887 17.1697C42.7187 16.8297 42.6087 16.2197 42.3287 15.7197C42.1787 15.4497 41.9787 15.2397 41.7987 15.1297C41.6887 15.0897 41.5887 15.0597 41.4987 15.0297C41.0987 14.8997 40.8587 14.4896 40.9587 14.0796C41.0587 13.6696 41.4487 13.4096 41.8687 13.4796C42.0587 13.5096 42.2587 13.5696 42.4387 13.6596C42.5987 13.7196 42.7687 13.7797 42.9387 13.8497C43.3887 14.0197 43.9387 14.2297 44.1987 14.2597C44.5587 14.3097 45.0087 14.1297 45.3587 13.8097C45.7387 13.4697 45.9387 13.0196 45.9187 12.5696C45.9087 12.2796 45.8187 12.0796 45.6387 11.9096C44.9087 11.2496 42.9887 11.3496 41.9587 11.3996L41.5187 11.4196C41.2387 11.4396 40.9487 11.2796 40.7987 11.0296C40.6487 10.7796 40.6487 10.4696 40.7987 10.2196C41.2387 9.46965 41.8087 7.99965 41.4887 7.20965C41.4187 7.03965 41.2687 6.79965 40.7587 6.65965C40.2487 6.51965 39.7787 6.60965 39.3687 6.90965C38.8487 7.29965 38.4687 8.03965 38.4487 8.70965V9.05965C38.4287 9.59965 38.4187 10.3096 38.3887 10.6496C38.3487 11.0596 38.0087 11.3696 37.5987 11.3696C37.1887 11.3696 36.8387 11.0596 36.7987 10.6496C36.7687 10.3596 36.4887 9.95965 36.0887 9.62965C35.6387 9.25965 35.0687 9.02965 34.7187 9.06965C33.6787 9.18965 33.2187 9.93965 33.1687 10.3896C33.0987 11.0896 33.4687 11.7796 34.1187 12.1396C34.9187 12.5896 36.3087 13.0196 36.5287 13.0796C36.8187 13.1496 37.0487 13.3696 37.1187 13.6596C37.2087 14.0196 37.0387 14.3996 36.6987 14.5696C36.5987 14.6196 36.3387 14.7497 35.0287 15.0997C34.0987 15.3497 34.1287 16.0397 34.1687 16.2497C34.2587 16.8297 34.8187 17.3997 35.8587 17.3397C36.2687 17.3197 37.4887 16.3997 37.7887 15.2697C37.8787 14.9197 38.1987 14.6697 38.5587 14.6697V14.6797Z" fill="black"/>
<path d="M39.1599 15.1009C38.0899 14.6609 36.8798 14.0809 36.7598 12.8109C36.7298 12.5309 36.7698 12.2609 36.8598 11.9909C37.1898 11.0409 37.7399 10.6609 38.6399 10.3609C39.0999 10.2009 40.9199 9.7609 41.5499 11.7809C41.7799 12.5209 41.8798 13.3809 41.4698 14.0509C40.9098 14.9609 39.6498 15.3009 39.1498 15.1009H39.1599Z" fill="#FFCC00"/>
<path d="M39.4988 15.9489C39.2588 15.9489 39.0388 15.9089 38.8488 15.8289C37.8988 15.4389 36.1288 14.7089 35.9588 12.8789C35.9188 12.4989 35.9688 12.0989 36.0988 11.7289C36.5588 10.3789 37.4688 9.90887 38.3788 9.59887C38.6988 9.48887 39.8288 9.16887 40.8688 9.69887C41.5588 10.0489 42.0388 10.6689 42.3088 11.5389C42.6688 12.7089 42.6188 13.6989 42.1488 14.4589C41.5588 15.4089 40.3988 15.9389 39.4988 15.9389V15.9489ZM39.4488 14.3589C39.6588 14.3989 40.4488 14.2089 40.7888 13.6389C41.0588 13.1989 40.9388 12.5189 40.7888 12.0289C40.6488 11.5789 40.4388 11.2889 40.1488 11.1389C39.6488 10.8789 38.9688 11.0989 38.8988 11.1189C38.1188 11.3889 37.8288 11.6389 37.6188 12.2589C37.5688 12.4189 37.5388 12.5889 37.5588 12.7389C37.6288 13.4589 38.3088 13.8789 39.4488 14.3589Z" fill="black"/>
<path d="M38.9414 26.9286C39.4614 23.4086 44.2314 20.6986 47.4814 22.0486C46.0514 25.5086 43.1714 26.6986 38.9414 26.9286Z" fill="#27B500"/>
<path d="M38.9413 27.7305C38.7213 27.7305 38.5013 27.6405 38.3513 27.4705C38.1913 27.2905 38.1213 27.0505 38.1513 26.8105C38.4313 24.9105 39.8113 23.0905 41.8213 21.9505C43.8113 20.8205 46.0413 20.5905 47.7813 21.3105C48.1913 21.4805 48.3813 21.9505 48.2113 22.3505C46.3913 26.7705 42.3213 27.5405 38.9813 27.7205C38.9713 27.7205 38.9513 27.7205 38.9413 27.7205V27.7305ZM45.6113 22.5005C44.6513 22.5005 43.6013 22.7905 42.6113 23.3505C41.4013 24.0305 40.4913 25.0005 40.0313 26.0505C43.2813 25.7005 45.2113 24.6405 46.3513 22.5605C46.1113 22.5205 45.8613 22.5005 45.6113 22.5005Z" fill="black"/>
<path d="M38.6501 26.0205C35.8301 19.9105 30.8101 21.5305 30.8101 21.5305C30.8101 21.5305 30.3201 25.9805 38.6501 26.0205Z" fill="#27B500"/>
<path d="M38.6516 26.8197C35.0616 26.7997 32.5216 25.9997 31.1116 24.4197C29.8516 23.0097 30.0016 21.5097 30.0016 21.4397C30.0316 21.1297 30.2516 20.8597 30.5516 20.7697C30.6116 20.7497 36.2816 19.0097 39.3616 25.6797C39.4716 25.9297 39.4516 26.2197 39.3116 26.4497C39.1616 26.6797 38.9116 26.8197 38.6416 26.8197H38.6516ZM31.6616 22.1697C31.7416 22.4997 31.9216 22.9497 32.3316 23.3897C32.9916 24.1097 34.3816 24.9597 37.2816 25.1697C35.3516 22.0897 32.8116 22.0097 31.6616 22.1697Z" fill="black"/>
</g>
</g>
<circle cx="40" cy="40" r="38.5" stroke="black" stroke-width="3"/>
<defs>
<clipPath id="clip0_846_13256">
<rect width="80" height="192" fill="white" transform="translate(0 5)"/>
</clipPath>
</defs>
</svg>
