<svg width="80" height="80" viewBox="0 0 80 80" fill="none" xmlns="http://www.w3.org/2000/svg">
<mask id="mask0_846_13245" style="mask-type:alpha" maskUnits="userSpaceOnUse" x="0" y="0" width="80" height="80">
<circle cx="40" cy="40" r="40" fill="white"/>
</mask>
<g mask="url(#mask0_846_13245)">
<rect width="80" height="80" fill="white"/>
<g clip-path="url(#clip0_846_13245)">
<path d="M45.2493 51C45.3693 52.3467 45.92 55.3893 47.9693 54.9333L48.1893 55.2667C48.0893 57.356 47.0306 58.8293 45.372 60.356C43.6866 61.8827 41.5373 62.8 39.2693 62.9613C37.2693 63.108 35.1426 62.6293 33.6466 61.288C32.1506 59.9467 31.364 58.088 32.3546 56.4947H32.4986C32.9493 56.508 33.364 56.272 33.7453 56.032C34.2306 55.7253 34.644 54.348 34.944 53.9867C35.344 53.468 36.0933 51.6213 36.2986 51H45.2493Z" fill="white"/>
<path d="M58.9773 88.1813C61.9307 97.3253 63.9853 104.339 66.684 113.164C66.8173 113.615 67.3507 115.208 67.104 115.607C66.9387 115.873 66.6613 116.044 66.3907 116.197C64.9107 117.039 63.2947 117.109 61.6253 117.445L55.4293 118.679C46.5613 120.269 37.6613 120.659 28.7773 119.16L27.1013 118.964L21.368 117.867C20.8507 117.768 20.2827 117.636 19.98 117.2C19.7294 116.843 19.7307 116.372 19.7493 115.936C19.8253 114.203 20.0253 112.483 20.2253 110.761L21.8027 97.1613C22.4787 91.3347 23.156 85.4987 24.0773 79.708L24.0133 79.688C22.4627 79.1547 20.936 78.5626 19.408 77.9692C19.1973 77.9092 19.008 77.792 18.8587 77.632C18.5587 77.2453 18.816 76.6907 19.0733 76.2733C21.3453 72.58 23.288 68.6947 24.8813 64.6613C26.0973 61.5813 27.3667 58.116 30.3347 56.648L36.5373 57.356L48.208 54.2C50.2493 54.7466 51.924 56.2106 53.2987 57.8173C55.036 59.848 56.4133 62.1613 57.3733 64.656C59.4973 70.18 59.4987 76.4067 62.06 81.7427C60.8453 82.1027 59.612 82.3919 58.3653 82.6119L58.9773 88.1813Z" fill="white"/>
<path d="M36.2067 58.132C36.3067 59.504 36.6813 60.8414 37.3067 62.0667C37.36 62.1947 37.4467 62.3054 37.5573 62.388C37.7533 62.508 38.008 62.4347 38.224 62.356C40.1747 61.648 42.0627 60.776 43.8667 59.7507C44.7867 59.228 45.7173 58.6334 46.2667 57.7307C46.7867 56.8787 46.9107 55.852 47.0227 54.8614L47.2613 52.7454C47.284 52.6374 47.2733 52.5254 47.2293 52.4254C47.112 52.2227 46.8093 52.2694 46.588 52.344C43.0133 53.5587 39.5773 55.1907 36.2067 58.132Z" fill="white"/>
<path d="M35.0667 53.12C34.6787 53.8293 34.2787 54.5946 34.348 55.4C34.4174 56.2053 35.1787 57 35.9587 56.7893C36.004 57.7453 35.3294 58.5653 34.6947 59.2813L33.044 61.148C32.9827 61.2307 32.9 61.2947 32.804 61.332C32.5747 61.3973 32.3827 61.1547 32.2707 60.9426C31.572 59.624 31.0547 58.2173 30.7334 56.76C30.66 56.5573 30.652 56.3373 30.708 56.1293C30.7654 55.9213 30.884 55.736 31.0507 55.5986C31.8987 54.6333 32.8854 53.7973 33.8987 53.0066C34.1454 52.8133 34.432 52.6066 34.7414 52.6466C35.0507 52.6866 35.3 53.104 35.0667 53.12Z" fill="white"/>
<path d="M20.2307 110.767C20.0307 112.488 19.8307 114.211 19.7547 115.941L19.6547 116.287C18.6294 116.103 17.5014 115.799 16.9574 114.911C16.0734 113.468 17.2907 111.515 16.6907 109.932C16.2747 108.824 14.996 107.852 15.4294 106.751C15.7907 105.833 17.052 105.727 17.7934 105.077C18.5347 104.428 18.652 103.372 18.7334 102.411L20.7187 78.7748L20.7734 78.5081C21.848 78.9214 22.9254 79.3254 24.0147 79.6988L24.076 79.7348C23.156 85.5214 22.476 91.3521 21.8094 97.1721" fill="white"/>
<path d="M52.5173 83.932C50.904 83.932 49.2853 83.8187 47.6653 83.5907C47.2613 83.5333 46.9653 83.1827 46.9773 82.776L47.3413 70C47.3533 69.5587 47.7213 69.2067 48.164 69.2227C48.6053 69.2347 48.9533 69.604 48.9413 70.0453L48.5973 82.0987C52.756 82.5947 56.904 82.3013 60.9493 81.2253C59.7707 78.4533 59.1787 75.4813 58.604 72.5973C58.0933 70.032 57.5653 67.3813 56.628 64.9453C55.6987 62.5293 54.3747 60.3067 52.692 58.34C51.1173 56.5 49.5827 55.3987 48.0027 54.976C47.576 54.8613 47.3227 54.4227 47.4373 53.996C47.552 53.5693 47.9907 53.316 48.4173 53.4307C50.32 53.94 52.1173 55.2067 53.9093 57.3013C55.7107 59.4067 57.128 61.7867 58.1227 64.3733C59.108 66.9373 59.6507 69.6573 60.1747 72.288C60.8187 75.5187 61.4253 78.5707 62.784 81.4013C62.8853 81.6133 62.8893 81.8573 62.7933 82.072C62.6973 82.2867 62.5133 82.448 62.2893 82.5147C59.0827 83.456 55.812 83.932 52.5173 83.932Z" fill="black"/>
<path d="M24.0187 80.4973C23.932 80.4973 23.8453 80.4827 23.7587 80.4533C22.204 79.92 20.6547 79.3187 19.156 78.736L19.1533 78.7347C18.8187 78.6307 18.516 78.4413 18.2773 78.184C18.2613 78.1667 18.2467 78.1493 18.232 78.1307C17.776 77.5427 17.832 76.78 18.3973 75.8613C20.6373 72.2187 22.5707 68.3533 24.1427 64.3747L24.2813 64.0213C25.4867 60.9573 26.8533 57.4853 29.9853 55.9373C30.3813 55.7413 30.8613 55.904 31.0573 56.3C31.2533 56.696 31.0907 57.176 30.6947 57.372C28.1173 58.6453 26.924 61.676 25.7707 64.6067L25.6307 64.9613C24.0253 69.0267 22.0493 72.976 19.76 76.6987C19.608 76.9453 19.556 77.0907 19.5387 77.1653C19.568 77.1827 19.6 77.1973 19.6347 77.2067C19.6587 77.2133 19.6813 77.2213 19.704 77.2293L19.736 77.2413C21.22 77.8173 22.7547 78.4133 24.2787 78.936C24.696 79.08 24.9187 79.5347 24.776 79.952C24.6613 80.2893 24.3507 80.4973 24.0187 80.4973Z" fill="black"/>
<path d="M26.0227 119.565C25.9733 119.565 25.9227 119.56 25.872 119.551L21.2227 118.661C20.6973 118.556 19.832 118.381 19.3307 117.669C18.9387 117.111 18.9307 116.468 18.9547 115.911C19.032 114.148 19.2373 112.384 19.4347 110.679L21.0507 96.744C22.1493 87.34 23.284 77.6147 25.4947 68.232C25.596 67.8027 26.0253 67.5347 26.4573 67.6374C26.8867 67.7387 27.1533 68.1694 27.052 68.6C24.8627 77.8934 23.7333 87.572 22.64 96.932L21.024 110.865C20.8293 112.544 20.628 114.279 20.552 115.983C20.5427 116.195 20.5253 116.592 20.6387 116.752C20.772 116.941 21.2467 117.037 21.5293 117.093L26.1707 117.981C26.604 118.064 26.8893 118.484 26.8053 118.917C26.7347 119.299 26.4 119.565 26.0227 119.565Z" fill="black"/>
<path d="M19.66 117.083C19.6133 117.083 19.5653 117.079 19.5173 117.069C18.312 116.853 16.9853 116.477 16.2787 115.324C15.6533 114.307 15.812 113.172 15.952 112.172C16.0547 111.443 16.1507 110.753 15.9453 110.209C15.8347 109.912 15.62 109.596 15.3947 109.26C14.8853 108.504 14.252 107.564 14.688 106.453C15.0293 105.592 15.8213 105.224 16.456 104.928C16.7747 104.78 17.0747 104.64 17.2707 104.469C17.7573 104.045 17.864 103.22 17.9387 102.339L19.924 78.7026C19.9613 78.2626 20.3507 77.9359 20.788 77.9719C21.228 78.0092 21.5547 78.3959 21.5187 78.8359L19.5333 102.472C19.4347 103.645 19.26 104.859 18.3213 105.675C17.9547 105.993 17.5173 106.197 17.1307 106.377C16.6747 106.589 16.2813 106.772 16.176 107.04C16.056 107.344 16.3027 107.744 16.7213 108.365C16.9893 108.763 17.2653 109.173 17.4427 109.645C17.7907 110.571 17.6547 111.539 17.536 112.392C17.4187 113.232 17.3173 113.957 17.6413 114.485C18.0187 115.1 18.9427 115.34 19.7987 115.493C20.2333 115.571 20.5227 115.987 20.4453 116.421C20.3773 116.811 20.04 117.083 19.66 117.083Z" fill="black"/>
<path d="M37.8 63.2507C37.5907 63.2507 37.3613 63.2054 37.14 63.0694C37.12 63.0574 37.1013 63.044 37.0827 63.0307C36.864 62.8694 36.692 62.6534 36.5827 62.4054C35.912 61.0854 35.5173 59.6667 35.4093 58.1893C35.3907 57.9387 35.492 57.6933 35.6813 57.528C38.6973 54.896 41.9827 53.0627 46.332 51.5853C47.1573 51.3067 47.6947 51.6293 47.9227 52.0227C47.9373 52.0493 47.9507 52.076 47.9627 52.1027C48.068 52.344 48.0987 52.6053 48.0533 52.864L47.8187 54.9493C47.7093 55.92 47.572 57.1267 46.9507 58.1453C46.288 59.2347 45.216 59.9027 44.2627 60.444C42.424 61.4894 40.4853 62.384 38.4973 63.1054C38.3653 63.156 38.104 63.2507 37.8 63.2507ZM37.0413 58.4693C37.1667 59.56 37.4773 60.6107 37.9667 61.5987C39.864 60.9093 41.716 60.0533 43.472 59.056C44.2507 58.6133 45.12 58.0787 45.584 57.316C46.0227 56.5987 46.1267 55.6707 46.228 54.7733L46.3987 53.2573C42.6253 54.584 39.7067 56.2093 37.0413 58.4693Z" fill="black"/>
<path d="M32.792 62.1987C32.4707 62.1987 31.9934 62.0613 31.6294 61.3733C30.9 59.9973 30.36 58.528 30.0227 57.0066C29.9454 56.7226 29.9267 56.432 29.9667 56.1413C29.972 56.104 29.98 56.068 29.9894 56.032C30.0894 55.6786 30.28 55.356 30.5387 55.0973C31.432 54.12 32.42 53.2213 33.4774 52.4253C33.752 52.212 34.256 51.8213 34.9134 51.9093C35.4307 51.9786 36.1707 52.4986 36.1494 53.1586C36.1414 53.3986 36.04 53.6106 35.876 53.76C35.8374 53.8266 35.7987 53.8933 35.76 53.9613C35.472 54.46 35.1734 54.976 35.208 55.3933C35.224 55.5866 35.364 55.8053 36.2614 56.0853C36.5827 56.1853 36.8067 56.476 36.8227 56.812C36.884 58.1493 35.9294 59.228 35.3587 59.872L33.7254 61.7173C33.5787 61.904 33.384 62.0493 33.1627 62.136C33.1374 62.1453 33.112 62.1547 33.0867 62.1613C33.0267 62.176 32.9227 62.1987 32.792 62.1987ZM31.548 56.416C31.5454 56.476 31.5534 56.5346 31.5694 56.5933C31.5734 56.6093 31.5774 56.6253 31.5814 56.6413C31.8587 57.9013 32.2894 59.1213 32.864 60.2746L34.1627 58.808C34.5734 58.344 34.976 57.86 35.1454 57.3813C34.4894 57.1 33.7054 56.576 33.6174 55.5253C33.576 55.0306 33.6854 54.5773 33.8587 54.16C33.0934 54.7826 32.3734 55.4626 31.7094 56.1906C31.6987 56.2026 31.688 56.2133 31.676 56.2253C31.62 56.28 31.576 56.3453 31.548 56.416Z" fill="black"/>
<path d="M35 64.6C35.405 64.6 35.7334 64.2717 35.7334 63.8667C35.7334 63.4617 35.405 63.1333 35 63.1333C34.595 63.1333 34.2667 63.4617 34.2667 63.8667C34.2667 64.2717 34.595 64.6 35 64.6Z" fill="black"/>
<path d="M34.4667 69.6667C34.8717 69.6667 35.2 69.3383 35.2 68.9333C35.2 68.5283 34.8717 68.2 34.4667 68.2C34.0617 68.2 33.7333 68.5283 33.7333 68.9333C33.7333 69.3383 34.0617 69.6667 34.4667 69.6667Z" fill="black"/>
<path d="M22.376 39.312C21.1573 38.7627 20.4093 37.5053 19.9827 36.2453C18.804 32.756 19.548 28.7987 21.4333 25.6347C23.3187 22.4707 26.2453 20.0347 29.4333 18.18C31.9013 16.744 34.6333 15.6053 37.4907 15.5627C40.348 15.52 43.3387 16.74 44.852 19.1627L46.744 20.8293C49.144 20.4627 51.4813 21.7973 53.324 23.3787C55.5907 25.32 57.48 27.7467 58.5467 30.5333C59.6133 33.32 59.8147 36.476 58.844 39.2973C57.9613 41.8587 55.6907 44.2653 52.9893 44.0573" fill="black"/>
<path d="M35.8853 53.3654C35.8213 51.976 35.8347 50.9854 35.9227 49.5974C34.2587 50.2774 32.4187 49.9974 30.704 49.6987C29.06 49.4094 27.5227 48.8414 26.2813 47.6867C23.952 45.5174 23.3333 42.1334 23.6667 39.088C23.8 37.8787 24.3147 35.8814 25.1747 33.6694L26.196 32.2187C27.196 30.5734 28.448 29.0534 30.0293 27.952C31.6107 26.8507 33.5453 26.2027 35.4627 26.364C35.996 26.4094 36.5467 26.5227 36.9947 26.8227C37.4427 27.1227 37.776 27.6374 37.7373 28.1747L39.7533 29.3374C40.6107 28.752 41.872 29.204 42.4667 30.0614C43.0613 30.9187 43.1427 32.0174 43.1067 33.056C43.0707 34.0947 42.9373 35.1507 43.18 36.16C43.3893 36.9747 43.828 37.712 44.4453 38.284C45.0627 38.856 45.8307 39.2387 46.6587 39.3854L47.7013 39.3347C49.2307 37.9907 50.1307 37.8107 51.1347 38.3174C52.564 39.0387 52.7787 40.564 52.468 41.8454C52.132 43.2587 51.236 44.4774 50.0867 45.3454C49.5067 45.776 48.8747 46.1347 48.2067 46.412C47.8787 46.5507 47.544 46.6734 47.204 46.78C46.8213 46.9014 46.4347 46.8974 46.2547 47.2707C45.4627 48.9214 45.1253 50.488 45.28 52.312" fill="white"/>
<path d="M46.66 40.192C46.6133 40.192 46.5667 40.188 46.5187 40.18C45.5373 40.0053 44.632 39.5547 43.9013 38.8773C43.1707 38.2 42.6533 37.3307 42.4053 36.3653C42.1827 35.4373 42.2307 34.5347 42.2773 33.66C42.288 33.4507 42.3 33.2427 42.3067 33.0347C42.3347 32.24 42.3027 31.236 41.8093 30.524C41.4653 30.028 40.672 29.6853 40.204 30.0053C39.8387 30.2547 39.3413 30.16 39.092 29.796C38.8427 29.4307 38.9373 28.9333 39.3013 28.684C40.3427 27.9733 42.1267 28.176 43.1227 29.6133C43.8853 30.712 43.9413 32.0493 43.9053 33.092C43.8973 33.3107 43.8867 33.5293 43.8747 33.748C43.832 34.5427 43.792 35.292 43.9573 35.9813C44.1253 36.6373 44.4827 37.2373 44.988 37.7067C45.4933 38.176 46.1187 38.4867 46.7973 38.608C47.232 38.6853 47.5227 39.1013 47.4453 39.536C47.3773 39.92 47.04 40.192 46.66 40.192Z" fill="black"/>
<path d="M26.1907 33.024C26.0493 33.024 25.9067 32.9867 25.7773 32.908C25.4 32.6787 25.2787 32.1867 25.508 31.8093C26.6813 29.8733 28.0467 28.356 29.5693 27.3C31.4173 26.0173 33.5333 25.404 35.5253 25.572C36.324 25.64 36.9307 25.8267 37.4333 26.1627C38.156 26.644 38.5867 27.4587 38.5307 28.2387C38.4987 28.68 38.1173 29.0107 37.6747 28.9787C37.2347 28.9467 36.9027 28.564 36.9347 28.1227C36.9493 27.9187 36.7867 27.6547 36.5467 27.4947C36.2813 27.3173 35.9027 27.2107 35.3907 27.168C33.7667 27.0307 32.0227 27.5453 30.48 28.616C29.144 29.544 27.9307 30.8973 26.8747 32.64C26.7253 32.8867 26.4613 33.024 26.1907 33.024Z" fill="black"/>
<path d="M53.3147 44.8639C53.184 44.8639 53.0547 44.8586 52.924 44.8492C52.484 44.8159 52.1533 44.4306 52.188 43.9906C52.2213 43.5506 52.6067 43.2212 53.0467 43.2546C55.3387 43.4319 57.3147 41.2639 58.084 39.0319C58.956 36.4972 58.8533 33.5786 57.796 30.8146C56.844 28.3292 55.1173 25.9652 52.8 23.9812C50.6507 22.1372 48.6533 21.3412 46.8613 21.6146C46.424 21.6812 46.016 21.3812 45.9493 20.9452C45.8827 20.5092 46.1827 20.0999 46.6187 20.0332C48.8933 19.6852 51.3227 20.6052 53.84 22.7666C56.3573 24.9226 58.2427 27.5079 59.2893 30.2426C60.4813 33.3572 60.5907 36.6626 59.596 39.5532C59.092 41.0146 58.2147 42.3492 57.124 43.3119C55.9653 44.3306 54.656 44.8626 53.3147 44.8639Z" fill="black"/>
<path d="M22.376 40.1054C22.2667 40.1054 22.1573 40.0828 22.0507 40.0361C20.7933 39.4761 19.8173 38.2521 19.2253 36.4934C18.0427 33.0054 18.6107 28.7894 20.7427 25.2174C22.512 22.2534 25.3 19.6508 29.0267 17.4814C32.1107 15.6868 34.8733 14.7961 37.4747 14.7561C40.8707 14.7041 43.9627 16.2268 45.5267 18.7321C45.7613 19.1068 45.6467 19.6001 45.272 19.8348C44.8973 20.0694 44.404 19.9548 44.1693 19.5801C42.9187 17.5788 40.3027 16.3148 37.4987 16.3561C35.18 16.3921 32.672 17.2121 29.832 18.8654C26.3413 20.8974 23.7453 23.3108 22.116 26.0388C20.22 29.2134 19.7053 32.9308 20.74 35.9828C21.0507 36.9068 21.6427 38.1041 22.7013 38.5761C23.1053 38.7561 23.2867 39.2281 23.1067 39.6321C22.9747 39.9281 22.6813 40.1054 22.376 40.1054Z" fill="black"/>
<path d="M45.2787 52.3187C44.868 52.3187 44.5173 52.004 44.4827 51.5853C44.3133 49.5773 44.704 48.6587 45.5333 46.9307C45.8373 46.3 46.412 46.1613 46.756 46.0787C46.8307 46.06 46.9013 46.044 46.9627 46.024C47.28 45.924 47.5933 45.8093 47.896 45.6813C48.508 45.428 49.0827 45.1013 49.6107 44.7093C50.6747 43.9053 51.416 42.824 51.6907 41.6667C51.832 41.084 52.024 39.668 50.7747 39.0373C50.2293 38.7613 49.6947 38.6533 48.2293 39.9413C47.8973 40.2333 47.392 40.2 47.1 39.868C46.808 39.536 46.8413 39.0307 47.1733 38.7387C49.2773 36.8893 50.4933 37.1027 51.4947 37.608C53.0467 38.392 53.7173 40.0893 53.2453 42.0387C52.8853 43.5533 51.9347 44.9573 50.5693 45.988C49.932 46.4613 49.2413 46.8533 48.5133 47.1547C48.168 47.3 47.8067 47.4333 47.4427 47.5467C47.332 47.5813 47.2253 47.608 47.132 47.6307C47.0733 47.6453 46.9973 47.6627 46.948 47.6787C46.1813 49.2787 45.944 49.88 46.0773 51.448C46.1147 51.888 45.788 52.2747 45.348 52.312C45.324 52.3173 45.3013 52.3187 45.2787 52.3187Z" fill="black"/>
<path d="M35.8853 53.4988C35.46 53.4988 35.1067 53.1641 35.0867 52.7348C35.044 51.7961 35.0347 51.3241 35.0613 50.6801C33.4587 50.9894 31.8267 50.7054 30.568 50.4854C28.5347 50.1268 26.9547 49.4028 25.7373 48.2708C23.5 46.1868 22.456 42.8081 22.872 38.9988C23.028 37.5868 23.6093 35.4854 24.4293 33.3774C24.5893 32.9654 25.0533 32.7614 25.4653 32.9214C25.8773 33.0814 26.0813 33.5454 25.9213 33.9574C25.012 36.2961 24.572 38.1854 24.4627 39.1734C24.1013 42.4734 24.9627 45.3628 26.828 47.0988C27.8253 48.0268 29.1013 48.6014 30.844 48.9081C32.6253 49.2188 34.216 49.4281 35.6213 48.8534C35.876 48.7494 36.1667 48.7841 36.3907 48.9441C36.6147 49.1054 36.74 49.3694 36.7227 49.6441C36.6373 50.9854 36.6227 51.2814 36.6867 52.6574C36.7067 53.0988 36.3653 53.4734 35.924 53.4934C35.9093 53.4988 35.8973 53.4988 35.8853 53.4988Z" fill="black"/>
<path d="M29.124 37.3467C29.6395 37.3467 30.0573 36.8393 30.0573 36.2134C30.0573 35.5874 29.6395 35.08 29.124 35.08C28.6085 35.08 28.1907 35.5874 28.1907 36.2134C28.1907 36.8393 28.6085 37.3467 29.124 37.3467Z" fill="black"/>
<path d="M33.6573 37.66C34.1728 37.66 34.5907 37.1526 34.5907 36.5266C34.5907 35.9007 34.1728 35.3933 33.6573 35.3933C33.1419 35.3933 32.724 35.9007 32.724 36.5266C32.724 37.1526 33.1419 37.66 33.6573 37.66Z" fill="black"/>
</g>
</g>
<circle cx="40" cy="40" r="38.5" stroke="black" stroke-width="3"/>
<defs>
<clipPath id="clip0_846_13245">
<rect width="80" height="192" fill="white"/>
</clipPath>
</defs>
</svg>
