<svg width="80" height="80" viewBox="0 0 80 80" fill="none" xmlns="http://www.w3.org/2000/svg">
<mask id="mask0_846_13257" style="mask-type:alpha" maskUnits="userSpaceOnUse" x="0" y="0" width="80" height="80">
<circle cx="40" cy="40" r="40" fill="white"/>
</mask>
<g mask="url(#mask0_846_13257)">
<rect width="80" height="80" fill="white"/>
<g clip-path="url(#clip0_846_13257)">
<path d="M45.2493 56C45.3693 57.3467 45.92 60.3893 47.9693 59.9333L48.1893 60.2667C48.0893 62.356 47.0306 63.8293 45.372 65.356C43.6866 66.8827 41.5373 67.8 39.2693 67.9613C37.2693 68.108 35.1426 67.6293 33.6466 66.288C32.1506 64.9467 31.364 63.088 32.3546 61.4947H32.4986C32.9493 61.508 33.364 61.272 33.7453 61.032C34.2306 60.7253 34.644 59.348 34.944 58.9867C35.344 58.468 36.0933 56.6213 36.2986 56H45.2493Z" fill="white"/>
<path d="M58.9773 93.1813C61.9307 102.325 63.9853 109.339 66.684 118.164C66.8173 118.615 67.3507 120.208 67.104 120.607C66.9387 120.873 66.6613 121.044 66.3907 121.197C64.9107 122.039 63.2947 122.109 61.6253 122.445L55.4293 123.679C46.5613 125.269 37.6613 125.659 28.7773 124.16L27.1013 123.964L21.368 122.867C20.8507 122.768 20.2827 122.636 19.98 122.2C19.7294 121.843 19.7307 121.372 19.7493 120.936C19.8253 119.203 20.0253 117.483 20.2253 115.761L21.8027 102.161C22.4787 96.3347 23.156 90.4987 24.0773 84.708L24.0133 84.688C22.4627 84.1547 20.936 83.5626 19.408 82.9692C19.1973 82.9092 19.008 82.792 18.8587 82.632C18.5587 82.2453 18.816 81.6907 19.0733 81.2733C21.3453 77.58 23.288 73.6947 24.8813 69.6613C26.0973 66.5813 27.3667 63.116 30.3347 61.648L36.5373 62.356L48.208 59.2C50.2493 59.7466 51.924 61.2106 53.2987 62.8173C55.036 64.848 56.4133 67.1613 57.3733 69.656C59.4973 75.18 59.4987 81.4067 62.06 86.7427C60.8453 87.1027 59.612 87.3919 58.3653 87.6119L58.9773 93.1813Z" fill="white"/>
<path d="M36.2067 63.132C36.3067 64.504 36.6813 65.8414 37.3067 67.0667C37.36 67.1947 37.4467 67.3054 37.5573 67.388C37.7533 67.508 38.008 67.4347 38.224 67.356C40.1747 66.648 42.0627 65.776 43.8667 64.7507C44.7867 64.228 45.7173 63.6334 46.2667 62.7307C46.7867 61.8787 46.9107 60.852 47.0227 59.8614L47.2613 57.7454C47.284 57.6374 47.2733 57.5254 47.2293 57.4254C47.112 57.2227 46.8093 57.2694 46.588 57.344C43.0133 58.5587 39.5773 60.1907 36.2067 63.132Z" fill="white"/>
<path d="M35.0667 58.12C34.6787 58.8293 34.2787 59.5946 34.348 60.4C34.4174 61.2053 35.1787 62 35.9587 61.7893C36.004 62.7453 35.3294 63.5653 34.6947 64.2813L33.044 66.148C32.9827 66.2307 32.9 66.2947 32.804 66.332C32.5747 66.3973 32.3827 66.1547 32.2707 65.9426C31.572 64.624 31.0547 63.2173 30.7334 61.76C30.66 61.5573 30.652 61.3373 30.708 61.1293C30.7654 60.9213 30.884 60.736 31.0507 60.5986C31.8987 59.6333 32.8854 58.7973 33.8987 58.0066C34.1454 57.8133 34.432 57.6066 34.7414 57.6466C35.0507 57.6866 35.3 58.104 35.0667 58.12Z" fill="white"/>
<path d="M52.5173 88.932C50.904 88.932 49.2853 88.8187 47.6653 88.5907C47.2613 88.5333 46.9653 88.1827 46.9773 87.776L47.3413 75C47.3533 74.5587 47.7213 74.2067 48.164 74.2227C48.6053 74.2347 48.9533 74.604 48.9413 75.0453L48.5973 87.0987C52.756 87.5947 56.904 87.3013 60.9493 86.2253C59.7707 83.4533 59.1787 80.4813 58.604 77.5973C58.0933 75.032 57.5653 72.3813 56.628 69.9453C55.6987 67.5293 54.3747 65.3067 52.692 63.34C51.1173 61.5 49.5827 60.3987 48.0027 59.976C47.576 59.8613 47.3227 59.4227 47.4373 58.996C47.552 58.5693 47.9907 58.316 48.4173 58.4307C50.32 58.94 52.1173 60.2067 53.9093 62.3013C55.7107 64.4067 57.128 66.7867 58.1227 69.3733C59.108 71.9373 59.6507 74.6573 60.1747 77.288C60.8187 80.5187 61.4253 83.5707 62.784 86.4013C62.8853 86.6133 62.8893 86.8573 62.7933 87.072C62.6973 87.2867 62.5133 87.448 62.2893 87.5147C59.0827 88.456 55.812 88.932 52.5173 88.932Z" fill="black"/>
<path d="M24.0187 85.4973C23.932 85.4973 23.8453 85.4827 23.7587 85.4533C22.204 84.92 20.6547 84.3187 19.156 83.736L19.1533 83.7347C18.8187 83.6307 18.516 83.4413 18.2773 83.184C18.2613 83.1667 18.2467 83.1493 18.232 83.1307C17.776 82.5427 17.832 81.78 18.3973 80.8613C20.6373 77.2187 22.5707 73.3533 24.1427 69.3747L24.2813 69.0213C25.4867 65.9573 26.8533 62.4853 29.9853 60.9373C30.3813 60.7413 30.8613 60.904 31.0573 61.3C31.2533 61.696 31.0907 62.176 30.6947 62.372C28.1173 63.6453 26.924 66.676 25.7707 69.6067L25.6307 69.9613C24.0253 74.0267 22.0493 77.976 19.76 81.6987C19.608 81.9453 19.556 82.0907 19.5387 82.1653C19.568 82.1827 19.6 82.1973 19.6347 82.2067C19.6587 82.2133 19.6813 82.2213 19.704 82.2293L19.736 82.2413C21.22 82.8173 22.7547 83.4133 24.2787 83.936C24.696 84.08 24.9187 84.5347 24.776 84.952C24.6613 85.2893 24.3507 85.4973 24.0187 85.4973Z" fill="black"/>
<path d="M26.0227 124.565C25.9733 124.565 25.9227 124.56 25.872 124.551L21.2227 123.661C20.6973 123.556 19.832 123.381 19.3307 122.669C18.9387 122.111 18.9307 121.468 18.9547 120.911C19.032 119.148 19.2373 117.384 19.4347 115.679L21.0507 101.744C22.1493 92.34 23.284 82.6147 25.4947 73.232C25.596 72.8027 26.0253 72.5347 26.4573 72.6374C26.8867 72.7387 27.1533 73.1694 27.052 73.6C24.8627 82.8934 23.7333 92.572 22.64 101.932L21.024 115.865C20.8293 117.544 20.628 119.279 20.552 120.983C20.5427 121.195 20.5253 121.592 20.6387 121.752C20.772 121.941 21.2467 122.037 21.5293 122.093L26.1707 122.981C26.604 123.064 26.8893 123.484 26.8053 123.917C26.7347 124.299 26.4 124.565 26.0227 124.565Z" fill="black"/>
<path d="M37.8 68.2507C37.5907 68.2507 37.3613 68.2054 37.14 68.0694C37.12 68.0574 37.1013 68.044 37.0827 68.0307C36.864 67.8694 36.692 67.6534 36.5827 67.4054C35.912 66.0854 35.5173 64.6667 35.4093 63.1893C35.3907 62.9387 35.492 62.6933 35.6813 62.528C38.6973 59.896 41.9827 58.0627 46.332 56.5853C47.1573 56.3067 47.6947 56.6293 47.9227 57.0227C47.9373 57.0493 47.9507 57.076 47.9627 57.1027C48.068 57.344 48.0987 57.6053 48.0533 57.864L47.8187 59.9493C47.7093 60.92 47.572 62.1267 46.9507 63.1453C46.288 64.2347 45.216 64.9027 44.2627 65.444C42.424 66.4894 40.4853 67.384 38.4973 68.1054C38.3653 68.156 38.104 68.2507 37.8 68.2507ZM37.0413 63.4693C37.1667 64.56 37.4773 65.6107 37.9667 66.5987C39.864 65.9093 41.716 65.0533 43.472 64.056C44.2507 63.6133 45.12 63.0787 45.584 62.316C46.0227 61.5987 46.1267 60.6707 46.228 59.7733L46.3987 58.2573C42.6253 59.584 39.7067 61.2093 37.0413 63.4693Z" fill="black"/>
<path d="M32.792 67.1987C32.4707 67.1987 31.9934 67.0613 31.6294 66.3733C30.9 64.9973 30.36 63.528 30.0227 62.0066C29.9454 61.7226 29.9267 61.432 29.9667 61.1413C29.972 61.104 29.98 61.068 29.9894 61.032C30.0894 60.6786 30.28 60.356 30.5387 60.0973C31.432 59.12 32.42 58.2213 33.4774 57.4253C33.752 57.212 34.256 56.8213 34.9134 56.9093C35.4307 56.9786 36.1707 57.4986 36.1494 58.1586C36.1414 58.3986 36.04 58.6106 35.876 58.76C35.8374 58.8266 35.7987 58.8933 35.76 58.9613C35.472 59.46 35.1734 59.976 35.208 60.3933C35.224 60.5866 35.364 60.8053 36.2614 61.0853C36.5827 61.1853 36.8067 61.476 36.8227 61.812C36.884 63.1493 35.9294 64.228 35.3587 64.872L33.7254 66.7173C33.5787 66.904 33.384 67.0493 33.1627 67.136C33.1374 67.1453 33.112 67.1547 33.0867 67.1613C33.0267 67.176 32.9227 67.1987 32.792 67.1987ZM31.548 61.416C31.5454 61.476 31.5534 61.5346 31.5694 61.5933C31.5734 61.6093 31.5774 61.6253 31.5814 61.6413C31.8587 62.9013 32.2894 64.1213 32.864 65.2746L34.1627 63.808C34.5734 63.344 34.976 62.86 35.1454 62.3813C34.4894 62.1 33.7054 61.576 33.6174 60.5253C33.576 60.0306 33.6854 59.5773 33.8587 59.16C33.0934 59.7826 32.3734 60.4626 31.7094 61.1906C31.6987 61.2026 31.688 61.2133 31.676 61.2253C31.62 61.28 31.576 61.3453 31.548 61.416Z" fill="black"/>
<path d="M35 69.6C35.405 69.6 35.7334 69.2717 35.7334 68.8667C35.7334 68.4617 35.405 68.1333 35 68.1333C34.595 68.1333 34.2667 68.4617 34.2667 68.8667C34.2667 69.2717 34.595 69.6 35 69.6Z" fill="black"/>
<path d="M34.4667 74.6667C34.8717 74.6667 35.2 74.3383 35.2 73.9333C35.2 73.5283 34.8717 73.2 34.4667 73.2C34.0617 73.2 33.7333 73.5283 33.7333 73.9333C33.7333 74.3383 34.0617 74.6667 34.4667 74.6667Z" fill="black"/>
<path d="M46.8345 43.4987C47.7585 42.4107 47.4719 40.5267 46.2665 39.7654C45.8345 39.4907 45.2879 39.32 45.0519 38.8667C44.7852 38.3667 45.0265 37.768 45.1665 37.2214C45.1665 37.204 45.1759 37.1854 45.1812 37.168C45.5812 35.52 43.6972 34.2974 42.3252 35.2947C40.6119 36.54 38.6652 37.428 36.6012 37.9067C35.5345 38.152 34.2239 38.2 33.5652 37.328C33.1759 36.8107 33.0825 36.0294 32.0985 36.1027C31.8119 36.1267 31.5359 36.2267 31.2985 36.3907C29.5372 37.5787 27.5225 38.3347 25.4145 38.6C24.8252 38.6734 24.2145 38.7067 23.6452 38.5374C22.0105 38.0507 21.2679 35.9694 21.7612 34.3374C22.2545 32.7054 23.6479 31.4987 25.1199 30.6347C26.0319 30.1014 27.0479 29.6107 27.5972 28.7054C27.9199 28.172 28.0465 27.5373 28.3705 27.0053C28.6945 26.4733 29.2012 26.072 29.7172 25.7094C32.4972 23.7854 35.8212 22.8067 39.1999 22.9147C41.1999 22.984 43.5505 23.788 43.9825 25.7374L47.0492 27.0294C49.4092 27.392 51.8092 28.1867 53.4799 29.8934C55.1505 31.6 55.8799 34.388 54.6799 36.4534C54.5225 36.72 54.3279 37.0027 54.3359 37.3174C54.3465 37.7174 54.6812 38.032 54.9585 38.328C55.4439 38.8534 55.8132 39.4747 56.0412 40.152C56.2692 40.8294 56.3519 41.5467 56.2839 42.2587C56.2212 42.8774 56.0172 43.5174 55.5532 43.9267C55.0892 44.336 54.2985 44.42 53.8599 43.98L47.2065 45L46.8345 43.4987Z" fill="black"/>
<path d="M25.1747 38.6694C24.3147 40.8814 23.7974 42.8787 23.6667 44.088C23.3374 47.1334 23.952 50.5174 26.2814 52.6867C27.5227 53.8414 29.06 54.4094 30.704 54.6987C32.4187 55.0014 34.2587 55.2774 35.9227 54.5974C35.8347 55.9854 35.8214 56.976 35.8854 58.3654L45.2854 57.3227C45.1334 55.4974 45.472 53.932 46.2667 52.2814C46.4467 51.908 46.8334 51.912 47.216 51.7907C47.556 51.684 47.8894 51.5614 48.2187 51.4227C48.8867 51.1454 49.5174 50.7867 50.0987 50.356C51.248 49.488 52.144 48.2694 52.48 46.856C52.7854 45.5747 52.5707 44.0494 51.1467 43.328C50.1427 42.8214 49.2427 43.0014 47.7134 44.3454L46.8467 43.5027C47.7707 42.4147 47.484 40.5307 46.2787 39.7694C45.8467 39.4947 45.3 39.324 45.064 38.8707C44.7974 38.3707 45.0387 37.772 45.1787 37.2254C45.1787 37.208 45.188 37.1894 45.1934 37.172C45.5934 35.524 43.7094 34.3014 42.3374 35.2987C40.624 36.544 38.6774 37.432 36.6134 37.9107C35.5467 38.156 34.236 38.204 33.5774 37.332C33.188 36.8147 33.0947 36.0334 32.1107 36.1067C31.824 36.1307 31.548 36.2307 31.3107 36.3947C29.5454 37.5827 27.5254 38.3374 25.4147 38.6" fill="white"/>
<path d="M54.6293 45.0773C54.1293 45.0773 53.644 44.8999 53.2893 44.5452C52.9773 44.2319 52.9786 43.7252 53.2906 43.4132C53.604 43.1012 54.1106 43.1026 54.4226 43.4146C54.5226 43.5146 54.8361 43.4892 55.0201 43.3266C55.2667 43.1092 55.4307 42.7012 55.4841 42.1772C55.5414 41.5772 55.4733 40.9812 55.2786 40.4066C55.0853 39.8319 54.7786 39.316 54.3666 38.8707L54.2986 38.7986C53.9826 38.4652 53.5494 38.0092 53.5321 37.3386C53.5187 36.8252 53.76 36.4239 53.936 36.1306L53.9866 36.0466C55.048 34.2186 54.2226 31.7987 52.904 30.4533C51.5933 29.1147 49.5813 28.2292 46.924 27.8199C46.4866 27.7532 46.188 27.344 46.2546 26.908C46.3213 26.472 46.7306 26.172 47.1666 26.2387C50.1746 26.7013 52.4893 27.7426 54.048 29.3332C54.9933 30.2986 55.6641 31.5573 55.9361 32.8773C56.2307 34.3053 56.0293 35.7173 55.368 36.856L55.308 36.9559C55.2466 37.0572 55.1454 37.2253 55.1334 37.2947C55.1614 37.384 55.348 37.5799 55.46 37.6986L55.5387 37.7812C56.1081 38.3972 56.5294 39.1066 56.7961 39.8959C57.0627 40.6852 57.1561 41.5053 57.0774 42.3347C56.9814 43.2787 56.6374 44.0346 56.0801 44.5266C55.6627 44.8932 55.1386 45.0773 54.6293 45.0773Z" fill="black"/>
<path d="M46.8346 44.2987C46.652 44.2987 46.468 44.236 46.3173 44.108C45.98 43.8213 45.94 43.3173 46.2253 42.98C46.512 42.6427 46.636 42.1373 46.5586 41.628C46.4813 41.12 46.212 40.676 45.84 40.4413C45.748 40.3827 45.64 40.3253 45.5253 40.264C45.1266 40.052 44.6293 39.7867 44.3426 39.236C43.9693 38.536 44.176 37.7987 44.328 37.2587C44.3466 37.192 44.3653 37.1253 44.3826 37.06C44.3906 37.0173 44.4013 36.9787 44.412 36.9467C44.5426 36.3387 44.1253 36.004 43.992 35.9147C43.7 35.7187 43.2333 35.624 42.7973 35.94C40.9866 37.256 38.964 38.1787 36.784 38.684C35.004 39.0933 33.6706 38.7907 32.9293 37.808C32.7973 37.6333 32.7 37.4547 32.6146 37.2973C32.388 36.8813 32.38 36.8813 32.16 36.8987C32.02 36.9107 31.8786 36.9613 31.7573 37.0453C29.892 38.3027 27.7373 39.112 25.5173 39.3907C24.8906 39.4693 24.152 39.5187 23.42 39.3013C22.5546 39.044 21.82 38.4227 21.3506 37.5533C20.7906 36.5133 20.6586 35.224 20.9973 34.1027C21.48 32.5067 22.7306 31.1067 24.7173 29.9413C24.84 29.8693 24.9626 29.8 25.0866 29.7293C25.8373 29.3013 26.5453 28.8973 26.916 28.2867C27.04 28.0827 27.136 27.832 27.2386 27.5667C27.3626 27.2453 27.4906 26.9133 27.6906 26.5853C28.0933 25.9227 28.684 25.456 29.26 25.0507C32.1653 23.04 35.7026 21.9987 39.228 22.1107C41.448 22.188 44.2293 23.1373 44.7666 25.56C44.8626 25.992 44.5906 26.4187 44.1586 26.5147C43.728 26.6093 43.3 26.3387 43.204 25.9067C42.8866 24.4747 40.952 23.772 39.1746 23.7107C35.992 23.6067 32.7946 24.5507 30.1746 26.364C29.744 26.6667 29.3066 27.0067 29.056 27.4187C28.9306 27.624 28.8333 27.876 28.7306 28.1427C28.608 28.4613 28.4813 28.7907 28.284 29.116C27.6986 30.0813 26.732 30.6333 25.8786 31.1187C25.76 31.1867 25.6426 31.2533 25.5253 31.3213C23.8986 32.276 22.8906 33.368 22.528 34.5653C22.3133 35.2773 22.4013 36.1307 22.7586 36.7933C22.9466 37.1413 23.292 37.5933 23.8746 37.7667C24.324 37.9 24.856 37.86 25.3173 37.8027C27.2893 37.5547 29.204 36.836 30.8533 35.724C31.196 35.4867 31.6066 35.3387 32.0333 35.3027C33.2986 35.2067 33.768 36.0693 34.02 36.532C34.0853 36.652 34.1466 36.7653 34.2066 36.844C34.6653 37.452 35.9106 37.2427 36.424 37.124C38.3933 36.668 40.2213 35.8333 41.8573 34.644C42.7653 33.984 43.9533 33.96 44.884 34.5827C45.7986 35.1947 46.2213 36.2827 45.9613 37.352C45.9573 37.368 45.9533 37.3827 45.948 37.3987L45.9466 37.4013C45.9453 37.4053 45.944 37.4107 45.944 37.4147C45.9213 37.504 45.896 37.5947 45.8706 37.6867C45.788 37.98 45.6866 38.3453 45.7613 38.4853C45.8226 38.604 46.056 38.728 46.2813 38.848C46.4173 38.92 46.5573 38.9947 46.7 39.0853C47.468 39.5707 47.9946 40.408 48.144 41.3813C48.2933 42.3573 48.04 43.316 47.4493 44.0107C47.2866 44.2027 47.0613 44.2987 46.8346 44.2987Z" fill="black"/>
<path d="M45.2787 57.3187C44.868 57.3187 44.5173 57.004 44.4827 56.5853C44.3133 54.5773 44.704 53.6587 45.5333 51.9307C45.8373 51.3 46.412 51.1613 46.756 51.0787C46.8307 51.06 46.9013 51.044 46.9627 51.024C47.28 50.924 47.5933 50.8093 47.896 50.6813C48.508 50.428 49.0827 50.1013 49.6107 49.7093C50.6747 48.9053 51.416 47.824 51.6907 46.6667C51.832 46.084 52.024 44.668 50.7747 44.0373C50.2293 43.7613 49.6947 43.6533 48.2293 44.9413C47.8973 45.2333 47.392 45.2 47.1 44.868C46.808 44.536 46.8413 44.0307 47.1733 43.7387C49.2773 41.8893 50.4933 42.1027 51.4947 42.608C53.0467 43.392 53.7173 45.0893 53.2453 47.0387C52.8853 48.5533 51.9347 49.9573 50.5693 50.988C49.932 51.4613 49.2413 51.8533 48.5133 52.1547C48.168 52.3 47.8067 52.4333 47.4427 52.5467C47.332 52.5813 47.2253 52.608 47.132 52.6307C47.0733 52.6453 46.9973 52.6627 46.948 52.6787C46.1813 54.2787 45.944 54.88 46.0773 56.448C46.1147 56.888 45.788 57.2747 45.348 57.312C45.324 57.3173 45.3013 57.3187 45.2787 57.3187Z" fill="black"/>
<path d="M35.8853 58.4988C35.46 58.4988 35.1067 58.1641 35.0867 57.7348C35.044 56.7961 35.0347 56.3241 35.0613 55.6801C33.4587 55.9894 31.8267 55.7054 30.568 55.4854C28.5347 55.1268 26.9547 54.4028 25.7373 53.2708C23.5 51.1868 22.456 47.8081 22.872 43.9988C23.028 42.5868 23.6093 40.4854 24.4293 38.3774C24.5893 37.9654 25.0533 37.7614 25.4653 37.9214C25.8773 38.0814 26.0813 38.5454 25.9213 38.9574C25.012 41.2961 24.572 43.1854 24.4627 44.1734C24.1013 47.4734 24.9627 50.3628 26.828 52.0988C27.8253 53.0268 29.1013 53.6014 30.844 53.9081C32.6253 54.2188 34.216 54.4281 35.6213 53.8534C35.876 53.7494 36.1667 53.7841 36.3907 53.9441C36.6147 54.1054 36.74 54.3694 36.7227 54.6441C36.6373 55.9854 36.6227 56.2814 36.6867 57.6574C36.7067 58.0988 36.3653 58.4734 35.924 58.4934C35.9093 58.4988 35.8973 58.4988 35.8853 58.4988Z" fill="black"/>
<path d="M29.124 42.3467C29.6395 42.3467 30.0573 41.8393 30.0573 41.2134C30.0573 40.5874 29.6395 40.08 29.124 40.08C28.6085 40.08 28.1907 40.5874 28.1907 41.2134C28.1907 41.8393 28.6085 42.3467 29.124 42.3467Z" fill="black"/>
<path d="M33.6573 42.66C34.1728 42.66 34.5907 42.1526 34.5907 41.5266C34.5907 40.9007 34.1728 40.3933 33.6573 40.3933C33.1419 40.3933 32.724 40.9007 32.724 41.5266C32.724 42.1526 33.1419 42.66 33.6573 42.66Z" fill="black"/>
<g clip-path="url(#clip1_846_13257)">
<mask id="mask1_846_13257" style="mask-type:luminance" maskUnits="userSpaceOnUse" x="0" y="5" width="80" height="80">
<path d="M80 5H0V85H80V5Z" fill="white"/>
</mask>
<g mask="url(#mask1_846_13257)">
<path d="M27.371 11.8112C27.001 11.5212 24.821 12.0612 24.801 12.6612C24.771 13.7212 26.651 14.2412 27.671 14.5412" fill="#FF5912"/>
<path d="M27.6709 15.3393C27.5909 15.3393 27.5209 15.3293 27.4409 15.3093L27.3209 15.2693C26.0609 14.8893 23.9509 14.2693 24.0009 12.6293C24.0209 12.1193 24.3709 11.6993 25.0509 11.3793C25.0709 11.3793 27.0109 10.5093 27.8609 11.1793C28.2109 11.4493 28.2709 11.9593 28.0009 12.2993C27.7609 12.5993 27.3509 12.6893 27.0209 12.5193C26.7409 12.4993 26.0509 12.6593 25.6909 12.8393C25.8709 13.0193 26.3809 13.3093 27.7809 13.7293L27.9009 13.7693C28.3209 13.8993 28.5609 14.3393 28.4409 14.7693C28.3409 15.1193 28.0209 15.3393 27.6709 15.3393Z" fill="black"/>
<path d="M49.451 14.0719C48.071 14.9719 46.601 15.7219 45.011 16.1219C42.661 16.7219 40.001 16.4719 38.101 14.9619C38.191 14.8519 38.301 14.6919 38.421 14.5019C39.521 12.7719 39.591 10.5519 38.521 8.80192C38.471 8.72192 38.421 8.64192 38.371 8.57192C36.871 6.51192 33.771 5.10193 31.471 6.17192C28.281 7.65192 27.311 11.3119 27.471 12.4419C27.661 13.8419 28.211 14.8019 29.651 15.7719L29.741 16.4019L29.771 16.6719C29.601 16.9919 29.331 17.2719 29.001 17.4419C28.961 17.5119 25.131 21.0819 27.311 24.7519C27.661 25.3419 28.221 26.2119 29.281 26.6519C29.911 26.7619 30.521 27.0019 31.051 27.3619V27.4819C35.901 29.6719 40.531 29.0519 45.061 26.2819C48.861 23.9619 51.441 19.6619 51.581 15.2619C51.611 14.1519 50.381 13.4619 49.451 14.0619V14.0719Z" fill="#FFD412"/>
<path d="M29.1598 27.4418C29.0498 27.4418 28.9398 27.4218 28.8298 27.3718C27.5998 26.8118 26.9198 25.6618 26.6198 25.1618C24.6398 21.8218 26.9198 18.3118 28.4098 16.9318C28.7298 16.6318 29.2398 16.6518 29.5398 16.9718C29.8398 17.2918 29.8298 17.8018 29.4998 18.1018C29.3598 18.2318 26.1698 21.2918 27.9898 24.3518C28.3498 24.9518 28.7998 25.6118 29.4898 25.9218C29.8898 26.1018 30.0698 26.5818 29.8898 26.9818C29.7598 27.2718 29.4698 27.4518 29.1598 27.4518V27.4418Z" fill="black"/>
<path d="M36.9102 29.6106C34.8502 29.6106 32.7902 29.1406 30.7202 28.2006C30.3202 28.0206 30.1402 27.5406 30.3202 27.1406C30.5002 26.7406 30.9802 26.5606 31.3802 26.7406C35.7702 28.7206 40.1102 28.3506 44.6302 25.5906C48.2302 23.3906 50.6402 19.3306 50.7602 15.2306C50.7602 14.9206 50.5602 14.7706 50.4702 14.7106C50.3802 14.6606 50.1402 14.5606 49.8702 14.7306C48.2202 15.8006 46.6902 16.5006 45.1902 16.8806C42.3702 17.6006 39.5202 17.1106 37.5802 15.5806C37.4102 15.4506 37.3102 15.2606 37.2802 15.0406C37.2602 14.8306 37.3202 14.6206 37.4502 14.4506C37.5302 14.3506 37.6202 14.2206 37.7202 14.0606C38.6702 12.5806 38.7002 10.6706 37.8102 9.21064C37.7702 9.14064 37.7302 9.08064 37.6902 9.03064C36.4102 7.26064 33.7302 5.98064 31.7802 6.88064C28.9602 8.19064 28.1202 11.4606 28.2302 12.3206C28.3802 13.4006 28.7202 14.2006 30.0702 15.0906C30.4402 15.3306 30.5402 15.8306 30.2902 16.2006C30.0502 16.5706 29.5502 16.6706 29.1802 16.4206C27.6102 15.3806 26.8702 14.2506 26.6402 12.5306C26.4602 11.1806 27.5202 7.09064 31.1002 5.42064C33.8502 4.15064 37.3302 5.81064 38.9802 8.08064C39.0402 8.17064 39.1102 8.26064 39.1702 8.37064C40.3402 10.2906 40.3402 12.7606 39.1702 14.7306C40.6902 15.6206 42.7202 15.8506 44.7802 15.3206C46.1102 14.9806 47.4802 14.3406 48.9802 13.3706C49.6602 12.9306 50.5302 12.9006 51.2302 13.3006C51.9402 13.7006 52.3602 14.4506 52.3402 15.2606C52.2002 19.8806 49.4902 24.4706 45.4402 26.9406C42.5402 28.7106 39.7002 29.5906 36.8802 29.5906L36.9102 29.6106Z" fill="black"/>
<path d="M31.8607 11.52H31.8407C31.7607 11.52 31.0507 11.46 31.0707 10.57C31.0707 10.14 31.4207 9.76 31.8607 9.75C31.9607 9.75 32.3707 9.77 32.5807 10.17C32.6707 10.3 32.7207 10.47 32.7007 10.65C32.6407 11.47 32.0207 11.52 31.8707 11.52H31.8607Z" fill="black"/>
</g>
</g>
</g>
</g>
<circle cx="40" cy="40" r="38.5" stroke="black" stroke-width="3"/>
<defs>
<clipPath id="clip0_846_13257">
<rect width="80" height="192" fill="white" transform="translate(0 5)"/>
</clipPath>
<clipPath id="clip1_846_13257">
<rect width="80" height="80" fill="white" transform="translate(0 5)"/>
</clipPath>
</defs>
</svg>
