<svg width="80" height="80" viewBox="0 0 80 80" fill="none" xmlns="http://www.w3.org/2000/svg">
<mask id="mask0_846_13249" style="mask-type:alpha" maskUnits="userSpaceOnUse" x="0" y="0" width="80" height="80">
<circle cx="40" cy="40" r="40" fill="white"/>
</mask>
<g mask="url(#mask0_846_13249)">
<rect width="80" height="80" fill="white"/>
<g clip-path="url(#clip0_846_13249)">
<path d="M45.2493 51C45.3693 52.3467 45.92 55.3893 47.9693 54.9333L48.1893 55.2667C48.0893 57.356 47.0306 58.8293 45.372 60.356C43.6866 61.8827 41.5373 62.8 39.2693 62.9613C37.2693 63.108 35.1426 62.6293 33.6466 61.288C32.1506 59.9467 31.364 58.088 32.3546 56.4947H32.4986C32.9493 56.508 33.364 56.272 33.7453 56.032C34.2306 55.7253 35.232 54.468 35.532 54.1067C35.932 53.588 36.0946 51.6213 36.3 51H45.2493Z" fill="white"/>
<path d="M48.208 54.2C50.5667 54.832 52.396 56.6493 53.8693 58.5106C55.476 60.5426 56.736 62.8253 57.6 65.2667C58.084 66.6307 58.8493 68.1653 59.1653 69.576L59.5867 70.8666C61.8693 80.6972 62.2773 90.8373 62.4267 100.947L62.56 101.099C63.3813 104.104 66.448 111.704 67.1147 114.904C67.136 115.177 67.0907 115.452 66.9813 115.704C65.648 117.304 63.3813 116.904 61.628 117.448L55.432 118.681C46.564 120.272 37.664 120.661 28.78 119.163L27.104 118.967L21.3707 117.869C20.8533 117.771 20.2853 117.639 19.9827 117.203C19.732 116.845 19.7333 116.375 19.752 115.939C19.828 114.205 20.028 112.485 20.228 110.764L21.1427 102.879H21.0733C19.7187 102.713 18.6307 102.549 17.276 102.385C17.8373 96.192 18.5573 90.0147 19.436 83.852C20.2 78.4853 21.0893 73.1173 22.668 67.932C24.0707 63.324 26.296 58.5586 30.5213 56.248L36.388 56.648L48.208 54.2Z" fill="white"/>
<path d="M36.4 56.656L37.6774 62.2C39.708 61.4867 41.744 60.772 43.6774 59.8267C44.3734 59.4867 45.072 59.1027 45.576 58.5147C46.172 57.82 46.4387 56.9147 46.6907 56.0307C47.0694 54.6973 47.4507 53.364 47.576 51.9813C45.9254 52.108 44.4 52.8667 42.9227 53.612C40.9614 54.6 39 55.5907 36.4 56.656Z" fill="white"/>
<path d="M35 54L34.4733 54.9653C34.4013 55.168 34.3733 55.384 34.388 55.5987C34.4787 56.22 35.2187 56.476 35.832 56.6054C35.1427 58.26 34.1467 59.7707 32.8987 61.0574C32.208 60.316 31.6827 59.4374 31.3573 58.4774C31.032 57.5174 30.916 56.5 31.0147 55.492L35 53.5C35.248 53.9067 35.1467 54.1227 35 54Z" fill="white"/>
<path d="M59.164 70.376C58.7974 70.376 58.468 70.1227 58.384 69.7507C58.192 68.8947 57.8067 67.9507 57.4334 67.0373C57.2294 66.54 57.02 66.0253 56.8454 65.5347C56.008 63.1693 54.796 60.9733 53.2414 59.0066C52.1067 57.5733 50.3294 55.5973 48 54.972C47.5734 54.8573 47.32 54.4186 47.4347 53.992C47.5494 53.5653 47.988 53.312 48.4147 53.4266C51.2027 54.1733 53.2214 56.4026 54.496 58.0133C56.16 60.1186 57.4587 62.468 58.3534 64.9987C58.5147 65.4533 58.7094 65.928 58.9147 66.4307C59.3134 67.4053 59.724 68.4133 59.9454 69.4C60.0414 69.8307 59.7707 70.2587 59.34 70.356C59.2814 70.3693 59.2227 70.376 59.164 70.376Z" fill="black"/>
<path d="M25.9014 119.543C25.852 119.543 25.8014 119.537 25.7507 119.528L21.224 118.661C20.6987 118.556 19.8334 118.381 19.332 117.669C18.94 117.111 18.932 116.468 18.956 115.911C19.0334 114.148 19.2387 112.384 19.436 110.679L21.052 96.7439C22.1507 87.3399 23.2854 77.6147 25.496 68.232C25.5974 67.8027 26.028 67.5347 26.4587 67.6373C26.888 67.7387 27.1547 68.1693 27.0534 68.6C24.864 77.8932 23.7347 87.5719 22.6414 96.9319L21.0254 110.865C20.8307 112.544 20.6294 114.279 20.5534 115.983C20.544 116.195 20.5267 116.592 20.64 116.752C20.7734 116.941 21.248 117.037 21.5307 117.093L26.0507 117.959C26.484 118.041 26.7694 118.461 26.6854 118.895C26.612 119.276 26.2774 119.543 25.9014 119.543Z" fill="black"/>
<path d="M37.6827 62.996C37.5494 62.996 37.4147 62.9626 37.2974 62.8986C37.0974 62.7893 36.9494 62.6013 36.8974 62.38L35.62 56.836C35.532 56.4547 35.7334 56.0654 36.096 55.916C38.6387 54.8747 40.6 53.8854 42.4974 52.9307L42.5614 52.8987C44.0227 52.1614 45.6787 51.3254 47.5134 51.1854C47.748 51.1667 47.9787 51.2534 48.144 51.4214C48.3094 51.5894 48.392 51.8214 48.3707 52.0547C48.24 53.4974 47.848 54.8774 47.4694 56.2107L47.4574 56.2507C47.2107 57.1174 46.904 58.1947 46.18 59.0374C45.5867 59.7294 44.7947 60.172 44.0254 60.5467C42.0534 61.5106 39.968 62.244 37.9507 62.952C37.8667 62.9813 37.7747 62.996 37.6827 62.996ZM37.332 57.1347L38.256 61.148C39.9707 60.5414 41.7054 59.9 43.3254 59.108C43.8974 58.828 44.544 58.488 44.968 57.9947C45.4627 57.4174 45.696 56.6014 45.92 55.812L45.9307 55.772C46.2054 54.804 46.4694 53.876 46.636 52.94C45.48 53.2174 44.3654 53.7787 43.28 54.3267L43.2147 54.36C41.452 55.2494 39.6294 56.1667 37.332 57.1347Z" fill="black"/>
<path d="M32.8987 61.8573C32.896 61.8573 32.8933 61.8573 32.8907 61.8573C32.672 61.8547 32.4627 61.7627 32.3133 61.6027C31.54 60.7733 30.964 59.808 30.6 58.7333C30.236 57.6587 30.108 56.5427 30.2187 55.4133C30.244 55.148 30.4013 54.9133 30.6347 54.7867L34.9373 52.4667C35.2413 52.3027 35.616 52.352 35.8667 52.5893C36.1173 52.8267 36.188 53.1987 36.0413 53.5107L35.2173 55.264C35.1947 55.3373 35.184 55.4133 35.184 55.4907C35.2093 55.5267 35.364 55.6893 35.9973 55.8227C36.2307 55.872 36.4293 56.0227 36.54 56.2333C36.6507 56.444 36.6627 56.6933 36.5707 56.9133C35.84 58.668 34.7973 60.2493 33.4733 61.6147C33.3227 61.7693 33.1147 61.8573 32.8987 61.8573ZM31.784 55.9867C31.7587 56.7467 31.8707 57.496 32.116 58.2213C32.312 58.8 32.5853 59.3387 32.932 59.832C33.644 58.9933 34.2467 58.076 34.7333 57.0907C34.0667 56.7813 33.6853 56.32 33.596 55.7147C33.5933 55.6947 33.5907 55.676 33.5893 55.656C33.5733 55.4293 33.5893 55.2053 33.636 54.9853L31.784 55.9867Z" fill="black"/>
<path d="M21.0733 103.68C21.0413 103.68 21.008 103.679 20.976 103.675C20.3067 103.593 19.6933 103.511 19.1013 103.431C18.4933 103.349 17.864 103.264 17.18 103.181C16.7507 103.129 16.44 102.745 16.48 102.315C17.04 96.132 17.768 89.8827 18.6453 83.74C19.3867 78.5333 20.2947 72.9867 21.904 67.7C23.8173 61.4387 26.4347 57.5787 30.1427 55.5507C30.5307 55.3387 31.016 55.4814 31.228 55.8694C31.44 56.2574 31.2973 56.7427 30.9093 56.9547C27.592 58.7694 25.216 62.332 23.4333 68.1667C21.856 73.3493 20.96 78.8227 20.228 83.9653C19.3907 89.8267 18.6907 95.7853 18.1427 101.688C18.548 101.74 18.9347 101.792 19.3147 101.844C19.9027 101.923 20.5093 102.005 21.1693 102.085C21.608 102.139 21.92 102.537 21.8667 102.976C21.816 103.383 21.472 103.68 21.0733 103.68Z" fill="black"/>
<path d="M34.1135 120.668C33.7135 120.668 33.3681 120.369 33.3201 119.963C31.8868 107.919 32.6655 95.6667 33.4175 83.8173L35.0975 57.3493C35.1255 56.908 35.5068 56.5773 35.9468 56.6013C36.3881 56.6293 36.7228 57.0093 36.6948 57.4507L35.0148 83.9187C34.2668 95.696 33.4935 107.875 34.9095 119.773C34.9615 120.212 34.6481 120.611 34.2095 120.663C34.1775 120.667 34.1455 120.668 34.1135 120.668Z" fill="black"/>
<path d="M62.4827 106.376C62.4787 106.376 62.4734 106.376 62.4694 106.376L50.8614 106.185C50.4654 106.179 50.1334 105.883 50.0814 105.489C48.5014 93.4586 47.9494 81.2106 48.4414 69.0866C48.4587 68.6453 48.8307 68.304 49.2734 68.32C49.7147 68.3373 50.0587 68.7106 50.04 69.152C49.5614 80.956 50.0787 92.8773 51.5787 104.597L61.6734 104.763C61.668 104.277 61.664 103.793 61.6587 103.311C61.5547 92.604 61.456 82.492 59.0187 71.984C58.9187 71.5533 59.1867 71.124 59.6174 71.024C60.048 70.924 60.4774 71.192 60.5774 71.6226C63.0547 82.3013 63.1534 92.4986 63.2587 103.296C63.2654 104.051 63.2734 104.807 63.2814 105.568C63.284 105.784 63.1987 105.992 63.0454 106.144C62.8974 106.292 62.6934 106.376 62.4827 106.376Z" fill="black"/>
<path d="M36.2452 28.2213C35.2399 27.9853 34.3625 27.384 33.3972 27.0213C31.0225 26.1133 28.1332 26.8 26.4132 28.6666L25.3332 33.4666C24.5332 34.6666 24.3999 36.1333 23.9999 37.6C23.9999 38.0213 22.3785 43.712 26.1332 47.4667C27.4665 48.8 29.1999 49.3333 30.9999 49.7333C32.6145 49.9826 34.3785 50.2333 35.9332 49.6C35.8439 50.988 35.8305 51.9787 35.8945 53.368L45.2945 52.4C45.1412 50.576 45.4772 48.9347 46.2705 47.284C46.4492 46.9107 46.8372 46.9147 47.2199 46.7933C47.5585 46.6867 47.8946 46.564 48.2226 46.4253C48.8906 46.148 49.5212 45.7893 50.1025 45.3587C51.2519 44.4907 52.1466 43.272 52.4839 41.8587C52.7892 40.5773 52.5745 39.052 51.1439 38.3307C50.1412 37.824 49.2412 38.004 47.7119 39.348L47.0532 39.5507C46.2319 39.776 45.4265 39.0013 45.2252 38.1733C45.0239 37.3453 45.2252 36.4813 45.2759 35.6307C45.3719 34.02 44.8932 32.352 43.8279 31.14C42.7625 29.928 41.0905 29.228 39.4959 29.4746" fill="white"/>
<path d="M45 20.7333C48.4293 20.696 53.412 22.816 54.956 25.8733C56.2613 28.4546 56.3547 31.6293 58.1653 33.8853C58.8787 34.7733 59.832 35.4746 60.3933 36.4653C60.9547 37.456 60.9453 38.936 59.9653 39.516C59.1107 40.0226 57.864 39.6493 57.1547 40.3453C56.7547 40.728 56.672 41.3133 56.5547 41.848C56.384 42.628 56.0707 43.4386 55.404 43.8773C54.7373 44.316 53.652 44.16 53.4893 43.344C53.4893 43.344 52 42.5 52.5 41C52.8325 40.0024 52.5572 39.1343 51.5 38.5C49 37 48.7923 39.1363 47.0573 39.544C46.236 39.7693 45.4307 38.9946 45.2293 38.1667C45.028 37.3386 45.2293 36.4746 45.28 35.624C45.376 34.0133 44.8973 32.3453 43.832 31.1333C41.7333 29.2666 39.2 29.6666 37.4667 28.8666C37.4667 28.8666 40.708 27.5826 41.7333 26.3333C42.4853 25.4213 45 20.7333 45 20.7333Z" fill="black"/>
<path d="M44.2294 21.8666C43.4148 23.5213 42.5748 25.2093 41.2601 26.504C39.9454 27.7986 38.0414 28.6453 36.2454 28.224C35.2401 27.988 34.3628 27.3866 33.3974 27.024C31.0228 26.1133 28.1334 26.8 26.4134 28.6666C25.3468 29.8333 25.5268 31.6026 24.6668 32.9333C24.0054 33.956 22.4094 34.616 21.4668 35.3866C21.0934 35.6906 20.6521 35.9853 20.1734 35.9333C19.0414 35.8093 19.0148 34.172 19.3214 33.0746L16.2134 32.816C15.9734 32.8146 15.7361 32.756 15.5228 32.6453C14.8841 32.2453 15.2561 31.1626 15.9228 30.82C16.5894 30.4773 17.4028 30.5533 18.1374 30.3706C20.3868 29.8133 21.2881 27.204 22.2921 25.1146C25.0921 19.2866 31.5494 15.4226 38.0094 15.704C41.0668 15.836 46.2134 17.8373 44.2294 21.8666Z" fill="black"/>
<path d="M46.7693 40.388C46.408 40.388 46.044 40.2866 45.708 40.088C45.0947 39.7253 44.6253 39.0786 44.4507 38.36C44.272 37.6226 44.348 36.92 44.42 36.24C44.444 36.0106 44.468 35.7946 44.48 35.5813C44.568 34.0973 44.1133 32.6706 43.2293 31.6666C42.4573 30.788 41.6427 30.56 40.12 30.7946C39.684 30.8613 39.2747 30.5626 39.208 30.1253C39.1413 29.6893 39.44 29.28 39.8773 29.2133C41.3987 28.9786 43.004 28.9853 44.432 30.6106C45.5907 31.9293 46.1906 33.776 46.0773 35.6773C46.0626 35.9266 46.036 36.1733 46.0106 36.4106C45.9493 36.98 45.892 37.5159 46.0053 37.9852C46.076 38.2785 46.284 38.5706 46.5227 38.712C46.7013 38.8173 46.8107 38.788 46.8467 38.7786C47.2733 38.6626 47.712 38.9146 47.828 39.3413C47.944 39.768 47.692 40.2066 47.2653 40.3226C47.104 40.3653 46.9373 40.388 46.7693 40.388Z" fill="black"/>
<path d="M20.288 36.74C20.2226 36.74 20.1546 36.736 20.0866 36.7293C19.5426 36.6693 19.0946 36.3986 18.788 35.9466C18.3893 35.3573 18.304 34.5506 18.376 33.8L16.1746 33.6173C15.82 33.6106 15.4666 33.52 15.152 33.356C15.1333 33.3466 15.1146 33.336 15.0973 33.324C14.6253 33.028 14.368 32.5213 14.3933 31.932C14.424 31.1946 14.9026 30.4453 15.556 30.1093C16.1 29.8293 16.6786 29.7666 17.188 29.7093C17.46 29.68 17.716 29.6506 17.944 29.5946C19.528 29.2026 20.3653 27.3786 21.176 25.6146C21.308 25.328 21.4386 25.0426 21.5706 24.768C24.5026 18.6653 31.2786 14.6093 38.044 14.904C40.0786 14.992 43.5933 15.9453 44.9373 18.2133C45.432 19.0466 45.8346 20.4186 44.948 22.22C44.1533 23.836 43.2506 25.6666 41.8226 27.0733C40.164 28.7066 37.9573 29.4466 36.064 29.0026C35.3693 28.84 34.7586 28.5386 34.1666 28.2493C33.8053 28.072 33.464 27.904 33.1173 27.7733C31.064 26.9853 28.4946 27.5906 27.0026 29.2093C26.576 29.676 26.4293 30.4013 26.2733 31.1706C26.1133 31.9586 25.9493 32.7733 25.4733 33.5093C24.956 34.3106 24.0546 34.7973 23.1826 35.2693C22.7186 35.52 22.2786 35.7573 21.9746 36.0066C21.5453 36.3546 20.9773 36.74 20.288 36.74ZM15.9933 31.9786C16.0653 32.0026 16.1413 32.016 16.2173 32.016C16.2386 32.016 16.2586 32.0173 16.28 32.0186L19.388 32.2773C19.6253 32.2973 19.8426 32.4213 19.9786 32.6173C20.1146 32.8133 20.156 33.06 20.092 33.2893C19.9 33.9746 19.9106 34.748 20.1146 35.0493C20.156 35.1106 20.188 35.1293 20.2613 35.1373C20.48 35.1613 20.8426 34.8626 20.9626 34.7653C21.384 34.4213 21.9106 34.136 22.4213 33.86C23.116 33.484 23.8346 33.096 24.1293 32.6386C24.44 32.1573 24.5693 31.5226 24.7053 30.8506C24.888 29.9466 25.096 28.9213 25.824 28.1253C27.7746 26.008 31.0066 25.248 33.6853 26.276C34.1 26.432 34.4933 26.6253 34.8733 26.812C35.408 27.0746 35.912 27.3226 36.4293 27.444C38.0586 27.8253 39.704 26.9133 40.7 25.9333C41.936 24.716 42.7373 23.088 43.5133 21.5133C43.9773 20.5706 43.9933 19.7573 43.5626 19.0293C42.692 17.5613 40.04 16.592 37.9773 16.5026C31.828 16.2346 25.6786 19.9186 23.016 25.46C22.888 25.7266 22.7613 26.0026 22.6333 26.2813C21.7106 28.2906 20.664 30.568 18.3333 31.1453C18.0026 31.228 17.68 31.2626 17.368 31.2973C16.96 31.3426 16.5733 31.3853 16.292 31.5293C16.1226 31.6173 16.0066 31.852 15.9933 31.9786Z" fill="black"/>
<path d="M54.58 44.9174C54.2933 44.9174 54.008 44.8641 53.748 44.7561C53.1986 44.5267 52.8173 44.0694 52.7053 43.5014C52.6187 43.0681 52.9 42.6467 53.3333 42.5601C53.7667 42.4734 54.188 42.7547 54.2747 43.1881C54.28 43.2147 54.2867 43.2454 54.3653 43.2787C54.5347 43.3494 54.7973 43.3187 54.964 43.2094C55.336 42.9641 55.6013 42.4627 55.7733 41.6774C55.7866 41.6201 55.7986 41.5614 55.8106 41.5027C55.9253 40.9574 56.068 40.2787 56.6026 39.7667C57.184 39.1961 57.9547 39.1134 58.5733 39.0467C58.9587 39.0054 59.3226 38.9667 59.5573 38.8267C60.0866 38.5134 60.0667 37.5121 59.6973 36.8587C59.404 36.3414 58.96 35.8921 58.4907 35.4161C58.172 35.0934 57.8413 34.7587 57.5413 34.3854C56.3733 32.9307 55.8707 31.1721 55.3853 29.4707C55.056 28.3161 54.744 27.2267 54.2413 26.2334C52.8187 23.4147 49.9693 21.6067 46.9667 21.6067C46.94 21.6067 46.912 21.6067 46.8853 21.6067C46.8827 21.6067 46.88 21.6067 46.876 21.6067C46.4387 21.6067 46.0813 21.2547 46.076 20.8161C46.0707 20.3747 46.4253 20.0121 46.8667 20.0081C46.9 20.0081 46.932 20.0081 46.9653 20.0081C50.5666 20.0081 53.9747 22.1601 55.668 25.5134C56.2387 26.6414 56.5853 27.8574 56.9213 29.0334C57.384 30.6534 57.8213 32.1827 58.7867 33.3854C59.036 33.6947 59.3227 33.9854 59.6267 34.2934C60.1493 34.8227 60.6893 35.3694 61.0867 36.0707C61.452 36.7147 61.62 37.4987 61.5507 38.2214C61.4653 39.1001 61.0466 39.8041 60.3693 40.2041C59.836 40.5201 59.2533 40.5827 58.74 40.6374C58.2906 40.6854 57.9026 40.7267 57.712 40.9147C57.528 41.0907 57.4533 41.4494 57.3733 41.8294C57.36 41.8921 57.3467 41.9547 57.3333 42.0174C57.068 43.2307 56.58 44.0574 55.8413 44.5441C55.472 44.7907 55.0227 44.9174 54.58 44.9174Z" fill="black"/>
<path d="M45.2787 52.3185C44.868 52.3185 44.5173 52.0025 44.4827 51.5852C44.3133 49.5772 44.704 48.6572 45.5333 46.9305C45.8373 46.2999 46.412 46.1612 46.756 46.0785C46.8307 46.0599 46.9013 46.0439 46.9627 46.0239C47.28 45.9239 47.5933 45.8092 47.896 45.6812C48.508 45.4279 49.0827 45.1012 49.6107 44.7092C50.6747 43.9052 51.416 42.8225 51.6907 41.6665C51.832 41.0839 52.024 39.6679 50.7747 39.0372C50.2293 38.7612 49.6947 38.6532 48.2293 39.9412C47.8973 40.2332 47.392 40.1999 47.1 39.8679C46.808 39.5359 46.8413 39.0305 47.1733 38.7385C49.2773 36.8892 50.4947 37.1025 51.4947 37.6079C53.0467 38.3919 53.7173 40.0892 53.2453 42.0385C52.8853 43.5532 51.9347 44.9572 50.5693 45.9879C49.932 46.4612 49.2413 46.8532 48.5133 47.1545C48.168 47.2999 47.8067 47.4332 47.4427 47.5465C47.332 47.5812 47.2253 47.6079 47.132 47.6305C47.0733 47.6452 46.9973 47.6625 46.948 47.6785C46.1813 49.2785 45.944 49.8799 46.0773 51.4479C46.1147 51.8879 45.788 52.2759 45.348 52.3119C45.324 52.3172 45.3013 52.3185 45.2787 52.3185Z" fill="black"/>
<path d="M35.884 53.4987C35.4586 53.4987 35.1053 53.1641 35.0853 52.7347C35.0426 51.7961 35.0333 51.3241 35.06 50.6801C33.4573 50.9894 31.8253 50.7054 30.5666 50.4854C28.5333 50.1267 26.9533 49.4027 25.736 48.2707C23.4986 46.1867 22.4546 42.8081 22.8706 38.9987C23.0266 37.5867 23.608 35.4854 24.428 33.3774C24.588 32.9654 25.052 32.7614 25.464 32.9214C25.876 33.0814 26.08 33.5454 25.92 33.9574C25.0106 36.2961 24.5706 38.1854 24.4613 39.1734C24.1 42.4734 24.9613 45.3627 26.8266 47.0987C27.824 48.0267 29.1 48.6014 30.8426 48.9081C32.624 49.2187 34.2133 49.4281 35.62 48.8534C35.8746 48.7494 36.1653 48.7841 36.3893 48.9441C36.6133 49.1041 36.7386 49.3694 36.7213 49.6441C36.636 50.9854 36.6213 51.2814 36.6853 52.6574C36.7053 53.0987 36.364 53.4734 35.9226 53.4934C35.9093 53.4987 35.8973 53.4987 35.884 53.4987Z" fill="black"/>
<path d="M29.124 37.3467C29.6395 37.3467 30.0573 36.8393 30.0573 36.2134C30.0573 35.5874 29.6395 35.08 29.124 35.08C28.6085 35.08 28.1907 35.5874 28.1907 36.2134C28.1907 36.8393 28.6085 37.3467 29.124 37.3467Z" fill="black"/>
<path d="M33.6573 37.66C34.1728 37.66 34.5907 37.1526 34.5907 36.5266C34.5907 35.9007 34.1728 35.3933 33.6573 35.3933C33.1419 35.3933 32.724 35.9007 32.724 36.5266C32.724 37.1526 33.1419 37.66 33.6573 37.66Z" fill="black"/>
</g>
</g>
<circle cx="40" cy="40" r="38.5" stroke="black" stroke-width="3"/>
<defs>
<clipPath id="clip0_846_13249">
<rect width="80" height="192" fill="white"/>
</clipPath>
</defs>
</svg>
