<svg width="80" height="80" viewBox="0 0 80 80" fill="none" xmlns="http://www.w3.org/2000/svg">
<mask id="mask0_846_13254" style="mask-type:alpha" maskUnits="userSpaceOnUse" x="0" y="0" width="80" height="80">
<circle cx="40" cy="40" r="40" fill="white"/>
</mask>
<g mask="url(#mask0_846_13254)">
<rect width="80" height="80" fill="white"/>
<g clip-path="url(#clip0_846_13254)">
<path d="M28.7026 63.9707L28.9492 63.2053C28.1679 63.4187 27.5786 64.052 27.0826 64.6893C25.5399 66.6613 24.7252 69.1627 24.3412 71.636C22.8199 81.44 20.1706 97.9213 18.4292 110.964C17.9986 110.912 17.5612 110.987 17.1706 111.176C16.7799 111.365 16.4519 111.664 16.2266 112.035C16.0012 112.405 15.8852 112.833 15.8959 113.267C15.9052 113.701 16.0399 114.123 16.2826 114.483C16.4266 114.693 16.6066 114.883 16.7386 115.099C17.0759 115.661 17.0572 116.361 17.0172 117.017C16.9426 118.243 16.8452 119.533 17.3719 120.643C17.8986 121.752 19.3066 122.548 20.3852 121.961C21.1372 121.551 21.4599 120.657 21.7186 119.841C22.0826 118.764 22.3919 117.668 22.6439 116.559C22.9306 115.192 24.1106 109.128 24.2252 107.735L23.1559 107.211C23.1559 107.211 26.9972 78.5133 28.7026 63.9707Z" fill="white"/>
<path d="M50.0853 77.3334L50.2707 77.5441C50.1267 89.6881 51.756 101.819 52.9427 114.321C52.48 114.36 52.04 114.54 51.6853 114.839C51.3293 115.137 51.0746 115.539 50.9572 115.988C50.8386 116.437 50.864 116.912 51.0267 117.347C51.1893 117.781 51.484 118.155 51.868 118.416C52.2813 118.696 52.7773 118.832 53.2013 119.097C55.1453 120.309 54.912 123.652 56.9667 124.663C58.4827 125.408 60.3827 124.271 61.0693 122.725C61.756 121.18 61.5679 119.408 61.3639 117.731C60.4932 110.595 58.4173 89.6921 58.0547 85.3174C58.0547 85.3174 56.316 69.1467 55.868 67.2894C55.42 65.432 53.9013 63.8427 52.5173 62.5254L52.2187 62.332C51.284 64.696 48.7107 74.8254 50.0853 77.3334Z" fill="white"/>
<path d="M45.2493 56C45.3693 57.3467 45.92 60.3893 47.9693 59.9333L48.1893 60.2667C48.0893 62.356 47.0306 63.8293 45.372 65.356C43.6866 66.8827 41.5373 67.8 39.2693 67.9613C37.2693 68.108 35.1426 67.6293 33.6466 66.288C32.1506 64.9467 31.364 63.088 32.3546 61.4947H32.4986C32.9493 61.508 33.364 61.272 33.7453 61.032C34.2306 60.7253 35.232 59.468 35.532 59.1067C35.932 58.588 36.0946 56.6213 36.3 56H45.2493Z" fill="white"/>
<path d="M50.0853 77.3334C48.7107 74.8254 51.284 64.696 52.2173 62.332C52.312 62.1507 52.1827 62.2733 52.1613 62.0707C52.096 61.76 49.4227 60.072 48.2253 59.9333C47.9987 62.2 47.0493 63.8147 45.3707 65.356C43.6853 66.8827 41.536 67.8 39.268 67.9613C37.268 68.108 35.1413 67.6294 33.6453 66.288C32.1493 64.9467 31.4453 62.648 32.436 61.0587L29.7333 62.2987C29.412 62.4453 29.0667 62.608 28.884 62.908C28.7013 63.208 28.7507 63.6093 28.7107 63.9747C27 78.5174 22.668 106.392 23.0547 106.435C31.9987 107.493 43.556 108.447 52.224 105.999H52.2453C51.5333 96.3987 50.1667 86.98 50.2813 77.5467" fill="white"/>
<path d="M38.8306 108.335C33.3772 108.335 27.8199 107.804 22.9599 107.229C22.7386 107.203 22.5306 107.08 22.3986 106.9C22.1812 106.601 22.0919 106.477 22.5946 101.467C22.9092 98.3307 23.3692 94.2987 23.8919 90.1133C24.5292 84.9987 26.1972 72.216 27.9186 63.8547C27.9239 63.788 27.9279 63.712 27.9306 63.6333C27.9439 63.3 27.9612 62.8867 28.1999 62.4933C28.5146 61.976 29.0479 61.7333 29.3999 61.572L32.1026 60.3333C32.4239 60.1867 32.8039 60.2667 33.0359 60.532C33.2692 60.7973 33.3012 61.184 33.1146 61.484C32.3972 62.636 32.8746 64.524 34.1786 65.6947C35.3839 66.776 37.2172 67.312 39.2092 67.1653C41.2906 67.0173 43.2879 66.1653 44.8332 64.7653C46.4559 63.276 47.2332 61.8067 47.4279 59.856C47.4492 59.6427 47.5559 59.4467 47.7226 59.312C47.8892 59.1773 48.1039 59.116 48.3159 59.14C49.1746 59.24 50.3759 59.876 51.0159 60.2467C52.5306 61.124 52.8252 61.5373 52.9106 61.7853C53.0532 62.0013 53.1119 62.304 52.9479 62.6547C52.5426 63.696 51.6759 66.6933 51.0706 69.9267C50.0946 75.144 50.6052 76.6213 50.7852 76.9493C50.9972 77.3373 50.8559 77.8227 50.4679 78.036C50.0799 78.248 49.5946 78.1067 49.3812 77.7187C48.6892 76.4573 48.7279 73.736 49.4972 69.632C50.0319 66.7787 50.8226 63.8307 51.3466 62.368C50.8986 62.0107 49.7546 61.3173 48.8799 60.9547C48.5012 62.86 47.5612 64.4293 45.9106 65.944C44.0972 67.5867 41.7599 68.5853 39.3239 68.7587C36.9026 68.9347 34.6386 68.252 33.1106 66.8827C31.9319 65.8253 31.1066 64.1307 31.1839 62.512L30.0652 63.0253C29.8999 63.1013 29.6252 63.2267 29.5652 63.324C29.5399 63.376 29.5332 63.5693 29.5279 63.6973C29.5239 63.808 29.5186 63.9333 29.5039 64.0613C29.5012 64.0867 29.4972 64.112 29.4919 64.136C26.8879 76.7627 24.0492 101.501 23.8319 105.72C32.7146 106.748 43.7572 107.557 52.0052 105.228C52.4306 105.108 52.8719 105.356 52.9919 105.78C53.1119 106.205 52.8652 106.647 52.4399 106.768C48.3519 107.924 43.6306 108.335 38.8306 108.335ZM23.1426 105.64C23.1466 105.64 23.1506 105.641 23.1559 105.641C23.1506 105.64 23.1466 105.64 23.1426 105.64Z" fill="black"/>
<path d="M57.9892 125.695C57.5066 125.695 57.0386 125.589 56.6132 125.38C55.2772 124.723 54.7359 123.355 54.2572 122.147C53.8652 121.157 53.4959 120.223 52.7772 119.775C52.6239 119.679 52.4386 119.596 52.2426 119.508C51.9866 119.393 51.6946 119.264 51.4186 119.076C50.8946 118.72 50.4999 118.219 50.2772 117.625C50.0546 117.032 50.0226 116.395 50.1839 115.783C50.3452 115.171 50.6866 114.632 51.1719 114.224C51.4452 113.995 51.7519 113.817 52.0812 113.697C51.8466 111.265 51.5946 108.823 51.3506 106.453C50.3266 96.5188 49.3586 87.1348 49.4719 77.5347C49.4772 77.0933 49.8426 76.7427 50.2812 76.744C50.7226 76.7493 51.0772 77.1121 51.0719 77.5534C50.9586 87.0628 51.9226 96.4013 52.9412 106.289C53.2092 108.888 53.4866 111.576 53.7399 114.245C53.7599 114.459 53.6946 114.671 53.5572 114.835C53.4199 114.999 53.2226 115.101 53.0092 115.119C52.7092 115.143 52.4306 115.259 52.1999 115.452C51.9692 115.645 51.8079 115.9 51.7319 116.191C51.6559 116.481 51.6706 116.784 51.7759 117.065C51.8812 117.347 52.0692 117.584 52.3172 117.753C52.4759 117.861 52.6799 117.952 52.8959 118.048C53.1226 118.149 53.3786 118.264 53.6266 118.419C54.7919 119.145 55.2986 120.427 55.7466 121.559C56.1546 122.588 56.5386 123.56 57.3199 123.944C57.8172 124.188 58.3279 124.093 58.6692 123.969C59.3732 123.715 60.0279 123.099 60.3386 122.4C60.9119 121.111 60.7892 119.629 60.5706 117.827C59.7079 110.759 57.6372 89.9573 57.2586 85.3933C56.6586 79.816 55.4346 68.9067 55.0919 67.4773C54.7079 65.8827 53.3639 64.4334 51.9679 63.1067C51.6479 62.8027 51.6346 62.296 51.9399 61.976C52.2439 61.656 52.7506 61.6427 53.0706 61.948C54.6439 63.444 56.1666 65.1054 56.6479 67.104C57.1012 68.9907 58.7799 84.5707 58.8506 85.2333C58.8506 85.24 58.8519 85.2467 58.8519 85.2533C59.2279 89.788 61.2972 110.576 62.1586 117.636C62.3546 119.249 62.5986 121.256 61.8012 123.052C61.3159 124.145 60.3252 125.073 59.2159 125.476C58.8052 125.62 58.3919 125.695 57.9892 125.695Z" fill="black"/>
<path d="M47.8133 60.9C47.7973 60.9 47.7813 60.9 47.7653 60.8986C46.2787 60.8106 45.7973 59.9533 45.412 59.2653C45.312 59.088 45.2093 58.904 45.088 58.724C44.8413 58.3573 44.9387 57.86 45.304 57.6133C45.6707 57.3666 46.168 57.464 46.4147 57.8293C46.5733 58.064 46.6974 58.2853 46.8068 58.4813C47.1534 59.0986 47.2453 59.264 47.86 59.3013C48.3013 59.328 48.6373 59.7066 48.6107 60.1466C48.5853 60.572 48.2333 60.9 47.8133 60.9Z" fill="black"/>
<path d="M19.5893 122.959C19.3027 122.959 19.0093 122.912 18.7187 122.817C17.8427 122.532 17.0493 121.831 16.6493 120.987C16.0493 119.724 16.136 118.319 16.212 117.077L16.2187 116.969C16.2533 116.404 16.2667 115.868 16.052 115.511C16.0067 115.436 15.9333 115.344 15.856 115.245C15.7827 115.153 15.7 115.049 15.6213 114.935C15.2893 114.443 15.108 113.875 15.0947 113.285C15.0813 112.697 15.236 112.12 15.5427 111.617C15.8493 111.115 16.2907 110.713 16.82 110.456C17.108 110.316 17.4147 110.223 17.728 110.177C19.1373 99.8333 20.9933 87.9493 22.4907 78.3613C22.88 75.8653 23.2413 73.556 23.556 71.5147C24.016 68.5333 24.992 66.0707 26.4573 64.1974C27.0133 63.4827 27.72 62.7134 28.744 62.4347C29.1707 62.3187 29.6107 62.5694 29.7267 62.996C29.8427 63.4227 29.592 63.8627 29.1653 63.9787C28.596 64.1347 28.1147 64.6747 27.72 65.1827C26.424 66.84 25.556 69.052 25.1373 71.76C24.8227 73.8027 24.4613 76.1133 24.072 78.6093C22.5427 88.4013 20.64 100.588 19.2227 111.071C19.164 111.504 18.768 111.808 18.336 111.757C18.056 111.724 17.7747 111.772 17.5213 111.895C17.268 112.017 17.056 112.209 16.9107 112.451C16.764 112.691 16.6907 112.967 16.696 113.248C16.7027 113.529 16.7893 113.801 16.9467 114.035C16.9907 114.099 17.0493 114.173 17.1107 114.251C17.2093 114.376 17.3213 114.516 17.4213 114.68C17.8733 115.435 17.864 116.272 17.816 117.064L17.8093 117.173C17.7413 118.272 17.672 119.408 18.0947 120.297C18.3107 120.751 18.7493 121.143 19.2147 121.293C19.42 121.36 19.724 121.408 20.004 121.256C20.48 120.996 20.736 120.293 20.9573 119.597C20.9587 119.592 20.96 119.588 20.9627 119.583C21.316 118.537 21.6187 117.461 21.864 116.385C22.1587 114.975 23.3187 107.848 23.4293 106.503C23.4653 106.063 23.8533 105.736 24.292 105.771C24.732 105.807 25.06 106.193 25.024 106.633C24.9067 108.063 23.7333 115.261 23.428 116.72C23.4267 116.724 23.4267 116.729 23.4253 116.733C23.168 117.863 22.8507 118.991 22.48 120.087C22.244 120.832 21.848 122.071 20.7693 122.66C20.408 122.86 20.0053 122.959 19.5893 122.959Z" fill="black"/>
<path d="M32.3547 62.2946C31.9613 62.2946 31.6173 62.004 31.5627 61.6026C31.5027 61.1653 31.8093 60.7613 32.2467 60.7013C33.1947 60.572 33.808 60.016 34.2147 59.6493L34.2627 59.6053C34.7773 59.1413 34.832 59.0173 34.9413 58.768C34.9573 58.7306 34.9747 58.6933 34.992 58.6533C35.1747 58.2506 35.648 58.072 36.0507 58.2546C36.4533 58.4373 36.632 58.9106 36.4493 59.3133L36.4053 59.412C36.2173 59.84 36.052 60.148 35.3333 60.7946L35.2867 60.836C34.8013 61.2746 33.9 62.0906 32.4613 62.288C32.428 62.292 32.3907 62.2946 32.3547 62.2946Z" fill="black"/>
<path d="M50.056 41.8C49.9413 41.0533 49.2279 40.564 48.5586 40.2147C47.8893 39.8653 47.1413 39.5067 46.8333 38.816C46.2573 37.5267 47.5746 35.9573 46.9919 34.6707C46.7319 34.096 46.1333 33.7373 45.5173 33.5947C44.9013 33.452 44.2613 33.5133 43.6319 33.5693L41.9772 32.7053C40.8692 30.936 38.4506 30.372 36.4118 30.828C34.3733 31.284 32.6239 32.548 30.9333 33.7773L25.6385 37.6373C24.7772 38.2653 23.56 38.8947 22.7373 38.216C21.5106 37.2053 23.0039 34.8933 21.9519 33.7067C21.6999 33.424 21.34 33.264 21.052 33.0173C20.252 32.3267 20.152 31.1187 20.264 30.064C20.6973 25.9933 23.3866 22.2987 27.0013 20.3773C30.6159 18.456 35.0413 18.264 38.9159 19.5773C41.1399 20.3347 43.4252 21.8947 43.7025 24.2267L45.1813 24.708C46.9973 23.108 49.7692 23.4653 52.1012 24.096C53.7745 24.548 55.4412 25.1067 56.9012 26.0387C58.3612 26.9707 59.6132 28.3173 60.1559 29.964C60.4905 30.9773 60.5558 32.0973 61.1385 32.996C61.5158 33.58 62.0786 34.02 62.4933 34.5773C63.684 36.1773 63.3093 38.7213 61.7066 39.9107C60.9319 40.4853 59.8933 40.8147 59.4613 41.6787C59.0999 42.4027 59.2653 43.344 58.768 43.9813C58.044 44.908 56.368 44.6387 55.7346 45.6293C55.56 45.9027 55.4945 46.24 55.2878 46.4893C55.0812 46.7387 54.6213 46.8347 54.4626 46.5547L50.5505 46.7333L50.056 41.8Z" fill="black"/>
<path d="M25.1747 38.6693C24.3147 40.8813 23.7974 42.8786 23.6667 44.088C23.3374 47.1333 23.952 50.5173 26.2814 52.6866C27.5227 53.8413 29.06 54.4093 30.704 54.6986C32.4187 55.0013 34.2587 55.2773 35.9227 54.5973C35.8347 55.9853 35.8214 56.8426 35.8854 58.232L45.2667 57.2666C45.1147 55.4413 45.472 53.932 46.2667 52.2813C46.4467 51.908 46.8334 51.912 47.216 51.7906C47.556 51.684 47.8894 51.5613 48.2187 51.4226C48.8867 51.1453 49.5187 50.7866 50.0987 50.356C51.248 49.488 52.144 48.2693 52.48 46.856C52.7854 45.5746 52.5707 44.0493 51.1467 43.328C50.1427 42.8213 49.2427 43.0013 47.7134 44.3453L50.068 41.812C49.9534 41.0653 49.24 40.576 48.5707 40.2266C47.9014 39.8773 47.1534 39.5186 46.8454 38.828C46.2694 37.5386 47.5867 35.9693 47.004 34.6826C46.744 34.108 46.1454 33.7493 45.5294 33.6066C44.9134 33.464 44.2734 33.5253 43.644 33.5813L41.9894 32.7173C40.8814 30.948 38.4627 30.384 36.424 30.84C34.3854 31.296 32.624 32.548 30.9334 33.7773L25.6387 37.6373" fill="white"/>
<path d="M23.5774 39.3132C22.988 39.3132 22.5454 39.096 22.228 38.8333C21.264 38.0386 21.3907 36.8332 21.492 35.8639C21.5627 35.1879 21.6294 34.5479 21.3534 34.2372C21.2747 34.1492 21.1347 34.0559 20.9867 33.9572C20.8467 33.8639 20.6867 33.7572 20.532 33.6252C19.6627 32.8745 19.296 31.6145 19.4694 29.9799C19.9227 25.7279 22.664 21.7772 26.6267 19.6719C30.2987 17.7199 34.988 17.4025 39.1734 18.8212C42.236 19.8639 44.2254 21.8505 44.4974 24.1332C44.5494 24.5719 44.236 24.9705 43.7974 25.0225C43.3587 25.0745 42.9614 24.7612 42.908 24.3225C42.616 21.8665 39.5814 20.6505 38.6574 20.3359C34.8827 19.0572 30.6654 19.3372 27.376 21.0852C23.876 22.9452 21.456 26.4185 21.0587 30.1505C20.9787 30.9105 21.0014 31.9199 21.5734 32.4132C21.652 32.4799 21.7587 32.5519 21.8707 32.6265C22.0854 32.7692 22.3307 32.932 22.5467 33.176C23.292 34.016 23.1747 35.1345 23.0814 36.0319C22.996 36.8532 22.964 37.3692 23.244 37.5999C23.7174 37.9905 24.8347 37.2332 25.1654 36.9919L30.46 33.1319C32.124 31.9225 34.008 30.552 36.2347 30.0533C38.976 29.44 41.2174 30.1572 42.384 32.0199C42.6187 32.3945 42.5054 32.888 42.1307 33.1226C41.756 33.3573 41.2627 33.244 41.028 32.8693C39.9134 31.0893 37.548 31.3985 36.584 31.6145C34.6814 32.0399 33.0134 33.2519 31.4014 34.4252L26.108 38.2852C25.0627 39.0479 24.2294 39.3132 23.5774 39.3132Z" fill="black"/>
<path d="M54.788 47.5306C54.7494 47.5306 54.712 47.5293 54.6747 47.5253C54.2854 47.4906 53.956 47.2826 53.7694 46.9546C53.552 46.5706 53.6867 46.0826 54.0707 45.864C54.2907 45.7386 54.5467 45.7306 54.764 45.8186C54.78 45.7813 54.7974 45.7413 54.8147 45.7026C54.8787 45.552 54.9507 45.38 55.0627 45.2053C55.5507 44.4426 56.3814 44.2 57.048 44.0053C57.5107 43.8706 57.948 43.7426 58.14 43.496C58.2907 43.304 58.3414 42.9786 58.4014 42.6013C58.464 42.2066 58.5334 41.7586 58.748 41.328C59.1534 40.5173 59.888 40.0906 60.536 39.7133C60.7894 39.5666 61.028 39.4266 61.2334 39.2746C61.828 38.8333 62.2387 38.1093 62.36 37.288C62.4814 36.4666 62.2974 35.6546 61.856 35.0613C61.7 34.852 61.508 34.6493 61.304 34.436C61.0174 34.1346 60.72 33.8226 60.4707 33.436C60.0107 32.7266 59.832 31.956 59.66 31.2106C59.5787 30.8613 59.5027 30.532 59.4 30.2213C58.96 28.8866 57.9214 27.6426 56.4747 26.72C55.02 25.7906 53.344 25.2666 51.896 24.8746C49.1174 24.1226 47.3814 24.2866 46.092 25.424C45.76 25.716 45.2547 25.684 44.9627 25.352C44.6707 25.02 44.7027 24.5146 45.0347 24.2226C47.2374 22.2826 50.0814 22.7266 52.3134 23.3293C53.8774 23.752 55.6974 24.3253 57.3347 25.3706C59.0907 26.492 60.364 28.036 60.9187 29.72C61.044 30.1 61.132 30.4813 61.2174 30.8506C61.3654 31.4893 61.5054 32.0933 61.812 32.5666C61.9814 32.828 62.2147 33.0733 62.4614 33.3333C62.688 33.572 62.924 33.8186 63.1374 34.1066C63.8307 35.0386 64.124 36.2826 63.9414 37.5213C63.7587 38.76 63.1187 39.868 62.1854 40.56C61.9094 40.7653 61.62 40.9333 61.34 41.096C60.82 41.3986 60.3694 41.6613 60.1787 42.0426C60.0747 42.2506 60.0294 42.5413 59.98 42.8493C59.8987 43.3693 59.8054 43.96 59.4 44.48C58.8894 45.1333 58.1494 45.3493 57.496 45.54C57.0014 45.684 56.5747 45.8093 56.4107 46.0666C56.372 46.128 56.3307 46.224 56.288 46.3266C56.204 46.5266 56.0987 46.7746 55.9067 47.0066C55.636 47.332 55.2067 47.5306 54.788 47.5306Z" fill="black"/>
<path d="M50.0547 42.6C49.6667 42.6 49.3254 42.3173 49.2654 41.9213C49.216 41.6026 48.864 41.276 48.188 40.924L48.0827 40.8693C47.3814 40.5053 46.508 40.052 46.1027 39.1426C45.7014 38.244 45.9347 37.3426 46.14 36.5466C46.3 35.9253 46.4387 35.3893 46.264 35.0013C46.136 34.7173 45.78 34.4773 45.3374 34.3746C44.8587 34.264 44.3174 34.312 43.744 34.3626L43.704 34.3666C43.2627 34.4066 42.876 34.0813 42.836 33.6413C42.7974 33.2013 43.1214 32.8133 43.5614 32.7733L43.6014 32.7693C44.2427 32.712 44.9707 32.6466 45.6974 32.816C46.644 33.0346 47.3814 33.5906 47.72 34.3413C48.128 35.2426 47.8947 36.148 47.688 36.9466C47.5347 37.5413 47.3894 38.1026 47.5627 38.4906C47.7414 38.8893 48.2894 39.1746 48.8187 39.4493L48.9267 39.5053C49.6667 39.8906 50.6694 40.536 50.844 41.6786C50.9107 42.116 50.612 42.524 50.1747 42.5906C50.136 42.5973 50.096 42.6 50.0547 42.6Z" fill="black"/>
<path d="M45.2787 57.3185C44.8681 57.3185 44.5174 57.0039 44.4827 56.5852C44.3134 54.5772 44.7041 53.6585 45.5334 51.9305C45.8374 51.2999 46.4121 51.1612 46.7561 51.0785C46.8307 51.0599 46.9014 51.0439 46.9627 51.0239C47.2801 50.9239 47.5934 50.8092 47.8961 50.6812C48.5081 50.4279 49.0827 50.1012 49.6107 49.7092C50.6747 48.9052 51.4161 47.8239 51.6907 46.6665C51.8321 46.0839 52.0241 44.6679 50.7747 44.0372C50.2294 43.7612 49.6947 43.6532 48.2294 44.9412C47.8974 45.2332 47.3921 45.1999 47.1001 44.8679C46.8081 44.5359 46.8414 44.0305 47.1734 43.7385C49.2774 41.8892 50.4934 42.1025 51.4947 42.6079C53.0467 43.3919 53.7174 45.0892 53.2454 47.0385C52.8854 48.5532 51.9347 49.9572 50.5694 50.9879C49.9321 51.4612 49.2414 51.8532 48.5134 52.1545C48.1681 52.2999 47.8067 52.4332 47.4427 52.5465C47.3321 52.5812 47.2254 52.6079 47.1321 52.6305C47.0734 52.6452 46.9974 52.6625 46.9481 52.6785C46.1814 54.2785 45.9441 54.8799 46.0774 56.4479C46.1147 56.8879 45.7881 57.2745 45.3481 57.3119C45.3241 57.3172 45.3014 57.3185 45.2787 57.3185Z" fill="black"/>
<path d="M35.8855 58.4987C35.4602 58.4987 35.1068 58.1641 35.0868 57.7347C35.0442 56.7961 35.0348 56.3241 35.0615 55.6801C33.4588 55.9894 31.8268 55.7054 30.5682 55.4854C28.5348 55.1267 26.9548 54.4027 25.7375 53.2707C23.5002 51.1867 22.4562 47.8081 22.8722 43.9987C23.0282 42.5867 23.6095 40.4854 24.4295 38.3774C24.5895 37.9654 25.0535 37.7614 25.4655 37.9214C25.8775 38.0814 26.0815 38.5454 25.9215 38.9574C25.0122 41.2961 24.5722 43.1854 24.4628 44.1734C24.1015 47.4734 24.9628 50.3627 26.8282 52.0987C27.8255 53.0267 29.1015 53.6014 30.8442 53.9081C32.6255 54.2187 34.2162 54.4281 35.6215 53.8534C35.8762 53.7494 36.1668 53.7841 36.3908 53.9441C36.6148 54.1054 36.7402 54.3694 36.7228 54.6441C36.6375 55.9854 36.6228 56.2814 36.6868 57.6574C36.7068 58.0987 36.3655 58.4734 35.9242 58.4934C35.9095 58.4987 35.8975 58.4987 35.8855 58.4987Z" fill="black"/>
<path d="M29.124 42.3467C29.6395 42.3467 30.0573 41.8393 30.0573 41.2134C30.0573 40.5874 29.6395 40.08 29.124 40.08C28.6085 40.08 28.1907 40.5874 28.1907 41.2134C28.1907 41.8393 28.6085 42.3467 29.124 42.3467Z" fill="black"/>
<path d="M33.6573 42.66C34.1728 42.66 34.5907 42.1526 34.5907 41.5266C34.5907 40.9007 34.1728 40.3933 33.6573 40.3933C33.1419 40.3933 32.724 40.9007 32.724 41.5266C32.724 42.1526 33.1419 42.66 33.6573 42.66Z" fill="black"/>
<mask id="mask1_846_13254" style="mask-type:luminance" maskUnits="userSpaceOnUse" x="0" y="5" width="80" height="80">
<path d="M80 5.03857H0V84.0509H80V5.03857Z" fill="white"/>
</mask>
<g mask="url(#mask1_846_13254)">
<mask id="mask2_846_13254" style="mask-type:luminance" maskUnits="userSpaceOnUse" x="22" y="5" width="35" height="27">
<path d="M56.47 5.03857H22V31.083H56.47V5.03857Z" fill="white"/>
</mask>
<g mask="url(#mask2_846_13254)">
<path d="M41.98 29.5832C42.22 25.5635 41.66 21.5239 41.99 17.5141C42.32 13.5042 43.73 9.30668 46.99 6.8968C48.43 5.84001 50.41 5.18816 52.02 5.96841C52.83 6.36347 53.43 7.0647 53.93 7.80544C56.74 12.0524 56.26 17.7709 54.09 22.3635C52.61 25.4943 50.41 28.2894 47.7 30.482" fill="white"/>
<path d="M47.6983 31.084C47.5283 31.084 47.3482 31.005 47.2382 30.8668C47.0282 30.61 47.0682 30.2445 47.3182 30.0371C49.9482 27.9038 52.1082 25.168 53.5482 22.126C55.3882 18.2248 56.3283 12.5063 53.4383 8.14082C52.8883 7.31119 52.3583 6.79761 51.7683 6.51119C50.3383 5.80996 48.5583 6.50132 47.3683 7.38033C43.7383 10.0569 42.8283 14.9161 42.6083 17.5631C42.4383 19.647 42.5083 21.7902 42.5783 23.8643C42.6383 25.7507 42.7083 27.6964 42.5983 29.6223C42.5783 29.9482 42.2982 30.1952 41.9682 30.1754C41.6382 30.1556 41.3883 29.8791 41.4083 29.5532C41.5183 27.6865 41.4482 25.7606 41.3882 23.9038C41.3182 21.8001 41.2383 19.6174 41.4183 17.4742C41.8283 12.5458 43.6882 8.62477 46.6582 6.43218C48.1282 5.34576 50.3882 4.51613 52.3082 5.4544C53.0982 5.83959 53.7783 6.49144 54.4483 7.49885C57.6083 12.2692 56.6283 18.4421 54.6483 22.6297C53.1283 25.8396 50.8683 28.7137 48.0983 30.9556C47.9883 31.0445 47.8482 31.0939 47.7182 31.0939L47.6983 31.084Z" fill="black"/>
<path d="M30.4878 29.7996C29.8178 28.8317 29.1278 27.6959 28.6978 26.5996L28.6278 26.649C27.4178 27.37 25.8978 27.5972 24.7078 26.8959C23.7878 26.3527 23.2178 25.3552 23.0078 24.328C22.7978 23.3009 22.4378 22.0268 22.6278 20.9898C23.1778 18.0466 24.5678 13.0885 29.9878 11.4885C31.0978 11.1626 32.2978 10.965 33.3878 11.3403C34.4078 11.686 35.2178 12.486 35.7578 13.4045C37.0078 15.4885 37.0178 18.0663 36.7978 20.4762C36.6278 22.333 36.3478 24.1799 35.9578 26.0071C35.8578 26.4713 35.4178 27.5873 35.4978 27.6762" fill="white"/>
<path d="M32.5209 18.0749C32.8409 18.7366 33.2709 22.8749 33.3009 23.6058C33.3309 24.4058 33.1209 25.7292 32.5509 26.2922C31.3409 27.4774 30.7909 25.7786 30.4909 25.3342C30.3809 25.1663 29.6709 22.0058 30.7509 19.6058C30.8909 19.2897 32.3509 17.7193 32.5309 18.0749H32.5209Z" fill="#FF9999"/>
<path d="M31.7608 27.2992C31.6908 27.2992 31.6308 27.2992 31.5608 27.2794C30.7808 27.1609 30.3608 26.3609 30.1108 25.8868C30.0608 25.7979 30.0208 25.709 29.9808 25.6597C29.7308 25.2942 29.0508 21.8967 30.1908 19.3683C30.3208 19.072 31.6508 17.4424 32.4108 17.4325C32.7008 17.4325 32.9308 17.5806 33.0508 17.8177C33.4608 18.6473 33.8708 23.072 33.8908 23.5955C33.9108 24.3362 33.7508 25.9461 32.9608 26.7164C32.5608 27.1016 32.1608 27.2992 31.7508 27.2992H31.7608ZM32.1408 18.9239C31.8008 19.2399 31.3808 19.7041 31.2908 19.8621C30.3508 21.9658 30.9408 24.83 31.0408 25.0868C31.0508 25.0868 31.1208 25.2053 31.1908 25.3436C31.2908 25.5214 31.5808 26.0843 31.7608 26.1041C31.7808 26.1041 31.9208 26.0745 32.1308 25.8671C32.5208 25.4918 32.7308 24.4053 32.7108 23.6251C32.6908 22.9337 32.3908 20.1881 32.1508 18.9239H32.1408Z" fill="black"/>
<path d="M33.259 17.9277C32.859 19.0438 32.459 20.1598 32.069 21.2759C31.479 22.9352 30.849 24.6636 29.589 25.9179C28.329 27.1722 26.259 27.8043 24.719 26.9055C24.379 26.6981 24.049 26.2932 23.779 25.8586C23.279 25.0586 22.959 24.1796 22.789 23.2512C22.659 22.5105 22.529 21.5623 22.639 20.9994C22.809 19.271 23.969 13.1673 29.999 11.4981C31.109 11.1722 32.309 10.9747 33.399 11.35C34.419 11.6957 35.229 12.4957 35.769 13.4142C37.019 15.4981 37.029 18.0759 36.809 20.4858C36.639 22.3426 36.359 24.1895 35.969 26.0166C35.869 26.4808 35.429 27.5969 35.509 27.6858" fill="white"/>
<path d="M35.5196 28.2579C35.3596 28.2579 35.1996 28.1986 35.0796 28.0702C34.7896 27.7641 34.8896 27.448 35.1696 26.5888C35.2596 26.3221 35.3496 26.0455 35.3896 25.8776C35.7696 24.0801 36.0496 22.2431 36.2196 20.4159C36.4196 18.2134 36.4596 15.6949 35.2596 13.6999C34.7196 12.8011 33.9896 12.1592 33.2096 11.8925C32.4096 11.6258 31.4496 11.6752 30.1696 12.0505C24.2496 13.69 23.3496 19.8332 23.2296 21.048C23.1796 21.3147 23.1496 21.8776 23.3796 23.1418C23.5396 24.0209 23.8396 24.8307 24.2896 25.5418C24.6496 26.1147 24.8996 26.3221 25.0296 26.3912C26.3496 27.1715 28.1496 26.5097 29.1596 25.5023C30.3496 24.3171 30.9596 22.5986 31.4996 21.0875L32.6896 17.7394C32.7996 17.4332 33.1396 17.2653 33.4596 17.3739C33.7696 17.4826 33.9396 17.8184 33.8296 18.1344L32.6396 21.4826C32.0596 23.1122 31.3996 24.969 30.0196 26.3418C28.6496 27.7048 26.2796 28.5147 24.4196 27.4184C24.0296 27.1912 23.6596 26.7764 23.2796 26.1641C22.7596 25.3246 22.3996 24.3863 22.2096 23.3591C21.9996 22.2431 21.9496 21.4134 22.0496 20.8801C22.1796 19.5863 23.1696 12.7616 29.8396 10.9147C31.3496 10.4604 32.5496 10.4209 33.5996 10.7764C34.6596 11.132 35.6096 11.9616 36.2996 13.0974C37.6696 15.3888 37.6396 18.1344 37.4196 20.5246C37.2496 22.4011 36.9696 24.2875 36.5696 26.1246C36.5296 26.3221 36.4196 26.648 36.3196 26.9542C36.2496 27.1616 36.1496 27.4678 36.1196 27.606C36.1396 27.7838 36.0796 27.9616 35.9296 28.0999C35.8096 28.2085 35.6696 28.2579 35.5196 28.2579Z" fill="black"/>
<path d="M28.7031 26.5991C29.1331 27.6954 29.8131 28.8312 30.4931 29.7991L28.7031 26.5991Z" fill="white"/>
<path d="M30.4915 30.3921C30.3015 30.3921 30.1115 30.3032 29.9915 30.1353C29.1415 28.9205 28.5215 27.7946 28.1415 26.8069C28.0215 26.5007 28.1815 26.1551 28.4915 26.0464C28.8015 25.9279 29.1515 26.0859 29.2615 26.3921C29.6115 27.2909 30.1915 28.3279 30.9815 29.4736C31.1715 29.7402 31.1015 30.1156 30.8215 30.2933C30.7215 30.3625 30.6015 30.3921 30.4815 30.3921H30.4915Z" fill="black"/>
<path d="M45.8303 28.0917C44.0203 27.6472 44.4603 18.9658 45.7603 14.2843C46.2603 12.4768 48.0303 8.60524 50.3403 9.25709C52.5303 9.86944 52.8503 13.5435 52.3803 16.0028C51.3803 21.188 48.2303 28.6843 45.8303 28.0917Z" fill="#FF9999"/>
<path d="M46.1091 28.7131C45.9691 28.7131 45.8291 28.6934 45.6891 28.6638C45.3191 28.5749 45.0091 28.3181 44.7691 27.9131C43.4391 25.6613 44.1091 17.9971 45.1891 14.1255C45.5991 12.6638 46.7591 9.92796 48.5091 8.95018C49.1591 8.58475 49.8391 8.49586 50.5091 8.68352C53.2091 9.43413 53.4491 13.6415 52.9691 16.1107C52.1691 20.2391 49.7491 26.7773 47.2791 28.3378C46.8791 28.5847 46.4891 28.7131 46.1091 28.7131ZM49.8291 9.76994C49.5891 9.76994 49.3491 9.83907 49.0991 9.97734C47.7991 10.6983 46.7191 13.0983 46.3391 14.4415C45.1191 18.8168 44.8291 25.681 45.7991 27.3205C45.8891 27.4687 45.9591 27.5181 45.9691 27.5181C46.1491 27.5675 46.3691 27.5082 46.6191 27.3403C48.5391 26.1255 50.9191 20.2983 51.7791 15.8835C52.1991 13.7304 51.9691 10.323 50.1691 9.80944C50.0491 9.77981 49.9291 9.76006 49.8191 9.76006L49.8291 9.76994Z" fill="black"/>
</g>
</g>
</g>
</g>
<circle cx="40" cy="40" r="38.5" stroke="black" stroke-width="3"/>
<defs>
<clipPath id="clip0_846_13254">
<rect width="80" height="192" fill="white" transform="translate(0 5)"/>
</clipPath>
</defs>
</svg>
