<svg width="80" height="80" viewBox="0 0 80 80" fill="none" xmlns="http://www.w3.org/2000/svg">
<mask id="mask0_846_13253" style="mask-type:alpha" maskUnits="userSpaceOnUse" x="0" y="0" width="80" height="80">
<circle cx="40" cy="40" r="40" fill="white"/>
</mask>
<g mask="url(#mask0_846_13253)">
<rect width="80" height="80" fill="white"/>
<g clip-path="url(#clip0_846_13253)">
<path d="M45.2493 51C45.3693 52.3467 45.92 55.3893 47.9693 54.9333L48.1893 55.2667C48.0893 57.356 47.0306 58.8293 45.372 60.356C43.6866 61.8827 41.5373 62.8 39.2693 62.9613C37.2693 63.108 35.1426 62.6293 33.6466 61.288C32.1506 59.9467 31.364 58.088 32.3546 56.4947H32.4986C32.9493 56.508 33.364 56.272 33.7453 56.032C34.2306 55.7253 35.232 54.468 35.532 54.1067C35.932 53.588 36.0946 51.6213 36.3 51H45.2493Z" fill="white"/>
<path d="M48.252 54.1881C50.2933 54.7334 51.968 56.2001 53.3427 57.8001C55.08 59.8307 56.4573 62.1441 57.4173 64.6388C59.5413 70.1628 59.5427 76.3894 62.104 81.7254C60.7133 82.1374 59.2987 82.4574 57.8667 82.6854L59.0213 88.1614C61.9747 97.3054 64.0293 104.319 66.728 113.144C66.8613 113.595 67.3946 115.188 67.148 115.587C66.9827 115.853 66.7053 116.024 66.4347 116.177C64.9547 117.019 63.3386 117.089 61.6693 117.425L55.4733 118.659C46.6053 120.249 37.7053 120.639 28.8213 119.14L27.1453 118.944L21.412 117.847C20.8947 117.748 20.3267 117.616 20.024 117.18C19.7733 116.823 19.7747 116.352 19.7933 115.916C19.8693 114.183 20.0693 112.463 20.2693 110.741L21.8467 97.1414C22.5333 91.3321 23.2 85.4988 24.1333 79.7094L24.0693 79.6828C22.5187 79.1494 20.992 78.5574 19.464 77.9641C19.2533 77.9041 19.064 77.7868 18.9147 77.6268C18.6147 77.2401 18.872 76.6854 19.1293 76.2681C21.4 72.5748 23.3413 68.6894 24.9333 64.6561C26.1493 61.5761 27.4187 58.1107 30.3867 56.6427L33.7507 55.2347C33.4653 55.7214 33.8267 57.1094 34.212 57.5214C34.5973 57.9334 35.1453 58.1494 35.6787 58.3214C37.468 58.8787 39.412 59.0267 41.228 58.5881C43.044 58.1494 44.7413 57.0841 45.808 55.5414C46.0747 55.1627 46.2973 54.7521 46.628 54.4307C46.9587 54.1094 47.428 53.8827 47.8773 53.9827L48.252 54.1881Z" fill="white"/>
<path d="M20.7226 78.7707L18.7372 102.407C18.6559 103.372 18.5266 104.439 17.7972 105.073C17.0679 105.708 15.7972 105.829 15.4332 106.747C14.9999 107.848 16.2786 108.82 16.6946 109.928C17.2906 111.511 16.0732 113.464 16.9612 114.907C17.5052 115.795 18.6332 116.099 19.6586 116.283L19.7586 115.937C19.8346 114.204 20.0346 112.484 20.2346 110.763L21.8119 97.1627C22.5279 90.996 23.2452 84.8187 24.2519 78.6947L20.7226 78.7707Z" fill="white"/>
<path d="M52.5173 83.932C50.904 83.932 49.2853 83.8187 47.6653 83.5907C47.2613 83.5333 46.9653 83.1827 46.9773 82.776L47.3413 70C47.3533 69.5587 47.7227 69.2067 48.164 69.2227C48.6053 69.2347 48.9533 69.604 48.9413 70.0453L48.5973 82.0987C52.756 82.5947 56.904 82.3013 60.9493 81.2253C59.7707 78.4533 59.1787 75.4813 58.604 72.5973C58.0933 70.032 57.5653 67.3813 56.628 64.9453C55.6987 62.5293 54.3747 60.3067 52.692 58.34C51.1173 56.5 49.5827 55.3987 48.0027 54.976C47.576 54.8613 47.3227 54.4227 47.4373 53.996C47.552 53.5693 47.9907 53.316 48.4173 53.4307C50.32 53.94 52.1173 55.2067 53.9093 57.3013C55.7107 59.4067 57.128 61.7867 58.1227 64.3733C59.108 66.9373 59.6507 69.6573 60.1747 72.288C60.8187 75.5187 61.4253 78.5707 62.784 81.4013C62.8853 81.6133 62.8893 81.8573 62.7933 82.072C62.6973 82.2867 62.5133 82.448 62.2893 82.5147C59.0827 83.456 55.812 83.932 52.5173 83.932Z" fill="black"/>
<path d="M24.0187 80.4973C23.932 80.4973 23.8453 80.4827 23.7587 80.4533C22.204 79.92 20.6547 79.3187 19.156 78.736L19.1533 78.7347C18.8187 78.6307 18.516 78.4413 18.2773 78.184C18.2613 78.1667 18.2467 78.1493 18.232 78.1307C17.776 77.5427 17.832 76.78 18.3973 75.8613C20.6373 72.2187 22.5707 68.3533 24.1427 64.3747L24.2813 64.0213C25.4867 60.9573 26.8533 57.4853 29.9853 55.9373C30.3813 55.7413 30.8613 55.904 31.0573 56.3C31.2533 56.696 31.0907 57.176 30.6947 57.372C28.1173 58.6453 26.924 61.676 25.7707 64.6067L25.6307 64.9613C24.0253 69.0267 22.0493 72.976 19.76 76.6987C19.608 76.9453 19.556 77.0907 19.5387 77.1653C19.568 77.1827 19.6 77.1973 19.6347 77.2067C19.6587 77.2133 19.6813 77.2213 19.704 77.2293L19.736 77.2413C21.22 77.8173 22.7547 78.4133 24.2787 78.936C24.696 79.08 24.9187 79.5347 24.776 79.952C24.6613 80.2893 24.3507 80.4973 24.0187 80.4973Z" fill="black"/>
<path d="M26.2507 119.609C26.2013 119.609 26.1507 119.604 26.1 119.595L21.224 118.661C20.6987 118.556 19.8333 118.381 19.332 117.669C18.94 117.111 18.932 116.468 18.956 115.911C19.0333 114.148 19.2387 112.384 19.436 110.679L21.052 96.7439C22.1507 87.3399 23.2853 77.6147 25.496 68.232C25.5973 67.8027 26.0267 67.5347 26.4587 67.6373C26.888 67.7387 27.1547 68.1693 27.0533 68.6C24.864 77.8932 23.7347 87.5719 22.6413 96.9319L21.0253 110.865C20.8307 112.544 20.6293 114.279 20.5533 115.983C20.544 116.195 20.5267 116.592 20.64 116.752C20.7733 116.941 21.248 117.037 21.5307 117.093L26.4 118.025C26.8333 118.108 27.1187 118.528 27.0347 118.961C26.9627 119.343 26.6267 119.609 26.2507 119.609Z" fill="black"/>
<path d="M19.6599 117.083C19.6132 117.083 19.5652 117.079 19.5172 117.069C18.3119 116.853 16.9852 116.477 16.2786 115.324C15.6532 114.307 15.8119 113.172 15.9519 112.172C16.0546 111.443 16.1506 110.753 15.9452 110.209C15.8346 109.912 15.6199 109.596 15.3946 109.26C14.8852 108.504 14.2519 107.564 14.6879 106.453C15.0292 105.592 15.8212 105.224 16.4559 104.928C16.7746 104.78 17.0746 104.64 17.2706 104.469C17.7572 104.045 17.8639 103.22 17.9386 102.339L19.9239 78.7026C19.9612 78.2626 20.3492 77.9359 20.7879 77.9719C21.2279 78.0092 21.5546 78.3959 21.5186 78.8359L19.5332 102.472C19.4346 103.645 19.2599 104.859 18.3212 105.675C17.9546 105.993 17.5172 106.197 17.1306 106.377C16.6746 106.589 16.2812 106.772 16.1759 107.04C16.0559 107.344 16.3026 107.744 16.7212 108.365C16.9892 108.763 17.2652 109.173 17.4426 109.645C17.7906 110.571 17.6546 111.539 17.5359 112.392C17.4186 113.232 17.3172 113.957 17.6412 114.485C18.0186 115.1 18.9426 115.34 19.7986 115.493C20.2332 115.571 20.5226 115.987 20.4452 116.421C20.3772 116.811 20.0399 117.083 19.6599 117.083Z" fill="black"/>
<path d="M31.6267 56.8813C31.332 56.8813 31.048 56.7173 30.9093 56.436C30.7133 56.04 30.876 55.56 31.272 55.364L33.4307 54.2973C33.8267 54.1013 34.3067 54.264 34.5027 54.66C34.6987 55.056 34.536 55.536 34.14 55.732L31.9813 56.7987C31.8654 56.8547 31.7453 56.8813 31.6267 56.8813Z" fill="black"/>
<path d="M38.9655 59.6587C37.7948 59.6587 36.5895 59.472 35.3948 59.0987C34.7508 58.8907 34.0908 58.6254 33.5815 58.0814C32.9108 57.364 32.7535 56.3347 33.1988 55.5774C33.4228 55.196 33.9135 55.0694 34.2935 55.2934C34.6748 55.5174 34.8015 56.008 34.5775 56.388C34.4975 56.524 34.5775 56.804 34.7495 56.988C35.0095 57.2667 35.4455 57.4334 35.8775 57.5734C37.6308 58.12 39.4015 58.2067 40.9935 57.824C42.6908 57.416 44.1881 56.4227 45.1028 55.1C45.1761 54.9947 45.2428 54.8934 45.3095 54.792C45.5028 54.4974 45.7228 54.1627 46.0228 53.8707C46.5975 53.312 47.3375 53.068 48.0041 53.216C48.4348 53.312 48.7068 53.7387 48.6108 54.1707C48.5148 54.6014 48.0881 54.8734 47.6561 54.7774C47.5281 54.7494 47.3108 54.8507 47.1388 55.0187C46.9641 55.188 46.8108 55.4227 46.6481 55.6707C46.5721 55.7867 46.4961 55.9027 46.4161 56.016C45.2841 57.652 43.4441 58.88 41.3695 59.38C40.5948 59.5667 39.7895 59.6587 38.9655 59.6587Z" fill="black"/>
<path d="M39.388 61.5786C38.7534 61.5786 38.1507 61.5519 37.6027 61.5173C36.4573 61.4466 35.14 61.3159 33.9947 60.6493C32.8227 59.968 31.5414 59.12 31.176 57.6813C31.0667 57.2533 31.3254 56.8173 31.7547 56.7093C32.1827 56.6 32.6187 56.8586 32.7267 57.288C32.94 58.1253 33.908 58.7493 34.7987 59.2666C35.6413 59.7573 36.7387 59.8613 37.7 59.9213C39.3507 60.0226 41.2867 60.0533 43.116 59.5133C44.988 58.9613 46.2534 57.0933 46.8414 56.0293C47.0547 55.6426 47.5413 55.5026 47.928 55.716C48.3147 55.9293 48.4547 56.416 48.2414 56.8026C47.5347 58.0813 45.988 60.3346 43.568 61.0479C42.1667 61.4626 40.7067 61.5786 39.388 61.5786Z" fill="black"/>
<path d="M46.508 55.304C46.2747 55.304 46.044 55.2026 45.8854 55.0066C45.696 54.772 45.5507 54.5133 45.4107 54.264C45.3107 54.0866 45.208 53.9026 45.0867 53.7226C44.84 53.356 44.9374 52.8586 45.3027 52.612C45.6694 52.3653 46.1667 52.4626 46.4134 52.828C46.572 53.0626 46.696 53.2853 46.8054 53.4813C46.9227 53.6906 47.024 53.8706 47.128 54C47.4054 54.344 47.3534 54.8466 47.0094 55.1253C46.8627 55.2466 46.6854 55.304 46.508 55.304Z" fill="black"/>
<path d="M33.7481 56.8093C33.4721 56.8093 33.2041 56.6666 33.0561 56.4106C32.8335 56.0293 32.9641 55.5386 33.3455 55.3173C33.7148 55.1026 34.0041 54.8399 34.2161 54.6493L34.2655 54.6053C34.7415 54.1759 34.8228 54.0066 34.9241 53.7933C34.9535 53.7319 34.9828 53.6719 35.0161 53.6079C35.2228 53.2173 35.7068 53.0679 36.0975 53.2733C36.4881 53.4799 36.6375 53.9639 36.4321 54.3546C36.4095 54.3986 36.3895 54.4399 36.3695 54.4826C36.1948 54.8479 35.9961 55.1986 35.3388 55.7919L35.2921 55.8346C35.0428 56.0599 34.6668 56.4013 34.1521 56.6999C34.0228 56.7746 33.8841 56.8093 33.7481 56.8093Z" fill="black"/>
<path d="M24.1973 47.3587C23.98 47.7187 23.672 48.016 23.3053 48.22C22.9373 48.424 22.5227 48.528 22.1027 48.5227C21.6827 48.516 21.2707 48.4 20.9093 48.1853C20.548 47.9707 20.2493 47.6653 20.0413 47.2987C19.6347 46.5773 19.4587 45.5267 18.6467 45.368C17.972 45.2347 17.4213 45.86 16.9133 46.3227C16.3067 46.8707 15.52 47.2653 14.7027 47.2453C13.8853 47.2253 13.0547 46.724 12.804 45.9453C12.4453 44.8347 13.292 43.6907 13.2853 42.5253C13.3013 42.2107 13.1973 41.9027 12.9947 41.6613C12.524 41.1733 11.7187 41.42 11.044 41.356C9.63334 41.2227 8.77734 39.5187 9.124 38.1453C9.47067 36.772 10.6613 35.764 11.924 35.124C13.1867 34.484 14.5773 34.1173 15.8347 33.4613C17.3933 32.644 18.696 31.412 19.6 29.9013C20.304 28.724 20.748 27.4013 21.4947 26.2507C22.828 24.2027 25.0187 22.856 27.2973 21.9747C29.576 21.0933 31.9867 20.6173 34.32 19.896C36.072 19.3547 37.8493 18.6667 39.6747 18.8293C40.884 18.9373 42.1573 19.532 42.608 20.6573L45.7347 21.7573C49.4307 21.9067 52.968 24.176 54.644 27.4747C55.22 28.6053 55.6013 29.8613 56.428 30.824C57.5613 32.144 59.4947 32.8853 59.9587 34.5573C60.5733 36.764 58.1987 38.7333 58.052 41.0187C57.9693 42.3027 58.5853 43.7107 57.9187 44.8107C57.3413 45.76 56.052 46.0173 55.32 46.8547C54.4467 47.852 54.476 49.5413 53.348 50.2373C52.904 50.5107 51.1867 50.8333 50.7147 50.616C48.7787 49.7267 48.5747 50.9267 46.9373 51.0813" fill="black"/>
<path d="M45.2853 52.3227C45.1333 50.4973 45.472 48.932 46.2667 47.2813C46.4467 46.908 46.8333 46.912 47.216 46.7907C47.556 46.684 47.8893 46.5613 48.2187 46.4227C48.8867 46.1453 49.5173 45.7867 50.0987 45.356C51.248 44.488 52.144 43.2693 52.48 41.856C52.7853 40.5747 52.5707 39.0493 51.1467 38.328C50.1427 37.8213 49.2427 38.0013 47.7133 39.3453L46.5253 39.0453C45.008 38.9533 43.812 37.6253 43.3147 36.1907C42.8173 34.756 42.8493 33.2 42.7387 31.6853C42.6893 31.0093 42.5827 30.2773 42.0933 29.808C41.56 29.2987 40.748 29.26 40.012 29.2493L38.8387 28.8493C38.3867 28.36 37.8333 27.9747 37.2187 27.7173C36.604 27.4613 35.9413 27.34 35.2747 27.3627C34.6093 27.3853 33.956 27.5507 33.36 27.848C32.764 28.1453 32.2387 28.568 31.82 29.0867C31.32 29.7067 30.9427 30.4867 30.22 30.8267C29.4973 31.1667 28.6773 30.9693 27.892 30.984C27.1067 30.9987 26.1707 31.424 26.1507 32.208L25.1827 33.6747C24.3227 35.8867 23.8053 37.884 23.6747 39.0933C23.3453 42.1387 23.96 45.5227 26.2893 47.692C27.5307 48.8467 29.068 49.4147 30.712 49.704C32.4267 50.0067 34.2667 50.2827 35.9307 49.6027C35.8427 50.9907 35.8293 51.9813 35.8933 53.3707" fill="white"/>
<path d="M22.1373 49.3267C22.1213 49.3267 22.1067 49.3267 22.0907 49.3267C21.532 49.3187 20.9813 49.164 20.5 48.8774C20.0187 48.592 19.62 48.184 19.344 47.6974C19.2133 47.4654 19.1107 47.224 19.0107 46.992C18.8507 46.6174 18.6707 46.1934 18.492 46.1587C18.3053 46.1214 17.9093 46.4934 17.6467 46.7387C17.58 46.8014 17.5147 46.8627 17.4493 46.9214C16.612 47.672 15.632 48.072 14.6827 48.0507C13.4693 48.0227 12.384 47.26 12.0413 46.196C11.7547 45.3107 12.0067 44.4774 12.2293 43.7414C12.36 43.3067 12.484 42.8974 12.484 42.5307C12.484 42.5174 12.484 42.5027 12.4853 42.4894C12.4907 42.3894 12.4613 42.292 12.404 42.2107C12.3 42.1387 11.9547 42.1534 11.7 42.1627C11.4653 42.172 11.2227 42.1814 10.968 42.1574C10.1613 42.0814 9.43469 41.6427 8.92269 40.92C8.32269 40.0734 8.10269 38.9387 8.34802 37.9574C8.70002 36.5454 9.84135 35.2867 11.5627 34.416C12.2133 34.0867 12.888 33.828 13.54 33.5787C14.2187 33.3187 14.8587 33.0734 15.464 32.7574C16.8947 32.008 18.0907 30.8787 18.9213 29.492C19.2253 28.984 19.4787 28.444 19.7467 27.872C20.068 27.1894 20.3987 26.4827 20.8307 25.816C22.0973 23.8667 24.1787 22.324 27.016 21.2294C28.476 20.6667 29.9933 20.2627 31.46 19.8707C32.328 19.6387 33.2253 19.4 34.0907 19.132C34.3307 19.0574 34.5707 18.9814 34.8107 18.904C36.388 18.3987 38.0187 17.8774 39.7533 18.0334C41.0893 18.1534 42.7387 18.828 43.3573 20.3587C43.5227 20.768 43.3253 21.2347 42.9147 21.4C42.5053 21.5654 42.0387 21.368 41.8733 20.9574C41.524 20.0934 40.436 19.7014 39.6093 19.6267C38.1973 19.5 36.7893 19.9507 35.2973 20.428C35.052 20.5067 34.8067 20.5854 34.5627 20.6614C33.668 20.9374 32.7547 21.1814 31.872 21.4174C30.4453 21.7974 28.9707 22.1907 27.592 22.7227C25.0747 23.6934 23.2507 25.028 22.172 26.688C21.8 27.2614 21.5053 27.888 21.1947 28.552C20.9213 29.1334 20.6387 29.736 20.2933 30.3134C19.312 31.9534 17.8973 33.2894 16.204 34.176C15.516 34.5347 14.8013 34.808 14.1107 35.0734C13.468 35.3187 12.8613 35.552 12.284 35.844C11.5307 36.2254 10.22 37.0574 9.89869 38.3454C9.76535 38.8787 9.89469 39.5267 10.2267 39.996C10.3947 40.2334 10.6867 40.5254 11.1173 40.5654C11.2653 40.58 11.4453 40.572 11.636 40.5654C12.208 40.5427 12.9907 40.512 13.5693 41.112C13.5813 41.1254 13.5933 41.1374 13.6053 41.152C13.936 41.544 14.1053 42.04 14.084 42.552C14.08 43.148 13.9107 43.7094 13.76 44.2054C13.5827 44.7907 13.4307 45.2947 13.564 45.7054C13.6973 46.1187 14.1933 46.44 14.72 46.452C15.2627 46.4614 15.848 46.2094 16.3787 45.7334C16.4347 45.6827 16.4947 45.6267 16.556 45.5694C17.0867 45.0734 17.8147 44.3934 18.8027 44.5894C19.812 44.7867 20.2 45.6987 20.484 46.3654C20.5707 46.5667 20.6507 46.7574 20.7387 46.912C20.876 47.156 21.076 47.36 21.3173 47.5027C21.5587 47.6454 21.8333 47.724 22.1133 47.728C22.3947 47.732 22.6707 47.6627 22.916 47.5267C23.1613 47.3907 23.3667 47.192 23.512 46.952C23.74 46.5734 24.232 46.452 24.6107 46.68C24.9893 46.908 25.1107 47.4 24.8827 47.7787C24.5933 48.2574 24.1827 48.6534 23.6933 48.9254C23.2173 49.188 22.68 49.3267 22.1373 49.3267Z" fill="black"/>
<path d="M46.944 51.8828C46.536 51.8828 46.188 51.5721 46.148 51.1575C46.1067 50.7175 46.4293 50.3268 46.8693 50.2855C47.3333 50.2415 47.6373 50.0921 47.9893 49.9175C48.692 49.5708 49.4867 49.1775 51.0293 49.8775C51.3853 49.9521 52.6507 49.7188 52.9387 49.5548C53.3427 49.3055 53.548 48.7548 53.7867 48.1188C54.0053 47.5335 54.2533 46.8695 54.7267 46.3281C55.1413 45.8548 55.668 45.5441 56.1347 45.2721C56.616 44.9895 57.032 44.7455 57.244 44.3961C57.5293 43.9241 57.448 43.2695 57.3547 42.5108C57.2933 42.0135 57.2293 41.4988 57.2627 40.9681C57.3373 39.8068 57.8653 38.7895 58.376 37.8055C58.9573 36.6855 59.46 35.7175 59.1973 34.7735C58.9747 33.9695 58.2467 33.4041 57.404 32.7508C56.86 32.3281 56.2987 31.8921 55.8293 31.3468C55.176 30.5868 54.7867 29.7041 54.408 28.8508C54.252 28.4975 54.104 28.1628 53.9387 27.8388C52.4027 24.8161 49.096 22.6948 45.7093 22.5575C45.268 22.5401 44.924 22.1668 44.9427 21.7255C44.96 21.2841 45.336 20.9415 45.7747 20.9588C49.7827 21.1201 53.548 23.5361 55.3653 27.1135C55.5493 27.4748 55.7133 27.8455 55.872 28.2028C56.2173 28.9841 56.544 29.7228 57.044 30.3041C57.4067 30.7268 57.8827 31.0961 58.3853 31.4868C59.3173 32.2108 60.3733 33.0308 60.7387 34.3441C61.1707 35.8948 60.44 37.3015 59.796 38.5428C59.3413 39.4188 58.912 40.2455 58.8587 41.0708C58.8347 41.4508 58.8867 41.8695 58.9413 42.3135C59.056 43.2348 59.1853 44.2788 58.6107 45.2255C58.188 45.9215 57.5267 46.3095 56.9427 46.6508C56.5467 46.8828 56.1733 47.1015 55.9293 47.3815C55.648 47.7028 55.472 48.1761 55.284 48.6775C54.9867 49.4748 54.6493 50.3788 53.7747 50.9188C53.1973 51.2735 51.184 51.7108 50.3867 51.3428C49.52 50.9441 49.2627 51.0721 48.6973 51.3521C48.288 51.5548 47.7773 51.8068 47.02 51.8788C46.9947 51.8815 46.9693 51.8828 46.944 51.8828Z" fill="black"/>
<path d="M26.1387 33.0094C26.132 33.0094 26.1253 33.0094 26.1173 33.0094C25.676 32.9987 25.3267 32.6307 25.3373 32.1894C25.3693 30.9187 26.6627 30.208 27.864 30.1854C28.1173 30.18 28.3613 30.1947 28.5973 30.208C29.0987 30.2374 29.532 30.2614 29.8667 30.104C30.2067 29.944 30.4707 29.572 30.7747 29.14C30.904 28.9574 31.036 28.7694 31.1853 28.5854C31.6787 27.9734 32.2867 27.4854 32.9907 27.1334C33.6947 26.7827 34.4507 26.5907 35.236 26.564C36.0227 26.5374 36.7893 26.6774 37.5147 26.98C38.24 27.2827 38.88 27.7294 39.4133 28.3067C39.7133 28.6307 39.6933 29.1374 39.3693 29.4374C39.0453 29.7374 38.5387 29.7174 38.2387 29.3934C37.8613 28.9854 37.4107 28.6707 36.8973 28.4574C36.3853 28.244 35.8427 28.144 35.2893 28.164C34.7347 28.1827 34.2013 28.3174 33.704 28.5654C33.2067 28.8134 32.7787 29.1587 32.4293 29.5907C32.3133 29.7347 32.2 29.8947 32.0813 30.064C31.7013 30.6027 31.2707 31.212 30.548 31.552C29.8467 31.8827 29.1347 31.8414 28.5067 31.8054C28.2907 31.7934 28.0867 31.7814 27.8947 31.7854C27.3947 31.7947 26.9427 32.0414 26.9387 32.2294C26.928 32.664 26.572 33.0094 26.1387 33.0094Z" fill="black"/>
<path d="M46.5147 39.8414C46.4987 39.8414 46.4813 39.8414 46.4653 39.84C45.1733 39.7614 43.3707 38.8267 42.5467 36.4494C42.1173 35.2107 42.0507 33.9334 41.9853 32.6974C41.9693 32.3814 41.952 32.056 41.9293 31.74C41.8893 31.196 41.8133 30.656 41.528 30.3814C41.2213 30.0867 40.624 30.0547 39.9893 30.0454C39.548 30.0387 39.1947 29.676 39.2013 29.2334C39.208 28.792 39.572 28.4387 40.0133 28.4454C40.744 28.456 41.8493 28.472 42.636 29.2267C43.3133 29.8774 43.4667 30.8027 43.5267 31.624C43.5507 31.9547 43.568 32.2894 43.5853 32.6134C43.6467 33.7894 43.7053 34.9014 44.06 35.9254C44.4413 37.0267 45.364 38.1707 46.5627 38.244C47.004 38.2707 47.34 38.6494 47.3133 39.0907C47.2867 39.5147 46.9333 39.8414 46.5147 39.8414Z" fill="black"/>
<path d="M45.2787 52.3187C44.868 52.3187 44.5173 52.004 44.4827 51.5854C44.3133 49.5774 44.704 48.6587 45.5333 46.9307C45.8373 46.3 46.412 46.1614 46.756 46.0787C46.8307 46.06 46.9013 46.044 46.9627 46.024C47.28 45.924 47.5933 45.8094 47.896 45.6814C48.508 45.428 49.0827 45.1014 49.6107 44.7094C50.6747 43.9054 51.416 42.824 51.6907 41.6667C51.832 41.084 52.024 39.668 50.7747 39.0374C50.2293 38.7614 49.6947 38.6534 48.2293 39.9414C47.8973 40.2334 47.392 40.2 47.1 39.868C46.808 39.536 46.8413 39.0307 47.1733 38.7387C49.2773 36.8894 50.4933 37.1027 51.4947 37.608C53.0467 38.392 53.7173 40.0894 53.2453 42.0387C52.8853 43.5534 51.9347 44.9574 50.5693 45.988C49.932 46.4614 49.2413 46.8534 48.5133 47.1547C48.168 47.3 47.8067 47.4334 47.4427 47.5467C47.332 47.5814 47.2253 47.608 47.132 47.6307C47.0733 47.6454 46.9973 47.6627 46.948 47.6787C46.1813 49.2787 45.944 49.88 46.0773 51.448C46.1147 51.888 45.788 52.2747 45.348 52.312C45.324 52.3174 45.3013 52.3187 45.2787 52.3187Z" fill="black"/>
<path d="M35.8853 53.4987C35.46 53.4987 35.1067 53.164 35.0867 52.7347C35.044 51.796 35.0347 51.324 35.0613 50.68C33.4587 50.9894 31.8267 50.7054 30.568 50.4854C28.5347 50.1267 26.9547 49.4027 25.7373 48.2707C23.5 46.1867 22.456 42.808 22.872 38.9987C23.028 37.5867 23.6093 35.4854 24.4293 33.3774C24.5893 32.9654 25.0533 32.7614 25.4653 32.9214C25.8773 33.0814 26.0813 33.5454 25.9213 33.9574C25.012 36.296 24.572 38.1854 24.4627 39.1734C24.1013 42.4734 24.9627 45.3627 26.828 47.0987C27.8253 48.0267 29.1013 48.6014 30.844 48.908C32.6253 49.2187 34.216 49.428 35.6213 48.8534C35.876 48.7494 36.1667 48.784 36.3907 48.944C36.6147 49.1054 36.74 49.3694 36.7227 49.644C36.6373 50.9854 36.6227 51.2814 36.6867 52.6574C36.7067 53.0987 36.3653 53.4734 35.924 53.4934C35.9093 53.4987 35.8973 53.4987 35.8853 53.4987Z" fill="black"/>
<path d="M29.124 37.3467C29.6394 37.3467 30.0573 36.8393 30.0573 36.2134C30.0573 35.5874 29.6394 35.08 29.124 35.08C28.6085 35.08 28.1906 35.5874 28.1906 36.2134C28.1906 36.8393 28.6085 37.3467 29.124 37.3467Z" fill="black"/>
<path d="M33.6573 37.66C34.1728 37.66 34.5907 37.1526 34.5907 36.5267C34.5907 35.9008 34.1728 35.3934 33.6573 35.3934C33.1419 35.3934 32.724 35.9008 32.724 36.5267C32.724 37.1526 33.1419 37.66 33.6573 37.66Z" fill="black"/>
</g>
</g>
<circle cx="40" cy="40" r="38.5" stroke="black" stroke-width="3"/>
<defs>
<clipPath id="clip0_846_13253">
<rect width="80" height="192" fill="white"/>
</clipPath>
</defs>
</svg>
