<svg width="80" height="80" viewBox="0 0 80 80" fill="none" xmlns="http://www.w3.org/2000/svg">
<mask id="mask0_846_13251" style="mask-type:alpha" maskUnits="userSpaceOnUse" x="0" y="0" width="80" height="80">
<circle cx="40" cy="40" r="40" fill="white"/>
</mask>
<g mask="url(#mask0_846_13251)">
<rect width="80" height="80" fill="white"/>
<g clip-path="url(#clip0_846_13251)">
<path d="M45.2493 51C45.3693 52.3467 45.92 55.3893 47.9693 54.9333L48.1893 55.2667C48.0893 57.356 47.0306 58.8293 45.372 60.356C43.6866 61.8827 41.5373 62.8 39.2693 62.9613C37.2693 63.108 35.1426 62.6293 33.6466 61.288C32.1506 59.9467 31.364 58.088 32.3546 56.4947H32.4986C32.9493 56.508 33.364 56.272 33.7453 56.032C34.2306 55.7253 35.232 54.468 35.532 54.1067C35.932 53.588 36.0946 51.6213 36.3 51H45.2493Z" fill="white"/>
<path d="M48.208 54.2C50.5667 54.832 52.396 56.6493 53.8693 58.5106C55.476 60.5426 56.736 62.8253 57.6 65.2667C58.084 66.6307 58.8493 68.1653 59.1653 69.576L59.5867 70.8666C61.8693 80.6972 62.2773 90.8373 62.4267 100.947L62.56 101.099C63.3813 104.104 66.448 111.704 67.1147 114.904C67.136 115.177 67.0907 115.452 66.9813 115.704C65.648 117.304 63.3813 116.904 61.628 117.448L55.432 118.681C46.564 120.272 37.664 120.661 28.78 119.163L27.104 118.967L21.3707 117.869C20.8533 117.771 20.2853 117.639 19.9827 117.203C19.732 116.845 19.7333 116.375 19.752 115.939C19.828 114.205 20.028 112.485 20.228 110.764L21.1427 102.879H21.0733C19.7187 102.713 18.6307 102.549 17.276 102.385C17.8373 96.192 18.5573 90.0147 19.436 83.852C20.2 78.4853 21.0893 73.1173 22.668 67.932C24.0707 63.324 26.296 58.5586 30.5213 56.248L36.388 56.648L48.208 54.2Z" fill="white"/>
<path d="M36.4 56.656L37.6774 62.2C39.708 61.4867 41.744 60.772 43.6774 59.8267C44.3734 59.4867 45.072 59.1027 45.576 58.5147C46.172 57.82 46.4387 56.9147 46.6907 56.0307C47.0694 54.6973 47.4507 53.364 47.576 51.9813C45.9254 52.108 44.4 52.8667 42.9227 53.612C40.9614 54.6 39 55.5907 36.4 56.656Z" fill="white"/>
<path d="M35 54L34.4733 54.9653C34.4013 55.168 34.3733 55.384 34.388 55.5987C34.4787 56.22 35.2187 56.476 35.832 56.6054C35.1427 58.26 34.1467 59.7707 32.8987 61.0574C32.208 60.316 31.6827 59.4374 31.3573 58.4774C31.032 57.5174 30.916 56.5 31.0147 55.492L35 53.5C35.248 53.9067 35.1467 54.1227 35 54Z" fill="white"/>
<path d="M59.164 70.376C58.7974 70.376 58.468 70.1227 58.384 69.7507C58.192 68.8947 57.8067 67.9507 57.4334 67.0373C57.2294 66.54 57.02 66.0253 56.8454 65.5347C56.008 63.1693 54.796 60.9733 53.2414 59.0066C52.1067 57.5733 50.3294 55.5973 48 54.972C47.5734 54.8573 47.32 54.4186 47.4347 53.992C47.5494 53.5653 47.988 53.312 48.4147 53.4266C51.2027 54.1733 53.2214 56.4026 54.496 58.0133C56.16 60.1186 57.4587 62.468 58.3534 64.9987C58.5147 65.4533 58.7094 65.928 58.9147 66.4307C59.3134 67.4053 59.724 68.4133 59.9454 69.4C60.0414 69.8307 59.7707 70.2587 59.34 70.356C59.2814 70.3693 59.2227 70.376 59.164 70.376Z" fill="black"/>
<path d="M25.9014 119.543C25.852 119.543 25.8014 119.537 25.7507 119.528L21.224 118.661C20.6987 118.556 19.8334 118.381 19.332 117.669C18.94 117.111 18.932 116.468 18.956 115.911C19.0334 114.148 19.2387 112.384 19.436 110.679L21.052 96.7439C22.1507 87.3399 23.2854 77.6147 25.496 68.232C25.5974 67.8027 26.028 67.5347 26.4587 67.6373C26.888 67.7387 27.1547 68.1693 27.0534 68.6C24.864 77.8932 23.7347 87.5719 22.6414 96.9319L21.0254 110.865C20.8307 112.544 20.6294 114.279 20.5534 115.983C20.544 116.195 20.5267 116.592 20.64 116.752C20.7734 116.941 21.248 117.037 21.5307 117.093L26.0507 117.959C26.484 118.041 26.7694 118.461 26.6854 118.895C26.612 119.276 26.2774 119.543 25.9014 119.543Z" fill="black"/>
<path d="M37.6827 62.996C37.5494 62.996 37.4147 62.9626 37.2974 62.8986C37.0974 62.7893 36.9494 62.6013 36.8974 62.38L35.62 56.836C35.532 56.4547 35.7334 56.0654 36.096 55.916C38.6387 54.8747 40.6 53.8854 42.4974 52.9307L42.5614 52.8987C44.0227 52.1614 45.6787 51.3254 47.5134 51.1854C47.748 51.1667 47.9787 51.2534 48.144 51.4214C48.3094 51.5894 48.392 51.8214 48.3707 52.0547C48.24 53.4974 47.848 54.8774 47.4694 56.2107L47.4574 56.2507C47.2107 57.1174 46.904 58.1947 46.18 59.0374C45.5867 59.7294 44.7947 60.172 44.0254 60.5467C42.0534 61.5106 39.968 62.244 37.9507 62.952C37.8667 62.9813 37.7747 62.996 37.6827 62.996ZM37.332 57.1347L38.256 61.148C39.9707 60.5414 41.7054 59.9 43.3254 59.108C43.8974 58.828 44.544 58.488 44.968 57.9947C45.4627 57.4174 45.696 56.6014 45.92 55.812L45.9307 55.772C46.2054 54.804 46.4694 53.876 46.636 52.94C45.48 53.2174 44.3654 53.7787 43.28 54.3267L43.2147 54.36C41.452 55.2494 39.6294 56.1667 37.332 57.1347Z" fill="black"/>
<path d="M32.8987 61.8573C32.896 61.8573 32.8933 61.8573 32.8907 61.8573C32.672 61.8547 32.4627 61.7627 32.3133 61.6027C31.54 60.7733 30.964 59.808 30.6 58.7333C30.236 57.6587 30.108 56.5427 30.2187 55.4133C30.244 55.148 30.4013 54.9133 30.6347 54.7867L34.9373 52.4667C35.2413 52.3027 35.616 52.352 35.8667 52.5893C36.1173 52.8267 36.188 53.1987 36.0413 53.5107L35.2173 55.264C35.1947 55.3373 35.184 55.4133 35.184 55.4907C35.2093 55.5267 35.364 55.6893 35.9973 55.8227C36.2307 55.872 36.4293 56.0227 36.54 56.2333C36.6507 56.444 36.6627 56.6933 36.5707 56.9133C35.84 58.668 34.7973 60.2493 33.4733 61.6147C33.3227 61.7693 33.1147 61.8573 32.8987 61.8573ZM31.784 55.9867C31.7587 56.7467 31.8707 57.496 32.116 58.2213C32.312 58.8 32.5853 59.3387 32.932 59.832C33.644 58.9933 34.2467 58.076 34.7333 57.0907C34.0667 56.7813 33.6853 56.32 33.596 55.7147C33.5933 55.6947 33.5907 55.676 33.5893 55.656C33.5733 55.4293 33.5893 55.2053 33.636 54.9853L31.784 55.9867Z" fill="black"/>
<path d="M21.0733 103.68C21.0413 103.68 21.008 103.679 20.976 103.675C20.3067 103.593 19.6933 103.511 19.1013 103.431C18.4933 103.349 17.864 103.264 17.18 103.181C16.7507 103.129 16.44 102.745 16.48 102.315C17.04 96.132 17.768 89.8827 18.6453 83.74C19.3867 78.5333 20.2947 72.9867 21.904 67.7C23.8173 61.4387 26.4347 57.5787 30.1427 55.5507C30.5307 55.3387 31.016 55.4814 31.228 55.8694C31.44 56.2574 31.2973 56.7427 30.9093 56.9547C27.592 58.7694 25.216 62.332 23.4333 68.1667C21.856 73.3493 20.96 78.8227 20.228 83.9653C19.3907 89.8267 18.6907 95.7853 18.1427 101.688C18.548 101.74 18.9347 101.792 19.3147 101.844C19.9027 101.923 20.5093 102.005 21.1693 102.085C21.608 102.139 21.92 102.537 21.8667 102.976C21.816 103.383 21.472 103.68 21.0733 103.68Z" fill="black"/>
<path d="M34.1135 120.668C33.7135 120.668 33.3681 120.369 33.3201 119.963C31.8868 107.919 32.6655 95.6667 33.4175 83.8173L35.0975 57.3493C35.1255 56.908 35.5068 56.5773 35.9468 56.6013C36.3881 56.6293 36.7228 57.0093 36.6948 57.4507L35.0148 83.9187C34.2668 95.696 33.4935 107.875 34.9095 119.773C34.9615 120.212 34.6481 120.611 34.2095 120.663C34.1775 120.667 34.1455 120.668 34.1135 120.668Z" fill="black"/>
<path d="M62.4827 106.376C62.4787 106.376 62.4734 106.376 62.4694 106.376L50.8614 106.185C50.4654 106.179 50.1334 105.883 50.0814 105.489C48.5014 93.4586 47.9494 81.2106 48.4414 69.0866C48.4587 68.6453 48.8307 68.304 49.2734 68.32C49.7147 68.3373 50.0587 68.7106 50.04 69.152C49.5614 80.956 50.0787 92.8773 51.5787 104.597L61.6734 104.763C61.668 104.277 61.664 103.793 61.6587 103.311C61.5547 92.604 61.456 82.492 59.0187 71.984C58.9187 71.5533 59.1867 71.124 59.6174 71.024C60.048 70.924 60.4774 71.192 60.5774 71.6226C63.0547 82.3013 63.1534 92.4986 63.2587 103.296C63.2654 104.051 63.2734 104.807 63.2814 105.568C63.284 105.784 63.1987 105.992 63.0454 106.144C62.8974 106.292 62.6934 106.376 62.4827 106.376Z" fill="black"/>
<path d="M47.8187 49.256C48.2947 49.964 48.7894 50.692 49.4974 51.1693C50.2054 51.6467 51.1881 51.82 51.9095 51.364C52.7095 50.856 53.2108 49.6307 54.1521 49.764C54.5241 49.8187 54.8188 50.0933 55.0988 50.348C55.8815 51.072 56.7868 51.7813 57.8521 51.848C58.9175 51.9147 60.0855 51.0213 59.9001 49.9707C59.8348 49.6 59.616 49.2587 59.62 48.8827C59.6267 48.2267 60.2867 47.7813 60.572 47.192C61.2574 45.8013 59.8015 43.9827 60.5988 42.652C60.8441 42.2453 61.2587 41.976 61.6147 41.6613C63.3827 40.0947 63.5494 37.0507 61.9614 35.3C61.3734 34.652 60.5747 34.1453 60.2614 33.328C60.0667 32.82 60.0881 32.2613 60.0975 31.716C60.1481 28.6013 59.664 25.4133 58.18 22.6733C56.696 19.9333 54.7988 19.1787 51.7401 18.588L49.3494 17.1027C48.6027 15.916 47.1868 15.3453 45.8321 14.9853C41.5655 13.8547 36.2374 12.6333 32.196 14.4C28.1547 16.1667 24.764 19.4467 23.012 23.4947C22.108 25.584 21.5987 27.912 20.1227 29.6453C18.864 31.124 17.0347 32.004 15.668 33.3787C14.3014 34.7533 13.4934 37.112 14.744 38.5973C14.9974 38.8987 15.328 39.1533 15.472 39.5213C15.9667 40.784 14.068 41.596 13.456 42.8067C12.884 43.94 13.56 45.3147 14.42 46.2493C15.28 47.184 16.3667 47.9827 16.836 49.16C17.184 50.0347 17.208 51.132 17.964 51.6933C18.8107 52.3227 20.0214 51.872 21.0507 52.1053C22.08 52.3387 22.8187 53.2307 23.6214 53.928C24.424 54.6253 25.6147 55.1667 26.516 54.6027C26.996 54.3013 27.272 53.748 27.7494 53.444C28.7107 52.8307 29.9387 53.4507 31.0254 53.796C32.112 54.1413 33.748 53.7813 33.6827 52.6427" fill="black"/>
<path d="M45.2854 52.3226C45.1334 50.4973 45.472 48.932 46.2667 47.2813C46.4467 46.908 46.8334 46.912 47.216 46.7906C47.556 46.684 47.8894 46.5613 48.2187 46.4226C48.8867 46.1453 49.5187 45.7866 50.0987 45.356C51.248 44.488 52.144 43.2693 52.48 41.856C52.7854 40.5746 52.5707 39.0493 51.1467 38.328C50.1427 37.8213 49.2427 38.0013 47.7134 39.3453L47.26 38.2666C47.7374 35.9293 47.932 33.5413 47.84 31.1573C47.7974 30.0373 46.28 28.2773 45.244 27.8493L43.4494 26.0226C42.516 24.156 35.7654 23.5546 33.7627 24.1346C30.2854 25.264 29.276 25.8613 28.2694 27.216C27.2627 28.5706 26.7214 30.2066 26.1974 31.8106L25.1747 33.6666C24.3147 35.8786 23.7974 37.876 23.6667 39.0853C23.3374 42.1306 23.952 45.5146 26.2814 47.684C27.5227 48.8386 29.06 49.4066 30.704 49.696C32.4187 49.9986 34.2587 50.2746 35.9227 49.5946C35.8347 50.9826 35.8214 52.1066 35.8854 53.496" fill="white"/>
<path d="M25.6747 55.64C24.7387 55.64 23.7947 55.1387 23.096 54.532C22.912 54.372 22.7347 54.2053 22.5614 54.044C22 53.5173 21.4694 53.0213 20.872 52.8853C20.5707 52.8173 20.208 52.828 19.8227 52.8387C19.0734 52.86 18.2254 52.8853 17.484 52.3347C16.7334 51.7773 16.512 50.9413 16.3174 50.204C16.2454 49.9333 16.1774 49.6773 16.0894 49.4547C15.808 48.7493 15.2107 48.1667 14.5787 47.5493C14.3294 47.3067 14.072 47.0547 13.828 46.7893C12.2654 45.0907 12.24 43.4307 12.7387 42.444C13.0267 41.8733 13.504 41.4093 13.924 41C14.5707 40.3707 14.824 40.0667 14.724 39.8107C14.68 39.6973 14.544 39.556 14.3987 39.4053C14.3107 39.3133 14.2187 39.2187 14.128 39.1093C13.392 38.2347 13.148 37.048 13.4414 35.7653C13.684 34.7027 14.288 33.6253 15.0974 32.812C15.7574 32.148 16.504 31.6013 17.2267 31.0733C18.076 30.452 18.88 29.8653 19.5107 29.124C20.4667 28.0013 20.988 26.5773 21.54 25.0693C21.768 24.4453 22.0054 23.7987 22.276 23.1733C24.0787 19.008 27.5774 15.5413 31.8734 13.6627C36.088 11.82 41.3934 12.9787 46.0347 14.208C47.292 14.5427 49.0734 15.1613 50.024 16.672C50.2587 17.0453 50.1467 17.54 49.7733 17.7747C49.3987 18.0093 48.9054 17.8973 48.6707 17.524C48.02 16.4893 46.6214 16.0187 45.6254 15.7533C41.2454 14.592 36.2574 13.4907 32.5147 15.1267C28.5854 16.844 25.388 20.008 23.744 23.8067C23.492 24.3893 23.264 25.0133 23.0427 25.616C22.4667 27.1893 21.872 28.816 20.7294 30.1573C19.9774 31.0413 19.06 31.712 18.172 32.3613C17.468 32.876 16.804 33.3613 16.2334 33.936C15.0974 35.0787 14.4374 36.9867 15.3547 38.0747C15.412 38.1427 15.4814 38.216 15.556 38.2933C15.7787 38.5253 16.056 38.8147 16.216 39.2227C16.72 40.5093 15.7507 41.4533 15.0427 42.1413C14.696 42.4787 14.3374 42.828 14.1694 43.16C13.7774 43.936 14.376 45.0133 15.008 45.7C15.2227 45.9333 15.4547 46.1587 15.6987 46.3987C16.4227 47.1053 17.1707 47.836 17.5787 48.8573C17.7027 49.1693 17.7867 49.484 17.8667 49.7893C18.0134 50.3427 18.14 50.8213 18.44 51.0453C18.7347 51.2653 19.2187 51.2507 19.7774 51.2347C20.2227 51.2213 20.728 51.2067 21.2267 51.32C22.2467 51.5507 22.9947 52.252 23.656 52.8707C23.8254 53.0293 23.984 53.1787 24.1454 53.3187C24.7507 53.8453 25.5867 54.2347 26.0907 53.9187C26.2334 53.8293 26.38 53.6627 26.536 53.4853C26.7467 53.2467 26.9854 52.9747 27.3187 52.7627C28.4494 52.0413 29.7214 52.4893 30.7427 52.848C30.92 52.9107 31.0947 52.972 31.2667 53.0267C31.776 53.188 32.4694 53.1213 32.7787 52.88C32.8814 52.8013 32.8867 52.7453 32.8827 52.6813C32.8574 52.24 33.1947 51.8627 33.636 51.8373C34.0774 51.812 34.4547 52.1493 34.48 52.5907C34.5147 53.2053 34.26 53.7573 33.76 54.1453C33.032 54.7107 31.8067 54.8787 30.7814 54.552C30.5907 54.4907 30.3974 54.424 30.2107 54.3573C29.4094 54.0747 28.652 53.8093 28.1774 54.112C28.0347 54.2027 27.8894 54.368 27.7347 54.5427C27.5214 54.7853 27.2787 55.06 26.9387 55.2733C26.5374 55.5333 26.1067 55.64 25.6747 55.64Z" fill="black"/>
<path d="M57.968 52.6573C57.912 52.6573 57.856 52.656 57.8014 52.652C56.48 52.568 55.4187 51.74 54.556 50.9413L54.5427 50.9293C54.3814 50.7813 54.1614 50.5787 54.0454 50.564C53.8614 50.5373 53.5734 50.8587 53.2947 51.168C53.0267 51.4653 52.724 51.8013 52.3414 52.0453C51.4054 52.6373 50.1147 52.556 49.052 51.84C48.2014 51.2667 47.6467 50.4387 47.156 49.7093C46.9094 49.3427 47.008 48.8453 47.3747 48.5987C47.7414 48.352 48.2387 48.4507 48.4854 48.8173C48.9134 49.4547 49.356 50.1147 49.9467 50.5133C50.372 50.8 51.0347 50.98 51.484 50.6947C51.6814 50.5693 51.888 50.34 52.1067 50.0973C52.5867 49.564 53.2454 48.8347 54.2667 48.9787C54.876 49.0613 55.3094 49.46 55.6267 49.7507L55.6427 49.7653C56.3027 50.3747 57.084 51.004 57.9054 51.056C58.2614 51.0787 58.6827 50.9013 58.9307 50.6253C59.0347 50.508 59.152 50.3253 59.1147 50.116C59.0987 50.028 59.0587 49.9147 59.0174 49.796C58.9307 49.552 58.8227 49.248 58.8227 48.8893C58.8294 48.1933 59.216 47.7053 59.528 47.3147C59.6614 47.1467 59.788 46.9867 59.8574 46.8453C60.0667 46.4213 59.9267 45.8 59.7774 45.1413C59.572 44.2333 59.34 43.2053 59.9147 42.248C60.1707 41.824 60.5227 41.536 60.8334 41.2827C60.9187 41.212 61.0054 41.1427 61.088 41.0693C61.7707 40.4667 62.1947 39.5373 62.2507 38.5187C62.3067 37.4973 61.9867 36.5227 61.372 35.844C61.2147 35.6707 61.0334 35.5027 60.84 35.324C60.3534 34.8733 59.8014 34.3613 59.5174 33.6213C59.2774 32.9947 59.2894 32.356 59.2987 31.7933L59.3 31.7093C59.356 28.304 58.7427 25.3947 57.4787 23.0613C56.1707 20.6467 54.5374 19.9507 51.5907 19.3813C51.1574 19.2973 50.8734 18.8773 50.9574 18.444C51.0414 18.0107 51.46 17.7267 51.8947 17.8107C55.1974 18.448 57.2907 19.3533 58.8867 22.3C60.2827 24.8773 60.96 28.0533 60.9 31.7373L60.8987 31.824C60.8907 32.2813 60.8827 32.7147 61.0107 33.0507C61.1614 33.4427 61.5334 33.788 61.9267 34.152C62.136 34.3453 62.352 34.5467 62.556 34.7707C63.4574 35.764 63.928 37.1627 63.8467 38.608C63.7667 40.0507 63.1467 41.3853 62.1454 42.2693C62.048 42.356 61.9467 42.4387 61.8454 42.5213C61.6147 42.7093 61.3974 42.888 61.2854 43.0733C61.0414 43.48 61.1787 44.0867 61.3374 44.7907C61.5307 45.6493 61.7507 46.6213 61.2907 47.5547C61.1454 47.8493 60.9507 48.0947 60.7787 48.3107C60.6027 48.532 60.4214 48.76 60.42 48.9C60.42 48.9747 60.472 49.1213 60.5227 49.264C60.5827 49.432 60.6494 49.6227 60.688 49.8413C60.804 50.4987 60.6027 51.1573 60.12 51.696C59.58 52.296 58.768 52.6573 57.968 52.6573Z" fill="black"/>
<path d="M26.1974 32.612C26.1147 32.612 26.0307 32.5987 25.9494 32.572C25.5294 32.4347 25.3 31.9827 25.4374 31.5627C25.9494 29.9933 26.5307 28.2147 27.628 26.7387C28.336 25.7853 29.1534 25.1133 30.3587 24.4893C32.4974 23.384 34.948 22.9173 37.4467 23.1387C39.1627 23.2907 43.2547 23.8413 44.1654 25.664C44.3627 26.0587 44.2027 26.54 43.808 26.7373C43.4134 26.9347 42.932 26.7747 42.7347 26.38C42.4347 25.78 40.3214 25 37.3054 24.732C35.1094 24.5373 32.9614 24.9453 31.0934 25.9107C30.104 26.4213 29.472 26.9373 28.912 27.6933C27.9707 28.96 27.456 30.536 26.9587 32.0587C26.848 32.3973 26.5347 32.612 26.1974 32.612Z" fill="black"/>
<path d="M47.2614 39.0667C47.208 39.0667 47.1534 39.0613 47.1 39.0507C46.6667 38.9613 46.388 38.5387 46.4774 38.1067C46.944 35.8347 47.136 33.5067 47.048 31.188C47.024 30.464 45.7854 28.936 44.9454 28.5893C44.5374 28.42 44.3427 27.9533 44.512 27.544C44.6814 27.136 45.148 26.9413 45.5574 27.1107C46.1827 27.3693 46.9267 27.9787 47.5454 28.74C47.944 29.2307 48.616 30.192 48.648 31.132C48.74 33.5747 48.5374 36.0307 48.0454 38.4293C47.9654 38.8067 47.6334 39.0667 47.2614 39.0667Z" fill="black"/>
<path d="M45.2787 52.3187C44.868 52.3187 44.5174 52.004 44.4827 51.5853C44.3134 49.5773 44.704 48.6587 45.5334 46.9307C45.8374 46.3 46.412 46.1613 46.756 46.0787C46.8307 46.06 46.9014 46.044 46.9627 46.024C47.28 45.924 47.5934 45.8093 47.896 45.6813C48.508 45.428 49.0827 45.1013 49.6107 44.7093C50.6747 43.9053 51.416 42.824 51.6907 41.6667C51.832 41.084 52.024 39.668 50.7747 39.0373C50.2294 38.7613 49.6947 38.6533 48.2294 39.9413C47.8974 40.2333 47.392 40.2 47.1 39.868C46.808 39.536 46.8414 39.0307 47.1734 38.7387C49.2774 36.8893 50.4934 37.1027 51.4947 37.608C53.0467 38.392 53.7174 40.0893 53.2454 42.0387C52.8854 43.5533 51.9347 44.9573 50.5694 45.988C49.932 46.4613 49.2414 46.8533 48.5134 47.1547C48.168 47.3 47.8067 47.4333 47.4427 47.5467C47.332 47.5813 47.2254 47.608 47.132 47.6307C47.0734 47.6453 46.9974 47.6627 46.948 47.6787C46.1814 49.2787 45.944 49.88 46.0774 51.448C46.1147 51.888 45.788 52.2747 45.348 52.312C45.324 52.3173 45.3014 52.3187 45.2787 52.3187Z" fill="black"/>
<path d="M35.8854 53.4988C35.46 53.4988 35.1067 53.1641 35.0867 52.7348C35.044 51.7961 35.0347 51.3241 35.0614 50.6801C33.4587 50.9894 31.8267 50.7054 30.568 50.4854C28.5347 50.1268 26.9547 49.4028 25.7374 48.2708C23.5 46.1868 22.456 42.8081 22.872 38.9988C23.028 37.5868 23.6094 35.4854 24.4294 33.3774C24.5894 32.9654 25.0534 32.7614 25.4654 32.9214C25.8774 33.0814 26.0814 33.5454 25.9214 33.9574C25.012 36.2961 24.572 38.1854 24.4627 39.1734C24.1014 42.4734 24.9627 45.3628 26.828 47.0988C27.8254 48.0268 29.1014 48.6014 30.844 48.9081C32.6254 49.2188 34.216 49.4281 35.6214 48.8534C35.876 48.7494 36.1667 48.7841 36.3907 48.9441C36.6147 49.1054 36.74 49.3694 36.7227 49.6441C36.6374 50.9854 36.6227 51.2814 36.6867 52.6574C36.7067 53.0988 36.3654 53.4734 35.924 53.4934C35.9094 53.4988 35.8974 53.4988 35.8854 53.4988Z" fill="black"/>
<path d="M29.124 37.3467C29.6395 37.3467 30.0573 36.8393 30.0573 36.2134C30.0573 35.5874 29.6395 35.08 29.124 35.08C28.6085 35.08 28.1907 35.5874 28.1907 36.2134C28.1907 36.8393 28.6085 37.3467 29.124 37.3467Z" fill="black"/>
<path d="M33.6573 37.66C34.1728 37.66 34.5907 37.1526 34.5907 36.5266C34.5907 35.9007 34.1728 35.3933 33.6573 35.3933C33.1419 35.3933 32.724 35.9007 32.724 36.5266C32.724 37.1526 33.1419 37.66 33.6573 37.66Z" fill="black"/>
</g>
</g>
<circle cx="40" cy="40" r="38.5" stroke="black" stroke-width="3"/>
<defs>
<clipPath id="clip0_846_13251">
<rect width="80" height="192" fill="white"/>
</clipPath>
</defs>
</svg>
