<svg width="80" height="80" viewBox="0 0 80 80" fill="none" xmlns="http://www.w3.org/2000/svg">
<mask id="mask0_846_13258" style="mask-type:alpha" maskUnits="userSpaceOnUse" x="0" y="0" width="80" height="80">
<circle cx="40" cy="40" r="40" fill="white"/>
</mask>
<g mask="url(#mask0_846_13258)">
<rect width="80" height="80" fill="white"/>
<g clip-path="url(#clip0_846_13258)">
<path d="M45.2493 56C45.3693 57.3467 45.92 60.3893 47.9693 59.9333L48.1893 60.2667C48.0893 62.356 47.0306 63.8293 45.372 65.356C43.6866 66.8827 41.5373 67.8 39.2693 67.9613C37.2693 68.108 35.1426 67.6293 33.6466 66.288C32.1506 64.9467 31.364 63.088 32.3546 61.4947H32.4986C32.9493 61.508 33.364 61.272 33.7453 61.032C34.2306 60.7253 34.644 59.348 34.944 58.9867C35.344 58.468 36.0933 56.6213 36.2986 56H45.2493Z" fill="white"/>
<path d="M58.9773 93.1813C61.9307 102.325 63.9853 109.339 66.684 118.164C66.8173 118.615 67.3507 120.208 67.104 120.607C66.9387 120.873 66.6613 121.044 66.3907 121.197C64.9107 122.039 63.2947 122.109 61.6253 122.445L55.4293 123.679C46.5613 125.269 37.6613 125.659 28.7773 124.16L27.1013 123.964L21.368 122.867C20.8507 122.768 20.2827 122.636 19.98 122.2C19.7294 121.843 19.7307 121.372 19.7493 120.936C19.8253 119.203 20.0253 117.483 20.2253 115.761L21.8027 102.161C22.4787 96.3347 23.156 90.4987 24.0773 84.708L24.0133 84.688C22.4627 84.1547 20.936 83.5626 19.408 82.9692C19.1973 82.9092 19.008 82.792 18.8587 82.632C18.5587 82.2453 18.816 81.6907 19.0733 81.2733C21.3453 77.58 23.288 73.6947 24.8813 69.6613C26.0973 66.5813 27.3667 63.116 30.3347 61.648L36.5373 62.356L48.208 59.2C50.2493 59.7466 51.924 61.2106 53.2987 62.8173C55.036 64.848 56.4133 67.1613 57.3733 69.656C59.4973 75.18 59.4987 81.4067 62.06 86.7427C60.8453 87.1027 59.612 87.3919 58.3653 87.6119L58.9773 93.1813Z" fill="white"/>
<path d="M36.2067 63.132C36.3067 64.504 36.6813 65.8414 37.3067 67.0667C37.36 67.1947 37.4467 67.3054 37.5573 67.388C37.7533 67.508 38.008 67.4347 38.224 67.356C40.1747 66.648 42.0627 65.776 43.8667 64.7507C44.7867 64.228 45.7173 63.6334 46.2667 62.7307C46.7867 61.8787 46.9107 60.852 47.0227 59.8614L47.2613 57.7454C47.284 57.6374 47.2733 57.5254 47.2293 57.4254C47.112 57.2227 46.8093 57.2694 46.588 57.344C43.0133 58.5587 39.5773 60.1907 36.2067 63.132Z" fill="white"/>
<path d="M35.0667 58.12C34.6787 58.8293 34.2787 59.5946 34.348 60.4C34.4174 61.2053 35.1787 62 35.9587 61.7893C36.004 62.7453 35.3294 63.5653 34.6947 64.2813L33.044 66.148C32.9827 66.2307 32.9 66.2947 32.804 66.332C32.5747 66.3973 32.3827 66.1547 32.2707 65.9426C31.572 64.624 31.0547 63.2173 30.7334 61.76C30.66 61.5573 30.652 61.3373 30.708 61.1293C30.7654 60.9213 30.884 60.736 31.0507 60.5986C31.8987 59.6333 32.8854 58.7973 33.8987 58.0066C34.1454 57.8133 34.432 57.6066 34.7414 57.6466C35.0507 57.6866 35.3 58.104 35.0667 58.12Z" fill="white"/>
<path d="M52.5173 88.932C50.904 88.932 49.2853 88.8187 47.6653 88.5907C47.2613 88.5333 46.9653 88.1827 46.9773 87.776L47.3413 75C47.3533 74.5587 47.7213 74.2067 48.164 74.2227C48.6053 74.2347 48.9533 74.604 48.9413 75.0453L48.5973 87.0987C52.756 87.5947 56.904 87.3013 60.9493 86.2253C59.7707 83.4533 59.1787 80.4813 58.604 77.5973C58.0933 75.032 57.5653 72.3813 56.628 69.9453C55.6987 67.5293 54.3747 65.3067 52.692 63.34C51.1173 61.5 49.5827 60.3987 48.0027 59.976C47.576 59.8613 47.3227 59.4227 47.4373 58.996C47.552 58.5693 47.9907 58.316 48.4173 58.4307C50.32 58.94 52.1173 60.2067 53.9093 62.3013C55.7107 64.4067 57.128 66.7867 58.1227 69.3733C59.108 71.9373 59.6507 74.6573 60.1747 77.288C60.8187 80.5187 61.4253 83.5707 62.784 86.4013C62.8853 86.6133 62.8893 86.8573 62.7933 87.072C62.6973 87.2867 62.5133 87.448 62.2893 87.5147C59.0827 88.456 55.812 88.932 52.5173 88.932Z" fill="black"/>
<path d="M24.0187 85.4973C23.932 85.4973 23.8453 85.4827 23.7587 85.4533C22.204 84.92 20.6547 84.3187 19.156 83.736L19.1533 83.7347C18.8187 83.6307 18.516 83.4413 18.2773 83.184C18.2613 83.1667 18.2467 83.1493 18.232 83.1307C17.776 82.5427 17.832 81.78 18.3973 80.8613C20.6373 77.2187 22.5707 73.3533 24.1427 69.3747L24.2813 69.0213C25.4867 65.9573 26.8533 62.4853 29.9853 60.9373C30.3813 60.7413 30.8613 60.904 31.0573 61.3C31.2533 61.696 31.0907 62.176 30.6947 62.372C28.1173 63.6453 26.924 66.676 25.7707 69.6067L25.6307 69.9613C24.0253 74.0267 22.0493 77.976 19.76 81.6987C19.608 81.9453 19.556 82.0907 19.5387 82.1653C19.568 82.1827 19.6 82.1973 19.6347 82.2067C19.6587 82.2133 19.6813 82.2213 19.704 82.2293L19.736 82.2413C21.22 82.8173 22.7547 83.4133 24.2787 83.936C24.696 84.08 24.9187 84.5347 24.776 84.952C24.6613 85.2893 24.3507 85.4973 24.0187 85.4973Z" fill="black"/>
<path d="M26.0227 124.565C25.9733 124.565 25.9227 124.56 25.872 124.551L21.2227 123.661C20.6973 123.556 19.832 123.381 19.3307 122.669C18.9387 122.111 18.9307 121.468 18.9547 120.911C19.032 119.148 19.2373 117.384 19.4347 115.679L21.0507 101.744C22.1493 92.34 23.284 82.6147 25.4947 73.232C25.596 72.8027 26.0253 72.5347 26.4573 72.6374C26.8867 72.7387 27.1533 73.1694 27.052 73.6C24.8627 82.8934 23.7333 92.572 22.64 101.932L21.024 115.865C20.8293 117.544 20.628 119.279 20.552 120.983C20.5427 121.195 20.5253 121.592 20.6387 121.752C20.772 121.941 21.2467 122.037 21.5293 122.093L26.1707 122.981C26.604 123.064 26.8893 123.484 26.8053 123.917C26.7347 124.299 26.4 124.565 26.0227 124.565Z" fill="black"/>
<path d="M37.8 68.2507C37.5907 68.2507 37.3613 68.2054 37.14 68.0694C37.12 68.0574 37.1013 68.044 37.0827 68.0307C36.864 67.8694 36.692 67.6534 36.5827 67.4054C35.912 66.0854 35.5173 64.6667 35.4093 63.1893C35.3907 62.9387 35.492 62.6933 35.6813 62.528C38.6973 59.896 41.9827 58.0627 46.332 56.5853C47.1573 56.3067 47.6947 56.6293 47.9227 57.0227C47.9373 57.0493 47.9507 57.076 47.9627 57.1027C48.068 57.344 48.0987 57.6053 48.0533 57.864L47.8187 59.9493C47.7093 60.92 47.572 62.1267 46.9507 63.1453C46.288 64.2347 45.216 64.9027 44.2627 65.444C42.424 66.4894 40.4853 67.384 38.4973 68.1054C38.3653 68.156 38.104 68.2507 37.8 68.2507ZM37.0413 63.4693C37.1667 64.56 37.4773 65.6107 37.9667 66.5987C39.864 65.9093 41.716 65.0533 43.472 64.056C44.2507 63.6133 45.12 63.0787 45.584 62.316C46.0227 61.5987 46.1267 60.6707 46.228 59.7733L46.3987 58.2573C42.6253 59.584 39.7067 61.2093 37.0413 63.4693Z" fill="black"/>
<path d="M32.792 67.1987C32.4707 67.1987 31.9934 67.0613 31.6294 66.3733C30.9 64.9973 30.36 63.528 30.0227 62.0066C29.9454 61.7226 29.9267 61.432 29.9667 61.1413C29.972 61.104 29.98 61.068 29.9894 61.032C30.0894 60.6786 30.28 60.356 30.5387 60.0973C31.432 59.12 32.42 58.2213 33.4774 57.4253C33.752 57.212 34.256 56.8213 34.9134 56.9093C35.4307 56.9786 36.1707 57.4986 36.1494 58.1586C36.1414 58.3986 36.04 58.6106 35.876 58.76C35.8374 58.8266 35.7987 58.8933 35.76 58.9613C35.472 59.46 35.1734 59.976 35.208 60.3933C35.224 60.5866 35.364 60.8053 36.2614 61.0853C36.5827 61.1853 36.8067 61.476 36.8227 61.812C36.884 63.1493 35.9294 64.228 35.3587 64.872L33.7254 66.7173C33.5787 66.904 33.384 67.0493 33.1627 67.136C33.1374 67.1453 33.112 67.1547 33.0867 67.1613C33.0267 67.176 32.9227 67.1987 32.792 67.1987ZM31.548 61.416C31.5454 61.476 31.5534 61.5346 31.5694 61.5933C31.5734 61.6093 31.5774 61.6253 31.5814 61.6413C31.8587 62.9013 32.2894 64.1213 32.864 65.2746L34.1627 63.808C34.5734 63.344 34.976 62.86 35.1454 62.3813C34.4894 62.1 33.7054 61.576 33.6174 60.5253C33.576 60.0306 33.6854 59.5773 33.8587 59.16C33.0934 59.7826 32.3734 60.4626 31.7094 61.1906C31.6987 61.2026 31.688 61.2133 31.676 61.2253C31.62 61.28 31.576 61.3453 31.548 61.416Z" fill="black"/>
<path d="M35 69.6C35.405 69.6 35.7334 69.2717 35.7334 68.8667C35.7334 68.4617 35.405 68.1333 35 68.1333C34.595 68.1333 34.2667 68.4617 34.2667 68.8667C34.2667 69.2717 34.595 69.6 35 69.6Z" fill="black"/>
<path d="M34.4667 74.6667C34.8717 74.6667 35.2 74.3383 35.2 73.9333C35.2 73.5283 34.8717 73.2 34.4667 73.2C34.0617 73.2 33.7333 73.5283 33.7333 73.9333C33.7333 74.3383 34.0617 74.6667 34.4667 74.6667Z" fill="black"/>
<path d="M22.376 44.312C21.1573 43.7627 20.4093 42.5053 19.9827 41.2453C18.804 37.756 19.548 33.7987 21.4333 30.6347C23.3187 27.4707 26.2453 25.0347 29.4333 23.18C31.9013 21.744 34.6333 20.6053 37.4907 20.5627C40.348 20.52 43.3387 21.74 44.852 24.1627L46.744 25.8293C49.144 25.4627 51.4813 26.7973 53.324 28.3787C55.5907 30.32 57.48 32.7467 58.5467 35.5333C59.6133 38.32 59.8147 41.476 58.844 44.2973C57.9613 46.8587 55.6907 49.2653 52.9893 49.0573" fill="black"/>
<path d="M35.8853 58.3654C35.8213 56.976 35.8347 55.9854 35.9227 54.5974C34.2587 55.2774 32.4187 54.9974 30.704 54.6987C29.06 54.4094 27.5227 53.8414 26.2813 52.6867C23.952 50.5174 23.3333 47.1334 23.6667 44.088C23.8 42.8787 24.3147 40.8814 25.1747 38.6694L26.196 37.2187C27.196 35.5734 28.448 34.0534 30.0293 32.952C31.6107 31.8507 33.5453 31.2027 35.4627 31.364C35.996 31.4094 36.5467 31.5227 36.9947 31.8227C37.4427 32.1227 37.776 32.6374 37.7373 33.1747L39.7533 34.3374C40.6107 33.752 41.872 34.204 42.4667 35.0614C43.0613 35.9187 43.1427 37.0174 43.1067 38.056C43.0707 39.0947 42.9373 40.1507 43.18 41.16C43.3893 41.9747 43.828 42.712 44.4453 43.284C45.0627 43.856 45.8307 44.2387 46.6587 44.3854L47.7013 44.3347C49.2307 42.9907 50.1307 42.8107 51.1347 43.3174C52.564 44.0387 52.7787 45.564 52.468 46.8454C52.132 48.2587 51.236 49.4774 50.0867 50.3454C49.5067 50.776 48.8747 51.1347 48.2067 51.412C47.8787 51.5507 47.544 51.6734 47.204 51.78C46.8213 51.9014 46.4347 51.8974 46.2547 52.2707C45.4627 53.9214 45.1253 55.488 45.28 57.312" fill="white"/>
<path d="M46.66 45.192C46.6133 45.192 46.5667 45.188 46.5187 45.18C45.5373 45.0053 44.632 44.5547 43.9013 43.8773C43.1707 43.2 42.6533 42.3307 42.4053 41.3653C42.1827 40.4373 42.2307 39.5347 42.2773 38.66C42.288 38.4507 42.3 38.2427 42.3067 38.0347C42.3347 37.24 42.3027 36.236 41.8093 35.524C41.4653 35.028 40.672 34.6853 40.204 35.0053C39.8387 35.2547 39.3413 35.16 39.092 34.796C38.8427 34.4307 38.9373 33.9333 39.3013 33.684C40.3427 32.9733 42.1267 33.176 43.1227 34.6133C43.8853 35.712 43.9413 37.0493 43.9053 38.092C43.8973 38.3107 43.8867 38.5293 43.8747 38.748C43.832 39.5427 43.792 40.292 43.9573 40.9813C44.1253 41.6373 44.4827 42.2373 44.988 42.7067C45.4933 43.176 46.1187 43.4867 46.7973 43.608C47.232 43.6853 47.5227 44.1013 47.4453 44.536C47.3773 44.92 47.04 45.192 46.66 45.192Z" fill="black"/>
<path d="M26.1907 38.024C26.0493 38.024 25.9067 37.9867 25.7773 37.908C25.4 37.6787 25.2787 37.1867 25.508 36.8093C26.6813 34.8733 28.0467 33.356 29.5693 32.3C31.4173 31.0173 33.5333 30.404 35.5253 30.572C36.324 30.64 36.9307 30.8267 37.4333 31.1627C38.156 31.644 38.5867 32.4587 38.5307 33.2387C38.4987 33.68 38.1173 34.0107 37.6747 33.9787C37.2347 33.9467 36.9027 33.564 36.9347 33.1227C36.9493 32.9187 36.7867 32.6547 36.5467 32.4947C36.2813 32.3173 35.9027 32.2107 35.3907 32.168C33.7667 32.0307 32.0227 32.5453 30.48 33.616C29.144 34.544 27.9307 35.8973 26.8747 37.64C26.7253 37.8867 26.4613 38.024 26.1907 38.024Z" fill="black"/>
<path d="M53.3147 49.8639C53.184 49.8639 53.0547 49.8586 52.924 49.8492C52.484 49.8159 52.1533 49.4306 52.188 48.9906C52.2213 48.5506 52.6067 48.2212 53.0467 48.2546C55.3387 48.4319 57.3147 46.2639 58.084 44.0319C58.956 41.4972 58.8533 38.5786 57.796 35.8146C56.844 33.3292 55.1173 30.9652 52.8 28.9812C50.6507 27.1372 48.6533 26.3412 46.8613 26.6146C46.424 26.6812 46.016 26.3812 45.9493 25.9452C45.8827 25.5092 46.1827 25.0999 46.6187 25.0332C48.8933 24.6852 51.3227 25.6052 53.84 27.7666C56.3573 29.9226 58.2427 32.5079 59.2893 35.2426C60.4813 38.3572 60.5907 41.6626 59.596 44.5532C59.092 46.0146 58.2147 47.3492 57.124 48.3119C55.9653 49.3306 54.656 49.8626 53.3147 49.8639Z" fill="black"/>
<path d="M22.376 45.1054C22.2667 45.1054 22.1573 45.0828 22.0507 45.0361C20.7933 44.4761 19.8173 43.2521 19.2253 41.4934C18.0427 38.0054 18.6107 33.7894 20.7427 30.2174C22.512 27.2534 25.3 24.6508 29.0267 22.4814C32.1107 20.6868 34.8733 19.7961 37.4747 19.7561C40.8707 19.7041 43.9627 21.2268 45.5267 23.7321C45.7613 24.1068 45.6467 24.6001 45.272 24.8348C44.8973 25.0694 44.404 24.9548 44.1693 24.5801C42.9187 22.5788 40.3027 21.3148 37.4987 21.3561C35.18 21.3921 32.672 22.2121 29.832 23.8654C26.3413 25.8974 23.7453 28.3108 22.116 31.0388C20.22 34.2134 19.7053 37.9308 20.74 40.9828C21.0507 41.9068 21.6427 43.1041 22.7013 43.5761C23.1053 43.7561 23.2867 44.2281 23.1067 44.6321C22.9747 44.9281 22.6813 45.1054 22.376 45.1054Z" fill="black"/>
<path d="M45.2787 57.3187C44.868 57.3187 44.5173 57.004 44.4827 56.5853C44.3133 54.5773 44.704 53.6587 45.5333 51.9307C45.8373 51.3 46.412 51.1613 46.756 51.0787C46.8307 51.06 46.9013 51.044 46.9627 51.024C47.28 50.924 47.5933 50.8093 47.896 50.6813C48.508 50.428 49.0827 50.1013 49.6107 49.7093C50.6747 48.9053 51.416 47.824 51.6907 46.6667C51.832 46.084 52.024 44.668 50.7747 44.0373C50.2293 43.7613 49.6947 43.6533 48.2293 44.9413C47.8973 45.2333 47.392 45.2 47.1 44.868C46.808 44.536 46.8413 44.0307 47.1733 43.7387C49.2773 41.8893 50.4933 42.1027 51.4947 42.608C53.0467 43.392 53.7173 45.0893 53.2453 47.0387C52.8853 48.5533 51.9347 49.9573 50.5693 50.988C49.932 51.4613 49.2413 51.8533 48.5133 52.1547C48.168 52.3 47.8067 52.4333 47.4427 52.5467C47.332 52.5813 47.2253 52.608 47.132 52.6307C47.0733 52.6453 46.9973 52.6627 46.948 52.6787C46.1813 54.2787 45.944 54.88 46.0773 56.448C46.1147 56.888 45.788 57.2747 45.348 57.312C45.324 57.3173 45.3013 57.3187 45.2787 57.3187Z" fill="black"/>
<path d="M35.8853 58.4988C35.46 58.4988 35.1067 58.1641 35.0867 57.7348C35.044 56.7961 35.0347 56.3241 35.0613 55.6801C33.4587 55.9894 31.8267 55.7054 30.568 55.4854C28.5347 55.1268 26.9547 54.4028 25.7373 53.2708C23.5 51.1868 22.456 47.8081 22.872 43.9988C23.028 42.5868 23.6093 40.4854 24.4293 38.3774C24.5893 37.9654 25.0533 37.7614 25.4653 37.9214C25.8773 38.0814 26.0813 38.5454 25.9213 38.9574C25.012 41.2961 24.572 43.1854 24.4627 44.1734C24.1013 47.4734 24.9627 50.3628 26.828 52.0988C27.8253 53.0268 29.1013 53.6014 30.844 53.9081C32.6253 54.2188 34.216 54.4281 35.6213 53.8534C35.876 53.7494 36.1667 53.7841 36.3907 53.9441C36.6147 54.1054 36.74 54.3694 36.7227 54.6441C36.6373 55.9854 36.6227 56.2814 36.6867 57.6574C36.7067 58.0988 36.3653 58.4734 35.924 58.4934C35.9093 58.4988 35.8973 58.4988 35.8853 58.4988Z" fill="black"/>
<path d="M29.124 42.3467C29.6395 42.3467 30.0573 41.8393 30.0573 41.2134C30.0573 40.5874 29.6395 40.08 29.124 40.08C28.6085 40.08 28.1907 40.5874 28.1907 41.2134C28.1907 41.8393 28.6085 42.3467 29.124 42.3467Z" fill="black"/>
<path d="M33.6573 42.66C34.1728 42.66 34.5907 42.1526 34.5907 41.5266C34.5907 40.9007 34.1728 40.3933 33.6573 40.3933C33.1419 40.3933 32.724 40.9007 32.724 41.5266C32.724 42.1526 33.1419 42.66 33.6573 42.66Z" fill="black"/>
<path d="M40.1016 18.3003C41.9016 15.6003 44.6016 13.6003 47.3016 11.7003C49.7016 10.0003 52.1016 8.20025 55.0016 7.60025C58.6016 6.90025 62.3016 8.30025 65.7016 9.70025C66.9016 10.2003 68.2016 10.8003 68.8016 11.9003C69.6016 13.3003 69.1016 15.2003 68.6016 16.7003C67.8016 19.3003 66.9016 21.9003 66.1016 24.4003L59.4016 27.5003C59.4016 27.5003 53.4016 23.6003 51.3016 22.6003C48.6016 21.3003 40.1016 18.3003 40.1016 18.3003Z" fill="#CF2323"/>
<path d="M59.4008 28.4008C59.2008 28.4008 59.1008 28.4008 59.0008 28.3008C58.9008 28.3008 53.0008 24.4008 51.0008 23.4008C48.4008 22.1008 40.0008 19.1008 39.9008 19.1008C39.7008 19.0008 39.5008 18.8008 39.4008 18.6008C39.3008 18.4008 39.4008 18.1008 39.5008 17.9008C41.4008 15.0008 44.3008 12.9008 46.8008 11.1008C49.1008 9.40078 51.7008 7.50078 54.8008 6.90078C58.6008 6.10078 62.4008 7.50078 66.0008 9.00078C67.4008 9.60078 68.7008 10.2008 69.5008 11.6008C70.5008 13.3008 69.9008 15.3008 69.4008 17.1008L66.9008 24.8008C66.8008 25.0008 66.7008 25.2008 66.5008 25.3008L59.8008 28.4008C59.6008 28.3008 59.5008 28.4008 59.4008 28.4008ZM41.3008 17.9008C43.6008 18.7008 49.4008 20.8008 51.6008 21.9008C53.5008 22.8008 58.1008 25.8008 59.4008 26.7008L65.3008 24.0008L67.7008 16.6008C68.2008 15.1008 68.6008 13.6008 68.0008 12.4008C67.5008 11.5008 66.4008 11.0008 65.3008 10.5008C62.0008 9.00078 58.5008 7.70078 55.1008 8.40078C52.4008 8.90078 49.9008 10.7008 47.7008 12.3008C45.4008 14.0008 43.1008 15.7008 41.3008 17.9008Z" fill="black"/>
<path d="M34.2995 24.4008C34.1995 22.2008 35.1995 20.0008 38.1995 18.8008C44.0995 19.0008 49.4995 21.7008 54.7995 24.3008C56.2995 25.0008 57.7995 25.9008 58.4995 27.4008C59.4995 29.7008 57.8995 32.2008 56.3995 34.1008C49.6995 32.6008 43.0995 30.7008 36.6995 28.4008C35.8995 28.1008 35.0995 27.8008 34.4995 27.3008C33.8995 26.8008 33.5995 25.9008 34.2995 24.4008Z" fill="white"/>
<path d="M56.3988 35C56.2988 35 56.2988 35 56.1988 35C49.4988 33.5 42.8988 31.6 36.3988 29.3C35.5988 29 34.6988 28.7 33.9988 28C33.2988 27.3 32.6988 26.2 33.4988 24.3C33.4988 21.5 34.9988 19.3 37.8988 18.1C37.9988 18.1 38.0988 18 38.1988 18C44.3988 18.2 50.0988 21.1 55.0988 23.6C56.3988 24.3 58.3988 25.3 59.1988 27.1C60.2988 29.7 58.5988 32.5 56.9988 34.6C56.8988 34.9 56.5988 35 56.3988 35ZM38.2988 19.6C35.4988 20.8 34.9988 22.8 35.0988 24.3C35.0988 24.4 35.0988 24.6 34.9988 24.7C34.2988 26.1 34.8988 26.6 34.9988 26.8C35.4988 27.3 36.1988 27.5 36.8988 27.8C43.0988 30 49.5988 31.9 55.9988 33.3C57.2988 31.5 58.3988 29.5 57.6988 27.8C57.1988 26.6 55.7988 25.8 54.3988 25.1C49.5988 22.6 44.0988 19.8 38.2988 19.6Z" fill="black"/>
<path d="M59.899 27.9986C59.599 26.9986 60.099 25.4986 61.099 24.9986C61.499 24.7986 62.099 24.7986 62.499 24.7986C64.099 24.7986 65.899 24.2986 66.999 25.4986C67.899 26.4986 67.499 28.2986 66.499 29.1986C65.399 30.0986 63.899 30.1986 62.599 30.0986C61.999 29.9986 61.299 29.8986 60.799 29.3986C60.299 28.8986 59.999 28.3986 59.899 27.9986Z" fill="white"/>
<path d="M63.5006 30.9016C63.1006 30.9016 62.7006 30.9016 62.4006 30.8016C61.8006 30.7016 60.9006 30.5016 60.2006 29.9016C59.5006 29.3016 59.2006 28.6016 59.1006 28.2016C59.1006 28.2016 59.1006 28.2016 59.1006 28.1016C58.7006 26.6016 59.4006 24.8016 60.7006 24.1016C61.2006 23.8016 61.8006 23.8016 62.3006 23.8016H62.5006C62.8006 23.8016 63.1006 23.8016 63.3006 23.8016C64.8006 23.7016 66.4006 23.6016 67.6006 24.8016C68.1006 25.4016 68.4006 26.2016 68.3006 27.0016C68.2006 28.0016 67.7006 29.0016 67.0006 29.6016C66.0006 30.7016 64.7006 30.9016 63.5006 30.9016ZM60.6006 27.8016C60.7006 28.0016 60.8006 28.4016 61.3006 28.8016C61.6006 29.0016 62.0006 29.2016 62.7006 29.3016C63.5006 29.4016 65.0006 29.5016 66.0006 28.6016C66.4006 28.2016 66.7006 27.7016 66.8006 27.1016C66.8006 26.8016 66.8006 26.4016 66.5006 26.1016C65.9006 25.4016 64.7006 25.5016 63.5006 25.6016C63.2006 25.6016 62.9006 25.6016 62.6006 25.7016H62.4006C62.0006 25.7016 61.7006 25.7016 61.5006 25.8016C60.7006 26.1016 60.4006 27.1016 60.6006 27.8016Z" fill="black"/>
<path d="M61.1981 25.5004C60.7981 25.5004 60.3981 25.2004 60.3981 24.7004C60.2981 21.2004 59.8981 17.7004 59.3981 14.2004C59.2981 13.8004 59.5981 13.4004 60.0981 13.3004C60.4981 13.2004 60.8981 13.5004 60.9981 14.0004C61.5981 17.5004 61.8981 21.1004 62.0981 24.7004C61.9981 25.1004 61.6981 25.5004 61.1981 25.5004Z" fill="black"/>
</g>
</g>
<circle cx="40" cy="40" r="38.5" stroke="black" stroke-width="3"/>
<defs>
<clipPath id="clip0_846_13258">
<rect width="80" height="192" fill="white" transform="translate(0 5)"/>
</clipPath>
</defs>
</svg>
