<svg width="70" height="52" viewBox="0 0 70 52" fill="none" xmlns="http://www.w3.org/2000/svg">
<path fill-rule="evenodd" clip-rule="evenodd" d="M2.59417e-05 11.4147C0.00358924 10.9644 0.37152 10.6022 0.821823 10.6058L69.1911 11.1468C69.6414 11.1504 70.0035 11.5183 70 11.9686C69.9964 12.4189 69.6285 12.7811 69.1782 12.7775L0.808919 12.2365C0.358617 12.2329 -0.00353736 11.865 2.59417e-05 11.4147Z" fill="white"/>
<ellipse cx="50.1271" cy="11.7405" rx="11.3107" ry="11.3107" transform="rotate(-90 50.1271 11.7405)" fill="#4CAF50"/>
<ellipse cx="32.1232" cy="11.7405" rx="11.3107" ry="11.3107" transform="rotate(-90 32.1232 11.7405)" fill="#FFC0CB"/>
<path d="M14.1173 0.429853C20.364 0.429853 25.428 5.49382 25.428 11.7405C25.428 17.9872 20.364 23.0512 14.1173 23.0512C7.8706 23.0512 2.80664 17.9872 2.80664 11.7405C2.80664 5.49382 7.8706 0.429853 14.1173 0.429853Z" fill="#FFFFF0"/>
<path d="M68.6929 39.8809C68.6929 40.9158 68.5635 41.829 68.3048 42.6205C68.046 43.412 67.6655 44.0893 67.1632 44.6524C66.6762 45.2003 66.0826 45.6189 65.3825 45.9081C64.6823 46.182 63.8985 46.319 63.0309 46.319C62.2243 46.319 61.4709 46.182 60.7707 45.9081C60.0858 45.6189 59.4922 45.2003 58.99 44.6524C58.5029 44.0893 58.1224 43.412 57.8485 42.6205C57.5745 41.829 57.4375 40.9158 57.4375 39.8809C57.4375 38.511 57.6582 37.3543 58.0996 36.4106C58.5562 35.4518 59.2107 34.7288 60.063 34.2417C60.9153 33.7395 61.9275 33.4883 63.0994 33.4883C64.1953 33.4883 65.1618 33.7395 65.9989 34.2417C66.836 34.7288 67.4905 35.4518 67.9623 36.4106C68.4494 37.3543 68.6929 38.511 68.6929 39.8809ZM60.5196 39.8809C60.5196 40.7484 60.6109 41.4942 60.7936 42.1182C60.9762 42.727 61.2502 43.1913 61.6155 43.5109C61.996 43.8305 62.483 43.9903 63.0766 43.9903C63.6702 43.9903 64.1496 43.8305 64.5149 43.5109C64.8954 43.1913 65.1694 42.727 65.3368 42.1182C65.5195 41.4942 65.6108 40.7484 65.6108 39.8809C65.6108 38.9981 65.5195 38.2599 65.3368 37.6663C65.1542 37.0575 64.8726 36.6009 64.4921 36.2965C64.1268 35.9769 63.6474 35.817 63.0538 35.817C62.1558 35.817 61.5089 36.1671 61.1132 36.8672C60.7175 37.5674 60.5196 38.5719 60.5196 39.8809Z" fill="white"/>
<path d="M48.4462 33.4884C49.2072 33.4884 49.8693 33.6406 50.4324 33.945C50.9956 34.2494 51.4674 34.706 51.8479 35.3148H51.9392L52.2132 33.7167H54.7702V46.1821C54.7702 47.3541 54.5571 48.3358 54.131 49.1272C53.7048 49.9339 53.0655 50.5427 52.2132 50.9536C51.3761 51.3646 50.3107 51.5701 49.017 51.5701C48.1494 51.5701 47.3579 51.5092 46.6426 51.3874C45.9425 51.2809 45.2728 51.0906 44.6335 50.8167V48.4423C45.0749 48.6402 45.5239 48.8076 45.9805 48.9446C46.4523 49.0968 46.9394 49.2109 47.4417 49.287C47.9439 49.3631 48.4766 49.4012 49.0398 49.4012C49.9226 49.4012 50.5923 49.1348 51.0489 48.6021C51.5207 48.0694 51.7566 47.3084 51.7566 46.3191V45.9995C51.7566 45.7712 51.7642 45.5048 51.7794 45.2004C51.8099 44.896 51.8327 44.6525 51.8479 44.4698H51.7566C51.3913 45.1091 50.9347 45.5809 50.3868 45.8853C49.8389 46.1745 49.1768 46.3191 48.4005 46.3191C47.0155 46.3191 45.9196 45.7559 45.113 44.6296C44.3215 43.5033 43.9258 41.9356 43.9258 39.9266C43.9258 38.572 44.1084 37.4152 44.4737 36.4564C44.839 35.4975 45.3565 34.7669 46.0262 34.2646C46.7111 33.7471 47.5178 33.4884 48.4462 33.4884ZM49.3594 35.8399C48.8419 35.8399 48.4082 35.9997 48.0581 36.3194C47.7232 36.6238 47.4645 37.0804 47.2819 37.6892C47.0992 38.298 47.0079 39.059 47.0079 39.9722C47.0079 41.3116 47.2057 42.3238 47.6015 43.0087C47.9972 43.6936 48.5908 44.036 49.3822 44.036C49.8389 44.036 50.227 43.9752 50.5466 43.8534C50.8662 43.7164 51.125 43.5033 51.3228 43.2141C51.5207 42.9097 51.6729 42.5292 51.7794 42.0726C51.886 41.6008 51.9392 41.0377 51.9392 40.3832V39.9494C51.9392 38.9601 51.8479 38.1686 51.6653 37.575C51.4979 36.9662 51.2239 36.5248 50.8434 36.2509C50.4629 35.9769 49.9682 35.8399 49.3594 35.8399Z" fill="white"/>
<path d="M37.1375 33.4883C38.4312 33.4883 39.451 33.846 40.1968 34.5614C40.9426 35.2767 41.3155 36.4335 41.3155 38.0316V46.0907H38.279V38.6023C38.279 37.6739 38.1192 36.9814 37.7996 36.5248C37.48 36.053 36.9777 35.817 36.2928 35.817C35.273 35.817 34.5805 36.1823 34.2152 36.9129C33.8499 37.6283 33.6673 38.6708 33.6673 40.0407V46.0907H30.6309V33.7166H32.9596L33.3933 35.3376H33.5075C33.7815 34.9114 34.1011 34.5614 34.4664 34.2874C34.8317 34.0134 35.2426 33.8156 35.6992 33.6938C36.1558 33.5568 36.6352 33.4883 37.1375 33.4883Z" fill="white"/>
<path d="M22.8092 33.4883C24.3007 33.4883 25.4423 33.8384 26.2337 34.5385C27.0252 35.2235 27.4209 36.3041 27.4209 37.7805V46.0907H25.2977L24.7041 44.3784H24.6128C24.2779 44.8198 23.9355 45.1927 23.5854 45.4971C23.2353 45.7863 22.832 45.9918 22.3754 46.1135C21.9188 46.2505 21.3708 46.319 20.7316 46.319C20.0467 46.319 19.4303 46.182 18.8823 45.9081C18.3344 45.6341 17.9006 45.2156 17.581 44.6524C17.2614 44.074 17.1016 43.3511 17.1016 42.4835C17.1016 41.205 17.543 40.2461 18.4257 39.6069C19.3085 38.9524 20.6327 38.5947 22.3982 38.5339L24.3845 38.4654V37.8489C24.3845 37.0575 24.217 36.4943 23.8822 36.1595C23.5473 35.8247 23.0907 35.6572 22.5124 35.6572C21.9644 35.6572 21.4089 35.7486 20.8457 35.9312C20.2978 36.1138 19.7575 36.3269 19.2248 36.5704L18.2887 34.5614C18.9128 34.2417 19.6053 33.983 20.3663 33.7851C21.1273 33.5873 21.9416 33.4883 22.8092 33.4883ZM23.106 40.2918C22.0253 40.3375 21.2719 40.5582 20.8457 40.9539C20.4196 41.3344 20.2065 41.8519 20.2065 42.5063C20.2065 43.0847 20.3511 43.5033 20.6403 43.762C20.9447 44.0208 21.3404 44.1501 21.8275 44.1501C22.5428 44.1501 23.1516 43.9142 23.6539 43.4424C24.1562 42.9553 24.4073 42.24 24.4073 41.2963V40.2461L23.106 40.2918Z" fill="white"/>
<path d="M14.969 37.7805C14.969 39.6069 14.6417 41.1366 13.9872 42.3694C13.348 43.6022 12.4196 44.5307 11.2019 45.1547C9.98432 45.7787 8.52317 46.0907 6.8185 46.0907H2.34375V29.7899H7.27511C8.85802 29.7899 10.2278 30.0943 11.3846 30.7031C12.5413 31.3119 13.4241 32.2099 14.0329 33.3971C14.6569 34.569 14.969 36.0302 14.969 37.7805ZM11.7727 37.8718C11.7727 36.5781 11.5977 35.5127 11.2476 34.6756C10.9128 33.8384 10.4029 33.222 9.71796 32.8263C9.04827 32.4153 8.21877 32.2099 7.22945 32.2099H5.40302V43.6479H6.887C8.53078 43.6479 9.75601 43.1685 10.5627 42.2096C11.3694 41.2355 11.7727 39.7896 11.7727 37.8718Z" fill="white"/>
</svg>
