<svg width="51" height="45" viewBox="0 0 51 45" fill="none" xmlns="http://www.w3.org/2000/svg">
<path d="M16.7998 38.4V25.8H19.7998L28.7998 23.7L34.7998 19.5H37.4998L44.9998 21.3L49.1998 25.8V38.1L44.0998 42.3L35.0998 43.2L23.0998 42.6L16.7998 38.4Z" fill="#F9D67B"/>
<path fill-rule="evenodd" clip-rule="evenodd" d="M33.7326 11.685C34.0385 11.017 34.2008 10.3187 34.2008 9.59996C34.2008 4.79509 26.9478 0.899963 18.0008 0.899963C9.05377 0.899963 1.80078 4.79509 1.80078 9.59996C1.80078 9.852 1.82074 10.1015 1.85985 10.3481L1.5 10.2V20.7C4.6 23.1 15.9 25.5 15.9 25.5L28.2 24.3L33.9 20.7L34.8 12.6L33.7326 11.685Z" fill="#F9D67B"/>
<path fill-rule="evenodd" clip-rule="evenodd" d="M43.8238 22.5064C41.0578 21.3874 37.1278 20.6614 32.7178 20.6614V17.6614C37.4188 17.6614 41.7418 18.4294 44.9458 19.7224C46.5448 20.3704 47.9398 21.1744 48.9568 22.1494C49.9768 23.1244 50.7178 24.3694 50.7178 25.8274C50.7178 27.2884 49.9798 28.5304 48.9568 29.5084C47.9368 30.4804 46.5448 31.2874 44.9458 31.9324C41.7418 33.2284 37.4158 33.9934 32.7178 33.9934C28.0168 33.9934 23.6938 33.2284 20.4898 31.9324C18.8908 31.2874 17.4958 30.4804 16.4788 29.5084C15.4588 28.5304 14.7178 27.2884 14.7178 25.8274H17.7178C17.7178 26.2084 17.9038 26.7184 18.5518 27.3394C19.1998 27.9604 20.2258 28.5904 21.6118 29.1514C24.3808 30.2704 28.3048 30.9934 32.7178 30.9934C37.1278 30.9934 41.0578 30.2704 43.8238 29.1514C45.2098 28.5904 46.2328 27.9604 46.8838 27.3394C47.5348 26.7184 47.7178 26.2084 47.7178 25.8274C47.7178 25.4464 47.5318 24.9364 46.8838 24.3184C46.2328 23.6944 45.2098 23.0644 43.8238 22.5064Z" fill="black"/>
<path fill-rule="evenodd" clip-rule="evenodd" d="M16.5 26.001C16.8978 26.001 17.2794 26.159 17.5607 26.4403C17.842 26.7216 18 27.1032 18 27.501V36.831C18 37.215 18.186 37.725 18.834 38.343C19.485 38.967 20.508 39.597 21.894 40.158C24.663 41.274 28.587 42 33 42C37.41 42 41.34 41.274 44.106 40.158C45.492 39.597 46.515 38.967 47.166 38.343C47.814 37.725 48 37.215 48 36.834V27.501C48 27.1032 48.158 26.7216 48.4393 26.4403C48.7206 26.159 49.1022 26.001 49.5 26.001C49.8978 26.001 50.2794 26.159 50.5607 26.4403C50.842 26.7216 51 27.1032 51 27.501V36.831C51 38.295 50.262 39.537 49.239 40.512C48.216 41.487 46.827 42.291 45.228 42.939C42.024 44.232 37.698 45 33 45C28.299 45 23.976 44.232 20.772 42.939C19.173 42.294 17.778 41.487 16.761 40.512C15.741 39.537 15 38.292 15 36.834V27.501C15 27.1032 15.158 26.7216 15.4393 26.4403C15.7206 26.159 16.1022 26.001 16.5 26.001Z" fill="black"/>
<path fill-rule="evenodd" clip-rule="evenodd" d="M23.1 42.678V31.5H26.1V42.678H23.1ZM36.3 42V33H39.3V42H36.3ZM3.834 6.657C3.186 7.275 3 7.785 3 8.166C3 8.547 3.186 9.057 3.834 9.678C4.482 10.299 5.508 10.929 6.894 11.49C9.663 12.609 13.587 13.332 18 13.332C22.41 13.332 26.34 12.609 29.106 11.49C30.492 10.929 31.515 10.299 32.166 9.678C32.817 9.057 33 8.547 33 8.166C33 7.785 32.814 7.275 32.166 6.657C31.515 6.033 30.492 5.403 29.106 4.842C26.337 3.726 22.41 3 18 3C13.59 3 9.66 3.726 6.894 4.842C5.508 5.403 4.485 6.033 3.834 6.657ZM5.772 2.061C8.976 0.768 13.302 0 18 0C22.701 0 27.024 0.768 30.228 2.061C31.827 2.709 33.222 3.513 34.239 4.488C35.259 5.463 36 6.708 36 8.166C36 9.627 35.262 10.869 34.239 11.847C33.219 12.819 31.827 13.626 30.228 14.271C27.024 15.567 22.698 16.332 18 16.332C13.299 16.332 8.976 15.567 5.772 14.271C4.173 13.626 2.778 12.819 1.761 11.847C0.741 10.869 0 9.627 0 8.166C0 6.708 0.738 5.466 1.761 4.488C2.784 3.51 4.173 2.709 5.772 2.061Z" fill="black"/>
<path fill-rule="evenodd" clip-rule="evenodd" d="M1.5 8.00098C1.89782 8.00098 2.27936 8.15901 2.56066 8.44032C2.84196 8.72162 3 9.10315 3 9.50098V18.831C3 19.215 3.186 19.725 3.834 20.343C4.485 20.967 5.508 21.597 6.894 22.158C9.663 23.274 13.587 24 18 24C22.41 24 26.34 23.274 29.106 22.158C30.492 21.597 31.515 20.967 32.166 20.343C32.814 19.725 33 19.215 33 18.834V9.50098C33 9.10315 33.158 8.72162 33.4393 8.44032C33.7206 8.15901 34.1022 8.00098 34.5 8.00098C34.8978 8.00098 35.2794 8.15901 35.5607 8.44032C35.842 8.72162 36 9.10315 36 9.50098V18.831C36 20.295 35.262 21.537 34.239 22.512C33.216 23.487 31.827 24.294 30.228 24.939C27.024 26.232 22.698 27 18 27C13.299 27 8.976 26.232 5.772 24.939C4.173 24.291 2.778 23.487 1.761 22.512C0.741 21.54 0 20.292 0 18.834V9.50098C0 9.10315 0.158035 8.72162 0.43934 8.44032C0.720644 8.15901 1.10218 8.00098 1.5 8.00098Z" fill="black"/>
<path fill-rule="evenodd" clip-rule="evenodd" d="M8.10059 24.0001V13.8391H11.1006V24.0001H8.10059ZM21.3006 24.0001V15.0001H24.3006V24.0001H21.3006Z" fill="black"/>
</svg>
