<svg width="30" height="30" viewBox="0 0 30 30" fill="none" xmlns="http://www.w3.org/2000/svg">
<path d="M16.2568 15.3034L4.67032 17.2337C4.53711 17.2559 4.4121 17.3128 4.30787 17.3987C4.20363 17.4845 4.12384 17.5963 4.07653 17.7228L0.081545 28.4246C-0.299955 29.4089 0.729172 30.3471 1.67369 29.8734L29.3632 16.0309C29.5546 15.935 29.7155 15.7878 29.828 15.6056C29.9404 15.4235 30 15.2137 30 14.9997C30 14.7856 29.9404 14.5758 29.828 14.3937C29.7155 14.2115 29.5546 14.0643 29.3632 13.9684L1.67369 0.125902C0.729172 -0.34628 -0.299955 0.591933 0.081545 1.57475L4.07807 12.2765C4.12538 12.403 4.20517 12.5148 4.3094 12.6006C4.41364 12.6865 4.53864 12.7434 4.67185 12.7656L16.2584 14.6959C16.3307 14.7074 16.3965 14.7443 16.444 14.8C16.4915 14.8557 16.5176 14.9265 16.5176 14.9997C16.5176 15.0728 16.4915 15.1436 16.444 15.1993C16.3965 15.255 16.3307 15.2919 16.2584 15.3034" fill="white"/>
</svg>
