<svg width="66" height="72" viewBox="0 0 66 72" fill="none" xmlns="http://www.w3.org/2000/svg">
<g clip-path="url(#clip0_1000_1937)">
<path d="M20.2192 21.6577V12.0321H16.6096C15.6523 12.0321 14.7342 12.4124 14.0572 13.0893C13.3803 13.7663 13 14.6844 13 15.6417V37.2994C13.0018 37.5228 13.0658 37.7414 13.1848 37.9305C13.3038 38.1196 13.4731 38.2719 13.6738 38.3702C13.8671 38.4581 14.0803 38.4933 14.2916 38.4722C14.5029 38.451 14.7049 38.3744 14.877 38.2499L21.0735 33.6898H37.2445C37.7006 33.7032 38.1545 33.6229 38.5782 33.4539C39.002 33.2848 39.3865 33.0305 39.7079 32.7068C40.0294 32.3831 40.281 31.9968 40.4471 31.5719C40.6132 31.147 40.6903 30.6925 40.6737 30.2366V28.8769H27.4384C25.5238 28.8769 23.6875 28.1163 22.3337 26.7625C20.9798 25.4086 20.2192 23.5724 20.2192 21.6577Z" fill="white"/>
<path d="M46.689 15.04C45.2978 15.0434 43.9248 14.7242 42.6778 14.1075C41.4308 13.4908 40.3438 12.5934 39.502 11.4858C38.6602 10.3783 38.0867 9.0906 37.8264 7.72401C37.5661 6.35742 37.6262 4.94909 38.0019 3.60962H27.4377C26.4804 3.60962 25.5623 3.98992 24.8854 4.66685C24.2084 5.34378 23.8281 6.2619 23.8281 7.21923V21.6577C23.8281 22.615 24.2084 23.5331 24.8854 24.21C25.5623 24.887 26.4804 25.2673 27.4377 25.2673H43.7411L49.4924 29.7312C49.6634 29.8576 49.8648 29.9364 50.0762 29.9597C50.2875 29.9829 50.5013 29.9497 50.6956 29.8635C50.9004 29.766 51.0734 29.6126 51.1948 29.421C51.3161 29.2294 51.3808 29.0074 51.3815 28.7806V13.6804C49.9734 14.5594 48.3489 15.0301 46.689 15.04Z" fill="white"/>
<path d="M46.6898 12.032C50.0124 12.032 52.7059 9.33857 52.7059 6.01601C52.7059 2.69346 50.0124 0 46.6898 0C43.3673 0 40.6738 2.69346 40.6738 6.01601C40.6738 9.33857 43.3673 12.032 46.6898 12.032Z" fill="white"/>
</g>
<path d="M13.0118 55.2294H15.2353V71.5706H13.0118V55.2294ZM10.8235 61.5118H13.5412V63.4H10.8235V61.5118ZM9.35882 55.5118H11.5294V70.7941H9.35882V55.5118ZM1.66471 65.9588H2.81176C4.82353 65.9588 6.5 65.8882 8.44118 65.5353L8.61765 67.4412C6.64118 67.8294 4.91176 67.8824 2.81176 67.8824H1.66471V65.9588ZM1.66471 57.1176H7.7V59.0059H3.99412V66.8765H1.66471V57.1176ZM21.2163 64.9H23.5633V67.5471H21.2163V64.9ZM28.081 55.2294H30.4457V71.5706H28.081V55.2294ZM29.6163 61.8647H32.4927V63.8059H29.6163V61.8647ZM17.5457 68.8529L17.2633 66.9647C20.0869 66.9647 23.9692 66.9471 27.2692 66.4882L27.4457 68.1824C24.0045 68.8529 20.2986 68.8529 17.5457 68.8529ZM17.5633 57.0294H27.181V58.8647H17.5633V57.0294ZM22.3986 59.5176C24.728 59.5176 26.3869 60.7529 26.3869 62.5706C26.3869 64.4059 24.728 65.6412 22.3986 65.6412C20.0516 65.6412 18.4104 64.4059 18.4104 62.5706C18.4104 60.7529 20.0516 59.5176 22.3986 59.5176ZM22.3986 61.2824C21.3222 61.2824 20.6339 61.7412 20.6339 62.5706C20.6339 63.4176 21.3222 63.8765 22.3986 63.8765C23.4574 63.8765 24.1633 63.4176 24.1633 62.5706C24.1633 61.7412 23.4574 61.2824 22.3986 61.2824ZM21.2163 55.3176H23.5633V58.4059H21.2163V55.3176ZM44.1561 55.2294H46.4855V71.5706H44.1561V55.2294ZM45.9561 61.6H48.8502V63.5588H45.9561V61.6ZM33.6031 57.6471H43.1149V59.5176H33.6031V57.6471ZM38.3855 60.4353C40.7678 60.4353 42.5325 62.0588 42.5325 64.3353C42.5325 66.6118 40.7678 68.2353 38.3855 68.2353C36.0031 68.2353 34.2384 66.6118 34.2384 64.3353C34.2384 62.0588 36.0031 60.4353 38.3855 60.4353ZM38.3855 62.3412C37.2737 62.3412 36.4796 63.0824 36.4796 64.3353C36.4796 65.5882 37.2737 66.3294 38.3855 66.3294C39.4972 66.3294 40.2914 65.5882 40.2914 64.3353C40.2914 63.0824 39.4972 62.3412 38.3855 62.3412ZM37.2031 55.4941H39.5502V58.3529H37.2031V55.4941ZM61.1665 55.2294H63.5312V71.5706H61.1665V55.2294ZM56.3488 56.9235H58.6782C58.6782 61.9176 56.9841 66.0118 51.1782 68.8176L49.9606 66.9471C54.6547 64.6882 56.3488 61.7235 56.3488 57.3471V56.9235ZM50.8253 56.9235H57.4606V58.7765H50.8253V56.9235Z" fill="white"/>
<defs>
<clipPath id="clip0_1000_1937">
<rect width="40" height="39" fill="white" transform="translate(13)"/>
</clipPath>
</defs>
</svg>
