<svg width="74" height="71" viewBox="0 0 74 71" fill="none" xmlns="http://www.w3.org/2000/svg">
<g clip-path="url(#clip0_1000_1929)">
<path d="M21 36.5957C19.9 36.5957 18.9587 36.1979 18.176 35.4023C17.3933 34.6067 17.0013 33.6491 17 32.5295V4.06619C17 2.94799 17.392 1.99108 18.176 1.19546C18.96 0.399842 19.9013 0.0013554 21 0H53C54.1 0 55.042 0.398487 55.826 1.19546C56.61 1.99243 57.0013 2.94935 57 4.06619V32.5295C57 33.6478 56.6087 34.6053 55.826 35.4023C55.0433 36.1993 54.1013 36.5971 53 36.5957H21ZM23 28.4634H33V24.3972H23V28.4634ZM42.1 24.3972L52 14.3333L49.15 11.4362L42.1 18.6537L39.25 15.7565L36.45 18.6537L42.1 24.3972ZM23 20.331H33V16.2648H23V20.331ZM23 12.1986H33V8.13239H23V12.1986Z" fill="white"/>
</g>
<path d="M1.28431 61.549H17.6961V63.6471H1.28431V61.549ZM8.16667 59.2353H10.7745V62H8.16667V59.2353ZM3.10784 64.8824H15.7157V70.7451H13.1078V66.9412H3.10784V64.8824ZM3.38235 53.0392H5.95098V54.6471H13.0294V53.0392H15.6176V60.0588H3.38235V53.0392ZM5.95098 56.5882V58.0196H13.0294V56.5882H5.95098ZM21.2436 63.4706H23.8122V65H31.0867V63.4706H33.6749V70.549H21.2436V63.4706ZM23.8122 66.9412V68.5098H31.0867V66.9412H23.8122ZM19.322 60.5098H35.7338V62.5686H19.322V60.5098ZM26.2044 52.7843H28.4396V53.3333C28.4396 56.4902 25.7338 59.098 21.0475 59.7059L20.1259 57.6863C24.224 57.1961 26.2044 55.1765 26.2044 53.3333V52.7843ZM26.6357 52.7843H28.871V53.3333C28.871 55.1569 30.8514 57.1961 34.9298 57.6863L34.0083 59.7059C29.322 59.098 26.6357 56.4706 26.6357 53.3333V52.7843ZM49.0067 52.5882H51.595V70.7451H49.0067V52.5882ZM51.0067 59.6667H54.2224V61.8431H51.0067V59.6667ZM37.2812 55.2745H47.8499V57.3529H37.2812V55.2745ZM42.595 58.3725C45.242 58.3725 47.2028 60.1765 47.2028 62.7059C47.2028 65.2353 45.242 67.0392 42.595 67.0392C39.9479 67.0392 37.9871 65.2353 37.9871 62.7059C37.9871 60.1765 39.9479 58.3725 42.595 58.3725ZM42.595 60.4902C41.3597 60.4902 40.4773 61.3137 40.4773 62.7059C40.4773 64.098 41.3597 64.9216 42.595 64.9216C43.8303 64.9216 44.7126 64.098 44.7126 62.7059C44.7126 61.3137 43.8303 60.4902 42.595 60.4902ZM41.2812 52.8824H43.8891V56.0588H41.2812V52.8824ZM67.9072 52.5882H70.5346V70.7451H67.9072V52.5882ZM62.5542 54.4706H65.1425C65.1425 60.0196 63.2601 64.5686 56.8091 67.6863L55.4562 65.6078C60.6719 63.098 62.5542 59.8039 62.5542 54.9412V54.4706ZM56.417 54.4706H63.7895V56.5294H56.417V54.4706Z" fill="white"/>
<defs>
<clipPath id="clip0_1000_1929">
<rect width="40" height="37" fill="white" transform="translate(17)"/>
</clipPath>
</defs>
</svg>
