<svg width="66" height="63" viewBox="0 0 66 63" fill="none" xmlns="http://www.w3.org/2000/svg">
<g clip-path="url(#clip0_1000_1943)">
<path d="M51.6406 13.6784C49.886 5.74752 47.2454 1.51449 43.3284 0.358225C42.505 0.116722 41.6509 -0.00391426 40.7929 9.68215e-05C39.6587 9.68215e-05 38.671 0.276343 37.6261 0.569132C36.3671 0.922297 34.9367 1.32343 32.8512 1.32343C30.7657 1.32343 29.3346 0.923124 28.073 0.569959C27.0274 0.276343 26.0405 9.68215e-05 24.9096 9.68215e-05C24.0223 -0.00302203 23.1389 0.11723 22.2847 0.357398C18.3884 1.5087 15.7494 5.74007 13.9692 13.6735C12.0549 22.2107 12.9972 27.6008 16.6114 28.8513C17.1068 29.026 17.6281 29.116 18.1534 29.1176C20.6294 29.1176 22.6148 27.0557 23.9715 25.3676C25.5044 23.4571 27.2987 22.4877 32.8512 22.4877C37.8106 22.4877 39.863 23.1601 41.6358 25.3676C42.7502 26.7555 43.8032 27.7265 44.8539 28.3377C46.2511 29.1499 47.6475 29.3302 49.0034 28.8646C51.1393 28.1359 52.3637 26.2096 52.6433 23.1378C52.8559 20.7823 52.5283 17.6882 51.6406 13.6784ZM28.8804 13.2335H26.2332V15.8801C26.2332 16.2311 26.0938 16.5677 25.8455 16.8159C25.5973 17.0641 25.2606 17.2035 24.9096 17.2035C24.5586 17.2035 24.2219 17.0641 23.9737 16.8159C23.7254 16.5677 23.586 16.2311 23.586 15.8801V13.2335H20.9388C20.5877 13.2335 20.2511 13.094 20.0029 12.8459C19.7546 12.5977 19.6152 12.2611 19.6152 11.9101C19.6152 11.5592 19.7546 11.2226 20.0029 10.9744C20.2511 10.7262 20.5877 10.5868 20.9388 10.5868H23.586V7.94012C23.586 7.58915 23.7254 7.25255 23.9737 7.00438C24.2219 6.7562 24.5586 6.61678 24.9096 6.61678C25.2606 6.61678 25.5973 6.7562 25.8455 7.00438C26.0938 7.25255 26.2332 7.58915 26.2332 7.94012V10.5868H28.8804C29.2315 10.5868 29.5681 10.7262 29.8164 10.9744C30.0646 11.2226 30.204 11.5592 30.204 11.9101C30.204 12.2611 30.0646 12.5977 29.8164 12.8459C29.5681 13.094 29.2315 13.2335 28.8804 13.2335ZM35.8294 13.5643C35.5021 13.5643 35.1822 13.4673 34.9102 13.2855C34.6381 13.1038 34.426 12.8454 34.3008 12.5432C34.1756 12.2409 34.1428 11.9083 34.2066 11.5874C34.2705 11.2665 34.428 10.9718 34.6594 10.7405C34.8908 10.5091 35.1856 10.3516 35.5066 10.2877C35.8275 10.2239 36.1602 10.2567 36.4625 10.3819C36.7648 10.5071 37.0232 10.7191 37.205 10.9911C37.3868 11.2631 37.4839 11.583 37.4839 11.9101C37.4839 12.3488 37.3095 12.7696 36.9993 13.0798C36.689 13.39 36.2682 13.5643 35.8294 13.5643ZM39.4693 17.2035C39.1419 17.2035 38.8218 17.1064 38.5496 16.9244C38.2775 16.7425 38.0654 16.4839 37.9403 16.1814C37.8152 15.8789 37.7827 15.5461 37.8469 15.2251C37.911 14.9041 38.069 14.6093 38.3008 14.3782C38.5326 14.147 38.8278 13.9898 39.149 13.9264C39.4702 13.8631 39.803 13.8964 40.1053 14.0222C40.4075 14.1481 40.6656 14.3607 40.847 14.6333C41.0283 14.9059 41.1246 15.2261 41.1238 15.5534C41.1227 15.9914 40.9479 16.4111 40.6377 16.7204C40.3276 17.0298 39.9074 17.2035 39.4693 17.2035ZM39.4693 9.92512C39.142 9.92512 38.8222 9.82811 38.5501 9.64635C38.278 9.46458 38.0659 9.20624 37.9407 8.90398C37.8155 8.60172 37.7827 8.26912 37.8466 7.94824C37.9104 7.62736 38.068 7.33262 38.2994 7.10128C38.5307 6.86994 38.8255 6.71239 39.1465 6.64857C39.4674 6.58474 39.8001 6.6175 40.1024 6.7427C40.4047 6.8679 40.6631 7.07992 40.8449 7.35194C41.0267 7.62397 41.1238 7.94379 41.1238 8.27095C41.1238 8.70967 40.9495 9.13041 40.6392 9.44063C40.3289 9.75085 39.9081 9.92512 39.4693 9.92512ZM43.1092 13.5643C42.782 13.5643 42.4621 13.4673 42.19 13.2855C41.9179 13.1038 41.7058 12.8454 41.5806 12.5432C41.4554 12.2409 41.4226 11.9083 41.4865 11.5874C41.5503 11.2665 41.7079 10.9718 41.9393 10.7405C42.1707 10.5091 42.4655 10.3516 42.7864 10.2877C43.1073 10.2239 43.44 10.2567 43.7423 10.3819C44.0447 10.5071 44.3031 10.7191 44.4849 10.9911C44.6667 11.2631 44.7637 11.583 44.7637 11.9101C44.7637 12.3488 44.5894 12.7696 44.2791 13.0798C43.9688 13.39 43.548 13.5643 43.1092 13.5643Z" fill="white"/>
</g>
<path d="M13.0471 46.2294H15.2882V62.5706H13.0471V46.2294ZM6.57059 52.4941H10.0647V54.3471H6.57059V52.4941ZM9.60588 46.5824H11.7941V61.8471H9.60588V46.5824ZM6.04118 48.1529H8.3C8.3 52.8118 6.90588 56.5176 2.31765 59.1824L0.994118 57.5412C4.71765 55.3 6.04118 52.5824 6.04118 48.6294V48.1529ZM1.91176 48.1529H6.78235V50.0235H1.91176V48.1529ZM28.6633 46.2471H31.028V55.4765H28.6633V46.2471ZM20.1574 56.2176H31.028V62.3941H20.1574V56.2176ZM28.7163 58.0529H22.4516V60.5412H28.7163V58.0529ZM22.1339 46.9882C24.6751 46.9882 26.5633 48.6118 26.5633 50.9059C26.5633 53.1824 24.6751 54.8235 22.1339 54.8235C19.5927 54.8235 17.6869 53.1824 17.6869 50.9059C17.6869 48.6118 19.5927 46.9882 22.1339 46.9882ZM22.1339 48.9294C20.8986 48.9294 19.981 49.6529 19.981 50.9059C19.981 52.1412 20.8986 52.8647 22.1339 52.8647C23.3692 52.8647 24.2692 52.1412 24.2692 50.9059C24.2692 49.6529 23.3692 48.9294 22.1339 48.9294ZM44.1561 46.2294H46.4855V62.5706H44.1561V46.2294ZM45.9561 52.6H48.8502V54.5588H45.9561V52.6ZM33.6031 48.6471H43.1149V50.5176H33.6031V48.6471ZM38.3855 51.4353C40.7678 51.4353 42.5325 53.0588 42.5325 55.3353C42.5325 57.6118 40.7678 59.2353 38.3855 59.2353C36.0031 59.2353 34.2384 57.6118 34.2384 55.3353C34.2384 53.0588 36.0031 51.4353 38.3855 51.4353ZM38.3855 53.3412C37.2737 53.3412 36.4796 54.0824 36.4796 55.3353C36.4796 56.5882 37.2737 57.3294 38.3855 57.3294C39.4972 57.3294 40.2914 56.5882 40.2914 55.3353C40.2914 54.0824 39.4972 53.3412 38.3855 53.3412ZM37.2031 46.4941H39.5502V49.3529H37.2031V46.4941ZM61.1665 46.2294H63.5312V62.5706H61.1665V46.2294ZM56.3488 47.9235H58.6782C58.6782 52.9176 56.9841 57.0118 51.1782 59.8176L49.9606 57.9471C54.6547 55.6882 56.3488 52.7235 56.3488 48.3471V47.9235ZM50.8253 47.9235H57.4606V49.7765H50.8253V47.9235Z" fill="white"/>
<defs>
<clipPath id="clip0_1000_1943">
<rect width="40" height="30" fill="white" transform="translate(13)"/>
</clipPath>
</defs>
</svg>
