<svg width="56" height="57" viewBox="0 0 56 57" fill="none" xmlns="http://www.w3.org/2000/svg">
<g clip-path="url(#clip0_366_4434)">
<path d="M24.2463 30.7676V19.91H31.4847V30.7676H40.5327V16.2908H45.9615L27.8654 0.0045166L9.76953 16.2908H15.1983V30.7676H24.2463Z" fill="white"/>
</g>
<path d="M12.58 55.9955H9.88V49.6555H4.36V55.9955H1.68V41.7155H4.36V47.4755H9.88V41.7155H12.58V55.9955ZM25.0178 50.5555C25.0178 51.4621 24.9045 52.2621 24.6778 52.9555C24.4511 53.6488 24.1178 54.2422 23.6778 54.7355C23.2511 55.2155 22.7311 55.5822 22.1178 55.8355C21.5045 56.0755 20.8178 56.1955 20.0578 56.1955C19.3511 56.1955 18.6911 56.0755 18.0778 55.8355C17.4778 55.5822 16.9578 55.2155 16.5178 54.7355C16.0911 54.2422 15.7578 53.6488 15.5178 52.9555C15.2778 52.2621 15.1578 51.4621 15.1578 50.5555C15.1578 49.3555 15.3511 48.3421 15.7378 47.5155C16.1378 46.6755 16.7111 46.0421 17.4578 45.6155C18.2045 45.1755 19.0911 44.9555 20.1178 44.9555C21.0778 44.9555 21.9245 45.1755 22.6578 45.6155C23.3911 46.0421 23.9645 46.6755 24.3778 47.5155C24.8045 48.3421 25.0178 49.3555 25.0178 50.5555ZM17.8578 50.5555C17.8578 51.3155 17.9378 51.9688 18.0978 52.5155C18.2578 53.0488 18.4978 53.4555 18.8178 53.7355C19.1511 54.0155 19.5778 54.1555 20.0978 54.1555C20.6178 54.1555 21.0378 54.0155 21.3578 53.7355C21.6911 53.4555 21.9311 53.0488 22.0778 52.5155C22.2378 51.9688 22.3178 51.3155 22.3178 50.5555C22.3178 49.7821 22.2378 49.1355 22.0778 48.6155C21.9178 48.0821 21.6711 47.6821 21.3378 47.4155C21.0178 47.1355 20.5978 46.9955 20.0778 46.9955C19.2911 46.9955 18.7245 47.3021 18.3778 47.9155C18.0311 48.5288 17.8578 49.4088 17.8578 50.5555ZM39.2384 44.9555C40.4118 44.9555 41.2918 45.2688 41.8784 45.8955C42.4651 46.5221 42.7584 47.5355 42.7584 48.9355V55.9955H40.1384V49.4155C40.1384 48.6155 40.0051 48.0155 39.7384 47.6155C39.4718 47.2021 39.0584 46.9955 38.4984 46.9955C37.7251 46.9955 37.1784 47.2821 36.8584 47.8555C36.5384 48.4288 36.3784 49.2621 36.3784 50.3555V55.9955H33.7384V49.4155C33.7384 48.8821 33.6784 48.4355 33.5584 48.0755C33.4384 47.7155 33.2584 47.4488 33.0184 47.2755C32.7784 47.0888 32.4718 46.9955 32.0984 46.9955C31.5651 46.9955 31.1451 47.1421 30.8384 47.4355C30.5318 47.7155 30.3118 48.1288 30.1784 48.6755C30.0584 49.2221 29.9984 49.8955 29.9984 50.6955V55.9955H27.3384V45.1555H29.3784L29.7584 46.5755H29.8784C30.0784 46.2021 30.3251 45.8955 30.6184 45.6555C30.9251 45.4155 31.2718 45.2421 31.6584 45.1355C32.0584 45.0155 32.4718 44.9555 32.8984 44.9555C33.6584 44.9555 34.2918 45.0955 34.7984 45.3755C35.3184 45.6421 35.7184 46.0621 35.9984 46.6355H36.1384C36.4718 46.0488 36.9118 45.6221 37.4584 45.3555C38.0184 45.0888 38.6118 44.9555 39.2384 44.9555ZM49.8602 44.9555C50.7935 44.9555 51.5935 45.1555 52.2602 45.5555C52.9402 45.9421 53.4668 46.5021 53.8402 47.2355C54.2135 47.9555 54.4002 48.8355 54.4002 49.8755V51.1555H47.7602C47.7868 52.1421 48.0268 52.9088 48.4802 53.4555C48.9468 53.9888 49.6002 54.2555 50.4402 54.2555C51.1068 54.2555 51.7002 54.1888 52.2202 54.0555C52.7402 53.9088 53.2802 53.7021 53.8402 53.4355V55.4555C53.3335 55.7088 52.8068 55.8955 52.2602 56.0155C51.7135 56.1355 51.0402 56.1955 50.2402 56.1955C49.2268 56.1955 48.3268 55.9955 47.5402 55.5955C46.7668 55.1822 46.1602 54.5621 45.7202 53.7355C45.2802 52.9088 45.0602 51.8821 45.0602 50.6555C45.0602 49.4155 45.2602 48.3755 45.6602 47.5355C46.0602 46.6821 46.6202 46.0421 47.3402 45.6155C48.0735 45.1755 48.9135 44.9555 49.8602 44.9555ZM49.9002 46.8155C49.3002 46.8155 48.8135 47.0355 48.4402 47.4755C48.0802 47.9021 47.8668 48.5421 47.8002 49.3955H51.8802C51.8802 48.8888 51.8068 48.4421 51.6602 48.0555C51.5135 47.6688 51.2935 47.3688 51.0002 47.1555C50.7202 46.9288 50.3535 46.8155 49.9002 46.8155Z" fill="white"/>
<defs>
<clipPath id="clip0_366_4434">
<rect width="36.46" height="30.991" fill="white" transform="translate(9.76953 0.0045166)"/>
</clipPath>
</defs>
</svg>
