<svg width="56" height="67" viewBox="0 0 56 67" fill="none" xmlns="http://www.w3.org/2000/svg">
<g clip-path="url(#clip0_1000_1925)">
<path d="M23.8824 33.75V21.8382H31.8235V33.75H41.75V17.8676H47.7059L27.8529 0L8 17.8676H13.9559V33.75H23.8824Z" fill="white"/>
</g>
<path d="M12.8333 66H10.1863V59.7843H4.77451V66H2.14706V52H4.77451V57.6471H10.1863V52H12.8333V66ZM25.0273 60.6667C25.0273 61.5556 24.9162 62.3399 24.6939 63.0196C24.4717 63.6993 24.1449 64.281 23.7135 64.7647C23.2952 65.2353 22.7854 65.5948 22.1841 65.8431C21.5828 66.0784 20.9096 66.1961 20.1645 66.1961C19.4717 66.1961 18.8247 66.0784 18.2233 65.8431C17.6351 65.5948 17.1253 65.2353 16.6939 64.7647C16.2756 64.281 15.9488 63.6993 15.7135 63.0196C15.4782 62.3399 15.3606 61.5556 15.3606 60.6667C15.3606 59.4902 15.5501 58.4967 15.9292 57.6863C16.3214 56.8627 16.8835 56.2418 17.6155 55.8235C18.3475 55.3922 19.2168 55.1765 20.2233 55.1765C21.1645 55.1765 21.9946 55.3922 22.7135 55.8235C23.4325 56.2418 23.9946 56.8627 24.3998 57.6863C24.8181 58.4967 25.0273 59.4902 25.0273 60.6667ZM18.0077 60.6667C18.0077 61.4118 18.0861 62.0523 18.243 62.5882C18.3998 63.1111 18.6351 63.5098 18.9488 63.7843C19.2756 64.0588 19.6939 64.1961 20.2037 64.1961C20.7135 64.1961 21.1253 64.0588 21.439 63.7843C21.7658 63.5098 22.0011 63.1111 22.1449 62.5882C22.3018 62.0523 22.3802 61.4118 22.3802 60.6667C22.3802 59.9085 22.3018 59.2745 22.1449 58.7647C21.9881 58.2418 21.7462 57.8497 21.4194 57.5882C21.1057 57.3137 20.6939 57.1765 20.1841 57.1765C19.4129 57.1765 18.8573 57.4771 18.5175 58.0784C18.1776 58.6797 18.0077 59.5425 18.0077 60.6667ZM38.9691 55.1765C40.1194 55.1765 40.9821 55.4837 41.5573 56.098C42.1325 56.7124 42.42 57.7059 42.42 59.0784V66H39.8514V59.549C39.8514 58.7647 39.7207 58.1765 39.4593 57.7843C39.1978 57.3791 38.7926 57.1765 38.2436 57.1765C37.4854 57.1765 36.9494 57.4575 36.6357 58.0196C36.322 58.5817 36.1651 59.3987 36.1651 60.4706V66H33.5769V59.549C33.5769 59.0261 33.5181 58.5882 33.4004 58.2353C33.2828 57.8824 33.1063 57.6209 32.871 57.451C32.6357 57.268 32.3351 57.1765 31.9691 57.1765C31.4462 57.1765 31.0344 57.3203 30.7338 57.6078C30.4331 57.8824 30.2174 58.2876 30.0867 58.8235C29.9691 59.3595 29.9102 60.0196 29.9102 60.8039V66H27.3024V55.3725H29.3024L29.6749 56.7647H29.7926C29.9887 56.3987 30.2305 56.098 30.5181 55.8627C30.8187 55.6275 31.1586 55.4575 31.5377 55.3529C31.9298 55.2353 32.3351 55.1765 32.7534 55.1765C33.4985 55.1765 34.1194 55.3137 34.6161 55.5882C35.1259 55.8497 35.5181 56.2614 35.7926 56.8235H35.9298C36.2566 56.2484 36.688 55.8301 37.224 55.5686C37.773 55.3072 38.3547 55.1765 38.9691 55.1765ZM49.3825 55.1765C50.2975 55.1765 51.0819 55.3725 51.7355 55.7647C52.4021 56.1438 52.9185 56.6928 53.2845 57.4118C53.6505 58.1176 53.8335 58.9804 53.8335 60V61.2549H47.3237C47.3498 62.2222 47.5851 62.9739 48.0296 63.5098C48.4871 64.0327 49.1276 64.2941 49.9511 64.2941C50.6047 64.2941 51.1864 64.2288 51.6962 64.098C52.206 63.9542 52.7355 63.7516 53.2845 63.4902V65.4706C52.7877 65.719 52.2714 65.902 51.7355 66.0196C51.1995 66.1373 50.5394 66.1961 49.7551 66.1961C48.7616 66.1961 47.8792 66 47.108 65.6078C46.3498 65.2026 45.7551 64.5948 45.3237 63.7843C44.8923 62.9739 44.6766 61.9673 44.6766 60.7647C44.6766 59.549 44.8727 58.5294 45.2649 57.7059C45.657 56.8693 46.206 56.2418 46.9119 55.8235C47.6309 55.3922 48.4544 55.1765 49.3825 55.1765ZM49.4217 57C48.8335 57 48.3564 57.2157 47.9904 57.6471C47.6374 58.0654 47.4283 58.6928 47.3629 59.5294H51.3629C51.3629 59.0327 51.291 58.5948 51.1472 58.2157C51.0034 57.8366 50.7877 57.5425 50.5002 57.3333C50.2256 57.1111 49.8662 57 49.4217 57Z" fill="white"/>
<defs>
<clipPath id="clip0_1000_1925">
<rect width="40" height="34" fill="white" transform="translate(8)"/>
</clipPath>
</defs>
</svg>
