<svg width="66" height="71" viewBox="0 0 66 71" fill="none" xmlns="http://www.w3.org/2000/svg">
<path fill-rule="evenodd" clip-rule="evenodd" d="M32.0964 0C34.151 0 36.0831 0.549297 37.746 1.51245C37.9711 1.63005 38.17 1.79191 38.3308 1.98829C38.4916 2.18467 38.611 2.41152 38.6818 2.65518C38.7525 2.89885 38.7732 3.15429 38.7426 3.40615C38.712 3.65801 38.6306 3.90107 38.5035 4.12073C38.3764 4.34038 38.2062 4.53208 38.003 4.68429C37.7998 4.83651 37.5678 4.94609 37.3211 5.00645C37.0745 5.06681 36.8181 5.0767 36.5675 5.03553C36.3168 4.99435 36.0772 4.90296 35.8628 4.76685C34.7174 4.10627 33.4181 3.75858 32.0955 3.75874C30.7729 3.7589 29.4737 4.1069 28.3284 4.76774C27.1832 5.42859 26.2323 6.37899 25.5714 7.52337C24.9105 8.66776 24.5629 9.96579 24.5635 11.2869L45.2789 11.2888C46.2778 11.2888 47.2358 11.6852 47.9421 12.3908C48.6485 13.0963 49.0453 14.0533 49.0453 15.0511V33.8627C49.0453 34.8605 48.6485 35.8175 47.9421 36.523C47.2358 37.2286 46.2778 37.625 45.2789 37.625H18.9139C17.915 37.625 16.957 37.2286 16.2506 36.523C15.5443 35.8175 15.1475 34.8605 15.1475 33.8627V15.0492C15.1475 14.0514 15.5443 13.0945 16.2506 12.3889C16.957 11.6833 17.915 11.2869 18.9139 11.2869H20.7971C20.7971 8.29345 21.9876 5.42258 24.1066 3.30587C26.2256 1.18916 29.0996 0 32.0964 0ZM32.0964 18.8116C31.2673 18.8116 30.4614 19.0849 29.8036 19.5891C29.1459 20.0933 28.6731 20.8001 28.4585 21.6001C28.2439 22.4001 28.2995 23.2484 28.6168 24.0136C28.934 24.7787 29.4952 25.4179 30.2132 25.832V28.2173C30.2132 28.7163 30.4116 29.1947 30.7648 29.5475C31.1179 29.9003 31.5969 30.0985 32.0964 30.0985C32.5958 30.0985 33.0748 29.9003 33.428 29.5475C33.7812 29.1947 33.9796 28.7163 33.9796 28.2173V25.832C34.6976 25.4179 35.2587 24.7787 35.576 24.0136C35.8932 23.2484 35.9489 22.4001 35.7343 21.6001C35.5197 20.8001 35.0469 20.0933 34.3891 19.5891C33.7314 19.0849 32.9255 18.8116 32.0964 18.8116ZM47.0077 5.68297L48.8269 6.17207C49.2907 6.31712 49.6804 6.63569 49.9146 7.06116C50.1487 7.48662 50.2091 7.98604 50.0831 8.45495C49.9571 8.92386 49.6545 9.32596 49.2386 9.57715C48.8226 9.82833 48.3256 9.90915 47.8514 9.8027L46.034 9.31737C45.5536 9.18655 45.1447 8.871 44.8965 8.43975C44.6484 8.00849 44.5814 7.49664 44.7101 7.01615C44.8389 6.53567 45.1528 6.12566 45.5834 5.87581C46.014 5.62597 46.5261 5.55664 47.0077 5.68297ZM44.5877 0.169304C44.8267 0.23326 45.0506 0.343604 45.2468 0.494032C45.4431 0.644461 45.6077 0.832027 45.7313 1.04602C45.855 1.26001 45.9352 1.49624 45.9674 1.7412C45.9997 1.98617 45.9833 2.23508 45.9192 2.47372L45.6762 3.38044C45.6132 3.62009 45.5035 3.84494 45.3532 4.04209C45.203 4.23924 45.0152 4.4048 44.8007 4.52926C44.5862 4.65371 44.3493 4.73462 44.1034 4.76733C43.8575 4.80004 43.6076 4.7839 43.368 4.71985C43.1284 4.6558 42.9038 4.54509 42.7071 4.39409C42.5104 4.24309 42.3456 4.05477 42.222 3.83994C42.0984 3.62512 42.0185 3.38802 41.9869 3.14226C41.9553 2.8965 41.9726 2.64693 42.0379 2.40788L42.2827 1.49928C42.412 1.01772 42.7274 0.607137 43.1597 0.357755C43.5919 0.108374 44.1055 0.040592 44.5877 0.169304Z" fill="white"/>
<path d="M0.723529 66.4897H15.5118V68.3956H0.723529V66.4897ZM6.91765 63.4015H9.26471V67.2662H6.91765V63.4015ZM2.38235 54.9132H13.8529V60.3485H4.74706V63.1015H2.41765V58.5132H11.5235V56.7662H2.38235V54.9132ZM2.41765 62.1662H14.2235V64.0544H2.41765V62.1662ZM18.4574 55.3544H28.8163V57.2074H18.4574V55.3544ZM16.9574 66.1544H31.728V68.0603H16.9574V66.1544ZM27.581 55.3544H29.9104V57.2956C29.9104 59.5897 29.9104 61.8132 29.328 65.1662L26.981 64.9721C27.581 61.8309 27.581 59.5015 27.581 57.2956V55.3544ZM37.5502 54.9838C40.0384 54.9838 41.8384 57.2426 41.8384 60.8074C41.8384 64.4074 40.0384 66.6662 37.5502 66.6662C35.0619 66.6662 33.2619 64.4074 33.2619 60.8074C33.2619 57.2426 35.0619 54.9838 37.5502 54.9838ZM37.5502 57.1191C36.3325 57.1191 35.5208 58.4074 35.5208 60.8074C35.5208 63.2426 36.3325 64.5485 37.5502 64.5485C38.7678 64.5485 39.5972 63.2426 39.5972 60.8074C39.5972 58.4074 38.7678 57.1191 37.5502 57.1191ZM43.6208 53.8544H45.9855V70.1956H43.6208V53.8544ZM45.4561 60.0132H48.3502V61.9544H45.4561V60.0132ZM49.4076 61.0191H64.1959V62.9074H49.4076V61.0191ZM55.6017 61.8485H57.9312V64.4426H55.6017V61.8485ZM55.5488 65.0956H57.5429V65.3779C57.5429 67.7603 55.3194 69.7544 51.1194 70.1426L50.3606 68.3779C53.9253 68.0603 55.5488 66.6309 55.5488 65.3779V65.0956ZM55.9723 65.0956H57.9665V65.3779C57.9665 66.7191 59.537 68.0779 63.1547 68.3779L62.4135 70.1426C58.2312 69.7544 55.9723 67.8662 55.9723 65.3779V65.0956ZM56.8017 54.0309C60.4194 54.0309 62.7135 55.1779 62.7135 57.1191C62.7135 59.0603 60.4194 60.2074 56.8017 60.2074C53.1841 60.2074 50.89 59.0603 50.89 57.1191C50.89 55.1779 53.1841 54.0309 56.8017 54.0309ZM56.8017 55.7779C54.5429 55.7779 53.3076 56.2191 53.3076 57.1191C53.3076 57.9838 54.5429 58.4426 56.8017 58.4426C59.0429 58.4426 60.2959 57.9838 60.2959 57.1191C60.2959 56.2191 59.0429 55.7779 56.8017 55.7779Z" fill="white"/>
</svg>
