<svg width="250" height="600" viewBox="0 0 250 600" fill="none" xmlns="http://www.w3.org/2000/svg">
<g clip-path="url(#clip0_846_12882)">
<path d="M132.734 536.232C133.296 542.255 132.521 546.114 130.379 552.696C127.692 561.494 111.629 569.344 121.629 579.2C122.046 579.6 129.525 585.322 142.463 581.609C143.4 581.134 144.375 580.731 145.379 580.403C146.796 579.741 148.113 578.891 149.288 577.878C156.25 572.196 160.763 564.217 161.942 555.498C162.834 549.15 163.579 541.504 163.046 536.067" fill="black"/>
<path d="M92.5 528.473C92.4709 529.433 92.4709 530.638 92.0541 531.441C91.6375 532.244 91.2209 533.449 90.8041 534.252C85.3875 541.078 78.3041 545.094 71.6375 550.716C67.4709 554.33 63.7209 561.157 68.7209 565.574C78.45 569.834 93.8875 567.28 97.0541 565.975C99.9709 564.771 102.888 563.967 105.388 562.361C117.054 554.33 116.221 539.874 117.138 527.919" fill="black"/>
<path d="M125.991 525.887C126.212 529.02 126.629 531.831 126.629 535.043C140.379 535.846 154.546 536.248 168.296 535.445C174.216 534.971 180.004 533.477 185.379 531.028C191.629 491.273 192.046 450.715 188.296 410.157C188.296 408.953 188.712 407.346 188.296 406.142C187.879 404.134 187.879 402.528 187.462 400.52V396.504C183.296 359.159 177.462 323.018 169.962 286.877C140.796 287.681 112.046 289.287 82.8789 290.09C69.9874 346.614 65.3583 404.599 69.1289 462.36C69.0583 464.243 69.1999 466.127 69.5458 467.982C70.3289 479.222 72.1458 490.377 74.9624 501.312C75.7958 504.123 76.6289 507.335 77.8789 510.146C79.9624 515.367 82.8789 520.587 84.9624 525.807C92.8789 527.815 101.212 528.217 109.546 527.815C114.129 527.413 119.129 527.413 123.912 526.285L125.991 525.887Z" fill="black"/>
<path fill-rule="evenodd" clip-rule="evenodd" d="M167.663 287.303C182.92 365.005 195.345 448.085 183.235 529.381C174.909 532.957 165.15 533.372 156.617 533.469C147.483 533.565 138.246 533.34 129.125 532.802C128.3 523.594 127.425 514.31 126.575 505.311C122.796 465.275 118.892 423.878 119.075 383.292C119.146 369.017 117.625 354.918 106.146 348.453C104.954 347.782 103.421 348.168 102.725 349.316C102.025 350.465 102.429 351.942 103.621 352.613C112.913 357.845 114.138 370.438 114.075 383.268C113.892 424.08 117.808 465.589 121.595 505.734L121.885 508.82C122.354 513.806 122.829 518.866 123.297 523.937C111.253 525.816 99.0547 525.853 87.0085 524.048C73.9085 499.099 71.8335 474.222 70.9251 452.815C68.6291 398.443 73.4041 343.879 85.1166 290.644C85.4041 289.343 84.5416 288.066 83.1916 287.789C81.8416 287.512 80.5166 288.343 80.2291 289.644C68.4291 343.273 63.621 398.239 65.9291 453.012C66.871 475.246 69.0585 501.155 83.1416 527.345C83.5041 528.02 84.1751 528.489 84.9501 528.614C86.6188 528.881 88.2901 529.114 89.9635 529.313C89.9413 529.74 89.8994 530.181 89.8126 530.361C89.5776 530.817 89.3638 531.329 89.1551 531.829L89.1041 531.951C88.9541 532.316 88.7957 532.69 88.6585 532.983C85.2044 537.271 81.0129 540.42 76.5757 543.752L76.4751 543.828C74.3479 545.427 72.1451 547.082 69.9626 548.925C67.0085 551.487 63.8457 555.844 63.8251 560.39C63.8126 563.08 64.9207 565.485 67.0291 567.349C67.2207 567.521 67.4416 567.662 67.6835 567.766C72.1126 569.706 77.4791 570.364 82.5001 570.364C89.546 570.364 95.9082 569.067 98.0376 568.196C98.8541 567.859 99.7041 567.542 100.525 567.236L100.551 567.227C102.635 566.45 104.788 565.649 106.771 564.373C106.784 564.363 106.8 564.354 106.814 564.345C106.822 564.34 106.83 564.335 106.838 564.329C117.982 556.659 118.699 543.971 119.332 532.775L119.356 532.356C119.415 531.315 119.472 530.311 119.538 529.322C120.94 529.155 122.34 528.964 123.738 528.748C123.937 530.927 124.133 533.105 124.325 535.276C124.433 536.464 125.417 537.396 126.65 537.476C127.879 537.556 129.111 537.63 130.344 537.698C130.663 542.749 129.874 546.205 127.996 551.973C127.992 551.985 127.988 552.001 127.983 552.013C127.217 554.519 124.9 557.245 122.659 559.88L122.634 559.908C120.142 562.843 117.567 565.874 116.454 569.232C115.079 573.388 116.217 577.312 119.863 580.9C119.921 580.962 124.908 585.272 134.025 585.272C136.721 585.272 139.779 584.894 143.179 583.912C143.333 583.869 143.483 583.809 143.625 583.737C144.446 583.322 145.304 582.966 146.183 582.681C146.279 582.647 146.379 582.612 146.471 582.569C148.088 581.812 149.588 580.844 150.929 579.694C158.371 573.613 163.163 565.132 164.421 555.82C165.453 548.485 165.876 542.499 165.684 537.977C172.547 537.514 179.674 536.364 186.163 533.388C186.415 533.272 186.638 533.12 186.828 532.942C187.446 532.582 187.897 531.969 188.008 531.228C200.517 448.86 187.983 364.885 172.575 286.408C172.321 285.098 171.013 284.243 169.654 284.488C168.296 284.737 167.404 285.994 167.663 287.303ZM114.493 529.818C111.262 530.071 108.025 530.196 104.788 530.196C101.503 530.196 98.2188 530.066 94.9404 529.807C94.8797 530.693 94.7282 531.652 94.2791 532.517C94.1285 532.808 93.9526 533.226 93.7782 533.641L93.7376 533.738L93.6866 533.859C93.4779 534.359 93.2641 534.871 93.0291 535.328C92.9582 535.465 92.8751 535.593 92.7791 535.713C88.9041 540.597 84.196 544.134 79.6416 547.556L79.5085 547.656C77.4457 549.207 75.3144 550.809 73.2751 552.531C71.0791 554.434 68.8335 557.627 68.821 560.414C68.8166 561.63 69.246 562.658 70.1335 563.546C79.1251 567.236 93.5085 564.815 96.0666 563.763C96.9088 563.413 97.7438 563.102 98.5541 562.801L98.7207 562.739C100.629 562.028 102.438 561.353 103.963 560.382C113.125 554.049 113.742 543.09 114.338 532.493C114.387 531.611 114.437 530.712 114.493 529.818ZM135.364 537.944C135.633 543.414 134.697 547.476 132.771 553.398C131.718 556.827 129.083 559.926 126.537 562.922L126.525 562.936C120.875 569.582 118.858 572.975 123.358 577.456C123.813 577.802 130.3 582.5 141.529 579.362C142.463 578.906 143.433 578.509 144.421 578.175C145.579 577.621 146.659 576.914 147.621 576.083C147.629 576.075 147.638 576.068 147.646 576.061C147.654 576.054 147.663 576.047 147.671 576.038C154.171 570.734 158.358 563.329 159.463 555.185C160.441 548.226 160.856 542.42 160.687 538.21C159.327 538.25 157.987 538.272 156.675 538.287C155.263 538.3 153.846 538.307 152.429 538.307C146.75 538.307 141.045 538.187 135.364 537.944Z" fill="black"/>
<g clip-path="url(#clip1_846_12882)">
<path d="M141.404 159.375C141.779 163.583 143.5 173.092 149.904 171.667L150.591 172.708C150.279 179.238 146.971 183.842 141.787 188.612C136.521 193.383 129.804 196.25 122.716 196.754C116.466 197.213 109.821 195.717 105.146 191.525C100.471 187.333 98.0124 181.525 101.108 176.546H101.558C102.966 176.587 104.262 175.85 105.454 175.1C106.971 174.142 108.262 169.837 109.2 168.708C110.45 167.088 112.791 161.317 113.433 159.375H141.404Z" fill="white"/>
<path d="M184.304 275.567C193.534 304.142 199.954 326.058 208.388 353.637C208.804 355.046 210.471 360.025 209.7 361.271C209.184 362.104 208.317 362.638 207.471 363.117C202.846 365.746 197.796 365.967 192.579 367.017L173.217 370.871C145.504 375.842 117.692 377.058 89.9292 372.375L84.6917 371.762L66.7751 368.333C65.1585 368.025 63.3835 367.612 62.4376 366.25C61.6545 365.133 61.6585 363.662 61.7167 362.3C61.9542 356.883 62.5792 351.508 63.2042 346.129L68.1335 303.629C70.246 285.421 72.3626 267.183 75.2417 249.088L75.0417 249.025C70.196 247.358 65.4251 245.508 60.6501 243.654C59.9917 243.467 59.4001 243.1 58.9335 242.6C57.996 241.392 58.8001 239.658 59.6042 238.354C66.7042 226.812 72.7751 214.671 77.7542 202.067C81.5542 192.442 85.521 181.612 94.796 177.025L114.179 179.237L150.65 169.375C157.029 171.083 162.263 175.658 166.559 180.679C171.988 187.025 176.292 194.254 179.292 202.05C185.929 219.312 185.934 238.771 193.938 255.446C190.142 256.571 186.288 257.475 182.392 258.162L184.304 275.567Z" fill="white"/>
<path d="M113.146 181.663C113.458 185.95 114.629 190.129 116.584 193.958C116.75 194.358 117.021 194.704 117.367 194.963C117.979 195.338 118.775 195.108 119.45 194.863C125.546 192.65 131.446 189.925 137.083 186.721C139.958 185.088 142.867 183.229 144.583 180.408C146.208 177.746 146.596 174.538 146.946 171.442L147.692 164.829C147.763 164.492 147.729 164.142 147.592 163.829C147.225 163.196 146.279 163.342 145.588 163.575C134.417 167.371 123.679 172.471 113.146 181.663Z" fill="white"/>
<path d="M109.583 166C108.371 168.217 107.121 170.608 107.337 173.125C107.554 175.642 109.933 178.125 112.371 177.467C112.512 180.454 110.404 183.017 108.421 185.254L103.262 191.087C103.071 191.346 102.812 191.546 102.512 191.662C101.796 191.867 101.196 191.108 100.846 190.446C98.6624 186.325 97.0458 181.929 96.0418 177.375C95.8124 176.742 95.7874 176.054 95.9624 175.404C96.1418 174.754 96.5124 174.175 97.0333 173.746C99.6833 170.729 102.767 168.117 105.933 165.646C106.704 165.042 107.6 164.396 108.567 164.521C109.533 164.646 110.312 165.95 109.583 166Z" fill="white"/>
<path d="M162.004 260.129C162.779 287.337 164.842 314.467 168.196 341.521C165.442 341.692 162.587 342.354 160.5 344.154C158.412 345.954 157.354 349.154 158.65 351.6C160.404 354.896 165.216 355.279 167.466 358.267C168.941 360.221 169.004 362.85 169.754 365.196C170.425 367.283 171.662 369.137 173.329 370.558C174.996 371.979 177.025 372.908 179.192 373.242C181.358 373.575 183.571 373.296 185.587 372.442C187.604 371.587 189.341 370.183 190.608 368.396C193.908 363.733 193.417 357.483 192.787 351.808C189.383 321.021 185.975 290.246 182.571 259.487L162.004 260.129Z" fill="white"/>
<path d="M63.2208 346.146C62.5958 351.525 61.9708 356.908 61.7333 362.317L61.4208 363.396C58.2168 362.821 54.6918 361.871 52.9918 359.096C50.2293 354.588 54.0333 348.483 52.1583 343.538C50.8583 340.075 46.8624 337.038 48.2168 333.596C49.3458 330.729 53.2874 330.396 55.6043 328.367C57.9208 326.338 58.2874 323.038 58.5418 320.033L64.7458 246.171L64.9168 245.338C68.2749 246.629 71.6418 247.892 75.0458 249.058L75.2374 249.171C72.3624 267.254 70.2374 285.475 68.1543 303.663" fill="white"/>
<path d="M164.117 262.288C159.075 262.288 154.017 261.933 148.954 261.221C147.692 261.042 146.767 259.946 146.804 258.675L147.942 218.75C147.979 217.371 149.129 216.271 150.513 216.321C151.892 216.358 152.979 217.513 152.942 218.892L151.867 256.558C164.863 258.108 177.825 257.192 190.467 253.829C186.783 245.167 184.933 235.879 183.138 226.867C181.542 218.85 179.892 210.567 176.963 202.954C174.058 195.404 169.921 188.458 164.663 182.312C159.742 176.562 154.946 173.121 150.008 171.8C148.675 171.442 147.883 170.071 148.242 168.737C148.6 167.404 149.971 166.612 151.304 166.971C157.25 168.562 162.867 172.521 168.467 179.067C174.096 185.646 178.525 193.083 181.633 201.167C184.713 209.179 186.408 217.679 188.046 225.9C190.058 235.996 191.954 245.533 196.2 254.379C196.517 255.042 196.529 255.804 196.229 256.475C195.929 257.146 195.354 257.65 194.654 257.858C184.633 260.8 174.413 262.288 164.117 262.288Z" fill="black"/>
<path d="M75.0585 251.554C74.7876 251.554 74.5166 251.508 74.246 251.417C69.3876 249.75 64.546 247.871 59.8626 246.05L59.8541 246.046C58.8085 245.721 57.8626 245.129 57.1166 244.325C57.0666 244.271 57.021 244.217 56.9751 244.158C55.5501 242.321 55.7251 239.938 57.4916 237.067C64.4916 225.683 70.5335 213.604 75.446 201.171L75.8791 200.067C79.646 190.492 83.9166 179.642 93.7041 174.804C94.9416 174.192 96.4416 174.7 97.0541 175.938C97.6666 177.175 97.1585 178.675 95.921 179.288C87.8666 183.267 84.1376 192.738 80.5335 201.896L80.096 203.004C75.0791 215.708 68.9041 228.05 61.7501 239.683C61.2751 240.454 61.1126 240.908 61.0585 241.142C61.1501 241.196 61.2501 241.242 61.3585 241.271C61.4335 241.292 61.5041 241.317 61.5751 241.342L61.6751 241.379C66.3126 243.179 71.1085 245.042 75.871 246.675C77.1751 247.125 77.871 248.546 77.4251 249.85C77.0666 250.904 76.096 251.554 75.0585 251.554Z" fill="black"/>
<path d="M81.3209 373.642C81.1665 373.642 81.0084 373.625 80.8499 373.596L66.3209 370.817C64.679 370.488 61.9749 369.942 60.4084 367.717C59.1834 365.971 59.1584 363.962 59.2334 362.221C59.4749 356.712 60.1165 351.2 60.7334 345.871L65.7834 302.325C69.2165 272.937 72.7624 242.546 79.6709 213.225C79.9874 211.883 81.329 211.046 82.679 211.367C84.0209 211.683 84.854 213.029 84.5374 214.375C77.6959 243.417 74.1665 273.662 70.7499 302.912L65.6999 346.454C65.0915 351.7 64.4624 357.121 64.2249 362.446C64.1959 363.108 64.1415 364.35 64.4959 364.85C64.9124 365.442 66.3959 365.742 67.279 365.917L81.7834 368.692C83.1374 368.95 84.029 370.262 83.7665 371.617C83.5459 372.808 82.4999 373.642 81.3209 373.642Z" fill="black"/>
<path d="M125.821 377.829C113.366 377.829 101.316 376.833 89.5165 374.842C88.154 374.613 87.2374 373.321 87.4665 371.963C87.6959 370.6 88.9834 369.679 90.3459 369.913C116.033 374.246 142.996 373.754 172.775 368.413C174.133 368.167 175.433 369.071 175.675 370.433C175.921 371.792 175.016 373.092 173.654 373.333C156.941 376.329 141.079 377.829 125.821 377.829Z" fill="black"/>
<path d="M192.575 369.517C191.408 369.517 190.367 368.696 190.125 367.508C189.854 366.154 190.729 364.838 192.083 364.563C193.404 364.296 194.704 364.083 195.962 363.879C199.646 363.275 203.125 362.708 206.229 360.942C206.571 360.746 207.1 360.45 207.4 360.154C207.392 359.537 207.142 358.121 206.162 354.929C206.092 354.7 206.029 354.5 205.983 354.346C203.683 346.825 201.517 339.675 199.425 332.758C193.867 314.408 188.621 297.075 181.921 276.333C181.496 275.021 182.217 273.608 183.533 273.187C184.846 272.767 186.254 273.483 186.679 274.8C193.392 295.583 198.646 312.937 204.212 331.308C206.304 338.221 208.471 345.367 210.775 352.904C210.825 353.071 210.879 353.25 210.946 353.458C212.35 358.025 212.904 360.833 211.825 362.583C211 363.917 209.779 364.679 208.7 365.292C204.821 367.496 200.729 368.167 196.771 368.817C195.554 369.017 194.3 369.221 193.071 369.471C192.904 369.5 192.742 369.517 192.575 369.517Z" fill="black"/>
<path d="M180.958 375.875C180.229 375.875 179.5 375.821 178.771 375.708C176.146 375.304 173.691 374.179 171.671 372.45C169.65 370.725 168.154 368.475 167.341 365.946C167.062 365.063 166.875 364.204 166.7 363.371C166.387 361.904 166.112 360.638 165.45 359.754C164.746 358.825 163.441 358.15 162.058 357.438C160.029 356.392 157.729 355.208 156.425 352.758C154.679 349.454 155.725 344.938 158.862 342.246C160.55 340.796 162.746 339.821 165.408 339.333C162.266 313.146 160.308 286.529 159.583 260.188C159.546 258.808 160.633 257.658 162.012 257.621C162.037 257.621 162.058 257.621 162.083 257.621C163.433 257.621 164.546 258.696 164.583 260.05C165.325 287.071 167.375 314.375 170.675 341.208C170.758 341.892 170.558 342.579 170.116 343.113C169.675 343.642 169.037 343.967 168.35 344.008C165.587 344.179 163.491 344.863 162.125 346.038C160.762 347.208 160.191 349.171 160.85 350.413C161.416 351.479 162.779 352.179 164.354 352.992C166.087 353.888 168.054 354.9 169.446 356.742C170.779 358.508 171.212 360.533 171.596 362.321C171.758 363.071 171.908 363.779 172.112 364.425C172.637 366.063 173.612 367.525 174.925 368.65C176.237 369.771 177.837 370.504 179.541 370.767C181.25 371.029 182.991 370.813 184.583 370.142C186.175 369.467 187.541 368.367 188.541 366.958C191.246 363.146 190.916 357.75 190.296 352.088L180.171 259.763C180.021 258.392 181.012 257.154 182.383 257.004C183.758 256.854 184.991 257.846 185.141 259.217L195.266 351.542C195.816 356.571 196.65 364.171 192.621 369.85C191.083 372.017 188.979 373.708 186.533 374.746C184.758 375.496 182.866 375.875 180.958 375.875Z" fill="black"/>
<path d="M61.4374 365.883C61.2915 365.883 61.1415 365.871 60.9915 365.842C57.2249 365.167 53.079 363.992 50.8709 360.388C48.9165 357.208 49.4124 353.663 49.8499 350.538C50.1709 348.258 50.4709 346.104 49.829 344.404C49.4834 343.475 48.8124 342.488 48.1084 341.438C46.5165 339.075 44.5374 336.138 45.8999 332.667C46.9665 329.975 49.4415 328.825 51.4249 327.9C52.4209 327.438 53.3584 327 53.9709 326.467C55.4915 325.142 55.8249 322.563 56.0584 319.808L62.2624 245.946C62.379 244.571 63.5959 243.55 64.9624 243.663C66.3374 243.779 67.3584 244.988 67.2459 246.363L61.0415 320.225C60.7334 323.892 60.1874 327.683 57.254 330.233C56.1084 331.229 54.7415 331.867 53.5334 332.429C52.1084 333.092 50.879 333.663 50.5499 334.5C50.1749 335.45 50.9459 336.7 52.254 338.642C53.0915 339.883 53.954 341.167 54.5084 342.642C55.5959 345.533 55.1709 348.558 54.7999 351.225C54.4334 353.85 54.1165 356.117 55.129 357.767C56.3084 359.688 59.1959 360.438 61.8709 360.917C63.229 361.158 64.1334 362.458 63.8915 363.817C63.679 365.033 62.6249 365.883 61.4374 365.883Z" fill="black"/>
<path d="M118.125 197.658C117.471 197.658 116.754 197.517 116.062 197.092C116 197.054 115.942 197.013 115.883 196.971C115.2 196.467 114.662 195.792 114.321 195.017C112.225 190.892 110.992 186.458 110.654 181.842C110.596 181.058 110.912 180.292 111.504 179.775C120.929 171.55 131.196 165.821 144.787 161.204C147.367 160.333 149.046 161.342 149.758 162.571C149.804 162.654 149.846 162.738 149.883 162.821C150.212 163.575 150.308 164.392 150.167 165.2L149.433 171.717C149.092 174.75 148.662 178.521 146.721 181.704C144.65 185.108 141.3 187.196 138.321 188.888C132.575 192.154 126.517 194.95 120.304 197.204C119.892 197.363 119.075 197.658 118.125 197.658ZM115.754 182.717C116.146 186.125 117.117 189.408 118.646 192.496C124.575 190.342 130.362 187.667 135.85 184.55C138.283 183.167 141 181.496 142.45 179.113C143.821 176.871 144.146 173.971 144.462 171.167L144.996 166.429C133.204 170.575 124.083 175.654 115.754 182.717Z" fill="black"/>
<path d="M102.475 194.371C101.471 194.371 99.9794 193.942 98.8419 191.792C96.5625 187.492 94.875 182.9 93.8209 178.146C93.5794 177.258 93.5209 176.35 93.6459 175.442C93.6625 175.325 93.6875 175.213 93.7169 175.1C94.0294 173.996 94.625 172.988 95.4334 172.179C98.225 169.125 101.312 166.317 104.617 163.829C105.475 163.163 107.05 161.942 109.104 162.217C110.721 162.433 113.033 164.058 112.967 166.121C112.942 166.871 112.625 167.533 112.112 168C111.992 168.208 111.871 168.417 111.75 168.629C110.85 170.188 109.917 171.8 110.025 173.104C110.075 173.708 110.512 174.392 113.317 175.267C114.321 175.579 115.021 176.488 115.071 177.538C115.262 181.717 112.279 185.088 110.496 187.1L105.392 192.867C104.933 193.45 104.325 193.904 103.633 194.175C103.554 194.204 103.475 194.233 103.396 194.254C103.208 194.3 102.883 194.371 102.475 194.371ZM98.5875 176.3C98.5794 176.488 98.6044 176.671 98.6544 176.854C98.6669 176.904 98.6794 176.954 98.6919 177.004C99.5584 180.942 100.904 184.754 102.7 188.358L106.758 183.775C108.042 182.325 109.3 180.813 109.829 179.317C107.779 178.438 105.329 176.8 105.054 173.517C104.925 171.971 105.267 170.554 105.808 169.25C103.417 171.196 101.167 173.321 99.0919 175.596C99.0584 175.633 99.025 175.667 98.9875 175.704C98.8125 175.875 98.675 176.079 98.5875 176.3Z" fill="black"/>
<path d="M109.375 201.875C110.641 201.875 111.667 200.849 111.667 199.583C111.667 198.318 110.641 197.292 109.375 197.292C108.109 197.292 107.083 198.318 107.083 199.583C107.083 200.849 108.109 201.875 109.375 201.875Z" fill="black"/>
<path d="M107.708 217.708C108.974 217.708 110 216.682 110 215.417C110 214.151 108.974 213.125 107.708 213.125C106.443 213.125 105.417 214.151 105.417 215.417C105.417 216.682 106.443 217.708 107.708 217.708Z" fill="black"/>
</g>
<path d="M69.9251 122.85C66.1166 121.133 63.7791 117.204 62.446 113.267C58.7626 102.362 61.0876 89.9959 66.9791 80.1084C72.871 70.2209 82.0166 62.6084 91.9791 56.8125C99.6916 52.325 108.229 48.7665 117.158 48.6334C126.088 48.5 135.434 52.3125 140.163 59.8834L146.075 65.0915C153.575 63.9459 160.879 68.1165 166.638 73.0584C173.721 79.125 179.625 86.7084 182.958 95.4165C186.292 104.125 186.921 113.987 183.888 122.804C181.129 130.808 174.034 138.329 165.592 137.679" fill="black"/>
<path d="M112.141 166.767C111.941 162.425 111.983 159.329 112.258 154.992C107.058 157.117 101.308 156.242 95.9499 155.308C90.8124 154.404 86.0084 152.629 82.129 149.021C74.8499 142.242 72.9165 131.667 73.9584 122.15C74.3749 118.371 75.9834 112.129 78.6709 105.217L81.8624 100.683C84.9874 95.5419 88.8999 90.7919 93.8415 87.35C98.7834 83.9085 104.829 81.8835 110.821 82.3875C112.487 82.5294 114.208 82.8835 115.608 83.821C117.008 84.7585 118.05 86.3669 117.929 88.046L124.229 91.6794C126.908 89.85 130.85 91.2625 132.708 93.9419C134.566 96.621 134.821 100.054 134.708 103.3C134.596 106.546 134.179 109.846 134.937 113C135.591 115.546 136.962 117.85 138.891 119.638C140.821 121.425 143.221 122.621 145.808 123.079L149.066 122.921C153.846 118.721 156.658 118.158 159.796 119.742C164.262 121.996 164.933 126.763 163.962 130.767C162.912 135.183 160.112 138.992 156.521 141.704C154.708 143.05 152.733 144.171 150.646 145.038C149.621 145.471 148.575 145.854 147.512 146.188C146.316 146.567 145.108 146.554 144.546 147.721C142.071 152.879 141.016 157.775 141.5 163.475" fill="white"/>
<path d="M145.812 125.6C145.666 125.6 145.521 125.588 145.371 125.563C142.304 125.017 139.475 123.609 137.191 121.492C134.908 119.375 133.291 116.658 132.516 113.642C131.821 110.742 131.971 107.921 132.116 105.188C132.15 104.534 132.187 103.883 132.208 103.233C132.296 100.75 132.196 97.6126 130.654 95.3876C129.579 93.8376 127.1 92.7666 125.637 93.7666C124.496 94.546 122.941 94.2501 122.162 93.1126C121.383 91.971 121.679 90.4166 122.816 89.6376C126.071 87.4166 131.646 88.0501 134.758 92.5416C137.141 95.9751 137.316 100.154 137.204 103.413C137.179 104.096 137.146 104.779 137.108 105.463C136.975 107.946 136.85 110.288 137.366 112.442C137.891 114.492 139.008 116.367 140.587 117.833C142.166 119.3 144.121 120.271 146.241 120.65C147.6 120.892 148.508 122.192 148.266 123.55C148.054 124.75 147 125.6 145.812 125.6Z" fill="black"/>
<path d="M81.8459 103.2C81.404 103.2 80.9584 103.083 80.554 102.837C79.3749 102.121 78.9959 100.583 79.7124 99.4041C83.379 93.3541 87.6459 88.6125 92.404 85.3125C98.179 81.3041 104.791 79.3875 111.016 79.9125C113.512 80.125 115.408 80.7084 116.979 81.7584C119.237 83.2625 120.583 85.8084 120.408 88.2459C120.308 89.625 119.116 90.6584 117.733 90.5584C116.358 90.4584 115.321 89.2625 115.421 87.8834C115.466 87.2459 114.958 86.4209 114.208 85.9209C113.379 85.3666 112.196 85.0334 110.596 84.9C105.521 84.4709 100.071 86.0791 95.2499 89.425C91.0749 92.325 87.2834 96.5541 83.9834 102C83.5165 102.771 82.6915 103.2 81.8459 103.2Z" fill="black"/>
<path d="M166.609 140.2C166.2 140.2 165.796 140.183 165.388 140.154C164.013 140.05 162.979 138.846 163.088 137.471C163.192 136.096 164.396 135.067 165.771 135.171C172.934 135.725 179.109 128.95 181.513 121.975C184.238 114.054 183.917 104.933 180.613 96.2959C177.638 88.5291 172.242 81.1416 165 74.9416C158.284 69.1791 152.042 66.6916 146.442 67.5459C145.075 67.7541 143.8 66.8166 143.592 65.4541C143.384 64.0916 144.321 62.8125 145.684 62.6041C152.792 61.5166 160.384 64.3916 168.25 71.1459C176.117 77.8834 182.009 85.9625 185.279 94.5084C189.004 104.242 189.346 114.571 186.238 123.604C184.663 128.171 181.921 132.342 178.513 135.35C174.892 138.533 170.8 140.196 166.609 140.2Z" fill="black"/>
<path d="M69.925 125.329C69.5835 125.329 69.2416 125.258 68.9085 125.112C64.9791 123.362 61.9291 119.537 60.0791 114.041C56.3835 103.141 58.1585 89.9665 64.821 78.804C70.35 69.5415 79.0625 61.4084 90.7085 54.629C100.346 49.0209 108.979 46.2374 117.108 46.1124C127.721 45.9499 137.383 50.7084 142.271 58.5374C143.004 59.7084 142.646 61.2499 141.475 61.9834C140.304 62.7165 138.763 62.3584 138.029 61.1874C134.121 54.9334 125.946 50.9834 117.183 51.1124C109.938 51.2249 102.1 53.7874 93.225 58.954C82.3166 65.304 74.2041 72.8459 69.1125 81.3709C63.1875 91.2915 61.5791 102.908 64.8125 112.446C65.7835 115.333 67.6335 119.075 70.9416 120.55C72.2041 121.112 72.771 122.587 72.2085 123.85C71.796 124.775 70.8791 125.329 69.925 125.329Z" fill="black"/>
<path d="M141.496 163.496C140.212 163.496 139.117 162.513 139.008 161.204C138.479 154.929 139.7 152.058 142.292 146.658C143.242 144.688 145.037 144.254 146.112 143.996C146.346 143.938 146.567 143.888 146.758 143.825C147.75 143.513 148.729 143.154 149.675 142.754C151.587 141.963 153.383 140.942 155.033 139.717C158.358 137.204 160.675 133.825 161.533 130.208C161.975 128.388 162.575 123.963 158.671 121.992C156.967 121.129 155.296 120.792 150.717 124.817C149.679 125.729 148.1 125.625 147.187 124.588C146.275 123.55 146.379 121.971 147.417 121.058C153.992 115.279 157.792 115.946 160.921 117.525C165.771 119.975 167.867 125.279 166.392 131.371C165.267 136.104 162.296 140.492 158.029 143.713C156.037 145.192 153.879 146.417 151.604 147.358C150.525 147.813 149.396 148.229 148.258 148.583C147.912 148.692 147.579 148.775 147.287 148.846C147.104 148.892 146.867 148.946 146.712 148.996C144.317 153.996 143.575 155.875 143.992 160.775C144.108 162.15 143.087 163.358 141.712 163.475C141.637 163.492 141.567 163.496 141.496 163.496Z" fill="black"/>
<path d="M112.142 167.183C110.813 167.183 109.709 166.137 109.646 164.796C109.513 161.862 109.484 160.387 109.567 158.375C104.559 159.342 99.4585 158.454 95.5251 157.767C89.171 156.646 84.2335 154.383 80.4292 150.846C73.4376 144.333 70.1751 133.775 71.4751 121.871C71.9626 117.458 73.7792 110.892 76.3417 104.304C76.8417 103.017 78.2917 102.379 79.5792 102.879C80.8667 103.379 81.5042 104.829 81.0042 106.117C78.1626 113.425 76.7876 119.329 76.446 122.417C75.3167 132.729 78.0085 141.758 83.8376 147.183C86.9542 150.083 90.9417 151.879 96.3876 152.837C101.954 153.808 106.925 154.462 111.317 152.667C112.113 152.342 113.021 152.45 113.721 152.95C114.421 153.454 114.813 154.279 114.759 155.137C114.492 159.329 114.446 160.254 114.646 164.554C114.709 165.933 113.642 167.104 112.263 167.167C112.217 167.183 112.179 167.183 112.142 167.183Z" fill="black"/>
<path d="M91.0125 116.708C92.6234 116.708 93.9291 115.123 93.9291 113.167C93.9291 111.211 92.6234 109.625 91.0125 109.625C89.4016 109.625 88.0959 111.211 88.0959 113.167C88.0959 115.123 89.4016 116.708 91.0125 116.708Z" fill="black"/>
<path d="M105.179 117.688C106.79 117.688 108.096 116.102 108.096 114.146C108.096 112.19 106.79 110.604 105.179 110.604C103.568 110.604 102.262 112.19 102.262 114.146C102.262 116.102 103.568 117.688 105.179 117.688Z" fill="black"/>
</g>
<defs>
<clipPath id="clip0_846_12882">
<rect width="250" height="600" fill="white"/>
</clipPath>
<clipPath id="clip1_846_12882">
<rect width="250" height="250" fill="white" transform="translate(0 159.375)"/>
</clipPath>
</defs>
</svg>
