<svg width="250" height="600" viewBox="0 0 250 600" fill="none" xmlns="http://www.w3.org/2000/svg">
<g clip-path="url(#clip0_846_12427)">
<path d="M159.963 548.282C157.434 554.031 152.754 558.553 146.925 560.881C141.1 563.209 134.596 563.159 128.809 560.735L128.463 560.593C125.996 567.685 122.321 574.381 120.767 581.725C120.525 582.847 120.35 584.078 120.888 585.094C121.659 586.55 123.517 586.959 125.146 587.181C130.792 588.016 136.654 588.703 142.121 587.069C151.25 584.356 157.5 575.487 159.884 566.246C161.629 559.504 161.709 552.508 161.417 545.516L159.963 548.282Z" fill="black"/>
<path d="M114.417 545.887C110.85 549.442 106.504 552.116 101.729 553.701C96.9542 555.287 91.8749 555.741 86.8918 555.024C85.3333 554.853 83.8249 554.373 82.4583 553.605C81.1293 552.771 80.0543 551.432 79.8958 549.876V548.357C74.2793 553.113 68.6208 557.777 66.7124 564.669C66.3333 566.046 66.1374 567.564 66.7374 568.841C67.8749 571.282 71.0999 571.699 73.7874 571.761C80.8458 571.983 88.0043 572.178 94.8668 570.535C101.729 568.891 108.387 565.086 111.95 558.983C114.783 554.139 115.425 548.357 115.958 542.771L114.417 545.887Z" fill="black"/>
<path d="M89.1665 390.919C89.9999 412.237 92.1959 474.544 93.3624 505.783L95.0584 506.359C98.8084 507.11 102.779 507.973 107.142 507.902C111.208 507.836 115.379 506.822 118.587 504.319L118.8 503.768C120.412 475.016 121.941 441.006 123.608 418.349C123.954 413.643 124.025 395.917 124.4 392.337" fill="white"/>
<path d="M123.967 391.87C125.271 414.782 127.917 471.34 129.167 508.724L132.196 511.707C134.179 513.309 136.471 514.482 138.929 515.145C141.388 515.808 143.958 515.954 146.475 515.57C148.992 515.187 151.404 514.277 153.554 512.909C155.704 511.54 157.542 509.738 158.958 507.615L160.188 505.416C159.583 467.127 159.871 412.141 160.417 389.309" fill="white"/>
<path d="M128.962 560.71C134.75 563.13 141.254 563.184 147.079 560.856C152.904 558.528 157.583 554.006 160.117 548.257L161.575 545.717C161.466 543.047 161.304 540.376 161.158 537.723C160.742 529.909 160.412 518.533 160.208 505.416L158.979 507.615C157.566 509.738 155.725 511.54 153.575 512.909C151.425 514.277 149.017 515.183 146.5 515.57C143.983 515.954 141.412 515.813 138.954 515.145C136.496 514.482 134.2 513.309 132.221 511.707L129.171 508.724C129.537 519.571 129.791 528.975 129.862 535.646C129.933 542.4 131.625 549.233 130.029 555.796C129.637 557.41 129.15 558.996 128.604 560.564L128.962 560.71Z" fill="black"/>
<path d="M80.046 549.851C80.2044 551.407 81.296 552.771 82.6126 553.58C83.9794 554.348 85.4835 554.828 87.0419 554.999C92.0251 555.716 97.1085 555.266 101.888 553.68C106.667 552.095 111.013 549.417 114.583 545.862L116.125 542.775C117.063 532.955 117.946 519.108 118.804 503.768L118.592 504.319C115.384 506.822 111.213 507.836 107.146 507.902C103.079 507.969 99.0544 507.16 95.0626 506.359L93.3669 505.783C93.5335 510.318 93.6835 514.24 93.8085 517.335C94.0376 523.176 94.2251 529.275 91.9169 534.657C89.4919 540.301 84.6669 544.427 79.8335 548.511L80.046 549.851Z" fill="black"/>
<path d="M83.7124 288.946C75.3293 321.445 68.1874 354.232 62.2915 387.31C103.683 395.475 146.333 394.732 187.412 385.133C181.358 353.155 175.317 321.178 169.283 289.2" fill="black"/>
<path d="M134.8 590.531C131.479 590.531 128.154 590.106 124.937 589.628C123.567 589.441 120.292 589 118.833 586.238C117.808 584.319 118.258 582.2 118.475 581.178C119.517 576.275 121.442 571.678 123.3 567.231C125.008 563.142 126.625 559.284 127.617 555.208C128.587 551.219 128.212 547.026 127.812 542.592C127.612 540.339 127.4 538.011 127.379 535.675C127.067 505.85 123.046 421.499 121.475 393.593C121.396 392.212 122.45 391.032 123.829 390.953C125.208 390.873 126.387 391.929 126.467 393.309C128.042 421.253 132.062 505.721 132.379 535.621C132.4 537.757 132.592 539.889 132.796 542.141C133.212 546.789 133.642 551.595 132.475 556.388C131.392 560.848 129.625 565.074 127.912 569.163C126.058 573.593 124.308 577.777 123.367 582.216C123.129 583.334 123.175 583.738 123.25 583.884C123.333 584.044 123.721 584.409 125.642 584.669C131.233 585.494 136.633 586.109 141.567 584.634C150.45 581.978 155.683 573.046 157.621 565.57C159.792 557.198 159.262 548.124 158.754 539.354L158.667 537.844C156.992 507.823 157.179 422.354 157.912 391.024C157.946 389.643 159.1 388.537 160.471 388.579C161.85 388.612 162.946 389.759 162.912 391.14C162.183 422.409 161.992 507.661 163.658 537.56L163.746 539.062C164.279 548.224 164.829 557.694 162.462 566.83C160.183 575.625 153.871 586.178 143 589.434C140.308 590.234 137.554 590.531 134.8 590.531Z" fill="black"/>
<path d="M119.825 395.429C100.375 395.429 80.8836 393.527 61.8086 389.767C60.4711 389.505 59.5917 388.216 59.8292 386.872C65.7086 353.885 72.9292 320.731 81.2917 288.32C81.6377 286.981 83.0002 286.176 84.3377 286.522C85.6752 286.868 86.4792 288.232 86.1336 289.572C78.0086 321.061 70.9667 353.264 65.1877 385.32C84.8461 389.025 104.934 390.727 124.925 390.381C144.942 390.035 164.975 387.627 184.509 383.234C178.684 352.45 172.734 320.986 166.829 289.668C166.571 288.308 167.467 287.002 168.821 286.743C170.179 286.484 171.484 287.381 171.742 288.737C177.8 320.857 183.9 353.13 189.871 384.669C190.121 385.988 189.288 387.269 187.984 387.573C167.367 392.392 146.184 395.02 125.013 395.387C123.284 395.416 121.554 395.429 119.825 395.429Z" fill="black"/>
<path d="M143.713 518.286C141.892 518.286 140.079 518.044 138.296 517.565C135.483 516.805 132.913 515.491 130.642 513.66C129.567 512.792 129.4 511.215 130.267 510.139C131.133 509.062 132.708 508.895 133.783 509.763C135.508 511.157 137.463 512.154 139.6 512.733C141.738 513.309 143.929 513.434 146.117 513.101C148.304 512.767 150.363 511.995 152.229 510.802C154.096 509.613 155.667 508.073 156.896 506.23C157.663 505.078 159.217 504.769 160.363 505.537C161.513 506.305 161.821 507.861 161.054 509.008C159.438 511.432 157.371 513.459 154.913 515.024C152.454 516.588 149.75 517.606 146.871 518.048C145.817 518.203 144.763 518.286 143.713 518.286Z" fill="black"/>
<path d="M106.659 510.393C102.513 510.393 98.4836 509.584 94.5836 508.803C93.2292 508.532 92.3417 507.21 92.6127 505.854C92.8836 504.498 94.1917 503.614 95.5417 503.889L95.5667 503.893C99.5461 504.69 103.309 505.445 107.092 505.382C109.904 505.337 113.913 504.769 117.042 502.329C118.129 501.478 119.7 501.674 120.55 502.763C121.4 503.851 121.204 505.424 120.117 506.275C115.896 509.567 110.75 510.33 107.175 510.389C107.004 510.393 106.829 510.393 106.659 510.393Z" fill="black"/>
<path d="M138.196 565.078C134.738 565.078 131.279 564.39 128 563.017C126.725 562.483 126.125 561.019 126.659 559.742C127.192 558.466 128.654 557.865 129.929 558.399C135.142 560.581 140.904 560.627 146.154 558.528C151.404 556.43 155.55 552.425 157.829 547.248C158.388 545.984 159.863 545.412 161.125 545.967C162.388 546.526 162.963 548.003 162.404 549.267C159.592 555.65 154.479 560.594 148.009 563.18C144.838 564.448 141.517 565.078 138.196 565.078Z" fill="black"/>
<path d="M81.0874 574.406C78.6624 574.406 76.254 574.331 73.8708 574.26C71.8708 574.194 66.5708 574.023 64.6374 569.876C63.8749 568.253 63.8208 566.321 64.4665 563.977C66.5374 556.497 72.3915 551.54 78.0499 546.747C82.854 542.679 87.3958 538.837 89.6165 533.664C91.7499 528.691 91.5124 522.709 91.3083 517.431C90.7958 504.707 89.829 477.919 88.8958 452.012C88.0165 427.615 87.1874 404.574 86.7249 392.88C86.6708 391.499 87.7458 390.335 89.1249 390.281C90.4915 390.239 91.6665 391.303 91.7208 392.684C92.1833 404.386 93.0165 427.431 93.8958 451.833C94.829 477.732 95.7958 504.515 96.304 517.235C96.5333 523.046 96.7915 529.63 94.2124 535.645C91.5249 541.899 86.3165 546.309 81.279 550.573C75.9624 555.074 70.9415 559.321 69.2833 565.312C68.8958 566.714 69.004 567.414 69.1624 567.752C69.5915 568.674 71.1833 569.162 74.0249 569.254C80.8124 569.463 87.8333 569.68 94.4374 568.074C101.437 566.371 107.091 562.588 109.954 557.69C112.421 553.468 113.079 548.315 113.629 542.504C115.133 526.693 116.525 499.972 117.871 474.131C119.237 447.907 120.65 420.789 122.166 405.596C122.304 404.219 123.525 403.222 124.904 403.355C126.279 403.493 127.279 404.719 127.141 406.096C125.637 421.169 124.229 448.228 122.862 474.394C121.512 500.289 120.116 527.064 118.604 542.98C117.996 549.388 117.25 555.111 114.271 560.218C110.675 566.371 104.05 570.889 95.6208 572.938C90.7915 574.114 85.9124 574.406 81.0874 574.406Z" fill="black"/>
<path d="M91.6373 557.832C89.9958 557.832 88.3498 557.715 86.7248 557.485C84.8414 557.273 83.0458 556.697 81.3873 555.767C81.3583 555.75 81.3289 555.733 81.2998 555.716C79.1789 554.415 77.7789 552.316 77.5539 550.105C77.4123 548.729 78.4123 547.502 79.7873 547.36C81.1583 547.218 82.3873 548.219 82.5289 549.596C82.5958 550.23 83.1208 550.944 83.8748 551.424C84.9414 552.012 86.0958 552.379 87.3083 552.513C87.3373 552.517 87.3664 552.521 87.3914 552.525C91.9708 553.184 96.7083 552.763 101.096 551.307C105.483 549.851 109.537 547.356 112.812 544.094C113.791 543.117 115.375 543.122 116.35 544.102C117.325 545.082 117.321 546.668 116.341 547.644C112.516 551.453 107.787 554.365 102.671 556.063C99.1248 557.231 95.3789 557.832 91.6373 557.832Z" fill="black"/>
<g clip-path="url(#clip1_846_12427)">
<path d="M141.404 159.375C141.779 163.583 143.5 173.092 149.904 171.667L150.592 172.708C150.279 179.238 146.971 183.842 141.788 188.612C136.521 193.383 129.804 196.25 122.717 196.754C116.467 197.213 109.821 195.717 105.146 191.525C100.471 187.333 98.0126 181.525 101.108 176.546H101.558C102.967 176.587 104.263 175.85 105.454 175.1C106.971 174.142 108.263 169.837 109.2 168.708C110.45 167.088 112.792 161.317 113.433 159.375H141.404Z" fill="white"/>
<path d="M184.304 275.567C193.533 304.142 199.954 326.058 208.387 353.637C208.804 355.046 210.471 360.025 209.7 361.271C209.183 362.104 208.316 362.638 207.471 363.117C202.846 365.746 197.796 365.967 192.579 367.017L173.216 370.871C145.504 375.842 117.691 377.058 89.9289 372.375L84.6914 371.762L66.7749 368.333C65.1583 368.025 63.3833 367.612 62.4374 366.25C61.6542 365.133 61.6583 363.662 61.7164 362.3C61.9539 356.883 62.5789 351.508 63.2039 346.129L68.1333 303.629C70.2458 285.421 72.3624 267.183 75.2414 249.088L75.0414 249.025C70.1958 247.358 65.4249 245.508 60.6499 243.654C59.9914 243.467 59.3999 243.1 58.9333 242.6C57.9958 241.392 58.7999 239.658 59.6039 238.354C66.7039 226.812 72.7749 214.671 77.7539 202.067C81.5539 192.442 85.5208 181.612 94.7958 177.025L114.179 179.237L150.65 169.375C157.029 171.083 162.262 175.658 166.558 180.679C171.987 187.025 176.291 194.254 179.291 202.05C185.929 219.312 185.933 238.771 193.937 255.446C190.141 256.571 186.287 257.475 182.391 258.162L184.304 275.567Z" fill="white"/>
<path d="M113.146 181.663C113.458 185.95 114.629 190.129 116.584 193.959C116.75 194.359 117.021 194.704 117.367 194.963C117.979 195.338 118.775 195.109 119.45 194.863C125.546 192.65 131.446 189.925 137.083 186.721C139.958 185.088 142.867 183.229 144.583 180.409C146.208 177.746 146.596 174.538 146.946 171.442L147.692 164.829C147.763 164.492 147.729 164.142 147.592 163.829C147.225 163.196 146.279 163.342 145.588 163.575C134.417 167.371 123.679 172.471 113.146 181.663Z" fill="white"/>
<path d="M109.584 166C108.371 168.217 107.121 170.608 107.338 173.125C107.554 175.642 109.934 178.125 112.371 177.467C112.513 180.454 110.404 183.017 108.421 185.254L103.263 191.087C103.071 191.346 102.813 191.546 102.513 191.662C101.796 191.867 101.196 191.108 100.846 190.446C98.6626 186.325 97.0461 181.929 96.042 177.375C95.8126 176.742 95.7876 176.054 95.9626 175.404C96.142 174.754 96.5126 174.175 97.0336 173.746C99.6836 170.729 102.767 168.117 105.934 165.646C106.705 165.042 107.6 164.396 108.567 164.521C109.534 164.646 110.313 165.95 109.584 166Z" fill="white"/>
<path d="M162.004 260.129C162.779 287.338 164.842 314.467 168.196 341.521C165.442 341.692 162.587 342.354 160.5 344.154C158.412 345.954 157.354 349.154 158.65 351.6C160.404 354.896 165.216 355.279 167.466 358.267C168.941 360.221 169.004 362.85 169.754 365.196C170.425 367.283 171.662 369.138 173.329 370.558C174.996 371.979 177.025 372.908 179.192 373.242C181.358 373.575 183.571 373.296 185.587 372.442C187.604 371.588 189.341 370.184 190.608 368.396C193.908 363.733 193.417 357.483 192.787 351.808C189.383 321.021 185.975 290.246 182.571 259.488L162.004 260.129Z" fill="white"/>
<path d="M63.2208 346.146C62.5958 351.525 61.9708 356.908 61.7333 362.316L61.4208 363.396C58.2168 362.821 54.6918 361.871 52.9918 359.096C50.2293 354.587 54.0333 348.483 52.1583 343.537C50.8583 340.075 46.8624 337.037 48.2168 333.596C49.3458 330.729 53.2874 330.396 55.6043 328.366C57.9208 326.337 58.2874 323.037 58.5418 320.033L64.7458 246.171L64.9168 245.337C68.2749 246.629 71.6418 247.891 75.0458 249.058L75.2374 249.171C72.3624 267.254 70.2374 285.475 68.1543 303.662" fill="white"/>
<path d="M164.116 262.287C159.075 262.287 154.016 261.933 148.954 261.221C147.691 261.041 146.766 259.946 146.804 258.675L147.941 218.75C147.979 217.371 149.129 216.271 150.512 216.321C151.891 216.358 152.979 217.512 152.941 218.891L151.866 256.558C164.862 258.108 177.825 257.191 190.466 253.829C186.783 245.166 184.933 235.879 183.137 226.866C181.541 218.85 179.891 210.566 176.962 202.954C174.058 195.404 169.921 188.458 164.662 182.312C159.741 176.562 154.946 173.121 150.008 171.8C148.675 171.442 147.883 170.071 148.241 168.737C148.6 167.404 149.971 166.612 151.304 166.971C157.25 168.562 162.866 172.521 168.466 179.067C174.096 185.646 178.525 193.083 181.633 201.166C184.712 209.179 186.408 217.679 188.046 225.9C190.058 235.996 191.954 245.533 196.2 254.379C196.516 255.041 196.529 255.804 196.229 256.475C195.929 257.146 195.354 257.65 194.654 257.858C184.633 260.8 174.412 262.287 164.116 262.287Z" fill="black"/>
<path d="M75.0585 251.554C74.7876 251.554 74.5166 251.508 74.246 251.416C69.3876 249.75 64.546 247.871 59.8626 246.05L59.8541 246.046C58.8085 245.721 57.8626 245.129 57.1166 244.325C57.0666 244.271 57.021 244.216 56.9751 244.158C55.5501 242.321 55.7251 239.937 57.4916 237.066C64.4916 225.683 70.5335 213.604 75.446 201.171L75.8791 200.066C79.646 190.492 83.9166 179.642 93.7041 174.804C94.9416 174.192 96.4416 174.7 97.0541 175.937C97.6666 177.175 97.1585 178.675 95.921 179.287C87.8666 183.267 84.1376 192.737 80.5335 201.896L80.096 203.004C75.0791 215.708 68.9041 228.05 61.7501 239.683C61.2751 240.454 61.1126 240.908 61.0585 241.141C61.1501 241.196 61.2501 241.241 61.3585 241.271C61.4335 241.291 61.5041 241.316 61.5751 241.341L61.6751 241.379C66.3126 243.179 71.1085 245.041 75.871 246.675C77.1751 247.125 77.871 248.546 77.4251 249.85C77.0666 250.904 76.096 251.554 75.0585 251.554Z" fill="black"/>
<path d="M81.3209 373.642C81.1665 373.642 81.0084 373.625 80.8499 373.596L66.3209 370.817C64.679 370.488 61.9749 369.942 60.4084 367.717C59.1834 365.971 59.1584 363.962 59.2334 362.221C59.4749 356.712 60.1165 351.2 60.7334 345.871L65.7834 302.325C69.2165 272.937 72.7624 242.546 79.6709 213.225C79.9874 211.883 81.329 211.046 82.679 211.367C84.0209 211.683 84.854 213.029 84.5374 214.375C77.6959 243.417 74.1665 273.662 70.7499 302.912L65.6999 346.454C65.0915 351.7 64.4624 357.121 64.2249 362.446C64.1959 363.108 64.1415 364.35 64.4959 364.85C64.9124 365.442 66.3959 365.742 67.279 365.917L81.7834 368.692C83.1374 368.95 84.029 370.262 83.7665 371.617C83.5459 372.808 82.4999 373.642 81.3209 373.642Z" fill="black"/>
<path d="M125.821 377.829C113.367 377.829 101.317 376.833 89.5167 374.841C88.1542 374.612 87.2377 373.321 87.4667 371.962C87.6961 370.6 88.9836 369.679 90.3461 369.912C116.034 374.246 142.996 373.754 172.775 368.412C174.134 368.166 175.434 369.071 175.675 370.433C175.921 371.791 175.017 373.091 173.654 373.333C156.942 376.329 141.079 377.829 125.821 377.829Z" fill="black"/>
<path d="M192.575 369.517C191.408 369.517 190.367 368.696 190.125 367.508C189.854 366.154 190.729 364.838 192.083 364.563C193.404 364.296 194.704 364.083 195.962 363.879C199.646 363.275 203.125 362.708 206.229 360.942C206.571 360.746 207.1 360.45 207.4 360.154C207.392 359.538 207.142 358.121 206.162 354.929C206.092 354.7 206.029 354.5 205.983 354.346C203.683 346.825 201.517 339.675 199.425 332.758C193.867 314.408 188.621 297.075 181.921 276.333C181.496 275.021 182.217 273.608 183.533 273.188C184.846 272.767 186.254 273.483 186.679 274.8C193.392 295.583 198.646 312.938 204.212 331.308C206.304 338.221 208.471 345.367 210.775 352.904C210.825 353.071 210.879 353.25 210.946 353.458C212.35 358.025 212.904 360.834 211.825 362.584C211 363.917 209.779 364.679 208.7 365.292C204.821 367.496 200.729 368.167 196.771 368.817C195.554 369.017 194.3 369.221 193.071 369.471C192.904 369.5 192.742 369.517 192.575 369.517Z" fill="black"/>
<path d="M180.959 375.875C180.229 375.875 179.5 375.821 178.771 375.708C176.146 375.304 173.692 374.179 171.671 372.45C169.65 370.725 168.154 368.475 167.342 365.946C167.063 365.062 166.875 364.204 166.7 363.371C166.388 361.904 166.113 360.637 165.45 359.754C164.746 358.825 163.442 358.15 162.059 357.437C160.029 356.392 157.729 355.208 156.425 352.758C154.679 349.454 155.725 344.937 158.863 342.246C160.55 340.796 162.746 339.821 165.409 339.333C162.267 313.146 160.309 286.529 159.584 260.187C159.546 258.808 160.634 257.658 162.013 257.621C162.038 257.621 162.059 257.621 162.084 257.621C163.434 257.621 164.546 258.696 164.584 260.05C165.325 287.071 167.375 314.375 170.675 341.208C170.759 341.892 170.559 342.579 170.117 343.112C169.675 343.642 169.038 343.967 168.35 344.008C165.588 344.179 163.492 344.862 162.125 346.037C160.763 347.208 160.192 349.171 160.85 350.412C161.417 351.479 162.779 352.179 164.354 352.992C166.088 353.887 168.054 354.9 169.446 356.742C170.779 358.508 171.213 360.533 171.596 362.321C171.759 363.071 171.909 363.779 172.113 364.425C172.638 366.062 173.613 367.525 174.925 368.65C176.238 369.771 177.838 370.504 179.542 370.767C181.25 371.029 182.992 370.812 184.584 370.142C186.175 369.467 187.542 368.367 188.542 366.958C191.246 363.146 190.917 357.75 190.296 352.087L180.171 259.762C180.021 258.392 181.013 257.154 182.384 257.004C183.759 256.854 184.992 257.846 185.142 259.217L195.267 351.542C195.817 356.571 196.65 364.171 192.621 369.85C191.084 372.017 188.979 373.708 186.534 374.746C184.759 375.496 182.867 375.875 180.959 375.875Z" fill="black"/>
<path d="M61.4377 365.883C61.2917 365.883 61.1417 365.871 60.9917 365.842C57.2252 365.167 53.0792 363.992 50.8711 360.388C48.9167 357.208 49.4127 353.663 49.8502 350.538C50.1711 348.258 50.4711 346.104 49.8292 344.404C49.4836 343.475 48.8127 342.488 48.1086 341.438C46.5167 339.075 44.5377 336.138 45.9002 332.667C46.9667 329.975 49.4417 328.825 51.4252 327.9C52.4211 327.438 53.3586 327 53.9711 326.467C55.4917 325.142 55.8252 322.563 56.0586 319.808L62.2627 245.946C62.3792 244.571 63.5961 243.55 64.9627 243.663C66.3377 243.779 67.3586 244.988 67.2461 246.363L61.0417 320.225C60.7336 323.892 60.1877 327.683 57.2542 330.233C56.1086 331.229 54.7417 331.867 53.5336 332.429C52.1086 333.092 50.8792 333.663 50.5502 334.5C50.1752 335.45 50.9461 336.7 52.2542 338.642C53.0917 339.883 53.9542 341.167 54.5086 342.642C55.5961 345.533 55.1711 348.558 54.8002 351.225C54.4336 353.85 54.1167 356.117 55.1292 357.767C56.3086 359.688 59.1961 360.438 61.8711 360.917C63.2292 361.158 64.1336 362.458 63.8917 363.817C63.6792 365.033 62.6252 365.883 61.4377 365.883Z" fill="black"/>
<path d="M118.125 197.658C117.471 197.658 116.754 197.517 116.063 197.092C116 197.054 115.942 197.013 115.884 196.971C115.2 196.467 114.663 195.792 114.321 195.017C112.225 190.892 110.992 186.458 110.654 181.842C110.596 181.058 110.913 180.292 111.504 179.775C120.929 171.55 131.196 165.821 144.788 161.204C147.367 160.333 149.046 161.342 149.759 162.571C149.804 162.654 149.846 162.738 149.884 162.821C150.213 163.575 150.309 164.392 150.167 165.2L149.434 171.717C149.092 174.75 148.663 178.521 146.721 181.704C144.65 185.108 141.3 187.196 138.321 188.888C132.575 192.154 126.517 194.95 120.304 197.204C119.892 197.363 119.075 197.658 118.125 197.658ZM115.754 182.717C116.146 186.125 117.117 189.408 118.646 192.496C124.575 190.342 130.363 187.667 135.85 184.55C138.284 183.167 141 181.496 142.45 179.113C143.821 176.871 144.146 173.971 144.463 171.167L144.996 166.429C133.204 170.575 124.084 175.654 115.754 182.717Z" fill="black"/>
<path d="M102.475 194.371C101.471 194.371 99.9794 193.942 98.8419 191.792C96.5625 187.492 94.875 182.9 93.8209 178.146C93.5794 177.258 93.5209 176.35 93.6459 175.442C93.6625 175.325 93.6875 175.213 93.7169 175.1C94.0294 173.996 94.625 172.988 95.4334 172.179C98.225 169.125 101.312 166.317 104.617 163.829C105.475 163.163 107.05 161.942 109.104 162.217C110.721 162.433 113.033 164.058 112.967 166.121C112.942 166.871 112.625 167.533 112.112 168C111.992 168.208 111.871 168.417 111.75 168.629C110.85 170.188 109.917 171.8 110.025 173.104C110.075 173.708 110.512 174.392 113.317 175.267C114.321 175.579 115.021 176.488 115.071 177.538C115.262 181.717 112.279 185.088 110.496 187.1L105.392 192.867C104.933 193.45 104.325 193.904 103.633 194.175C103.554 194.204 103.475 194.233 103.396 194.254C103.208 194.3 102.883 194.371 102.475 194.371ZM98.5875 176.3C98.5794 176.488 98.6044 176.671 98.6544 176.854C98.6669 176.904 98.6794 176.954 98.6919 177.004C99.5584 180.942 100.904 184.754 102.7 188.358L106.758 183.775C108.042 182.325 109.3 180.813 109.829 179.317C107.779 178.438 105.329 176.8 105.054 173.517C104.925 171.971 105.267 170.554 105.808 169.25C103.417 171.196 101.167 173.321 99.0919 175.596C99.0584 175.633 99.025 175.667 98.9875 175.704C98.8125 175.875 98.675 176.079 98.5875 176.3Z" fill="black"/>
<path d="M109.375 201.875C110.641 201.875 111.667 200.849 111.667 199.583C111.667 198.318 110.641 197.292 109.375 197.292C108.109 197.292 107.083 198.318 107.083 199.583C107.083 200.849 108.109 201.875 109.375 201.875Z" fill="black"/>
<path d="M107.708 217.708C108.974 217.708 110 216.682 110 215.417C110 214.151 108.974 213.125 107.708 213.125C106.443 213.125 105.417 214.151 105.417 215.417C105.417 216.682 106.443 217.708 107.708 217.708Z" fill="black"/>
</g>
<path d="M81.4333 98.9415C83.8208 91.6959 89.6708 86.025 96.2458 82.1459C103.108 78.1 111.766 75.7625 119.021 79.054C117.979 81.2415 119.221 85.0084 121.708 85.8459L125.329 88.6834C127.579 87.5959 130.396 88.2665 132.329 89.854C134.262 91.4415 135.429 93.7709 136.191 96.15C137.75 101.004 137.821 106.204 137.558 111.296C137.408 114.096 137.183 117.008 138.216 119.629C139.25 122.25 139.996 122.775 138.908 124.467L141.512 154.079C146.954 157.312 149.808 162.371 152.8 163.021C158.054 164.167 162.925 157.362 164.6 156.354C168.604 153.958 174.512 157.825 178.162 154.921C181.446 152.304 179.675 147.15 178.246 143.2C171.212 123.737 179.954 99.975 168.808 82.5375C166.166 78.4834 162.608 75.1 158.425 72.6709C154.241 70.2375 149.541 68.8209 144.712 68.529L132.916 63.275C130.158 58.8584 124.133 57.6459 118.991 58.475C113.85 59.304 109.087 61.6959 104.012 62.8625C101.033 63.5459 97.9583 63.8 95.0208 64.654C89.5833 66.25 84.8873 69.7709 80.8664 73.75C70.4164 84.1665 63.6123 98.0834 61.4998 112.671C59.3873 127.258 61.9164 142.437 68.2873 155.729C70.0914 159.479 72.2873 163.204 75.6458 165.667C79.0039 168.129 83.7623 169.071 87.3789 167.004C89.7873 165.625 91.9083 162.962 94.6458 163.425C96.0123 163.658 97.1083 164.654 98.3958 165.196C101.012 166.304 104.133 165.337 106.312 163.529L112.083 162.033L112.325 155.008" fill="black"/>
<path d="M141.559 163.109C141.079 157.409 142.129 152.929 144.609 147.771C145.167 146.604 146.379 146.617 147.575 146.238C148.634 145.904 149.684 145.521 150.709 145.088C152.796 144.221 154.767 143.1 156.584 141.754C160.175 139.042 162.971 135.234 164.025 130.817C164.979 126.813 164.309 122.046 159.838 119.792C156.704 118.209 153.892 118.771 149.113 122.971L144.738 123.75C142.013 124.413 139.254 122.238 138.217 119.634C137.179 117.029 137.409 114.113 137.559 111.3C137.821 106.209 137.75 101.009 136.192 96.1542C135.429 93.7751 134.263 91.4417 132.329 89.8585C130.396 88.2751 127.579 87.6001 125.329 88.6876L121.709 85.846C119.209 85.0126 117.979 81.2461 119.021 79.0586C111.767 75.7667 103.109 78.1042 96.2461 82.1501C89.6711 86.0251 83.8211 91.7001 81.4336 98.9461L79.1667 104.584C76.6667 108.334 76.2502 112.917 75.0002 117.5C75.0002 118.817 69.9336 136.6 81.6667 148.334C85.8336 152.5 91.2502 154.167 96.8752 155.417C101.921 156.196 107.434 156.979 112.292 155C112.013 159.338 111.971 162.434 112.171 166.775" fill="white"/>
<path d="M82.8959 170.625C79.9291 170.625 76.8166 169.625 74.1709 167.683C70.1959 164.767 67.7375 160.342 66.0375 156.812C59.375 142.912 56.8875 127.108 59.0291 112.312C61.2459 96.9959 68.3794 82.675 79.1044 71.9791C84.1919 66.9459 89.1625 63.7666 94.3209 62.2541C96.1791 61.7125 98.0459 61.4 99.8459 61.1C101.1 60.8916 102.288 60.6916 103.458 60.425C105.563 59.9416 107.612 59.2334 109.783 58.4834C112.596 57.5125 115.508 56.5041 118.6 56.0084C123.933 55.1459 131.446 56.1875 135.042 61.9541C135.775 63.125 135.417 64.6666 134.246 65.4C133.075 66.1334 131.533 65.775 130.8 64.6041C129.25 62.1209 125.121 60.025 119.392 60.95C116.729 61.3791 114.146 62.2709 111.413 63.2166C109.213 63.975 106.938 64.7625 104.575 65.3084C103.258 65.6084 101.942 65.8291 100.671 66.0416C98.9334 66.3334 97.2959 66.6041 95.7209 67.0625C91.3875 68.3334 87.1041 71.1084 82.6291 75.5334C72.6666 85.4625 66.0419 98.7834 63.9794 113.037C61.9794 126.862 64.3084 141.646 70.5459 154.658C72.0791 157.846 74.0625 161.412 77.1294 163.658C79.9875 165.754 83.6959 166.242 86.1459 164.842C86.7169 164.517 87.3166 164.058 87.9541 163.579C89.7875 162.192 92.0709 160.462 95.0669 160.971C96.3669 161.192 97.4125 161.808 98.2541 162.304C98.6541 162.542 99.0334 162.762 99.3709 162.904C101.112 163.642 103.312 162.787 104.721 161.617C105.783 160.737 107.358 160.883 108.242 161.946C109.125 163.008 108.975 164.583 107.913 165.467C104.771 168.075 100.65 168.879 97.425 167.512C96.7875 167.242 96.2209 166.908 95.7209 166.617C95.1584 166.283 94.625 165.971 94.2334 165.904C93.3669 165.758 92.2044 166.637 90.9709 167.571C90.2375 168.125 89.475 168.7 88.6294 169.187C86.9169 170.146 84.9416 170.625 82.8959 170.625Z" fill="black"/>
<path d="M154.042 165.646C153.463 165.646 152.875 165.588 152.271 165.454C148.458 164.625 144.304 158.934 144.854 153.109C144.983 151.734 146.208 150.725 147.579 150.854C148.954 150.984 149.963 152.204 149.833 153.579C149.546 156.604 151.871 160.25 153.333 160.567C156 161.146 159.208 157.992 161.125 156.104C162.017 155.229 162.658 154.596 163.313 154.2C165.988 152.6 168.942 152.975 171.554 153.304C174.033 153.617 175.608 153.75 176.604 152.954C178.408 151.517 177.246 147.763 175.896 144.038C172.638 135.021 172.613 125.229 172.588 115.763C172.558 104.046 172.529 92.9835 166.704 83.871C164.3 80.1791 161 77.0416 157.171 74.8166C153.342 72.5916 148.983 71.2751 144.567 71.0126C143.188 70.9291 142.138 69.746 142.221 68.3666C142.304 66.9876 143.488 65.9376 144.867 66.021C150.063 66.3335 155.188 67.8791 159.688 70.496C164.188 73.1126 168.067 76.8001 170.908 81.1626C177.529 91.5166 177.558 103.838 177.592 115.754C177.617 124.792 177.642 134.142 180.604 142.342C182.058 146.354 184.488 153.075 179.729 156.867C177.013 159.038 173.642 158.613 170.933 158.271C168.95 158.021 167.079 157.784 165.896 158.492C165.713 158.617 165.117 159.204 164.642 159.671C162.292 161.971 158.558 165.646 154.042 165.646Z" fill="black"/>
<path d="M143.733 126.367C140.229 126.367 137.113 123.637 135.892 120.546C134.713 117.554 134.888 114.392 135.038 111.604L135.063 111.162C135.288 106.754 135.321 101.608 133.813 96.9125C133.05 94.5291 132.046 92.8541 130.742 91.7834C129.688 90.9166 128.379 90.85 126.863 91.5834C125.621 92.1834 124.125 91.6625 123.525 90.4209C122.925 89.1791 123.446 87.6834 124.688 87.0834C127.971 85.4959 131.333 85.8 133.917 87.9209C135.983 89.6166 137.508 92.0584 138.575 95.3875C140.329 100.85 140.308 106.558 140.058 111.425L140.033 111.875C139.896 114.375 139.767 116.737 140.546 118.712C141.138 120.212 142.763 121.654 144.15 121.317C145.492 120.992 146.842 121.813 147.171 123.154C147.496 124.496 146.675 125.846 145.333 126.175C144.792 126.304 144.258 126.367 143.733 126.367Z" fill="black"/>
<path d="M81.4336 101.442C81.1751 101.442 80.9126 101.4 80.6501 101.317C79.3376 100.884 78.6251 99.471 79.0586 98.1585C82.0251 89.146 89.3542 83.3042 94.9751 79.9917C103.863 74.7501 113.004 73.5792 120.054 76.7792C120.667 77.0585 121.138 77.5667 121.371 78.2001C121.604 78.8335 121.567 79.5251 121.279 80.1335C120.988 80.7501 120.942 81.4876 121.163 82.0085C121.296 82.321 121.5 82.5042 121.825 82.6126C123.134 83.0501 123.842 84.4667 123.404 85.7751C122.967 87.0835 121.55 87.7917 120.242 87.3542C118.559 86.7917 117.254 85.5876 116.563 83.9626C116.125 82.9292 115.954 81.771 116.054 80.6167C108.684 78.471 100.763 82.3876 97.5167 84.3001C90.6126 88.3667 85.7461 93.846 83.8086 99.7251C83.4626 100.775 82.4836 101.442 81.4336 101.442Z" fill="black"/>
<path d="M141.496 163.496C140.213 163.496 139.117 162.508 139.009 161.204C138.479 154.929 139.7 152.054 142.292 146.658C143.242 144.688 145.038 144.254 146.113 143.996C146.346 143.938 146.567 143.888 146.759 143.825C147.75 143.513 148.729 143.154 149.675 142.754C151.588 141.963 153.384 140.942 155.034 139.717C158.359 137.204 160.675 133.821 161.534 130.208C161.975 128.388 162.575 123.963 158.671 121.992C156.967 121.129 155.296 120.792 150.717 124.817C149.679 125.729 148.1 125.625 147.188 124.588C146.275 123.55 146.379 121.971 147.417 121.058C153.992 115.279 157.796 115.946 160.921 117.525C165.771 119.975 167.867 125.279 166.392 131.371C165.267 136.104 162.296 140.492 158.029 143.713C156.038 145.192 153.879 146.417 151.604 147.358C150.525 147.813 149.396 148.229 148.259 148.583C147.913 148.692 147.579 148.775 147.288 148.846C147.104 148.892 146.867 148.946 146.713 148.996C144.317 153.996 143.575 155.875 143.992 160.775C144.109 162.15 143.088 163.363 141.713 163.475C141.638 163.492 141.567 163.496 141.496 163.496Z" fill="black"/>
<path d="M112.137 167.184C110.808 167.184 109.704 166.138 109.641 164.796C109.508 161.863 109.479 160.388 109.562 158.375C104.554 159.342 99.4538 158.454 95.5207 157.767C89.1663 156.646 84.2288 154.384 80.4248 150.846C73.4332 144.334 70.1707 133.775 71.4707 121.871C71.9582 117.459 73.7748 110.892 76.3373 104.304C76.8373 103.017 78.2873 102.379 79.5748 102.879C80.8623 103.379 81.4998 104.829 80.9998 106.117C78.1582 113.425 76.7832 119.329 76.4413 122.417C75.3123 132.729 78.0038 141.759 83.8332 147.184C86.9498 150.084 90.9373 151.879 96.3832 152.838C101.95 153.809 106.916 154.463 111.312 152.667C112.108 152.342 113.016 152.45 113.716 152.95C114.416 153.454 114.808 154.279 114.754 155.138C114.487 159.329 114.441 160.254 114.641 164.554C114.704 165.934 113.637 167.104 112.258 167.167C112.216 167.184 112.179 167.184 112.137 167.184Z" fill="black"/>
<path d="M91.0123 116.708C92.6232 116.708 93.9288 115.123 93.9288 113.167C93.9288 111.211 92.6232 109.625 91.0123 109.625C89.4013 109.625 88.0957 111.211 88.0957 113.167C88.0957 115.123 89.4013 116.708 91.0123 116.708Z" fill="black"/>
<path d="M105.179 117.687C106.79 117.687 108.096 116.102 108.096 114.146C108.096 112.19 106.79 110.604 105.179 110.604C103.569 110.604 102.263 112.19 102.263 114.146C102.263 116.102 103.569 117.687 105.179 117.687Z" fill="black"/>
</g>
<defs>
<clipPath id="clip0_846_12427">
<rect width="250" height="600" fill="white"/>
</clipPath>
<clipPath id="clip1_846_12427">
<rect width="250" height="250" fill="white" transform="translate(0 159.375)"/>
</clipPath>
</defs>
</svg>
