<svg width="250" height="600" viewBox="0 0 250 600" fill="none" xmlns="http://www.w3.org/2000/svg">
<g clip-path="url(#clip0_846_12734)">
<path d="M132.733 536.232C133.296 542.255 132.521 546.114 130.379 552.696C127.691 561.494 111.629 569.344 121.629 579.2C122.046 579.6 129.525 585.322 142.462 581.609C143.4 581.134 144.375 580.731 145.379 580.403C146.796 579.741 148.112 578.891 149.287 577.878C156.25 572.196 160.762 564.217 161.941 555.498C162.833 549.15 163.579 541.504 163.046 536.067" fill="black"/>
<path d="M92.4998 528.473C92.4707 529.433 92.4707 530.638 92.0538 531.441C91.6373 532.244 91.2207 533.449 90.8038 534.252C85.3873 541.078 78.3038 545.094 71.6373 550.716C67.4707 554.33 63.7207 561.157 68.7207 565.574C78.4498 569.834 93.8873 567.28 97.0538 565.975C99.9707 564.771 102.887 563.967 105.387 562.361C117.054 554.33 116.221 539.874 117.137 527.919" fill="black"/>
<path d="M125.991 525.887C126.212 529.02 126.629 531.831 126.629 535.043C140.379 535.846 154.546 536.248 168.296 535.445C174.216 534.971 180.004 533.477 185.379 531.028C191.629 491.273 192.046 450.715 188.296 410.157C188.296 408.953 188.712 407.346 188.296 406.142C187.879 404.134 187.879 402.528 187.462 400.52V396.504C183.296 359.159 177.462 323.018 169.962 286.877C140.796 287.681 112.046 289.287 82.8789 290.09C69.9874 346.614 65.3583 404.599 69.1289 462.36C69.0583 464.243 69.1999 466.127 69.5458 467.982C70.3289 479.222 72.1458 490.377 74.9624 501.312C75.7958 504.123 76.6289 507.335 77.8789 510.146C79.9624 515.367 82.8789 520.587 84.9624 525.807C92.8789 527.815 101.212 528.217 109.546 527.815C114.129 527.413 119.129 527.413 123.912 526.285L125.991 525.887Z" fill="black"/>
<path fill-rule="evenodd" clip-rule="evenodd" d="M167.662 287.303C182.92 365.005 195.345 448.085 183.235 529.381C174.909 532.957 165.149 533.372 156.616 533.469C147.483 533.565 138.246 533.34 129.125 532.802C128.3 523.594 127.425 514.31 126.575 505.311C122.796 465.275 118.891 423.878 119.075 383.292C119.146 369.017 117.625 354.918 106.146 348.453C104.954 347.782 103.421 348.168 102.725 349.316C102.025 350.465 102.429 351.942 103.621 352.613C112.912 357.845 114.137 370.438 114.075 383.268C113.891 424.08 117.807 465.589 121.595 505.734L121.885 508.82C122.353 513.806 122.829 518.866 123.297 523.937C111.253 525.816 99.0545 525.853 87.0082 524.048C73.9082 499.099 71.8332 474.222 70.9248 452.815C68.6289 398.443 73.4039 343.879 85.1164 290.644C85.4039 289.343 84.5414 288.066 83.1914 287.789C81.8414 287.512 80.5164 288.343 80.2289 289.644C68.4289 343.273 63.6207 398.239 65.9289 453.012C66.8707 475.246 69.0583 501.155 83.1414 527.345C83.5039 528.02 84.1748 528.489 84.9498 528.614C86.6186 528.881 88.2898 529.114 89.9632 529.313C89.9411 529.74 89.8992 530.181 89.8123 530.361C89.5773 530.817 89.3636 531.329 89.1548 531.829L89.1039 531.951C88.9539 532.316 88.7954 532.69 88.6583 532.983C85.2042 537.271 81.0126 540.42 76.5754 543.752L76.4748 543.828C74.3476 545.427 72.1448 547.082 69.9623 548.925C67.0083 551.487 63.8454 555.844 63.8248 560.39C63.8123 563.08 64.9204 565.485 67.0289 567.349C67.2204 567.521 67.4414 567.662 67.6833 567.766C72.1123 569.706 77.4789 570.364 82.4998 570.364C89.5457 570.364 95.9079 569.067 98.0373 568.196C98.8539 567.859 99.7039 567.542 100.525 567.236L100.551 567.227C102.634 566.45 104.787 565.649 106.77 564.373C106.784 564.363 106.799 564.354 106.814 564.345C106.822 564.34 106.83 564.335 106.837 564.329C117.981 556.659 118.699 543.971 119.332 532.775L119.356 532.356C119.415 531.315 119.471 530.311 119.537 529.322C120.939 529.155 122.34 528.964 123.738 528.748C123.936 530.927 124.132 533.105 124.325 535.276C124.433 536.464 125.416 537.396 126.65 537.476C127.879 537.556 129.111 537.63 130.344 537.698C130.663 542.749 129.874 546.205 127.996 551.973C127.991 551.985 127.987 552.001 127.983 552.013C127.216 554.519 124.9 557.245 122.658 559.88L122.634 559.908C120.141 562.843 117.567 565.874 116.454 569.232C115.079 573.388 116.216 577.312 119.862 580.9C119.921 580.962 124.908 585.272 134.025 585.272C136.721 585.272 139.779 584.894 143.179 583.912C143.333 583.869 143.483 583.809 143.625 583.737C144.446 583.322 145.304 582.966 146.183 582.681C146.279 582.647 146.379 582.612 146.47 582.569C148.087 581.812 149.587 580.844 150.929 579.694C158.37 573.613 163.162 565.132 164.42 555.82C165.453 548.485 165.876 542.499 165.684 537.977C172.547 537.514 179.674 536.364 186.162 533.388C186.415 533.272 186.638 533.12 186.828 532.942C187.446 532.582 187.897 531.969 188.008 531.228C200.516 448.86 187.983 364.885 172.575 286.408C172.321 285.098 171.012 284.243 169.654 284.488C168.296 284.737 167.404 285.994 167.662 287.303ZM114.493 529.818C111.262 530.071 108.025 530.196 104.787 530.196C101.502 530.196 98.2186 530.066 94.9401 529.807C94.8795 530.693 94.7279 531.652 94.2789 532.517C94.1283 532.808 93.9523 533.226 93.7779 533.641L93.7373 533.738L93.6864 533.859C93.4776 534.359 93.2639 534.871 93.0289 535.328C92.9579 535.465 92.8748 535.593 92.7789 535.713C88.9039 540.597 84.1957 544.134 79.6414 547.556L79.5082 547.656C77.4454 549.207 75.3142 550.809 73.2748 552.531C71.0789 554.434 68.8332 557.627 68.8207 560.414C68.8164 561.63 69.2457 562.658 70.1332 563.546C79.1248 567.236 93.5083 564.815 96.0664 563.763C96.9086 563.413 97.7436 563.102 98.5539 562.801L98.7204 562.739C100.629 562.028 102.437 561.353 103.962 560.382C113.125 554.049 113.741 543.09 114.337 532.493C114.386 531.611 114.437 530.712 114.493 529.818ZM135.364 537.944C135.633 543.414 134.697 547.476 132.771 553.398C131.718 556.827 129.083 559.926 126.537 562.922L126.525 562.936C120.875 569.582 118.858 572.975 123.358 577.456C123.812 577.802 130.3 582.5 141.529 579.362C142.462 578.906 143.433 578.509 144.42 578.175C145.579 577.621 146.658 576.914 147.621 576.083C147.629 576.075 147.637 576.068 147.646 576.061C147.654 576.054 147.662 576.047 147.671 576.038C154.171 570.734 158.358 563.329 159.462 555.185C160.441 548.226 160.855 542.42 160.686 538.21C159.326 538.25 157.987 538.272 156.675 538.287C155.262 538.3 153.846 538.307 152.429 538.307C146.75 538.307 141.045 538.187 135.364 537.944Z" fill="black"/>
<g clip-path="url(#clip1_846_12734)">
<path d="M141.404 159.375C141.779 163.583 143.5 173.092 149.904 171.667L150.592 172.708C150.279 179.238 146.971 183.842 141.788 188.612C136.521 193.383 129.804 196.25 122.717 196.754C116.467 197.213 109.821 195.717 105.146 191.525C100.471 187.333 98.0126 181.525 101.108 176.546H101.558C102.967 176.587 104.263 175.85 105.454 175.1C106.971 174.142 110.1 170.212 111.038 169.083C112.288 167.462 112.796 161.317 113.438 159.375H141.404Z" fill="white"/>
<path d="M150.788 169.338C157.167 171.042 162.4 175.625 166.696 180.625C172.125 186.971 176.429 194.2 179.429 201.996C186.067 219.258 186.071 238.717 194.075 255.392C189.729 256.679 185.309 257.679 180.834 258.392L184.442 275.504C193.671 304.079 200.092 325.996 208.525 353.575C208.942 354.983 210.608 359.963 209.838 361.208C209.321 362.042 208.454 362.575 207.609 363.054C202.984 365.683 197.933 365.904 192.717 366.954L173.354 370.808C145.642 375.779 117.829 376.996 90.0667 372.313L84.8292 371.7L66.9127 368.271C65.2961 367.963 63.5211 367.55 62.5751 366.188C61.7917 365.071 61.7961 363.6 61.8542 362.238C62.0917 356.821 62.7167 351.446 63.3417 346.067L68.2711 303.567C70.4167 285.413 72.5002 267.183 75.4167 249.092L75.2167 249.008C70.3711 247.342 65.6002 245.492 60.8252 243.638C60.1667 243.45 59.5751 243.083 59.1086 242.583C58.1711 241.375 58.9751 239.642 59.7792 238.338C66.8751 226.796 72.9417 214.654 77.9167 202.05C81.7167 192.425 85.6836 181.596 94.9586 177.008L105.471 172.608C104.579 174.129 105.709 178.467 106.913 179.754C108.117 181.042 109.829 181.717 111.496 182.254C117.088 183.996 123.163 184.458 128.838 183.088C134.513 181.717 139.817 178.388 143.15 173.567C143.984 172.383 144.679 171.1 145.713 170.096C146.746 169.092 148.213 168.383 149.617 168.696L150.788 169.338Z" fill="white"/>
<path d="M162.083 260.117C162.829 287.338 164.866 314.471 168.191 341.513C165.437 341.683 162.583 342.346 160.491 344.142C158.4 345.938 157.341 349.142 158.633 351.583C160.387 354.879 165.196 355.271 167.446 358.25C168.921 360.208 168.979 362.833 169.725 365.183C170.396 367.271 171.629 369.129 173.296 370.55C174.962 371.971 176.991 372.904 179.154 373.238C181.321 373.571 183.533 373.296 185.55 372.442C187.566 371.588 189.308 370.188 190.575 368.404C193.879 363.746 193.396 357.492 192.775 351.817L182.65 259.492L162.083 260.117Z" fill="white"/>
<path d="M64.7582 246.158L58.5539 320.021C58.2998 323.038 57.8958 326.371 55.6164 328.354C53.3373 330.338 49.3664 330.717 48.2289 333.583C46.8748 337.025 50.8708 340.063 52.1708 343.525C54.0333 348.471 50.2289 354.575 53.0039 359.083C54.7039 361.858 58.2289 362.808 61.4333 363.383L61.7457 362.304C61.9832 356.888 62.6082 351.513 63.2332 346.133L68.1623 303.633C70.3998 284.363 72.6414 265.058 75.7873 245.921L64.7582 246.158Z" fill="white"/>
<path d="M164.116 262.288C159.075 262.288 154.016 261.933 148.954 261.221C147.691 261.042 146.766 259.946 146.804 258.675L147.941 218.75C147.979 217.371 149.133 216.271 150.512 216.321C151.891 216.358 152.979 217.513 152.941 218.892L151.866 256.558C164.862 258.108 177.825 257.192 190.466 253.829C186.783 245.167 184.933 235.879 183.137 226.867C181.541 218.85 179.891 210.567 176.962 202.954C174.058 195.404 169.921 188.458 164.662 182.312C159.741 176.562 154.946 173.121 150.008 171.8C148.675 171.442 147.883 170.071 148.241 168.737C148.6 167.404 149.971 166.612 151.304 166.971C157.25 168.562 162.866 172.521 168.466 179.067C174.096 185.646 178.525 193.083 181.633 201.167C184.712 209.179 186.408 217.679 188.046 225.9C190.058 235.996 191.954 245.533 196.2 254.379C196.516 255.042 196.529 255.804 196.229 256.475C195.929 257.146 195.354 257.65 194.654 257.858C184.633 260.8 174.412 262.288 164.116 262.288Z" fill="black"/>
<path d="M75.0585 251.554C74.7876 251.554 74.5166 251.508 74.246 251.417C69.3876 249.75 64.546 247.871 59.8626 246.05L59.8541 246.046C58.8085 245.721 57.8626 245.129 57.1166 244.325C57.0666 244.271 57.021 244.217 56.9751 244.158C55.5501 242.321 55.7251 239.938 57.4916 237.067C64.4916 225.683 70.5335 213.604 75.446 201.171L75.8791 200.067C79.646 190.492 83.9166 179.642 93.7041 174.804C94.9416 174.192 96.4416 174.7 97.0541 175.938C97.6666 177.175 97.1585 178.675 95.921 179.288C87.8666 183.267 84.1376 192.738 80.5335 201.896L80.096 203.004C75.0791 215.708 68.9041 228.05 61.7501 239.683C61.2751 240.454 61.1126 240.908 61.0585 241.142C61.1501 241.196 61.2501 241.242 61.3585 241.271C61.4335 241.292 61.5041 241.317 61.5751 241.342L61.6751 241.379C66.3126 243.179 71.1085 245.042 75.871 246.675C77.1751 247.125 77.871 248.546 77.4251 249.85C77.0666 250.904 76.096 251.554 75.0585 251.554Z" fill="black"/>
<path d="M82.0332 373.779C81.8788 373.779 81.7207 373.763 81.5623 373.733L66.3248 370.817C64.6832 370.488 61.9788 369.942 60.4123 367.717C59.1873 365.971 59.1623 363.963 59.2373 362.221C59.4788 356.713 60.1207 351.2 60.7373 345.871L65.7873 302.325C69.2207 272.938 72.7663 242.546 79.6748 213.225C79.9913 211.883 81.3332 211.046 82.6832 211.367C84.0248 211.683 84.8582 213.029 84.5414 214.375C77.6998 243.417 74.1707 273.663 70.7538 302.913L65.7038 346.454C65.0957 351.7 64.4664 357.121 64.2289 362.446C64.1998 363.108 64.1457 364.35 64.4998 364.85C64.9163 365.442 66.3998 365.742 67.2832 365.917L82.4998 368.829C83.8538 369.088 84.7457 370.4 84.4832 371.754C84.2582 372.946 83.2082 373.779 82.0332 373.779Z" fill="black"/>
<path d="M125.821 377.829C113.367 377.829 101.317 376.833 89.5167 374.842C88.1542 374.613 87.2377 373.321 87.4667 371.963C87.6961 370.6 88.9836 369.679 90.3461 369.913C116.034 374.246 142.996 373.754 172.775 368.413C174.134 368.167 175.434 369.071 175.675 370.433C175.921 371.792 175.017 373.092 173.654 373.333C156.942 376.329 141.079 377.829 125.821 377.829Z" fill="black"/>
<path d="M192.575 369.517C191.408 369.517 190.367 368.696 190.125 367.508C189.854 366.154 190.729 364.838 192.083 364.563C193.404 364.296 194.704 364.083 195.962 363.879C199.646 363.275 203.125 362.708 206.229 360.942C206.571 360.746 207.1 360.45 207.4 360.154C207.392 359.537 207.142 358.121 206.162 354.929C206.092 354.7 206.029 354.5 205.983 354.346C203.683 346.825 201.517 339.675 199.425 332.758C193.867 314.408 188.621 297.075 181.921 276.333C181.496 275.021 182.217 273.608 183.533 273.187C184.85 272.767 186.254 273.483 186.679 274.8C193.392 295.583 198.646 312.937 204.212 331.308C206.304 338.221 208.471 345.367 210.775 352.904C210.825 353.071 210.879 353.25 210.946 353.458C212.35 358.025 212.904 360.833 211.825 362.583C211 363.917 209.779 364.679 208.7 365.292C204.821 367.496 200.729 368.167 196.771 368.817C195.554 369.017 194.3 369.221 193.071 369.471C192.904 369.5 192.742 369.517 192.575 369.517Z" fill="black"/>
<path d="M180.958 375.875C180.229 375.875 179.5 375.821 178.771 375.708C176.146 375.304 173.691 374.179 171.671 372.45C169.65 370.725 168.154 368.475 167.341 365.946C167.062 365.063 166.875 364.204 166.7 363.371C166.387 361.904 166.112 360.638 165.45 359.754C164.746 358.825 163.441 358.15 162.058 357.438C160.029 356.392 157.729 355.208 156.425 352.758C154.679 349.454 155.725 344.938 158.862 342.246C160.55 340.796 162.746 339.821 165.408 339.333C162.266 313.146 160.308 286.529 159.583 260.188C159.546 258.808 160.633 257.658 162.012 257.621C162.037 257.621 162.058 257.621 162.083 257.621C163.433 257.621 164.546 258.696 164.583 260.05C165.325 287.071 167.375 314.375 170.675 341.208C170.758 341.892 170.558 342.579 170.116 343.113C169.675 343.642 169.037 343.967 168.35 344.008C165.587 344.179 163.491 344.863 162.125 346.038C160.762 347.208 160.191 349.171 160.85 350.413C161.416 351.479 162.779 352.179 164.354 352.992C166.087 353.888 168.054 354.9 169.446 356.742C170.779 358.508 171.212 360.533 171.596 362.321C171.758 363.071 171.908 363.779 172.112 364.425C172.637 366.063 173.612 367.525 174.925 368.65C176.237 369.771 177.837 370.504 179.541 370.767C181.25 371.029 182.991 370.813 184.583 370.142C186.175 369.467 187.541 368.367 188.541 366.958C191.246 363.146 190.916 357.75 190.296 352.088L180.171 259.763C180.021 258.392 181.012 257.154 182.383 257.004C183.762 256.854 184.991 257.846 185.141 259.217L195.266 351.542C195.816 356.571 196.65 364.171 192.621 369.85C191.083 372.017 188.979 373.708 186.533 374.746C184.758 375.496 182.866 375.875 180.958 375.875Z" fill="black"/>
<path d="M61.4377 365.883C61.2917 365.883 61.1417 365.871 60.9917 365.842C57.2252 365.167 53.0792 363.992 50.8711 360.388C48.9167 357.208 49.4127 353.663 49.8502 350.538C50.1711 348.258 50.4711 346.104 49.8292 344.404C49.4836 343.475 48.8127 342.488 48.1086 341.438C46.5167 339.075 44.5377 336.138 45.9002 332.667C46.9667 329.975 49.4417 328.825 51.4252 327.9C52.4211 327.438 53.3586 327 53.9711 326.467C55.4917 325.142 55.8252 322.563 56.0586 319.808L62.2627 245.946C62.3792 244.571 63.5917 243.55 64.9627 243.663C66.3377 243.779 67.3586 244.988 67.2461 246.363L61.0417 320.225C60.7336 323.892 60.1877 327.683 57.2542 330.233C56.1086 331.229 54.7417 331.867 53.5336 332.429C52.1086 333.092 50.8792 333.663 50.5502 334.5C50.1752 335.45 50.9461 336.7 52.2542 338.642C53.0917 339.883 53.9542 341.167 54.5086 342.642C55.5961 345.533 55.1711 348.558 54.8002 351.225C54.4336 353.85 54.1167 356.117 55.1292 357.767C56.3086 359.688 59.1961 360.438 61.8711 360.917C63.2292 361.158 64.1336 362.458 63.8917 363.817C63.6792 365.033 62.6252 365.883 61.4377 365.883Z" fill="black"/>
<path d="M98.8335 177.754C97.9126 177.754 97.0251 177.242 96.5917 176.363C95.9792 175.125 96.4876 173.625 97.7251 173.013L104.471 169.679C105.709 169.067 107.209 169.575 107.821 170.813C108.434 172.05 107.925 173.55 106.688 174.163L99.9417 177.496C99.5795 177.671 99.2042 177.754 98.8335 177.754Z" fill="black"/>
<path d="M121.767 186.433C118.108 186.433 114.342 185.85 110.608 184.683C108.596 184.033 106.533 183.204 104.942 181.504C102.846 179.262 102.354 176.046 103.746 173.679C104.446 172.487 105.979 172.092 107.167 172.792C108.358 173.492 108.754 175.025 108.054 176.212C107.804 176.637 108.054 177.512 108.592 178.087C109.404 178.958 110.767 179.479 112.117 179.917C117.596 181.625 123.129 181.896 128.104 180.7C133.408 179.425 138.087 176.321 140.946 172.187C141.175 171.858 141.383 171.542 141.592 171.225C142.196 170.304 142.883 169.258 143.821 168.346C145.617 166.6 147.929 165.837 150.012 166.3C151.358 166.6 152.208 167.933 151.908 169.283C151.608 170.629 150.275 171.479 148.925 171.179C148.525 171.092 147.846 171.408 147.308 171.933C146.762 172.462 146.283 173.196 145.775 173.971C145.537 174.333 145.3 174.696 145.05 175.05C141.512 180.162 135.762 184 129.279 185.562C126.858 186.146 124.342 186.433 121.767 186.433Z" fill="black"/>
<path d="M123.087 192.433C121.104 192.433 119.221 192.35 117.508 192.242C113.929 192.021 109.812 191.613 106.233 189.529C102.571 187.4 98.5668 184.75 97.4249 180.254C97.0834 178.917 97.8918 177.554 99.2334 177.217C100.571 176.875 101.933 177.683 102.271 179.025C102.937 181.642 105.962 183.592 108.746 185.208C111.379 186.742 114.808 187.067 117.812 187.254C122.971 187.571 129.021 187.667 134.737 185.979C140.587 184.254 144.542 178.417 146.379 175.092C147.046 173.883 148.566 173.446 149.775 174.113C150.983 174.779 151.421 176.3 150.754 177.508C148.546 181.504 143.712 188.546 136.15 190.775C131.771 192.071 127.208 192.433 123.087 192.433Z" fill="black"/>
<path d="M145.338 172.825C144.608 172.825 143.888 172.508 143.392 171.896C142.8 171.163 142.346 170.354 141.908 169.575C141.596 169.021 141.275 168.446 140.896 167.883C140.125 166.738 140.429 165.183 141.571 164.413C142.717 163.642 144.271 163.946 145.042 165.088C145.538 165.821 145.925 166.517 146.267 167.129C146.633 167.783 146.95 168.346 147.275 168.75C148.142 169.825 147.979 171.396 146.904 172.267C146.446 172.646 145.892 172.825 145.338 172.825Z" fill="black"/>
<path d="M105.463 177.529C104.6 177.529 103.763 177.083 103.3 176.283C102.604 175.092 103.013 173.558 104.204 172.867C105.358 172.196 106.263 171.375 106.925 170.779L107.079 170.642C108.567 169.3 108.821 168.771 109.138 168.104C109.229 167.912 109.321 167.725 109.425 167.525C110.071 166.304 111.583 165.837 112.804 166.479C114.025 167.125 114.492 168.637 113.85 169.858C113.779 169.996 113.717 170.125 113.654 170.258C113.108 171.4 112.488 172.496 110.433 174.35L110.288 174.483C109.508 175.187 108.333 176.254 106.725 177.187C106.321 177.421 105.888 177.529 105.463 177.529Z" fill="black"/>
</g>
<path d="M75.6167 147.996C74.9376 149.121 73.9751 150.05 72.8292 150.688C71.6792 151.325 70.3835 151.65 69.071 151.633C67.7585 151.613 66.4711 151.25 65.3417 150.579C64.2126 149.908 63.2792 148.954 62.6292 147.808C61.3586 145.554 60.8086 142.271 58.271 141.775C56.1626 141.358 54.4417 143.313 52.8542 144.758C50.9585 146.471 48.5001 147.704 45.946 147.642C43.3917 147.579 40.7961 146.013 40.0126 143.579C38.8917 140.108 41.5376 136.533 41.5167 132.892C41.5667 131.908 41.2417 130.946 40.6086 130.192C39.1376 128.667 36.621 129.438 34.5126 129.238C30.1043 128.821 27.4293 123.496 28.5126 119.204C29.596 114.913 33.3167 111.763 37.2626 109.763C41.2086 107.763 45.5542 106.617 49.4835 104.567C54.3542 102.013 58.4251 98.1625 61.2501 93.4416C63.4501 89.7625 64.8376 85.6291 67.171 82.0335C71.3376 75.6335 78.1836 71.425 85.3042 68.671C92.4251 65.9166 99.9585 64.4291 107.25 62.175C112.725 60.4835 118.279 58.3335 123.984 58.8416C127.763 59.1791 131.742 61.0375 133.15 64.5541L142.921 67.9916C154.471 68.4584 165.525 75.55 170.763 85.8585C172.563 89.3916 173.754 93.3166 176.338 96.325C179.879 100.45 185.921 102.767 187.371 107.992C189.292 114.888 181.871 121.042 181.413 128.183C181.154 132.196 183.079 136.596 180.996 140.033C179.192 143 175.163 143.804 172.875 146.421C170.146 149.538 170.238 154.817 166.713 156.992C165.325 157.846 159.959 158.854 158.484 158.175C152.434 155.396 151.796 159.146 146.679 159.629" fill="black"/>
<path d="M141.517 163.508C141.041 157.804 142.1 152.912 144.583 147.754C145.146 146.587 146.354 146.6 147.55 146.221C148.612 145.887 149.654 145.504 150.683 145.071C152.771 144.204 154.742 143.083 156.558 141.737C160.15 139.025 162.95 135.217 164 130.8C164.954 126.796 164.283 122.029 159.833 119.775C156.696 118.192 153.883 118.754 149.104 122.954L145.391 122.017C140.65 121.729 136.912 117.579 135.358 113.096C133.804 108.612 133.904 103.75 133.558 99.0165C133.404 96.904 133.071 94.6165 131.541 93.15C129.875 91.5584 127.337 91.4375 125.037 91.404L121.371 90.154C119.958 88.625 118.229 87.4209 116.308 86.6165C114.387 85.8165 112.316 85.4375 110.233 85.5084C108.154 85.579 106.112 86.0959 104.25 87.025C102.387 87.954 100.746 89.275 99.4374 90.8959C97.8749 92.8334 96.6959 95.2709 94.4374 96.3334C92.179 97.3959 89.6165 96.779 87.1624 96.825C84.7084 96.8709 81.7834 98.2 81.7209 100.65L78.6959 105.233C76.0084 112.146 74.3915 118.387 73.9834 122.167C72.954 131.683 74.8749 142.258 82.154 149.037C86.0334 152.646 90.8374 154.421 95.9749 155.325C101.333 156.271 107.083 157.133 112.283 155.008C112.008 159.346 111.966 162.442 112.166 166.783" fill="white"/>
<path d="M69.1791 154.146C69.1291 154.146 69.0835 154.146 69.0335 154.146C67.2875 154.121 65.5666 153.637 64.0625 152.742C62.5585 151.85 61.3125 150.575 60.45 149.054C60.0416 148.329 59.721 147.575 59.4085 146.85C58.9085 145.679 58.346 144.354 57.7875 144.246C57.2041 144.129 55.9666 145.292 55.146 146.058C54.9375 146.254 54.7335 146.446 54.5291 146.629C51.9125 148.975 48.85 150.225 45.8835 150.158C42.0916 150.071 38.7 147.687 37.6291 144.362C36.7335 141.596 37.521 138.992 38.2166 136.692C38.625 135.333 39.0125 134.054 39.0125 132.908C39.0125 132.867 39.0125 132.821 39.0166 132.779C39.0335 132.467 38.9416 132.162 38.7625 131.908C38.4375 131.683 37.3585 131.729 36.5625 131.758C35.8291 131.787 35.071 131.817 34.275 131.742C31.7541 131.504 29.4834 130.133 27.8834 127.875C26.0084 125.229 25.3209 121.683 26.0875 118.617C27.1875 114.204 30.7542 110.271 36.1335 107.55C38.1666 106.521 40.275 105.712 42.3125 104.933C44.4335 104.121 46.4335 103.354 48.325 102.367C52.796 100.025 56.5335 96.4959 59.1291 92.1625C60.0791 90.575 60.871 88.8875 61.7085 87.1C62.7125 84.9668 63.746 82.7584 65.096 80.675C69.0541 74.5834 75.5585 69.7625 84.425 66.3418C88.9875 64.5834 93.7291 63.3209 98.3125 62.0959C101.025 61.3709 103.829 60.625 106.533 59.7875C107.283 59.5543 108.033 59.3168 108.783 59.075C113.713 57.4959 118.808 55.8668 124.229 56.3543C128.404 56.7293 133.558 58.8375 135.492 63.6209C136.008 64.9 135.392 66.3584 134.108 66.875C132.829 67.3918 131.371 66.775 130.854 65.4918C129.763 62.7918 126.363 61.5668 123.779 61.3334C119.367 60.9375 114.967 62.3459 110.304 63.8375C109.538 64.0834 108.771 64.3293 108.008 64.5668C105.213 65.4293 102.358 66.1918 99.6 66.9293C95.1416 68.1168 90.5335 69.3459 86.225 71.0084C78.3585 74.0418 72.6585 78.2125 69.2875 83.4C68.125 85.1918 67.2041 87.15 66.2335 89.225C65.3791 91.0418 64.496 92.925 63.4166 94.7293C60.35 99.8543 55.9291 104.029 50.6375 106.8C48.4875 107.921 46.2541 108.775 44.096 109.604C42.0875 110.371 40.1916 111.1 38.3875 112.012C36.0335 113.204 31.9375 115.804 30.9334 119.829C30.5167 121.496 30.9209 123.521 31.9585 124.987C32.4835 125.729 33.396 126.642 34.7416 126.767C35.2041 126.812 35.7666 126.787 36.3625 126.767C38.15 126.696 40.596 126.6 42.4041 128.475C42.4416 128.517 42.4791 128.554 42.5166 128.6C43.55 129.825 44.0791 131.375 44.0125 132.975C44 134.837 43.471 136.592 43 138.142C42.446 139.971 41.971 141.546 42.3875 142.829C42.8041 144.121 44.3541 145.125 46 145.162C47.696 145.192 49.525 144.404 51.1835 142.917C51.3585 142.758 51.546 142.583 51.7375 142.404C53.396 140.854 55.671 138.729 58.7585 139.342C61.9125 139.958 63.125 142.808 64.0125 144.892C64.2835 145.521 64.5335 146.117 64.8085 146.6C65.2375 147.362 65.8625 148 66.6166 148.446C67.371 148.892 68.2291 149.137 69.1041 149.15C69.9835 149.162 70.846 148.946 71.6125 148.521C72.3791 148.096 73.021 147.475 73.475 146.725C74.1875 145.542 75.725 145.162 76.9085 145.875C78.0916 146.587 78.471 148.125 77.7585 149.308C76.8541 150.804 75.571 152.042 74.0416 152.892C72.5541 153.712 70.875 154.146 69.1791 154.146Z" fill="black"/>
<path d="M146.7 162.133C145.425 162.133 144.337 161.163 144.212 159.867C144.083 158.492 145.091 157.271 146.466 157.142C147.916 157.004 148.866 156.538 149.966 155.992C152.162 154.908 154.646 153.679 159.466 155.867C160.579 156.1 164.533 155.371 165.433 154.858C166.696 154.079 167.337 152.358 168.083 150.371C168.766 148.542 169.541 146.467 171.021 144.775C172.316 143.296 173.962 142.325 175.421 141.475C176.925 140.592 178.225 139.829 178.887 138.738C179.779 137.263 179.525 135.217 179.233 132.846C179.041 131.292 178.841 129.683 178.946 128.025C179.179 124.396 180.829 121.217 182.425 118.142C184.241 114.642 185.812 111.617 184.991 108.667C184.296 106.154 182.021 104.388 179.387 102.346C177.687 101.025 175.933 99.6625 174.466 97.9585C172.425 95.5835 171.208 92.825 170.025 90.1585C169.537 89.0544 169.075 88.0085 168.558 86.996C163.758 77.55 153.425 70.921 142.841 70.4919C141.462 70.4375 140.387 69.271 140.446 67.8919C140.5 66.5125 141.675 65.4419 143.046 65.496C155.571 66 167.337 73.55 173.016 84.7294C173.591 85.8585 174.104 87.0169 174.6 88.1335C175.679 90.575 176.7 92.8835 178.262 94.7C179.396 96.021 180.883 97.175 182.454 98.396C185.366 100.658 188.666 103.221 189.808 107.325C191.158 112.171 188.875 116.567 186.862 120.446C185.441 123.183 184.1 125.767 183.933 128.346C183.858 129.533 184.021 130.842 184.191 132.229C184.55 135.108 184.954 138.371 183.158 141.329C181.837 143.504 179.771 144.717 177.946 145.783C176.708 146.508 175.541 147.192 174.779 148.067C173.9 149.071 173.35 150.55 172.762 152.117C171.833 154.608 170.779 157.433 168.046 159.121C166.241 160.229 159.95 161.596 157.458 160.446C154.75 159.2 153.946 159.6 152.179 160.475C150.9 161.108 149.304 161.896 146.937 162.121C146.858 162.129 146.779 162.133 146.7 162.133Z" fill="black"/>
<path d="M81.6833 103.154C81.6624 103.154 81.6415 103.154 81.6165 103.154C80.2374 103.121 79.1458 101.971 79.179 100.592C79.279 96.621 83.3208 94.4 87.0749 94.3294C87.8665 94.3125 88.629 94.3585 89.3665 94.4C90.9333 94.4919 92.2874 94.5669 93.3333 94.075C94.3958 93.575 95.2208 92.4125 96.1708 91.0625C96.5749 90.4919 96.9874 89.9044 97.454 89.3294C98.9958 87.4169 100.896 85.8919 103.096 84.7919C105.296 83.696 107.658 83.096 110.112 83.0125C112.571 82.9294 114.966 83.3669 117.233 84.3125C119.5 85.2585 121.5 86.6544 123.166 88.4585C124.104 89.471 124.041 91.0544 123.029 91.9919C122.016 92.9294 120.433 92.8669 119.496 91.8544C118.316 90.5794 116.908 89.596 115.304 88.9294C113.704 88.2625 112.008 87.95 110.279 88.0125C108.546 88.071 106.879 88.4919 105.325 89.2669C103.771 90.0419 102.433 91.121 101.341 92.471C100.979 92.921 100.625 93.421 100.254 93.95C99.0665 95.6335 97.7208 97.5375 95.4624 98.6C93.2708 99.6335 91.0458 99.5044 89.0833 99.3919C88.4083 99.3544 87.7708 99.3169 87.1708 99.3294C85.6083 99.3585 84.1958 100.129 84.1833 100.717C84.1499 102.075 83.0374 103.154 81.6833 103.154Z" fill="black"/>
<path d="M145.359 124.504C145.309 124.504 145.254 124.504 145.204 124.5C141.167 124.254 135.534 121.333 132.959 113.904C131.617 110.033 131.409 106.042 131.204 102.179C131.154 101.192 131.1 100.175 131.029 99.1875C130.904 97.4875 130.667 95.8 129.775 94.9419C128.817 94.021 126.95 93.921 124.967 93.8919C123.588 93.871 122.484 92.7375 122.504 91.3544C122.525 89.975 123.663 88.871 125.042 88.8919C127.325 88.925 130.779 88.975 133.238 91.3335C135.354 93.3669 135.834 96.2585 136.021 98.825C136.096 99.8585 136.15 100.904 136.204 101.917C136.396 105.592 136.579 109.067 137.688 112.267C138.879 115.708 141.763 119.283 145.509 119.513C146.888 119.596 147.938 120.779 147.854 122.158C147.771 123.483 146.667 124.504 145.359 124.504Z" fill="black"/>
<path d="M141.496 163.496C140.212 163.496 139.116 162.513 139.008 161.204C138.479 154.929 139.7 152.058 142.291 146.658C143.241 144.688 145.037 144.254 146.112 143.996C146.346 143.938 146.566 143.887 146.758 143.825C147.75 143.512 148.729 143.154 149.675 142.754C151.587 141.963 153.383 140.942 155.033 139.717C158.358 137.204 160.675 133.825 161.533 130.208C161.975 128.387 162.575 123.963 158.671 121.992C156.966 121.129 155.296 120.792 150.716 124.817C149.679 125.729 148.1 125.625 147.187 124.588C146.275 123.55 146.379 121.971 147.416 121.058C153.991 115.279 157.791 115.946 160.921 117.525C165.771 119.975 167.866 125.279 166.391 131.371C165.266 136.104 162.296 140.492 158.029 143.713C156.037 145.192 153.879 146.417 151.604 147.358C150.525 147.813 149.396 148.229 148.258 148.583C147.912 148.692 147.579 148.775 147.287 148.846C147.104 148.892 146.866 148.946 146.712 148.996C144.316 153.996 143.575 155.875 143.991 160.775C144.108 162.15 143.087 163.358 141.712 163.475C141.637 163.492 141.566 163.496 141.496 163.496Z" fill="black"/>
<path d="M112.142 167.183C110.813 167.183 109.709 166.138 109.646 164.796C109.513 161.863 109.484 160.388 109.567 158.375C104.559 159.342 99.4585 158.454 95.5251 157.767C89.171 156.646 84.2335 154.383 80.4292 150.846C73.4376 144.333 70.1751 133.775 71.4751 121.871C71.9626 117.458 73.7792 110.892 76.3417 104.304C76.8417 103.017 78.2917 102.379 79.5792 102.879C80.8667 103.379 81.5042 104.829 81.0042 106.117C78.1626 113.425 76.7876 119.329 76.446 122.417C75.3167 132.729 78.0085 141.758 83.8376 147.183C86.9542 150.083 90.9417 151.879 96.3876 152.838C101.954 153.808 106.925 154.463 111.317 152.667C112.113 152.342 113.021 152.45 113.721 152.95C114.421 153.454 114.813 154.279 114.759 155.138C114.492 159.329 114.446 160.254 114.646 164.554C114.709 165.933 113.642 167.104 112.263 167.167C112.217 167.183 112.179 167.183 112.142 167.183Z" fill="black"/>
<path d="M91.0126 116.708C92.6232 116.708 93.9291 115.123 93.9291 113.167C93.9291 111.211 92.6232 109.625 91.0126 109.625C89.4016 109.625 88.0957 111.211 88.0957 113.167C88.0957 115.123 89.4016 116.708 91.0126 116.708Z" fill="black"/>
<path d="M105.179 117.688C106.79 117.688 108.096 116.102 108.096 114.146C108.096 112.19 106.79 110.604 105.179 110.604C103.569 110.604 102.263 112.19 102.263 114.146C102.263 116.102 103.569 117.688 105.179 117.688Z" fill="black"/>
</g>
<defs>
<clipPath id="clip0_846_12734">
<rect width="250" height="600" fill="white"/>
</clipPath>
<clipPath id="clip1_846_12734">
<rect width="250" height="250" fill="white" transform="translate(0 159.375)"/>
</clipPath>
</defs>
</svg>
