<svg width="250" height="600" viewBox="0 0 250 600" fill="none" xmlns="http://www.w3.org/2000/svg">
<g clip-path="url(#clip0_846_12204)">
<path d="M159.963 548.282C157.434 554.031 152.754 558.553 146.925 560.881C141.1 563.209 134.592 563.159 128.809 560.735L128.463 560.593C125.996 567.685 122.321 574.381 120.767 581.725C120.525 582.847 120.35 584.078 120.888 585.094C121.659 586.55 123.517 586.959 125.146 587.181C130.792 588.016 136.654 588.703 142.121 587.069C151.25 584.356 157.5 575.487 159.884 566.246C161.629 559.504 161.709 552.508 161.417 545.516L159.963 548.282Z" fill="black"/>
<path d="M114.417 545.887C110.85 549.442 106.504 552.116 101.729 553.701C96.9542 555.287 91.8749 555.741 86.8918 555.024C85.3333 554.853 83.8249 554.373 82.4583 553.605C81.1293 552.771 80.0543 551.432 79.8958 549.876V548.357C74.2793 553.113 68.6208 557.777 66.7124 564.669C66.3333 566.046 66.1374 567.564 66.7374 568.841C67.8749 571.282 71.0999 571.699 73.7874 571.761C80.8458 571.983 88.0043 572.178 94.8668 570.535C101.729 568.891 108.387 565.086 111.95 558.983C114.783 554.139 115.425 548.357 115.958 542.771L114.417 545.887Z" fill="black"/>
<path d="M131.13 507.068C131.317 515.203 131.455 527.51 131.546 535.645C131.617 542.4 131.642 549.233 130.046 555.796C129.655 557.414 129.167 559 128.621 560.568L128.967 560.71C134.755 563.13 141.259 563.184 147.084 560.856C152.909 558.528 157.588 554.006 160.121 548.257L161.559 545.137C161.45 542.662 161.296 540.184 161.142 537.723C160.659 529.025 160.363 516.146 160.209 507.435" fill="white"/>
<path d="M93.6711 508.996C93.7126 510.042 93.7542 516.292 93.7961 517.339C94.0251 523.18 94.2126 529.279 91.9042 534.661C89.4961 540.268 84.7211 544.377 79.9292 548.428L80.0461 549.851C80.2042 551.407 81.2961 552.771 82.6126 553.58C83.9792 554.348 85.4836 554.828 87.0417 554.999C92.0251 555.716 97.1086 555.266 101.888 553.68C106.667 552.095 111.013 549.417 114.584 545.862L116.125 542.775C117.054 533.042 117.838 518.09 118.471 508.336" fill="white"/>
<path d="M172.854 275.696C183.867 353.021 193.492 430.189 206.721 507.176C206.721 507.176 201 510.735 197.579 508.945C196.021 508.111 194.662 506.859 192.996 506.388C190.912 505.796 188.737 506.471 186.675 507.076C173.579 510.881 159.829 511.874 146.325 509.997C141.9 509.375 137.292 508.466 133.058 509.896C129.808 510.994 126.996 513.422 123.583 513.781C118.892 514.269 114.717 510.722 110.042 510.084C101.542 508.925 92.4959 517.331 85.15 512.896C81.5 510.693 79.7625 505.85 75.7544 504.406C71.2875 502.8 65.4169 505.987 62.0044 502.708C60.7544 501.49 60.2375 499.692 59.8544 497.977C56.6919 483.856 57.4709 469.191 58.275 454.736C61.575 395.337 65.0625 335.42 80.9125 278.07" fill="black"/>
<path fill-rule="evenodd" clip-rule="evenodd" d="M83.8583 515.041C85.8502 516.242 87.9208 516.693 89.9958 516.693C90.4186 516.693 90.8414 516.674 91.2642 516.639L91.2958 517.435L91.2974 517.475C91.5014 522.743 91.7324 528.712 89.6042 533.668C87.3855 538.832 82.8502 542.672 78.0511 546.736L78.0377 546.747L78.0283 546.755C72.3727 551.546 66.5239 556.501 64.4542 563.977C63.8083 566.321 63.8627 568.253 64.6252 569.876C66.5558 574.017 71.8433 574.193 73.8499 574.26L73.8583 574.26L74.1686 574.27C76.4508 574.338 78.7552 574.406 81.0752 574.406C85.9002 574.406 90.7792 574.114 95.6167 572.938C104.046 570.889 110.671 566.371 114.267 560.218C117.246 555.112 117.992 549.388 118.6 542.98C119.446 534.098 120.177 525.092 120.784 516.164C121.773 516.319 122.796 516.369 123.85 516.259C125.647 516.07 127.222 515.462 128.706 514.744C128.856 521.7 128.971 528.724 129.046 535.675L129.046 535.721C129.109 541.847 129.18 548.782 127.617 555.207C126.631 559.259 125.027 563.097 123.33 567.159L123.279 567.282C121.427 571.713 119.513 576.294 118.475 581.178L118.472 581.191C118.258 582.216 117.817 584.328 118.838 586.237C120.292 588.994 123.555 589.441 124.932 589.628H124.942C128.158 590.106 131.488 590.531 134.804 590.531C137.558 590.531 140.313 590.234 142.996 589.428C153.867 586.175 160.179 575.62 162.458 566.826C164.825 557.69 164.275 548.219 163.742 539.062L163.654 537.56C163.223 529.779 162.929 521.849 162.76 513.377C171.055 513.122 179.29 511.818 187.383 509.467L187.567 509.413L187.576 509.41C189.335 508.894 190.99 508.408 192.321 508.787C193.017 508.983 193.779 509.488 194.583 510.022L194.615 510.042C195.176 510.411 195.754 510.792 196.425 511.152C200.975 513.535 207.333 509.734 208.042 509.292C208.908 508.758 209.358 507.748 209.188 506.743C199.583 450.848 191.742 393.86 184.158 338.75C181.3 317.974 178.342 296.484 175.329 275.333C175.133 273.965 173.867 273.013 172.5 273.209C171.133 273.406 170.183 274.674 170.379 276.042C173.342 296.836 176.248 317.957 179.063 338.409L179.204 339.438C186.713 394.006 194.475 450.414 203.954 505.816C202.138 506.663 199.871 507.314 198.763 506.734C198.308 506.488 197.838 506.18 197.342 505.85C196.3 505.161 195.125 504.386 193.683 503.977C190.967 503.205 188.413 503.956 186.158 504.619L185.983 504.669C173.146 508.399 159.917 509.354 146.679 507.515C146.233 507.452 145.779 507.385 145.329 507.318C141.054 506.688 136.633 506.042 132.267 507.519C130.808 508.01 129.495 508.701 128.225 509.37L128.183 509.392C126.5 510.281 124.908 511.119 123.329 511.286C121.258 511.503 119.071 510.589 116.754 509.617L116.704 509.596C114.72 508.768 112.668 507.912 110.383 507.602C106.119 507.019 102.029 508.416 98.0764 509.766L98.0583 509.771L98.0377 509.779C93.5089 511.323 89.6036 512.656 86.4418 510.748C85.188 509.99 84.1189 508.701 82.9861 507.334L82.9536 507.295C81.3183 505.32 79.4614 503.078 76.6042 502.049C74.1914 501.179 71.643 501.4 69.3877 501.595L69.3418 501.599C66.5583 501.841 64.7958 501.916 63.7502 500.911C62.9917 500.172 62.6043 498.8 62.2958 497.427C59.1811 483.522 59.9908 468.972 60.7736 454.901L60.7752 454.874C64.0042 396.701 67.3502 336.547 83.3252 278.737C83.6958 277.406 82.9127 276.025 81.5833 275.658C80.2502 275.287 78.8752 276.071 78.5083 277.402C62.3877 335.733 59.0292 396.159 55.7833 454.598C54.9792 469.021 54.1502 483.931 57.4168 498.524C57.8918 500.652 58.5667 502.85 60.2752 504.515C63.0452 507.176 66.6189 506.864 69.7724 506.589C71.6974 506.417 73.5167 506.259 74.9083 506.759C76.4808 507.326 77.6961 508.795 79.1014 510.493L79.1083 510.501C80.4002 512.066 81.8668 513.839 83.8583 515.041ZM157.758 513.403C153.841 513.324 149.915 513.012 145.988 512.467L144.604 512.266C140.742 511.699 137.096 511.165 133.863 512.258C133.794 512.281 133.725 512.306 133.655 512.331C133.83 520.055 133.963 527.883 134.046 535.62C134.113 542.053 134.188 549.342 132.475 556.392C132.256 557.292 132.01 558.183 131.742 559.065C136.456 560.563 141.506 560.386 146.154 558.528C151.404 556.43 155.55 552.425 157.829 547.247C158.09 546.658 158.549 546.22 159.093 545.975C159.006 543.774 158.879 541.575 158.752 539.395L158.663 537.848C158.226 529.98 157.928 521.967 157.758 513.403ZM115.871 514.662C115.517 514.517 115.168 514.371 114.825 514.227C113.046 513.48 111.363 512.779 109.708 512.554C106.621 512.13 103.261 513.277 99.7058 514.492L99.6752 514.502C98.5549 514.888 97.4014 515.284 96.2277 515.632L96.2917 517.235C96.5208 523.046 96.7792 529.634 94.2002 535.646C91.7349 541.382 87.1486 545.566 82.5189 549.51C82.523 549.539 82.5264 549.567 82.5292 549.596C82.5958 550.23 83.1208 550.944 83.8752 551.423C84.9417 552.012 86.0958 552.379 87.3083 552.512L87.3358 552.516L87.3917 552.525C91.9667 553.184 96.7083 552.763 101.096 551.307C105.483 549.851 109.538 547.356 112.817 544.089C113.025 543.883 113.26 543.721 113.51 543.602C113.546 543.239 113.582 542.873 113.617 542.504C114.496 533.283 115.254 523.925 115.871 514.662ZM159.121 554.802C158.958 558.466 158.522 562.081 157.617 565.574C154.663 576.976 147.388 582.897 141.563 584.641C136.629 586.112 131.229 585.5 125.642 584.672C123.721 584.416 123.333 584.047 123.25 583.887C123.175 583.744 123.129 583.337 123.367 582.219C124.308 577.781 126.058 573.597 127.913 569.167C128.651 567.404 129.399 565.616 130.098 563.795C132.739 564.65 135.467 565.078 138.196 565.078C141.517 565.078 144.838 564.448 148.008 563.18C152.457 561.402 156.263 558.51 159.121 554.802ZM69.2708 565.311C70.6383 560.372 74.2917 556.618 78.5124 552.929C79.1677 554.026 80.1227 554.994 81.3002 555.716L81.3877 555.767C83.0458 556.697 84.8418 557.272 86.7252 557.485C88.3502 557.715 89.9958 557.832 91.6377 557.832C95.3792 557.832 99.1252 557.231 102.675 556.058C106.162 554.901 109.469 553.181 112.432 550.996C111.893 553.422 111.126 555.663 109.942 557.69C107.079 562.587 101.425 566.371 94.4252 568.073C87.8252 569.679 80.8092 569.463 74.0258 569.255L74.0127 569.254C71.1708 569.162 69.5792 568.67 69.1502 567.752C68.9917 567.414 68.8833 566.713 69.2708 565.311Z" fill="black"/>
<g clip-path="url(#clip1_846_12204)">
<path d="M141.404 159.375C141.779 163.583 143.5 173.092 149.904 171.667L150.592 172.708C150.279 179.238 146.971 183.842 141.788 188.612C136.521 193.383 129.804 196.25 122.717 196.754C116.467 197.213 109.821 195.717 105.146 191.525C100.471 187.333 98.0126 181.525 101.108 176.546H101.558C102.967 176.587 104.263 175.85 105.454 175.1C106.971 174.142 110.1 170.212 111.038 169.083C112.288 167.462 112.796 161.317 113.438 159.375H141.404Z" fill="white"/>
<path d="M177.954 210.696C177.046 212.163 176.063 213.579 175.013 214.946C171.417 219.588 166.729 223.575 161.125 225.363L160.317 226.646C159.867 264.596 161.738 302.575 165.446 341.646C164.004 341.767 162.638 342.334 161.529 343.267C160.421 344.2 159.629 345.45 159.263 346.85C158.896 348.25 158.967 349.729 159.475 351.084C159.979 352.438 160.892 353.604 162.088 354.421C163.379 355.296 164.929 355.721 166.254 356.55C172.329 360.338 171.6 370.784 178.021 373.942C182.759 376.271 188.696 372.717 190.842 367.888C192.988 363.059 192.4 357.521 191.763 352.279C189.042 329.979 182.554 264.659 181.421 250.988L178.234 212.542L177.954 210.696Z" fill="white"/>
<path d="M72.9165 211.821C66.725 251.284 60.5875 289.829 57.5915 331.138C56.2459 330.975 54.879 331.209 53.6584 331.8C52.4375 332.392 51.4125 333.325 50.7084 334.484C50.004 335.642 49.6415 336.979 49.675 338.334C49.704 339.692 50.125 341.009 50.8834 342.134C51.3334 342.792 51.8959 343.384 52.3084 344.059C53.3625 345.817 53.304 348.004 53.179 350.054C52.9459 353.884 52.6415 357.917 54.2875 361.384C55.9334 364.85 60.3334 367.338 63.704 365.504C66.054 364.221 67.0625 361.429 67.8709 358.879C69.0084 355.513 69.975 352.088 70.7625 348.621C71.6584 344.35 72.0125 339.984 72.3709 335.629L74.454 310.096L79.1665 219.863C77.8959 216.475 75.8375 213.442 73.1625 211.004L72.9165 211.821Z" fill="white"/>
<path d="M184.2 279.988C189.158 290.225 193.125 300.363 193.125 300.363C193.529 301.567 193.513 302.871 193.079 304.063C191.942 306.392 188.017 306.483 186.767 304.217L184.2 279.988Z" fill="white"/>
<path d="M79.1665 219.862C77.1665 214.55 73.2625 210.171 68.2165 207.571C72.9084 204.654 75.275 199.237 78.1 194.483C84.929 183.079 95.479 174.375 107.971 169.837C106.775 171.15 104.787 173.483 105.054 176.179C105.229 178.062 106.529 179.704 108.142 180.696C109.754 181.687 111.642 182.117 113.512 182.392C121.387 183.512 129.417 182.137 136.467 178.458C140.217 176.483 143.858 173.567 144.721 169.025C150.392 167.858 156.25 170.642 160.467 174.608C164.683 178.575 167.658 183.642 171.037 188.358C174.417 193.075 178.454 197.604 183.837 199.737C181.246 205.008 178.629 210.317 175.033 214.962C171.437 219.608 166.75 223.592 161.146 225.379L160.337 226.662C160.012 254.083 160.9 281.517 162.812 309.367L162.792 309.6C157.467 314.037 149.608 313.425 142.908 311.646C136.208 309.867 129.446 307.137 122.583 308.129C119.196 308.621 115.996 310.008 112.625 310.592C101.858 312.454 90.8709 306.008 80.1584 308.137C76.5665 308.858 72.8415 310.525 69.404 309.267C65.329 307.779 63.7709 301.842 66.5915 298.546C72.5375 273.417 76.9625 247.954 79.8415 222.296L79.1665 219.862Z" fill="white"/>
<path d="M152.104 315.492C149.121 315.492 145.825 315.012 142.229 314.058C140.866 313.696 139.487 313.292 138.158 312.904C132.862 311.35 127.858 309.883 122.904 310.6C121.296 310.833 119.696 311.304 118 311.8C116.404 312.267 114.75 312.754 113.016 313.054C107.254 314.05 101.583 312.887 96.0998 311.758C90.6789 310.646 85.5623 309.596 80.6164 310.587C79.8039 310.75 78.9789 310.962 78.1039 311.192C75.1707 311.958 71.8458 312.825 68.5164 311.612C65.8289 310.629 63.7539 308.233 62.9623 305.204C62.2333 302.412 62.7164 299.562 64.2498 297.433C70.8623 269.421 75.6039 240.7 78.3457 212.05C78.4789 210.675 79.6998 209.671 81.0707 209.8C82.4457 209.933 83.4539 211.154 83.3208 212.525C80.5373 241.579 75.7164 270.712 68.9873 299.112C68.8958 299.5 68.7123 299.858 68.4539 300.162C67.6664 301.083 67.4208 302.492 67.7958 303.933C68.1748 305.379 69.0833 306.492 70.2248 306.912C72.0833 307.592 74.3914 306.987 76.8373 306.35C77.7457 306.112 78.6833 305.867 79.6333 305.679C85.5708 304.487 91.4332 305.692 97.1039 306.858C102.362 307.937 107.333 308.958 112.162 308.125C113.616 307.875 115.062 307.45 116.591 307C118.379 306.475 120.225 305.933 122.187 305.65C128.225 304.775 133.991 306.467 139.566 308.104C140.866 308.483 142.212 308.879 143.512 309.225C151.454 311.333 157.387 310.812 161.154 307.675C162.216 306.792 163.791 306.933 164.675 307.996C165.558 309.058 165.416 310.633 164.354 311.517C161.179 314.162 157.079 315.492 152.104 315.492Z" fill="black"/>
<path d="M161.146 227.879C160.087 227.879 159.104 227.2 158.767 226.137C158.346 224.821 159.075 223.417 160.387 222.996C166.167 221.154 170.467 216.775 173.058 213.429C176.004 209.625 178.312 205.254 180.475 200.908C175.404 198.129 171.725 193.608 169.008 189.812C168.167 188.637 167.346 187.433 166.55 186.271C164.079 182.654 161.746 179.242 158.758 176.429C155.012 172.904 150.612 171.046 146.704 171.279C145.412 175.021 142.371 178.175 137.633 180.667C130.062 184.617 121.604 186.067 113.162 184.862C111.317 184.592 108.937 184.117 106.833 182.821C104.396 181.321 102.8 178.925 102.567 176.404C102.542 176.158 102.529 175.921 102.529 175.692C92.979 180.387 85.35 187.237 80.2459 195.762C79.75 196.596 79.2709 197.446 78.7665 198.35C76.9959 201.5 75.179 204.733 72.5584 207.3C76.6084 210.208 79.725 214.25 81.5084 218.975C81.9959 220.266 81.3415 221.708 80.05 222.196C78.7584 222.683 77.3165 222.029 76.829 220.737C75.0415 215.996 71.579 212.108 67.075 209.787C66.275 209.375 65.7584 208.567 65.7209 207.667C65.6834 206.767 66.1334 205.917 66.9 205.442C70.1915 203.396 72.2415 199.754 74.4084 195.896C74.9084 195.008 75.425 194.092 75.954 193.2C82.7459 181.854 93.5415 173.246 107.175 168.292C108.258 167.9 109.467 168.296 110.104 169.25C110.742 170.204 110.65 171.475 109.875 172.325C109.667 172.554 109.437 172.787 109.2 173.029C108 174.246 107.446 174.929 107.542 175.929C107.629 176.887 108.362 177.892 109.45 178.562C110.771 179.375 112.429 179.704 113.875 179.917C121.262 180.971 128.679 179.696 135.308 176.242C139.412 174.079 141.692 171.562 142.262 168.558C142.45 167.562 143.221 166.779 144.217 166.575C150.054 165.375 156.767 167.696 162.179 172.787C165.562 175.971 168.162 179.775 170.675 183.454C171.454 184.596 172.262 185.775 173.071 186.904C175.808 190.725 179.612 195.375 184.758 197.417C185.408 197.675 185.917 198.192 186.171 198.842C186.421 199.492 186.392 200.217 186.083 200.846C183.475 206.146 180.783 211.629 177.012 216.496C172.675 222.1 167.454 225.996 161.908 227.762C161.654 227.842 161.396 227.879 161.146 227.879Z" fill="black"/>
<path d="M189.859 308.363C187.596 308.363 185.584 307.246 184.575 305.421C183.909 304.213 184.346 302.692 185.559 302.025C186.767 301.359 188.288 301.796 188.954 303.009C189.075 303.225 189.471 303.375 189.904 303.363C190.284 303.354 190.634 303.221 190.784 303.038C190.963 302.442 190.959 301.8 190.771 301.209C190.425 300.329 186.6 290.684 181.95 281.075C181.35 279.834 181.867 278.338 183.109 277.734C184.35 277.134 185.846 277.65 186.45 278.896C191.392 289.104 195.413 299.346 195.454 299.45C195.471 299.488 195.484 299.525 195.496 299.567C196.075 301.3 196.054 303.2 195.429 304.917C195.4 305 195.363 305.079 195.325 305.159C194.388 307.075 192.359 308.304 190.029 308.363C189.975 308.363 189.917 308.363 189.859 308.363Z" fill="black"/>
<path d="M181.216 377.171C179.708 377.171 178.246 376.842 176.916 376.188C172.741 374.133 171.05 369.858 169.554 366.083C168.329 362.992 167.175 360.071 164.929 358.671C164.45 358.371 163.871 358.113 163.258 357.838C162.458 357.479 161.546 357.075 160.683 356.488C159.046 355.375 157.812 353.809 157.116 351.954C156.421 350.1 156.321 348.108 156.825 346.196C157.329 344.283 158.396 342.6 159.912 341.325C160.766 340.608 161.729 340.054 162.758 339.679C159.012 299.513 157.4 262.5 157.825 226.596C157.841 225.225 158.958 224.125 160.325 224.125C160.333 224.125 160.346 224.125 160.354 224.125C161.733 224.142 162.841 225.275 162.825 226.654C162.396 263.029 164.066 300.558 167.941 341.388C168.004 342.054 167.8 342.717 167.371 343.229C166.941 343.742 166.325 344.063 165.658 344.117C164.721 344.192 163.85 344.554 163.129 345.158C162.408 345.763 161.904 346.558 161.666 347.467C161.429 348.375 161.475 349.321 161.804 350.2C162.133 351.079 162.721 351.821 163.496 352.35C163.991 352.688 164.629 352.971 165.304 353.271C166.012 353.588 166.812 353.946 167.587 354.429C171.229 356.7 172.812 360.704 174.212 364.242C175.487 367.459 176.687 370.496 179.129 371.696C180.683 372.458 182.279 372.163 183.346 371.775C185.546 370.979 187.591 369.054 188.562 366.871C190.354 362.842 189.971 358.213 189.287 352.579C186.591 330.475 180.112 265.392 178.937 251.192L175.75 212.746C175.637 211.371 176.658 210.163 178.033 210.046C179.408 209.938 180.616 210.954 180.733 212.329L183.921 250.775C185.096 264.946 191.562 329.908 194.254 351.971C194.866 357.013 195.629 363.283 193.137 368.896C191.621 372.313 188.525 375.213 185.058 376.471C183.766 376.938 182.475 377.171 181.216 377.171Z" fill="black"/>
<path d="M61.2166 368.621C60.321 368.621 59.4041 368.475 58.496 368.179C55.7585 367.288 53.2791 365.096 52.0291 362.458C50.1541 358.513 50.425 354.121 50.6625 350.242L50.6835 349.904C50.7916 348.138 50.8335 346.463 50.1625 345.346C50.021 345.113 49.7916 344.825 49.55 344.521C49.321 344.233 49.0625 343.904 48.8166 343.55C47.7791 342.013 47.2125 340.238 47.171 338.396C47.1291 336.558 47.6125 334.754 48.571 333.183C49.5291 331.613 50.9085 330.358 52.5625 329.554C53.421 329.138 54.3291 328.854 55.2625 328.704C58.2416 289.175 63.95 252.8 69.9916 214.333L70.446 211.433C70.6585 210.071 71.9375 209.142 73.3041 209.35C74.6666 209.563 75.6 210.842 75.3875 212.208L74.9335 215.108C68.796 254.2 63 291.129 60.0875 331.321C60.0375 332.004 59.7125 332.633 59.1835 333.067C58.6585 333.5 57.975 333.704 57.296 333.621C56.421 333.517 55.5416 333.667 54.75 334.05C53.9585 334.433 53.296 335.033 52.8416 335.788C52.3835 336.538 52.1541 337.4 52.171 338.279C52.1916 339.158 52.4625 340.008 52.9541 340.738C53.0916 340.938 53.275 341.171 53.4666 341.413C53.775 341.804 54.125 342.242 54.4375 342.754C55.85 345.113 55.821 347.729 55.671 350.204L55.65 350.546C55.4375 353.979 55.221 357.529 56.5416 360.308C57.2166 361.725 58.5875 362.95 60.0416 363.421C60.6835 363.629 61.6335 363.779 62.5085 363.304C63.996 362.492 64.796 360.296 65.4875 358.121C65.4916 358.104 65.496 358.092 65.5041 358.075C66.6085 354.808 67.5541 351.45 68.321 348.083C69.175 344.008 69.5291 339.704 69.871 335.542L71.9625 309.892C72.075 308.517 73.2835 307.488 74.6585 307.604C76.0335 307.717 77.0585 308.925 76.946 310.3L74.8541 335.954C74.5 340.279 74.1291 344.75 73.2125 349.133C73.2085 349.146 73.2085 349.163 73.2041 349.175C72.4 352.704 71.4085 356.229 70.25 359.654C69.5125 361.983 68.275 365.854 64.9041 367.696C63.775 368.312 62.5166 368.621 61.2166 368.621Z" fill="black"/>
</g>
<path d="M112.142 166.766C111.942 162.425 111.983 159.329 112.258 154.991C107.058 157.116 101.308 156.241 95.9501 155.308C90.8126 154.404 86.0082 152.629 82.1292 149.021C74.8501 142.241 72.9167 131.666 73.9582 122.15C74.3751 118.371 75.9832 112.129 78.6707 105.216L80.2042 97.7873C81.4001 87.1498 88.6667 77.7498 97.9832 72.4832C107.3 67.2163 118.4 65.7538 129.071 66.7707C140.946 67.9038 153.083 72.4163 160.483 81.7707C167.883 91.1248 168.954 105.937 160.7 114.55L149.067 122.946C153.846 118.746 156.658 118.183 159.796 119.766C164.263 122.021 164.933 126.787 163.963 130.791C162.913 135.208 160.113 139.016 156.521 141.729C154.708 143.075 152.733 144.196 150.646 145.062C149.621 145.496 148.575 145.879 147.513 146.212C146.317 146.591 145.108 146.579 144.546 147.746C142.071 152.904 140.142 157.633 140.625 163.333" fill="white"/>
<path d="M216.25 205.416C215.163 203.987 213.804 202.7 213.2 201.008C212.496 199.046 212.925 196.887 213.154 194.821C213.821 188.683 212.659 182.487 209.821 177.004C207.967 173.446 205.396 170.179 204.45 166.283C201.95 156.058 211.346 145.537 208.388 135.45C205.796 126.596 194.846 122.296 192.063 113.496C190.017 107.012 193.004 99.8583 191.496 93.229C190.413 88.4665 187.154 84.5499 184.859 80.2415C181.338 73.6374 180.025 65.9749 176.071 59.6208C172.117 53.2665 163.792 48.4208 157.2 51.9833C146.729 43.9624 138.35 40.2165 129.863 39.2708C121.375 38.3249 112.779 39.9749 104.692 42.7208C95.8335 45.729 87.2835 50.1749 80.7751 56.8874C74.2669 63.5999 69.9751 72.8124 70.5085 82.1499L70.6919 82.4083C61.2751 96.4083 55.971 114.721 58.9544 131.575C59.746 136.041 61.4544 140.221 62.5669 144.608C63.5126 148.429 63.6294 152.404 62.9085 156.275C61.6294 163.621 58.2835 170.583 57.8544 178.083C57.6044 182.204 58.6585 186.3 60.8751 189.783C63.3751 193.812 66.1669 197.325 66.7626 202.187L66.7419 202.062C66.6919 202.308 66.7376 202.562 66.871 202.779C67.0044 202.991 67.2126 203.146 67.4544 203.208C69.0626 202.291 69.2044 200.079 69.3044 198.229C69.6001 192.879 71.7169 186.979 76.6251 184.837C78.771 183.896 81.3794 183.691 82.9544 181.958C84.996 179.712 82.821 173.933 85.4419 172.396C87.4126 171.241 90.1335 172.233 92.0835 171.041C93.6585 170.083 94.3751 166.771 95.6251 165.416C99.1669 161.6 107.542 165.416 111.75 164.071C112.033 160.2 112.113 157.591 112.279 154.991C108.484 156.541 104.308 156.491 100.304 155.987C94.6251 155.416 88.7919 154.166 83.7919 150.416C69.6251 139.166 72.1251 119.166 79.2085 105C79.2085 97.4999 81.7085 88.3333 89.9126 86.0874C91.7085 91.2499 97.5419 94.1665 102.958 93.3333C107.958 92.0833 110.875 87.9165 114.625 84.5833C116.292 83.3333 117.959 85.8333 118.375 87.4999C118.792 91.2499 119.625 95.8333 123.792 97.4999C126.292 98.3333 129.209 97.4999 131.709 98.7499C134.625 100.833 135.042 104.583 137.959 106.25C140.042 107.083 142.959 107.916 144.209 109.583C147.542 114.583 144.625 120 145.459 125.416C145.875 126.666 146.292 127.5 146.709 128.75C149.625 134.166 154 135.625 155.25 141.875C155.317 142.262 155.217 142.333 155.25 142.708C153.634 143.487 152 144.6 150.25 145C148.013 145.5 146.142 147.5 144.817 149.371C144.321 150.162 143.971 151.037 143.788 151.954C143.05 154.791 142.375 157.641 141.759 160.512C141.488 161.791 141.917 163.125 142.2 163.508C142.484 163.891 145.459 163.958 145.459 163.958C145.459 163.958 148.779 164.604 150.434 164.266C150.188 168.266 151.784 172.254 153.383 175.858C154.633 179.191 155.467 182.941 153.8 186.691C152.134 190.025 150.467 193.358 150.05 197.108C149.633 201.691 152.55 205.441 153.8 209.608C154.634 215.025 153.384 220.025 155.05 225.441C155.884 228.775 157.758 232.316 161.717 231.575L164.733 232.158C166.475 232.154 168.2 232.462 169.829 233.071C176.546 237.829 186.129 238.379 193.458 234.379C196.471 232.712 199.146 230.383 202.438 229.412C204.579 228.783 206.863 228.779 209.029 228.221C218.138 225.858 221.938 212.916 216.25 205.416Z" fill="black"/>
<path d="M66.7166 204.687C65.471 204.687 64.3916 203.758 64.2376 202.492C63.8126 199.025 62.0541 196.304 60.0166 193.154C59.5791 192.479 59.1416 191.8 58.7085 191.104C56.2126 187.175 55.0335 182.617 55.3166 177.942C55.5835 173.271 56.896 168.854 58.1666 164.579C59.0585 161.583 59.896 158.758 60.4041 155.854C61.0666 152.283 60.9626 148.717 60.1001 145.217C59.6791 143.558 59.146 141.858 58.6335 140.212C57.8126 137.587 56.9626 134.871 56.4541 132.017C53.5626 115.671 58.096 96.6081 68.5791 81.0165C69.3501 79.8706 70.9041 79.5665 72.0501 80.3375C73.196 81.1081 73.5001 82.6625 72.7291 83.8081C62.9501 98.35 58.7085 116.046 61.3791 131.146C61.8291 133.683 62.596 136.129 63.4041 138.717C63.9416 140.425 64.4916 142.196 64.9501 144C65.9916 148.208 66.1166 152.492 65.3251 156.737C64.7751 159.9 63.8541 163 62.9626 166C61.721 170.183 60.546 174.133 60.3126 178.229C60.0916 181.854 61.0041 185.379 62.946 188.437C63.3751 189.129 63.8001 189.783 64.2166 190.433C66.3916 193.796 68.6376 197.271 69.2041 201.879C69.371 203.25 68.396 204.496 67.0251 204.662C66.921 204.683 66.821 204.687 66.7166 204.687Z" fill="black"/>
<path d="M182.7 239.508C177.571 239.508 172.433 237.996 168.212 235.025C167.083 234.229 166.812 232.671 167.608 231.542C168.404 230.412 169.962 230.142 171.092 230.937C177.187 235.229 185.671 235.712 192.204 232.15C193.162 231.629 194.096 231.021 195.083 230.379C197.092 229.071 199.171 227.717 201.675 226.979C202.996 226.592 204.292 226.417 205.542 226.25C206.537 226.117 207.479 225.992 208.354 225.767C211.592 224.933 214.296 222.204 215.596 218.471C217.025 214.367 216.492 209.946 214.208 206.933C213.958 206.604 213.679 206.271 213.383 205.917C212.45 204.792 211.387 203.521 210.796 201.854C209.996 199.625 210.271 197.404 210.512 195.446C210.55 195.146 210.587 194.85 210.621 194.55C211.233 188.887 210.175 183.217 207.554 178.158C207.021 177.133 206.417 176.125 205.779 175.058C204.275 172.542 202.717 169.942 201.975 166.875C200.583 161.179 202.362 155.671 204.079 150.342C205.7 145.312 207.233 140.558 205.942 136.154C204.825 132.317 201.712 129.325 198.421 126.154C194.871 122.742 191.204 119.212 189.633 114.25C188.404 110.35 188.754 106.421 189.092 102.621C189.371 99.4875 189.637 96.529 189.012 93.7834C188.354 90.9 186.725 88.2625 184.996 85.4709C184.187 84.1665 183.354 82.8165 182.604 81.4165C180.917 78.25 179.721 74.8915 178.567 71.6415C177.2 67.804 175.912 64.179 173.9 60.9415C169.683 54.15 162.454 51.9665 158.35 54.1875C157.483 54.654 156.421 54.5709 155.642 53.975C145.8 46.4375 137.754 42.6709 129.55 41.7625C122.304 40.9584 114.421 42.05 105.458 45.0959C95.779 48.375 88.0665 52.929 82.5334 58.6375C75.9915 65.3834 72.504 73.9084 72.9665 82.0165C73.0459 83.3959 71.9915 84.575 70.6125 84.654C69.2415 84.7334 68.054 83.679 67.975 82.3C67.4334 72.7959 71.429 62.904 78.9415 55.154C85.0334 48.8709 93.4125 43.8959 103.85 40.3584C113.521 37.075 122.108 35.9084 130.1 36.7915C138.917 37.7665 147.408 41.575 157.483 49.1C165.004 46.254 173.854 51.3915 178.146 58.304C180.442 62 181.883 66.05 183.275 69.9709C184.421 73.1915 185.5 76.2334 187.017 79.0709C187.687 80.329 188.446 81.55 189.246 82.8459C191.112 85.8625 193.046 88.9834 193.887 92.679C194.687 96.1915 194.375 99.6915 194.071 103.071C193.762 106.533 193.471 109.8 194.4 112.746C195.583 116.492 198.646 119.437 201.883 122.554C205.504 126.037 209.254 129.642 210.737 134.754C212.458 140.629 210.617 146.35 208.833 151.879C207.258 156.758 205.775 161.371 206.829 165.696C207.396 168.025 208.692 170.196 210.067 172.492C210.712 173.575 211.383 174.692 211.987 175.854C215.067 181.796 216.308 188.45 215.587 195.096C215.554 195.421 215.512 195.742 215.471 196.062C215.279 197.604 215.1 199.058 215.5 200.171C215.796 201.004 216.492 201.837 217.225 202.717C217.542 203.096 217.867 203.492 218.187 203.908C221.471 208.237 222.287 214.446 220.317 220.112C218.467 225.429 214.458 229.354 209.6 230.608C208.437 230.908 207.304 231.058 206.208 231.208C205.096 231.358 204.042 231.5 203.092 231.779C201.292 232.308 199.604 233.408 197.821 234.571C196.796 235.237 195.733 235.929 194.6 236.542C190.958 238.529 186.829 239.508 182.7 239.508Z" fill="black"/>
<path d="M161.692 233.937C160.012 233.937 158.367 233.387 156.867 232.316C154.225 230.429 152.271 227.05 151.767 223.5C151.458 221.316 151.525 219.175 151.592 217.108C151.667 214.787 151.737 212.591 151.275 210.554C150.95 209.129 150.35 207.708 149.712 206.2C148.704 203.812 147.658 201.346 147.55 198.504C147.417 195 148.729 191.941 150 188.983C151.062 186.512 152.062 184.175 152.062 181.866C152.062 179.654 151.137 177.421 150.158 175.058C149.171 172.679 148.15 170.216 147.908 167.446C147.512 162.966 149.212 158.946 150.858 155.058C152.4 151.416 153.854 147.979 153.342 144.633C152.875 141.587 150.804 138.883 148.617 136.021C146.079 132.7 143.454 129.266 142.896 124.812C142.625 122.671 142.833 120.454 143.029 118.308C143.408 114.212 143.546 111.641 141.704 110.437C141.208 110.112 140.487 109.887 139.729 109.646C138.792 109.35 137.729 109.016 136.708 108.396C134.771 107.212 133.587 105.375 132.542 103.758C131.579 102.262 130.746 100.971 129.646 100.612C129.029 100.412 128.162 100.466 127.25 100.521C126.762 100.55 126.262 100.579 125.733 100.579C122.142 100.566 117.475 98.2124 115.446 87.1499C111.421 91.6583 107.879 94.3874 104.896 95.2624C98.0584 97.2708 90.7625 93.3039 88.6291 86.4208C88.2209 85.0999 88.9584 83.6999 90.2791 83.2914C91.5959 82.8833 93 83.6208 93.4084 84.9374C94.7625 89.2999 99.1916 91.7249 103.492 90.4624C105.546 89.8583 108.662 87.3039 112.042 83.4539C112.625 82.7833 113.392 82.2874 114.254 82.0333C115.112 81.7749 116.025 81.7708 116.892 82.0124C117.758 82.2539 118.533 82.7374 119.133 83.4039C119.737 84.0749 120.133 84.8958 120.283 85.7789C120.675 88.0708 122.237 95.5664 125.746 95.5789C126.117 95.5789 126.525 95.5539 126.954 95.5289C128.229 95.4539 129.679 95.3664 131.187 95.8539C133.987 96.7583 135.454 99.0373 136.75 101.05C137.575 102.333 138.354 103.541 139.317 104.129C139.817 104.433 140.504 104.65 141.233 104.879C142.233 105.191 143.371 105.55 144.446 106.254C148.904 109.171 148.412 114.496 148.017 118.771C147.842 120.65 147.662 122.587 147.862 124.191C148.254 127.308 150.362 130.066 152.596 132.987C155.071 136.221 157.629 139.566 158.292 143.879C159.021 148.629 157.217 152.891 155.471 157.012C154 160.491 152.608 163.775 152.896 167.008C153.075 169.012 153.904 171.021 154.787 173.15C155.912 175.862 157.075 178.666 157.075 181.871C157.075 185.204 155.821 188.129 154.608 190.958C153.508 193.521 152.471 195.941 152.562 198.316C152.633 200.246 153.458 202.196 154.333 204.254C155.029 205.896 155.746 207.591 156.167 209.45C156.771 212.112 156.687 214.733 156.604 217.271C156.542 219.212 156.483 221.05 156.729 222.804C157.037 224.975 158.267 227.166 159.783 228.254C160.604 228.841 161.412 229.05 162.242 228.891C163.6 228.633 164.908 229.521 165.167 230.879C165.425 232.233 164.537 233.546 163.179 233.804C162.675 233.891 162.179 233.937 161.692 233.937Z" fill="black"/>
<path d="M112.137 167.183C110.808 167.183 109.704 166.137 109.641 164.795C109.508 161.862 109.479 160.387 109.562 158.375C104.554 159.341 99.454 158.454 95.5205 157.766C89.1665 156.65 84.229 154.383 80.4249 150.845C73.433 144.333 70.1665 133.775 71.4705 121.87C71.9874 117.195 73.879 110.796 76.6749 104.229C76.508 97.6914 78.1624 92.7958 82.004 88.4124C82.9124 87.3749 84.4955 87.2708 85.533 88.1789C86.5705 89.0874 86.6749 90.6664 85.7665 91.7083C82.6874 95.2249 81.4665 99.0789 81.6955 104.604C81.7124 104.979 81.6415 105.354 81.4915 105.7C78.7999 111.912 76.9124 118.162 76.4455 122.416C75.3165 132.729 78.008 141.758 83.8374 147.183C86.954 150.083 90.9415 151.879 96.3874 152.837C101.954 153.808 106.921 154.462 111.316 152.67C112.112 152.345 113.021 152.454 113.721 152.954C114.421 153.454 114.812 154.283 114.758 155.141C114.491 159.333 114.446 160.258 114.646 164.558C114.708 165.937 113.641 167.108 112.262 167.17C112.216 167.183 112.179 167.183 112.137 167.183Z" fill="black"/>
<path d="M141.496 163.496C140.213 163.496 139.117 162.512 139.009 161.204C138.479 154.929 139.7 152.054 142.292 146.658C143.242 144.687 145.038 144.254 146.113 143.992C146.346 143.937 146.567 143.883 146.759 143.821C148.075 143.404 149.479 144.133 149.896 145.45C150.313 146.767 149.584 148.171 148.267 148.587C147.913 148.7 147.579 148.779 147.288 148.85C147.1 148.896 146.867 148.95 146.713 149C144.317 154 143.575 155.879 143.992 160.779C144.109 162.154 143.088 163.367 141.713 163.479C141.638 163.492 141.567 163.496 141.496 163.496Z" fill="black"/>
<path d="M91.0123 116.708C92.6232 116.708 93.9288 115.123 93.9288 113.167C93.9288 111.211 92.6232 109.625 91.0123 109.625C89.4013 109.625 88.0957 111.211 88.0957 113.167C88.0957 115.123 89.4013 116.708 91.0123 116.708Z" fill="black"/>
<path d="M105.179 117.687C106.79 117.687 108.096 116.102 108.096 114.146C108.096 112.19 106.79 110.604 105.179 110.604C103.569 110.604 102.263 112.19 102.263 114.146C102.263 116.102 103.569 117.687 105.179 117.687Z" fill="black"/>
</g>
<defs>
<clipPath id="clip0_846_12204">
<rect width="250" height="600" fill="white"/>
</clipPath>
<clipPath id="clip1_846_12204">
<rect width="250" height="250" fill="white" transform="translate(0 159.375)"/>
</clipPath>
</defs>
</svg>
