<svg width="250" height="600" viewBox="0 0 250 600" fill="none" xmlns="http://www.w3.org/2000/svg">
<g clip-path="url(#clip0_846_13100)">
<path d="M132.733 536.232C133.296 542.255 132.521 546.114 130.379 552.696C127.691 561.494 111.629 569.344 121.629 579.2C122.046 579.6 129.525 585.322 142.462 581.609C143.4 581.134 144.375 580.731 145.379 580.403C146.796 579.741 148.112 578.891 149.287 577.877C156.25 572.196 160.762 564.217 161.941 555.498C162.833 549.15 163.579 541.504 163.046 536.067" fill="black"/>
<path d="M92.4998 528.473C92.4707 529.433 92.4707 530.638 92.0538 531.441C91.6373 532.244 91.2207 533.449 90.8038 534.252C85.3873 541.078 78.3038 545.094 71.6373 550.716C67.4707 554.33 63.7207 561.157 68.7207 565.574C78.4498 569.834 93.8873 567.28 97.0538 565.975C99.9707 564.771 102.887 563.967 105.387 562.361C117.054 554.33 116.221 539.874 117.137 527.919" fill="black"/>
<path d="M125.991 525.887C126.212 529.02 126.629 531.831 126.629 535.043C140.379 535.846 154.546 536.248 168.296 535.445C174.216 534.971 180.004 533.477 185.379 531.028C191.629 491.273 192.046 450.715 188.296 410.157C188.296 408.953 188.712 407.346 188.296 406.142C187.879 404.134 187.879 402.528 187.462 400.52V396.504C183.296 359.159 177.462 323.018 169.962 286.877C140.796 287.681 112.046 289.287 82.8789 290.09C69.9874 346.614 65.3583 404.599 69.1289 462.36C69.0583 464.243 69.1999 466.127 69.5458 467.982C70.3289 479.222 72.1458 490.377 74.9624 501.312C75.7958 504.123 76.6289 507.335 77.8789 510.146C79.9624 515.367 82.8789 520.587 84.9624 525.807C92.8789 527.815 101.212 528.217 109.546 527.815C114.129 527.413 119.129 527.413 123.912 526.285L125.991 525.887Z" fill="black"/>
<path fill-rule="evenodd" clip-rule="evenodd" d="M167.662 287.303C182.92 365.005 195.345 448.085 183.235 529.381C174.909 532.957 165.149 533.372 156.616 533.469C147.483 533.565 138.246 533.34 129.125 532.802C128.3 523.594 127.425 514.31 126.575 505.311C122.796 465.275 118.891 423.878 119.075 383.292C119.146 369.017 117.625 354.918 106.146 348.453C104.954 347.782 103.421 348.168 102.725 349.316C102.025 350.465 102.429 351.943 103.621 352.613C112.912 357.845 114.137 370.438 114.075 383.268C113.891 424.08 117.807 465.589 121.595 505.734L121.885 508.82C122.353 513.806 122.829 518.866 123.297 523.937C111.253 525.816 99.0545 525.853 87.0082 524.048C73.9082 499.099 71.8332 474.222 70.9248 452.815C68.6289 398.443 73.4039 343.879 85.1164 290.644C85.4039 289.343 84.5414 288.066 83.1914 287.789C81.8414 287.512 80.5164 288.343 80.2289 289.644C68.4289 343.273 63.6207 398.239 65.9289 453.012C66.8707 475.246 69.0583 501.155 83.1414 527.345C83.5039 528.02 84.1748 528.489 84.9498 528.614C86.6186 528.881 88.2898 529.114 89.9632 529.313C89.9411 529.74 89.8992 530.181 89.8123 530.361C89.5773 530.818 89.3636 531.329 89.1548 531.829L89.1039 531.951C88.9539 532.316 88.7954 532.69 88.6583 532.983C85.2042 537.271 81.0126 540.42 76.5754 543.752L76.4748 543.828C74.3476 545.427 72.1448 547.083 69.9623 548.925C67.0083 551.487 63.8454 555.844 63.8248 560.39C63.8123 563.08 64.9204 565.485 67.0289 567.349C67.2204 567.521 67.4414 567.662 67.6833 567.766C72.1123 569.706 77.4789 570.364 82.4998 570.364C89.5457 570.364 95.9079 569.067 98.0373 568.196C98.8539 567.859 99.7039 567.542 100.525 567.236L100.551 567.227C102.634 566.45 104.787 565.649 106.77 564.373C106.784 564.363 106.799 564.354 106.814 564.345C106.822 564.34 106.83 564.335 106.837 564.329C117.981 556.659 118.699 543.971 119.332 532.775L119.356 532.356C119.415 531.315 119.471 530.311 119.537 529.322C120.939 529.155 122.34 528.964 123.738 528.748C123.936 530.927 124.132 533.105 124.325 535.276C124.433 536.464 125.416 537.396 126.65 537.476C127.879 537.556 129.111 537.63 130.344 537.698C130.663 542.749 129.874 546.205 127.996 551.973C127.991 551.985 127.987 552.001 127.983 552.013C127.216 554.519 124.9 557.245 122.658 559.88L122.634 559.908C120.141 562.843 117.567 565.874 116.454 569.232C115.079 573.388 116.216 577.312 119.862 580.9C119.921 580.963 124.908 585.272 134.025 585.272C136.721 585.272 139.779 584.894 143.179 583.912C143.333 583.869 143.483 583.809 143.625 583.738C144.446 583.322 145.304 582.966 146.183 582.681C146.279 582.647 146.379 582.613 146.47 582.569C148.087 581.812 149.587 580.844 150.929 579.694C158.37 573.613 163.162 565.132 164.42 555.82C165.453 548.485 165.876 542.499 165.684 537.977C172.547 537.514 179.674 536.364 186.162 533.388C186.415 533.272 186.638 533.12 186.828 532.942C187.446 532.582 187.897 531.969 188.008 531.228C200.516 448.86 187.983 364.885 172.575 286.408C172.321 285.098 171.012 284.243 169.654 284.488C168.296 284.737 167.404 285.994 167.662 287.303ZM114.493 529.818C111.262 530.071 108.025 530.196 104.787 530.196C101.502 530.196 98.2186 530.066 94.9401 529.807C94.8795 530.693 94.7279 531.652 94.2789 532.517C94.1283 532.808 93.9523 533.226 93.7779 533.641L93.7373 533.738L93.6864 533.859C93.4776 534.359 93.2639 534.871 93.0289 535.328C92.9579 535.465 92.8748 535.593 92.7789 535.713C88.9039 540.597 84.1957 544.134 79.6414 547.556L79.5082 547.656C77.4454 549.207 75.3142 550.809 73.2748 552.531C71.0789 554.434 68.8332 557.627 68.8207 560.414C68.8164 561.63 69.2457 562.658 70.1332 563.546C79.1248 567.236 93.5083 564.815 96.0664 563.763C96.9086 563.413 97.7436 563.103 98.5539 562.801L98.7204 562.739C100.629 562.028 102.437 561.353 103.962 560.382C113.125 554.049 113.741 543.09 114.337 532.493C114.386 531.611 114.437 530.712 114.493 529.818ZM135.364 537.944C135.633 543.414 134.697 547.476 132.771 553.398C131.718 556.827 129.083 559.926 126.537 562.922L126.525 562.936C120.875 569.582 118.858 572.975 123.358 577.456C123.812 577.802 130.3 582.5 141.529 579.363C142.462 578.906 143.433 578.509 144.42 578.175C145.579 577.621 146.658 576.914 147.621 576.083C147.629 576.075 147.637 576.068 147.646 576.061C147.654 576.054 147.662 576.047 147.671 576.038C154.171 570.734 158.358 563.329 159.462 555.185C160.441 548.226 160.855 542.42 160.686 538.21C159.326 538.25 157.987 538.272 156.675 538.288C155.262 538.3 153.846 538.308 152.429 538.308C146.75 538.308 141.045 538.187 135.364 537.944Z" fill="black"/>
<g clip-path="url(#clip1_846_13100)">
<path d="M141.404 159.375C141.779 163.583 143.5 173.092 149.904 171.667L150.592 172.708C150.279 179.238 146.971 183.842 141.788 188.612C136.521 193.383 129.804 196.25 122.717 196.754C116.467 197.213 109.821 195.717 105.146 191.525C100.471 187.333 98.0126 181.525 101.108 176.546H101.558C102.967 176.587 104.263 175.85 105.454 175.1C106.971 174.142 108.263 169.837 109.2 168.708C110.45 167.088 112.792 161.317 113.433 159.375H141.404Z" fill="white"/>
<path d="M184.304 275.567C193.533 304.142 199.954 326.058 208.387 353.637C208.804 355.046 210.471 360.025 209.7 361.271C209.183 362.104 208.316 362.638 207.471 363.117C202.846 365.746 197.796 365.967 192.579 367.017L173.216 370.871C145.504 375.842 117.691 377.058 89.9289 372.375L84.6914 371.762L66.7749 368.333C65.1583 368.025 63.3833 367.612 62.4374 366.25C61.6542 365.133 61.6583 363.662 61.7164 362.3C61.9539 356.883 62.5789 351.508 63.2039 346.129L68.1333 303.629C70.2458 285.421 72.3624 267.183 75.2414 249.088L75.0414 249.025C70.1958 247.358 65.4249 245.508 60.6499 243.654C59.9914 243.467 59.3999 243.1 58.9333 242.6C57.9958 241.392 58.7999 239.658 59.6039 238.354C66.7039 226.813 72.7749 214.671 77.7539 202.067C81.5539 192.442 85.5208 181.613 94.7958 177.025L114.179 179.238L150.65 169.375C157.029 171.083 162.262 175.658 166.558 180.679C171.987 187.025 176.291 194.254 179.291 202.05C185.929 219.313 185.933 238.771 193.937 255.446C190.141 256.571 186.287 257.475 182.391 258.163L184.304 275.567Z" fill="white"/>
<path d="M113.146 181.663C113.458 185.95 114.629 190.129 116.584 193.958C116.75 194.358 117.021 194.704 117.367 194.963C117.979 195.338 118.775 195.108 119.45 194.863C125.546 192.65 131.446 189.925 137.083 186.721C139.958 185.088 142.867 183.229 144.583 180.408C146.208 177.746 146.596 174.538 146.946 171.442L147.692 164.829C147.763 164.492 147.729 164.142 147.592 163.829C147.225 163.196 146.279 163.342 145.588 163.575C134.417 167.371 123.679 172.471 113.146 181.663Z" fill="white"/>
<path d="M109.584 166C108.371 168.217 107.121 170.608 107.338 173.125C107.554 175.642 109.934 178.125 112.371 177.467C112.513 180.454 110.404 183.017 108.421 185.254L103.263 191.088C103.071 191.346 102.813 191.546 102.513 191.663C101.796 191.867 101.196 191.108 100.846 190.446C98.6626 186.325 97.0461 181.929 96.042 177.375C95.8126 176.742 95.7876 176.054 95.9626 175.404C96.142 174.754 96.5126 174.175 97.0336 173.746C99.6836 170.729 102.767 168.117 105.934 165.646C106.705 165.042 107.6 164.396 108.567 164.521C109.534 164.646 110.313 165.95 109.584 166Z" fill="white"/>
<path d="M162.004 260.129C162.779 287.337 164.842 314.467 168.196 341.521C165.442 341.692 162.587 342.354 160.5 344.154C158.412 345.954 157.354 349.154 158.65 351.6C160.404 354.896 165.216 355.279 167.466 358.267C168.941 360.221 169.004 362.85 169.754 365.196C170.425 367.283 171.662 369.137 173.329 370.558C174.996 371.979 177.025 372.908 179.192 373.242C181.358 373.575 183.571 373.296 185.587 372.442C187.604 371.587 189.341 370.183 190.608 368.396C193.908 363.733 193.417 357.483 192.787 351.808C189.383 321.021 185.975 290.246 182.571 259.487L162.004 260.129Z" fill="white"/>
<path d="M63.2208 346.146C62.5958 351.525 61.9708 356.908 61.7333 362.317L61.4208 363.396C58.2168 362.821 54.6918 361.871 52.9918 359.096C50.2293 354.588 54.0333 348.483 52.1583 343.537C50.8583 340.075 46.8624 337.038 48.2168 333.596C49.3458 330.729 53.2874 330.396 55.6043 328.367C57.9208 326.338 58.2874 323.038 58.5418 320.033L64.7458 246.171L64.9168 245.338C68.2749 246.629 71.6418 247.892 75.0458 249.058L75.2374 249.171C72.3624 267.254 70.2374 285.475 68.1543 303.663" fill="white"/>
<path d="M164.116 262.287C159.075 262.287 154.016 261.933 148.954 261.221C147.691 261.042 146.766 259.946 146.804 258.675L147.941 218.75C147.979 217.371 149.129 216.271 150.512 216.321C151.891 216.358 152.979 217.512 152.941 218.892L151.866 256.558C164.862 258.108 177.825 257.192 190.466 253.829C186.783 245.167 184.933 235.879 183.137 226.867C181.541 218.85 179.891 210.567 176.962 202.954C174.058 195.404 169.921 188.458 164.662 182.312C159.741 176.562 154.946 173.121 150.008 171.8C148.675 171.442 147.883 170.071 148.241 168.737C148.6 167.404 149.971 166.612 151.304 166.971C157.25 168.562 162.866 172.521 168.466 179.067C174.096 185.646 178.525 193.083 181.633 201.167C184.712 209.179 186.408 217.679 188.046 225.9C190.058 235.996 191.954 245.533 196.2 254.379C196.516 255.042 196.529 255.804 196.229 256.475C195.929 257.146 195.354 257.65 194.654 257.858C184.633 260.8 174.412 262.287 164.116 262.287Z" fill="black"/>
<path d="M75.0585 251.554C74.7876 251.554 74.5166 251.508 74.246 251.417C69.3876 249.75 64.546 247.871 59.8626 246.05L59.8541 246.046C58.8085 245.721 57.8626 245.129 57.1166 244.325C57.0666 244.271 57.021 244.217 56.9751 244.158C55.5501 242.321 55.7251 239.938 57.4916 237.067C64.4916 225.683 70.5335 213.604 75.446 201.171L75.8791 200.067C79.646 190.492 83.9166 179.642 93.7041 174.804C94.9416 174.192 96.4416 174.7 97.0541 175.938C97.6666 177.175 97.1585 178.675 95.921 179.288C87.8666 183.267 84.1376 192.738 80.5335 201.896L80.096 203.004C75.0791 215.708 68.9041 228.05 61.7501 239.683C61.2751 240.454 61.1126 240.908 61.0585 241.142C61.1501 241.196 61.2501 241.242 61.3585 241.271C61.4335 241.292 61.5041 241.317 61.5751 241.342L61.6751 241.379C66.3126 243.179 71.1085 245.042 75.871 246.675C77.1751 247.125 77.871 248.546 77.4251 249.85C77.0666 250.904 76.096 251.554 75.0585 251.554Z" fill="black"/>
<path d="M81.3209 373.642C81.1665 373.642 81.0084 373.625 80.8499 373.596L66.3209 370.817C64.679 370.488 61.9749 369.942 60.4084 367.717C59.1834 365.971 59.1584 363.962 59.2334 362.221C59.4749 356.712 60.1165 351.2 60.7334 345.871L65.7834 302.325C69.2165 272.937 72.7624 242.546 79.6709 213.225C79.9874 211.883 81.329 211.046 82.679 211.367C84.0209 211.683 84.854 213.029 84.5374 214.375C77.6959 243.417 74.1665 273.662 70.7499 302.912L65.6999 346.454C65.0915 351.7 64.4624 357.121 64.2249 362.446C64.1959 363.108 64.1415 364.35 64.4959 364.85C64.9124 365.442 66.3959 365.742 67.279 365.917L81.7834 368.692C83.1374 368.95 84.029 370.262 83.7665 371.617C83.5459 372.808 82.4999 373.642 81.3209 373.642Z" fill="black"/>
<path d="M125.821 377.829C113.367 377.829 101.317 376.833 89.5167 374.842C88.1542 374.613 87.2377 373.321 87.4667 371.963C87.6961 370.6 88.9836 369.679 90.3461 369.913C116.034 374.246 142.996 373.754 172.775 368.413C174.134 368.167 175.434 369.071 175.675 370.433C175.921 371.792 175.017 373.092 173.654 373.333C156.942 376.329 141.079 377.829 125.821 377.829Z" fill="black"/>
<path d="M192.575 369.517C191.408 369.517 190.367 368.696 190.125 367.508C189.854 366.154 190.729 364.838 192.083 364.563C193.404 364.296 194.704 364.083 195.962 363.879C199.646 363.275 203.125 362.708 206.229 360.942C206.571 360.746 207.1 360.45 207.4 360.154C207.392 359.537 207.142 358.121 206.162 354.929C206.092 354.7 206.029 354.5 205.983 354.346C203.683 346.825 201.517 339.675 199.425 332.758C193.867 314.408 188.621 297.075 181.921 276.333C181.496 275.021 182.217 273.608 183.533 273.187C184.846 272.767 186.254 273.483 186.679 274.8C193.392 295.583 198.646 312.938 204.212 331.308C206.304 338.221 208.471 345.367 210.775 352.904C210.825 353.071 210.879 353.25 210.946 353.458C212.35 358.025 212.904 360.833 211.825 362.583C211 363.917 209.779 364.679 208.7 365.292C204.821 367.496 200.729 368.167 196.771 368.817C195.554 369.017 194.3 369.221 193.071 369.471C192.904 369.5 192.742 369.517 192.575 369.517Z" fill="black"/>
<path d="M180.959 375.875C180.229 375.875 179.5 375.821 178.771 375.708C176.146 375.304 173.692 374.179 171.671 372.45C169.65 370.725 168.154 368.475 167.342 365.946C167.063 365.062 166.875 364.204 166.7 363.371C166.388 361.904 166.113 360.637 165.45 359.754C164.746 358.825 163.442 358.15 162.059 357.438C160.029 356.392 157.729 355.208 156.425 352.758C154.679 349.454 155.725 344.938 158.863 342.246C160.55 340.796 162.746 339.821 165.409 339.333C162.267 313.146 160.309 286.529 159.584 260.187C159.546 258.808 160.634 257.658 162.013 257.621C162.038 257.621 162.059 257.621 162.084 257.621C163.434 257.621 164.546 258.696 164.584 260.05C165.325 287.071 167.375 314.375 170.675 341.208C170.759 341.892 170.559 342.579 170.117 343.113C169.675 343.642 169.038 343.967 168.35 344.008C165.588 344.179 163.492 344.862 162.125 346.037C160.763 347.208 160.192 349.171 160.85 350.412C161.417 351.479 162.779 352.179 164.354 352.992C166.088 353.887 168.054 354.9 169.446 356.742C170.779 358.508 171.213 360.533 171.596 362.321C171.759 363.071 171.909 363.779 172.113 364.425C172.638 366.062 173.613 367.525 174.925 368.65C176.238 369.771 177.838 370.504 179.542 370.767C181.25 371.029 182.992 370.812 184.584 370.142C186.175 369.467 187.542 368.367 188.542 366.958C191.246 363.146 190.917 357.75 190.296 352.087L180.171 259.762C180.021 258.392 181.013 257.154 182.384 257.004C183.759 256.854 184.992 257.846 185.142 259.217L195.267 351.542C195.817 356.571 196.65 364.171 192.621 369.85C191.084 372.017 188.979 373.708 186.534 374.746C184.759 375.496 182.867 375.875 180.959 375.875Z" fill="black"/>
<path d="M61.4377 365.883C61.2917 365.883 61.1417 365.871 60.9917 365.842C57.2252 365.167 53.0792 363.992 50.8711 360.387C48.9167 357.208 49.4127 353.663 49.8502 350.538C50.1711 348.258 50.4711 346.104 49.8292 344.404C49.4836 343.475 48.8127 342.487 48.1086 341.437C46.5167 339.075 44.5377 336.138 45.9002 332.667C46.9667 329.975 49.4417 328.825 51.4252 327.9C52.4211 327.438 53.3586 327 53.9711 326.467C55.4917 325.142 55.8252 322.562 56.0586 319.808L62.2627 245.946C62.3792 244.571 63.5961 243.55 64.9627 243.663C66.3377 243.779 67.3586 244.988 67.2461 246.363L61.0417 320.225C60.7336 323.892 60.1877 327.683 57.2542 330.233C56.1086 331.229 54.7417 331.867 53.5336 332.429C52.1086 333.092 50.8792 333.662 50.5502 334.5C50.1752 335.45 50.9461 336.7 52.2542 338.642C53.0917 339.883 53.9542 341.167 54.5086 342.642C55.5961 345.533 55.1711 348.558 54.8002 351.225C54.4336 353.85 54.1167 356.117 55.1292 357.767C56.3086 359.688 59.1961 360.438 61.8711 360.917C63.2292 361.158 64.1336 362.458 63.8917 363.817C63.6792 365.033 62.6252 365.883 61.4377 365.883Z" fill="black"/>
<path d="M118.125 197.658C117.471 197.658 116.754 197.517 116.063 197.092C116 197.054 115.942 197.013 115.884 196.971C115.2 196.467 114.663 195.792 114.321 195.017C112.225 190.892 110.992 186.458 110.654 181.842C110.596 181.058 110.913 180.292 111.504 179.775C120.929 171.55 131.196 165.821 144.788 161.204C147.367 160.333 149.046 161.342 149.759 162.571C149.804 162.654 149.846 162.738 149.884 162.821C150.213 163.575 150.309 164.392 150.167 165.2L149.434 171.717C149.092 174.75 148.663 178.521 146.721 181.704C144.65 185.108 141.3 187.196 138.321 188.888C132.575 192.154 126.517 194.95 120.304 197.204C119.892 197.363 119.075 197.658 118.125 197.658ZM115.754 182.717C116.146 186.125 117.117 189.408 118.646 192.496C124.575 190.342 130.363 187.667 135.85 184.55C138.284 183.167 141 181.496 142.45 179.113C143.821 176.871 144.146 173.971 144.463 171.167L144.996 166.429C133.204 170.575 124.084 175.654 115.754 182.717Z" fill="black"/>
<path d="M102.475 194.371C101.471 194.371 99.9794 193.942 98.8419 191.792C96.5625 187.492 94.875 182.9 93.8209 178.146C93.5794 177.258 93.5209 176.35 93.6459 175.442C93.6625 175.325 93.6875 175.213 93.7169 175.1C94.0294 173.996 94.625 172.988 95.4334 172.179C98.225 169.125 101.312 166.317 104.617 163.829C105.475 163.163 107.05 161.942 109.104 162.217C110.721 162.433 113.033 164.058 112.967 166.121C112.942 166.871 112.625 167.533 112.112 168C111.992 168.208 111.871 168.417 111.75 168.629C110.85 170.188 109.917 171.8 110.025 173.104C110.075 173.708 110.512 174.392 113.317 175.267C114.321 175.579 115.021 176.488 115.071 177.538C115.262 181.717 112.279 185.088 110.496 187.1L105.392 192.867C104.933 193.45 104.325 193.904 103.633 194.175C103.554 194.204 103.475 194.233 103.396 194.254C103.208 194.3 102.883 194.371 102.475 194.371ZM98.5875 176.3C98.5794 176.488 98.6044 176.671 98.6544 176.854C98.6669 176.904 98.6794 176.954 98.6919 177.004C99.5584 180.942 100.904 184.754 102.7 188.358L106.758 183.775C108.042 182.325 109.3 180.813 109.829 179.317C107.779 178.438 105.329 176.8 105.054 173.517C104.925 171.971 105.267 170.554 105.808 169.25C103.417 171.196 101.167 173.321 99.0919 175.596C99.0584 175.633 99.025 175.667 98.9875 175.704C98.8125 175.875 98.675 176.079 98.5875 176.3Z" fill="black"/>
<path d="M109.375 201.875C110.641 201.875 111.667 200.849 111.667 199.583C111.667 198.318 110.641 197.292 109.375 197.292C108.109 197.292 107.083 198.318 107.083 199.583C107.083 200.849 108.109 201.875 109.375 201.875Z" fill="black"/>
<path d="M107.708 217.708C108.974 217.708 110 216.682 110 215.417C110 214.151 108.974 213.125 107.708 213.125C106.443 213.125 105.417 214.151 105.417 215.417C105.417 216.682 106.443 217.708 107.708 217.708Z" fill="black"/>
</g>
<path d="M157.083 144.421C157.917 146.979 161.817 145.979 163.929 144.304C173.996 136.317 179.979 123.588 180.271 110.738C180.562 97.8875 175.317 85.1084 166.496 75.7625C161.225 70.1834 154.117 65.5916 146.454 65.9834L134.167 59.8916C132.462 56.1041 127.958 54.3666 123.812 54.1666C119.667 53.9666 115.521 54.9084 111.375 54.7209C108.071 54.5709 104.812 53.7081 101.508 53.8C93.8293 54.0081 87.2543 59.2416 81.8833 64.7375C72.8543 73.975 65.0543 85.6416 65.0793 98.5625C65.0793 105.888 67.1624 114.571 61.7458 119.512C61.0458 120.154 60.1583 120.971 60.4958 121.858C60.6168 122.092 60.7793 122.3 60.9833 122.467C61.1874 122.633 61.4208 122.758 61.6708 122.829C66.1999 124.667 72.0043 122.046 73.6168 117.412L81.7749 102.021C84.5083 97.8541 90.1668 96.6291 95.1293 97.1375C100.092 97.6459 104.85 99.4875 109.821 99.9334C113.821 100.258 117.846 99.6834 121.596 98.25C125.346 96.8166 128.725 94.5541 131.487 91.6375L133.987 92.3125C136.379 93.4959 138.396 95.325 139.812 97.5875C141.225 99.8541 141.983 102.467 141.996 105.138C141.971 107.875 141.162 110.533 140.712 113.237C140.262 115.942 140.267 118.883 141.712 121.208C143.158 123.533 146.45 124.858 148.762 123.388" fill="black"/>
<path d="M141.5 163.079C141.02 157.379 142.129 152.929 144.608 147.771C145.166 146.604 146.379 146.617 147.575 146.237C148.633 145.904 149.683 145.521 150.708 145.087C152.795 144.221 154.766 143.1 156.583 141.754C160.175 139.042 162.97 135.233 164.025 130.817C164.979 126.812 164.308 122.046 159.837 119.792C156.704 118.208 153.891 118.771 149.112 122.971L148.775 123.417C146.462 124.887 143.166 123.567 141.725 121.237C140.283 118.908 140.287 115.971 140.725 113.267C141.162 110.562 141.975 107.904 142.008 105.167C141.995 102.496 141.237 99.8831 139.825 97.6166C138.412 95.35 136.395 93.525 134 92.3416L131.5 91.6666C128.737 94.5831 125.358 96.8416 121.608 98.2791C117.858 99.7166 113.833 100.292 109.833 99.9625C104.862 99.5166 100.104 97.6791 95.1413 97.1666C90.1788 96.6541 84.5204 97.875 81.7873 102.05L79.1663 104.583C76.6663 108.333 76.2498 112.917 74.9998 117.5C74.9998 118.817 69.9329 136.6 81.6663 148.333C85.8329 152.5 91.2498 154.167 96.8748 155.417C101.92 156.196 107.433 156.979 112.291 155C112.012 159.337 112.058 163.154 112.258 167.496" fill="white"/>
<path d="M159.492 148.471C158.917 148.471 158.35 148.4 157.808 148.238C156.296 147.783 155.187 146.708 154.692 145.208C154.258 143.896 154.971 142.483 156.279 142.05C157.537 141.633 158.887 142.271 159.379 143.479C159.921 143.537 161.279 143.2 162.362 142.346C171.717 134.925 177.471 123.088 177.754 110.683C178.025 98.6875 173.254 86.5875 164.658 77.4791C161.321 73.9459 154.525 68.0791 146.562 68.4791C145.183 68.5541 144.008 67.4875 143.937 66.1084C143.867 64.7291 144.929 63.5541 146.308 63.4834C153.7 63.1041 161.504 66.8541 168.296 74.0416C177.787 84.0959 183.054 97.4916 182.754 110.792C182.441 124.663 175.975 137.921 165.467 146.258C163.971 147.442 161.662 148.471 159.492 148.471Z" fill="black"/>
<path d="M146.579 126.521C146.034 126.521 145.479 126.458 144.925 126.333C142.763 125.842 140.775 124.425 139.604 122.546C138.034 120.021 137.596 116.846 138.263 112.846C138.413 111.942 138.6 111.054 138.779 110.2C139.15 108.433 139.5 106.763 139.513 105.133C139.5 102.963 138.875 100.804 137.709 98.9291C136.538 97.0585 134.875 95.55 132.896 94.5709C131.658 93.9584 131.15 92.4585 131.763 91.221C132.375 89.9835 133.875 89.475 135.113 90.0875C137.925 91.4791 140.288 93.6209 141.95 96.2791C143.613 98.9416 144.496 102.004 144.513 105.142C144.492 107.3 144.075 109.292 143.671 111.221C143.496 112.067 143.325 112.863 143.196 113.667C142.746 116.379 142.967 118.479 143.854 119.908C144.317 120.654 145.175 121.263 146.038 121.463C146.421 121.55 146.979 121.592 147.438 121.3C148.604 120.558 150.146 120.904 150.888 122.067C151.629 123.233 151.284 124.775 150.121 125.517C149.071 126.179 147.85 126.521 146.579 126.521Z" fill="black"/>
<path d="M81.7712 104.538C81.3002 104.538 80.8252 104.404 80.4002 104.129C79.2462 103.371 78.9252 101.821 79.6793 100.667C82.6087 96.2041 88.4793 93.9625 95.3793 94.6666C97.9668 94.9334 100.467 95.5291 102.879 96.1041C105.346 96.6916 107.675 97.25 110.038 97.4584C113.621 97.75 117.317 97.225 120.696 95.9291C124.075 94.6334 127.175 92.5625 129.667 89.9334C130.617 88.9291 132.2 88.8875 133.2 89.8375C134.204 90.7875 134.246 92.3709 133.296 93.3709C130.296 96.5375 126.559 99.0375 122.484 100.596C118.409 102.154 113.959 102.792 109.609 102.437C106.867 102.192 104.246 101.567 101.717 100.962C99.3543 100.4 97.1252 99.8666 94.8668 99.6375C91.0002 99.2416 86.0752 100.025 83.8587 103.404C83.3837 104.142 82.5877 104.538 81.7712 104.538Z" fill="black"/>
<path d="M64.7792 125.917C63.4167 125.917 62.0751 125.675 60.8336 125.183C60.3042 125.013 59.8211 124.746 59.3917 124.388C58.9251 124 58.5461 123.529 58.2711 122.992C58.2295 122.912 58.1917 122.829 58.1626 122.742C57.2211 120.267 59.2086 118.442 60.0586 117.663C63.4292 114.588 63.1126 109.242 62.7792 103.583C62.6836 101.925 62.5792 100.208 62.5792 98.5541C62.5586 86.8666 68.4501 74.8959 80.0961 62.9834C84.8836 58.0834 92.3045 51.5416 101.442 51.2959C103.538 51.2375 105.55 51.5166 107.496 51.7875C108.884 51.9791 110.192 52.1625 111.492 52.2209C113.384 52.3041 115.304 52.1334 117.338 51.95C119.471 51.7584 121.679 51.5584 123.938 51.6666C128.521 51.8875 134.217 53.8959 136.45 58.8625C137.017 60.1209 136.454 61.6 135.196 62.1666C133.938 62.7334 132.459 62.1709 131.892 60.9125C130.584 58.0041 126.8 56.8084 123.696 56.6584C121.784 56.5666 119.842 56.7416 117.788 56.925C115.679 57.1166 113.492 57.3125 111.267 57.2125C109.738 57.1416 108.25 56.9375 106.813 56.7375C104.988 56.4834 103.267 56.2459 101.584 56.2916C94.2626 56.4916 87.8585 62.2 83.6751 66.4791C72.9795 77.425 67.5626 88.2166 67.5836 98.55C67.5836 100.062 67.6751 101.629 67.7751 103.287C68.1336 109.346 68.5376 116.179 63.9501 120.858C65.1626 121.025 66.4751 120.825 67.7126 120.263C69.4251 119.488 70.7167 118.146 71.2626 116.583C71.7167 115.279 73.1417 114.588 74.4461 115.046C75.7501 115.5 76.4376 116.925 75.9876 118.229C74.9961 121.079 72.7336 123.483 69.7792 124.821C68.1626 125.554 66.4542 125.917 64.7792 125.917Z" fill="black"/>
<path d="M141.496 163.496C140.213 163.496 139.117 162.508 139.009 161.204C138.479 154.929 139.7 152.054 142.292 146.658C143.242 144.687 145.038 144.254 146.113 143.996C146.346 143.938 146.567 143.887 146.759 143.825C147.75 143.512 148.729 143.154 149.675 142.754C151.588 141.963 153.384 140.942 155.034 139.717C158.359 137.204 160.675 133.821 161.534 130.208C161.975 128.387 162.575 123.962 158.671 121.992C156.967 121.129 155.296 120.792 150.717 124.817C149.679 125.729 148.1 125.625 147.188 124.587C146.275 123.55 146.379 121.971 147.417 121.058C153.992 115.279 157.796 115.946 160.921 117.525C165.771 119.975 167.867 125.279 166.392 131.371C165.267 136.104 162.296 140.492 158.029 143.712C156.038 145.192 153.879 146.417 151.604 147.358C150.525 147.813 149.396 148.229 148.259 148.583C147.913 148.692 147.579 148.775 147.288 148.846C147.104 148.892 146.867 148.946 146.713 148.996C144.317 153.996 143.575 155.875 143.992 160.775C144.109 162.15 143.088 163.362 141.713 163.475C141.638 163.492 141.567 163.496 141.496 163.496Z" fill="black"/>
<path d="M112.137 167.183C110.808 167.183 109.704 166.138 109.641 164.796C109.508 161.863 109.479 160.388 109.562 158.375C104.554 159.342 99.4538 158.454 95.5207 157.767C89.1663 156.646 84.2288 154.383 80.4248 150.846C73.4332 144.333 70.1707 133.775 71.4707 121.871C71.9582 117.458 73.7748 110.892 76.3373 104.304C76.8373 103.017 78.2873 102.379 79.5748 102.879C80.8623 103.379 81.4998 104.829 80.9998 106.117C78.1582 113.425 76.7832 119.329 76.4413 122.417C75.3123 132.729 78.0038 141.758 83.8332 147.183C86.9498 150.083 90.9373 151.879 96.3832 152.838C101.95 153.808 106.916 154.462 111.312 152.667C112.108 152.342 113.016 152.45 113.716 152.95C114.416 153.45 114.808 154.279 114.754 155.138C114.487 159.329 114.441 160.254 114.641 164.554C114.704 165.933 113.637 167.104 112.258 167.167C112.216 167.183 112.179 167.183 112.137 167.183Z" fill="black"/>
<path d="M91.0123 116.708C92.6232 116.708 93.9288 115.123 93.9288 113.167C93.9288 111.211 92.6232 109.625 91.0123 109.625C89.4013 109.625 88.0957 111.211 88.0957 113.167C88.0957 115.123 89.4013 116.708 91.0123 116.708Z" fill="black"/>
<path d="M105.179 117.687C106.79 117.687 108.096 116.102 108.096 114.146C108.096 112.19 106.79 110.604 105.179 110.604C103.569 110.604 102.263 112.19 102.263 114.146C102.263 116.102 103.569 117.687 105.179 117.687Z" fill="black"/>
<path d="M122.784 74.781C121.722 74.781 120.753 74.1247 120.409 73.0622C115.378 57.8435 118.097 39.156 122.316 26.7185C122.753 25.406 124.159 24.6872 125.472 25.156C126.784 25.5935 127.472 27.031 127.034 28.3122C122.066 42.9685 121.316 59.906 125.128 71.4685C125.566 72.781 124.847 74.1872 123.534 74.6247C123.284 74.7185 123.003 74.7497 122.753 74.7497L122.784 74.781Z" fill="black"/>
<path d="M120.498 32.7531C119.373 37.0656 114.842 40.9406 112.185 41.0969C103.342 41.5656 101.342 31.1592 108.81 29.1905C110.685 28.6905 112.81 28.0967 113.529 27.7217C113.498 27.7217 108.404 26.253 105.342 24.5342C102.529 22.9405 100.81 19.8467 101.123 16.628C101.373 14.1592 103.654 10.7842 108.154 10.2842C111.779 9.87797 117.06 13.8155 117.435 17.4405C117.56 16.1592 117.592 13.1905 117.623 11.5655C117.717 6.97172 121.81 1.15923 127.967 2.81548C135.967 4.97172 130.904 15.378 129.592 17.628C134.185 17.4717 145.592 16.1592 145.935 23.5967C146.154 28.253 141.529 31.9719 137.748 31.4719C135.998 31.2531 132.717 29.7217 130.404 29.003C134.029 29.5967 136.748 35.5969 135.435 39.0031C134.123 42.4094 130.185 44.0031 126.779 42.6906C123.373 41.3781 121.248 36.4719 120.529 32.8156L120.498 32.7531Z" fill="#FA2A0A"/>
<path d="M129.246 45.5928C128.09 45.5928 126.933 45.3741 125.84 44.9678C123.246 43.9366 121.277 41.5928 119.933 38.9053C117.746 41.5303 114.84 43.4366 112.308 43.5928C105.965 43.9366 102.433 39.8741 101.808 35.9678C101.246 32.4678 102.933 29.2802 105.996 27.6239C105.277 27.3114 104.652 26.9677 104.121 26.6864C100.371 24.5614 98.2147 20.4989 98.6522 16.3427C99.0584 12.5614 102.34 8.40516 107.902 7.78016C110.183 7.53016 112.871 8.40516 115.246 10.1239C115.715 6.96766 117.496 3.87391 119.996 1.99892C122.496 0.12392 125.558 -0.438579 128.621 0.373921C132.058 1.28017 133.558 3.40516 134.215 5.03016C135.527 8.21766 134.652 12.0927 133.59 14.9364C137.808 14.8114 142.84 15.1239 145.902 17.9364C147.433 19.3427 148.308 21.2489 148.402 23.4677C148.527 26.3427 147.308 29.1864 145.027 31.2489C142.933 33.1553 140.277 34.1553 137.777 33.9678C138.371 36.0616 138.371 38.1866 137.715 39.9053C136.84 42.1241 135.152 43.8741 132.965 44.8741C131.777 45.4053 130.496 45.6553 129.215 45.6553L129.246 45.5928ZM120.496 30.2489H120.558C121.715 30.2802 122.715 31.1239 122.933 32.2491C123.59 35.5928 125.433 39.4053 127.652 40.2803C128.715 40.6866 129.933 40.6866 130.965 40.2178C131.933 39.7803 132.683 38.9991 133.09 38.0303C133.496 36.9678 133.152 35.0616 132.277 33.4991C131.808 32.6553 131.183 31.9991 130.621 31.6553C130.277 31.5303 129.965 31.4366 129.683 31.3428C128.433 30.9364 127.683 29.6552 127.996 28.3739C128.308 27.0927 129.527 26.2802 130.84 26.4989C131.433 26.5927 132.058 26.7802 132.621 27.0614C133.121 27.2489 133.652 27.4364 134.183 27.6552C135.59 28.1864 137.308 28.8427 138.121 28.9364C139.246 29.0927 140.652 28.5302 141.746 27.5302C142.933 26.4677 143.558 25.0614 143.496 23.6552C143.465 22.7489 143.183 22.1239 142.621 21.5927C140.34 19.5302 134.34 19.8427 131.121 19.9989L129.746 20.0614C128.871 20.1239 127.965 19.6239 127.496 18.8427C127.027 18.0614 127.027 17.0927 127.496 16.3114C128.871 13.9677 130.652 9.37391 129.652 6.90516C129.433 6.37391 128.965 5.62391 127.371 5.18641C125.777 4.74891 124.308 5.03016 123.027 5.96766C121.402 7.18641 120.215 9.49891 120.152 11.5927V12.6864C120.09 14.3739 120.058 16.5927 119.965 17.6552C119.84 18.9364 118.777 19.9052 117.496 19.9052C116.215 19.9052 115.121 18.9364 114.996 17.6552C114.902 16.7489 114.027 15.4989 112.777 14.4677C111.371 13.3114 109.59 12.5927 108.496 12.7177C105.246 13.0927 103.808 15.4364 103.652 16.8427C103.433 19.0302 104.59 21.1864 106.621 22.3114C109.121 23.7177 113.465 25.0614 114.152 25.2489C115.058 25.4677 115.777 26.1552 115.996 27.0614C116.277 28.1864 115.746 29.3739 114.683 29.9052C114.371 30.0614 113.558 30.4677 109.465 31.5616C106.558 32.3428 106.652 34.4991 106.777 35.1553C107.058 36.9678 108.808 38.7491 112.058 38.5616C113.34 38.4991 117.152 35.6241 118.09 32.0928C118.371 30.9989 119.371 30.2177 120.496 30.2177V30.2489Z" fill="black"/>
<path d="M122.375 31.5653C119.031 30.1903 115.25 28.3778 114.875 24.4091C114.781 23.5341 114.906 22.6903 115.187 21.8466C116.218 18.8778 117.937 17.6903 120.75 16.7528C122.187 16.2528 127.875 14.8778 129.843 21.1903C130.562 23.5028 130.875 26.1903 129.593 28.2841C127.843 31.1278 123.906 32.1903 122.343 31.5653H122.375Z" fill="#FFCC00"/>
<path d="M123.434 34.2153C122.684 34.2153 121.996 34.0903 121.402 33.8403C118.434 32.6216 112.902 30.3402 112.371 24.6215C112.246 23.434 112.402 22.184 112.809 21.0277C114.246 16.809 117.09 15.3402 119.934 14.3715C120.934 14.0277 124.465 13.0277 127.715 14.684C129.871 15.7777 131.371 17.7152 132.215 20.434C133.34 24.0902 133.184 27.184 131.715 29.559C129.871 32.5278 126.246 34.1841 123.434 34.1841V34.2153ZM123.277 29.2465C123.934 29.3715 126.402 28.7777 127.465 26.9965C128.309 25.6215 127.934 23.4965 127.465 21.9652C127.027 20.559 126.371 19.6527 125.465 19.184C123.902 18.3715 121.777 19.059 121.559 19.1215C119.121 19.9652 118.215 20.7465 117.559 22.684C117.402 23.184 117.309 23.7152 117.371 24.184C117.59 26.434 119.715 27.7465 123.277 29.2465Z" fill="black"/>
<path d="M121.692 68.5269C123.317 57.5269 138.223 49.0581 148.379 53.2769C143.911 64.0894 134.911 67.8081 121.692 68.5269Z" fill="#27B500"/>
<path d="M121.692 71.0328C121.004 71.0328 120.317 70.7516 119.848 70.2203C119.348 69.6578 119.129 68.9078 119.223 68.1578C120.098 62.2203 124.41 56.5328 130.692 52.9703C136.91 49.4391 143.879 48.7203 149.317 50.9703C150.598 51.5016 151.192 52.9703 150.66 54.2203C144.973 68.0328 132.254 70.4391 121.817 71.0016C121.785 71.0016 121.723 71.0016 121.692 71.0016V71.0328ZM142.535 54.6891C139.535 54.6891 136.254 55.5953 133.16 57.3453C129.379 59.4703 126.535 62.5016 125.098 65.7828C135.254 64.6891 141.285 61.3766 144.848 54.8766C144.098 54.7516 143.317 54.6891 142.535 54.6891Z" fill="black"/>
<path d="M120.782 65.689C111.969 46.5953 96.2816 51.6578 96.2816 51.6578C96.2816 51.6578 94.7504 65.564 120.782 65.689Z" fill="#27B500"/>
<path d="M120.786 68.1866C109.568 68.1241 101.63 65.6241 97.2239 60.6866C93.2864 56.2803 93.7551 51.5928 93.7551 51.3741C93.8489 50.4053 94.5364 49.5616 95.4739 49.2803C95.6614 49.2178 113.38 43.7803 123.005 64.6241C123.349 65.4053 123.286 66.3116 122.849 67.0303C122.38 67.7491 121.599 68.1866 120.755 68.1866H120.786ZM98.9426 53.6553C99.1926 54.6866 99.7551 56.0928 101.036 57.4678C103.099 59.7178 107.443 62.3741 116.505 63.0303C110.474 53.4053 102.536 53.1553 98.9426 53.6553Z" fill="black"/>
</g>
<defs>
<clipPath id="clip0_846_13100">
<rect width="250" height="600" fill="white"/>
</clipPath>
<clipPath id="clip1_846_13100">
<rect width="250" height="250" fill="white" transform="translate(0 159.375)"/>
</clipPath>
</defs>
</svg>
