<svg width="250" height="600" viewBox="0 0 250 600" fill="none" xmlns="http://www.w3.org/2000/svg">
<g clip-path="url(#clip0_846_11985)">
<path d="M133.858 541.657C133.296 546.959 130.567 554.636 126.629 561.978C125.729 563.647 111.529 576.843 119.963 585.759C130.796 592.434 147.463 588.678 154.963 578.25C157.463 574.494 159.129 571.156 159.963 566.984C162.463 558.641 160.796 550.297 161.129 542.099" fill="black"/>
<path d="M92.6587 534.778C89.1293 542.37 79.9627 548.628 73.7127 553.634L69.9627 557.389C69.5462 558.641 68.7127 559.475 67.8793 560.309C66.6627 562.613 66.2252 565.245 66.6293 567.819C67.4627 569.905 69.5462 571.574 71.6293 571.574C84.1293 573.659 97.8793 574.077 108.296 565.316C111.629 562.395 113.713 558.224 114.963 554.052C116.629 548.211 116.213 541.954 116.692 536.025" fill="black"/>
<path d="M124.45 541.882C134.704 539.55 145.383 541.511 155.904 541.532C174.104 541.561 191.737 535.758 209.025 530.017L197.562 487.393C195.454 479.555 193.333 471.715 192.033 463.68C191.871 462.704 192.033 464.306 191.7 462.809C189.041 450.28 187.358 437.565 186.666 424.778C185.716 403.868 183.987 382.921 180.783 361.728C176.616 334.611 171.2 308.746 166.579 282.004L80.3788 282.571C65.0538 370.26 68.5332 459.409 69.5457 472.662C70.9373 491.511 69.0538 510.46 63.9707 528.662C79.0457 532.808 99.3082 533.484 114.937 533.113C119.487 533.005 120.625 533.067 124.9 532.483" fill="black"/>
<path fill-rule="evenodd" clip-rule="evenodd" d="M122.679 543.651C123.154 544.127 123.792 544.386 124.45 544.386C124.634 544.386 124.821 544.365 125.013 544.34C127.013 543.885 129.028 543.601 131.065 543.439C130.144 548.255 127.715 554.654 124.463 560.731C124.325 560.927 123.892 561.432 123.509 561.878C120.034 565.937 109.463 578.294 118.15 587.481C118.3 587.634 118.471 587.778 118.654 587.891C122.613 590.325 127.454 591.594 132.525 591.594C134.738 591.594 136.996 591.353 139.246 590.866C146.575 589.266 153.046 585.203 156.992 579.712L157.042 579.637C160 575.195 161.554 571.695 162.392 567.589C164.166 561.589 163.942 555.706 163.725 550.014L163.725 550.005C163.642 547.849 163.564 545.787 163.589 543.743C179.579 542.457 194.909 537.363 209.802 532.414L209.821 532.408C211.075 531.991 211.792 530.664 211.446 529.383L199.913 486.497C197.879 478.921 195.779 471.09 194.504 463.284C194.338 462.291 194.075 460.973 193.729 459.371C191.25 447.986 189.721 436.313 189.179 424.678C188.121 401.374 186.188 380.664 183.271 361.361C180.734 344.853 177.688 328.549 174.742 312.784C172.838 302.605 170.871 292.075 169.059 281.591C168.821 280.227 167.529 279.317 166.167 279.551C164.804 279.784 163.896 281.082 164.129 282.442C165.935 292.872 167.888 303.33 169.778 313.447L169.825 313.702C172.763 329.426 175.8 345.687 178.325 362.112C181.217 381.236 183.134 401.774 184.184 424.903C184.738 436.822 186.304 448.774 188.842 460.427C189.167 461.924 189.417 463.197 189.567 464.089C190.881 472.123 193.009 480.06 195.068 487.741L206 528.391C189.85 533.747 173.184 539.033 156.046 539.033H155.913C152.739 539.025 149.459 538.832 146.287 538.646L146.196 538.641C140.088 538.278 133.8 537.907 127.584 538.774C128.971 529.525 127.746 520.402 126.554 511.544L126.527 511.343C126.382 510.272 126.237 509.203 126.1 508.132C125.838 506.142 125.579 504.189 125.321 502.266L125.318 502.242C123.361 487.588 121.671 474.937 122.05 459.876C122.084 458.495 120.992 457.343 119.613 457.31C118.229 457.293 117.084 458.37 117.05 459.751C116.659 475.211 118.375 488.056 120.362 502.928C120.437 503.488 120.512 504.053 120.588 504.62C120.77 505.989 120.955 507.377 121.138 508.779C121.274 509.841 121.417 510.907 121.561 511.976L121.595 512.23C122.354 517.883 123.128 523.648 123.184 529.399C122.96 529.442 122.739 529.517 122.525 529.625C118.804 531.507 114.263 531.766 110.296 531.862C95.7085 532.208 81.1666 530.531 67.0416 526.889C71.7126 509.121 73.396 490.827 72.0376 472.471C70.6041 453.706 68.2376 366.563 82.8416 283.001C83.0791 281.641 82.1666 280.343 80.8085 280.106C79.4501 279.868 78.1541 280.781 77.9166 282.141C63.2251 366.217 65.6126 453.96 67.0541 472.85C68.4291 491.465 66.5791 510.017 61.5626 527.99C61.3835 528.632 61.4666 529.317 61.796 529.897C62.121 530.477 62.6666 530.902 63.3085 531.077C71.7023 533.383 80.2463 535.011 88.8682 535.952C88.8126 536.04 88.7619 536.132 88.7166 536.23C86.3241 541.375 81.7832 544.635 76.9735 548.089L76.9541 548.103C75.3585 549.246 73.7126 550.427 72.1416 551.686C72.071 551.745 72.0041 551.803 71.9376 551.87L68.1876 555.625C67.9126 555.896 67.7041 556.234 67.5835 556.601C67.3666 557.26 66.8791 557.769 66.1041 558.545C65.9291 558.72 65.7791 558.92 65.6626 559.142C64.2041 561.903 63.6666 565.124 64.1541 568.211C64.1835 568.395 64.2335 568.574 64.3041 568.749C65.5291 571.807 68.421 573.964 71.396 574.072C75.6416 574.773 80.2916 575.349 85.046 575.349C93.5791 575.349 102.45 573.501 109.9 567.231C109.906 567.224 109.913 567.219 109.919 567.214L109.926 567.208L109.938 567.197C113.259 564.285 115.754 560.105 117.363 554.736C118.612 550.367 118.767 545.891 118.916 541.559L118.917 541.549L118.918 541.507C118.98 539.674 119.039 537.943 119.179 536.225C119.185 536.156 119.187 536.087 119.187 536.018C120.468 535.745 121.744 535.38 122.994 534.891C122.814 537.045 122.5 539.191 122.013 541.323C121.821 542.162 122.071 543.042 122.679 543.651ZM158.587 544.016C157.743 544.04 156.898 544.052 156.05 544.052H155.909C152.589 544.043 149.237 543.847 145.994 543.657L145.904 543.651C142.583 543.454 139.345 543.262 136.17 543.256C135.309 548.78 132.624 556.092 128.834 563.163C128.575 563.639 128.179 564.11 127.304 565.132C122.204 571.094 116.979 578.575 121.563 583.8C126.125 586.494 132.159 587.284 138.179 585.972C144.304 584.634 149.667 581.303 152.909 576.822C155.488 572.942 156.821 569.947 157.513 566.492L157.517 566.472C157.532 566.403 157.548 566.331 157.571 566.263C159.142 561.019 158.942 555.762 158.729 550.193L158.723 550.017C158.649 548.05 158.574 546.035 158.587 544.016ZM106.563 536.914C102.135 536.914 97.7148 536.734 93.3113 536.375C93.5513 536.989 93.5504 537.696 93.2501 538.341C90.3001 544.682 84.996 548.491 79.8666 552.17C78.3626 553.247 76.8126 554.361 75.3751 555.508L72.096 558.791C71.5291 560.097 70.6791 561.031 69.921 561.799C69.1291 563.447 68.821 565.316 69.046 567.131C69.5751 568.207 70.7041 569.075 71.621 569.075C71.7585 569.075 71.896 569.087 72.0335 569.108C82.8501 570.914 96.5626 571.895 106.663 563.417C109.254 561.14 111.242 557.744 112.563 553.334C113.634 549.584 113.779 545.412 113.917 541.377C113.969 539.842 114.025 538.266 114.131 536.702C112.859 536.793 111.614 536.836 110.417 536.863C109.129 536.897 107.846 536.914 106.563 536.914Z" fill="black"/>
<path d="M119.541 455.596C118.233 455.596 117.133 454.573 117.05 453.251C116.141 438.749 115.004 423.092 113.796 406.509L113.75 405.876C112.597 390.037 111.407 373.677 110.387 357.752C110.071 354.415 107.391 350.957 103.621 351.194C102.241 351.273 101.058 350.227 100.975 348.846C100.891 347.465 101.941 346.28 103.321 346.197C110.104 345.8 114.854 351.657 115.371 357.331L115.371 357.341L115.373 357.365C115.374 357.376 115.375 357.387 115.375 357.398C116.392 373.273 117.579 389.593 118.729 405.403L118.788 406.206C119.994 422.775 121.134 438.429 122.041 452.938C122.129 454.319 121.079 455.508 119.704 455.591C119.65 455.596 119.595 455.596 119.541 455.596Z" fill="black"/>
<g clip-path="url(#clip1_846_11985)">
<mask id="mask0_846_11985" style="mask-type:luminance" maskUnits="userSpaceOnUse" x="0" y="159" width="250" height="251">
<path d="M250 159.375H0V409.375H250V159.375Z" fill="white"/>
</mask>
<g mask="url(#mask0_846_11985)">
<path d="M141.403 159.375C141.778 163.584 143.499 173.092 149.903 171.667L150.591 172.709C150.278 179.238 146.97 183.842 141.787 188.613C136.52 193.384 129.803 196.25 122.716 196.754C116.466 197.213 109.82 195.717 105.145 191.525C100.47 187.334 98.0115 181.525 101.107 176.546H101.557C102.966 176.588 104.262 175.85 105.453 175.1C106.97 174.142 106.866 169.459 107.799 168.325C109.049 166.704 112.791 161.313 113.432 159.371H141.403V159.375Z" fill="white"/>
<path d="M164.663 341.9C160.65 343.196 155.754 347.15 159.15 351.6C161.017 354.054 163.838 355.375 166.425 356.916C168.417 358.1 168.946 362.1 169.717 364.216C171.667 369.566 175.454 373.958 181.667 373.541C187.984 373.125 191.913 367.746 193.113 361.946C194.413 355.654 193.013 348.129 191.967 341.908L164.663 341.9Z" fill="white"/>
<path d="M52.6458 330.062C49.729 331.15 47.229 333.65 48.0624 336.983C53.479 342.4 52.229 350.317 51.8124 356.983C51.8124 362.788 57.204 363.354 61.579 363.175C64.3458 363.038 66.9333 361.925 68.3583 359.667C69.7833 357.408 69.7458 354.533 70.5915 351.979C72.5333 346.146 74.1624 340.192 73.354 333.171L52.6458 330.062Z" fill="white"/>
<path d="M83.2083 289.692C82.0789 301.004 80.3164 312.242 77.9164 323.354C75.8289 322.425 73.5749 321.921 71.2914 321.875L65.8749 321.521C61.6414 321.004 58.2414 320.492 54.0083 319.979C55.7624 300.625 58.0124 281.321 60.7583 262.062C63.1458 245.292 65.9249 228.517 70.8583 212.313C75.2414 197.913 82.1958 183.021 95.3999 175.8L96.9374 173.421L109.75 163.087C110.521 164.358 109.929 166.004 109.471 165.588L107.741 171.762C107.516 172.396 107.429 173.071 107.475 173.742C107.758 175.683 110.071 176.483 111.987 176.887L113.75 177.046C121.887 173.712 128.016 170.625 134.141 167.533C138.758 165.204 143.525 162.833 148.683 162.438L150.65 169.375C158.021 171.35 163.737 177.029 168.341 182.846C173.362 189.196 177.3 196.329 180 203.958C181.512 208.221 183.904 213.017 184.891 217.425L186.208 221.458C194.433 256.875 194.866 293.579 195.258 329.942L158.983 329.346C157.375 317.1 156.108 304.821 155.183 292.5L153.571 292.554C137.396 294.617 120.808 292.892 105.183 290.908C96.8958 291.904 88.4289 291.283 80.5664 288.75" fill="white"/>
<path d="M161.067 329.683C160.408 332.871 160.192 336.129 160.417 339.375C160.408 339.562 160.433 339.75 160.5 339.925C160.567 340.1 160.666 340.262 160.796 340.4C161.058 340.558 161.366 340.629 161.671 340.596L190.004 340.516C190.433 340.55 190.862 340.471 191.254 340.291C192.054 339.837 192.116 338.729 192.087 337.791L191.787 330.112L161.067 329.683Z" fill="white"/>
<path d="M55.346 320.287C54.0126 323.104 53.6792 326.812 53.4126 329.916C57.6417 331.204 68.6835 331.746 73.6251 332.529C73.7376 332.562 73.8585 332.546 73.9626 332.491C74.0251 332.437 74.071 332.366 74.0917 332.287C75.2292 329.491 76.7376 325.291 76.9792 322.287L55.346 320.287Z" fill="white"/>
<path d="M113.75 177.05L117.742 194.375C124.087 192.146 130.45 189.912 136.492 186.958C138.667 185.896 140.85 184.696 142.425 182.858C144.287 180.688 145.121 177.858 145.908 175.096C147.092 170.929 148.283 166.762 148.675 162.442C143.517 162.837 138.75 165.208 134.133 167.537C128.004 170.625 121.875 173.721 113.75 177.05Z" fill="white"/>
<path d="M109.459 165.592L107.729 171.767C107.504 172.4 107.417 173.075 107.463 173.746C107.746 175.687 110.059 176.487 111.975 176.892C109.821 182.062 106.709 186.783 102.809 190.804C100.65 188.487 99.0085 185.742 97.9916 182.742C96.9751 179.742 96.6126 176.562 96.921 173.412L109.734 163.079C110.509 164.35 109.917 165.975 109.459 165.592Z" fill="white"/>
<path d="M184.887 219.925C183.741 219.925 182.712 219.133 182.45 217.971C181.85 215.296 180.645 212.346 179.479 209.492C178.841 207.937 178.187 206.329 177.641 204.796C175.029 197.404 171.237 190.542 166.379 184.396C162.837 179.917 157.283 173.742 150 171.787C148.666 171.429 147.875 170.058 148.233 168.725C148.591 167.392 149.962 166.604 151.295 166.958C160.008 169.292 166.316 176.258 170.3 181.292C175.5 187.871 179.558 195.217 182.354 203.121C182.858 204.542 183.466 206.025 184.108 207.596C185.354 210.642 186.637 213.792 187.329 216.875C187.629 218.221 186.783 219.558 185.437 219.862C185.254 219.904 185.07 219.925 184.887 219.925Z" fill="black"/>
<path d="M180.879 376.067C174.825 376.067 169.933 372.108 167.371 365.071C167.141 364.437 166.946 363.729 166.741 362.983C166.45 361.921 165.771 359.433 165.15 359.067C164.708 358.804 164.266 358.55 163.821 358.296C161.566 357.008 159.012 355.546 157.162 353.112C155.158 350.487 155.308 348.121 155.783 346.6C156.854 343.183 160.571 340.887 163.696 339.879C165.008 339.454 166.421 340.175 166.841 341.492C167.266 342.804 166.546 344.217 165.229 344.637C162.912 345.387 160.946 346.842 160.55 348.096C160.475 348.333 160.279 348.962 161.133 350.083C162.371 351.708 164.275 352.8 166.296 353.954C166.766 354.225 167.237 354.492 167.7 354.767C170.054 356.162 170.887 359.212 171.558 361.662C171.737 362.308 171.904 362.921 172.062 363.358C173.412 367.062 176.137 371.392 181.496 371.046C185.016 370.812 189.266 368.167 190.662 361.437C191.733 356.258 190.762 350.679 189.825 345.283C189.712 344.633 189.6 343.987 189.491 343.346C189.262 341.983 190.179 340.696 191.541 340.462C192.904 340.229 194.191 341.15 194.425 342.512C194.533 343.146 194.641 343.787 194.754 344.425C195.771 350.279 196.825 356.333 195.562 362.446C193.946 370.254 188.558 375.587 181.833 376.029C181.512 376.058 181.191 376.067 180.879 376.067Z" fill="black"/>
<path d="M60.3166 365.704C57.475 365.704 54 365.275 51.6709 363.042C50.1084 361.542 49.3125 359.504 49.3125 356.987C49.3125 356.937 49.3125 356.883 49.3166 356.833C49.3584 356.142 49.4125 355.433 49.4666 354.717C49.9 348.862 50.3459 342.808 46.2959 338.754C45.975 338.433 45.75 338.033 45.6375 337.592C44.6 333.442 47.0666 329.475 51.775 327.721C53.0666 327.237 54.5084 327.896 54.9916 329.192C55.475 330.483 54.8166 331.925 53.5209 332.408C52.9541 332.621 50.325 333.717 50.4084 335.825C55.4625 341.442 54.9041 348.983 54.4541 355.083C54.4041 355.75 54.3541 356.412 54.3166 357.058C54.3334 358.667 54.9375 359.242 55.1375 359.433C56.1334 360.392 58.2709 360.808 61.4834 360.679C63.6334 360.571 65.3791 359.717 66.25 358.333C67.4166 356.487 67.775 354.012 68.125 351.621L70.8666 332.812C71.0666 331.446 72.3334 330.496 73.7 330.7C75.0666 330.9 76.0125 332.167 75.8125 333.533L73.0709 352.342C72.6875 354.979 72.2084 358.258 70.4791 361.004C68.725 363.783 65.5291 365.483 61.7084 365.675C61.2666 365.692 60.8 365.704 60.3166 365.704Z" fill="black"/>
<path d="M117.742 196.875C117.325 196.875 116.909 196.771 116.538 196.567C115.913 196.225 115.467 195.629 115.309 194.937L111.317 177.612C111.042 176.421 111.671 175.204 112.804 174.737C120.754 171.479 126.888 168.392 132.821 165.4L133.013 165.304C137.579 163 142.759 160.387 148.488 159.95C149.221 159.892 149.942 160.162 150.459 160.687C150.975 161.212 151.234 161.937 151.167 162.667C150.759 167.179 149.534 171.487 148.35 175.654L148.317 175.775C147.546 178.483 146.584 181.85 144.325 184.483C142.475 186.642 139.996 188.029 137.592 189.2C131.434 192.208 124.921 194.5 118.621 196.712L118.571 196.729C118.3 196.829 118.021 196.875 117.742 196.875ZM116.663 178.546L119.55 191.087C124.892 189.196 130.321 187.192 135.392 184.712C137.184 183.837 139.2 182.775 140.525 181.233C142.071 179.429 142.8 176.879 143.504 174.412L143.538 174.292C144.396 171.267 145.221 168.362 145.746 165.437C142.134 166.304 138.65 168.058 135.258 169.771L135.067 169.867C129.542 172.65 123.846 175.521 116.663 178.546Z" fill="black"/>
<path d="M102.808 193.304C102.8 193.304 102.792 193.304 102.783 193.304C102.1 193.296 101.446 193.008 100.979 192.508C98.5625 189.917 96.7625 186.9 95.625 183.542C94.4875 180.187 94.0875 176.696 94.4334 173.167C94.5 172.5 94.829 171.883 95.354 171.462L108.167 161.129C108.729 160.679 109.454 160.487 110.162 160.612C110.871 160.737 111.492 161.158 111.867 161.775C112.962 163.571 112.812 166.033 111.575 167.3L110.137 172.437C110.121 172.492 110.104 172.542 110.087 172.596C109.996 172.858 109.95 173.129 109.95 173.404C110.029 173.517 110.512 174.025 112.492 174.442C113.221 174.596 113.842 175.067 114.187 175.725C114.533 176.383 114.571 177.162 114.283 177.85C111.996 183.333 108.742 188.279 104.604 192.542C104.133 193.029 103.483 193.304 102.808 193.304ZM99.3334 174.679C99.2165 177.146 99.5625 179.587 100.358 181.942C100.971 183.75 101.825 185.437 102.908 186.975C105.133 184.354 107.017 181.487 108.537 178.408C106.454 177.442 105.262 176 104.983 174.108C104.975 174.046 104.967 173.987 104.962 173.925C104.892 172.933 105.017 171.958 105.337 171.021L105.767 169.487L99.3334 174.679Z" fill="black"/>
<path d="M105.291 291.937C105.246 291.937 105.204 291.937 105.158 291.933C103.779 291.862 102.721 290.683 102.796 289.304C103.808 270.15 105.112 250.658 106.371 231.808C107.521 214.587 108.712 196.779 109.683 179.237C109.758 177.858 110.941 176.808 112.316 176.879C113.696 176.954 114.75 178.133 114.675 179.512C113.704 197.083 112.512 214.908 111.358 232.142C110.1 250.975 108.796 270.45 107.787 289.567C107.712 290.904 106.608 291.937 105.291 291.937Z" fill="black"/>
<path d="M195.258 332.425C195.246 332.425 195.229 332.425 195.217 332.425L158.942 331.829C157.704 331.808 156.667 330.883 156.504 329.654C151.567 292.058 149.842 253.783 151.379 215.896C151.433 214.516 152.6 213.441 153.979 213.5C155.358 213.554 156.433 214.721 156.375 216.1C154.879 252.987 156.496 290.241 161.183 326.866L192.729 327.383C192.704 324.704 192.683 322.046 192.658 319.408C192.4 288.016 192.158 258.362 184.804 226.671C184.492 225.325 185.329 223.983 186.675 223.671C188.017 223.358 189.362 224.196 189.675 225.541C197.15 257.771 197.396 287.691 197.658 319.366C197.687 322.841 197.717 326.346 197.754 329.896C197.762 330.571 197.496 331.221 197.017 331.696C196.554 332.162 195.917 332.425 195.258 332.425Z" fill="black"/>
<path d="M161.529 343.104C160.817 343.104 160.109 342.908 159.496 342.537C159.309 342.425 159.138 342.287 158.988 342.129C158.621 341.741 158.338 341.296 158.154 340.796C157.992 340.362 157.913 339.904 157.913 339.437C157.684 336.004 157.921 332.554 158.617 329.183C158.896 327.829 160.221 326.962 161.571 327.241C162.925 327.521 163.792 328.841 163.513 330.196C162.975 332.796 162.754 335.45 162.85 338.1L189.592 338.025C189.592 337.979 189.592 337.929 189.588 337.875L189.288 330.208C189.234 328.829 190.309 327.666 191.688 327.612C193.075 327.546 194.229 328.633 194.284 330.012L194.584 337.691C194.613 338.575 194.692 341.212 192.488 342.462C192.425 342.496 192.363 342.529 192.296 342.562C191.559 342.9 190.742 343.058 189.929 343.016L161.771 343.096C161.692 343.1 161.609 343.104 161.529 343.104Z" fill="black"/>
<path d="M136.125 296.104C126.479 296.104 116.213 295.208 105.125 293.408C96.3501 294.416 87.6001 293.621 79.8001 291.104C78.6251 290.725 76.9626 290.046 76.0417 288.533C75.1251 287.025 75.2792 285.367 75.3711 284.375C77.2167 264.562 79.0711 244.75 80.9251 224.942C81.3211 220.708 81.3917 215.583 78.3917 213.512C77.2542 212.729 76.9711 211.171 77.7586 210.033C78.5417 208.896 80.1001 208.612 81.2376 209.4C86.3667 212.95 86.4292 219.821 85.9042 225.408C84.0501 245.221 82.1961 265.029 80.3501 284.841C80.3292 285.075 80.2751 285.654 80.3167 285.908C80.4251 285.983 80.6961 286.142 81.3336 286.346C88.5542 288.671 96.7001 289.383 104.879 288.4C105.113 288.371 105.35 288.375 105.579 288.417C123.404 291.333 138.996 291.867 153.246 290.05C154.613 289.879 155.867 290.846 156.042 292.212C156.217 293.583 155.246 294.833 153.879 295.008C148.184 295.742 142.279 296.104 136.125 296.104Z" fill="black"/>
<path d="M77.9163 325.854C77.8373 325.854 77.7582 325.85 77.6788 325.841C76.0998 325.691 74.4038 325.391 72.7663 325.104C71.6248 324.904 70.5457 324.712 69.6248 324.596L63.4413 323.716C61.3498 323.462 59.9498 323.266 58.5957 323.083C57.1623 322.887 55.8082 322.7 53.6832 322.441C52.3413 322.279 51.3707 321.079 51.4957 319.733C53.2457 300.412 55.5207 280.883 58.2623 261.687C60.5788 245.416 63.4163 228.083 68.4457 211.562C74.4248 191.996 82.6038 179.933 94.1913 173.596C95.4038 172.933 96.9207 173.379 97.5832 174.591C98.2457 175.804 97.7998 177.321 96.5873 177.983C86.2207 183.654 78.7957 194.787 73.2248 213.021C68.2957 229.216 65.4957 246.321 63.2082 262.391C60.5957 280.708 58.4038 299.325 56.6913 317.775C57.6582 317.9 58.4748 318.012 59.2788 318.125C60.6207 318.308 62.0038 318.5 64.0707 318.754C64.0873 318.754 64.1038 318.758 64.1207 318.762L70.2957 319.641C71.2998 319.771 72.4332 319.971 73.6332 320.183C74.4038 320.321 75.1832 320.458 75.9457 320.579C78.0748 310.321 79.6788 299.858 80.7163 289.45C80.8538 288.075 82.0788 287.075 83.4498 287.208C84.8248 287.346 85.8248 288.571 85.6913 289.946C84.5582 301.308 82.7663 312.725 80.3538 323.887C80.1082 325.041 79.0832 325.854 77.9163 325.854Z" fill="black"/>
<path d="M73.7501 335.046C73.5501 335.046 73.3501 335.025 73.1501 334.983C71.3876 334.708 68.7751 334.458 66.0085 334.191C60.8791 333.7 55.5791 333.187 52.6835 332.308C51.5585 331.966 50.8251 330.887 50.921 329.716C51.1751 326.571 51.4626 323.004 53.0126 319.737C53.6041 318.491 55.096 317.962 56.346 318.554C57.5916 319.146 58.1251 320.637 57.5291 321.887C56.6626 323.712 56.3085 325.829 56.0916 327.975C58.8291 328.479 62.8501 328.866 66.4876 329.216C68.6126 329.421 70.6501 329.616 72.3416 329.829C73.0541 327.729 73.5041 325.554 73.6835 323.337C73.796 321.962 75.0041 320.937 76.3791 321.05C77.7541 321.162 78.7791 322.366 78.6666 323.746C78.4041 326.983 77.6541 330.15 76.4376 333.158C76.2666 333.633 75.9791 334.058 75.596 334.391C75.4626 334.508 75.3166 334.608 75.1666 334.691C74.7251 334.925 74.2416 335.046 73.7501 335.046Z" fill="black"/>
</g>
</g>
<path d="M109.088 160.833C89.7166 162.183 70.3084 158.846 52.5 151.1C52.8459 137.063 54.6459 123.1 57.875 109.434C59.6209 102.034 61.8125 94.6541 65.55 87.9001C68.8834 81.9041 73.3416 76.5126 77.9875 71.3085C82.6334 66.1041 87.5209 61.0085 93.4875 57.1001C109.808 46.4085 133.117 46.3666 150.433 55.6626L158.604 58.6541C167.733 60.7751 172.408 69.9041 174.979 78.1876C183 103.992 182.617 131.263 182.175 158.079C170.575 161.159 158.533 162.221 146.571 161.221L109.088 160.833Z" fill="black"/>
<path d="M112.141 166.875C111.941 162.533 111.983 160.271 112.258 155.933C107.058 158.058 101.308 157.183 95.9499 156.25C90.8124 155.346 86.0084 153.571 82.129 149.962C74.8499 143.183 72.9165 132.608 73.9584 123.092C74.3749 119.312 75.9834 113.071 78.6709 106.158L83.704 98.8C106.304 108.508 125.241 111.946 125.696 109.592C125.833 110.083 141.054 89.275 141.287 88.8584C141.316 88.8165 141.412 88.825 141.4 88.8584C134.654 118.112 142.491 120.904 145.083 123.275L149.066 123.854C153.846 119.654 156.658 119.092 159.796 120.675C164.262 122.929 164.933 127.696 163.962 131.7C162.912 136.117 160.112 139.925 156.521 142.637C154.708 143.983 152.733 145.104 150.646 145.971C149.621 146.404 148.575 146.787 147.512 147.121C146.316 147.5 145.108 147.487 144.546 148.654C142.071 153.812 141.016 157.458 141.5 163.158" fill="white"/>
<path d="M145.083 124.833C144.479 124.833 143.875 124.617 143.396 124.179C143.233 124.029 143 123.85 142.733 123.638C141.058 122.317 138.25 120.108 136.95 114.442C135.991 110.275 135.979 104.896 136.921 98.1416C136.287 99 135.8 99.6585 135.583 99.95C133.429 102.858 131.595 105.3 130.279 107.017C129.495 108.038 128.875 108.829 128.429 109.375C128.183 109.679 127.941 109.975 127.683 110.238C127.395 110.654 127 111 126.512 111.258C124.412 112.371 119.125 111.883 110.787 109.808C102.233 107.683 92.2664 104.25 82.7164 100.15C81.4499 99.6041 80.8624 98.1335 81.408 96.8666C81.9539 95.6 83.4249 95.0125 84.6914 95.5585C104.745 104.175 120.62 107.246 123.958 106.85C124.037 106.775 124.116 106.704 124.204 106.642C126.079 104.513 138.058 88.2335 139.17 86.5835C139.191 86.55 139.216 86.5125 139.241 86.4791C139.987 85.421 141.412 85.0791 142.558 85.6875C143.57 86.225 144.087 87.3875 143.833 88.4791C138.045 113.583 143.3 117.721 145.825 119.708C146.158 119.971 146.47 120.217 146.77 120.492C147.787 121.425 147.858 123.004 146.929 124.025C146.433 124.558 145.758 124.833 145.083 124.833ZM143.329 89.35C143.312 89.3791 143.291 89.4085 143.266 89.4375C143.291 89.4125 143.312 89.3835 143.329 89.35ZM139.166 86.596C139.137 86.6416 139.116 86.6791 139.108 86.696C139.125 86.6625 139.145 86.6291 139.166 86.596Z" fill="black"/>
<path d="M155.338 164.079C152.35 164.079 149.363 163.954 146.367 163.704C144.992 163.588 143.967 162.379 144.083 161.004C144.2 159.629 145.408 158.604 146.783 158.721C157.863 159.646 168.929 158.771 179.713 156.121C180.129 130.421 180.371 103.925 172.596 78.921C169.388 68.5791 164.492 62.5791 158.042 61.0791C156.696 60.7666 155.858 59.425 156.171 58.0791C156.483 56.7335 157.825 55.896 159.171 56.2085C167.471 58.1375 173.596 65.2791 177.367 77.4375C185.567 103.825 185.113 131.421 184.675 158.113C184.658 159.229 183.896 160.2 182.817 160.488C173.813 162.875 164.6 164.079 155.338 164.079Z" fill="black"/>
<path d="M100.775 163.621C83.8789 163.621 67.0039 160.133 51.5039 153.391C50.5705 152.987 49.9749 152.054 50.0039 151.037C50.3539 136.854 52.183 122.662 55.4455 108.858C57.0414 102.087 59.233 94.1583 63.3664 86.6874C66.933 80.2749 71.6039 74.704 76.1249 69.6415C81.4914 63.6333 86.2624 58.8415 92.1205 55.0083C100.425 49.5708 110.596 46.5874 121.546 46.3874C132.075 46.1958 142.762 48.704 151.621 53.4624C152.837 54.1165 153.296 55.6334 152.641 56.8459C151.987 58.0624 150.475 58.5208 149.258 57.8665C132.312 48.7708 109.946 49.3124 94.8664 59.1915C89.4664 62.729 84.9624 67.2583 79.8624 72.9749C75.533 77.8249 71.0705 83.1333 67.7455 89.1165C63.908 96.0499 61.8374 103.571 60.3205 110.008C57.2664 122.929 55.4999 136.196 55.0624 149.471C72.0124 156.554 90.5955 159.616 108.929 158.341C110.304 158.241 111.5 159.283 111.596 160.662C111.691 162.041 110.654 163.233 109.275 163.329C106.437 163.525 103.604 163.621 100.775 163.621Z" fill="black"/>
<path d="M141.496 163.496C140.213 163.496 139.117 162.513 139.009 161.204C138.479 154.929 139.7 152.058 142.292 146.658C143.242 144.688 145.038 144.254 146.113 143.996C146.346 143.938 146.567 143.888 146.759 143.825C147.75 143.513 148.729 143.154 149.675 142.754C151.588 141.963 153.384 140.942 155.034 139.717C158.359 137.204 160.675 133.825 161.534 130.208C161.975 128.388 162.575 123.963 158.671 121.992C156.967 121.129 155.296 120.792 150.717 124.817C149.679 125.729 148.1 125.625 147.188 124.588C146.275 123.55 146.379 121.971 147.417 121.058C153.992 115.279 157.792 115.946 160.921 117.525C165.771 119.975 167.867 125.279 166.392 131.371C165.267 136.104 162.296 140.492 158.029 143.713C156.038 145.192 153.879 146.417 151.604 147.358C150.525 147.813 149.396 148.229 148.259 148.583C147.913 148.692 147.579 148.775 147.288 148.846C147.104 148.892 146.867 148.946 146.713 148.996C144.317 153.996 143.575 155.875 143.992 160.775C144.109 162.15 143.088 163.358 141.713 163.475C141.638 163.492 141.567 163.496 141.496 163.496Z" fill="black"/>
<path d="M112.142 167.184C110.813 167.184 109.709 166.138 109.646 164.796C109.513 161.863 109.484 160.388 109.567 158.375C104.559 159.342 99.4585 158.454 95.5251 157.767C89.171 156.646 84.2335 154.384 80.4292 150.846C73.4376 144.334 70.1751 133.775 71.4751 121.871C71.9626 117.459 73.7792 110.892 76.3417 104.304C76.8417 103.017 78.2917 102.379 79.5792 102.879C80.8667 103.379 81.5042 104.829 81.0042 106.117C78.1626 113.425 76.7876 119.329 76.446 122.417C75.3167 132.729 78.0085 141.759 83.8376 147.184C86.9542 150.084 90.9417 151.879 96.3876 152.838C101.954 153.809 106.925 154.463 111.317 152.667C112.113 152.342 113.021 152.45 113.721 152.95C114.421 153.454 114.813 154.279 114.759 155.138C114.492 159.329 114.446 160.254 114.646 164.554C114.709 165.934 113.642 167.104 112.263 167.167C112.217 167.184 112.179 167.184 112.142 167.184Z" fill="black"/>
<path d="M91.0123 116.708C92.6232 116.708 93.9288 115.123 93.9288 113.167C93.9288 111.211 92.6232 109.625 91.0123 109.625C89.4013 109.625 88.0957 111.211 88.0957 113.167C88.0957 115.123 89.4013 116.708 91.0123 116.708Z" fill="black"/>
<path d="M105.179 117.687C106.79 117.687 108.096 116.102 108.096 114.146C108.096 112.19 106.79 110.604 105.179 110.604C103.569 110.604 102.263 112.19 102.263 114.146C102.263 116.102 103.569 117.687 105.179 117.687Z" fill="black"/>
</g>
<defs>
<clipPath id="clip0_846_11985">
<rect width="250" height="600" fill="white"/>
</clipPath>
<clipPath id="clip1_846_11985">
<rect width="250" height="250" fill="white" transform="translate(0 159.375)"/>
</clipPath>
</defs>
</svg>
