<svg width="250" height="600" viewBox="0 0 250 600" fill="none" xmlns="http://www.w3.org/2000/svg">
<g clip-path="url(#clip0_846_12234)">
<path d="M132.732 536.232C133.295 542.255 132.52 546.114 130.378 552.696C127.69 561.494 111.628 569.345 121.628 579.2C122.045 579.6 129.524 585.322 142.461 581.61C143.399 581.135 144.374 580.732 145.378 580.403C146.795 579.741 148.111 578.891 149.286 577.878C156.249 572.196 160.761 564.217 161.94 555.499C162.832 549.15 163.578 541.504 163.045 536.067" fill="black"/>
<path d="M92.4993 528.473C92.4702 529.433 92.4702 530.637 92.0533 531.441C91.6368 532.244 91.2202 533.448 90.8033 534.251C85.3868 541.078 78.3033 545.094 71.6368 550.716C67.4702 554.33 63.7202 561.156 68.7202 565.573C78.4493 569.834 93.8868 567.28 97.0533 565.975C99.9702 564.77 102.887 563.967 105.387 562.361C117.053 554.33 116.22 539.873 117.137 527.919" fill="black"/>
<path d="M125.993 525.887C126.214 529.02 126.63 531.831 126.63 535.043C140.38 535.846 154.547 536.248 168.297 535.445C174.218 534.971 180.005 533.477 185.38 531.028C191.63 491.273 192.047 450.715 188.297 410.157C188.297 408.953 188.714 407.346 188.297 406.142C187.88 404.134 187.88 402.528 187.464 400.52V396.504C183.297 359.159 177.464 323.018 169.964 286.877C140.797 287.681 112.047 289.287 82.8804 290.09C69.9888 346.614 65.3598 404.599 69.1304 462.36C69.0598 464.243 69.2013 466.127 69.5473 467.982C70.3304 479.222 72.1473 490.377 74.9638 501.312C75.7973 504.123 76.6304 507.335 77.8804 510.146C79.9638 515.367 82.8804 520.587 84.9638 525.807C92.8804 527.815 101.214 528.217 109.547 527.815C114.13 527.413 119.13 527.413 123.914 526.285L125.993 525.887Z" fill="black"/>
<path fill-rule="evenodd" clip-rule="evenodd" d="M167.663 287.303C182.92 365.005 195.346 448.085 183.236 529.381C174.909 532.957 165.15 533.372 156.617 533.469C147.484 533.565 138.246 533.34 129.125 532.802C128.3 523.594 127.425 514.31 126.575 505.311C122.796 465.275 118.892 423.878 119.075 383.293C119.146 369.017 117.625 354.918 106.146 348.453C104.954 347.782 103.421 348.168 102.725 349.316C102.025 350.465 102.429 351.943 103.621 352.613C112.913 357.845 114.138 370.438 114.075 383.268C113.892 424.08 117.808 465.589 121.595 505.734L121.885 508.82C122.354 513.806 122.829 518.866 123.297 523.937C111.253 525.816 99.055 525.853 87.0087 524.048C73.9087 499.099 71.8337 474.222 70.9253 452.815C68.6294 398.443 73.4044 343.879 85.1169 290.644C85.4044 289.343 84.5419 288.066 83.1919 287.789C81.8419 287.512 80.5169 288.343 80.2294 289.644C68.4294 343.273 63.6212 398.239 65.9294 453.012C66.8712 475.246 69.0587 501.155 83.1419 527.345C83.5044 528.02 84.1753 528.489 84.9503 528.614C86.6191 528.881 88.2903 529.114 89.9637 529.313C89.9415 529.74 89.8997 530.181 89.8128 530.361C89.5778 530.818 89.364 531.329 89.1553 531.829L89.1044 531.951C88.9544 532.316 88.7959 532.69 88.6587 532.983C85.2047 537.271 81.0131 540.42 76.5759 543.752L76.4753 543.828C74.3481 545.427 72.1453 547.083 69.9628 548.925C67.0087 551.487 63.8459 555.844 63.8253 560.39C63.8128 563.08 64.9209 565.485 67.0294 567.349C67.2209 567.521 67.4419 567.662 67.6837 567.766C72.1128 569.706 77.4794 570.364 82.5003 570.364C89.5462 570.364 95.9084 569.067 98.0378 568.196C98.8544 567.859 99.7044 567.542 100.525 567.236L100.552 567.227C102.635 566.45 104.788 565.649 106.771 564.373C106.785 564.363 106.8 564.354 106.815 564.345C106.822 564.34 106.83 564.335 106.838 564.329C117.982 556.659 118.699 543.971 119.332 532.775L119.356 532.356C119.415 531.315 119.472 530.311 119.538 529.322C120.94 529.155 122.34 528.964 123.738 528.748C123.937 530.927 124.133 533.105 124.325 535.276C124.434 536.464 125.417 537.396 126.65 537.476C127.88 537.556 129.111 537.63 130.345 537.698C130.663 542.749 129.874 546.205 127.996 551.973C127.992 551.985 127.988 552.001 127.984 552.013C127.217 554.519 124.9 557.245 122.659 559.88L122.634 559.908C120.142 562.843 117.567 565.874 116.454 569.232C115.079 573.388 116.217 577.312 119.863 580.9C119.921 580.963 124.909 585.272 134.025 585.272C136.721 585.272 139.779 584.894 143.179 583.913C143.333 583.869 143.484 583.809 143.625 583.738C144.446 583.322 145.304 582.966 146.183 582.681C146.279 582.647 146.379 582.613 146.471 582.569C148.088 581.813 149.588 580.844 150.929 579.694C158.371 573.613 163.163 565.132 164.421 555.82C165.453 548.485 165.876 542.499 165.685 537.977C172.547 537.514 179.674 536.364 186.163 533.389C186.415 533.272 186.638 533.12 186.828 532.942C187.446 532.583 187.897 531.969 188.009 531.228C200.517 448.86 187.983 364.885 172.575 286.408C172.321 285.098 171.013 284.243 169.654 284.488C168.296 284.737 167.404 285.994 167.663 287.303ZM114.494 529.818C111.262 530.071 108.025 530.196 104.788 530.196C101.503 530.196 98.219 530.066 94.9406 529.807C94.88 530.693 94.7284 531.652 94.2794 532.517C94.1287 532.808 93.9528 533.226 93.7784 533.641L93.7378 533.738L93.6869 533.859C93.4781 534.359 93.2644 534.871 93.0294 535.328C92.9584 535.465 92.8753 535.593 92.7794 535.713C88.9044 540.597 84.1962 544.134 79.6419 547.556L79.5087 547.656C77.4459 549.207 75.3147 550.809 73.2753 552.531C71.0794 554.434 68.8337 557.627 68.8212 560.414C68.8169 561.63 69.2462 562.658 70.1337 563.546C79.1253 567.236 93.5087 564.815 96.0669 563.763C96.9091 563.413 97.744 563.103 98.5544 562.801L98.7209 562.739C100.629 562.028 102.438 561.353 103.963 560.382C113.125 554.049 113.742 543.09 114.338 532.493C114.387 531.611 114.437 530.712 114.494 529.818ZM135.364 537.944C135.633 543.414 134.697 547.476 132.771 553.398C131.718 556.827 129.083 559.926 126.537 562.922L126.525 562.936C120.875 569.582 118.859 572.975 123.359 577.456C123.813 577.802 130.3 582.5 141.529 579.363C142.463 578.906 143.433 578.509 144.421 578.175C145.579 577.621 146.659 576.914 147.621 576.083C147.629 576.075 147.638 576.068 147.646 576.061C147.654 576.054 147.663 576.047 147.671 576.038C154.171 570.734 158.358 563.329 159.463 555.185C160.442 548.226 160.856 542.42 160.687 538.21C159.327 538.25 157.987 538.272 156.675 538.288C155.263 538.3 153.846 538.308 152.429 538.308C146.75 538.308 141.045 538.187 135.364 537.944Z" fill="black"/>
<g clip-path="url(#clip1_846_12234)">
<path d="M141.405 159.375C141.78 163.583 143.5 173.092 149.905 171.667L150.592 172.708C150.28 179.238 146.971 183.842 141.788 188.612C136.521 193.383 129.805 196.25 122.717 196.754C116.467 197.213 109.821 195.717 105.146 191.525C100.471 187.333 98.013 181.525 101.109 176.546H101.559C102.967 176.587 104.263 175.85 105.455 175.1C106.971 174.142 110.1 170.212 111.038 169.083C112.288 167.462 112.796 161.317 113.438 159.375H141.405Z" fill="white"/>
<path d="M61.4225 363.396C59.3806 363.33 57.4015 362.692 55.7015 361.559C54.0015 360.425 52.6556 358.842 51.81 356.984C52.2265 350.317 53.4765 342.4 48.06 336.984C47.2265 333.65 49.7265 331.15 52.6431 330.063L64.3431 331.58L61.4225 363.396Z" fill="white"/>
<path d="M64.3456 331.579C60.6415 331.554 56.958 330.992 53.4121 329.912C53.6621 326.808 53.9331 323.621 55.2706 320.808L65.5746 321.958L64.3456 331.579Z" fill="white"/>
<path d="M161.067 329.683C160.409 332.871 160.192 336.129 160.417 339.375C160.409 339.562 160.434 339.75 160.5 339.925C160.567 340.1 160.667 340.262 160.796 340.4C161.059 340.558 161.367 340.629 161.671 340.596L190.005 340.516C190.434 340.55 190.863 340.471 191.255 340.291C192.055 339.837 192.117 338.729 192.088 337.791L191.788 330.112L161.067 329.683Z" fill="white"/>
<path d="M65.8613 321.504C61.8072 320.734 58.0572 320.734 53.8906 319.9C56.8072 290.734 59.3072 262.817 65.5572 233.234C68.8906 218.234 71.8072 204.484 79.7237 191.15C79.7237 191.15 82.7238 186.858 83.8906 185.546L85.9988 182.063C85.4406 180.434 86.1156 178.563 87.3363 177.35C88.5572 176.138 90.2531 175.496 91.9197 175.138C92.6947 174.971 93.5531 174.821 94.0488 174.204C94.3406 173.775 94.5197 173.275 94.5738 172.759C95.1822 169.367 96.0781 165.258 99.3572 164.208C102.032 163.35 104.916 165.196 106.441 167.563C107.966 169.929 108.524 172.759 109.599 175.354C110.674 177.95 112.516 180.529 115.261 181.146L120.186 182.688C129.286 180.188 136.261 173.125 143.636 167.238C145.595 165.679 147.653 164.159 150.041 163.409C152.428 162.659 155.224 162.788 157.203 164.321C159.182 165.854 159.936 168.988 158.42 170.988C159.557 170.342 160.845 170.009 162.153 170.021C163.461 170.034 164.741 170.388 165.866 171.054C166.991 171.721 167.92 172.671 168.561 173.809C169.203 174.946 169.532 176.238 169.516 177.542L170.349 185.542C176.799 195.329 181.382 206.163 184.882 217.454L186.207 221.459C193.328 252.113 194.607 283.729 195.078 315.254L195.495 315.934C198.061 325.325 207.645 349.075 209.728 359.075C209.795 359.929 209.653 360.788 209.311 361.575C205.145 366.575 198.061 365.325 192.582 367.025L173.22 370.879C145.507 375.85 117.695 377.067 89.9322 372.384L84.6947 371.771L66.7781 368.342C65.1613 368.034 63.3863 367.621 62.4406 366.259C61.6572 365.142 61.6613 363.671 61.7197 362.309C61.9572 356.892 62.5822 351.517 63.2072 346.138L66.0612 321.529L65.8613 321.504Z" fill="white"/>
<path d="M164.468 341.042C160.451 342.337 155.756 347.162 159.151 351.612C161.018 354.066 163.839 355.387 166.426 356.929C168.418 358.112 168.947 362.112 169.718 364.229C171.668 369.566 175.456 373.958 181.668 373.542C187.985 373.125 191.914 367.746 193.114 361.946C194.414 355.654 192.197 347.396 191.151 341.175L164.468 341.042Z" fill="white"/>
<path d="M128.783 197.683C128.871 199.008 129.971 200.021 131.275 200.021C131.333 200.021 131.388 200.021 131.438 200.008C142.583 199.279 153.496 195.787 163 189.921C164.963 188.711 166.608 187.447 167.933 186.13C168 186.397 168.112 186.657 168.271 186.9C174.037 195.65 178.692 205.883 182.504 218.179C182.838 219.254 183.825 219.942 184.892 219.942C185.138 219.942 185.388 219.904 185.629 219.829C186.95 219.421 187.688 218.021 187.279 216.7C183.325 203.946 178.475 193.3 172.446 184.15C171.976 183.435 171.202 183.041 170.407 183.026C171.448 181.285 171.984 179.47 172.008 177.587C172.029 175.842 171.587 174.117 170.733 172.596C169.879 171.075 168.633 169.8 167.129 168.912C165.629 168.025 163.912 167.55 162.167 167.533C162 167.533 161.837 167.533 161.671 167.542C161.429 165.583 160.417 163.667 158.725 162.358C156.262 160.45 152.729 159.954 149.283 161.037C146.446 161.929 144.075 163.7 142.071 165.296C139.873 167.049 138.032 168.77 136.253 170.435L136.183 170.5C131.969 174.444 128.64 177.559 122.787 179.167C121.454 179.533 120.671 180.908 121.037 182.242C121.404 183.575 122.783 184.358 124.112 183.992C131.158 182.058 135.262 178.217 139.604 174.15L139.672 174.087C141.38 172.49 143.148 170.837 145.187 169.208C146.912 167.837 148.763 166.442 150.783 165.808C152.642 165.225 154.512 165.417 155.667 166.312C156.654 167.079 157.033 168.683 156.421 169.492C155.704 170.437 155.75 171.758 156.533 172.65C157.317 173.542 158.617 173.762 159.65 173.179C160.392 172.758 161.233 172.537 162.083 172.537H162.125C162.992 172.542 163.846 172.779 164.592 173.221C165.337 173.662 165.954 174.292 166.379 175.05C166.804 175.808 167.025 176.662 167.012 177.529C166.979 180.242 164.746 182.979 160.379 185.671C151.567 191.112 141.446 194.346 131.113 195.025C129.738 195.117 128.692 196.304 128.783 197.683Z" fill="black"/>
<path fill-rule="evenodd" clip-rule="evenodd" d="M81.4764 373.675C81.3224 373.675 81.1639 373.658 81.0058 373.629L66.3224 370.817C64.6808 370.487 61.9764 369.941 60.4099 367.716C59.9583 367.073 59.6699 366.394 59.4892 365.706C57.6471 365.386 55.8861 364.686 54.3183 363.637C52.2308 362.246 50.5764 360.304 49.5389 358.021C49.3683 357.646 49.2933 357.237 49.3183 356.829C49.3577 356.174 49.4083 355.504 49.4595 354.826L49.4683 354.712C49.9014 348.858 50.3474 342.804 46.2974 338.75C45.9764 338.429 45.7514 338.029 45.6389 337.587C44.6549 333.651 46.8236 329.879 51.068 328.005C51.257 325.974 51.543 323.83 52.2199 321.746C51.6539 321.229 51.3361 320.462 51.418 319.65C51.5992 317.844 51.778 316.041 51.9558 314.242L52.0836 312.951C54.7795 285.806 57.3264 260.161 63.1264 232.712L63.3974 231.491C66.6264 216.937 69.6805 203.191 77.5889 189.867C77.6224 189.812 77.6555 189.762 77.6889 189.712L77.7345 189.647C78.2133 188.966 80.8558 185.207 82.0389 183.879C82.483 183.378 83.0836 183.099 83.7017 183.048C83.6802 182.991 83.6592 182.933 83.6389 182.875C82.8014 180.437 83.5639 177.575 85.5808 175.575C86.9933 174.175 88.8933 173.233 91.4014 172.692L91.5474 172.658C91.7099 172.625 91.9264 172.579 92.0889 172.533C92.0889 172.527 92.0911 172.517 92.0911 172.517C92.0911 172.517 92.0933 172.506 92.0933 172.5C92.1014 172.433 92.1099 172.371 92.1224 172.308L92.1245 172.297C92.733 168.958 93.7486 163.386 98.6014 161.825C101.493 160.9 105.839 161.887 108.568 166.229C108.863 166.698 109.125 167.174 109.362 167.655C109.855 166.581 111.061 165.976 112.247 166.279C113.585 166.617 114.397 167.979 114.055 169.317C113.679 170.813 113.076 171.814 111.514 173.343C111.644 173.7 111.777 174.049 111.918 174.392C112.506 175.804 113.793 178.246 115.818 178.704C117.164 179.008 118.01 180.346 117.71 181.692C117.406 183.037 116.068 183.883 114.722 183.583C111.589 182.879 108.951 180.296 107.297 176.312C106.889 175.329 106.551 174.342 106.231 173.383L106.215 173.337C105.663 171.713 105.14 170.175 104.331 168.892C103.393 167.4 101.564 166.129 100.126 166.587C98.3014 167.175 97.5808 170.254 97.0558 173.121C96.9474 174.008 96.6264 174.862 96.1264 175.604C96.0889 175.658 96.0474 175.712 96.0058 175.767C94.9839 177.037 93.5524 177.344 92.5983 177.548L92.5889 177.55L92.4558 177.579C90.9349 177.908 89.8099 178.425 89.1058 179.121C88.4849 179.737 88.1683 180.654 88.3724 181.25C88.5639 181.808 89.1974 182.408 89.7889 182.917C95.1558 187.617 101.685 190.762 108.685 192.021C110.043 192.266 110.947 193.566 110.701 194.925C110.476 196.133 109.422 196.983 108.239 196.983C108.093 196.983 107.943 196.971 107.793 196.941C99.9017 195.521 92.5389 191.975 86.5058 186.692C86.4161 186.614 86.3258 186.535 86.2349 186.454C86.1295 186.723 85.9755 186.977 85.7724 187.204C84.9139 188.167 82.693 191.283 81.8389 192.5C74.3724 205.112 71.4099 218.45 68.2764 232.575L68.0099 233.771C62.2655 260.955 59.732 286.495 57.0495 313.536L57.0474 313.558C56.9055 314.975 56.7639 316.396 56.6224 317.821C57.868 317.996 59.1014 318.125 60.3805 318.254L60.448 318.261C61.5724 318.376 62.7186 318.493 63.8914 318.651L65.7992 302.203C69.228 272.854 72.7736 242.505 79.6724 213.225C79.9889 211.883 81.3349 211.046 82.6808 211.366C84.0224 211.683 84.8558 213.029 84.5389 214.375C77.7049 243.385 74.1761 273.596 70.763 302.815L65.6989 346.476C65.0914 351.715 64.4636 357.128 64.2264 362.446C64.1974 363.108 64.1433 364.35 64.4974 364.85C64.9139 365.442 66.3974 365.742 67.2808 365.917L81.9389 368.721C83.2933 368.979 84.1849 370.292 83.9224 371.646C83.7014 372.842 82.6558 373.675 81.4764 373.675ZM50.4099 335.821C50.3345 333.917 52.4702 332.839 53.303 332.491C56.1783 333.317 59.1292 333.827 62.1105 334.009L60.7174 346.021C60.1692 350.759 59.6042 355.64 59.3211 360.533C58.5364 360.293 57.7874 359.939 57.0974 359.479C55.9514 358.712 55.0099 357.683 54.3558 356.475C54.3742 356.181 54.3961 355.887 54.418 355.591C54.4308 355.422 54.4436 355.25 54.4558 355.079L54.4561 355.072C54.9061 348.974 55.462 341.435 50.4099 335.821ZM63.3152 323.62L62.6874 329.034C60.4611 328.915 58.2505 328.588 56.0849 328.058C56.262 326.28 56.5283 324.521 57.1002 322.927C58.0421 323.043 58.9646 323.137 59.8724 323.229L60.0645 323.249C61.1702 323.363 62.243 323.474 63.3152 323.62Z" fill="black"/>
<path fill-rule="evenodd" clip-rule="evenodd" d="M89.5177 374.842C101.318 376.834 113.368 377.83 125.822 377.83C140.911 377.83 156.592 376.363 173.101 373.433C175.341 375.157 177.977 376.067 180.881 376.067C181.193 376.067 181.514 376.059 181.835 376.034C186.252 375.744 190.093 373.343 192.666 369.516C192.885 369.508 193.105 369.471 193.326 369.409C194.88 368.925 196.664 368.7 198.547 368.467C202.876 367.93 207.78 367.317 211.235 363.171C211.389 362.988 211.514 362.784 211.61 362.563C212.105 361.409 212.318 360.134 212.222 358.88C212.214 358.771 212.197 358.667 212.176 358.563C210.935 352.606 207.281 342.391 203.749 332.514L203.747 332.509C201.285 325.634 198.964 319.138 197.905 315.271C197.834 315.009 197.724 314.768 197.582 314.553C197.171 284.426 196.066 255.434 188.976 224.871C188.664 223.525 187.322 222.688 185.976 223C184.631 223.313 183.793 224.655 184.106 226C192.017 260.114 192.36 292.477 192.722 326.74V326.75L192.731 327.384L161.185 326.867C156.497 290.242 154.881 252.988 156.376 216.1C156.435 214.721 155.36 213.555 153.981 213.5C152.601 213.45 151.435 214.517 151.381 215.896C149.843 253.784 151.568 292.059 156.506 329.655C156.633 330.622 157.303 331.4 158.185 331.699C157.833 334.258 157.741 336.851 157.914 339.434C157.914 339.9 157.993 340.359 158.155 340.796C158.343 341.296 158.622 341.746 158.989 342.13C159.023 342.166 159.06 342.202 159.096 342.236C157.586 343.378 156.336 344.839 155.785 346.596C155.31 348.117 155.164 350.484 157.164 353.109C159.014 355.542 161.568 357.005 163.822 358.292C164.268 358.546 164.71 358.8 165.151 359.063C165.768 359.427 166.442 361.883 166.737 362.958L166.743 362.98C166.947 363.73 167.143 364.438 167.372 365.071C167.901 366.523 168.528 367.844 169.245 369.026C140.86 373.786 115.016 374.074 90.3471 369.913C88.9846 369.68 87.6971 370.6 87.4677 371.963C87.2386 373.321 88.1552 374.613 89.5177 374.842ZM166.826 343.078C166.576 343.792 166.007 344.385 165.231 344.634C162.914 345.384 160.947 346.838 160.556 348.092C160.481 348.33 160.285 348.959 161.139 350.08C162.376 351.704 164.282 352.795 166.298 353.949L166.301 353.95L166.642 354.146C166.998 354.35 167.355 354.555 167.706 354.763C170.056 356.157 170.89 359.199 171.561 361.643L171.564 361.655C171.739 362.3 171.91 362.913 172.068 363.355C173.418 367.059 176.143 371.388 181.501 371.042C185.022 370.809 189.272 368.163 190.668 361.434C191.738 356.26 190.77 350.692 189.834 345.302L189.781 345.001C189.685 344.446 189.59 343.894 189.497 343.342C189.479 343.232 189.467 343.123 189.464 343.014L166.826 343.078ZM193.803 341.235C194.119 341.58 194.343 342.017 194.426 342.513C194.535 343.15 194.643 343.788 194.756 344.43L194.759 344.45C195.775 350.298 196.825 356.345 195.564 362.45C195.464 362.934 195.349 363.409 195.221 363.873C196.125 363.728 197.03 363.615 197.922 363.505C201.672 363.038 204.935 362.63 207.126 360.267C207.21 359.988 207.247 359.692 207.239 359.4C206.028 353.751 202.325 343.395 199.05 334.235L198.919 333.868L198.913 333.854C198.503 332.705 198.096 331.568 197.699 330.453C197.598 330.92 197.363 331.354 197.018 331.696C196.556 332.163 195.918 332.425 195.26 332.425H195.218L194.378 332.412L194.585 337.692C194.606 338.341 194.654 339.938 193.803 341.235ZM189.372 332.329L163.208 331.9C162.895 333.95 162.776 336.027 162.851 338.1L189.593 338.025C189.593 337.996 189.593 337.965 189.592 337.932C189.591 337.914 189.59 337.895 189.589 337.875L189.372 332.329Z" fill="black"/>
</g>
<path d="M112.141 167.183C111.941 162.842 111.983 159.329 112.258 154.992C107.058 157.117 101.308 156.242 95.9499 155.308C90.8124 154.404 86.0084 152.629 82.129 149.021C74.8499 142.242 72.9165 131.667 73.9584 122.15C74.3749 118.371 75.9834 112.129 78.6709 105.217L80.204 97.7875C81.3999 87.15 88.6665 77.75 97.9834 72.4835C107.3 67.2166 118.4 65.7541 129.071 66.771C140.946 67.9041 153.083 72.4166 160.483 81.771C167.883 91.125 168.954 105.938 160.7 114.55L149.066 122.946C153.846 118.746 156.658 118.183 159.796 119.767C164.262 122.021 164.933 126.788 163.962 130.792C162.912 135.208 160.112 139.017 156.521 141.729C154.708 143.075 152.733 144.196 150.646 145.063C149.621 145.496 148.575 145.879 147.512 146.213C146.316 146.592 145.108 146.579 144.546 147.746C142.071 152.904 141.016 157.8 141.5 163.5" fill="white"/>
<path d="M187.499 152.916C185.415 149.166 183.332 145.833 182.915 141.666C182.082 133.333 184.582 125.416 185.832 117.083V111.25C184.999 107.083 184.165 103.333 182.499 99.5832C180.832 95.4163 178.332 91.2498 175.832 87.0832C174.999 84.9998 173.749 82.9163 172.082 80.4163L170.832 79.1663C164.165 68.3332 152.915 62.4998 142.082 57.9163C138.749 56.2498 135.415 54.9998 132.082 54.5832C127.499 54.1663 122.915 53.3332 118.332 53.7498C107.082 54.5832 92.9151 57.0832 88.7485 69.1663C82.082 72.9163 75.4151 77.4998 71.6651 84.5832C69.5901 88.8623 69.1445 93.7498 70.4151 98.3332C70.907 99.2707 71.3235 100.246 71.6651 101.25C72.082 102.916 73.332 104.583 74.4026 105.654L78.2401 107.479C77.9151 106.666 78.7485 105.416 79.1651 104.583C79.1651 97.9163 82.4985 91.6663 87.0819 87.0832C89.1651 84.9998 90.4151 82.4998 92.082 79.9998C92.9526 79.1707 93.932 78.4707 94.9985 77.9163C98.332 76.6663 102.082 76.2498 105.832 76.2498C107.499 76.2498 109.165 77.0832 110.832 77.0832C116.249 78.3332 120.832 79.5832 125.832 81.6663C129.174 83.2707 132.149 85.5373 134.582 88.3332C135.136 89.3998 135.836 90.3832 136.665 91.2498C141.249 97.9163 142.499 105.416 143.332 112.916C143.749 120 144.165 126.666 144.999 133.75C145.415 138.204 146.928 142.116 148.853 145.875C148.436 145.966 147.982 146.079 147.528 146.221C146.332 146.6 145.124 146.587 144.561 147.754C142.099 152.862 141.049 156.454 141.511 162.104C143.778 161.95 146.049 164.471 148.094 165.462C150.14 166.454 151.894 167.962 153.178 169.837C154.057 171.154 154.699 172.637 155.778 173.791C155.844 173.866 155.915 173.941 155.99 174.012C154.444 178.483 152.024 182.862 150.007 187.083C148.686 189.954 148.39 193.187 149.174 196.25C150.424 200 153.757 202.5 155.84 205.833C158.757 211.25 154.174 216.25 155.007 221.666C155.84 226.666 160.84 230.416 165.84 230.833C172.924 230.833 179.174 232.916 185.424 236.25C190.84 238.75 196.674 234.166 197.507 228.75C197.924 224.166 197.09 220 195.424 215.833C194.174 212.083 193.757 208.333 193.34 204.583C193.34 197.5 197.507 192.083 199.174 185.416C202.499 172.916 193.332 162.916 187.499 152.916Z" fill="black"/>
<path d="M160.047 230.833C159.697 230.833 159.342 230.758 159.005 230.604C156.826 229.604 155.009 227.996 153.751 225.954C152.497 223.912 151.88 221.566 151.967 219.171C151.967 219.154 151.967 219.141 151.972 219.125C152.08 217.208 152.634 215.471 153.167 213.796C153.747 211.979 154.297 210.258 154.076 208.733C153.813 206.891 152.484 205.279 150.947 203.412C149.467 201.616 147.938 199.762 147.105 197.375C145.134 191.704 147.942 186.237 150.417 181.416C150.584 181.087 150.755 180.762 150.917 180.441C153.972 174.4 156.892 165.708 153.422 158.629C152.722 157.191 151.763 155.846 150.755 154.416C150.192 153.621 149.609 152.796 149.059 151.937C143.155 142.729 142.23 131.733 141.338 121.096C141.213 119.625 141.092 118.162 140.955 116.708C139.992 106.4 137.734 93.6833 128.742 86.7664C125.705 84.4333 121.892 82.7208 116.38 81.2248C113.634 80.4789 110.817 79.8708 108.013 79.4123C106.651 79.1914 105.726 77.9083 105.947 76.5458C106.167 75.1833 107.455 74.2539 108.813 74.4789C111.788 74.9623 114.776 75.6083 117.688 76.3998C123.863 78.0748 128.213 80.0498 131.788 82.7998C142.313 90.8914 144.876 104.921 145.934 116.241C146.072 117.712 146.197 119.191 146.322 120.679C147.163 130.708 148.034 141.075 153.267 149.237C153.755 150 154.28 150.737 154.834 151.525C155.913 153.05 157.034 154.629 157.913 156.425C162.288 165.35 158.947 175.637 155.376 182.696C155.205 183.029 155.038 183.362 154.863 183.696C152.747 187.816 150.559 192.079 151.826 195.729C152.363 197.275 153.551 198.708 154.801 200.233C156.563 202.371 158.559 204.791 159.022 208.021C159.409 210.683 158.622 213.146 157.93 215.316C157.472 216.75 157.038 218.108 156.963 219.383C156.913 220.779 157.276 222.15 158.009 223.337C158.747 224.533 159.809 225.479 161.088 226.062C162.342 226.637 162.892 228.121 162.317 229.379C161.897 230.291 160.992 230.833 160.047 230.833Z" fill="black"/>
<path d="M74.4093 108.154C73.5924 108.154 72.7924 107.754 72.3133 107.016C68.2133 100.725 66.8008 94.4207 68.1133 88.2707C69.5843 81.3872 74.4968 75.0788 82.3258 70.0288C83.4883 69.2832 85.0343 69.6163 85.7799 70.7747C86.5258 71.9372 86.1924 73.4832 85.0343 74.2288C78.3468 78.5413 74.1883 83.7538 73.0008 89.3122C71.9758 94.1122 73.1549 99.1497 76.4968 104.287C77.2508 105.446 76.9218 106.991 75.7674 107.746C75.3468 108.025 74.8758 108.154 74.4093 108.154Z" fill="black"/>
<path d="M88.9971 71.0338C88.7221 71.0338 88.4427 70.9879 88.1677 70.892C86.8637 70.4338 86.1802 69.0088 86.6387 67.7045C89.1887 60.442 96.4221 56.617 102.043 54.6879C114.885 50.2795 130.247 50.7754 145.301 56.0838C146.605 56.542 147.289 57.9713 146.83 59.2713C146.372 60.5754 144.943 61.2588 143.643 60.8004C129.647 55.867 115.451 55.3754 103.668 59.4213C99.0927 60.992 93.2427 63.992 91.3552 69.3629C90.9927 70.392 90.0302 71.0338 88.9971 71.0338Z" fill="black"/>
<path d="M188.608 239.5C188.4 239.5 188.191 239.491 187.987 239.475C185.337 239.266 183.129 237.987 181.183 236.862C180.733 236.6 180.283 236.341 179.829 236.096C175.771 233.912 171.196 232.962 166.596 233.35C165.216 233.462 164.008 232.446 163.891 231.071C163.775 229.696 164.796 228.483 166.171 228.366C171.737 227.896 177.283 229.046 182.2 231.696C182.7 231.966 183.191 232.25 183.683 232.537C185.316 233.483 186.858 234.375 188.371 234.491C191.208 234.696 193.812 231.908 194.583 229.191C195.566 225.741 194.725 221.837 193.775 218.475C193.587 217.812 193.391 217.146 193.196 216.483C192.196 213.1 191.162 209.604 191.129 205.866C191.079 201 192.725 196.525 194.316 192.196C195.75 188.3 197.104 184.616 197.204 180.841C197.412 173.946 193.529 167.854 189.421 161.4C185.875 155.829 182.208 150.066 180.991 143.412C179.404 134.662 180.679 129.904 181.912 125.304C183.054 121.054 184.129 117.041 182.771 109.416C182.121 105.879 180.579 102.412 178.921 98.8834C175.554 91.7334 171.833 84.2124 166.641 77.7165C161.621 71.4374 157.771 67.1459 150.341 64.8209C149.025 64.4084 148.291 63.004 148.7 61.6874C149.112 60.3709 150.516 59.6374 151.833 60.0459C160.583 62.7834 165.291 68.0249 170.546 74.5874C176.079 81.5084 179.954 89.329 183.446 96.7499C185.25 100.591 186.933 104.379 187.691 108.521C189.246 117.254 187.975 122.004 186.741 126.596C185.6 130.85 184.521 134.871 185.908 142.516C186.946 148.208 190.196 153.312 193.633 158.712C197.966 165.521 202.45 172.558 202.196 180.983C202.071 185.575 200.512 189.816 199.004 193.921C197.5 198.008 196.083 201.866 196.125 205.821C196.154 208.862 197.046 211.879 197.987 215.071C198.187 215.754 198.391 216.437 198.583 217.121C199.725 221.158 200.716 225.916 199.391 230.571C197.708 236.483 192.712 239.5 188.608 239.5Z" fill="black"/>
<path d="M141.497 163.496C140.214 163.496 139.118 162.512 139.01 161.204C138.481 154.929 139.702 152.054 142.293 146.658C143.243 144.687 145.039 144.254 146.114 143.991C146.347 143.937 146.568 143.883 146.76 143.821C148.077 143.404 149.481 144.133 149.897 145.45C150.314 146.766 149.585 148.171 148.268 148.587C147.914 148.7 147.581 148.779 147.289 148.85C147.102 148.896 146.868 148.95 146.714 149C144.318 154 143.577 155.879 143.993 160.779C144.11 162.154 143.089 163.366 141.714 163.479C141.639 163.491 141.568 163.496 141.497 163.496Z" fill="black"/>
<path d="M112.137 167.183C110.808 167.183 109.703 166.137 109.641 164.796C109.508 161.862 109.478 160.387 109.562 158.375C104.553 159.341 99.4535 158.454 95.52 157.766C89.166 156.65 84.2285 154.383 80.4241 150.846C73.4325 144.333 70.166 133.775 71.47 121.871C71.9575 117.458 73.7741 110.891 76.3366 104.304C76.8366 103.016 78.2866 102.379 79.5741 102.879C80.8616 103.379 81.4991 104.829 80.9991 106.116C78.1575 113.425 76.7825 119.329 76.441 122.416C75.3116 132.729 78.0035 141.758 83.8325 147.183C86.9491 150.083 90.9366 151.879 96.3825 152.837C101.949 153.808 106.916 154.462 111.312 152.671C112.108 152.346 113.016 152.454 113.716 152.954C114.416 153.458 114.808 154.283 114.753 155.141C114.487 159.333 114.441 160.258 114.641 164.558C114.703 165.937 113.637 167.108 112.258 167.171C112.216 167.183 112.178 167.183 112.137 167.183Z" fill="black"/>
<path d="M80.0037 101.267C79.8871 101.267 79.7662 101.258 79.6456 101.242C78.2787 101.046 77.3287 99.7791 77.5246 98.4125C78.4996 91.6291 80.9456 89.125 83.4456 87.4335C85.3331 86.1541 85.6496 85.521 86.4246 83.9916C86.7246 83.396 87.0706 82.7166 87.5537 81.896C88.7831 79.8125 90.4537 78.0666 92.3912 76.8541C94.0581 75.8085 95.8912 75.125 97.8371 74.8291C99.1956 74.621 100.479 75.5541 100.687 76.921C100.896 78.2875 99.9621 79.5625 98.5956 79.771C97.3287 79.9666 96.1331 80.4085 95.0496 81.0916C93.7871 81.8835 92.6871 83.0375 91.8621 84.4375C91.4621 85.121 91.1706 85.696 90.8871 86.25C89.9871 88.0291 89.2081 89.5666 86.2537 91.571C84.6831 92.6375 83.2121 94.0166 82.4746 99.125C82.2996 100.367 81.2287 101.267 80.0037 101.267Z" fill="black"/>
<path d="M91.0113 116.709C92.6222 116.709 93.9279 115.123 93.9279 113.167C93.9279 111.211 92.6222 109.625 91.0113 109.625C89.4004 109.625 88.0947 111.211 88.0947 113.167C88.0947 115.123 89.4004 116.709 91.0113 116.709Z" fill="black"/>
<path d="M105.178 117.687C106.789 117.687 108.095 116.102 108.095 114.146C108.095 112.19 106.789 110.604 105.178 110.604C103.568 110.604 102.262 112.19 102.262 114.146C102.262 116.102 103.568 117.687 105.178 117.687Z" fill="black"/>
</g>
<defs>
<clipPath id="clip0_846_12234">
<rect width="250" height="600" fill="white"/>
</clipPath>
<clipPath id="clip1_846_12234">
<rect width="250" height="250" fill="white" transform="translate(0 159.375)"/>
</clipPath>
</defs>
</svg>
