<svg width="250" height="600" viewBox="0 0 250 600" fill="none" xmlns="http://www.w3.org/2000/svg">
<g clip-path="url(#clip0_846_12988)">
<path d="M132.733 536.232C133.296 542.255 132.521 546.114 130.379 552.696C127.691 561.494 111.629 569.344 121.629 579.2C122.046 579.6 129.525 585.322 142.462 581.609C143.4 581.134 144.375 580.731 145.379 580.403C146.796 579.741 148.112 578.891 149.287 577.878C156.25 572.196 160.762 564.217 161.941 555.498C162.833 549.15 163.579 541.504 163.046 536.067" fill="black"/>
<path d="M92.4998 528.473C92.4707 529.433 92.4707 530.638 92.0538 531.441C91.6373 532.244 91.2207 533.449 90.8038 534.252C85.3873 541.078 78.3038 545.094 71.6373 550.716C67.4707 554.33 63.7207 561.157 68.7207 565.574C78.4498 569.834 93.8873 567.28 97.0538 565.975C99.9707 564.771 102.887 563.967 105.387 562.361C117.054 554.33 116.221 539.874 117.137 527.919" fill="black"/>
<path d="M125.991 525.887C126.212 529.02 126.629 531.831 126.629 535.043C140.379 535.846 154.546 536.248 168.296 535.445C174.216 534.971 180.004 533.477 185.379 531.028C191.629 491.273 192.046 450.715 188.296 410.157C188.296 408.953 188.712 407.346 188.296 406.142C187.879 404.134 187.879 402.528 187.462 400.52V396.504C183.296 359.159 177.462 323.018 169.962 286.877C140.796 287.681 112.046 289.287 82.8789 290.09C69.9874 346.614 65.3583 404.599 69.1289 462.36C69.0583 464.243 69.1999 466.127 69.5458 467.982C70.3289 479.222 72.1458 490.377 74.9624 501.312C75.7958 504.123 76.6289 507.335 77.8789 510.146C79.9624 515.367 82.8789 520.587 84.9624 525.807C92.8789 527.815 101.212 528.217 109.546 527.815C114.129 527.413 119.129 527.413 123.912 526.285L125.991 525.887Z" fill="black"/>
<path fill-rule="evenodd" clip-rule="evenodd" d="M167.662 287.303C182.92 365.005 195.345 448.085 183.235 529.381C174.909 532.957 165.149 533.372 156.616 533.469C147.483 533.565 138.246 533.34 129.125 532.802C128.3 523.594 127.425 514.31 126.575 505.311C122.796 465.275 118.891 423.878 119.075 383.292C119.146 369.017 117.625 354.918 106.146 348.453C104.954 347.782 103.421 348.168 102.725 349.316C102.025 350.465 102.429 351.942 103.621 352.613C112.912 357.845 114.137 370.438 114.075 383.268C113.891 424.08 117.807 465.589 121.595 505.734L121.885 508.82C122.353 513.806 122.829 518.866 123.297 523.937C111.253 525.816 99.0545 525.853 87.0082 524.048C73.9082 499.099 71.8332 474.222 70.9248 452.815C68.6289 398.443 73.4039 343.879 85.1164 290.644C85.4039 289.343 84.5414 288.066 83.1914 287.789C81.8414 287.512 80.5164 288.343 80.2289 289.644C68.4289 343.273 63.6207 398.239 65.9289 453.012C66.8707 475.246 69.0583 501.155 83.1414 527.345C83.5039 528.02 84.1748 528.489 84.9498 528.614C86.6186 528.881 88.2898 529.114 89.9632 529.313C89.9411 529.74 89.8992 530.181 89.8123 530.361C89.5773 530.817 89.3636 531.329 89.1548 531.829L89.1039 531.951C88.9539 532.316 88.7954 532.69 88.6583 532.983C85.2042 537.271 81.0126 540.42 76.5754 543.752L76.4748 543.828C74.3476 545.427 72.1448 547.082 69.9623 548.925C67.0083 551.487 63.8454 555.844 63.8248 560.39C63.8123 563.08 64.9204 565.485 67.0289 567.349C67.2204 567.521 67.4414 567.662 67.6833 567.766C72.1123 569.706 77.4789 570.364 82.4998 570.364C89.5457 570.364 95.9079 569.067 98.0373 568.196C98.8539 567.859 99.7039 567.542 100.525 567.236L100.551 567.227C102.634 566.45 104.787 565.649 106.77 564.373C106.784 564.363 106.799 564.354 106.814 564.345C106.822 564.34 106.83 564.335 106.837 564.329C117.981 556.659 118.699 543.971 119.332 532.775L119.356 532.356C119.415 531.315 119.471 530.311 119.537 529.322C120.939 529.155 122.34 528.964 123.738 528.748C123.936 530.927 124.132 533.105 124.325 535.276C124.433 536.464 125.416 537.396 126.65 537.476C127.879 537.556 129.111 537.63 130.344 537.698C130.663 542.749 129.874 546.205 127.996 551.973C127.991 551.985 127.987 552.001 127.983 552.013C127.216 554.519 124.9 557.245 122.658 559.88L122.634 559.908C120.141 562.843 117.567 565.874 116.454 569.232C115.079 573.388 116.216 577.312 119.862 580.9C119.921 580.962 124.908 585.272 134.025 585.272C136.721 585.272 139.779 584.894 143.179 583.912C143.333 583.869 143.483 583.809 143.625 583.737C144.446 583.322 145.304 582.966 146.183 582.681C146.279 582.647 146.379 582.612 146.47 582.569C148.087 581.812 149.587 580.844 150.929 579.694C158.37 573.613 163.162 565.132 164.42 555.82C165.453 548.485 165.876 542.499 165.684 537.977C172.547 537.514 179.674 536.364 186.162 533.388C186.415 533.272 186.638 533.12 186.828 532.942C187.446 532.582 187.897 531.969 188.008 531.228C200.516 448.86 187.983 364.885 172.575 286.408C172.321 285.098 171.012 284.243 169.654 284.488C168.296 284.737 167.404 285.994 167.662 287.303ZM114.493 529.818C111.262 530.071 108.025 530.196 104.787 530.196C101.502 530.196 98.2186 530.066 94.9401 529.807C94.8795 530.693 94.7279 531.652 94.2789 532.517C94.1283 532.808 93.9523 533.226 93.7779 533.641L93.7373 533.738L93.6864 533.859C93.4776 534.359 93.2639 534.871 93.0289 535.328C92.9579 535.465 92.8748 535.593 92.7789 535.713C88.9039 540.597 84.1957 544.134 79.6414 547.556L79.5082 547.656C77.4454 549.207 75.3142 550.809 73.2748 552.531C71.0789 554.434 68.8332 557.627 68.8207 560.414C68.8164 561.63 69.2457 562.658 70.1332 563.546C79.1248 567.236 93.5083 564.815 96.0664 563.763C96.9086 563.413 97.7436 563.102 98.5539 562.801L98.7204 562.739C100.629 562.028 102.437 561.353 103.962 560.382C113.125 554.049 113.741 543.09 114.337 532.493C114.386 531.611 114.437 530.712 114.493 529.818ZM135.364 537.944C135.633 543.414 134.697 547.476 132.771 553.398C131.718 556.827 129.083 559.926 126.537 562.922L126.525 562.936C120.875 569.582 118.858 572.975 123.358 577.456C123.812 577.802 130.3 582.5 141.529 579.362C142.462 578.906 143.433 578.509 144.42 578.175C145.579 577.621 146.658 576.914 147.621 576.083C147.629 576.075 147.637 576.068 147.646 576.061C147.654 576.054 147.662 576.047 147.671 576.038C154.171 570.734 158.358 563.329 159.462 555.185C160.441 548.226 160.855 542.42 160.686 538.21C159.326 538.25 157.987 538.272 156.675 538.287C155.262 538.3 153.846 538.307 152.429 538.307C146.75 538.307 141.045 538.187 135.364 537.944Z" fill="black"/>
<g clip-path="url(#clip1_846_12988)">
<path d="M141.404 159.375C141.779 163.583 143.5 173.092 149.904 171.667L150.592 172.708C150.279 179.238 146.971 183.842 141.787 188.612C136.521 193.383 129.804 196.25 122.717 196.754C116.467 197.213 109.821 195.717 105.146 191.525C100.471 187.333 98.0125 181.525 101.108 176.546H101.558C102.967 176.587 104.262 175.85 105.454 175.1C106.971 174.142 110.1 170.212 111.037 169.083C112.287 167.462 112.796 161.317 113.437 159.375H141.404Z" fill="white"/>
<path d="M61.421 363.396C59.3791 363.329 57.4001 362.692 55.7001 361.558C54.0001 360.425 52.6541 358.842 51.8085 356.983C52.2251 350.317 53.4751 342.4 48.0585 336.983C47.2251 333.65 49.7251 331.15 52.6416 330.062L64.3416 331.579L61.421 363.396Z" fill="white"/>
<path d="M64.346 331.579C60.642 331.554 56.9585 330.992 53.4126 329.913C53.6626 326.808 53.9335 323.621 55.271 320.808L65.5751 321.958L64.346 331.579Z" fill="white"/>
<path d="M161.067 329.683C160.408 332.871 160.192 336.129 160.417 339.375C160.408 339.563 160.433 339.75 160.5 339.925C160.567 340.1 160.667 340.263 160.796 340.4C161.058 340.558 161.367 340.629 161.671 340.596L190.004 340.517C190.433 340.55 190.862 340.471 191.254 340.292C192.054 339.838 192.117 338.729 192.087 337.792L191.787 330.113L161.067 329.683Z" fill="white"/>
<path d="M65.8627 321.504C61.8087 320.733 58.0587 320.733 53.8921 319.9C56.8087 290.733 59.3087 262.817 65.5587 233.233C68.8921 218.233 71.8087 204.483 79.7252 191.15C79.7252 191.15 82.7252 186.858 83.8921 185.546L86.0002 182.062C85.4421 180.433 86.1171 178.562 87.3377 177.35C88.5587 176.137 90.2546 175.496 91.9212 175.137C92.6962 174.971 93.5546 174.821 94.0502 174.204C94.3421 173.775 94.5212 173.275 94.5752 172.758C95.1837 169.367 96.0796 165.258 99.3587 164.208C102.034 163.35 104.917 165.196 106.442 167.562C107.967 169.929 108.525 172.758 109.6 175.354C110.675 177.95 112.517 180.529 115.263 181.146L120.188 182.687C129.288 180.187 136.263 173.125 143.638 167.237C145.596 165.679 147.655 164.158 150.042 163.408C152.43 162.658 155.225 162.787 157.205 164.321C159.184 165.854 159.938 168.987 158.421 170.987C159.559 170.342 160.846 170.008 162.155 170.021C163.463 170.033 164.742 170.387 165.867 171.054C166.992 171.721 167.921 172.671 168.563 173.808C169.205 174.946 169.534 176.237 169.517 177.542L170.35 185.542C176.8 195.329 181.384 206.163 184.884 217.454L186.209 221.458C193.33 252.113 194.609 283.729 195.08 315.254L195.496 315.933C198.063 325.325 207.646 349.075 209.73 359.075C209.796 359.929 209.655 360.788 209.313 361.575C205.146 366.575 198.063 365.325 192.584 367.025L173.221 370.879C145.509 375.85 117.696 377.067 89.9337 372.383L84.6962 371.771L66.7796 368.342C65.1627 368.033 63.3877 367.621 62.4421 366.258C61.6587 365.142 61.6627 363.671 61.7212 362.308C61.9587 356.892 62.5837 351.517 63.2087 346.137L66.0627 321.529L65.8627 321.504Z" fill="white"/>
<path d="M164.467 341.042C160.45 342.338 155.754 347.162 159.15 351.612C161.017 354.067 163.838 355.388 166.425 356.929C168.417 358.113 168.946 362.112 169.717 364.229C171.667 369.567 175.454 373.958 181.667 373.542C187.983 373.125 191.913 367.746 193.113 361.946C194.413 355.654 192.196 347.396 191.15 341.175L164.467 341.042Z" fill="white"/>
<path d="M128.783 197.683C128.871 199.008 129.971 200.021 131.275 200.021C131.333 200.021 131.388 200.021 131.438 200.008C142.583 199.279 153.496 195.788 163 189.921C164.963 188.711 166.608 187.447 167.933 186.131C168 186.397 168.112 186.657 168.271 186.9C174.037 195.65 178.692 205.883 182.504 218.179C182.838 219.254 183.825 219.942 184.892 219.942C185.138 219.942 185.388 219.904 185.629 219.829C186.95 219.421 187.688 218.021 187.279 216.7C183.325 203.946 178.475 193.3 172.446 184.15C171.976 183.435 171.202 183.041 170.407 183.026C171.448 181.285 171.984 179.47 172.008 177.588C172.029 175.842 171.587 174.117 170.733 172.596C169.879 171.075 168.633 169.8 167.129 168.913C165.629 168.025 163.912 167.55 162.167 167.533C162 167.533 161.837 167.533 161.671 167.542C161.429 165.583 160.417 163.667 158.725 162.358C156.262 160.45 152.729 159.954 149.283 161.038C146.446 161.929 144.075 163.7 142.071 165.296C139.873 167.049 138.032 168.77 136.253 170.435L136.183 170.5C131.969 174.444 128.64 177.559 122.787 179.167C121.454 179.533 120.671 180.908 121.037 182.242C121.404 183.575 122.783 184.358 124.112 183.992C131.158 182.058 135.262 178.217 139.604 174.15L139.672 174.087C141.38 172.49 143.148 170.837 145.187 169.208C146.912 167.838 148.763 166.442 150.783 165.808C152.642 165.225 154.512 165.417 155.667 166.312C156.654 167.079 157.033 168.683 156.421 169.492C155.704 170.438 155.75 171.758 156.533 172.65C157.317 173.542 158.617 173.762 159.65 173.179C160.392 172.758 161.233 172.538 162.083 172.538H162.125C162.992 172.542 163.846 172.779 164.592 173.221C165.337 173.662 165.954 174.292 166.379 175.05C166.804 175.808 167.025 176.663 167.012 177.529C166.979 180.242 164.746 182.979 160.379 185.671C151.567 191.113 141.446 194.346 131.113 195.025C129.738 195.117 128.692 196.304 128.783 197.683Z" fill="black"/>
<path fill-rule="evenodd" clip-rule="evenodd" d="M81.475 373.675C81.3209 373.675 81.1625 373.658 81.0043 373.629L66.3209 370.817C64.6793 370.488 61.975 369.942 60.4084 367.717C59.9568 367.073 59.6684 366.394 59.4878 365.706C57.6456 365.387 55.8846 364.686 54.3168 363.638C52.2293 362.246 50.575 360.304 49.5375 358.021C49.3668 357.646 49.2918 357.238 49.3168 356.829C49.3562 356.174 49.4068 355.504 49.4581 354.826L49.4668 354.713C49.9 348.858 50.3459 342.804 46.2959 338.75C45.975 338.429 45.75 338.029 45.6375 337.588C44.6534 333.651 46.8221 329.879 51.0665 328.005C51.2556 325.974 51.5415 323.83 52.2184 321.746C51.6525 321.229 51.3346 320.462 51.4165 319.65C51.5978 317.844 51.7765 316.041 51.9543 314.243L52.0821 312.951C54.7781 285.806 57.325 260.161 63.125 232.713L63.3959 231.492C66.625 216.938 69.679 203.192 77.5875 189.867C77.6209 189.812 77.654 189.762 77.6875 189.712L77.7331 189.647C78.2118 188.967 80.8543 185.207 82.0375 183.879C82.4815 183.378 83.0821 183.099 83.7003 183.048C83.6787 182.991 83.6578 182.933 83.6375 182.875C82.8 180.437 83.5625 177.575 85.5793 175.575C86.9918 174.175 88.8918 173.233 91.4 172.692L91.5459 172.658C91.7084 172.625 91.925 172.579 92.0875 172.533C92.0875 172.527 92.0896 172.517 92.0896 172.517C92.0896 172.517 92.0918 172.506 92.0918 172.5C92.1 172.433 92.1084 172.371 92.1209 172.308L92.1231 172.297C92.7315 168.958 93.7471 163.386 98.6 161.825C101.492 160.9 105.837 161.887 108.567 166.229C108.862 166.698 109.123 167.174 109.361 167.655C109.854 166.581 111.06 165.976 112.246 166.279C113.583 166.617 114.396 167.979 114.054 169.317C113.677 170.813 113.074 171.814 111.512 173.343C111.642 173.7 111.776 174.049 111.917 174.392C112.504 175.804 113.792 178.246 115.817 178.704C117.162 179.008 118.008 180.346 117.708 181.692C117.404 183.037 116.067 183.883 114.721 183.583C111.587 182.879 108.95 180.296 107.296 176.312C106.888 175.329 106.55 174.342 106.229 173.383L106.214 173.337C105.661 171.713 105.138 170.175 104.329 168.892C103.392 167.4 101.562 166.129 100.125 166.587C98.3 167.175 97.5793 170.254 97.0543 173.121C96.9459 174.008 96.625 174.862 96.125 175.604C96.0875 175.658 96.0459 175.712 96.0043 175.767C94.9825 177.038 93.5509 177.344 92.5968 177.548L92.5875 177.55L92.4543 177.579C90.9334 177.908 89.8084 178.425 89.1043 179.121C88.4834 179.737 88.1668 180.654 88.3709 181.25C88.5625 181.808 89.1959 182.408 89.7875 182.917C95.1543 187.617 101.683 190.763 108.683 192.021C110.042 192.267 110.946 193.567 110.7 194.925C110.475 196.133 109.421 196.983 108.237 196.983C108.092 196.983 107.942 196.971 107.792 196.942C99.9003 195.521 92.5375 191.975 86.5043 186.692C86.4146 186.614 86.3243 186.535 86.2334 186.454C86.1281 186.723 85.974 186.977 85.7709 187.204C84.9125 188.167 82.6915 191.283 81.8375 192.5C74.3709 205.113 71.4084 218.45 68.275 232.575L68.0084 233.771C62.264 260.955 59.7306 286.495 57.0481 313.537L57.0459 313.558C56.904 314.975 56.7625 316.396 56.6209 317.821C57.8665 317.996 59.1 318.125 60.379 318.254L60.4465 318.261C61.5709 318.376 62.7171 318.493 63.89 318.651L65.7978 302.203C69.2265 272.854 72.7721 242.505 79.6709 213.225C79.9875 211.883 81.3334 211.046 82.6793 211.367C84.0209 211.683 84.8543 213.029 84.5375 214.375C77.7034 243.385 74.1746 273.596 70.7615 302.815L65.6975 346.476C65.09 351.715 64.4621 357.128 64.225 362.446C64.1959 363.108 64.1418 364.35 64.4959 364.85C64.9125 365.442 66.3959 365.742 67.2793 365.917L81.9375 368.721C83.2918 368.979 84.1834 370.292 83.9209 371.646C83.7 372.842 82.6543 373.675 81.475 373.675ZM50.4084 335.821C50.3331 333.917 52.4687 332.839 53.3015 332.491C56.1768 333.317 59.1278 333.827 62.109 334.009L60.7159 346.021C60.1678 350.759 59.6028 355.64 59.3196 360.533C58.535 360.293 57.7859 359.939 57.0959 359.479C55.95 358.713 55.0084 357.683 54.3543 356.475C54.3728 356.181 54.3946 355.887 54.4165 355.591C54.4293 355.423 54.4421 355.25 54.4543 355.079L54.4547 355.073C54.9047 348.974 55.4606 341.435 50.4084 335.821ZM63.3137 323.62L62.6859 329.034C60.4596 328.915 58.249 328.588 56.0834 328.058C56.2606 326.28 56.5268 324.521 57.0987 322.928C58.0406 323.043 58.9631 323.137 59.8709 323.229L60.0631 323.249C61.1687 323.363 62.2415 323.474 63.3137 323.62Z" fill="black"/>
<path fill-rule="evenodd" clip-rule="evenodd" d="M89.5167 374.842C101.317 376.833 113.367 377.829 125.821 377.829C140.91 377.829 156.591 376.362 173.1 373.432C175.34 375.156 177.976 376.067 180.88 376.067C181.192 376.067 181.513 376.058 181.834 376.033C186.251 375.743 190.092 373.342 192.665 369.515C192.884 369.507 193.104 369.471 193.325 369.408C194.879 368.925 196.663 368.7 198.546 368.467C202.875 367.929 207.779 367.317 211.234 363.171C211.388 362.987 211.513 362.783 211.609 362.562C212.104 361.408 212.317 360.133 212.221 358.879C212.213 358.771 212.196 358.667 212.175 358.562C210.934 352.605 207.28 342.391 203.748 332.513L203.746 332.508C201.284 325.633 198.963 319.137 197.904 315.271C197.833 315.009 197.723 314.768 197.581 314.552C197.17 284.426 196.065 255.433 188.975 224.871C188.663 223.525 187.321 222.687 185.975 223C184.63 223.312 183.792 224.654 184.105 226C192.016 260.113 192.359 292.477 192.721 326.74V326.75L192.73 327.383L161.184 326.867C156.496 290.242 154.88 252.987 156.375 216.1C156.434 214.721 155.359 213.554 153.98 213.5C152.6 213.45 151.434 214.517 151.38 215.896C149.842 253.783 151.567 292.058 156.505 329.654C156.632 330.621 157.302 331.4 158.184 331.698C157.832 334.258 157.74 336.85 157.913 339.433C157.913 339.9 157.992 340.358 158.154 340.796C158.342 341.296 158.621 341.746 158.988 342.129C159.022 342.166 159.059 342.202 159.095 342.236C157.585 343.377 156.335 344.838 155.784 346.596C155.309 348.117 155.163 350.483 157.163 353.108C159.013 355.542 161.567 357.004 163.821 358.292C164.267 358.546 164.709 358.8 165.15 359.062C165.767 359.427 166.441 361.882 166.736 362.957L166.742 362.979C166.946 363.729 167.142 364.437 167.371 365.071C167.9 366.522 168.527 367.843 169.244 369.025C140.859 373.786 115.015 374.074 90.3461 369.912C88.9836 369.679 87.6961 370.6 87.4667 371.962C87.2377 373.321 88.1542 374.612 89.5167 374.842ZM166.825 343.077C166.575 343.792 166.006 344.385 165.23 344.633C162.913 345.383 160.946 346.837 160.555 348.092C160.48 348.329 160.284 348.958 161.138 350.079C162.375 351.703 164.281 352.795 166.297 353.948L166.3 353.95L166.641 354.145C166.997 354.35 167.354 354.554 167.705 354.762C170.055 356.156 170.889 359.198 171.56 361.642L171.563 361.654C171.738 362.3 171.909 362.912 172.067 363.354C173.417 367.058 176.142 371.387 181.5 371.042C185.021 370.808 189.271 368.162 190.667 361.433C191.737 356.26 190.769 350.692 189.833 345.302L189.78 345C189.684 344.446 189.589 343.894 189.496 343.342C189.478 343.232 189.466 343.122 189.463 343.014L166.825 343.077ZM193.802 341.235C194.118 341.58 194.342 342.017 194.425 342.512C194.534 343.15 194.642 343.787 194.755 344.429L194.758 344.45C195.774 350.298 196.824 356.345 195.563 362.45C195.463 362.934 195.348 363.408 195.22 363.872C196.124 363.728 197.029 363.615 197.921 363.504C201.671 363.037 204.934 362.629 207.125 360.267C207.209 359.987 207.246 359.692 207.238 359.4C206.027 353.751 202.324 343.395 199.049 334.235L198.918 333.868L198.912 333.853C198.502 332.705 198.095 331.568 197.698 330.452C197.597 330.92 197.362 331.353 197.017 331.696C196.555 332.162 195.917 332.425 195.259 332.425H195.217L194.377 332.411L194.584 337.692C194.605 338.341 194.653 339.938 193.802 341.235ZM189.371 332.329L163.207 331.899C162.894 333.95 162.775 336.026 162.85 338.1L189.592 338.025C189.592 337.996 189.592 337.964 189.591 337.932C189.59 337.913 189.589 337.894 189.588 337.875L189.371 332.329Z" fill="black"/>
</g>
<path d="M147.704 123.258C144.584 123.029 142.809 119.362 143 116.246C143.192 113.129 144.667 110.221 145.129 107.129C146.192 100.192 141.467 92.8294 134.713 90.9084C132.867 90.3834 130.888 90.2125 129.209 89.2834C127.809 88.5044 126.642 87.2 125.071 86.925C122.175 86.3919 119.792 89.425 116.863 89.75C112.975 90.1669 109.971 85.7125 106.059 85.7209C102.017 85.7209 99.2211 90.4375 95.1877 90.6294C92.4836 90.7584 90.0667 88.7919 87.3627 88.6584C83.8667 88.4919 80.9627 91.4209 79.3792 94.5419C77.7961 97.6625 77.0127 101.187 75.0627 104.096C73.2792 106.754 69.5542 108.804 66.9542 106.937C65.1586 105.654 64.8127 103.137 64.9417 100.937C65.2042 96.425 66.7667 92.0834 69.4377 88.4375C70.2711 87.3294 71.1961 86.2375 71.4961 84.8959C71.9127 82.9209 70.8961 80.9584 70.4961 78.975C69.6167 74.6 72.3252 69.7834 76.5211 68.2584C78.5042 67.5419 80.7211 67.4875 82.5792 66.4919C84.4377 65.4959 85.7542 63.6084 87.0461 61.8834C93.8836 52.75 104.838 45.275 116.063 47.3C122.95 48.55 128.979 53.1875 137.546 54.8C143.509 50.3709 152.696 51.05 157.913 56.3544C164.65 63.1709 164.388 75.2544 172.079 80.9875C173.304 81.9044 174.729 82.6544 175.567 83.9294C177.346 86.6375 175.742 90.3169 176.504 93.4709C177.171 96.2084 179.496 98.1584 181.225 100.383C182.954 102.608 184.063 105.979 182.217 108.108C181.413 109.033 180.217 109.504 179.271 110.279C176.946 112.179 176.484 115.562 176.771 118.55C177.059 121.537 178.092 125.333 177.5 127.5C175.121 136.304 169.617 134.058 167.004 135.417" fill="black"/>
<path d="M79.1663 104.583C76.6663 108.333 76.2498 112.917 74.9998 117.5C74.9998 118.817 69.9329 136.6 81.6663 148.333C85.8329 152.5 91.2498 154.167 96.8748 155.417C101.92 156.196 107.433 156.979 112.291 155C112.012 159.337 111.97 162.433 112.17 166.775L141.458 163.75C140.979 158.05 142.116 152.921 144.595 147.762C145.154 146.596 146.366 146.608 147.562 146.229C148.62 145.896 149.671 145.512 150.696 145.079C152.783 144.212 154.754 143.092 156.57 141.746C160.162 139.033 162.958 135.225 164.012 130.808C164.966 126.804 164.295 122.037 159.825 119.783C156.691 118.2 153.879 118.762 149.1 122.962L147.691 123.262C144.57 123.033 142.796 119.367 142.987 116.25C143.179 113.133 144.654 110.225 145.116 107.133C146.179 100.196 141.454 92.8334 134.7 90.9125C132.854 90.3875 130.875 90.2166 129.195 89.2875C127.795 88.5084 126.629 87.2041 125.058 86.9291C122.162 86.3959 119.779 89.4291 116.85 89.7541C112.962 90.1709 109.958 85.7166 106.045 85.725C102.004 85.725 99.2079 90.4416 95.1748 90.6334C92.4704 90.7625 90.0538 88.7959 87.3498 88.6625C83.8538 88.4959 80.9498 91.425 79.3663 94.5459C77.7829 97.6666 76.9998 101.192 75.0498 104.1" fill="white"/>
<path d="M167.004 137.917C166.1 137.917 165.229 137.425 164.783 136.571C164.146 135.346 164.625 133.837 165.85 133.2C166.917 132.646 168.067 132.496 169.179 132.354C171.737 132.025 173.758 131.767 175.087 126.846C175.354 125.867 175 123.662 174.717 121.896C174.55 120.862 174.379 119.796 174.283 118.792C173.842 114.212 175.05 110.5 177.692 108.346C178.187 107.937 178.7 107.617 179.154 107.337C179.637 107.033 180.096 106.75 180.333 106.471C181.142 105.537 180.421 103.421 179.254 101.921C178.846 101.396 178.387 100.871 177.904 100.317C176.408 98.6124 174.717 96.679 174.079 94.0624C173.675 92.3874 173.779 90.7206 173.875 89.2456C173.979 87.6081 174.067 86.1956 173.483 85.304C173.121 84.754 172.383 84.2456 171.6 83.7081C171.258 83.4749 170.917 83.2374 170.587 82.9915C165.887 79.4874 163.879 74.1499 161.937 68.9874C160.375 64.829 158.896 60.904 156.142 58.1124C151.825 53.7249 143.996 53.129 139.046 56.8081C138.487 57.2249 137.779 57.3874 137.092 57.2581C132.321 56.3581 128.258 54.5665 124.679 52.9831C121.558 51.604 118.612 50.304 115.625 49.7581C108.658 48.4999 98.0124 51.4165 89.0543 63.379L88.7709 63.7581C87.4624 65.5165 85.9793 67.504 83.7668 68.6915C82.3624 69.4456 80.8834 69.7624 79.5749 70.0374C78.7834 70.2081 78.0334 70.3665 77.3749 70.604C74.3418 71.704 72.3168 75.3124 72.9499 78.479C73.0499 78.9665 73.2043 79.4956 73.3709 80.054C73.8374 81.629 74.3668 83.4081 73.9459 85.4081C73.5543 87.1624 72.5793 88.4415 71.7168 89.5706L71.4418 89.9331C69.0668 93.1749 67.6793 97.0331 67.4418 101.075C67.3293 102.983 67.6834 104.375 68.4124 104.896C68.6249 105.05 68.9793 105.233 69.6499 105.112C70.8043 104.904 72.1793 103.912 72.9918 102.696C73.9959 101.2 74.6709 99.4331 75.3874 97.5624C75.9124 96.1956 76.4543 94.7831 77.1543 93.404C79.0084 89.7499 82.6999 85.9249 87.4874 86.154C89.1584 86.2374 90.6374 86.8081 91.9374 87.3081C93.1334 87.7706 94.1584 88.1706 95.0749 88.1249C96.3293 88.0665 97.6709 87.1206 99.0959 86.1165C101.029 84.754 103.217 83.2124 106.067 83.2124H106.083C108.662 83.2124 110.75 84.4956 112.592 85.629C114.117 86.5665 115.433 87.379 116.604 87.254C117.375 87.1665 118.296 86.6499 119.275 86.0999C120.942 85.1624 123.017 83.9956 125.533 84.4581C127.112 84.7331 128.325 85.6165 129.3 86.3249C129.704 86.6165 130.083 86.8956 130.433 87.0915C131.254 87.5456 132.329 87.779 133.471 88.029C134.096 88.1665 134.746 88.3081 135.404 88.4956C143.392 90.7665 148.867 99.2915 147.608 107.5C147.379 109.037 146.942 110.479 146.521 111.875C146.042 113.454 145.592 114.946 145.504 116.392C145.387 118.321 146.404 120.646 147.896 120.758C149.271 120.858 150.308 122.058 150.204 123.433C150.104 124.808 148.904 125.846 147.529 125.742C142.85 125.4 140.242 120.462 140.512 116.083C140.637 114.054 141.196 112.208 141.733 110.425C142.121 109.146 142.483 107.937 142.662 106.75C143.537 101.037 139.587 94.8831 134.033 93.304C133.521 93.1581 132.975 93.0374 132.4 92.9124C131.025 92.6124 129.471 92.2706 128.004 91.4624C127.383 91.1165 126.837 90.7206 126.354 90.3706C125.712 89.904 125.104 89.4624 124.646 89.3831C123.892 89.2456 122.887 89.8081 121.725 90.4624C120.417 91.1999 118.937 92.0331 117.142 92.229C114.267 92.5374 111.983 91.1331 109.967 89.8915C108.567 89.029 107.242 88.2165 106.071 88.2165H106.067C104.796 88.2165 103.487 89.1374 101.971 90.2081C100.117 91.5124 98.0168 92.9956 95.3084 93.1206C93.3459 93.2165 91.6374 92.554 90.1334 91.9749C89.0918 91.5706 88.1043 91.1915 87.2418 91.1499C84.8374 91.0331 82.7043 93.5125 81.6124 95.6665C81.0293 96.8165 80.5584 98.0456 80.0584 99.354C79.2749 101.4 78.4624 103.517 77.1459 105.483C75.5624 107.842 73.0334 109.583 70.5374 110.033C68.6834 110.367 66.9418 109.996 65.4999 108.962C63.9584 107.858 62.1709 105.542 62.4499 100.783C62.7418 95.779 64.4624 90.9956 67.4249 86.954L67.7418 86.5374C68.3459 85.7456 68.9168 84.9999 69.0624 84.3415C69.2168 83.6124 68.9209 82.6206 68.5793 81.4706C68.3874 80.829 68.1918 80.1706 68.0499 79.4581C66.9374 73.9124 70.3543 67.829 75.6709 65.8956C76.6543 65.5415 77.6084 65.3375 78.5293 65.1415C79.6043 64.9124 80.6209 64.6956 81.4043 64.275C82.6334 63.6165 83.7124 62.1665 84.7584 60.7624L85.0499 60.3706C91.8168 51.3331 103.633 42.504 116.512 44.8249C120.087 45.4749 123.296 46.8915 126.696 48.3956C129.912 49.8165 133.229 51.2831 137.012 52.1249C143.962 47.6874 153.9 48.6915 159.7 54.5874C163.2 58.129 164.937 62.7456 166.617 67.2124C168.383 71.9081 170.05 76.3415 173.579 78.9706C173.858 79.179 174.146 79.3749 174.433 79.5749C175.525 80.3249 176.762 81.1749 177.662 82.5456C179.167 84.8331 179.008 87.3415 178.867 89.5499C178.787 90.779 178.717 91.9374 178.942 92.8706C179.287 94.2915 180.442 95.6081 181.667 97.0081C182.179 97.5915 182.704 98.1956 183.204 98.8374C185.642 101.971 186.867 106.558 184.112 109.733C183.379 110.575 182.546 111.096 181.808 111.558C181.45 111.783 181.112 111.992 180.862 112.2C179.037 113.692 179.137 116.962 179.267 118.296C179.35 119.146 179.5 120.092 179.658 121.087C180.054 123.567 180.467 126.129 179.917 128.142C177.717 136.287 172.771 136.917 169.817 137.296C169.171 137.379 168.437 137.471 168.158 137.617C167.787 137.825 167.396 137.917 167.004 137.917Z" fill="black"/>
<path d="M141.496 163.496C140.213 163.496 139.117 162.508 139.009 161.204C138.479 154.929 139.7 152.054 142.292 146.658C143.242 144.687 145.038 144.254 146.113 143.996C146.346 143.938 146.567 143.887 146.759 143.825C147.75 143.512 148.729 143.154 149.675 142.754C151.588 141.963 153.384 140.942 155.034 139.717C158.359 137.204 160.675 133.821 161.534 130.208C161.975 128.387 162.575 123.963 158.671 121.992C156.967 121.129 155.296 120.792 150.717 124.817C149.679 125.729 148.1 125.625 147.188 124.588C146.275 123.55 146.379 121.971 147.417 121.058C153.992 115.279 157.796 115.946 160.921 117.525C165.771 119.975 167.867 125.279 166.392 131.371C165.267 136.104 162.296 140.492 158.029 143.712C156.038 145.192 153.879 146.417 151.604 147.358C150.525 147.812 149.396 148.229 148.259 148.583C147.913 148.692 147.579 148.775 147.288 148.846C147.104 148.892 146.867 148.946 146.713 148.996C144.317 153.996 143.575 155.875 143.992 160.775C144.109 162.15 143.088 163.363 141.713 163.475C141.638 163.492 141.567 163.496 141.496 163.496Z" fill="black"/>
<path d="M112.137 167.183C110.808 167.183 109.704 166.137 109.642 164.796C109.508 161.862 109.479 160.387 109.562 158.375C104.554 159.342 99.4541 158.454 95.5207 157.767C89.1666 156.646 84.2291 154.383 80.4248 150.846C73.4332 144.333 70.1707 133.775 71.4707 121.871C71.9582 117.458 73.7748 110.892 76.3373 104.304C76.8373 103.017 78.2873 102.379 79.5748 102.879C80.8623 103.379 81.4998 104.829 80.9998 106.117C78.1582 113.425 76.7832 119.329 76.4416 122.417C75.3123 132.729 78.0041 141.758 83.8332 147.183C86.9498 150.083 90.9373 151.879 96.3832 152.837C101.95 153.808 106.917 154.462 111.312 152.667C112.108 152.342 113.017 152.45 113.717 152.95C114.417 153.45 114.808 154.279 114.754 155.137C114.487 159.329 114.442 160.254 114.642 164.554C114.704 165.933 113.637 167.104 112.258 167.167C112.217 167.183 112.179 167.183 112.137 167.183Z" fill="black"/>
<path d="M91.0123 116.708C92.6232 116.708 93.9288 115.123 93.9288 113.167C93.9288 111.211 92.6232 109.625 91.0123 109.625C89.4013 109.625 88.0957 111.211 88.0957 113.167C88.0957 115.123 89.4013 116.708 91.0123 116.708Z" fill="black"/>
<path d="M105.179 117.688C106.79 117.688 108.096 116.102 108.096 114.146C108.096 112.19 106.79 110.604 105.179 110.604C103.569 110.604 102.263 112.19 102.263 114.146C102.263 116.102 103.569 117.688 105.179 117.688Z" fill="black"/>
</g>
<defs>
<clipPath id="clip0_846_12988">
<rect width="250" height="600" fill="white"/>
</clipPath>
<clipPath id="clip1_846_12988">
<rect width="250" height="250" fill="white" transform="translate(0 159.375)"/>
</clipPath>
</defs>
</svg>
