<svg width="250" height="600" viewBox="0 0 250 600" fill="none" xmlns="http://www.w3.org/2000/svg">
<g clip-path="url(#clip0_846_12654)">
<path d="M132.733 536.232C133.296 542.255 132.521 546.114 130.379 552.696C127.691 561.494 111.629 569.344 121.629 579.2C122.046 579.6 129.525 585.322 142.462 581.609C143.4 581.134 144.375 580.731 145.379 580.403C146.796 579.741 148.112 578.891 149.287 577.878C156.25 572.196 160.762 564.217 161.941 555.498C162.833 549.15 163.579 541.504 163.046 536.067" fill="black"/>
<path d="M92.4998 528.473C92.4707 529.433 92.4707 530.638 92.0538 531.441C91.6373 532.244 91.2207 533.449 90.8038 534.252C85.3873 541.078 78.3038 545.094 71.6373 550.716C67.4707 554.33 63.7207 561.157 68.7207 565.574C78.4498 569.834 93.8873 567.28 97.0538 565.975C99.9707 564.771 102.887 563.967 105.387 562.361C117.054 554.33 116.221 539.874 117.137 527.919" fill="black"/>
<path d="M125.991 525.887C126.212 529.02 126.629 531.831 126.629 535.043C140.379 535.846 154.546 536.248 168.296 535.445C174.216 534.971 180.004 533.477 185.379 531.028C191.629 491.273 192.046 450.715 188.296 410.157C188.296 408.953 188.712 407.346 188.296 406.142C187.879 404.134 187.879 402.528 187.462 400.52V396.504C183.296 359.159 177.462 323.018 169.962 286.877C140.796 287.681 112.046 289.287 82.8789 290.09C69.9874 346.614 65.3583 404.599 69.1289 462.36C69.0583 464.243 69.1999 466.127 69.5458 467.982C70.3289 479.222 72.1458 490.377 74.9624 501.312C75.7958 504.123 76.6289 507.335 77.8789 510.146C79.9624 515.367 82.8789 520.587 84.9624 525.807C92.8789 527.815 101.212 528.217 109.546 527.815C114.129 527.413 119.129 527.413 123.912 526.285L125.991 525.887Z" fill="black"/>
<path fill-rule="evenodd" clip-rule="evenodd" d="M167.662 287.303C182.92 365.005 195.345 448.085 183.235 529.381C174.909 532.957 165.149 533.372 156.616 533.469C147.483 533.565 138.246 533.34 129.125 532.802C128.3 523.594 127.425 514.31 126.575 505.311C122.796 465.275 118.891 423.878 119.075 383.292C119.146 369.017 117.625 354.918 106.146 348.453C104.954 347.782 103.421 348.168 102.725 349.316C102.025 350.465 102.429 351.942 103.621 352.613C112.912 357.845 114.137 370.438 114.075 383.268C113.891 424.08 117.807 465.589 121.595 505.734L121.885 508.82C122.353 513.806 122.829 518.866 123.297 523.937C111.253 525.816 99.0545 525.853 87.0082 524.048C73.9082 499.099 71.8332 474.222 70.9248 452.815C68.6289 398.443 73.4039 343.879 85.1164 290.644C85.4039 289.343 84.5414 288.066 83.1914 287.789C81.8414 287.512 80.5164 288.343 80.2289 289.644C68.4289 343.273 63.6207 398.239 65.9289 453.012C66.8707 475.246 69.0583 501.155 83.1414 527.345C83.5039 528.02 84.1748 528.489 84.9498 528.614C86.6186 528.881 88.2898 529.114 89.9632 529.313C89.9411 529.74 89.8992 530.181 89.8123 530.361C89.5773 530.817 89.3636 531.329 89.1548 531.829L89.1039 531.951C88.9539 532.316 88.7954 532.69 88.6583 532.983C85.2042 537.271 81.0126 540.42 76.5754 543.752L76.4748 543.828C74.3476 545.427 72.1448 547.082 69.9623 548.925C67.0083 551.487 63.8454 555.844 63.8248 560.39C63.8123 563.08 64.9204 565.485 67.0289 567.349C67.2204 567.521 67.4414 567.662 67.6833 567.766C72.1123 569.706 77.4789 570.364 82.4998 570.364C89.5457 570.364 95.9079 569.067 98.0373 568.196C98.8539 567.859 99.7039 567.542 100.525 567.236L100.551 567.227C102.634 566.45 104.787 565.649 106.77 564.373C106.784 564.363 106.799 564.354 106.814 564.345C106.822 564.34 106.83 564.335 106.837 564.329C117.981 556.659 118.699 543.971 119.332 532.775L119.356 532.356C119.415 531.315 119.471 530.311 119.537 529.322C120.939 529.155 122.34 528.964 123.738 528.748C123.936 530.927 124.132 533.105 124.325 535.276C124.433 536.464 125.416 537.396 126.65 537.476C127.879 537.556 129.111 537.63 130.344 537.698C130.663 542.749 129.874 546.205 127.996 551.973C127.991 551.985 127.987 552.001 127.983 552.013C127.216 554.519 124.9 557.245 122.658 559.88L122.634 559.908C120.141 562.843 117.567 565.874 116.454 569.232C115.079 573.388 116.216 577.312 119.862 580.9C119.921 580.962 124.908 585.272 134.025 585.272C136.721 585.272 139.779 584.894 143.179 583.912C143.333 583.869 143.483 583.809 143.625 583.737C144.446 583.322 145.304 582.966 146.183 582.681C146.279 582.647 146.379 582.612 146.47 582.569C148.087 581.812 149.587 580.844 150.929 579.694C158.37 573.613 163.162 565.132 164.42 555.82C165.453 548.485 165.876 542.499 165.684 537.977C172.547 537.514 179.674 536.364 186.162 533.388C186.415 533.272 186.638 533.12 186.828 532.942C187.446 532.582 187.897 531.969 188.008 531.228C200.516 448.86 187.983 364.885 172.575 286.408C172.321 285.098 171.012 284.243 169.654 284.488C168.296 284.737 167.404 285.994 167.662 287.303ZM114.493 529.818C111.262 530.071 108.025 530.196 104.787 530.196C101.502 530.196 98.2186 530.066 94.9401 529.807C94.8795 530.693 94.7279 531.652 94.2789 532.517C94.1283 532.808 93.9523 533.226 93.7779 533.641L93.7373 533.738L93.6864 533.859C93.4776 534.359 93.2639 534.871 93.0289 535.328C92.9579 535.465 92.8748 535.593 92.7789 535.713C88.9039 540.597 84.1957 544.134 79.6414 547.556L79.5082 547.656C77.4454 549.207 75.3142 550.809 73.2748 552.531C71.0789 554.434 68.8332 557.627 68.8207 560.414C68.8164 561.63 69.2457 562.658 70.1332 563.546C79.1248 567.236 93.5083 564.815 96.0664 563.763C96.9086 563.413 97.7436 563.102 98.5539 562.801L98.7204 562.739C100.629 562.028 102.437 561.353 103.962 560.382C113.125 554.049 113.741 543.09 114.337 532.493C114.386 531.611 114.437 530.712 114.493 529.818ZM135.364 537.944C135.633 543.414 134.697 547.476 132.771 553.398C131.718 556.827 129.083 559.926 126.537 562.922L126.525 562.936C120.875 569.582 118.858 572.975 123.358 577.456C123.812 577.802 130.3 582.5 141.529 579.362C142.462 578.906 143.433 578.509 144.42 578.175C145.579 577.621 146.658 576.914 147.621 576.083C147.629 576.075 147.637 576.068 147.646 576.061C147.654 576.054 147.662 576.047 147.671 576.038C154.171 570.734 158.358 563.329 159.462 555.185C160.441 548.226 160.855 542.42 160.686 538.21C159.326 538.25 157.987 538.272 156.675 538.287C155.262 538.3 153.846 538.307 152.429 538.307C146.75 538.307 141.045 538.187 135.364 537.944Z" fill="black"/>
<g clip-path="url(#clip1_846_12654)">
<path d="M141.404 159.375C141.779 163.583 143.5 173.092 149.904 171.667L150.592 172.708C150.279 179.238 146.971 183.842 141.788 188.612C136.521 193.383 129.804 196.25 122.717 196.754C116.467 197.213 109.821 195.717 105.146 191.525C100.471 187.333 98.0126 181.525 101.108 176.546H101.558C102.967 176.587 104.263 175.85 105.454 175.1C106.971 174.142 110.1 170.212 111.038 169.083C112.288 167.462 112.796 161.317 113.438 159.375H141.404Z" fill="white"/>
<path d="M150.65 169.375C158.021 171.35 163.737 177.029 168.341 182.846C173.362 189.196 177.3 196.329 180 203.958C181.512 208.221 183.904 213.017 184.891 217.425L186.208 221.458C193.341 252.179 194.616 283.867 195.083 315.458L195.5 315.933C198.066 325.325 207.65 349.075 209.733 359.075C209.8 359.929 209.658 360.788 209.316 361.575C205.15 366.575 198.066 365.325 192.587 367.025L173.225 370.879C145.512 375.85 117.7 377.067 89.9373 372.383L84.6998 371.771L66.7832 368.342C65.1664 368.033 63.3914 367.621 62.4457 366.258C61.6623 365.142 61.6664 363.671 61.7248 362.308C61.9623 356.892 62.5873 351.517 63.2123 346.137L66.0707 321.496H65.8539C61.6207 320.979 58.2207 320.467 53.9873 319.954C55.7414 300.6 57.9914 281.296 60.7373 262.037C63.1248 245.267 65.9039 228.492 70.8373 212.287C75.2207 197.887 82.1748 182.996 95.3789 175.775L113.712 177.025L150.65 169.375Z" fill="white"/>
<path d="M164.975 340.596C160.963 341.892 155.767 346.488 159.142 350.938C161.013 353.392 163.829 354.713 166.417 356.25C168.413 357.438 168.938 361.433 169.713 363.554C171.658 368.9 175.45 373.271 181.65 372.871C187.967 372.454 191.896 367.075 193.096 361.271C194.4 354.979 192.679 346.813 191.633 340.596H164.975Z" fill="white"/>
<path d="M61.7126 363.433C57.5166 363.271 53.4751 360.733 51.8085 356.983C52.2251 350.317 53.4751 342.4 48.0585 336.983C47.2251 333.65 49.7251 331.15 52.6416 330.063L65.1416 329.408L61.7126 363.433Z" fill="white"/>
<path d="M113.75 177.05L117.742 194.375C124.087 192.146 130.45 189.913 136.492 186.958C138.667 185.896 140.85 184.696 142.425 182.858C144.287 180.688 145.121 177.858 145.908 175.096C147.092 170.929 148.283 166.763 148.675 162.442C143.517 162.838 138.75 165.208 134.133 167.538C128.004 170.625 121.875 173.721 113.75 177.05Z" fill="white"/>
<path d="M109.375 168.75L107.729 171.767C107.504 172.4 107.417 173.075 107.463 173.746C107.746 175.688 110.059 176.488 111.975 176.892C109.821 182.063 106.709 186.783 102.809 190.804C100.65 188.488 99.0085 185.742 97.9916 182.742C96.9751 179.742 96.6126 176.563 96.921 173.413L109.375 167.188C110.15 168.458 109.834 169.133 109.375 168.75Z" fill="white"/>
<path d="M161.067 329.683C160.408 332.871 160.192 336.129 160.417 339.375C160.408 339.563 160.433 339.75 160.5 339.925C160.567 340.1 160.667 340.263 160.796 340.4C161.058 340.558 161.367 340.629 161.671 340.596L190.004 340.517C190.433 340.55 190.862 340.471 191.254 340.292C192.054 339.838 192.117 338.729 192.087 337.792L191.787 330.113L161.067 329.683Z" fill="white"/>
<path d="M55.2707 320.812C53.9332 323.625 53.6626 326.812 53.4126 329.917C56.9582 330.996 60.6417 331.558 64.3457 331.583L65.6626 321.783L55.2707 320.812Z" fill="white"/>
<path d="M184.888 219.925C183.742 219.925 182.713 219.133 182.45 217.971C181.85 215.296 180.646 212.346 179.48 209.492C178.842 207.937 178.188 206.329 177.642 204.796C175.025 197.404 171.238 190.542 166.38 184.396C162.834 179.917 157.28 173.742 150 171.787C148.667 171.429 147.875 170.058 148.234 168.725C148.592 167.392 149.963 166.6 151.296 166.958C160.009 169.292 166.317 176.258 170.3 181.292C175.5 187.871 179.559 195.212 182.355 203.121C182.859 204.542 183.467 206.025 184.109 207.596C185.355 210.642 186.638 213.792 187.33 216.875C187.63 218.221 186.784 219.558 185.438 219.862C185.255 219.904 185.071 219.925 184.888 219.925Z" fill="black"/>
<path d="M80.9417 373.571C80.7873 373.571 80.6292 373.554 80.4707 373.525L66.3248 370.817C64.6832 370.488 61.9792 369.942 60.4123 367.717C59.1873 365.971 59.1623 363.963 59.2373 362.221C59.4792 356.713 60.1207 351.2 60.7373 345.871L65.7873 302.325C69.2207 272.938 72.7667 242.546 79.6748 213.225C79.9917 211.883 81.3373 211.046 82.6832 211.367C84.0248 211.683 84.8582 213.029 84.5417 214.375C77.6998 243.417 74.1707 273.663 70.7542 302.913L65.7042 346.454C65.0957 351.7 64.4667 357.121 64.2292 362.446C64.1998 363.108 64.1457 364.35 64.4998 364.85C64.9167 365.442 66.3998 365.742 67.2832 365.917L81.4082 368.621C82.7623 368.879 83.6542 370.192 83.3917 371.546C83.1623 372.738 82.1167 373.571 80.9417 373.571Z" fill="black"/>
<path d="M125.821 377.829C113.367 377.829 101.317 376.833 89.5167 374.842C88.1542 374.613 87.2377 373.321 87.4667 371.963C87.6961 370.6 88.9836 369.679 90.3461 369.913C116.034 374.246 142.996 373.754 172.775 368.413C174.134 368.167 175.434 369.071 175.675 370.433C175.921 371.792 175.017 373.092 173.654 373.333C156.942 376.329 141.079 377.829 125.821 377.829Z" fill="black"/>
<path d="M192.579 369.517C191.513 369.517 190.525 368.829 190.192 367.758C189.783 366.438 190.521 365.037 191.838 364.629C193.817 364.017 195.904 363.754 197.921 363.504C201.671 363.037 204.933 362.629 207.125 360.267C207.208 359.988 207.246 359.692 207.238 359.4C206.025 353.742 202.313 343.363 199.033 334.192C196.542 327.221 194.183 320.637 193.079 316.587C192.717 315.254 193.5 313.879 194.833 313.517C196.163 313.154 197.542 313.938 197.904 315.271C198.963 319.138 201.283 325.633 203.746 332.508C207.279 342.387 210.933 352.604 212.175 358.563C212.196 358.667 212.213 358.771 212.221 358.879C212.317 360.133 212.104 361.408 211.608 362.562C211.513 362.783 211.388 362.987 211.233 363.171C207.779 367.317 202.875 367.929 198.546 368.467C196.663 368.7 194.879 368.925 193.325 369.408C193.075 369.479 192.825 369.517 192.579 369.517Z" fill="black"/>
<path d="M180.879 376.067C174.825 376.067 169.933 372.108 167.371 365.071C167.142 364.437 166.946 363.729 166.742 362.979C166.45 361.917 165.771 359.429 165.15 359.062C164.708 358.8 164.267 358.546 163.821 358.292C161.567 357.004 159.012 355.542 157.162 353.108C155.162 350.483 155.308 348.117 155.783 346.596C156.854 343.179 160.571 340.883 163.696 339.875C165.008 339.454 166.421 340.171 166.842 341.487C167.262 342.804 166.546 344.212 165.229 344.633C162.912 345.383 160.946 346.837 160.554 348.092C160.479 348.329 160.283 348.958 161.137 350.079C162.375 351.704 164.283 352.796 166.3 353.95C166.771 354.221 167.242 354.487 167.704 354.762C170.058 356.158 170.892 359.208 171.562 361.654C171.737 362.3 171.908 362.912 172.067 363.354C173.417 367.058 176.142 371.387 181.5 371.042C185.021 370.808 189.271 368.162 190.667 361.433C191.737 356.254 190.767 350.679 189.829 345.283C189.717 344.633 189.604 343.987 189.496 343.342C189.267 341.979 190.183 340.692 191.546 340.462C192.908 340.229 194.196 341.15 194.425 342.512C194.533 343.15 194.642 343.787 194.754 344.429C195.771 350.283 196.825 356.337 195.562 362.45C193.946 370.258 188.558 375.592 181.833 376.033C181.512 376.058 181.192 376.067 180.879 376.067Z" fill="black"/>
<path d="M61.425 365.896C61.3959 365.896 61.3668 365.896 61.3418 365.896C58.8334 365.813 56.4043 365.033 54.3168 363.638C52.2293 362.246 50.575 360.304 49.5375 358.021C49.3668 357.646 49.2918 357.238 49.3168 356.829C49.3584 356.138 49.4125 355.429 49.4668 354.713C49.9 348.858 50.3459 342.804 46.2959 338.75C45.975 338.429 45.75 338.029 45.6375 337.588C44.6 333.438 47.0669 329.471 51.775 327.717C53.0669 327.233 54.5084 327.892 54.9918 329.188C55.475 330.479 54.8168 331.921 53.5209 332.404C52.9543 332.617 50.325 333.713 50.4084 335.821C55.4625 341.438 54.9043 348.979 54.4543 355.079C54.4209 355.55 54.3834 356.013 54.3543 356.475C55.0084 357.683 55.95 358.713 57.0959 359.479C58.4084 360.354 59.9334 360.846 61.5125 360.896C62.8918 360.942 63.975 362.096 63.9293 363.479C63.8793 364.829 62.7668 365.896 61.425 365.896Z" fill="black"/>
<path d="M117.759 196.863C117.342 196.863 116.921 196.758 116.555 196.558C115.93 196.217 115.467 195.629 115.305 194.938L111.313 177.612C111.038 176.421 111.667 175.204 112.8 174.737C120.746 171.483 126.875 168.392 132.805 165.408L133.005 165.308C137.571 163.004 142.746 160.392 148.48 159.954C149.213 159.896 149.934 160.167 150.45 160.692C150.967 161.217 151.225 161.942 151.159 162.671C150.75 167.179 149.525 171.492 148.342 175.658L148.305 175.783C147.534 178.492 146.575 181.858 144.313 184.492C142.459 186.654 139.984 188.037 137.58 189.208C131.417 192.221 124.9 194.513 118.596 196.725C118.334 196.817 118.046 196.863 117.759 196.863ZM116.663 178.546L119.55 191.088C124.909 189.192 130.33 187.187 135.392 184.712C137.18 183.837 139.2 182.775 140.525 181.233C142.071 179.429 142.8 176.879 143.5 174.412L143.534 174.287C144.392 171.262 145.217 168.362 145.738 165.437C142.125 166.304 138.642 168.058 135.25 169.771L135.046 169.875C129.538 172.654 123.842 175.521 116.663 178.546Z" fill="black"/>
<path d="M102.808 193.304C102.8 193.304 102.792 193.304 102.783 193.304C102.1 193.296 101.446 193.008 100.979 192.508C98.5625 189.917 96.7625 186.9 95.625 183.542C94.4875 180.183 94.0875 176.696 94.4334 173.167C94.5125 172.337 95.004 171.604 95.7334 171.208L109.179 163.958C110.129 163.446 111.3 163.6 112.083 164.342C112.867 165.083 113.087 166.246 112.629 167.221L110.054 172.7C109.983 172.929 109.95 173.167 109.95 173.408C110.029 173.521 110.512 174.029 112.492 174.446C113.221 174.6 113.842 175.071 114.187 175.729C114.533 176.387 114.571 177.167 114.283 177.854C112 183.337 108.742 188.279 104.604 192.546C104.133 193.029 103.483 193.304 102.808 193.304ZM99.325 174.958C99.2459 177.333 99.5959 179.675 100.362 181.942C100.975 183.75 101.829 185.433 102.912 186.975C105.137 184.354 107.021 181.487 108.542 178.408C106.458 177.442 105.267 176 104.987 174.108C104.979 174.046 104.971 173.987 104.967 173.925C104.917 173.217 104.967 172.517 105.112 171.829L99.325 174.958Z" fill="black"/>
<path d="M65.8542 324C65.7542 324 65.6501 323.996 65.5501 323.983C63.4585 323.729 61.5417 323.471 59.6917 323.221C57.7917 322.967 55.8251 322.7 53.6876 322.442C52.346 322.279 51.3751 321.079 51.5001 319.733C53.2501 300.412 55.5251 280.883 58.2667 261.687C60.5835 245.417 63.421 228.083 68.4501 211.562C74.4292 191.996 82.6085 179.933 94.196 173.596C95.4085 172.933 96.9251 173.379 97.5876 174.592C98.2501 175.804 97.8041 177.321 96.5917 177.983C86.2251 183.654 78.8001 194.787 73.2292 213.021C68.3001 229.217 65.5001 246.321 63.2126 262.392C60.596 280.708 58.4085 299.329 56.696 317.775C57.9626 317.937 59.171 318.1 60.3585 318.262C62.196 318.508 64.0917 318.767 66.1542 319.017C67.5251 319.183 68.5001 320.429 68.3335 321.8C68.1751 323.071 67.1001 324 65.8542 324Z" fill="black"/>
<path d="M106.604 377.088C105.354 377.088 104.275 376.154 104.125 374.883C99.646 337.246 102.079 298.958 104.429 261.929L109.679 179.217C109.767 177.837 110.959 176.804 112.334 176.879C113.713 176.967 114.759 178.154 114.671 179.533L109.421 262.246C107.084 299.05 104.667 337.108 109.092 374.292C109.254 375.663 108.275 376.908 106.904 377.071C106.804 377.083 106.704 377.088 106.604 377.088Z" fill="black"/>
<path d="M195.259 332.425C195.246 332.425 195.23 332.425 195.217 332.425L158.942 331.829C157.705 331.808 156.667 330.883 156.505 329.654C151.567 292.058 149.842 253.783 151.38 215.896C151.434 214.517 152.596 213.45 153.98 213.5C155.359 213.554 156.434 214.721 156.375 216.1C154.88 252.987 156.496 290.242 161.184 326.867L192.73 327.383C192.713 325.867 192.7 324.354 192.684 322.846C192.359 289.387 192.05 257.787 184.434 224.95C184.121 223.604 184.959 222.262 186.305 221.95C187.65 221.637 188.992 222.475 189.305 223.821C197.046 257.192 197.355 289.058 197.684 322.8C197.705 325.158 197.73 327.521 197.755 329.9C197.763 330.575 197.496 331.225 197.017 331.7C196.555 332.162 195.917 332.425 195.259 332.425Z" fill="black"/>
<path d="M161.529 343.104C160.817 343.104 160.109 342.908 159.496 342.537C159.309 342.425 159.138 342.287 158.988 342.129C158.621 341.746 158.342 341.296 158.154 340.796C157.992 340.358 157.913 339.9 157.913 339.433C157.684 336 157.921 332.55 158.617 329.183C158.896 327.829 160.217 326.958 161.571 327.242C162.925 327.521 163.792 328.842 163.513 330.196C162.975 332.796 162.754 335.45 162.85 338.1L189.592 338.025C189.592 337.979 189.592 337.929 189.588 337.875L189.288 330.208C189.234 328.829 190.309 327.667 191.688 327.612C193.075 327.55 194.229 328.633 194.284 330.012L194.584 337.692C194.613 338.575 194.692 341.212 192.488 342.462C192.425 342.496 192.363 342.529 192.296 342.558C191.559 342.9 190.742 343.054 189.929 343.012L161.771 343.092C161.692 343.1 161.609 343.104 161.529 343.104Z" fill="black"/>
<path d="M64.346 334.083H64.3294C60.3794 334.058 56.4626 333.458 52.6835 332.308C51.5585 331.967 50.8251 330.887 50.921 329.717C51.1751 326.571 51.4626 323.004 53.0126 319.737C53.6044 318.492 55.096 317.962 56.346 318.554C57.5919 319.146 58.121 320.637 57.5294 321.887C56.6501 323.737 56.3001 325.883 56.0835 328.058C58.7919 328.721 61.571 329.067 64.3626 329.083C65.7419 329.092 66.8544 330.221 66.846 331.6C66.8376 332.975 65.7169 334.083 64.346 334.083Z" fill="black"/>
</g>
<path d="M113.266 88.1916C110.125 87.4541 107.383 85.575 104.366 84.4416C96.9454 81.6041 87.9163 83.75 82.5413 89.5831L79.1663 104.583C76.6663 108.333 76.2498 112.917 74.9998 117.5C74.9998 118.817 69.9329 136.6 81.6663 148.333C85.8329 152.5 91.2498 154.167 96.8748 155.417C101.92 156.196 107.433 156.979 112.291 155C112.012 159.337 111.97 162.433 112.17 166.775L141.545 163.75C141.066 158.05 142.116 152.921 144.595 147.762C145.154 146.596 146.366 146.608 147.562 146.229C148.62 145.896 149.671 145.512 150.696 145.079C152.783 144.212 154.754 143.092 156.57 141.746C160.162 139.033 162.958 135.225 164.012 130.808C164.966 126.804 164.295 122.037 159.825 119.783C156.691 118.2 153.879 118.762 149.1 122.962L147.041 123.596C144.475 124.3 141.958 121.879 141.329 119.292C140.7 116.704 141.329 114.004 141.487 111.346C141.787 106.312 140.291 101.1 136.962 97.3125C133.633 93.525 128.408 91.3375 123.425 92.1081" fill="white"/>
<path d="M140.625 64.7916C151.342 64.675 166.913 71.3 171.738 80.8541C175.817 88.9206 176.108 98.8416 181.767 105.892C183.996 108.667 186.975 110.858 188.729 113.954C190.483 117.05 190.454 121.675 187.392 123.487C184.721 125.071 180.825 123.904 178.609 126.079C177.359 127.275 177.1 129.104 176.733 130.775C176.2 133.212 175.221 135.746 173.138 137.117C171.054 138.487 167.663 138 167.154 135.45C167.154 135.45 162.5 132.812 164.063 128.125C165.102 125.007 164.241 122.295 160.938 120.312C153.125 115.625 152.476 122.301 147.054 123.575C144.488 124.279 141.971 121.858 141.342 119.271C140.713 116.683 141.342 113.983 141.5 111.325C141.8 106.292 140.304 101.079 136.975 97.2916C130.417 91.4581 122.5 92.7081 117.083 90.2081C117.083 90.2081 127.213 86.1956 130.417 82.2916C132.767 79.4416 140.625 64.7916 140.625 64.7916Z" fill="black"/>
<path d="M138.217 68.3332C135.671 73.5041 133.046 78.7791 128.938 82.8251C124.829 86.8707 118.879 89.5166 113.267 88.2001C110.125 87.4626 107.384 85.5832 104.367 84.4501C96.9461 81.6041 87.9167 83.7501 82.5417 89.5832C79.2086 93.2291 79.7711 98.7582 77.0836 102.917C75.0167 106.113 70.0292 108.175 67.0836 110.583C65.9167 111.533 64.5377 112.454 63.0417 112.292C59.5042 111.904 59.4211 106.788 60.3792 103.358L50.6667 102.55C49.9167 102.546 49.1752 102.363 48.5086 102.017C46.5127 100.767 47.6752 97.3832 49.7586 96.3126C51.8417 95.2416 54.3836 95.4791 56.6792 94.9082C63.7086 93.1666 66.5252 85.0126 69.6627 78.4832C78.4127 60.2707 98.5917 48.1957 118.779 49.0751C128.334 49.4876 144.417 55.7416 138.217 68.3332Z" fill="black"/>
<path d="M146.154 126.213C145.025 126.213 143.888 125.896 142.838 125.275C140.921 124.142 139.454 122.121 138.909 119.875C138.35 117.571 138.588 115.375 138.813 113.25C138.888 112.533 138.963 111.858 139 111.192C139.275 106.554 137.854 102.096 135.092 98.9582C132.679 96.2125 130.134 95.5 125.375 96.2332C124.013 96.4416 122.734 95.5082 122.525 94.1416C122.317 92.7791 123.25 91.5 124.617 91.2916C129.371 90.5582 134.388 90.5791 138.85 95.6582C142.471 99.7791 144.346 105.55 143.992 111.492C143.946 112.271 143.863 113.042 143.783 113.783C143.592 115.563 143.413 117.238 143.767 118.704C143.988 119.621 144.638 120.533 145.384 120.975C145.942 121.304 146.284 121.213 146.396 121.183C147.729 120.821 149.1 121.608 149.463 122.942C149.825 124.275 149.038 125.646 147.704 126.008C147.2 126.142 146.679 126.213 146.154 126.213Z" fill="black"/>
<path d="M63.3999 114.813C63.1955 114.813 62.983 114.8 62.7705 114.779C61.0705 114.592 59.6705 113.746 58.7124 112.333C57.4665 110.492 57.1999 107.971 57.4249 105.625L50.5455 105.054C49.4374 105.033 48.333 104.75 47.3499 104.238C47.2915 104.208 47.233 104.175 47.179 104.138C45.704 103.213 44.8999 101.629 44.979 99.7875C45.0749 97.4831 46.5705 95.1416 48.6124 94.0916C50.3124 93.2166 52.1205 93.0206 53.7124 92.8416C54.5624 92.75 55.3624 92.6581 56.0749 92.4832C61.0249 91.2582 63.6415 85.5581 66.1749 80.0456C66.5874 79.15 66.9955 78.2581 67.408 77.4C76.5705 58.3291 97.7455 45.6541 118.887 46.575C125.246 46.85 136.229 49.8291 140.429 56.9166C141.975 59.5206 143.233 63.8081 140.462 69.4375C137.979 74.4875 135.158 80.2081 130.696 84.6041C125.512 89.7081 118.616 92.0206 112.7 90.6331C110.529 90.125 108.621 89.1831 106.771 88.2791C105.641 87.725 104.575 87.2 103.491 86.7916C97.0749 84.3291 89.0455 86.2206 84.383 91.2791C83.0499 92.7375 82.5915 95.0041 82.104 97.4081C81.604 99.8706 81.0915 102.417 79.604 104.717C77.9874 107.221 75.1705 108.742 72.4455 110.217C70.9955 111 69.6205 111.742 68.6705 112.521C67.329 113.608 65.554 114.813 63.3999 114.813ZM49.979 99.9331C50.204 100.008 50.4415 100.05 50.679 100.05C50.7455 100.05 50.808 100.054 50.8749 100.058L60.5874 100.867C61.329 100.929 62.008 101.317 62.433 101.929C62.858 102.542 62.9874 103.313 62.7874 104.029C62.1874 106.171 62.2205 108.588 62.858 109.529C62.9874 109.721 63.0874 109.779 63.3165 109.804C63.9999 109.879 65.133 108.946 65.508 108.642C66.8249 107.567 68.4705 106.675 70.0665 105.813C72.2374 104.638 74.483 103.425 75.404 101.996C76.3749 100.492 76.779 98.5081 77.204 96.4081C77.7749 93.5831 78.4249 90.3791 80.6999 87.8916C86.7955 81.275 96.8955 78.9 105.266 82.1125C106.562 82.6 107.791 83.2041 108.979 83.7875C110.65 84.6082 112.225 85.3831 113.841 85.7625C118.933 86.9541 124.075 84.1041 127.187 81.0416C131.05 77.2375 133.554 72.15 135.979 67.2291C137.429 64.2831 137.479 61.7416 136.133 59.4666C133.412 54.8791 125.125 51.85 118.679 51.5706C99.4624 50.7331 80.2455 62.2456 71.9249 79.5625C71.5249 80.3956 71.129 81.2581 70.729 82.1291C67.8455 88.4081 64.5749 95.525 57.2915 97.3291C56.258 97.5875 55.2499 97.6956 54.2749 97.8041C52.9999 97.9456 51.7915 98.0791 50.9124 98.5291C50.383 98.8041 50.0205 99.5375 49.979 99.9331Z" fill="black"/>
<path d="M170.562 140.367C169.667 140.367 168.775 140.2 167.962 139.863C166.246 139.146 165.054 137.717 164.704 135.942C164.433 134.588 165.312 133.271 166.667 133C168.021 132.729 169.337 133.608 169.608 134.963C169.625 135.046 169.646 135.142 169.892 135.246C170.421 135.467 171.242 135.371 171.762 135.029C172.925 134.263 173.754 132.696 174.292 130.242C174.333 130.063 174.371 129.879 174.408 129.696C174.767 127.992 175.212 125.871 176.883 124.271C178.7 122.488 181.108 122.229 183.042 122.021C184.246 121.892 185.383 121.771 186.117 121.333C187.771 120.354 187.708 117.225 186.554 115.183C185.637 113.567 184.25 112.163 182.783 110.675C181.787 109.667 180.754 108.621 179.817 107.454C176.167 102.908 174.596 97.4125 173.079 92.0957C172.05 88.4875 171.075 85.0831 169.504 81.9791C165.058 73.1706 156.154 67.5207 146.771 67.5207C146.687 67.5207 146.6 67.5207 146.517 67.5207C146.508 67.5207 146.5 67.5207 146.487 67.5207C145.121 67.5207 144.004 66.4207 143.987 65.05C143.971 63.6707 145.079 62.5375 146.458 62.525C146.562 62.525 146.662 62.525 146.767 62.525C158.021 62.525 168.671 69.25 173.962 79.7291C175.746 83.2541 176.829 87.0541 177.879 90.7291C179.325 95.7916 180.692 100.571 183.708 104.329C184.487 105.296 185.383 106.204 186.333 107.167C187.967 108.821 189.654 110.529 190.896 112.721C192.037 114.733 192.562 117.183 192.346 119.442C192.079 122.188 190.771 124.388 188.654 125.638C186.987 126.625 185.167 126.821 183.562 126.992C182.158 127.142 180.946 127.271 180.35 127.858C179.775 128.408 179.542 129.529 179.292 130.717C179.25 130.913 179.208 131.108 179.167 131.304C178.337 135.096 176.812 137.679 174.504 139.2C173.35 139.971 171.946 140.367 170.562 140.367Z" fill="black"/>
<path d="M141.496 163.496C140.213 163.496 139.117 162.508 139.009 161.204C138.479 154.929 139.7 152.054 142.292 146.658C143.242 144.687 145.038 144.254 146.113 143.996C146.346 143.938 146.567 143.887 146.759 143.825C147.75 143.512 148.729 143.154 149.675 142.754C151.588 141.963 153.384 140.942 155.034 139.717C158.359 137.204 160.675 133.821 161.534 130.208C161.975 128.387 162.575 123.963 158.671 121.992C156.967 121.129 155.296 120.792 150.717 124.817C149.679 125.729 148.1 125.625 147.188 124.588C146.275 123.55 146.379 121.971 147.417 121.058C153.992 115.279 157.796 115.946 160.921 117.525C165.771 119.975 167.867 125.279 166.392 131.371C165.267 136.104 162.296 140.492 158.029 143.712C156.038 145.192 153.879 146.417 151.604 147.358C150.525 147.812 149.396 148.229 148.259 148.583C147.913 148.692 147.579 148.775 147.288 148.846C147.104 148.892 146.867 148.946 146.713 148.996C144.317 153.996 143.575 155.875 143.992 160.775C144.109 162.15 143.088 163.363 141.713 163.475C141.638 163.492 141.567 163.496 141.496 163.496Z" fill="black"/>
<path d="M112.138 167.183C110.808 167.183 109.704 166.137 109.642 164.796C109.508 161.862 109.479 160.387 109.563 158.375C104.554 159.342 99.4541 158.454 95.5207 157.767C89.1666 156.646 84.2291 154.383 80.4251 150.846C73.4332 144.333 70.1707 133.775 71.4707 121.871C71.9582 117.458 73.7751 110.892 76.3376 104.304C76.8376 103.017 78.2876 102.379 79.5751 102.879C80.8626 103.379 81.5001 104.829 81.0001 106.117C78.1582 113.425 76.7832 119.329 76.4416 122.417C75.3126 132.729 78.0041 141.758 83.8332 147.183C86.9501 150.083 90.9376 151.879 96.3832 152.837C101.95 153.808 106.917 154.462 111.313 152.667C112.108 152.342 113.017 152.45 113.717 152.95C114.417 153.45 114.808 154.279 114.754 155.137C114.488 159.329 114.442 160.254 114.642 164.554C114.704 165.933 113.638 167.104 112.258 167.167C112.217 167.183 112.179 167.183 112.138 167.183Z" fill="black"/>
<path d="M91.0123 116.708C92.6232 116.708 93.9288 115.123 93.9288 113.167C93.9288 111.211 92.6232 109.625 91.0123 109.625C89.4013 109.625 88.0957 111.211 88.0957 113.167C88.0957 115.123 89.4013 116.708 91.0123 116.708Z" fill="black"/>
<path d="M105.179 117.688C106.79 117.688 108.096 116.102 108.096 114.146C108.096 112.19 106.79 110.604 105.179 110.604C103.569 110.604 102.263 112.19 102.263 114.146C102.263 116.102 103.569 117.688 105.179 117.688Z" fill="black"/>
</g>
<defs>
<clipPath id="clip0_846_12654">
<rect width="250" height="600" fill="white"/>
</clipPath>
<clipPath id="clip1_846_12654">
<rect width="250" height="250" fill="white" transform="translate(0 159.375)"/>
</clipPath>
</defs>
</svg>
