<svg width="250" height="600" viewBox="0 0 250 600" fill="none" xmlns="http://www.w3.org/2000/svg">
<g clip-path="url(#clip0_846_12065)">
<path d="M133.858 541.657C133.296 546.959 130.567 554.636 126.629 561.978C125.729 563.647 111.529 576.843 119.963 585.759C130.796 592.434 147.463 588.678 154.963 578.25C157.463 574.494 159.129 571.156 159.963 566.984C162.463 558.641 160.796 550.297 161.129 542.099" fill="black"/>
<path d="M92.6587 534.778C89.1293 542.37 79.9627 548.628 73.7127 553.634L69.9627 557.389C69.5462 558.641 68.7127 559.475 67.8793 560.309C66.6627 562.613 66.2252 565.245 66.6293 567.819C67.4627 569.905 69.5462 571.574 71.6293 571.574C84.1293 573.659 97.8793 574.077 108.296 565.316C111.629 562.395 113.713 558.224 114.963 554.052C116.629 548.211 116.213 541.954 116.692 536.025" fill="black"/>
<path d="M124.45 541.882C134.704 539.55 145.383 541.511 155.904 541.532C174.104 541.561 191.737 535.758 209.025 530.017L197.562 487.393C195.454 479.555 193.333 471.715 192.033 463.68C191.871 462.704 192.033 464.306 191.7 462.809C189.041 450.28 187.358 437.565 186.666 424.778C185.716 403.868 183.987 382.921 180.783 361.728C176.616 334.611 171.2 308.746 166.579 282.004L80.3788 282.571C65.0538 370.26 68.5332 459.409 69.5457 472.662C70.9373 491.511 69.0538 510.46 63.9707 528.662C79.0457 532.808 99.3082 533.484 114.937 533.113C119.487 533.005 120.625 533.067 124.9 532.483" fill="black"/>
<path fill-rule="evenodd" clip-rule="evenodd" d="M122.679 543.651C123.154 544.127 123.792 544.386 124.45 544.386C124.634 544.386 124.821 544.365 125.013 544.34C127.013 543.885 129.028 543.601 131.065 543.439C130.144 548.255 127.715 554.654 124.463 560.731C124.325 560.927 123.892 561.432 123.509 561.878C120.034 565.937 109.463 578.294 118.15 587.481C118.3 587.634 118.471 587.778 118.654 587.891C122.613 590.325 127.454 591.594 132.525 591.594C134.738 591.594 136.996 591.353 139.246 590.866C146.575 589.266 153.046 585.203 156.992 579.712L157.042 579.637C160 575.195 161.554 571.695 162.392 567.589C164.166 561.589 163.942 555.706 163.725 550.014L163.725 550.005C163.642 547.849 163.564 545.787 163.589 543.743C179.579 542.457 194.909 537.363 209.802 532.414L209.821 532.408C211.075 531.991 211.792 530.664 211.446 529.383L199.913 486.497C197.879 478.921 195.779 471.09 194.504 463.284C194.338 462.291 194.075 460.973 193.729 459.371C191.25 447.986 189.721 436.313 189.179 424.678C188.121 401.374 186.188 380.664 183.271 361.361C180.734 344.853 177.688 328.549 174.742 312.784C172.838 302.605 170.871 292.075 169.059 281.591C168.821 280.227 167.529 279.317 166.167 279.551C164.804 279.784 163.896 281.082 164.129 282.442C165.935 292.872 167.888 303.33 169.778 313.447L169.825 313.702C172.763 329.426 175.8 345.687 178.325 362.112C181.217 381.236 183.134 401.774 184.184 424.903C184.738 436.822 186.304 448.774 188.842 460.427C189.167 461.924 189.417 463.197 189.567 464.089C190.881 472.123 193.009 480.06 195.068 487.741L206 528.391C189.85 533.747 173.184 539.033 156.046 539.033H155.913C152.739 539.025 149.459 538.832 146.287 538.646L146.196 538.641C140.088 538.278 133.8 537.907 127.584 538.774C128.971 529.525 127.746 520.402 126.554 511.544L126.527 511.343C126.382 510.272 126.237 509.203 126.1 508.132C125.838 506.142 125.579 504.189 125.321 502.266L125.318 502.242C123.361 487.588 121.671 474.937 122.05 459.876C122.084 458.495 120.992 457.343 119.613 457.31C118.229 457.293 117.084 458.37 117.05 459.751C116.659 475.211 118.375 488.056 120.362 502.928C120.437 503.488 120.512 504.053 120.588 504.62C120.77 505.989 120.955 507.377 121.138 508.779C121.274 509.841 121.417 510.907 121.561 511.976L121.595 512.23C122.354 517.883 123.128 523.648 123.184 529.399C122.96 529.442 122.739 529.517 122.525 529.625C118.804 531.507 114.263 531.766 110.296 531.862C95.7085 532.208 81.1666 530.531 67.0416 526.889C71.7126 509.121 73.396 490.827 72.0376 472.471C70.6041 453.706 68.2376 366.563 82.8416 283.001C83.0791 281.641 82.1666 280.343 80.8085 280.106C79.4501 279.868 78.1541 280.781 77.9166 282.141C63.2251 366.217 65.6126 453.96 67.0541 472.85C68.4291 491.465 66.5791 510.017 61.5626 527.99C61.3835 528.632 61.4666 529.317 61.796 529.897C62.121 530.477 62.6666 530.902 63.3085 531.077C71.7023 533.383 80.2463 535.011 88.8682 535.952C88.8126 536.04 88.7619 536.132 88.7166 536.23C86.3241 541.375 81.7832 544.635 76.9735 548.089L76.9541 548.103C75.3585 549.246 73.7126 550.427 72.1416 551.686C72.071 551.745 72.0041 551.803 71.9376 551.87L68.1876 555.625C67.9126 555.896 67.7041 556.234 67.5835 556.601C67.3666 557.26 66.8791 557.769 66.1041 558.545C65.9291 558.72 65.7791 558.92 65.6626 559.142C64.2041 561.903 63.6666 565.124 64.1541 568.211C64.1835 568.395 64.2335 568.574 64.3041 568.749C65.5291 571.807 68.421 573.964 71.396 574.072C75.6416 574.773 80.2916 575.349 85.046 575.349C93.5791 575.349 102.45 573.501 109.9 567.231C109.906 567.224 109.913 567.219 109.919 567.214L109.926 567.208L109.938 567.197C113.259 564.285 115.754 560.105 117.363 554.736C118.612 550.367 118.767 545.891 118.916 541.559L118.917 541.549L118.918 541.507C118.98 539.674 119.039 537.943 119.179 536.225C119.185 536.156 119.187 536.087 119.187 536.018C120.468 535.745 121.744 535.38 122.994 534.891C122.814 537.045 122.5 539.191 122.013 541.323C121.821 542.162 122.071 543.042 122.679 543.651ZM158.587 544.016C157.743 544.04 156.898 544.052 156.05 544.052H155.909C152.589 544.043 149.237 543.847 145.994 543.657L145.904 543.651C142.583 543.454 139.345 543.262 136.17 543.256C135.309 548.78 132.624 556.092 128.834 563.163C128.575 563.639 128.179 564.11 127.304 565.132C122.204 571.094 116.979 578.575 121.563 583.8C126.125 586.494 132.159 587.284 138.179 585.972C144.304 584.634 149.667 581.303 152.909 576.822C155.488 572.942 156.821 569.947 157.513 566.492L157.517 566.472C157.532 566.403 157.548 566.331 157.571 566.263C159.142 561.019 158.942 555.762 158.729 550.193L158.723 550.017C158.649 548.05 158.574 546.035 158.587 544.016ZM106.563 536.914C102.135 536.914 97.7148 536.734 93.3113 536.375C93.5513 536.989 93.5504 537.696 93.2501 538.341C90.3001 544.682 84.996 548.491 79.8666 552.17C78.3626 553.247 76.8126 554.361 75.3751 555.508L72.096 558.791C71.5291 560.097 70.6791 561.031 69.921 561.799C69.1291 563.447 68.821 565.316 69.046 567.131C69.5751 568.207 70.7041 569.075 71.621 569.075C71.7585 569.075 71.896 569.087 72.0335 569.108C82.8501 570.914 96.5626 571.895 106.663 563.417C109.254 561.14 111.242 557.744 112.563 553.334C113.634 549.584 113.779 545.412 113.917 541.377C113.969 539.842 114.025 538.266 114.131 536.702C112.859 536.793 111.614 536.836 110.417 536.863C109.129 536.897 107.846 536.914 106.563 536.914Z" fill="black"/>
<path d="M119.541 455.596C118.233 455.596 117.133 454.573 117.05 453.251C116.141 438.749 115.004 423.092 113.796 406.509L113.75 405.876C112.597 390.037 111.407 373.677 110.387 357.752C110.071 354.415 107.391 350.957 103.621 351.194C102.241 351.273 101.058 350.227 100.975 348.846C100.891 347.465 101.941 346.28 103.321 346.197C110.104 345.8 114.854 351.657 115.371 357.331L115.371 357.341L115.373 357.365C115.374 357.376 115.375 357.387 115.375 357.398C116.392 373.273 117.579 389.593 118.729 405.403L118.788 406.206C119.994 422.775 121.134 438.429 122.041 452.938C122.129 454.319 121.079 455.508 119.704 455.591C119.65 455.596 119.595 455.596 119.541 455.596Z" fill="black"/>
<g clip-path="url(#clip1_846_12065)">
<path d="M141.404 159.375C141.779 163.583 143.5 173.092 149.904 171.667L150.592 172.708C150.279 179.238 146.971 183.842 141.788 188.612C136.521 193.383 129.804 196.25 122.717 196.754C116.467 197.213 109.821 195.717 105.146 191.525C100.471 187.333 98.0126 181.525 101.108 176.546H101.558C102.967 176.587 104.263 175.85 105.454 175.1C106.971 174.142 110.1 170.212 111.038 169.083C112.288 167.462 112.796 161.317 113.438 159.375H141.404Z" fill="white"/>
<path d="M177.954 210.696C177.046 212.163 176.063 213.579 175.013 214.946C171.417 219.588 166.729 223.575 161.125 225.363L160.317 226.646C159.867 264.596 161.738 302.575 165.446 341.646C164.004 341.767 162.638 342.334 161.529 343.267C160.421 344.2 159.629 345.45 159.263 346.85C158.896 348.25 158.967 349.729 159.475 351.084C159.979 352.438 160.892 353.604 162.088 354.421C163.379 355.296 164.929 355.721 166.254 356.55C172.329 360.338 171.6 370.784 178.021 373.942C182.759 376.271 188.696 372.717 190.842 367.888C192.988 363.059 192.4 357.521 191.763 352.279C189.042 329.979 182.554 264.659 181.421 250.988L178.234 212.542L177.954 210.696Z" fill="white"/>
<path d="M72.9165 211.821C66.725 251.284 60.5875 289.829 57.5915 331.138C56.2459 330.975 54.879 331.209 53.6584 331.8C52.4375 332.392 51.4125 333.325 50.7084 334.484C50.004 335.642 49.6415 336.979 49.675 338.334C49.704 339.692 50.125 341.009 50.8834 342.134C51.3334 342.792 51.8959 343.384 52.3084 344.059C53.3625 345.817 53.304 348.004 53.179 350.054C52.9459 353.884 52.6415 357.917 54.2875 361.384C55.9334 364.85 60.3334 367.338 63.704 365.504C66.054 364.221 67.0625 361.429 67.8709 358.879C69.0084 355.513 69.975 352.088 70.7625 348.621C71.6584 344.35 72.0125 339.984 72.3709 335.629L74.454 310.096L79.1665 219.863C77.8959 216.475 75.8375 213.442 73.1625 211.004L72.9165 211.821Z" fill="white"/>
<path d="M184.2 279.988C189.158 290.225 193.125 300.363 193.125 300.363C193.529 301.567 193.513 302.871 193.079 304.063C191.942 306.392 188.017 306.483 186.767 304.217L184.2 279.988Z" fill="white"/>
<path d="M79.1665 219.862C77.1665 214.55 73.2625 210.171 68.2165 207.571C72.9084 204.654 75.275 199.237 78.1 194.483C84.929 183.079 95.479 174.375 107.971 169.837C106.775 171.15 104.787 173.483 105.054 176.179C105.229 178.062 106.529 179.704 108.142 180.696C109.754 181.687 111.642 182.117 113.512 182.392C121.387 183.512 129.417 182.137 136.467 178.458C140.217 176.483 143.858 173.567 144.721 169.025C150.392 167.858 156.25 170.642 160.467 174.608C164.683 178.575 167.658 183.642 171.037 188.358C174.417 193.075 178.454 197.604 183.837 199.737C181.246 205.008 178.629 210.317 175.033 214.962C171.437 219.608 166.75 223.592 161.146 225.379L160.337 226.662C160.012 254.083 160.9 281.517 162.812 309.367L162.792 309.6C157.467 314.037 149.608 313.425 142.908 311.646C136.208 309.867 129.446 307.137 122.583 308.129C119.196 308.621 115.996 310.008 112.625 310.592C101.858 312.454 90.8709 306.008 80.1584 308.137C76.5665 308.858 72.8415 310.525 69.404 309.267C65.329 307.779 63.7709 301.842 66.5915 298.546C72.5375 273.417 76.9625 247.954 79.8415 222.296L79.1665 219.862Z" fill="white"/>
<path d="M152.104 315.492C149.121 315.492 145.825 315.012 142.229 314.058C140.866 313.696 139.487 313.292 138.158 312.904C132.862 311.35 127.858 309.883 122.904 310.6C121.296 310.833 119.696 311.304 118 311.8C116.404 312.267 114.75 312.754 113.016 313.054C107.254 314.05 101.583 312.887 96.0998 311.758C90.6789 310.646 85.5623 309.596 80.6164 310.587C79.8039 310.75 78.9789 310.962 78.1039 311.192C75.1707 311.958 71.8458 312.825 68.5164 311.612C65.8289 310.629 63.7539 308.233 62.9623 305.204C62.2333 302.412 62.7164 299.562 64.2498 297.433C70.8623 269.421 75.6039 240.7 78.3457 212.05C78.4789 210.675 79.6998 209.671 81.0707 209.8C82.4457 209.933 83.4539 211.154 83.3208 212.525C80.5373 241.579 75.7164 270.712 68.9873 299.112C68.8958 299.5 68.7123 299.858 68.4539 300.162C67.6664 301.083 67.4208 302.492 67.7958 303.933C68.1748 305.379 69.0833 306.492 70.2248 306.912C72.0833 307.592 74.3914 306.987 76.8373 306.35C77.7457 306.112 78.6833 305.867 79.6333 305.679C85.5708 304.487 91.4332 305.692 97.1039 306.858C102.362 307.937 107.333 308.958 112.162 308.125C113.616 307.875 115.062 307.45 116.591 307C118.379 306.475 120.225 305.933 122.187 305.65C128.225 304.775 133.991 306.467 139.566 308.104C140.866 308.483 142.212 308.879 143.512 309.225C151.454 311.333 157.387 310.812 161.154 307.675C162.216 306.792 163.791 306.933 164.675 307.996C165.558 309.058 165.416 310.633 164.354 311.517C161.179 314.162 157.079 315.492 152.104 315.492Z" fill="black"/>
<path d="M161.146 227.879C160.087 227.879 159.104 227.2 158.767 226.137C158.346 224.821 159.075 223.417 160.387 222.996C166.167 221.154 170.467 216.775 173.058 213.429C176.004 209.625 178.312 205.254 180.475 200.908C175.404 198.129 171.725 193.608 169.008 189.812C168.167 188.637 167.346 187.433 166.55 186.271C164.079 182.654 161.746 179.242 158.758 176.429C155.012 172.904 150.612 171.046 146.704 171.279C145.412 175.021 142.371 178.175 137.633 180.667C130.062 184.617 121.604 186.067 113.162 184.862C111.317 184.592 108.937 184.117 106.833 182.821C104.396 181.321 102.8 178.925 102.567 176.404C102.542 176.158 102.529 175.921 102.529 175.692C92.979 180.387 85.35 187.237 80.2459 195.762C79.75 196.596 79.2709 197.446 78.7665 198.35C76.9959 201.5 75.179 204.733 72.5584 207.3C76.6084 210.208 79.725 214.25 81.5084 218.975C81.9959 220.266 81.3415 221.708 80.05 222.196C78.7584 222.683 77.3165 222.029 76.829 220.737C75.0415 215.996 71.579 212.108 67.075 209.787C66.275 209.375 65.7584 208.567 65.7209 207.667C65.6834 206.767 66.1334 205.917 66.9 205.442C70.1915 203.396 72.2415 199.754 74.4084 195.896C74.9084 195.008 75.425 194.092 75.954 193.2C82.7459 181.854 93.5415 173.246 107.175 168.292C108.258 167.9 109.467 168.296 110.104 169.25C110.742 170.204 110.65 171.475 109.875 172.325C109.667 172.554 109.437 172.787 109.2 173.029C108 174.246 107.446 174.929 107.542 175.929C107.629 176.887 108.362 177.892 109.45 178.562C110.771 179.375 112.429 179.704 113.875 179.917C121.262 180.971 128.679 179.696 135.308 176.242C139.412 174.079 141.692 171.562 142.262 168.558C142.45 167.562 143.221 166.779 144.217 166.575C150.054 165.375 156.767 167.696 162.179 172.787C165.562 175.971 168.162 179.775 170.675 183.454C171.454 184.596 172.262 185.775 173.071 186.904C175.808 190.725 179.612 195.375 184.758 197.417C185.408 197.675 185.917 198.192 186.171 198.842C186.421 199.492 186.392 200.217 186.083 200.846C183.475 206.146 180.783 211.629 177.012 216.496C172.675 222.1 167.454 225.996 161.908 227.762C161.654 227.842 161.396 227.879 161.146 227.879Z" fill="black"/>
<path d="M189.859 308.363C187.596 308.363 185.584 307.246 184.575 305.421C183.909 304.213 184.346 302.692 185.559 302.025C186.767 301.359 188.288 301.796 188.954 303.009C189.075 303.225 189.471 303.375 189.904 303.363C190.284 303.354 190.634 303.221 190.784 303.038C190.963 302.442 190.959 301.8 190.771 301.209C190.425 300.329 186.6 290.684 181.95 281.075C181.35 279.834 181.867 278.338 183.109 277.734C184.35 277.134 185.846 277.65 186.45 278.896C191.392 289.104 195.413 299.346 195.454 299.45C195.471 299.488 195.484 299.525 195.496 299.567C196.075 301.3 196.054 303.2 195.429 304.917C195.4 305 195.363 305.079 195.325 305.159C194.388 307.075 192.359 308.304 190.029 308.363C189.975 308.363 189.917 308.363 189.859 308.363Z" fill="black"/>
<path d="M181.216 377.171C179.708 377.171 178.246 376.842 176.916 376.188C172.741 374.133 171.05 369.858 169.554 366.083C168.329 362.992 167.175 360.071 164.929 358.671C164.45 358.371 163.871 358.113 163.258 357.838C162.458 357.479 161.546 357.075 160.683 356.488C159.046 355.375 157.812 353.809 157.116 351.954C156.421 350.1 156.321 348.108 156.825 346.196C157.329 344.283 158.396 342.6 159.912 341.325C160.766 340.608 161.729 340.054 162.758 339.679C159.012 299.513 157.4 262.5 157.825 226.596C157.841 225.225 158.958 224.125 160.325 224.125C160.333 224.125 160.346 224.125 160.354 224.125C161.733 224.142 162.841 225.275 162.825 226.654C162.396 263.029 164.066 300.558 167.941 341.388C168.004 342.054 167.8 342.717 167.371 343.229C166.941 343.742 166.325 344.063 165.658 344.117C164.721 344.192 163.85 344.554 163.129 345.158C162.408 345.763 161.904 346.558 161.666 347.467C161.429 348.375 161.475 349.321 161.804 350.2C162.133 351.079 162.721 351.821 163.496 352.35C163.991 352.688 164.629 352.971 165.304 353.271C166.012 353.588 166.812 353.946 167.587 354.429C171.229 356.7 172.812 360.704 174.212 364.242C175.487 367.459 176.687 370.496 179.129 371.696C180.683 372.458 182.279 372.163 183.346 371.775C185.546 370.979 187.591 369.054 188.562 366.871C190.354 362.842 189.971 358.213 189.287 352.579C186.591 330.475 180.112 265.392 178.937 251.192L175.75 212.746C175.637 211.371 176.658 210.163 178.033 210.046C179.408 209.938 180.616 210.954 180.733 212.329L183.921 250.775C185.096 264.946 191.562 329.908 194.254 351.971C194.866 357.013 195.629 363.283 193.137 368.896C191.621 372.313 188.525 375.213 185.058 376.471C183.766 376.938 182.475 377.171 181.216 377.171Z" fill="black"/>
<path d="M61.2166 368.621C60.321 368.621 59.4041 368.475 58.496 368.179C55.7585 367.288 53.2791 365.096 52.0291 362.458C50.1541 358.513 50.425 354.121 50.6625 350.242L50.6835 349.904C50.7916 348.138 50.8335 346.463 50.1625 345.346C50.021 345.113 49.7916 344.825 49.55 344.521C49.321 344.233 49.0625 343.904 48.8166 343.55C47.7791 342.013 47.2125 340.238 47.171 338.396C47.1291 336.558 47.6125 334.754 48.571 333.183C49.5291 331.613 50.9085 330.358 52.5625 329.554C53.421 329.138 54.3291 328.854 55.2625 328.704C58.2416 289.175 63.95 252.8 69.9916 214.333L70.446 211.433C70.6585 210.071 71.9375 209.142 73.3041 209.35C74.6666 209.563 75.6 210.842 75.3875 212.208L74.9335 215.108C68.796 254.2 63 291.129 60.0875 331.321C60.0375 332.004 59.7125 332.633 59.1835 333.067C58.6585 333.5 57.975 333.704 57.296 333.621C56.421 333.517 55.5416 333.667 54.75 334.05C53.9585 334.433 53.296 335.033 52.8416 335.788C52.3835 336.538 52.1541 337.4 52.171 338.279C52.1916 339.158 52.4625 340.008 52.9541 340.738C53.0916 340.938 53.275 341.171 53.4666 341.413C53.775 341.804 54.125 342.242 54.4375 342.754C55.85 345.113 55.821 347.729 55.671 350.204L55.65 350.546C55.4375 353.979 55.221 357.529 56.5416 360.308C57.2166 361.725 58.5875 362.95 60.0416 363.421C60.6835 363.629 61.6335 363.779 62.5085 363.304C63.996 362.492 64.796 360.296 65.4875 358.121C65.4916 358.104 65.496 358.092 65.5041 358.075C66.6085 354.808 67.5541 351.45 68.321 348.083C69.175 344.008 69.5291 339.704 69.871 335.542L71.9625 309.892C72.075 308.517 73.2835 307.488 74.6585 307.604C76.0335 307.717 77.0585 308.925 76.946 310.3L74.8541 335.954C74.5 340.279 74.1291 344.75 73.2125 349.133C73.2085 349.146 73.2085 349.163 73.2041 349.175C72.4 352.704 71.4085 356.229 70.25 359.654C69.5125 361.983 68.275 365.854 64.9041 367.696C63.775 368.312 62.5166 368.621 61.2166 368.621Z" fill="black"/>
</g>
<path d="M112.141 166.767C111.941 162.425 111.983 159.329 112.258 154.992C107.058 157.117 101.308 156.242 95.9499 155.308C90.8124 154.404 86.0084 152.629 82.129 149.021C74.8499 142.242 72.9165 131.667 73.9584 122.15C74.3749 118.371 75.9834 112.129 78.6709 105.217L80.204 97.7875C81.3999 87.15 88.6665 77.75 97.9834 72.4835C107.3 67.2166 118.4 65.7541 129.071 66.771C140.946 67.9041 153.083 72.4166 160.483 81.771C167.883 91.125 168.954 105.938 160.7 114.55L149.066 122.946C153.846 118.746 156.658 118.183 159.796 119.767C164.262 122.021 164.933 126.788 163.962 130.792C162.912 135.208 160.112 139.017 156.521 141.729C154.708 143.075 152.733 144.196 150.646 145.063C149.621 145.496 148.575 145.879 147.512 146.213C146.316 146.592 145.108 146.579 144.546 147.746C142.071 152.904 141.016 157.383 141.5 163.083" fill="white"/>
<path d="M140.892 62.8375C142.288 60.379 144.267 58.304 146.654 56.7915C149.042 55.279 151.763 54.379 154.584 54.1665C165.834 53.3334 177.5 58.3334 182.917 68.75C186.667 75.8334 189.167 82.9165 189.584 90.4165C190.071 95.4125 189.929 100.454 189.167 105.417C187.917 115 184.584 123.333 181.667 132.5C179.167 141.25 179.167 150.833 183.75 158.75C184.167 159.167 184.167 160 184.167 160.417C185 162.5 186.667 164.583 186.667 167.083C182.5 172.5 174.584 168.75 170 165.417C164.584 161.667 160.834 156.667 158.334 150.833C157.5 147.917 155.834 144.583 157.5 141.667C158.75 139.167 162.084 138.333 162.917 135.417C163.75 132.5 165.417 130 165 126.667C164.167 122.917 162.5 119.167 158.334 118.333C157 118.142 155.638 118.312 154.392 118.825C153.146 119.337 152.059 120.175 151.25 121.25C150.834 121.667 150.417 121.25 150 121.667C147.084 125.417 141.25 128.333 137.5 124.583C134.167 120.833 135.417 115.833 136.25 111.667C137.5 100.833 129.167 86.6665 117.084 88.3334C115 88.75 112.917 89.5834 110.834 89.1665C104.054 87.1834 96.7836 87.779 90.4167 90.8334C89.5836 91.6665 88.7501 92.0834 87.5001 92.9165C85.0001 94.5834 83.3336 96.6665 81.6667 99.1665C80.4167 101.25 79.1667 102.5 77.9167 104.583C76.6667 107.083 77.5001 110 76.6667 112.412C76.6586 112.171 76.7292 111.937 76.8626 111.737C76.8417 111.971 76.7751 112.204 76.6667 112.412C76.3542 112.05 75.0001 110.717 75.2501 110.2C75.7167 109.212 76.8042 111.8 76.6667 112.412C72.8211 107.358 73.0167 100.704 74.3417 94.804C75.8336 88.3334 77.9167 81.6665 83.3336 76.6665C88.3336 72.0834 94.5836 70.4165 100.417 67.0834C101.25 66.6665 101.667 65.8334 102.5 65.4165C114.584 59.5834 127.917 59.5834 140.229 63.45L140.892 62.8375Z" fill="black"/>
<path d="M141.767 128.258C140.813 128.258 139.859 128.133 138.925 127.879C137.525 127.475 136.271 126.742 135.263 125.742C134.254 124.742 133.513 123.492 133.113 122.133C133.104 122.104 133.096 122.071 133.088 122.042C132.592 120.083 132.934 118.233 133.234 116.6C133.279 116.342 133.329 116.087 133.371 115.833C134.029 111.729 133.621 107.467 132.196 103.533C130.771 99.6 128.35 96.0709 125.196 93.3209C123.429 91.8165 120.725 90.0709 118.009 90.3875C117.321 90.4665 116.567 90.6916 115.771 90.925C114.525 91.2916 113.113 91.7209 111.538 91.6959C109.709 91.679 108.092 91.0834 106.663 90.5541C105.784 90.2291 104.95 89.9209 104.171 89.7875C101.725 89.3625 99.0337 90.4875 96.0252 91.8875C90.4837 94.4665 85.3293 97.1625 83.1543 101.729C82.5627 102.975 81.0668 103.504 79.8212 102.912C78.5752 102.321 78.0462 100.829 78.6377 99.579C81.5252 93.5125 87.5087 90.3334 93.9087 87.354C96.8293 85.9959 100.825 84.1334 105.025 84.8625C106.25 85.079 107.338 85.4791 108.388 85.8666C109.534 86.2916 110.617 86.6875 111.579 86.6959C112.392 86.7084 113.35 86.425 114.35 86.129C115.267 85.8584 116.309 85.55 117.421 85.4209C120.988 85.004 124.804 86.429 128.45 89.5334C132.263 92.8584 135.175 97.1 136.888 101.829C138.6 106.558 139.088 111.683 138.296 116.65C138.246 116.954 138.192 117.233 138.142 117.512C137.917 118.729 137.704 119.879 137.917 120.771C138.084 121.308 138.384 121.804 138.784 122.2C139.196 122.608 139.709 122.908 140.263 123.071C141.592 123.429 143.046 123.296 144.317 122.679C145.563 122.079 147.054 122.6 147.654 123.846C148.254 125.087 147.734 126.583 146.488 127.183C145.009 127.892 143.392 128.258 141.767 128.258Z" fill="black"/>
<path d="M75.3292 113.371C74.3667 113.371 73.4461 112.812 73.0377 111.871C68.2417 100.896 72.9961 88.9165 76.2627 82.7499C78.1877 79.1124 81.3502 73.9705 86.5917 71.3705C87.6917 70.8249 88.7917 70.4333 89.8542 70.054C90.5836 69.7958 91.2711 69.5499 91.9252 69.2665C93.7961 68.4583 95.5417 67.2915 97.3917 66.054C98.4792 65.3249 99.6042 64.5749 100.779 63.8833C107.2 60.1208 115.15 58.2415 123.771 58.4415C130.559 58.604 137.8 59.983 146.554 62.779C147.871 63.1999 148.596 64.6083 148.175 65.9208C147.754 67.2374 146.35 67.9624 145.034 67.5415C136.742 64.8915 129.95 63.5874 123.65 63.4374C115.959 63.254 108.921 64.8999 103.309 68.1915C102.263 68.8083 101.246 69.4874 100.171 70.204C98.2167 71.5124 96.1961 72.8624 93.9042 73.854C93.1002 74.1999 92.3042 74.483 91.5336 74.758C90.5627 75.104 89.6417 75.433 88.8086 75.8455C85.8086 77.333 83.2252 80.2708 80.6792 85.0833C77.8377 90.4539 73.6627 100.812 77.6167 109.862C78.1711 111.129 77.5917 112.6 76.3292 113.154C76.0042 113.304 75.6667 113.371 75.3292 113.371Z" fill="black"/>
<path d="M165.163 133.334C164.096 133.334 163.104 132.646 162.775 131.571C162.367 130.25 163.109 128.85 164.425 128.446C169.421 126.904 171.359 120.5 171.959 117.821C174.729 105.492 170.659 91.8416 161.592 83.0457C160.6 82.0832 160.575 80.5001 161.538 79.5126C162.5 78.5207 164.079 78.4957 165.071 79.4582C175.363 89.4416 179.979 104.929 176.838 118.917C175.163 126.379 171.175 131.596 165.9 133.225C165.654 133.3 165.404 133.334 165.163 133.334Z" fill="black"/>
<path d="M182.808 171.841C182.65 171.841 182.487 171.837 182.321 171.833C175.137 171.541 168.004 167.85 162.733 161.704C158.383 156.629 155.754 151.091 153.941 143.187C153.633 141.841 154.475 140.5 155.821 140.191C157.166 139.883 158.508 140.725 158.816 142.071C160.437 149.137 162.746 154.033 166.533 158.454C170.9 163.55 176.729 166.604 182.521 166.841C183.925 166.896 184.241 166.583 184.241 166.583C184.279 166.433 184.254 165.829 182.996 163.841C178.671 156.958 176.791 148.725 177.691 140.654C178.283 135.458 179.996 130.562 181.65 125.829C182.216 124.204 182.804 122.525 183.329 120.879C189.421 101.754 187.983 82.754 179.383 68.7415C177.683 65.979 176.071 64.0083 174.3 62.5333C171.662 60.3415 168.083 58.7665 163.033 57.5833C159.937 56.8583 155.9 56.1415 152.154 57.0208C150.237 57.4833 148.462 58.3374 146.887 59.554C145.312 60.7708 144.041 62.2749 143.1 64.0249C142.446 65.2415 140.929 65.6958 139.712 65.0415C138.496 64.3874 138.041 62.8708 138.696 61.654C139.971 59.279 141.7 57.2415 143.833 55.5915C145.966 53.9415 148.379 52.7874 150.996 52.154C155.766 51.0333 160.546 51.8624 164.175 52.7124C167.85 53.5749 173.225 55.129 177.5 58.6874C179.7 60.5165 181.654 62.879 183.646 66.1208C193.008 81.3749 194.629 101.883 188.096 122.391C187.55 124.104 186.95 125.816 186.375 127.475C184.737 132.154 183.196 136.575 182.666 141.208C181.891 148.154 183.512 155.246 187.233 161.171C188.212 162.721 190.521 166.371 188.316 169.487C187.175 171.054 185.329 171.841 182.808 171.841Z" fill="black"/>
<path d="M141.496 163.496C140.213 163.496 139.117 162.508 139.009 161.204C138.479 154.929 139.7 152.054 142.292 146.658C143.242 144.688 145.038 144.254 146.113 143.996C146.346 143.938 146.567 143.888 146.759 143.825C147.75 143.513 148.729 143.154 149.675 142.754C151.588 141.963 153.384 140.942 155.034 139.717C158.359 137.204 160.675 133.821 161.534 130.208C161.975 128.388 162.575 123.963 158.671 121.992C156.967 121.129 155.296 120.792 150.717 124.817C149.679 125.729 148.1 125.625 147.188 124.588C146.275 123.55 146.379 121.971 147.417 121.058C153.992 115.279 157.796 115.946 160.921 117.525C165.771 119.975 167.867 125.279 166.392 131.371C165.267 136.104 162.296 140.492 158.029 143.713C156.038 145.192 153.879 146.417 151.604 147.358C150.525 147.813 149.396 148.229 148.259 148.583C147.913 148.692 147.579 148.775 147.288 148.846C147.104 148.892 146.867 148.946 146.713 148.996C144.317 153.996 143.575 155.875 143.992 160.775C144.109 162.15 143.088 163.363 141.713 163.475C141.638 163.492 141.567 163.496 141.496 163.496Z" fill="black"/>
<path d="M112.137 167.183C110.808 167.183 109.704 166.138 109.641 164.796C109.508 161.863 109.479 160.388 109.562 158.375C104.554 159.342 99.4538 158.454 95.5207 157.767C89.1663 156.646 84.2288 154.384 80.4248 150.846C73.4332 144.334 70.1707 133.775 71.4707 121.871C71.9582 117.458 73.7748 110.892 76.3373 104.304C76.8373 103.017 78.2873 102.379 79.5748 102.879C80.8623 103.379 81.4998 104.829 80.9998 106.117C78.1582 113.425 76.7832 119.329 76.4413 122.417C75.3123 132.729 78.0038 141.758 83.8332 147.183C86.9498 150.084 90.9373 151.879 96.3832 152.838C101.95 153.809 106.916 154.463 111.312 152.667C112.108 152.342 113.016 152.45 113.716 152.95C114.416 153.454 114.808 154.279 114.754 155.138C114.487 159.329 114.441 160.254 114.641 164.554C114.704 165.934 113.637 167.104 112.258 167.167C112.216 167.184 112.179 167.183 112.137 167.183Z" fill="black"/>
<path d="M91.0123 116.708C92.6232 116.708 93.9288 115.123 93.9288 113.167C93.9288 111.211 92.6232 109.625 91.0123 109.625C89.4013 109.625 88.0957 111.211 88.0957 113.167C88.0957 115.123 89.4013 116.708 91.0123 116.708Z" fill="black"/>
<path d="M105.179 117.687C106.79 117.687 108.096 116.102 108.096 114.146C108.096 112.19 106.79 110.604 105.179 110.604C103.569 110.604 102.263 112.19 102.263 114.146C102.263 116.102 103.569 117.687 105.179 117.687Z" fill="black"/>
</g>
<defs>
<clipPath id="clip0_846_12065">
<rect width="250" height="600" fill="white"/>
</clipPath>
<clipPath id="clip1_846_12065">
<rect width="250" height="250" fill="white" transform="translate(0 159.375)"/>
</clipPath>
</defs>
</svg>
