<svg width="250" height="600" viewBox="0 0 250 600" fill="none" xmlns="http://www.w3.org/2000/svg">
<g clip-path="url(#clip0_846_12132)">
<path d="M159.962 548.282C157.433 554.031 152.754 558.553 146.925 560.881C141.1 563.209 134.596 563.159 128.808 560.735L128.462 560.593C125.996 567.685 122.321 574.381 120.766 581.725C120.525 582.847 120.35 584.078 120.887 585.094C121.658 586.55 123.516 586.959 125.146 587.181C130.791 588.016 136.654 588.703 142.121 587.069C151.25 584.356 157.5 575.487 159.883 566.246C161.629 559.504 161.708 552.508 161.416 545.516L159.962 548.282Z" fill="black"/>
<path d="M114.417 545.887C110.85 549.442 106.504 552.116 101.729 553.701C96.9542 555.287 91.8749 555.741 86.8918 555.024C85.3333 554.853 83.8249 554.373 82.4583 553.605C81.1293 552.771 80.0543 551.432 79.8958 549.876V548.357C74.2793 553.113 68.6208 557.777 66.7124 564.669C66.3333 566.046 66.1374 567.564 66.7374 568.841C67.8749 571.282 71.0999 571.699 73.7874 571.761C80.8458 571.983 88.0043 572.178 94.8668 570.535C101.729 568.891 108.387 565.086 111.95 558.983C114.783 554.139 115.425 548.357 115.958 542.771L114.417 545.887Z" fill="black"/>
<path d="M89.1665 390.919C89.9999 412.237 92.1959 474.544 93.3624 505.783L95.0584 506.359C98.8084 507.11 102.779 507.973 107.142 507.902C111.208 507.836 115.379 506.822 118.587 504.319L118.8 503.768C120.412 475.016 121.941 441.006 123.608 418.349C123.954 413.643 124.025 395.917 124.4 392.337" fill="white"/>
<path d="M123.967 391.87C125.271 414.782 127.917 471.34 129.167 508.724L132.196 511.707C134.179 513.309 136.471 514.482 138.929 515.145C141.387 515.808 143.958 515.954 146.475 515.57C148.992 515.187 151.404 514.277 153.554 512.909C155.704 511.54 157.542 509.738 158.958 507.615L160.187 505.416C159.583 467.127 159.871 412.141 160.417 389.309" fill="white"/>
<path d="M128.962 560.71C134.75 563.13 141.254 563.184 147.079 560.856C152.904 558.528 157.583 554.006 160.117 548.257L161.575 545.717C161.466 543.047 161.304 540.376 161.158 537.723C160.742 529.909 160.412 518.533 160.208 505.416L158.979 507.615C157.566 509.738 155.725 511.54 153.575 512.909C151.425 514.277 149.017 515.183 146.5 515.57C143.983 515.954 141.412 515.813 138.954 515.145C136.496 514.482 134.2 513.309 132.221 511.707L129.171 508.724C129.537 519.571 129.791 528.975 129.862 535.646C129.933 542.4 131.625 549.233 130.029 555.796C129.637 557.41 129.15 558.996 128.604 560.564L128.962 560.71Z" fill="black"/>
<path d="M80.046 549.851C80.2044 551.407 81.296 552.771 82.6126 553.58C83.9794 554.348 85.4835 554.828 87.0419 554.999C92.0251 555.716 97.1085 555.266 101.888 553.68C106.667 552.095 111.013 549.417 114.583 545.862L116.125 542.775C117.063 532.955 117.946 519.108 118.804 503.768L118.592 504.319C115.384 506.822 111.213 507.836 107.146 507.902C103.079 507.969 99.0544 507.16 95.0626 506.359L93.3669 505.783C93.5335 510.318 93.6835 514.24 93.8085 517.335C94.0376 523.176 94.2251 529.275 91.9169 534.657C89.4919 540.301 84.6669 544.427 79.8335 548.511L80.046 549.851Z" fill="black"/>
<path d="M83.7124 288.946C75.3293 321.445 68.1874 354.232 62.2915 387.31C103.683 395.475 146.333 394.732 187.412 385.133C181.358 353.155 175.317 321.178 169.283 289.2" fill="black"/>
<path d="M134.8 590.531C131.479 590.531 128.154 590.106 124.937 589.628C123.567 589.441 120.292 589 118.833 586.238C117.808 584.319 118.258 582.2 118.475 581.178C119.517 576.275 121.442 571.678 123.3 567.231C125.008 563.142 126.625 559.284 127.617 555.208C128.587 551.219 128.212 547.026 127.812 542.592C127.612 540.339 127.4 538.011 127.379 535.675C127.067 505.85 123.046 421.499 121.475 393.593C121.396 392.212 122.45 391.032 123.829 390.953C125.208 390.873 126.387 391.929 126.467 393.309C128.042 421.253 132.062 505.721 132.379 535.621C132.4 537.757 132.592 539.889 132.796 542.141C133.212 546.789 133.642 551.595 132.475 556.388C131.392 560.848 129.625 565.074 127.912 569.163C126.058 573.593 124.308 577.777 123.367 582.216C123.129 583.334 123.175 583.738 123.25 583.884C123.333 584.044 123.721 584.409 125.642 584.669C131.233 585.494 136.633 586.109 141.567 584.634C150.45 581.978 155.683 573.046 157.621 565.57C159.792 557.198 159.262 548.124 158.754 539.354L158.667 537.844C156.992 507.823 157.179 422.354 157.912 391.024C157.946 389.643 159.1 388.537 160.471 388.579C161.85 388.612 162.946 389.759 162.912 391.14C162.183 422.409 161.992 507.661 163.658 537.56L163.746 539.062C164.279 548.224 164.829 557.694 162.462 566.83C160.183 575.625 153.871 586.178 143 589.434C140.308 590.234 137.554 590.531 134.8 590.531Z" fill="black"/>
<path d="M119.825 395.429C100.375 395.429 80.8834 393.527 61.8084 389.767C60.4709 389.505 59.5915 388.216 59.829 386.872C65.7084 353.885 72.929 320.731 81.2915 288.32C81.6374 286.981 82.9999 286.176 84.3374 286.522C85.6749 286.868 86.479 288.232 86.1334 289.572C78.0084 321.061 70.9665 353.264 65.1874 385.32C84.8459 389.025 104.933 390.727 124.925 390.381C144.941 390.035 164.975 387.627 184.508 383.234C178.683 352.45 172.733 320.986 166.829 289.668C166.571 288.308 167.466 287.002 168.821 286.743C170.179 286.484 171.483 287.381 171.741 288.737C177.8 320.857 183.9 353.13 189.871 384.669C190.121 385.988 189.287 387.269 187.983 387.573C167.367 392.392 146.183 395.02 125.012 395.387C123.283 395.416 121.554 395.429 119.825 395.429Z" fill="black"/>
<path d="M143.713 518.286C141.892 518.286 140.079 518.044 138.296 517.565C135.483 516.805 132.913 515.491 130.642 513.66C129.567 512.792 129.4 511.215 130.267 510.139C131.133 509.062 132.708 508.895 133.783 509.763C135.508 511.157 137.463 512.154 139.6 512.733C141.738 513.309 143.929 513.434 146.117 513.101C148.304 512.767 150.363 511.995 152.229 510.802C154.096 509.613 155.667 508.073 156.896 506.23C157.663 505.078 159.217 504.769 160.363 505.537C161.513 506.305 161.821 507.861 161.054 509.008C159.438 511.432 157.371 513.459 154.913 515.024C152.454 516.588 149.75 517.606 146.871 518.048C145.817 518.203 144.763 518.286 143.713 518.286Z" fill="black"/>
<path d="M106.658 510.393C102.512 510.393 98.4834 509.584 94.5834 508.803C93.229 508.532 92.3415 507.21 92.6124 505.854C92.8834 504.498 94.1915 503.614 95.5415 503.889L95.5665 503.893C99.5459 504.69 103.308 505.445 107.091 505.382C109.904 505.337 113.912 504.769 117.041 502.329C118.129 501.478 119.7 501.674 120.55 502.763C121.4 503.851 121.204 505.424 120.116 506.275C115.896 509.567 110.75 510.33 107.175 510.389C107.004 510.393 106.829 510.393 106.658 510.393Z" fill="black"/>
<path d="M138.196 565.078C134.737 565.078 131.279 564.39 128 563.017C126.725 562.483 126.125 561.019 126.658 559.742C127.191 558.466 128.654 557.865 129.929 558.399C135.141 560.581 140.904 560.627 146.154 558.528C151.404 556.43 155.55 552.425 157.829 547.248C158.387 545.984 159.862 545.412 161.125 545.967C162.387 546.526 162.962 548.003 162.404 549.267C159.591 555.65 154.479 560.594 148.008 563.18C144.837 564.448 141.516 565.078 138.196 565.078Z" fill="black"/>
<path d="M81.0874 574.406C78.6624 574.406 76.254 574.331 73.8708 574.26C71.8708 574.194 66.5708 574.023 64.6374 569.876C63.8749 568.253 63.8208 566.321 64.4665 563.977C66.5374 556.497 72.3915 551.54 78.0499 546.747C82.854 542.679 87.3958 538.837 89.6165 533.664C91.7499 528.691 91.5124 522.709 91.3083 517.431C90.7958 504.707 89.829 477.919 88.8958 452.012C88.0165 427.615 87.1874 404.574 86.7249 392.88C86.6708 391.499 87.7458 390.335 89.1249 390.281C90.4915 390.239 91.6665 391.303 91.7208 392.684C92.1833 404.386 93.0165 427.431 93.8958 451.833C94.829 477.732 95.7958 504.515 96.304 517.235C96.5333 523.046 96.7915 529.63 94.2124 535.645C91.5249 541.899 86.3165 546.309 81.279 550.573C75.9624 555.074 70.9415 559.321 69.2833 565.312C68.8958 566.714 69.004 567.415 69.1624 567.752C69.5915 568.674 71.1833 569.162 74.0249 569.254C80.8124 569.463 87.8333 569.68 94.4374 568.074C101.437 566.371 107.091 562.588 109.954 557.69C112.421 553.468 113.079 548.315 113.629 542.504C115.133 526.693 116.525 499.972 117.871 474.131C119.237 447.907 120.65 420.789 122.166 405.596C122.304 404.219 123.525 403.222 124.904 403.355C126.279 403.493 127.279 404.719 127.141 406.096C125.637 421.169 124.229 448.228 122.862 474.394C121.512 500.289 120.116 527.064 118.604 542.98C117.996 549.388 117.25 555.111 114.271 560.218C110.675 566.371 104.05 570.89 95.6208 572.938C90.7915 574.115 85.9124 574.406 81.0874 574.406Z" fill="black"/>
<path d="M91.6376 557.832C89.996 557.832 88.3501 557.715 86.7251 557.485C84.8416 557.273 83.046 556.697 81.3876 555.767C81.3585 555.75 81.3291 555.733 81.3001 555.716C79.1791 554.415 77.7791 552.316 77.5541 550.105C77.4126 548.729 78.4126 547.502 79.7876 547.36C81.1585 547.218 82.3876 548.219 82.5291 549.596C82.596 550.23 83.121 550.944 83.8751 551.424C84.9416 552.012 86.096 552.379 87.3085 552.513C87.3376 552.517 87.3666 552.521 87.3916 552.525C91.971 553.184 96.7085 552.763 101.096 551.307C105.484 549.851 109.538 547.356 112.813 544.094C113.792 543.117 115.375 543.122 116.35 544.102C117.325 545.082 117.321 546.668 116.342 547.644C112.517 551.453 107.788 554.365 102.671 556.063C99.1251 557.231 95.3791 557.832 91.6376 557.832Z" fill="black"/>
<g clip-path="url(#clip1_846_12132)">
<path d="M141.404 159.375C141.779 163.583 143.5 173.092 149.904 171.667L150.592 172.708C150.279 179.238 146.971 183.842 141.787 188.612C136.521 193.383 129.804 196.25 122.717 196.754C116.467 197.213 109.821 195.717 105.146 191.525C100.471 187.333 98.0125 181.525 101.108 176.546H101.558C102.967 176.587 104.262 175.85 105.454 175.1C106.971 174.142 110.1 170.212 111.037 169.083C112.287 167.462 112.796 161.317 113.437 159.375H141.404Z" fill="white"/>
<path d="M61.421 363.396C59.3791 363.329 57.4001 362.692 55.7001 361.558C54.0001 360.425 52.6541 358.842 51.8085 356.983C52.2251 350.317 53.4751 342.4 48.0585 336.983C47.2251 333.65 49.7251 331.15 52.6416 330.062L64.3416 331.579L61.421 363.396Z" fill="white"/>
<path d="M64.346 331.579C60.642 331.554 56.9585 330.992 53.4126 329.912C53.6626 326.808 53.9335 323.621 55.271 320.808L65.5751 321.958L64.346 331.579Z" fill="white"/>
<path d="M161.067 329.683C160.408 332.871 160.192 336.129 160.417 339.375C160.408 339.562 160.433 339.75 160.5 339.925C160.567 340.1 160.667 340.262 160.796 340.4C161.058 340.558 161.367 340.629 161.671 340.596L190.004 340.516C190.433 340.55 190.862 340.471 191.254 340.291C192.054 339.837 192.117 338.729 192.087 337.791L191.787 330.112L161.067 329.683Z" fill="white"/>
<path d="M65.8625 321.504C61.8084 320.733 58.0584 320.733 53.8918 319.9C56.8084 290.733 59.3084 262.817 65.5584 233.233C68.8918 218.233 71.8084 204.483 79.725 191.15C79.725 191.15 82.725 186.858 83.8918 185.546L86 182.062C85.4418 180.433 86.1168 178.562 87.3375 177.35C88.5584 176.137 90.2543 175.496 91.9209 175.137C92.6959 174.971 93.5543 174.821 94.05 174.204C94.3419 173.775 94.5209 173.275 94.575 172.758C95.1834 169.367 96.0793 165.258 99.3584 164.208C102.033 163.35 104.917 165.196 106.442 167.562C107.967 169.929 108.525 172.758 109.6 175.354C110.675 177.95 112.517 180.529 115.262 181.146L120.187 182.687C129.287 180.187 136.262 173.125 143.637 167.237C145.596 165.679 147.654 164.158 150.042 163.408C152.429 162.658 155.225 162.787 157.204 164.321C159.183 165.854 159.937 168.987 158.421 170.987C159.558 170.342 160.846 170.008 162.154 170.021C163.462 170.033 164.742 170.387 165.867 171.054C166.992 171.721 167.921 172.671 168.562 173.808C169.204 174.946 169.533 176.237 169.517 177.542L170.35 185.542C176.8 195.329 181.383 206.162 184.883 217.454L186.208 221.458C193.329 252.112 194.608 283.729 195.079 315.254L195.496 315.933C198.062 325.325 207.646 349.075 209.729 359.075C209.796 359.929 209.654 360.787 209.312 361.575C205.146 366.575 198.062 365.325 192.583 367.025L173.221 370.879C145.508 375.85 117.696 377.067 89.9334 372.383L84.6959 371.771L66.7793 368.342C65.1625 368.033 63.3875 367.621 62.4418 366.258C61.6584 365.142 61.6625 363.671 61.7209 362.308C61.9584 356.891 62.5834 351.517 63.2084 346.137L66.0625 321.529L65.8625 321.504Z" fill="white"/>
<path d="M164.467 341.042C160.45 342.337 155.754 347.162 159.15 351.612C161.017 354.066 163.838 355.387 166.425 356.929C168.417 358.112 168.946 362.112 169.717 364.229C171.667 369.566 175.454 373.958 181.667 373.542C187.983 373.125 191.913 367.746 193.113 361.946C194.413 355.654 192.196 347.396 191.15 341.175L164.467 341.042Z" fill="white"/>
<path d="M128.783 197.683C128.871 199.008 129.971 200.021 131.275 200.021C131.333 200.021 131.388 200.021 131.438 200.008C142.583 199.279 153.496 195.787 163 189.921C164.963 188.711 166.608 187.447 167.933 186.13C168 186.397 168.112 186.657 168.271 186.9C174.037 195.65 178.692 205.883 182.504 218.179C182.838 219.254 183.825 219.942 184.892 219.942C185.138 219.942 185.388 219.904 185.629 219.829C186.95 219.421 187.688 218.021 187.279 216.7C183.325 203.946 178.475 193.3 172.446 184.15C171.976 183.435 171.202 183.041 170.407 183.026C171.448 181.285 171.984 179.47 172.008 177.587C172.029 175.842 171.587 174.117 170.733 172.596C169.879 171.075 168.633 169.8 167.129 168.912C165.629 168.025 163.912 167.55 162.167 167.533C162 167.533 161.837 167.533 161.671 167.542C161.429 165.583 160.417 163.667 158.725 162.358C156.262 160.45 152.729 159.954 149.283 161.037C146.446 161.929 144.075 163.7 142.071 165.296C139.873 167.049 138.032 168.77 136.253 170.435L136.183 170.5C131.969 174.444 128.64 177.559 122.787 179.167C121.454 179.533 120.671 180.908 121.037 182.242C121.404 183.575 122.783 184.358 124.112 183.992C131.158 182.058 135.262 178.217 139.604 174.15L139.672 174.087C141.38 172.49 143.148 170.837 145.187 169.208C146.912 167.837 148.763 166.442 150.783 165.808C152.642 165.225 154.512 165.417 155.667 166.312C156.654 167.079 157.033 168.683 156.421 169.492C155.704 170.437 155.75 171.758 156.533 172.65C157.317 173.542 158.617 173.762 159.65 173.179C160.392 172.758 161.233 172.537 162.083 172.537H162.125C162.992 172.542 163.846 172.779 164.592 173.221C165.337 173.662 165.954 174.292 166.379 175.05C166.804 175.808 167.025 176.662 167.012 177.529C166.979 180.242 164.746 182.979 160.379 185.671C151.567 191.112 141.446 194.346 131.113 195.025C129.738 195.117 128.692 196.304 128.783 197.683Z" fill="black"/>
<path fill-rule="evenodd" clip-rule="evenodd" d="M81.475 373.675C81.3209 373.675 81.1625 373.658 81.0043 373.629L66.3209 370.817C64.6793 370.487 61.975 369.941 60.4084 367.716C59.9568 367.073 59.6684 366.394 59.4878 365.706C57.6456 365.386 55.8846 364.686 54.3168 363.637C52.2293 362.246 50.575 360.304 49.5375 358.021C49.3668 357.646 49.2918 357.237 49.3168 356.829C49.3562 356.174 49.4068 355.504 49.4581 354.826L49.4668 354.712C49.9 348.858 50.3459 342.804 46.2959 338.75C45.975 338.429 45.75 338.029 45.6375 337.587C44.6534 333.651 46.8221 329.879 51.0665 328.005C51.2556 325.974 51.5415 323.83 52.2184 321.746C51.6525 321.229 51.3346 320.462 51.4165 319.65C51.5978 317.844 51.7765 316.041 51.9543 314.242L52.0821 312.951C54.7781 285.806 57.325 260.161 63.125 232.712L63.3959 231.491C66.625 216.937 69.679 203.191 77.5875 189.867C77.6209 189.812 77.654 189.762 77.6875 189.712L77.7331 189.647C78.2118 188.966 80.8543 185.207 82.0375 183.879C82.4815 183.378 83.0821 183.099 83.7003 183.048C83.6787 182.991 83.6578 182.933 83.6375 182.875C82.8 180.437 83.5625 177.575 85.5793 175.575C86.9918 174.175 88.8918 173.233 91.4 172.692L91.5459 172.658C91.7084 172.625 91.925 172.579 92.0875 172.533C92.0875 172.527 92.0896 172.517 92.0896 172.517C92.0896 172.517 92.0918 172.506 92.0918 172.5C92.1 172.433 92.1084 172.371 92.1209 172.308L92.1231 172.297C92.7315 168.958 93.7471 163.386 98.6 161.825C101.492 160.9 105.837 161.887 108.567 166.229C108.862 166.698 109.123 167.174 109.361 167.655C109.854 166.581 111.06 165.976 112.246 166.279C113.583 166.617 114.396 167.979 114.054 169.317C113.677 170.813 113.074 171.814 111.512 173.343C111.642 173.7 111.776 174.049 111.917 174.392C112.504 175.804 113.792 178.246 115.817 178.704C117.162 179.008 118.008 180.346 117.708 181.692C117.404 183.037 116.067 183.883 114.721 183.583C111.587 182.879 108.95 180.296 107.296 176.312C106.888 175.329 106.55 174.342 106.229 173.383L106.214 173.337C105.661 171.713 105.138 170.175 104.329 168.892C103.392 167.4 101.562 166.129 100.125 166.587C98.3 167.175 97.5793 170.254 97.0543 173.121C96.9459 174.008 96.625 174.862 96.125 175.604C96.0875 175.658 96.0459 175.712 96.0043 175.767C94.9825 177.037 93.5509 177.344 92.5968 177.548L92.5875 177.55L92.4543 177.579C90.9334 177.908 89.8084 178.425 89.1043 179.121C88.4834 179.737 88.1668 180.654 88.3709 181.25C88.5625 181.808 89.1959 182.408 89.7875 182.917C95.1543 187.617 101.683 190.762 108.683 192.021C110.042 192.266 110.946 193.566 110.7 194.925C110.475 196.133 109.421 196.983 108.237 196.983C108.092 196.983 107.942 196.971 107.792 196.941C99.9003 195.521 92.5375 191.975 86.5043 186.692C86.4146 186.614 86.3243 186.535 86.2334 186.454C86.1281 186.723 85.974 186.977 85.7709 187.204C84.9125 188.167 82.6915 191.283 81.8375 192.5C74.3709 205.112 71.4084 218.45 68.275 232.575L68.0084 233.771C62.264 260.955 59.7306 286.495 57.0481 313.536L57.0459 313.558C56.904 314.975 56.7625 316.396 56.6209 317.821C57.8665 317.996 59.1 318.125 60.379 318.254L60.4465 318.261C61.5709 318.376 62.7171 318.493 63.89 318.651L65.7978 302.203C69.2265 272.854 72.7721 242.505 79.6709 213.225C79.9875 211.883 81.3334 211.046 82.6793 211.366C84.0209 211.683 84.8543 213.029 84.5375 214.375C77.7034 243.385 74.1746 273.596 70.7615 302.815L65.6975 346.476C65.09 351.715 64.4621 357.128 64.225 362.446C64.1959 363.108 64.1418 364.35 64.4959 364.85C64.9125 365.442 66.3959 365.742 67.2793 365.917L81.9375 368.721C83.2918 368.979 84.1834 370.292 83.9209 371.646C83.7 372.842 82.6543 373.675 81.475 373.675ZM50.4084 335.821C50.3331 333.917 52.4687 332.839 53.3015 332.491C56.1768 333.317 59.1278 333.827 62.109 334.009L60.7159 346.021C60.1678 350.759 59.6028 355.64 59.3196 360.533C58.535 360.293 57.7859 359.939 57.0959 359.479C55.95 358.712 55.0084 357.683 54.3543 356.475C54.3728 356.181 54.3946 355.887 54.4165 355.591C54.4293 355.422 54.4421 355.25 54.4543 355.079L54.4547 355.072C54.9047 348.974 55.4606 341.435 50.4084 335.821ZM63.3137 323.62L62.6859 329.034C60.4596 328.915 58.249 328.588 56.0834 328.058C56.2606 326.28 56.5268 324.521 57.0987 322.927C58.0406 323.043 58.9631 323.137 59.8709 323.229L60.0631 323.249C61.1687 323.363 62.2415 323.474 63.3137 323.62Z" fill="black"/>
<path fill-rule="evenodd" clip-rule="evenodd" d="M89.5165 374.842C101.316 376.833 113.366 377.829 125.821 377.829C140.91 377.829 156.591 376.362 173.099 373.432C175.34 375.156 177.976 376.067 180.879 376.067C181.192 376.067 181.512 376.058 181.833 376.033C186.251 375.743 190.092 373.342 192.665 369.515C192.883 369.507 193.104 369.471 193.325 369.408C194.879 368.925 196.662 368.7 198.546 368.467C202.875 367.929 207.779 367.317 211.233 363.171C211.387 362.987 211.512 362.783 211.608 362.562C212.104 361.408 212.316 360.133 212.221 358.879C212.212 358.771 212.196 358.667 212.175 358.562C210.933 352.605 207.28 342.391 203.748 332.513L203.746 332.508C201.283 325.633 198.962 319.137 197.904 315.271C197.833 315.009 197.722 314.768 197.581 314.552C197.17 284.426 196.065 255.433 188.975 224.871C188.662 223.525 187.321 222.687 185.975 223C184.629 223.312 183.792 224.654 184.104 226C192.016 260.113 192.358 292.477 192.721 326.74V326.75L192.729 327.383L161.183 326.867C156.496 290.242 154.879 252.987 156.375 216.1C156.433 214.721 155.358 213.554 153.979 213.5C152.6 213.45 151.433 214.517 151.379 215.896C149.842 253.783 151.567 292.058 156.504 329.654C156.632 330.621 157.301 331.4 158.184 331.698C157.832 334.258 157.74 336.85 157.912 339.433C157.912 339.9 157.991 340.358 158.154 340.796C158.341 341.296 158.621 341.746 158.987 342.129C159.022 342.166 159.058 342.202 159.095 342.236C157.585 343.377 156.334 344.838 155.783 346.596C155.308 348.117 155.162 350.483 157.162 353.108C159.012 355.542 161.567 357.004 163.821 358.292C164.267 358.546 164.708 358.8 165.15 359.062C165.766 359.427 166.441 361.882 166.736 362.957L166.742 362.979C166.946 363.729 167.142 364.437 167.371 365.071C167.9 366.522 168.527 367.843 169.244 369.025C140.858 373.786 115.014 374.074 90.3459 369.912C88.9834 369.679 87.6959 370.6 87.4665 371.962C87.2374 373.321 88.154 374.612 89.5165 374.842ZM166.824 343.077C166.575 343.792 166.006 344.385 165.229 344.633C162.912 345.383 160.946 346.837 160.554 348.092C160.479 348.329 160.283 348.958 161.137 350.079C162.374 351.703 164.281 352.795 166.297 353.948L166.3 353.95L166.641 354.145C166.997 354.35 167.354 354.554 167.704 354.762C170.055 356.156 170.889 359.198 171.559 361.642L171.562 361.654C171.737 362.3 171.908 362.912 172.067 363.354C173.417 367.058 176.142 371.387 181.5 371.042C185.021 370.808 189.271 368.162 190.667 361.433C191.736 356.26 190.769 350.692 189.832 345.302L189.78 345C189.684 344.446 189.588 343.894 189.496 343.342C189.477 343.232 189.466 343.122 189.462 343.014L166.824 343.077ZM193.802 341.235C194.118 341.58 194.342 342.017 194.425 342.512C194.533 343.15 194.642 343.787 194.754 344.429L194.758 344.45C195.773 350.298 196.824 356.345 195.562 362.45C195.462 362.934 195.348 363.408 195.219 363.872C196.123 363.728 197.029 363.615 197.921 363.504C201.671 363.037 204.933 362.629 207.125 360.267C207.208 359.987 207.246 359.692 207.237 359.4C206.027 353.751 202.324 343.395 199.049 334.235L198.917 333.868L198.912 333.853C198.502 332.705 198.095 331.568 197.698 330.452C197.597 330.92 197.362 331.353 197.017 331.696C196.554 332.162 195.917 332.425 195.258 332.425H195.217L194.377 332.411L194.583 337.692C194.605 338.341 194.653 339.938 193.802 341.235ZM189.371 332.329L163.207 331.899C162.894 333.95 162.775 336.026 162.85 338.1L189.591 338.025C189.591 337.996 189.591 337.964 189.591 337.932C189.59 337.913 189.589 337.894 189.587 337.875L189.371 332.329Z" fill="black"/>
</g>
<path d="M149.471 153.583C154.663 154.512 160.117 153.241 164.675 150.591C174.971 144.612 180.25 132.258 180.759 120.379C181.267 108.5 177.738 96.8207 174.038 85.5082C173.621 84.2582 173.225 82.8789 173.771 81.6873C174.554 79.9623 176.788 79.6039 178.646 79.2623C182.621 78.4998 186.313 76.6789 189.338 73.9957C192.363 71.3123 194.609 67.8582 195.838 64.0039C197.067 60.1498 197.234 56.0373 196.325 52.0957C195.413 48.1539 193.454 44.5332 190.659 41.6082C185.242 35.9707 177.134 33.4998 169.321 33.6457C162.179 33.7748 154.879 36.0623 149.717 40.9998C144.554 45.9373 141.921 53.7498 144.167 60.5414L140.492 61.7248C128.354 56.8207 114.525 55.9998 102.025 59.8957C89.5251 63.7914 78.4916 72.4539 72.1501 83.9082C68.5376 90.4332 66.4541 97.7207 65.371 105.1C64.3791 111.866 68.5666 123.466 73.7085 127.987L83.5791 102.737C90.0501 103.787 96.646 102.183 102.892 100.191C114.438 96.5082 126.334 90.7498 132.059 80.0707C130.054 85.6414 130.113 91.2207 130.546 96.6873C130.963 101.816 131.709 107.025 133.975 111.646C136.242 116.266 140.225 120.266 145.246 121.45" fill="black"/>
<path d="M141.458 163.75C140.983 158.046 142.1 152.912 144.583 147.754C145.146 146.587 146.354 146.6 147.55 146.221C148.612 145.887 149.654 145.504 150.683 145.071C152.771 144.204 154.742 143.083 156.558 141.737C160.15 139.025 162.95 135.217 164 130.8C164.954 126.796 164.283 122.029 159.833 119.775C156.696 118.192 153.883 118.754 149.104 122.954L145.275 121.454C140.275 120.271 136.271 116.271 134.004 111.65C131.737 107.029 130.983 101.821 130.575 96.6915C130.158 91.2249 130.083 85.6459 132.087 80.075C126.35 90.754 114.454 96.5124 102.921 100.196C96.6709 102.187 90.0793 103.792 83.6084 102.742L78.7209 105.242C76.0334 112.154 74.4168 118.396 74.0084 122.175C72.9793 131.692 74.9 142.267 82.1793 149.046C86.0584 152.654 90.8625 154.429 96 155.333C101.358 156.279 107.108 157.142 112.308 155.017C112.033 159.354 111.992 162.45 112.192 166.792" fill="white"/>
<path d="M145.238 123.941C145.046 123.941 144.854 123.921 144.658 123.875C139.363 122.621 134.525 118.458 131.721 112.737C129.183 107.558 128.438 101.812 128.046 96.8749C127.867 94.4999 127.742 92.0499 127.829 89.5583C122.2 94.8999 114.2 99.1914 103.646 102.562C97.525 104.512 90.3044 106.354 83.171 105.196C81.8085 104.975 80.8835 103.691 81.1044 102.329C81.325 100.966 82.6125 100.041 83.971 100.262C90.046 101.246 96.2875 99.6624 102.125 97.8039C116.583 93.1874 125.392 87.1749 129.85 78.8833C130.471 77.7289 131.875 77.2499 133.071 77.7833C134.267 78.3164 134.85 79.6833 134.404 80.9124C132.65 85.7833 132.588 90.6664 133.033 96.4914C133.388 100.95 134.046 106.116 136.213 110.537C138.367 114.929 141.958 118.096 145.813 119.008C147.154 119.325 147.988 120.675 147.671 122.016C147.4 123.166 146.371 123.941 145.238 123.941Z" fill="black"/>
<path d="M69.7249 126.767C69.1374 126.767 68.5499 126.562 68.0749 126.146C63.1749 121.837 61.4249 114.637 62.8793 104.737C64.1083 96.3584 66.4874 88.9459 69.9458 82.6959C76.5043 70.8459 87.9208 61.6666 101.262 57.5084C114.167 53.4875 128.425 54.1584 141.408 59.4084C142.687 59.925 143.308 61.3834 142.792 62.6625C142.275 63.9416 140.817 64.5625 139.537 64.0459C127.621 59.2334 114.558 58.6041 102.75 62.2834C90.6249 66.0625 80.2624 74.3875 74.3168 85.1209C71.1499 90.8416 68.9668 97.6834 67.8249 105.467C66.6374 113.579 67.8293 119.275 71.3793 122.392C72.4168 123.304 72.5168 124.883 71.6043 125.921C71.1083 126.479 70.4168 126.767 69.7249 126.767Z" fill="black"/>
<path d="M152.971 156.387C151.65 156.387 150.338 156.275 149.054 156.046C147.696 155.804 146.792 154.504 147.034 153.146C147.275 151.787 148.575 150.883 149.934 151.125C154.313 151.908 159.113 150.95 163.442 148.433C173.754 142.446 177.871 129.962 178.284 120.275C178.767 108.996 175.438 97.7623 171.684 86.2873C171.254 84.9833 170.538 82.7914 171.521 80.6498C172.8 77.8289 175.9 77.2458 177.95 76.8583L178.2 76.8123C181.725 76.1333 185.013 74.5164 187.7 72.1289C190.388 69.7414 192.388 66.6708 193.479 63.2498C194.571 59.8248 194.721 56.1664 193.913 52.6623C193.104 49.1623 191.363 45.9373 188.875 43.3414C184.354 38.6248 177.259 36.0083 169.392 36.1498C162.288 36.2789 155.754 38.7039 151.471 42.8083C146.7 47.3789 144.721 54.1958 146.546 59.7664C146.975 61.0789 146.263 62.4914 144.95 62.9208C143.638 63.3498 142.225 62.6373 141.796 61.3248C139.384 53.9623 141.884 45.0708 148.013 39.1998C153.271 34.1623 160.829 31.3039 169.3 31.1499C178.554 30.979 187.004 34.1583 192.488 39.8833C195.596 43.1289 197.771 47.1583 198.784 51.5373C199.796 55.9164 199.609 60.4914 198.246 64.7708C196.879 69.0498 194.384 72.8873 191.021 75.8708C187.663 78.8539 183.554 80.8748 179.142 81.7248L178.875 81.7748C177.967 81.9458 176.279 82.2623 176.071 82.7289C175.9 83.0998 176.292 84.2914 176.438 84.7373C180.338 96.6664 183.8 108.375 183.279 120.496C182.679 134.541 176.042 146.904 165.954 152.762C161.842 155.141 157.346 156.387 152.971 156.387Z" fill="black"/>
<path d="M141.496 163.496C140.213 163.496 139.117 162.512 139.009 161.204C138.479 154.929 139.7 152.058 142.292 146.658C143.242 144.687 145.038 144.254 146.113 143.996C146.346 143.937 146.567 143.887 146.759 143.825C147.75 143.512 148.729 143.154 149.675 142.754C151.588 141.962 153.384 140.941 155.034 139.716C158.359 137.204 160.675 133.825 161.534 130.208C161.975 128.387 162.575 123.962 158.671 121.991C156.967 121.129 155.296 120.791 150.717 124.816C149.679 125.729 148.1 125.625 147.188 124.587C146.275 123.55 146.379 121.971 147.417 121.058C153.992 115.279 157.792 115.946 160.921 117.525C165.771 119.975 167.867 125.279 166.392 131.371C165.267 136.104 162.296 140.491 158.029 143.712C156.038 145.191 153.879 146.416 151.604 147.358C150.525 147.812 149.396 148.229 148.259 148.583C147.913 148.691 147.579 148.775 147.288 148.846C147.104 148.891 146.867 148.946 146.713 148.996C144.317 153.996 143.575 155.875 143.992 160.775C144.109 162.15 143.088 163.358 141.713 163.475C141.638 163.491 141.567 163.496 141.496 163.496Z" fill="black"/>
<path d="M112.142 167.183C110.813 167.183 109.709 166.137 109.646 164.796C109.513 161.862 109.484 160.387 109.567 158.375C104.559 159.341 99.4585 158.454 95.5251 157.766C89.171 156.646 84.2335 154.383 80.4295 150.846C73.4376 144.333 70.1751 133.775 71.4751 121.871C71.9626 117.458 73.7795 110.891 76.342 104.304C76.842 103.016 78.292 102.379 79.5795 102.879C80.867 103.379 81.5045 104.829 81.0045 106.116C78.1626 113.425 76.7876 119.329 76.446 122.416C75.317 132.729 78.0085 141.758 83.8376 147.183C86.9545 150.083 90.942 151.879 96.3876 152.837C101.954 153.808 106.925 154.462 111.317 152.666C112.113 152.341 113.021 152.45 113.721 152.95C114.421 153.454 114.813 154.279 114.759 155.137C114.492 159.329 114.446 160.254 114.646 164.554C114.709 165.933 113.642 167.104 112.263 167.166C112.217 167.183 112.179 167.183 112.142 167.183Z" fill="black"/>
<path d="M91.0125 116.708C92.6234 116.708 93.9291 115.123 93.9291 113.167C93.9291 111.211 92.6234 109.625 91.0125 109.625C89.4016 109.625 88.0959 111.211 88.0959 113.167C88.0959 115.123 89.4016 116.708 91.0125 116.708Z" fill="black"/>
<path d="M105.179 117.687C106.79 117.687 108.096 116.102 108.096 114.146C108.096 112.19 106.79 110.604 105.179 110.604C103.568 110.604 102.262 112.19 102.262 114.146C102.262 116.102 103.568 117.687 105.179 117.687Z" fill="black"/>
</g>
<defs>
<clipPath id="clip0_846_12132">
<rect width="250" height="600" fill="white"/>
</clipPath>
<clipPath id="clip1_846_12132">
<rect width="250" height="250" fill="white" transform="translate(0 159.375)"/>
</clipPath>
</defs>
</svg>
