<svg width="250" height="600" viewBox="0 0 250 600" fill="none" xmlns="http://www.w3.org/2000/svg">
<g clip-path="url(#clip0_846_12918)">
<path d="M132.733 536.232C133.296 542.255 132.521 546.114 130.379 552.696C127.691 561.494 111.629 569.344 121.629 579.2C122.046 579.6 129.525 585.322 142.462 581.609C143.4 581.134 144.375 580.731 145.379 580.403C146.796 579.741 148.112 578.891 149.287 577.878C156.25 572.196 160.762 564.217 161.941 555.498C162.833 549.15 163.579 541.504 163.046 536.067" fill="black"/>
<path d="M92.4998 528.473C92.4707 529.433 92.4707 530.638 92.0538 531.441C91.6373 532.244 91.2207 533.449 90.8038 534.252C85.3873 541.078 78.3038 545.094 71.6373 550.716C67.4707 554.33 63.7207 561.157 68.7207 565.574C78.4498 569.834 93.8873 567.28 97.0538 565.975C99.9707 564.771 102.887 563.967 105.387 562.361C117.054 554.33 116.221 539.874 117.137 527.919" fill="black"/>
<path d="M125.991 525.887C126.212 529.02 126.629 531.831 126.629 535.043C140.379 535.846 154.546 536.248 168.296 535.445C174.216 534.971 180.004 533.477 185.379 531.028C191.629 491.273 192.046 450.715 188.296 410.157C188.296 408.953 188.712 407.346 188.296 406.142C187.879 404.134 187.879 402.528 187.462 400.52V396.504C183.296 359.159 177.462 323.018 169.962 286.877C140.796 287.681 112.046 289.287 82.8789 290.09C69.9874 346.614 65.3583 404.599 69.1289 462.36C69.0583 464.243 69.1999 466.127 69.5458 467.982C70.3289 479.222 72.1458 490.377 74.9624 501.312C75.7958 504.123 76.6289 507.335 77.8789 510.146C79.9624 515.367 82.8789 520.587 84.9624 525.807C92.8789 527.815 101.212 528.217 109.546 527.815C114.129 527.413 119.129 527.413 123.912 526.285L125.991 525.887Z" fill="black"/>
<path fill-rule="evenodd" clip-rule="evenodd" d="M167.662 287.303C182.92 365.005 195.345 448.085 183.235 529.381C174.909 532.957 165.149 533.372 156.616 533.469C147.483 533.565 138.246 533.34 129.125 532.802C128.3 523.594 127.425 514.31 126.575 505.311C122.796 465.275 118.891 423.878 119.075 383.292C119.146 369.017 117.625 354.918 106.146 348.453C104.954 347.782 103.421 348.168 102.725 349.316C102.025 350.465 102.429 351.942 103.621 352.613C112.912 357.845 114.137 370.438 114.075 383.268C113.891 424.08 117.807 465.589 121.595 505.734L121.885 508.82C122.353 513.806 122.829 518.866 123.297 523.937C111.253 525.816 99.0545 525.853 87.0082 524.048C73.9082 499.099 71.8332 474.222 70.9248 452.815C68.6289 398.443 73.4039 343.879 85.1164 290.644C85.4039 289.343 84.5414 288.066 83.1914 287.789C81.8414 287.512 80.5164 288.343 80.2289 289.644C68.4289 343.273 63.6207 398.239 65.9289 453.012C66.8707 475.246 69.0583 501.155 83.1414 527.345C83.5039 528.02 84.1748 528.489 84.9498 528.614C86.6186 528.881 88.2898 529.114 89.9632 529.313C89.9411 529.74 89.8992 530.181 89.8123 530.361C89.5773 530.817 89.3636 531.329 89.1548 531.829L89.1039 531.951C88.9539 532.316 88.7954 532.69 88.6583 532.983C85.2042 537.271 81.0126 540.42 76.5754 543.752L76.4748 543.828C74.3476 545.427 72.1448 547.082 69.9623 548.925C67.0083 551.487 63.8454 555.844 63.8248 560.39C63.8123 563.08 64.9204 565.485 67.0289 567.349C67.2204 567.521 67.4414 567.662 67.6833 567.766C72.1123 569.706 77.4789 570.364 82.4998 570.364C89.5457 570.364 95.9079 569.067 98.0373 568.196C98.8539 567.859 99.7039 567.542 100.525 567.236L100.551 567.227C102.634 566.45 104.787 565.649 106.77 564.373C106.784 564.363 106.799 564.354 106.814 564.345C106.822 564.34 106.83 564.335 106.837 564.329C117.981 556.659 118.699 543.971 119.332 532.775L119.356 532.356C119.415 531.315 119.471 530.311 119.537 529.322C120.939 529.155 122.34 528.964 123.738 528.748C123.936 530.927 124.132 533.105 124.325 535.276C124.433 536.464 125.416 537.396 126.65 537.476C127.879 537.556 129.111 537.63 130.344 537.698C130.663 542.749 129.874 546.205 127.996 551.973C127.991 551.985 127.987 552.001 127.983 552.013C127.216 554.519 124.9 557.245 122.658 559.88L122.634 559.908C120.141 562.843 117.567 565.874 116.454 569.232C115.079 573.388 116.216 577.312 119.862 580.9C119.921 580.962 124.908 585.272 134.025 585.272C136.721 585.272 139.779 584.894 143.179 583.912C143.333 583.869 143.483 583.809 143.625 583.737C144.446 583.322 145.304 582.966 146.183 582.681C146.279 582.647 146.379 582.612 146.47 582.569C148.087 581.812 149.587 580.844 150.929 579.694C158.37 573.613 163.162 565.132 164.42 555.82C165.453 548.485 165.876 542.499 165.684 537.977C172.547 537.514 179.674 536.364 186.162 533.388C186.415 533.272 186.638 533.12 186.828 532.942C187.446 532.582 187.897 531.969 188.008 531.228C200.516 448.86 187.983 364.885 172.575 286.408C172.321 285.098 171.012 284.243 169.654 284.488C168.296 284.737 167.404 285.994 167.662 287.303ZM114.493 529.818C111.262 530.071 108.025 530.196 104.787 530.196C101.502 530.196 98.2186 530.066 94.9401 529.807C94.8795 530.693 94.7279 531.652 94.2789 532.517C94.1283 532.808 93.9523 533.226 93.7779 533.641L93.7373 533.738L93.6864 533.859C93.4776 534.359 93.2639 534.871 93.0289 535.328C92.9579 535.465 92.8748 535.593 92.7789 535.713C88.9039 540.597 84.1957 544.134 79.6414 547.556L79.5082 547.656C77.4454 549.207 75.3142 550.809 73.2748 552.531C71.0789 554.434 68.8332 557.627 68.8207 560.414C68.8164 561.63 69.2457 562.658 70.1332 563.546C79.1248 567.236 93.5083 564.815 96.0664 563.763C96.9086 563.413 97.7436 563.102 98.5539 562.801L98.7204 562.739C100.629 562.028 102.437 561.353 103.962 560.382C113.125 554.049 113.741 543.09 114.337 532.493C114.386 531.611 114.437 530.712 114.493 529.818ZM135.364 537.944C135.633 543.414 134.697 547.476 132.771 553.398C131.718 556.827 129.083 559.926 126.537 562.922L126.525 562.936C120.875 569.582 118.858 572.975 123.358 577.456C123.812 577.802 130.3 582.5 141.529 579.362C142.462 578.906 143.433 578.509 144.42 578.175C145.579 577.621 146.658 576.914 147.621 576.083C147.629 576.075 147.637 576.068 147.646 576.061C147.654 576.054 147.662 576.047 147.671 576.038C154.171 570.734 158.358 563.329 159.462 555.185C160.441 548.226 160.855 542.42 160.686 538.21C159.326 538.25 157.987 538.272 156.675 538.287C155.262 538.3 153.846 538.307 152.429 538.307C146.75 538.307 141.045 538.187 135.364 537.944Z" fill="black"/>
<g clip-path="url(#clip1_846_12918)">
<path d="M141.404 159.375C141.779 163.583 143.5 173.092 149.904 171.667L150.592 172.708C150.279 179.238 146.971 183.842 141.788 188.612C136.521 193.383 129.804 196.25 122.717 196.754C116.467 197.213 109.821 195.717 105.146 191.525C100.471 187.333 98.0126 181.525 101.108 176.546H101.558C102.967 176.587 104.263 175.85 105.454 175.1C106.971 174.142 108.263 169.837 109.2 168.708C110.45 167.088 112.792 161.317 113.433 159.375H141.404Z" fill="white"/>
<path d="M184.304 275.567C193.533 304.142 199.954 326.058 208.387 353.637C208.804 355.046 210.471 360.025 209.7 361.271C209.183 362.104 208.316 362.638 207.471 363.117C202.846 365.746 197.796 365.967 192.579 367.017L173.216 370.871C145.504 375.842 117.691 377.058 89.9289 372.375L84.6914 371.762L66.7749 368.333C65.1583 368.025 63.3833 367.612 62.4374 366.25C61.6542 365.133 61.6583 363.662 61.7164 362.3C61.9539 356.883 62.5789 351.508 63.2039 346.129L68.1333 303.629C70.2458 285.421 72.3624 267.183 75.2414 249.088L75.0414 249.025C70.1958 247.358 65.4249 245.508 60.6499 243.654C59.9914 243.467 59.3999 243.1 58.9333 242.6C57.9958 241.392 58.7999 239.658 59.6039 238.354C66.7039 226.812 72.7749 214.671 77.7539 202.067C81.5539 192.442 85.5208 181.612 94.7958 177.025L114.179 179.237L150.65 169.375C157.029 171.083 162.262 175.658 166.558 180.679C171.987 187.025 176.291 194.254 179.291 202.05C185.929 219.312 185.933 238.771 193.937 255.446C190.141 256.571 186.287 257.475 182.391 258.162L184.304 275.567Z" fill="white"/>
<path d="M113.146 181.663C113.458 185.95 114.629 190.129 116.584 193.958C116.75 194.358 117.021 194.704 117.367 194.963C117.979 195.338 118.775 195.108 119.45 194.863C125.546 192.65 131.446 189.925 137.083 186.721C139.958 185.088 142.867 183.229 144.583 180.408C146.208 177.746 146.596 174.538 146.946 171.442L147.692 164.829C147.763 164.492 147.729 164.142 147.592 163.829C147.225 163.196 146.279 163.342 145.588 163.575C134.417 167.371 123.679 172.471 113.146 181.663Z" fill="white"/>
<path d="M109.584 166C108.371 168.217 107.121 170.608 107.338 173.125C107.554 175.642 109.934 178.125 112.371 177.467C112.513 180.454 110.404 183.017 108.421 185.254L103.263 191.087C103.071 191.346 102.813 191.546 102.513 191.662C101.796 191.867 101.196 191.108 100.846 190.446C98.6626 186.325 97.0461 181.929 96.042 177.375C95.8126 176.742 95.7876 176.054 95.9626 175.404C96.142 174.754 96.5126 174.175 97.0336 173.746C99.6836 170.729 102.767 168.117 105.934 165.646C106.705 165.042 107.6 164.396 108.567 164.521C109.534 164.646 110.313 165.95 109.584 166Z" fill="white"/>
<path d="M162.004 260.129C162.779 287.337 164.842 314.467 168.196 341.521C165.442 341.692 162.587 342.354 160.5 344.154C158.412 345.954 157.354 349.154 158.65 351.6C160.404 354.896 165.216 355.279 167.466 358.267C168.941 360.221 169.004 362.85 169.754 365.196C170.425 367.283 171.662 369.137 173.329 370.558C174.996 371.979 177.025 372.908 179.192 373.242C181.358 373.575 183.571 373.296 185.587 372.442C187.604 371.587 189.341 370.183 190.608 368.396C193.908 363.733 193.417 357.483 192.787 351.808C189.383 321.021 185.975 290.246 182.571 259.487L162.004 260.129Z" fill="white"/>
<path d="M63.2208 346.146C62.5958 351.525 61.9708 356.908 61.7333 362.317L61.4208 363.396C58.2168 362.821 54.6918 361.871 52.9918 359.096C50.2293 354.588 54.0333 348.483 52.1583 343.538C50.8583 340.075 46.8624 337.038 48.2168 333.596C49.3458 330.729 53.2874 330.396 55.6043 328.367C57.9208 326.338 58.2874 323.038 58.5418 320.033L64.7458 246.171L64.9168 245.338C68.2749 246.629 71.6418 247.892 75.0458 249.058L75.2374 249.171C72.3624 267.254 70.2374 285.475 68.1543 303.663" fill="white"/>
<path d="M164.116 262.288C159.075 262.288 154.016 261.933 148.954 261.221C147.691 261.042 146.766 259.946 146.804 258.675L147.941 218.75C147.979 217.371 149.129 216.271 150.512 216.321C151.891 216.358 152.979 217.513 152.941 218.892L151.866 256.558C164.862 258.108 177.825 257.192 190.466 253.829C186.783 245.167 184.933 235.879 183.137 226.867C181.541 218.85 179.891 210.567 176.962 202.954C174.058 195.404 169.921 188.458 164.662 182.312C159.741 176.562 154.946 173.121 150.008 171.8C148.675 171.442 147.883 170.071 148.241 168.737C148.6 167.404 149.971 166.612 151.304 166.971C157.25 168.562 162.866 172.521 168.466 179.067C174.096 185.646 178.525 193.083 181.633 201.167C184.712 209.179 186.408 217.679 188.046 225.9C190.058 235.996 191.954 245.533 196.2 254.379C196.516 255.042 196.529 255.804 196.229 256.475C195.929 257.146 195.354 257.65 194.654 257.858C184.633 260.8 174.412 262.288 164.116 262.288Z" fill="black"/>
<path d="M75.0585 251.554C74.7876 251.554 74.5166 251.508 74.246 251.417C69.3876 249.75 64.546 247.871 59.8626 246.05L59.8541 246.046C58.8085 245.721 57.8626 245.129 57.1166 244.325C57.0666 244.271 57.021 244.217 56.9751 244.158C55.5501 242.321 55.7251 239.938 57.4916 237.067C64.4916 225.683 70.5335 213.604 75.446 201.171L75.8791 200.067C79.646 190.492 83.9166 179.642 93.7041 174.804C94.9416 174.192 96.4416 174.7 97.0541 175.938C97.6666 177.175 97.1585 178.675 95.921 179.288C87.8666 183.267 84.1376 192.738 80.5335 201.896L80.096 203.004C75.0791 215.708 68.9041 228.05 61.7501 239.683C61.2751 240.454 61.1126 240.908 61.0585 241.142C61.1501 241.196 61.2501 241.242 61.3585 241.271C61.4335 241.292 61.5041 241.317 61.5751 241.342L61.6751 241.379C66.3126 243.179 71.1085 245.042 75.871 246.675C77.1751 247.125 77.871 248.546 77.4251 249.85C77.0666 250.904 76.096 251.554 75.0585 251.554Z" fill="black"/>
<path d="M81.3209 373.642C81.1665 373.642 81.0084 373.625 80.8499 373.596L66.3209 370.817C64.679 370.488 61.9749 369.942 60.4084 367.717C59.1834 365.971 59.1584 363.962 59.2334 362.221C59.4749 356.712 60.1165 351.2 60.7334 345.871L65.7834 302.325C69.2165 272.937 72.7624 242.546 79.6709 213.225C79.9874 211.883 81.329 211.046 82.679 211.367C84.0209 211.683 84.854 213.029 84.5374 214.375C77.6959 243.417 74.1665 273.662 70.7499 302.912L65.6999 346.454C65.0915 351.7 64.4624 357.121 64.2249 362.446C64.1959 363.108 64.1415 364.35 64.4959 364.85C64.9124 365.442 66.3959 365.742 67.279 365.917L81.7834 368.692C83.1374 368.95 84.029 370.262 83.7665 371.617C83.5459 372.808 82.4999 373.642 81.3209 373.642Z" fill="black"/>
<path d="M125.821 377.829C113.367 377.829 101.317 376.833 89.5167 374.842C88.1542 374.613 87.2377 373.321 87.4667 371.963C87.6961 370.6 88.9836 369.679 90.3461 369.913C116.034 374.246 142.996 373.754 172.775 368.413C174.134 368.167 175.434 369.071 175.675 370.433C175.921 371.792 175.017 373.092 173.654 373.333C156.942 376.329 141.079 377.829 125.821 377.829Z" fill="black"/>
<path d="M192.575 369.517C191.408 369.517 190.367 368.696 190.125 367.508C189.854 366.154 190.729 364.838 192.083 364.563C193.404 364.296 194.704 364.083 195.962 363.879C199.646 363.275 203.125 362.708 206.229 360.942C206.571 360.746 207.1 360.45 207.4 360.154C207.392 359.537 207.142 358.121 206.162 354.929C206.092 354.7 206.029 354.5 205.983 354.346C203.683 346.825 201.517 339.675 199.425 332.758C193.867 314.408 188.621 297.075 181.921 276.333C181.496 275.021 182.217 273.608 183.533 273.187C184.846 272.767 186.254 273.483 186.679 274.8C193.392 295.583 198.646 312.937 204.212 331.308C206.304 338.221 208.471 345.367 210.775 352.904C210.825 353.071 210.879 353.25 210.946 353.458C212.35 358.025 212.904 360.833 211.825 362.583C211 363.917 209.779 364.679 208.7 365.292C204.821 367.496 200.729 368.167 196.771 368.817C195.554 369.017 194.3 369.221 193.071 369.471C192.904 369.5 192.742 369.517 192.575 369.517Z" fill="black"/>
<path d="M180.959 375.875C180.229 375.875 179.5 375.821 178.771 375.708C176.146 375.304 173.692 374.179 171.671 372.45C169.65 370.725 168.154 368.475 167.342 365.946C167.063 365.063 166.875 364.204 166.7 363.371C166.388 361.904 166.113 360.638 165.45 359.754C164.746 358.825 163.442 358.15 162.059 357.438C160.029 356.392 157.729 355.208 156.425 352.758C154.679 349.454 155.725 344.938 158.863 342.246C160.55 340.796 162.746 339.821 165.409 339.333C162.267 313.146 160.309 286.529 159.584 260.188C159.546 258.808 160.634 257.658 162.013 257.621C162.038 257.621 162.059 257.621 162.084 257.621C163.434 257.621 164.546 258.696 164.584 260.05C165.325 287.071 167.375 314.375 170.675 341.208C170.759 341.892 170.559 342.579 170.117 343.113C169.675 343.642 169.038 343.967 168.35 344.008C165.588 344.179 163.492 344.863 162.125 346.038C160.763 347.208 160.192 349.171 160.85 350.413C161.417 351.479 162.779 352.179 164.354 352.992C166.088 353.888 168.054 354.9 169.446 356.742C170.779 358.508 171.213 360.533 171.596 362.321C171.759 363.071 171.909 363.779 172.113 364.425C172.638 366.063 173.613 367.525 174.925 368.65C176.238 369.771 177.838 370.504 179.542 370.767C181.25 371.029 182.992 370.813 184.584 370.142C186.175 369.467 187.542 368.367 188.542 366.958C191.246 363.146 190.917 357.75 190.296 352.088L180.171 259.763C180.021 258.392 181.013 257.154 182.384 257.004C183.759 256.854 184.992 257.846 185.142 259.217L195.267 351.542C195.817 356.571 196.65 364.171 192.621 369.85C191.084 372.017 188.979 373.708 186.534 374.746C184.759 375.496 182.867 375.875 180.959 375.875Z" fill="black"/>
<path d="M61.4377 365.883C61.2917 365.883 61.1417 365.871 60.9917 365.842C57.2252 365.167 53.0792 363.992 50.8711 360.388C48.9167 357.208 49.4127 353.663 49.8502 350.538C50.1711 348.258 50.4711 346.104 49.8292 344.404C49.4836 343.475 48.8127 342.488 48.1086 341.438C46.5167 339.075 44.5377 336.138 45.9002 332.667C46.9667 329.975 49.4417 328.825 51.4252 327.9C52.4211 327.438 53.3586 327 53.9711 326.467C55.4917 325.142 55.8252 322.563 56.0586 319.808L62.2627 245.946C62.3792 244.571 63.5961 243.55 64.9627 243.663C66.3377 243.779 67.3586 244.988 67.2461 246.363L61.0417 320.225C60.7336 323.892 60.1877 327.683 57.2542 330.233C56.1086 331.229 54.7417 331.867 53.5336 332.429C52.1086 333.092 50.8792 333.663 50.5502 334.5C50.1752 335.45 50.9461 336.7 52.2542 338.642C53.0917 339.883 53.9542 341.167 54.5086 342.642C55.5961 345.533 55.1711 348.558 54.8002 351.225C54.4336 353.85 54.1167 356.117 55.1292 357.767C56.3086 359.688 59.1961 360.438 61.8711 360.917C63.2292 361.158 64.1336 362.458 63.8917 363.817C63.6792 365.033 62.6252 365.883 61.4377 365.883Z" fill="black"/>
<path d="M118.125 197.658C117.471 197.658 116.754 197.517 116.063 197.092C116 197.054 115.942 197.013 115.884 196.971C115.2 196.467 114.663 195.792 114.321 195.017C112.225 190.892 110.992 186.458 110.654 181.842C110.596 181.058 110.913 180.292 111.504 179.775C120.929 171.55 131.196 165.821 144.788 161.204C147.367 160.333 149.046 161.342 149.759 162.571C149.804 162.654 149.846 162.738 149.884 162.821C150.213 163.575 150.309 164.392 150.167 165.2L149.434 171.717C149.092 174.75 148.663 178.521 146.721 181.704C144.65 185.108 141.3 187.196 138.321 188.888C132.575 192.154 126.517 194.95 120.304 197.204C119.892 197.363 119.075 197.658 118.125 197.658ZM115.754 182.717C116.146 186.125 117.117 189.408 118.646 192.496C124.575 190.342 130.363 187.667 135.85 184.55C138.284 183.167 141 181.496 142.45 179.113C143.821 176.871 144.146 173.971 144.463 171.167L144.996 166.429C133.204 170.575 124.084 175.654 115.754 182.717Z" fill="black"/>
<path d="M102.475 194.371C101.471 194.371 99.9794 193.942 98.8419 191.792C96.5625 187.492 94.875 182.9 93.8209 178.146C93.5794 177.258 93.5209 176.35 93.6459 175.442C93.6625 175.325 93.6875 175.213 93.7169 175.1C94.0294 173.996 94.625 172.988 95.4334 172.179C98.225 169.125 101.312 166.317 104.617 163.829C105.475 163.163 107.05 161.942 109.104 162.217C110.721 162.433 113.033 164.058 112.967 166.121C112.942 166.871 112.625 167.533 112.112 168C111.992 168.208 111.871 168.417 111.75 168.629C110.85 170.188 109.917 171.8 110.025 173.104C110.075 173.708 110.512 174.392 113.317 175.267C114.321 175.579 115.021 176.488 115.071 177.538C115.262 181.717 112.279 185.088 110.496 187.1L105.392 192.867C104.933 193.45 104.325 193.904 103.633 194.175C103.554 194.204 103.475 194.233 103.396 194.254C103.208 194.3 102.883 194.371 102.475 194.371ZM98.5875 176.3C98.5794 176.488 98.6044 176.671 98.6544 176.854C98.6669 176.904 98.6794 176.954 98.6919 177.004C99.5584 180.942 100.904 184.754 102.7 188.358L106.758 183.775C108.042 182.325 109.3 180.813 109.829 179.317C107.779 178.438 105.329 176.8 105.054 173.517C104.925 171.971 105.267 170.554 105.808 169.25C103.417 171.196 101.167 173.321 99.0919 175.596C99.0584 175.633 99.025 175.667 98.9875 175.704C98.8125 175.875 98.675 176.079 98.5875 176.3Z" fill="black"/>
<path d="M109.375 201.875C110.641 201.875 111.667 200.849 111.667 199.583C111.667 198.318 110.641 197.292 109.375 197.292C108.109 197.292 107.083 198.318 107.083 199.583C107.083 200.849 108.109 201.875 109.375 201.875Z" fill="black"/>
<path d="M107.708 217.708C108.974 217.708 110 216.682 110 215.417C110 214.151 108.974 213.125 107.708 213.125C106.443 213.125 105.417 214.151 105.417 215.417C105.417 216.682 106.443 217.708 107.708 217.708Z" fill="black"/>
</g>
<path d="M146.358 120.308C149.246 116.908 148.35 111.021 144.583 108.642C143.233 107.783 141.525 107.25 140.788 105.833C139.954 104.271 140.708 102.4 141.146 100.692C141.146 100.638 141.175 100.579 141.192 100.525C142.442 95.375 136.554 91.5544 132.267 94.671C126.913 98.5625 120.829 101.338 114.379 102.833C111.046 103.6 106.95 103.75 104.892 101.025C103.675 99.4085 103.383 96.9669 100.308 97.196C99.4125 97.271 98.55 97.5835 97.8081 98.096C92.3041 101.808 86.0082 104.171 79.4207 105C77.5791 105.229 75.6706 105.333 73.8916 104.804C68.7831 103.283 66.4625 96.7794 68.0041 91.6794C69.5456 86.5794 73.9 82.8085 78.5 80.1085C81.35 78.4419 84.525 76.9085 86.2416 74.0794C87.25 72.4125 87.6456 70.4291 88.6581 68.7666C89.6707 67.1041 91.2541 65.85 92.8666 64.7169C101.554 58.7044 111.942 55.646 122.5 55.9835C128.75 56.2 136.096 58.7125 137.446 64.8044L147.029 68.8419C154.404 69.975 161.904 72.4585 167.125 77.7919C172.346 83.125 174.625 91.8375 170.875 98.2919C170.383 99.125 169.775 100.008 169.8 100.992C169.833 102.242 170.879 103.225 171.746 104.15C173.263 105.792 174.417 107.733 175.129 109.85C175.842 111.967 176.1 114.208 175.888 116.433C175.692 118.367 175.054 120.367 173.604 121.646C172.154 122.925 169.683 123.188 168.313 121.813L147.521 125L146.358 120.308Z" fill="black"/>
<path d="M78.6709 105.217C75.9834 112.129 74.3668 118.371 73.9584 122.15C72.9293 131.667 74.8499 142.242 82.1293 149.021C86.0084 152.629 90.8124 154.404 95.9499 155.308C101.308 156.254 107.058 157.117 112.258 154.992C111.983 159.329 111.942 162.425 112.142 166.767L141.517 163.508C141.042 157.804 142.1 152.912 144.583 147.754C145.146 146.587 146.354 146.6 147.55 146.221C148.612 145.887 149.654 145.504 150.683 145.071C152.771 144.204 154.742 143.083 156.558 141.737C160.15 139.025 162.95 135.217 164 130.8C164.954 126.796 164.283 122.029 159.833 119.775C156.696 118.192 153.883 118.754 149.104 122.954L146.396 120.321C149.283 116.921 148.387 111.033 144.621 108.654C143.271 107.796 141.562 107.262 140.825 105.846C139.992 104.283 140.746 102.412 141.183 100.704C141.183 100.65 141.212 100.592 141.229 100.537C142.479 95.3875 136.592 91.5668 132.304 94.6834C126.95 98.575 120.867 101.35 114.417 102.846C111.083 103.612 106.987 103.762 104.929 101.037C103.712 99.4209 103.421 96.9793 100.346 97.2084C99.4499 97.2834 98.5874 97.5959 97.8459 98.1084C92.3293 101.821 86.0168 104.179 79.4209 105" fill="white"/>
<path d="M170.717 125.242C169.154 125.242 167.637 124.687 166.529 123.579C165.554 122.6 165.558 121.017 166.533 120.042C167.512 119.067 169.096 119.071 170.071 120.046C170.383 120.358 171.363 120.279 171.938 119.771C172.708 119.092 173.221 117.817 173.388 116.179C173.567 114.304 173.354 112.442 172.746 110.646C172.142 108.85 171.183 107.237 169.896 105.846L169.683 105.621C168.696 104.579 167.342 103.154 167.288 101.058C167.246 99.454 168 98.2 168.55 97.2834L168.708 97.0209C172.025 91.3084 169.446 83.7459 165.325 79.5415C161.229 75.3584 154.942 72.5915 146.638 71.3125C145.271 71.104 144.338 69.825 144.546 68.4625C144.754 67.1 146.033 66.1625 147.396 66.3709C156.796 67.8165 164.029 71.0709 168.9 76.0415C171.854 79.0584 173.95 82.9915 174.8 87.1165C175.721 91.579 175.092 95.9915 173.025 99.55L172.837 99.8625C172.646 100.179 172.329 100.704 172.292 100.921C172.379 101.2 172.962 101.812 173.312 102.183L173.558 102.442C175.338 104.367 176.654 106.583 177.488 109.05C178.321 111.517 178.613 114.079 178.367 116.671C178.067 119.621 176.992 121.983 175.25 123.521C173.946 124.667 172.308 125.242 170.717 125.242Z" fill="black"/>
<path d="M146.358 122.808C145.788 122.808 145.213 122.613 144.742 122.213C143.688 121.317 143.563 119.742 144.454 118.688C145.35 117.633 145.738 116.054 145.496 114.463C145.254 112.875 144.413 111.488 143.25 110.754C142.963 110.571 142.625 110.392 142.267 110.2C141.021 109.538 139.467 108.708 138.571 106.988C137.404 104.8 138.05 102.496 138.525 100.808C138.583 100.6 138.642 100.392 138.696 100.188C138.721 100.054 138.754 99.9335 138.788 99.8335C139.196 97.9335 137.892 96.8876 137.475 96.6085C136.563 95.996 135.104 95.7001 133.742 96.6876C128.083 100.8 121.763 103.683 114.95 105.263C109.388 106.542 105.221 105.596 102.904 102.525C102.492 101.979 102.188 101.421 101.921 100.929C101.213 99.6291 101.188 99.6291 100.5 99.6835C100.063 99.721 99.6207 99.8791 99.2416 100.142C93.4126 104.071 86.6791 106.6 79.7416 107.471C77.7832 107.717 75.4751 107.871 73.1876 107.192C70.4832 106.388 68.1876 104.446 66.7207 101.729C64.9707 98.4791 64.5582 94.4501 65.6166 90.946C67.1251 85.9585 71.0332 81.5835 77.2417 77.9416C77.6251 77.7166 78.0082 77.5001 78.3957 77.2791C80.7416 75.9416 82.9542 74.6791 84.1126 72.771C84.5001 72.1335 84.8001 71.3501 85.1207 70.521C85.5082 69.5166 85.9082 68.4791 86.5332 67.4541C87.7916 65.3835 89.6376 63.9251 91.4376 62.6585C100.517 56.3751 111.571 53.121 122.588 53.471C129.525 53.7126 138.217 56.6791 139.896 64.2501C140.196 65.6001 139.346 66.9335 137.996 67.2335C136.65 67.5291 135.313 66.6835 135.013 65.3335C134.021 60.8585 127.975 58.6626 122.421 58.471C112.475 58.146 102.483 61.096 94.2957 66.7626C92.9501 67.7085 91.5832 68.771 90.8001 70.0585C90.4082 70.7001 90.1042 71.4876 89.7832 72.321C89.4001 73.3166 89.0042 74.346 88.3876 75.3626C86.5582 78.3791 83.5376 80.1041 80.8707 81.621C80.5001 81.8335 80.1332 82.0416 79.7666 82.2541C74.6832 85.2376 71.5332 88.6501 70.4001 92.3916C69.7291 94.6166 70.0041 97.2835 71.1207 99.3541C71.7082 100.442 72.7876 101.854 74.6082 102.396C76.0126 102.813 77.6751 102.688 79.1167 102.508C85.2792 101.733 91.2626 99.4876 96.4167 96.0126C97.4876 95.271 98.7707 94.8085 100.104 94.696C104.058 94.396 105.525 97.0916 106.313 98.5376C106.517 98.9126 106.708 99.2666 106.896 99.5126C108.329 101.413 112.221 100.758 113.825 100.388C119.979 98.9626 125.692 96.3541 130.804 92.6376C133.642 90.5751 137.354 90.5001 140.263 92.446C143.121 94.3585 144.442 97.7585 143.629 101.1C143.617 101.15 143.604 101.196 143.588 101.246L143.583 101.254C143.579 101.267 143.575 101.283 143.575 101.296C143.504 101.575 143.425 101.858 143.346 102.146C143.088 103.063 142.771 104.204 143.004 104.642C143.196 105.013 143.925 105.4 144.629 105.775C145.054 106 145.492 106.233 145.938 106.517C148.338 108.033 149.983 110.65 150.45 113.692C150.917 116.742 150.125 119.738 148.279 121.908C147.771 122.508 147.067 122.808 146.358 122.808Z" fill="black"/>
<path d="M141.496 163.496C140.213 163.496 139.117 162.513 139.009 161.204C138.479 154.929 139.7 152.058 142.292 146.658C143.242 144.688 145.038 144.254 146.113 143.996C146.346 143.938 146.567 143.888 146.759 143.825C147.75 143.513 148.729 143.154 149.675 142.754C151.588 141.963 153.384 140.942 155.034 139.717C158.359 137.204 160.675 133.825 161.534 130.208C161.975 128.388 162.575 123.963 158.671 121.992C156.967 121.129 155.296 120.792 150.717 124.817C149.679 125.729 148.1 125.625 147.188 124.588C146.275 123.55 146.379 121.971 147.417 121.058C153.992 115.279 157.792 115.946 160.921 117.525C165.771 119.975 167.867 125.279 166.392 131.371C165.267 136.104 162.296 140.492 158.029 143.713C156.038 145.192 153.879 146.417 151.604 147.358C150.525 147.813 149.396 148.229 148.259 148.583C147.913 148.692 147.579 148.775 147.288 148.846C147.104 148.892 146.867 148.946 146.713 148.996C144.317 153.996 143.575 155.875 143.992 160.775C144.109 162.15 143.088 163.358 141.713 163.475C141.638 163.492 141.567 163.496 141.496 163.496Z" fill="black"/>
<path d="M112.142 167.183C110.813 167.183 109.709 166.137 109.646 164.796C109.513 161.862 109.484 160.387 109.567 158.375C104.559 159.342 99.4585 158.454 95.5251 157.767C89.171 156.646 84.2335 154.383 80.4292 150.846C73.4376 144.333 70.1751 133.775 71.4751 121.871C71.9626 117.458 73.7792 110.892 76.3417 104.304C76.8417 103.017 78.2917 102.379 79.5792 102.879C80.8667 103.379 81.5042 104.829 81.0042 106.117C78.1626 113.425 76.7876 119.329 76.446 122.417C75.3167 132.729 78.0085 141.758 83.8376 147.183C86.9542 150.083 90.9417 151.879 96.3876 152.837C101.954 153.808 106.925 154.462 111.317 152.667C112.113 152.342 113.021 152.45 113.721 152.95C114.421 153.454 114.813 154.279 114.759 155.137C114.492 159.329 114.446 160.254 114.646 164.554C114.709 165.933 113.642 167.104 112.263 167.167C112.217 167.183 112.179 167.183 112.142 167.183Z" fill="black"/>
<path d="M91.0123 116.708C92.6232 116.708 93.9288 115.123 93.9288 113.167C93.9288 111.211 92.6232 109.625 91.0123 109.625C89.4013 109.625 88.0957 111.211 88.0957 113.167C88.0957 115.123 89.4013 116.708 91.0123 116.708Z" fill="black"/>
<path d="M105.179 117.688C106.79 117.688 108.096 116.102 108.096 114.146C108.096 112.19 106.79 110.604 105.179 110.604C103.569 110.604 102.263 112.19 102.263 114.146C102.263 116.102 103.569 117.688 105.179 117.688Z" fill="black"/>
</g>
<defs>
<clipPath id="clip0_846_12918">
<rect width="250" height="600" fill="white"/>
</clipPath>
<clipPath id="clip1_846_12918">
<rect width="250" height="250" fill="white" transform="translate(0 159.375)"/>
</clipPath>
</defs>
</svg>
