<svg width="250" height="600" viewBox="0 0 250 600" fill="none" xmlns="http://www.w3.org/2000/svg">
<g clip-path="url(#clip0_846_12769)">
<path d="M132.733 536.232C133.296 542.255 132.521 546.114 130.379 552.696C127.691 561.494 111.629 569.344 121.629 579.2C122.046 579.6 129.525 585.322 142.462 581.609C143.4 581.134 144.375 580.731 145.379 580.403C146.796 579.741 148.112 578.891 149.287 577.878C156.25 572.196 160.762 564.217 161.941 555.498C162.833 549.15 163.579 541.504 163.046 536.067" fill="black"/>
<path d="M92.4998 528.473C92.4707 529.433 92.4707 530.638 92.0538 531.441C91.6373 532.244 91.2207 533.449 90.8038 534.252C85.3873 541.078 78.3038 545.094 71.6373 550.716C67.4707 554.33 63.7207 561.157 68.7207 565.574C78.4498 569.834 93.8873 567.28 97.0538 565.975C99.9707 564.771 102.887 563.967 105.387 562.361C117.054 554.33 116.221 539.874 117.137 527.919" fill="black"/>
<path d="M125.991 525.887C126.212 529.02 126.629 531.831 126.629 535.043C140.379 535.846 154.546 536.248 168.296 535.445C174.216 534.971 180.004 533.477 185.379 531.028C191.629 491.273 192.046 450.715 188.296 410.157C188.296 408.953 188.712 407.346 188.296 406.142C187.879 404.134 187.879 402.528 187.462 400.52V396.504C183.296 359.159 177.462 323.018 169.962 286.877C140.796 287.681 112.046 289.287 82.8789 290.09C69.9874 346.614 65.3583 404.599 69.1289 462.36C69.0583 464.243 69.1999 466.127 69.5458 467.982C70.3289 479.222 72.1458 490.377 74.9624 501.312C75.7958 504.123 76.6289 507.335 77.8789 510.146C79.9624 515.367 82.8789 520.587 84.9624 525.807C92.8789 527.815 101.212 528.217 109.546 527.815C114.129 527.413 119.129 527.413 123.912 526.285L125.991 525.887Z" fill="black"/>
<path fill-rule="evenodd" clip-rule="evenodd" d="M167.662 287.303C182.92 365.005 195.345 448.085 183.235 529.381C174.909 532.957 165.149 533.372 156.616 533.469C147.483 533.565 138.246 533.34 129.125 532.802C128.3 523.594 127.425 514.31 126.575 505.311C122.796 465.275 118.891 423.878 119.075 383.292C119.146 369.017 117.625 354.918 106.146 348.453C104.954 347.782 103.421 348.168 102.725 349.316C102.025 350.465 102.429 351.942 103.621 352.613C112.912 357.845 114.137 370.438 114.075 383.268C113.891 424.08 117.807 465.589 121.595 505.734L121.885 508.82C122.353 513.806 122.829 518.866 123.297 523.937C111.253 525.816 99.0545 525.853 87.0082 524.048C73.9082 499.099 71.8332 474.222 70.9248 452.815C68.6289 398.443 73.4039 343.879 85.1164 290.644C85.4039 289.343 84.5414 288.066 83.1914 287.789C81.8414 287.512 80.5164 288.343 80.2289 289.644C68.4289 343.273 63.6207 398.239 65.9289 453.012C66.8707 475.246 69.0583 501.155 83.1414 527.345C83.5039 528.02 84.1748 528.489 84.9498 528.614C86.6186 528.881 88.2898 529.114 89.9632 529.313C89.9411 529.74 89.8992 530.181 89.8123 530.361C89.5773 530.817 89.3636 531.329 89.1548 531.829L89.1039 531.951C88.9539 532.316 88.7954 532.69 88.6583 532.983C85.2042 537.271 81.0126 540.42 76.5754 543.752L76.4748 543.828C74.3476 545.427 72.1448 547.082 69.9623 548.925C67.0083 551.487 63.8454 555.844 63.8248 560.39C63.8123 563.08 64.9204 565.485 67.0289 567.349C67.2204 567.521 67.4414 567.662 67.6833 567.766C72.1123 569.706 77.4789 570.364 82.4998 570.364C89.5457 570.364 95.9079 569.067 98.0373 568.196C98.8539 567.859 99.7039 567.542 100.525 567.236L100.551 567.227C102.634 566.45 104.787 565.649 106.77 564.373C106.784 564.363 106.799 564.354 106.814 564.345C106.822 564.34 106.83 564.335 106.837 564.329C117.981 556.659 118.699 543.971 119.332 532.775L119.356 532.356C119.415 531.315 119.471 530.311 119.537 529.322C120.939 529.155 122.34 528.964 123.738 528.748C123.936 530.927 124.132 533.105 124.325 535.276C124.433 536.464 125.416 537.396 126.65 537.476C127.879 537.556 129.111 537.63 130.344 537.698C130.663 542.749 129.874 546.205 127.996 551.973C127.991 551.985 127.987 552.001 127.983 552.013C127.216 554.519 124.9 557.245 122.658 559.88L122.634 559.908C120.141 562.843 117.567 565.874 116.454 569.232C115.079 573.388 116.216 577.312 119.862 580.9C119.921 580.962 124.908 585.272 134.025 585.272C136.721 585.272 139.779 584.894 143.179 583.912C143.333 583.869 143.483 583.809 143.625 583.737C144.446 583.322 145.304 582.966 146.183 582.681C146.279 582.647 146.379 582.612 146.47 582.569C148.087 581.812 149.587 580.844 150.929 579.694C158.37 573.613 163.162 565.132 164.42 555.82C165.453 548.485 165.876 542.499 165.684 537.977C172.547 537.514 179.674 536.364 186.162 533.388C186.415 533.272 186.638 533.12 186.828 532.942C187.446 532.582 187.897 531.969 188.008 531.228C200.516 448.86 187.983 364.885 172.575 286.408C172.321 285.098 171.012 284.243 169.654 284.488C168.296 284.737 167.404 285.994 167.662 287.303ZM114.493 529.818C111.262 530.071 108.025 530.196 104.787 530.196C101.502 530.196 98.2186 530.066 94.9401 529.807C94.8795 530.693 94.7279 531.652 94.2789 532.517C94.1283 532.808 93.9523 533.226 93.7779 533.641L93.7373 533.738L93.6864 533.859C93.4776 534.359 93.2639 534.871 93.0289 535.328C92.9579 535.465 92.8748 535.593 92.7789 535.713C88.9039 540.597 84.1957 544.134 79.6414 547.556L79.5082 547.656C77.4454 549.207 75.3142 550.809 73.2748 552.531C71.0789 554.434 68.8332 557.627 68.8207 560.414C68.8164 561.63 69.2457 562.658 70.1332 563.546C79.1248 567.236 93.5083 564.815 96.0664 563.763C96.9086 563.413 97.7436 563.102 98.5539 562.801L98.7204 562.739C100.629 562.028 102.437 561.353 103.962 560.382C113.125 554.049 113.741 543.09 114.337 532.493C114.386 531.611 114.437 530.712 114.493 529.818ZM135.364 537.944C135.633 543.414 134.697 547.476 132.771 553.398C131.718 556.827 129.083 559.926 126.537 562.922L126.525 562.936C120.875 569.582 118.858 572.975 123.358 577.456C123.812 577.802 130.3 582.5 141.529 579.362C142.462 578.906 143.433 578.509 144.42 578.175C145.579 577.621 146.658 576.914 147.621 576.083C147.629 576.075 147.637 576.068 147.646 576.061C147.654 576.054 147.662 576.047 147.671 576.038C154.171 570.734 158.358 563.329 159.462 555.185C160.441 548.226 160.855 542.42 160.686 538.21C159.326 538.25 157.987 538.272 156.675 538.287C155.262 538.3 153.846 538.307 152.429 538.307C146.75 538.307 141.045 538.187 135.364 537.944Z" fill="black"/>
<g clip-path="url(#clip1_846_12769)">
<path d="M141.404 159.375C141.779 163.583 143.5 173.092 149.904 171.667L150.592 172.708C150.279 179.238 146.971 183.842 141.788 188.612C136.521 193.383 129.804 196.25 122.717 196.754C116.467 197.213 109.821 195.717 105.146 191.525C100.471 187.333 98.0126 181.525 101.108 176.546H101.558C102.967 176.587 104.263 175.85 105.454 175.1C106.971 174.142 110.1 170.212 111.038 169.083C112.288 167.462 112.796 161.317 113.438 159.375H141.404Z" fill="white"/>
<path d="M150.65 169.375C158.021 171.35 163.737 177.029 168.341 182.846C173.362 189.196 177.3 196.329 180 203.958C181.512 208.221 183.904 213.017 184.891 217.425L186.208 221.458C193.341 252.179 194.616 283.867 195.083 315.458L195.5 315.933C198.066 325.325 207.65 349.075 209.733 359.075C209.8 359.929 209.658 360.788 209.316 361.575C205.15 366.575 198.066 365.325 192.587 367.025L173.225 370.879C145.512 375.85 117.7 377.067 89.9373 372.383L84.6998 371.771L66.7832 368.342C65.1664 368.033 63.3914 367.621 62.4457 366.258C61.6623 365.142 61.6664 363.671 61.7248 362.308C61.9623 356.892 62.5873 351.517 63.2123 346.137L66.0707 321.496H65.8539C61.6207 320.979 58.2207 320.467 53.9873 319.954C55.7414 300.6 57.9914 281.296 60.7373 262.037C63.1248 245.267 65.9039 228.492 70.8373 212.287C75.2207 197.887 82.1748 182.996 95.3789 175.775L113.712 177.025L150.65 169.375Z" fill="white"/>
<path d="M164.975 340.596C160.963 341.892 155.767 346.488 159.142 350.938C161.013 353.392 163.829 354.713 166.417 356.25C168.413 357.438 168.938 361.433 169.713 363.554C171.658 368.9 175.45 373.271 181.65 372.871C187.967 372.454 191.896 367.075 193.096 361.271C194.4 354.979 192.679 346.813 191.633 340.596H164.975Z" fill="white"/>
<path d="M61.7126 363.433C57.5166 363.271 53.4751 360.733 51.8085 356.983C52.2251 350.317 53.4751 342.4 48.0585 336.983C47.2251 333.65 49.7251 331.15 52.6416 330.063L65.1416 329.408L61.7126 363.433Z" fill="white"/>
<path d="M113.75 177.05L117.742 194.375C124.087 192.146 130.45 189.913 136.492 186.958C138.667 185.896 140.85 184.696 142.425 182.858C144.287 180.688 145.121 177.858 145.908 175.096C147.092 170.929 148.283 166.763 148.675 162.442C143.517 162.838 138.75 165.208 134.133 167.538C128.004 170.625 121.875 173.721 113.75 177.05Z" fill="white"/>
<path d="M109.375 168.75L107.729 171.767C107.504 172.4 107.417 173.075 107.463 173.746C107.746 175.688 110.059 176.488 111.975 176.892C109.821 182.063 106.709 186.783 102.809 190.804C100.65 188.488 99.0085 185.742 97.9916 182.742C96.9751 179.742 96.6126 176.563 96.921 173.413L109.375 167.188C110.15 168.458 109.834 169.133 109.375 168.75Z" fill="white"/>
<path d="M161.067 329.683C160.408 332.871 160.192 336.129 160.417 339.375C160.408 339.563 160.433 339.75 160.5 339.925C160.567 340.1 160.667 340.263 160.796 340.4C161.058 340.558 161.367 340.629 161.671 340.596L190.004 340.517C190.433 340.55 190.862 340.471 191.254 340.292C192.054 339.838 192.117 338.729 192.087 337.792L191.787 330.113L161.067 329.683Z" fill="white"/>
<path d="M55.2707 320.812C53.9332 323.625 53.6626 326.812 53.4126 329.917C56.9582 330.996 60.6417 331.558 64.3457 331.583L65.6626 321.783L55.2707 320.812Z" fill="white"/>
<path d="M184.888 219.925C183.742 219.925 182.713 219.133 182.45 217.971C181.85 215.296 180.646 212.346 179.48 209.492C178.842 207.937 178.188 206.329 177.642 204.796C175.025 197.404 171.238 190.542 166.38 184.396C162.834 179.917 157.28 173.742 150 171.787C148.667 171.429 147.875 170.058 148.234 168.725C148.592 167.392 149.963 166.6 151.296 166.958C160.009 169.292 166.317 176.258 170.3 181.292C175.5 187.871 179.559 195.212 182.355 203.121C182.859 204.542 183.467 206.025 184.109 207.596C185.355 210.642 186.638 213.792 187.33 216.875C187.63 218.221 186.784 219.558 185.438 219.862C185.255 219.904 185.071 219.925 184.888 219.925Z" fill="black"/>
<path d="M80.9417 373.571C80.7873 373.571 80.6292 373.554 80.4707 373.525L66.3248 370.817C64.6832 370.488 61.9792 369.942 60.4123 367.717C59.1873 365.971 59.1623 363.963 59.2373 362.221C59.4792 356.713 60.1207 351.2 60.7373 345.871L65.7873 302.325C69.2207 272.938 72.7667 242.546 79.6748 213.225C79.9917 211.883 81.3373 211.046 82.6832 211.367C84.0248 211.683 84.8582 213.029 84.5417 214.375C77.6998 243.417 74.1707 273.663 70.7542 302.913L65.7042 346.454C65.0957 351.7 64.4667 357.121 64.2292 362.446C64.1998 363.108 64.1457 364.35 64.4998 364.85C64.9167 365.442 66.3998 365.742 67.2832 365.917L81.4082 368.621C82.7623 368.879 83.6542 370.192 83.3917 371.546C83.1623 372.738 82.1167 373.571 80.9417 373.571Z" fill="black"/>
<path d="M125.821 377.829C113.367 377.829 101.317 376.833 89.5167 374.842C88.1542 374.613 87.2377 373.321 87.4667 371.963C87.6961 370.6 88.9836 369.679 90.3461 369.913C116.034 374.246 142.996 373.754 172.775 368.413C174.134 368.167 175.434 369.071 175.675 370.433C175.921 371.792 175.017 373.092 173.654 373.333C156.942 376.329 141.079 377.829 125.821 377.829Z" fill="black"/>
<path d="M192.579 369.517C191.513 369.517 190.525 368.829 190.192 367.758C189.783 366.438 190.521 365.037 191.838 364.629C193.817 364.017 195.904 363.754 197.921 363.504C201.671 363.037 204.933 362.629 207.125 360.267C207.208 359.988 207.246 359.692 207.238 359.4C206.025 353.742 202.313 343.363 199.033 334.192C196.542 327.221 194.183 320.637 193.079 316.587C192.717 315.254 193.5 313.879 194.833 313.517C196.163 313.154 197.542 313.938 197.904 315.271C198.963 319.138 201.283 325.633 203.746 332.508C207.279 342.387 210.933 352.604 212.175 358.563C212.196 358.667 212.213 358.771 212.221 358.879C212.317 360.133 212.104 361.408 211.608 362.562C211.513 362.783 211.388 362.987 211.233 363.171C207.779 367.317 202.875 367.929 198.546 368.467C196.663 368.7 194.879 368.925 193.325 369.408C193.075 369.479 192.825 369.517 192.579 369.517Z" fill="black"/>
<path d="M180.879 376.067C174.825 376.067 169.933 372.108 167.371 365.071C167.142 364.437 166.946 363.729 166.742 362.979C166.45 361.917 165.771 359.429 165.15 359.062C164.708 358.8 164.267 358.546 163.821 358.292C161.567 357.004 159.012 355.542 157.162 353.108C155.162 350.483 155.308 348.117 155.783 346.596C156.854 343.179 160.571 340.883 163.696 339.875C165.008 339.454 166.421 340.171 166.842 341.487C167.262 342.804 166.546 344.212 165.229 344.633C162.912 345.383 160.946 346.837 160.554 348.092C160.479 348.329 160.283 348.958 161.137 350.079C162.375 351.704 164.283 352.796 166.3 353.95C166.771 354.221 167.242 354.487 167.704 354.762C170.058 356.158 170.892 359.208 171.562 361.654C171.737 362.3 171.908 362.912 172.067 363.354C173.417 367.058 176.142 371.387 181.5 371.042C185.021 370.808 189.271 368.162 190.667 361.433C191.737 356.254 190.767 350.679 189.829 345.283C189.717 344.633 189.604 343.987 189.496 343.342C189.267 341.979 190.183 340.692 191.546 340.462C192.908 340.229 194.196 341.15 194.425 342.512C194.533 343.15 194.642 343.787 194.754 344.429C195.771 350.283 196.825 356.337 195.562 362.45C193.946 370.258 188.558 375.592 181.833 376.033C181.512 376.058 181.192 376.067 180.879 376.067Z" fill="black"/>
<path d="M61.425 365.896C61.3959 365.896 61.3668 365.896 61.3418 365.896C58.8334 365.813 56.4043 365.033 54.3168 363.638C52.2293 362.246 50.575 360.304 49.5375 358.021C49.3668 357.646 49.2918 357.238 49.3168 356.829C49.3584 356.138 49.4125 355.429 49.4668 354.713C49.9 348.858 50.3459 342.804 46.2959 338.75C45.975 338.429 45.75 338.029 45.6375 337.588C44.6 333.438 47.0669 329.471 51.775 327.717C53.0669 327.233 54.5084 327.892 54.9918 329.188C55.475 330.479 54.8168 331.921 53.5209 332.404C52.9543 332.617 50.325 333.713 50.4084 335.821C55.4625 341.438 54.9043 348.979 54.4543 355.079C54.4209 355.55 54.3834 356.013 54.3543 356.475C55.0084 357.683 55.95 358.713 57.0959 359.479C58.4084 360.354 59.9334 360.846 61.5125 360.896C62.8918 360.942 63.975 362.096 63.9293 363.479C63.8793 364.829 62.7668 365.896 61.425 365.896Z" fill="black"/>
<path d="M117.759 196.863C117.342 196.863 116.921 196.758 116.555 196.558C115.93 196.217 115.467 195.629 115.305 194.938L111.313 177.612C111.038 176.421 111.667 175.204 112.8 174.737C120.746 171.483 126.875 168.392 132.805 165.408L133.005 165.308C137.571 163.004 142.746 160.392 148.48 159.954C149.213 159.896 149.934 160.167 150.45 160.692C150.967 161.217 151.225 161.942 151.159 162.671C150.75 167.179 149.525 171.492 148.342 175.658L148.305 175.783C147.534 178.492 146.575 181.858 144.313 184.492C142.459 186.654 139.984 188.037 137.58 189.208C131.417 192.221 124.9 194.513 118.596 196.725C118.334 196.817 118.046 196.863 117.759 196.863ZM116.663 178.546L119.55 191.088C124.909 189.192 130.33 187.187 135.392 184.712C137.18 183.837 139.2 182.775 140.525 181.233C142.071 179.429 142.8 176.879 143.5 174.412L143.534 174.287C144.392 171.262 145.217 168.362 145.738 165.437C142.125 166.304 138.642 168.058 135.25 169.771L135.046 169.875C129.538 172.654 123.842 175.521 116.663 178.546Z" fill="black"/>
<path d="M102.808 193.304C102.8 193.304 102.792 193.304 102.783 193.304C102.1 193.296 101.446 193.008 100.979 192.508C98.5625 189.917 96.7625 186.9 95.625 183.542C94.4875 180.183 94.0875 176.696 94.4334 173.167C94.5125 172.337 95.004 171.604 95.7334 171.208L109.179 163.958C110.129 163.446 111.3 163.6 112.083 164.342C112.867 165.083 113.087 166.246 112.629 167.221L110.054 172.7C109.983 172.929 109.95 173.167 109.95 173.408C110.029 173.521 110.512 174.029 112.492 174.446C113.221 174.6 113.842 175.071 114.187 175.729C114.533 176.387 114.571 177.167 114.283 177.854C112 183.337 108.742 188.279 104.604 192.546C104.133 193.029 103.483 193.304 102.808 193.304ZM99.325 174.958C99.2459 177.333 99.5959 179.675 100.362 181.942C100.975 183.75 101.829 185.433 102.912 186.975C105.137 184.354 107.021 181.487 108.542 178.408C106.458 177.442 105.267 176 104.987 174.108C104.979 174.046 104.971 173.987 104.967 173.925C104.917 173.217 104.967 172.517 105.112 171.829L99.325 174.958Z" fill="black"/>
<path d="M65.8542 324C65.7542 324 65.6501 323.996 65.5501 323.983C63.4585 323.729 61.5417 323.471 59.6917 323.221C57.7917 322.967 55.8251 322.7 53.6876 322.442C52.346 322.279 51.3751 321.079 51.5001 319.733C53.2501 300.412 55.5251 280.883 58.2667 261.687C60.5835 245.417 63.421 228.083 68.4501 211.562C74.4292 191.996 82.6085 179.933 94.196 173.596C95.4085 172.933 96.9251 173.379 97.5876 174.592C98.2501 175.804 97.8041 177.321 96.5917 177.983C86.2251 183.654 78.8001 194.787 73.2292 213.021C68.3001 229.217 65.5001 246.321 63.2126 262.392C60.596 280.708 58.4085 299.329 56.696 317.775C57.9626 317.937 59.171 318.1 60.3585 318.262C62.196 318.508 64.0917 318.767 66.1542 319.017C67.5251 319.183 68.5001 320.429 68.3335 321.8C68.1751 323.071 67.1001 324 65.8542 324Z" fill="black"/>
<path d="M106.604 377.088C105.354 377.088 104.275 376.154 104.125 374.883C99.646 337.246 102.079 298.958 104.429 261.929L109.679 179.217C109.767 177.837 110.959 176.804 112.334 176.879C113.713 176.967 114.759 178.154 114.671 179.533L109.421 262.246C107.084 299.05 104.667 337.108 109.092 374.292C109.254 375.663 108.275 376.908 106.904 377.071C106.804 377.083 106.704 377.088 106.604 377.088Z" fill="black"/>
<path d="M195.259 332.425C195.246 332.425 195.23 332.425 195.217 332.425L158.942 331.829C157.705 331.808 156.667 330.883 156.505 329.654C151.567 292.058 149.842 253.783 151.38 215.896C151.434 214.517 152.596 213.45 153.98 213.5C155.359 213.554 156.434 214.721 156.375 216.1C154.88 252.987 156.496 290.242 161.184 326.867L192.73 327.383C192.713 325.867 192.7 324.354 192.684 322.846C192.359 289.387 192.05 257.787 184.434 224.95C184.121 223.604 184.959 222.262 186.305 221.95C187.65 221.637 188.992 222.475 189.305 223.821C197.046 257.192 197.355 289.058 197.684 322.8C197.705 325.158 197.73 327.521 197.755 329.9C197.763 330.575 197.496 331.225 197.017 331.7C196.555 332.162 195.917 332.425 195.259 332.425Z" fill="black"/>
<path d="M161.529 343.104C160.817 343.104 160.109 342.908 159.496 342.537C159.309 342.425 159.138 342.287 158.988 342.129C158.621 341.746 158.342 341.296 158.154 340.796C157.992 340.358 157.913 339.9 157.913 339.433C157.684 336 157.921 332.55 158.617 329.183C158.896 327.829 160.217 326.958 161.571 327.242C162.925 327.521 163.792 328.842 163.513 330.196C162.975 332.796 162.754 335.45 162.85 338.1L189.592 338.025C189.592 337.979 189.592 337.929 189.588 337.875L189.288 330.208C189.234 328.829 190.309 327.667 191.688 327.612C193.075 327.55 194.229 328.633 194.284 330.012L194.584 337.692C194.613 338.575 194.692 341.212 192.488 342.462C192.425 342.496 192.363 342.529 192.296 342.558C191.559 342.9 190.742 343.054 189.929 343.012L161.771 343.092C161.692 343.1 161.609 343.104 161.529 343.104Z" fill="black"/>
<path d="M64.346 334.083H64.3294C60.3794 334.058 56.4626 333.458 52.6835 332.308C51.5585 331.967 50.8251 330.887 50.921 329.717C51.1751 326.571 51.4626 323.004 53.0126 319.737C53.6044 318.492 55.096 317.962 56.346 318.554C57.5919 319.146 58.121 320.637 57.5294 321.887C56.6501 323.737 56.3001 325.883 56.0835 328.058C58.7919 328.721 61.571 329.067 64.3626 329.083C65.7419 329.092 66.8544 330.221 66.846 331.6C66.8376 332.975 65.7169 334.083 64.346 334.083Z" fill="black"/>
</g>
<path d="M80.8958 100.763C83.3039 95.1791 87.0208 90.2541 91.7289 86.4041C94.4789 84.1625 97.6498 82.275 101.158 81.75C104.666 81.225 108.554 82.2666 110.783 85.0291L114.829 87.4541C120.591 84.4 127.896 84.1666 133.612 87.3084C139.329 90.45 143.104 97.05 142.425 103.558C142.046 107.196 140.396 110.608 139.983 114.242C139.571 117.875 140.975 122.225 142.583 122.746L140.916 160.175C143.137 160.792 143.471 160.867 143.8 160.938C148.521 163.929 151.904 168.633 153.237 174.063C153.846 176.633 154.441 179.896 156.987 180.554C160.321 181.433 162.754 176.779 166.208 176.446C170.058 176.075 172.575 181.104 176.433 181.358C181.275 181.671 183.183 174.921 187.437 172.608C189.937 171.242 192.966 171.571 195.812 171.488C198.658 171.404 201.912 170.554 203.112 167.975C204.312 165.396 202.804 162.258 200.637 160.396C198.471 158.533 195.737 157.479 193.416 155.813C187.666 151.667 185.137 144.433 183.333 137.588C181.737 131.542 180.441 125.433 179.454 119.254C178.437 112.929 177.741 106.521 175.941 100.371C173.187 90.9959 167.983 82.525 160.862 75.8335C155.654 70.9541 148.687 66.95 141.696 68.2916L133.604 64.125C130.712 60.046 124.996 59.0375 120.041 59.721C115.087 60.4041 110.383 62.4085 105.416 63.0041C102.083 63.421 98.6833 63.1625 95.3748 63.746C91.1664 64.4835 87.2789 66.5334 83.8164 69.0375C68.2664 80.2875 61.0539 100.633 62.1998 119.783C62.4498 124 63.0583 128.288 62.1373 132.413C59.3833 144.75 44.6664 150.621 39.2208 162.025C37.6333 165.358 31.7914 170.442 35.3083 171.521C37.9373 172.329 40.7248 170.154 43.4083 170.688C45.8164 171.163 47.2623 173.554 48.4998 175.688C49.9664 178.188 51.6164 180.688 53.9958 182.325C56.3748 183.963 59.6539 184.625 62.1998 183.242C64.7458 181.858 66.3664 178.567 69.2833 178.208C72.5748 177.792 74.4039 180.467 77.7083 180.208C78.9583 180.113 80.8289 178.904 81.8748 178.208C85.2998 175.921 88.4664 174.571 90.9039 171.25L105.221 156.25" fill="black"/>
<path d="M141.459 163.542C140.979 157.842 142.129 152.929 144.609 147.771C145.167 146.604 146.379 146.617 147.575 146.237C148.634 145.904 149.684 145.521 150.709 145.087C152.796 144.221 154.767 143.1 156.584 141.754C160.175 139.042 162.971 135.233 164.025 130.817C164.979 126.812 164.309 122.046 159.838 119.792C156.704 118.208 153.892 118.771 149.113 122.971L144.475 123.279C140.979 122.217 139.575 117.862 139.988 114.233C140.4 110.604 142.05 107.187 142.429 103.55C143.109 97.0625 139.334 90.4625 133.617 87.3C127.9 84.1375 120.596 84.3834 114.834 87.4459L110.788 85.0209C108.559 82.2584 104.671 81.2125 101.163 81.7415C97.6542 82.2709 94.4961 84.154 91.7336 86.3959C87.0252 90.2459 83.3086 95.1709 80.9002 100.754L79.1667 104.583C76.6667 108.333 76.2502 112.917 75.0002 117.5C75.0002 118.817 69.9336 136.6 81.6667 148.333C85.8336 152.5 91.2502 154.167 96.8752 155.417C101.921 156.196 107.434 156.979 112.292 155C112.013 159.337 111.971 162.433 112.171 166.775" fill="white"/>
<path d="M144.475 125.787C144.233 125.787 143.987 125.754 143.746 125.679C138.937 124.217 136.966 118.679 137.5 113.958C137.729 111.954 138.271 110.083 138.796 108.271C139.296 106.546 139.771 104.917 139.937 103.296C140.5 97.9165 137.404 92.2415 132.408 89.4959C128.191 87.179 124.333 87.529 118.187 90.7875C116.966 91.4334 115.454 90.9709 114.808 89.75C114.162 88.529 114.625 87.0165 115.846 86.3709C125.379 81.3165 130.787 82.9 134.816 85.1165C141.525 88.804 145.675 96.4915 144.912 103.817C144.696 105.883 144.137 107.804 143.6 109.667C143.112 111.35 142.65 112.942 142.471 114.525C142.171 117.158 143.112 120.262 145.2 120.896C146.521 121.296 147.266 122.696 146.866 124.017C146.537 125.092 145.546 125.787 144.475 125.787Z" fill="black"/>
<path d="M80.8958 103.262C80.5664 103.262 80.2289 103.196 79.9083 103.058C78.6414 102.512 78.0539 101.042 78.6039 99.7709C81.1623 93.8415 85.1539 88.55 90.1498 84.4665C93.7914 81.5 97.2708 79.804 100.791 79.275C105.504 78.5709 110.079 80.1709 112.733 83.4584C113.6 84.5334 113.433 86.1084 112.358 86.975C111.283 87.8415 109.708 87.675 108.841 86.6C107.325 84.7209 104.454 83.7875 101.533 84.225C98.9248 84.6165 96.2374 85.9625 93.3124 88.3459C88.9333 91.925 85.4373 96.5624 83.1958 101.758C82.7833 102.696 81.8623 103.262 80.8958 103.262Z" fill="black"/>
<path d="M59.0957 186.483C56.8998 186.483 54.5957 185.771 52.5788 184.383C49.8163 182.483 47.9498 179.688 46.3457 176.95C45.4748 175.45 44.2913 173.408 42.9248 173.138C42.2248 172.996 41.2373 173.271 40.1957 173.563C38.6163 174 36.6498 174.546 34.5748 173.908C32.7538 173.35 32.1082 172.113 31.8832 171.425C31.1039 169.021 32.9332 166.596 34.8707 164.025C35.7038 162.917 36.5707 161.775 36.9623 160.95C39.5957 155.438 44.0957 151.238 48.4457 147.179C53.5332 142.433 58.3413 137.95 59.6957 131.867C60.3623 128.883 60.1248 125.717 59.8707 122.363C59.8082 121.55 59.7498 120.738 59.6998 119.929C58.4082 98.3291 67.0832 78.05 82.3457 67.0085C86.6707 63.8794 90.7913 62.0085 94.9373 61.2794C96.9413 60.925 98.9288 60.8585 100.85 60.7916C102.329 60.7416 103.729 60.6919 105.1 60.521C107.491 60.2335 109.825 59.596 112.296 58.9166C114.675 58.2666 117.133 57.5919 119.691 57.2419C126.587 56.2919 132.55 58.321 135.633 62.675C136.433 63.8 136.166 65.3625 135.037 66.1585C133.912 66.9585 132.35 66.6919 131.554 65.5625C129.212 62.2625 124.246 61.6544 120.375 62.1875C118.137 62.496 115.941 63.096 113.616 63.7335C111.079 64.4294 108.454 65.146 105.708 65.475C104.125 65.671 102.55 65.7291 101.021 65.7791C99.1913 65.8416 97.4663 65.9041 95.7998 66.196C92.4123 66.7875 88.9707 68.3794 85.2707 71.05C71.3832 81.1 63.4913 99.7085 64.6832 119.621C64.7288 120.404 64.7873 121.192 64.8498 121.975C65.1163 125.542 65.3957 129.233 64.5663 132.942C62.8707 140.533 57.2663 145.763 51.8457 150.821C47.6498 154.733 43.6873 158.429 41.4663 163.088C40.8582 164.371 39.8373 165.717 38.8538 167.025C38.4163 167.604 37.8082 168.408 37.3457 169.104C37.8123 169.021 38.3248 168.879 38.8498 168.733C40.3373 168.321 42.0248 167.85 43.8873 168.221C47.4707 168.929 49.3873 172.233 50.6538 174.417C52.1663 176.992 53.5538 178.975 55.4038 180.25C56.9457 181.313 59.2748 181.967 60.9957 181.029C61.7038 180.642 62.4288 179.929 63.1913 179.175C64.6082 177.775 66.3748 176.029 68.9663 175.713C71.3413 175.413 73.1457 176.233 74.5957 176.896C75.7913 177.442 76.5707 177.771 77.4998 177.7C77.6663 177.679 78.3788 177.508 80.4748 176.113C81.3457 175.529 82.1873 175.017 83.0038 174.517C85.3207 173.1 87.3207 171.875 88.8748 169.758C89.6913 168.646 91.2582 168.404 92.3707 169.221C93.4832 170.038 93.7248 171.6 92.9082 172.717C90.7748 175.625 88.1538 177.233 85.6163 178.783C84.8413 179.258 84.0413 179.746 83.2498 180.275C81.4832 181.45 79.6123 182.554 77.8873 182.688C75.6288 182.863 73.9038 182.079 72.5207 181.446C71.2663 180.875 70.5123 180.554 69.5832 180.675C68.6748 180.788 67.7623 181.688 66.7038 182.733C65.7707 183.654 64.7123 184.7 63.3788 185.425C62.0998 186.142 60.6248 186.483 59.0957 186.483Z" fill="black"/>
<path d="M176.762 183.825C176.592 183.825 176.417 183.821 176.242 183.808C173.646 183.638 171.708 182.121 169.996 180.779C168.633 179.713 167.45 178.788 166.425 178.888C165.583 178.971 164.521 179.779 163.496 180.563C161.65 181.971 159.354 183.729 156.321 182.921C152.45 181.904 151.504 177.758 150.879 175.017L150.779 174.579C149.633 169.925 146.804 165.9 142.8 163.233L142.25 163.113C140.9 162.821 140.046 161.488 140.337 160.138C140.629 158.788 141.962 157.933 143.312 158.225L144.308 158.442C144.596 158.504 144.867 158.617 145.117 158.775C150.408 162.129 154.146 167.329 155.642 173.413L155.754 173.9C156.133 175.558 156.654 177.833 157.6 178.083C158.221 178.25 159.137 177.596 160.462 176.588C161.971 175.433 163.683 174.125 165.95 173.908C168.971 173.617 171.25 175.404 173.079 176.838C174.333 177.817 175.517 178.746 176.579 178.813C178.075 178.913 179.271 177.525 181.087 175.25C182.475 173.517 184.05 171.55 186.216 170.363C188.779 168.963 191.596 168.958 194.079 168.954C194.629 168.954 195.175 168.954 195.717 168.938C196.704 168.909 199.987 168.667 200.829 166.867C201.487 165.458 200.371 163.433 198.987 162.238C197.937 161.333 196.658 160.613 195.304 159.854C194.196 159.233 193.05 158.588 191.942 157.796C185.546 153.221 182.767 145.325 180.892 138.213C179.279 132.113 177.958 125.863 176.962 119.638C176.737 118.225 176.525 116.804 176.312 115.388C175.604 110.617 174.871 105.679 173.517 101.063C170.892 92.1291 165.912 84.0335 159.125 77.6585C155.771 74.5041 149.104 69.4166 142.142 70.7501C140.787 71.0085 139.475 70.121 139.217 68.7626C138.958 67.4085 139.846 66.096 141.204 65.8376C147.979 64.5416 155.562 67.4416 162.554 74.0126C169.992 81.0001 175.442 89.8666 178.321 99.6541C179.771 104.608 180.529 109.713 181.262 114.654C181.471 116.054 181.679 117.454 181.904 118.85C182.875 124.913 184.162 131 185.733 136.942C187.467 143.513 189.771 150.092 194.862 153.738C195.746 154.371 196.721 154.921 197.758 155.5C199.271 156.35 200.833 157.225 202.262 158.458C206.192 161.85 206.625 166.296 205.371 168.988C203.946 172.038 200.579 173.796 195.883 173.942C195.296 173.958 194.696 173.963 194.1 173.963C192.029 173.967 190.075 173.967 188.629 174.758C187.342 175.463 186.204 176.883 185.004 178.383C183.042 180.817 180.633 183.825 176.762 183.825Z" fill="black"/>
<path d="M141.496 163.496C140.213 163.496 139.117 162.513 139.009 161.204C138.479 154.929 139.7 152.058 142.292 146.658C143.242 144.688 145.038 144.254 146.113 143.996C146.346 143.938 146.567 143.888 146.759 143.825C147.75 143.513 148.729 143.154 149.675 142.754C151.588 141.963 153.384 140.942 155.034 139.717C158.359 137.204 160.675 133.825 161.534 130.208C161.975 128.388 162.575 123.963 158.671 121.992C156.967 121.129 155.296 120.792 150.717 124.817C149.679 125.729 148.1 125.625 147.188 124.588C146.275 123.55 146.379 121.971 147.417 121.058C153.992 115.279 157.792 115.946 160.921 117.525C165.771 119.975 167.867 125.279 166.392 131.371C165.267 136.104 162.296 140.492 158.029 143.713C156.038 145.192 153.879 146.417 151.604 147.358C150.525 147.813 149.396 148.229 148.259 148.583C147.913 148.692 147.579 148.775 147.288 148.846C147.104 148.892 146.867 148.946 146.713 148.996C144.317 153.996 143.575 155.875 143.992 160.775C144.109 162.15 143.088 163.358 141.713 163.475C141.638 163.492 141.567 163.496 141.496 163.496Z" fill="black"/>
<path d="M112.142 167.183C110.813 167.183 109.709 166.137 109.646 164.796C109.513 161.862 109.484 160.387 109.567 158.375C104.559 159.342 99.4585 158.454 95.5251 157.767C89.171 156.646 84.2335 154.383 80.4292 150.846C73.4376 144.333 70.1751 133.775 71.4751 121.871C71.9626 117.458 73.7792 110.892 76.3417 104.304C76.8417 103.017 78.2917 102.379 79.5792 102.879C80.8667 103.379 81.5042 104.829 81.0042 106.117C78.1626 113.425 76.7876 119.329 76.446 122.417C75.3167 132.729 78.0085 141.758 83.8376 147.183C86.9542 150.083 90.9417 151.879 96.3876 152.837C101.954 153.808 106.925 154.462 111.317 152.667C112.113 152.342 113.021 152.45 113.721 152.95C114.421 153.454 114.813 154.279 114.759 155.137C114.492 159.329 114.446 160.254 114.646 164.554C114.709 165.933 113.642 167.104 112.263 167.167C112.217 167.183 112.179 167.183 112.142 167.183Z" fill="black"/>
<path d="M91.0123 116.708C92.6232 116.708 93.9288 115.123 93.9288 113.167C93.9288 111.211 92.6232 109.625 91.0123 109.625C89.4013 109.625 88.0957 111.211 88.0957 113.167C88.0957 115.123 89.4013 116.708 91.0123 116.708Z" fill="black"/>
<path d="M105.179 117.688C106.79 117.688 108.096 116.102 108.096 114.146C108.096 112.19 106.79 110.604 105.179 110.604C103.569 110.604 102.263 112.19 102.263 114.146C102.263 116.102 103.569 117.688 105.179 117.688Z" fill="black"/>
</g>
<defs>
<clipPath id="clip0_846_12769">
<rect width="250" height="600" fill="white"/>
</clipPath>
<clipPath id="clip1_846_12769">
<rect width="250" height="250" fill="white" transform="translate(0 159.375)"/>
</clipPath>
</defs>
</svg>
