<svg width="250" height="600" viewBox="0 0 250 600" fill="none" xmlns="http://www.w3.org/2000/svg">
<g clip-path="url(#clip0_846_12809)">
<path d="M132.733 536.232C133.296 542.255 132.521 546.114 130.379 552.696C127.691 561.494 111.629 569.344 121.629 579.2C122.046 579.6 129.525 585.322 142.462 581.609C143.4 581.134 144.375 580.731 145.379 580.403C146.796 579.741 148.112 578.891 149.287 577.877C156.25 572.196 160.762 564.217 161.941 555.498C162.833 549.15 163.579 541.504 163.046 536.067" fill="black"/>
<path d="M92.4998 528.473C92.4707 529.433 92.4707 530.638 92.0538 531.441C91.6373 532.244 91.2207 533.449 90.8038 534.252C85.3873 541.078 78.3038 545.094 71.6373 550.716C67.4707 554.33 63.7207 561.157 68.7207 565.574C78.4498 569.834 93.8873 567.28 97.0538 565.975C99.9707 564.771 102.887 563.967 105.387 562.361C117.054 554.33 116.221 539.874 117.137 527.919" fill="black"/>
<path d="M125.991 525.887C126.212 529.02 126.629 531.831 126.629 535.043C140.379 535.846 154.546 536.248 168.296 535.445C174.216 534.971 180.004 533.477 185.379 531.028C191.629 491.273 192.046 450.715 188.296 410.157C188.296 408.953 188.712 407.346 188.296 406.142C187.879 404.134 187.879 402.528 187.462 400.52V396.504C183.296 359.159 177.462 323.018 169.962 286.877C140.796 287.681 112.046 289.287 82.8789 290.09C69.9874 346.614 65.3583 404.599 69.1289 462.36C69.0583 464.243 69.1999 466.127 69.5458 467.982C70.3289 479.222 72.1458 490.377 74.9624 501.312C75.7958 504.123 76.6289 507.335 77.8789 510.146C79.9624 515.367 82.8789 520.587 84.9624 525.807C92.8789 527.815 101.212 528.217 109.546 527.815C114.129 527.413 119.129 527.413 123.912 526.285L125.991 525.887Z" fill="black"/>
<path fill-rule="evenodd" clip-rule="evenodd" d="M167.662 287.303C182.92 365.005 195.345 448.085 183.235 529.381C174.909 532.957 165.149 533.372 156.616 533.469C147.483 533.565 138.246 533.34 129.125 532.802C128.3 523.594 127.425 514.31 126.575 505.311C122.796 465.275 118.891 423.878 119.075 383.292C119.146 369.017 117.625 354.918 106.146 348.453C104.954 347.782 103.421 348.168 102.725 349.316C102.025 350.465 102.429 351.943 103.621 352.613C112.912 357.845 114.137 370.438 114.075 383.268C113.891 424.08 117.807 465.589 121.595 505.734L121.885 508.82C122.353 513.806 122.829 518.866 123.297 523.937C111.253 525.816 99.0545 525.853 87.0082 524.048C73.9082 499.099 71.8332 474.222 70.9248 452.815C68.6289 398.443 73.4039 343.879 85.1164 290.644C85.4039 289.343 84.5414 288.066 83.1914 287.789C81.8414 287.512 80.5164 288.343 80.2289 289.644C68.4289 343.273 63.6207 398.239 65.9289 453.012C66.8707 475.246 69.0583 501.155 83.1414 527.345C83.5039 528.02 84.1748 528.489 84.9498 528.614C86.6186 528.881 88.2898 529.114 89.9632 529.313C89.9411 529.74 89.8992 530.181 89.8123 530.361C89.5773 530.818 89.3636 531.329 89.1548 531.829L89.1039 531.951C88.9539 532.316 88.7954 532.69 88.6583 532.983C85.2042 537.271 81.0126 540.42 76.5754 543.752L76.4748 543.828C74.3476 545.427 72.1448 547.083 69.9623 548.925C67.0083 551.487 63.8454 555.844 63.8248 560.39C63.8123 563.08 64.9204 565.485 67.0289 567.349C67.2204 567.521 67.4414 567.662 67.6833 567.766C72.1123 569.706 77.4789 570.364 82.4998 570.364C89.5457 570.364 95.9079 569.067 98.0373 568.196C98.8539 567.859 99.7039 567.542 100.525 567.236L100.551 567.227C102.634 566.45 104.787 565.649 106.77 564.373C106.784 564.363 106.799 564.354 106.814 564.345C106.822 564.34 106.83 564.335 106.837 564.329C117.981 556.659 118.699 543.971 119.332 532.775L119.356 532.356C119.415 531.315 119.471 530.311 119.537 529.322C120.939 529.155 122.34 528.964 123.738 528.748C123.936 530.927 124.132 533.105 124.325 535.276C124.433 536.464 125.416 537.396 126.65 537.476C127.879 537.556 129.111 537.63 130.344 537.698C130.663 542.749 129.874 546.205 127.996 551.973C127.991 551.985 127.987 552.001 127.983 552.013C127.216 554.519 124.9 557.245 122.658 559.88L122.634 559.908C120.141 562.843 117.567 565.874 116.454 569.232C115.079 573.388 116.216 577.312 119.862 580.9C119.921 580.963 124.908 585.272 134.025 585.272C136.721 585.272 139.779 584.894 143.179 583.912C143.333 583.869 143.483 583.809 143.625 583.738C144.446 583.322 145.304 582.966 146.183 582.681C146.279 582.647 146.379 582.613 146.47 582.569C148.087 581.812 149.587 580.844 150.929 579.694C158.37 573.613 163.162 565.132 164.42 555.82C165.453 548.485 165.876 542.499 165.684 537.977C172.547 537.514 179.674 536.364 186.162 533.388C186.415 533.272 186.638 533.12 186.828 532.942C187.446 532.582 187.897 531.969 188.008 531.228C200.516 448.86 187.983 364.885 172.575 286.408C172.321 285.098 171.012 284.243 169.654 284.488C168.296 284.737 167.404 285.994 167.662 287.303ZM114.493 529.818C111.262 530.071 108.025 530.196 104.787 530.196C101.502 530.196 98.2186 530.066 94.9401 529.807C94.8795 530.693 94.7279 531.652 94.2789 532.517C94.1283 532.808 93.9523 533.226 93.7779 533.641L93.7373 533.738L93.6864 533.859C93.4776 534.359 93.2639 534.871 93.0289 535.328C92.9579 535.465 92.8748 535.593 92.7789 535.713C88.9039 540.597 84.1957 544.134 79.6414 547.556L79.5082 547.656C77.4454 549.207 75.3142 550.809 73.2748 552.531C71.0789 554.434 68.8332 557.627 68.8207 560.414C68.8164 561.63 69.2457 562.658 70.1332 563.546C79.1248 567.236 93.5083 564.815 96.0664 563.763C96.9086 563.413 97.7436 563.103 98.5539 562.801L98.7204 562.739C100.629 562.028 102.437 561.353 103.962 560.382C113.125 554.049 113.741 543.09 114.337 532.493C114.386 531.611 114.437 530.712 114.493 529.818ZM135.364 537.944C135.633 543.414 134.697 547.476 132.771 553.398C131.718 556.827 129.083 559.926 126.537 562.922L126.525 562.936C120.875 569.582 118.858 572.975 123.358 577.456C123.812 577.802 130.3 582.5 141.529 579.363C142.462 578.906 143.433 578.509 144.42 578.175C145.579 577.621 146.658 576.914 147.621 576.083C147.629 576.075 147.637 576.068 147.646 576.061C147.654 576.054 147.662 576.047 147.671 576.038C154.171 570.734 158.358 563.329 159.462 555.185C160.441 548.226 160.855 542.42 160.686 538.21C159.326 538.25 157.987 538.272 156.675 538.288C155.262 538.3 153.846 538.308 152.429 538.308C146.75 538.308 141.045 538.187 135.364 537.944Z" fill="black"/>
<g clip-path="url(#clip1_846_12809)">
<path d="M89.6959 184.283L90.4665 181.892C88.025 182.558 86.1834 184.537 84.6334 186.529C79.8125 192.692 77.2665 200.508 76.0665 208.237C71.3125 238.875 63.0334 290.379 57.5915 331.138C56.2459 330.975 54.879 331.208 53.6584 331.8C52.4375 332.392 51.4125 333.325 50.7084 334.483C50.004 335.642 49.6415 336.979 49.675 338.333C49.704 339.692 50.125 341.008 50.8834 342.133C51.3334 342.792 51.8959 343.383 52.3084 344.058C53.3625 345.817 53.304 348.004 53.179 350.054C52.9459 353.883 52.6415 357.917 54.2875 361.383C55.9334 364.85 60.3334 367.338 63.704 365.504C66.054 364.221 67.0625 361.429 67.8709 358.879C69.0084 355.513 69.975 352.087 70.7625 348.621C71.6584 344.35 75.3459 325.4 75.704 321.046L72.3625 319.408C72.3625 319.408 84.3665 229.729 89.6959 184.283Z" fill="white"/>
<path d="M156.517 226.042L157.096 226.7C156.646 264.65 161.738 302.558 165.446 341.629C164 341.75 162.625 342.312 161.517 343.246C160.404 344.179 159.609 345.433 159.242 346.837C158.871 348.242 158.95 349.725 159.459 351.083C159.967 352.442 160.888 353.608 162.088 354.425C163.379 355.3 164.929 355.725 166.254 356.554C172.329 360.342 171.6 370.787 178.021 373.946C182.759 376.275 188.696 372.721 190.842 367.892C192.988 363.063 192.4 357.525 191.763 352.283C189.042 329.983 182.554 264.663 181.421 250.992C181.421 250.992 175.988 200.458 174.588 194.654C173.188 188.85 168.442 183.883 164.117 179.767L163.184 179.162C160.263 186.55 152.221 218.204 156.517 226.042Z" fill="white"/>
<path d="M141.404 159.375C141.779 163.583 143.5 173.092 149.904 171.667L150.592 172.708C150.279 179.238 146.971 183.842 141.788 188.612C136.521 193.383 129.804 196.25 122.717 196.754C116.467 197.213 109.821 195.717 105.146 191.525C100.471 187.333 98.0126 181.525 101.108 176.546H101.558C102.967 176.587 104.263 175.85 105.454 175.1C106.971 174.142 110.1 170.212 111.038 169.083C112.288 167.462 112.796 161.317 113.438 159.375H141.404Z" fill="white"/>
<path d="M156.517 226.042C152.221 218.204 160.263 186.55 163.179 179.163C163.475 178.596 163.071 178.979 163.004 178.346C162.8 177.375 154.446 172.1 150.704 171.667C149.996 178.75 147.029 183.796 141.784 188.613C136.517 193.383 129.8 196.25 122.713 196.754C116.463 197.212 109.817 195.717 105.142 191.525C100.467 187.333 98.2668 180.15 101.363 175.183L92.9168 179.058C91.9127 179.517 90.8336 180.025 90.2627 180.963C89.6918 181.9 89.8461 183.154 89.7211 184.296C84.3752 229.742 70.8377 316.85 72.0461 316.983C99.9961 320.292 136.113 323.271 163.2 315.621H163.267C161.042 285.621 156.771 256.188 157.129 226.708" fill="white"/>
<path d="M121.346 322.921C104.304 322.921 86.9375 321.262 71.75 319.467C71.0584 319.383 70.4084 319 69.9959 318.437C69.3166 317.504 69.0375 317.117 70.6084 301.458C71.5916 291.658 73.0291 279.058 74.6625 265.979C76.6541 249.996 81.8666 210.05 87.2459 183.921C87.2625 183.713 87.275 183.475 87.2834 183.229C87.325 182.188 87.3791 180.896 88.125 179.667C89.1084 178.05 90.775 177.292 91.875 176.788L100.321 172.917C101.325 172.458 102.513 172.708 103.237 173.538C103.967 174.367 104.067 175.575 103.483 176.513C101.242 180.113 102.733 186.013 106.808 189.671C110.575 193.05 116.304 194.725 122.529 194.267C129.033 193.804 135.275 191.142 140.104 186.767C145.175 182.113 147.604 177.521 148.213 171.425C148.279 170.758 148.612 170.146 149.133 169.725C149.654 169.304 150.325 169.113 150.988 169.188C153.671 169.5 157.425 171.488 159.425 172.646C164.158 175.388 165.079 176.679 165.346 177.454C165.792 178.129 165.975 179.075 165.463 180.171C164.196 183.425 161.488 192.792 159.596 202.896C156.546 219.2 158.142 223.817 158.704 224.842C159.367 226.054 158.925 227.571 157.712 228.237C156.5 228.9 154.983 228.458 154.317 227.246C152.154 223.304 152.275 214.8 154.679 201.975C156.35 193.058 158.821 183.846 160.458 179.275C159.058 178.158 155.483 175.992 152.75 174.858C151.567 180.813 148.629 185.717 143.471 190.45C137.804 195.583 130.5 198.704 122.888 199.246C115.321 199.796 108.246 197.663 103.471 193.383C99.7875 190.079 97.2084 184.783 97.45 179.725L93.9541 181.329C93.4375 181.567 92.5791 181.958 92.3916 182.263C92.3125 182.425 92.2916 183.029 92.275 183.429C92.2625 183.775 92.2459 184.167 92.2 184.567C92.1916 184.646 92.1791 184.725 92.1625 184.8C84.025 224.258 75.1541 301.567 74.475 314.75C102.233 317.962 136.742 320.492 162.517 313.212C163.846 312.837 165.225 313.612 165.6 314.937C165.975 316.267 165.204 317.646 163.875 318.025C151.1 321.637 136.346 322.921 121.346 322.921ZM72.3209 314.5C72.3334 314.5 72.3459 314.504 72.3625 314.504C72.3459 314.5 72.3334 314.5 72.3209 314.5Z" fill="black"/>
<path d="M181.217 377.171C179.709 377.171 178.246 376.842 176.917 376.188C172.742 374.133 171.05 369.858 169.554 366.083C168.329 362.992 167.175 360.071 164.929 358.671C164.45 358.371 163.871 358.113 163.259 357.837C162.459 357.479 161.546 357.075 160.684 356.488C159.046 355.375 157.813 353.808 157.117 351.954C156.421 350.1 156.321 348.108 156.825 346.196C157.329 344.283 158.396 342.6 159.913 341.325C160.767 340.608 161.725 340.054 162.754 339.679C162.021 332.079 161.234 324.446 160.471 317.042C157.271 285.996 154.246 256.671 154.6 226.671C154.617 225.292 155.759 224.196 157.129 224.2C158.509 224.217 159.617 225.35 159.6 226.729C159.246 256.446 162.259 285.629 165.442 316.529C166.279 324.65 167.146 333.05 167.938 341.392C168 342.058 167.796 342.721 167.367 343.233C166.938 343.746 166.321 344.067 165.654 344.121C164.717 344.196 163.846 344.558 163.125 345.163C162.404 345.767 161.9 346.562 161.663 347.471C161.425 348.379 161.471 349.325 161.8 350.204C162.129 351.083 162.717 351.825 163.492 352.354C163.988 352.692 164.625 352.975 165.3 353.275C166.009 353.592 166.809 353.95 167.584 354.433C171.225 356.704 172.809 360.708 174.209 364.246C175.484 367.463 176.684 370.5 179.125 371.7C180.679 372.463 182.275 372.167 183.342 371.779C185.542 370.983 187.588 369.058 188.559 366.875C190.35 362.846 189.967 358.217 189.284 352.583C186.588 330.496 180.117 265.492 178.934 251.229C177.059 233.8 173.234 199.708 172.163 195.242C170.963 190.258 166.763 185.729 162.4 181.583C161.4 180.633 161.359 179.05 162.313 178.05C163.263 177.05 164.846 177.008 165.846 177.963C170.763 182.638 175.521 187.829 177.025 194.075C178.442 199.971 183.688 248.658 183.909 250.729C183.909 250.75 183.913 250.771 183.913 250.792C185.088 264.963 191.554 329.925 194.246 351.988C194.859 357.029 195.621 363.3 193.129 368.913C191.613 372.329 188.517 375.229 185.05 376.488C183.767 376.938 182.475 377.171 181.217 377.171Z" fill="black"/>
<path d="M149.416 174.687C149.366 174.687 149.316 174.687 149.266 174.683C144.621 174.408 143.116 171.729 141.912 169.579C141.6 169.025 141.279 168.45 140.9 167.887C140.129 166.742 140.433 165.187 141.575 164.417C142.721 163.646 144.275 163.95 145.046 165.092C145.541 165.825 145.929 166.517 146.271 167.129C147.354 169.058 147.641 169.575 149.562 169.692C150.941 169.775 151.991 170.958 151.908 172.333C151.829 173.662 150.729 174.687 149.416 174.687Z" fill="black"/>
<path d="M61.2166 368.621C60.321 368.621 59.4041 368.475 58.496 368.179C55.7585 367.287 53.2791 365.096 52.0291 362.458C50.1541 358.513 50.425 354.121 50.6625 350.242L50.6835 349.904C50.7916 348.138 50.8335 346.462 50.1625 345.346C50.021 345.113 49.7916 344.825 49.55 344.517C49.321 344.229 49.0625 343.904 48.8166 343.546C47.7791 342.008 47.2125 340.233 47.171 338.392C47.1291 336.554 47.6125 334.75 48.571 333.179C49.5291 331.608 50.9085 330.354 52.5625 329.55C53.4625 329.113 54.421 328.821 55.4 328.679C59.8041 296.354 65.6041 259.217 70.2835 229.254C71.5 221.454 72.6291 214.237 73.6125 207.858C75.05 198.542 78.1 190.846 82.6791 184.992C84.4166 182.758 86.625 180.354 89.825 179.483C91.1585 179.121 92.5335 179.904 92.896 181.238C93.2585 182.571 92.475 183.946 91.1416 184.308C89.3625 184.796 87.8585 186.483 86.625 188.071C82.575 193.25 79.8625 200.162 78.5541 208.625C77.571 215.008 76.4416 222.229 75.225 230.029C70.446 260.629 64.5 298.713 60.071 331.471C59.8875 332.825 58.65 333.775 57.3 333.617C56.425 333.513 55.546 333.662 54.7541 334.046C53.9625 334.429 53.3 335.029 52.846 335.783C52.3875 336.533 52.1585 337.396 52.175 338.275C52.196 339.154 52.4666 340.004 52.9585 340.733C53.096 340.933 53.2791 341.167 53.471 341.408C53.7791 341.8 54.1291 342.238 54.4416 342.75C55.8541 345.108 55.825 347.725 55.675 350.2L55.6541 350.542C55.4416 353.975 55.225 357.525 56.546 360.304C57.221 361.721 58.5916 362.946 60.046 363.417C60.6875 363.625 61.6375 363.775 62.5125 363.3C64 362.487 64.8 360.292 65.4916 358.117C65.496 358.1 65.5 358.087 65.5085 358.071C66.6125 354.804 67.5585 351.442 68.325 348.079C69.246 343.671 72.871 321.4 73.2166 317.196C73.3291 315.821 74.5416 314.8 75.9125 314.908C77.2875 315.021 78.3125 316.229 78.2 317.604C77.8335 322.071 74.1666 344.567 73.2125 349.125C73.2085 349.138 73.2085 349.154 73.2041 349.167C72.4 352.696 71.4085 356.221 70.25 359.646C69.5125 361.975 68.275 365.846 64.9041 367.688C63.775 368.313 62.5166 368.621 61.2166 368.621Z" fill="black"/>
<path d="M101.108 179.046C99.8789 179.046 98.8039 178.137 98.6333 176.883C98.4458 175.517 99.4039 174.254 100.771 174.067C103.733 173.662 105.65 171.925 106.921 170.779L107.071 170.642C108.679 169.192 108.85 168.804 109.191 168.025C109.241 167.908 109.296 167.792 109.35 167.667C109.921 166.408 111.4 165.85 112.658 166.421C113.916 166.992 114.475 168.471 113.904 169.729L113.766 170.038C113.179 171.375 112.662 172.337 110.416 174.358L110.271 174.487C108.754 175.858 105.937 178.408 101.441 179.025C101.337 179.038 101.221 179.046 101.108 179.046Z" fill="black"/>
</g>
<path d="M156.425 115C156.066 112.667 153.837 111.137 151.745 110.046C149.654 108.954 147.316 107.833 146.354 105.675C144.554 101.646 148.67 96.7416 146.849 92.7209C146.037 90.925 144.166 89.8041 142.241 89.3584C140.316 88.9125 138.316 89.1041 136.349 89.2791L131.179 86.5791C127.716 81.05 120.158 79.2875 113.787 80.7125C107.416 82.1375 101.949 86.0875 96.6664 89.9291L80.1204 101.992C77.4289 103.954 73.6248 105.921 71.0539 103.8C67.2204 100.642 71.8873 93.4166 68.5998 89.7084C67.8123 88.825 66.6873 88.325 65.7873 87.5541C63.2873 85.3959 62.9748 81.6209 63.3248 78.325C64.6789 65.6041 73.0829 54.0584 84.3789 48.0541C95.6745 42.05 109.504 41.45 121.612 45.5541C128.562 47.9209 135.704 52.7959 136.57 60.0834L141.191 61.5875C146.866 56.5875 155.529 57.7041 162.816 59.675C168.045 61.0875 173.254 62.8334 177.816 65.7459C182.379 68.6584 186.291 72.8666 187.987 78.0125C189.033 81.1791 189.237 84.6791 191.058 87.4875C192.237 89.3125 193.995 90.6875 195.291 92.4291C199.012 97.4291 197.841 105.379 192.833 109.096C190.412 110.892 187.166 111.921 185.816 114.621C184.687 116.883 185.204 119.825 183.65 121.817C181.387 124.713 176.15 123.871 174.17 126.967C173.625 127.821 173.42 128.875 172.774 129.654C172.129 130.433 170.691 130.733 170.195 129.858L157.97 130.417L156.425 115Z" fill="black"/>
<path d="M78.6709 105.217C75.9834 112.129 74.3668 118.371 73.9584 122.15C72.9293 131.667 74.8499 142.242 82.1293 149.021C86.0084 152.629 90.8124 154.404 95.9499 155.308C101.308 156.254 107.058 157.117 112.258 154.992C111.983 159.329 111.942 162.008 112.142 166.35L141.458 163.333C140.983 157.629 142.1 152.912 144.583 147.754C145.146 146.588 146.354 146.6 147.55 146.221C148.612 145.888 149.654 145.504 150.683 145.071C152.771 144.204 154.746 143.083 156.558 141.737C160.15 139.025 162.95 135.217 164 130.8C164.954 126.796 164.283 122.029 159.833 119.775C156.696 118.192 153.883 118.754 149.104 122.954L156.462 115.038C156.104 112.704 153.875 111.175 151.783 110.083C149.692 108.992 147.354 107.871 146.392 105.712C144.592 101.683 148.708 96.7791 146.887 92.7581C146.075 90.9625 144.204 89.8416 142.279 89.3956C140.354 88.95 138.354 89.1416 136.387 89.3166L131.217 86.6166C127.754 81.0875 120.196 79.325 113.825 80.75C107.454 82.175 101.95 86.0875 96.6668 89.9291L80.1209 101.992" fill="white"/>
<path d="M73.6804 107.229C71.8385 107.229 70.4554 106.55 69.4635 105.729C66.451 103.246 66.8469 99.4791 67.1635 96.45C67.3844 94.3375 67.5929 92.3375 66.7304 91.3666C66.4844 91.0916 66.0469 90.8 65.5844 90.4916C65.1469 90.2 64.6469 89.8666 64.1635 89.4541C61.4469 87.1081 60.301 83.1706 60.8429 78.0625C62.2594 64.775 70.826 52.4291 83.2094 45.85C94.6844 39.75 109.339 38.7581 122.418 43.1916C131.989 46.45 138.205 52.6581 139.055 59.7916C139.218 61.1625 138.239 62.4081 136.868 62.5706C135.497 62.7331 134.255 61.7541 134.089 60.3831C133.176 52.7081 123.693 48.9081 120.805 47.925C109.009 43.9291 95.8304 44.8041 85.551 50.2666C74.6135 56.0791 67.051 66.9331 65.8094 78.5956C65.5594 80.9706 65.6304 84.125 67.4179 85.6666C67.6635 85.875 67.9969 86.1 68.3469 86.3331C69.0179 86.7791 69.7844 87.2875 70.4594 88.05C72.7885 90.675 72.4219 94.1706 72.1304 96.975C71.8635 99.5416 71.7635 101.154 72.6385 101.875C74.1179 103.096 77.6094 100.729 78.6429 99.975L95.1885 87.9125C100.389 84.1331 106.276 79.85 113.234 78.2916C121.801 76.375 128.805 78.6166 132.451 84.4375C133.184 85.6081 132.83 87.15 131.659 87.8831C130.489 88.6166 128.947 88.2625 128.214 87.0916C124.73 81.5291 117.339 82.4956 114.326 83.1706C108.38 84.5 103.168 88.2875 98.1304 91.9541L81.5885 104.017C78.3219 106.4 75.7179 107.229 73.6804 107.229Z" fill="black"/>
<path d="M171.213 132.908C171.092 132.908 170.975 132.904 170.859 132.892C169.642 132.783 168.613 132.133 168.03 131.108C167.35 129.908 167.771 128.383 168.971 127.7C169.659 127.308 170.459 127.283 171.138 127.558C171.188 127.442 171.242 127.317 171.296 127.196C171.496 126.725 171.721 126.187 172.071 125.642C173.596 123.258 176.192 122.5 178.275 121.892C179.721 121.471 181.088 121.071 181.688 120.3C182.159 119.7 182.317 118.683 182.505 117.504C182.7 116.271 182.917 114.871 183.588 113.525C184.855 110.992 187.15 109.658 189.175 108.479C189.967 108.021 190.713 107.583 191.355 107.108C193.213 105.729 194.496 103.467 194.875 100.9C195.255 98.3331 194.68 95.7956 193.3 93.9416C192.813 93.2875 192.213 92.6541 191.575 91.9875C190.68 91.0456 189.75 90.0706 188.971 88.8625C187.534 86.6456 186.975 84.2375 186.438 81.9081C186.184 80.8166 185.946 79.7875 185.625 78.8166C184.25 74.6456 181.005 70.7581 176.484 67.875C171.938 64.9706 166.7 63.3331 162.175 62.1081C153.492 59.7581 148.067 60.2706 144.038 63.825C143 64.7375 141.421 64.6375 140.509 63.6C139.596 62.5625 139.696 60.9831 140.734 60.0706C147.617 54.0081 156.505 55.3956 163.48 57.2791C168.367 58.6 174.055 60.3916 179.171 63.6581C184.659 67.1625 188.638 71.9875 190.371 77.25C190.763 78.4375 191.038 79.6291 191.305 80.7831C191.767 82.7791 192.205 84.6666 193.163 86.1456C193.692 86.9625 194.421 87.7291 195.192 88.5416C195.9 89.2875 196.638 90.0581 197.305 90.9581C199.471 93.8706 200.388 97.7581 199.817 101.629C199.246 105.5 197.246 108.963 194.33 111.125C193.467 111.767 192.563 112.292 191.688 112.8C190.063 113.746 188.655 114.567 188.059 115.758C187.734 116.408 187.592 117.317 187.438 118.279C187.184 119.904 186.892 121.75 185.625 123.375C184.03 125.417 181.717 126.092 179.675 126.688C178.13 127.137 176.796 127.529 176.284 128.333C176.163 128.525 176.034 128.825 175.9 129.146C175.638 129.771 175.309 130.546 174.709 131.271C173.863 132.287 172.521 132.908 171.213 132.908Z" fill="black"/>
<path d="M156.421 117.5C155.208 117.5 154.142 116.617 153.954 115.379C153.8 114.383 152.7 113.363 150.587 112.263L150.258 112.092C148.067 110.954 145.337 109.538 144.071 106.696C142.817 103.888 143.546 101.071 144.187 98.5831C144.687 96.6416 145.121 94.9666 144.575 93.7541C144.175 92.8666 143.062 92.1166 141.679 91.7956C140.183 91.45 138.492 91.6 136.7 91.7581L136.575 91.7706C135.196 91.8956 133.987 90.8791 133.862 89.5041C133.742 88.1291 134.754 86.9166 136.129 86.7916L136.254 86.7791C138.258 86.6 140.533 86.3956 142.804 86.925C145.762 87.6081 148.067 89.3456 149.125 91.6916C150.4 94.5081 149.671 97.3375 149.025 99.8331C148.546 101.692 148.092 103.446 148.633 104.658C149.192 105.904 150.904 106.796 152.558 107.654L152.896 107.829C155.208 109.033 158.342 111.05 158.887 114.621C159.096 115.988 158.162 117.263 156.796 117.471C156.675 117.492 156.55 117.5 156.421 117.5Z" fill="black"/>
<path d="M141.496 163.496C140.213 163.496 139.117 162.512 139.009 161.204C138.479 154.929 139.7 152.058 142.292 146.658C143.242 144.687 145.038 144.254 146.113 143.996C146.346 143.938 146.567 143.887 146.759 143.825C147.75 143.512 148.729 143.154 149.675 142.754C151.588 141.962 153.384 140.942 155.034 139.717C158.359 137.204 160.675 133.825 161.534 130.208C161.975 128.387 162.575 123.962 158.671 121.992C156.967 121.129 155.296 120.792 150.717 124.817C149.679 125.729 148.1 125.625 147.188 124.587C146.275 123.55 146.379 121.971 147.417 121.058C153.992 115.279 157.792 115.946 160.921 117.525C165.771 119.975 167.867 125.279 166.392 131.371C165.267 136.104 162.296 140.492 158.029 143.712C156.038 145.192 153.879 146.417 151.604 147.358C150.525 147.812 149.396 148.229 148.259 148.583C147.913 148.692 147.579 148.775 147.288 148.846C147.104 148.892 146.867 148.946 146.713 148.996C144.317 153.996 143.575 155.875 143.992 160.775C144.109 162.15 143.088 163.358 141.713 163.475C141.638 163.492 141.567 163.496 141.496 163.496Z" fill="black"/>
<path d="M112.142 167.183C110.813 167.183 109.708 166.138 109.646 164.796C109.513 161.863 109.483 160.388 109.567 158.375C104.558 159.342 99.4582 158.454 95.5251 157.767C89.1707 156.646 84.2332 154.383 80.4292 150.846C73.4376 144.333 70.1751 133.775 71.4751 121.871C71.9626 117.458 73.7791 110.892 76.3416 104.304C76.8416 103.017 78.2917 102.379 79.5792 102.879C80.8667 103.379 81.5042 104.829 81.0042 106.117C78.1626 113.425 76.7876 119.329 76.4457 122.417C75.3167 132.729 78.0082 141.758 83.8376 147.183C86.9542 150.083 90.9417 151.879 96.3876 152.838C101.954 153.808 106.925 154.462 111.317 152.667C112.113 152.342 113.021 152.45 113.721 152.95C114.421 153.454 114.813 154.279 114.758 155.138C114.492 159.329 114.446 160.254 114.646 164.554C114.708 165.933 113.642 167.104 112.263 167.167C112.217 167.183 112.179 167.183 112.142 167.183Z" fill="black"/>
<path d="M91.0123 116.708C92.6232 116.708 93.9288 115.123 93.9288 113.167C93.9288 111.211 92.6232 109.625 91.0123 109.625C89.4013 109.625 88.0957 111.211 88.0957 113.167C88.0957 115.123 89.4013 116.708 91.0123 116.708Z" fill="black"/>
<path d="M105.179 117.688C106.79 117.688 108.096 116.102 108.096 114.146C108.096 112.19 106.79 110.604 105.179 110.604C103.569 110.604 102.263 112.19 102.263 114.146C102.263 116.102 103.569 117.688 105.179 117.688Z" fill="black"/>
<mask id="mask0_846_12809" style="mask-type:luminance" maskUnits="userSpaceOnUse" x="0" y="0" width="250" height="248">
<path d="M250 0.120575H0V247.034H250V0.120575Z" fill="white"/>
</mask>
<g mask="url(#mask0_846_12809)">
<mask id="mask1_846_12809" style="mask-type:luminance" maskUnits="userSpaceOnUse" x="68" y="0" width="109" height="82">
<path d="M176.469 0.120575H68.75V81.5095H176.469V0.120575Z" fill="white"/>
</mask>
<g mask="url(#mask1_846_12809)">
<path d="M131.187 76.8225C131.937 64.2608 130.187 51.6373 131.219 39.1065C132.25 26.5757 136.656 13.4584 146.844 5.9275C151.344 2.62505 157.531 0.588009 162.562 3.02628C165.094 4.26083 166.969 6.45219 168.531 8.767C177.312 22.0386 175.812 39.9089 169.031 54.2608C164.406 64.0448 157.531 72.7793 149.062 79.6312" fill="white"/>
<path d="M149.057 81.5127C148.526 81.5127 147.963 81.2657 147.619 80.8336C146.963 80.0312 147.088 78.8892 147.869 78.2411C156.088 71.5744 162.838 63.025 167.338 53.5188C173.088 41.3275 176.026 23.4571 166.995 9.8151C165.276 7.2225 163.62 5.61757 161.776 4.7225C157.307 2.53115 151.745 4.69164 148.026 7.43855C136.682 15.8028 133.838 30.988 133.151 39.2596C132.62 45.7719 132.838 52.4695 133.057 58.9509C133.245 64.846 133.463 70.9262 133.12 76.9448C133.057 77.9633 132.182 78.7349 131.151 78.6732C130.119 78.6114 129.338 77.7472 129.401 76.7287C129.745 70.8954 129.526 64.8769 129.338 59.0744C129.119 52.5003 128.87 45.6793 129.432 38.9818C130.713 23.5805 136.526 11.3274 145.807 4.47559C150.401 1.08053 157.463 -1.51206 163.463 1.42004C165.932 2.62374 168.057 4.66078 170.151 7.80892C180.026 22.7163 176.963 42.0065 170.776 55.0929C166.026 65.1238 158.963 74.1053 150.307 81.1114C149.963 81.3892 149.526 81.5435 149.119 81.5435L149.057 81.5127Z" fill="black"/>
<path d="M95.2745 77.4988C93.1807 74.4741 91.0245 70.9247 89.6807 67.4988L89.462 67.6531C85.6807 69.9062 80.9307 70.6161 77.212 68.4247C74.337 66.7272 72.5557 63.6099 71.8995 60.4C71.2432 57.1901 70.1182 53.2086 70.712 49.9679C72.4307 40.7704 76.7745 25.2764 93.712 20.2764C97.1807 19.2579 100.931 18.6406 104.337 19.8135C107.524 20.8937 110.056 23.3937 111.743 26.2641C115.649 32.7765 115.681 40.8321 114.993 48.363C114.462 54.1654 113.587 59.937 112.368 65.6469C112.056 67.0975 110.681 70.5852 110.931 70.863" fill="white"/>
<path d="M101.627 40.859C102.627 42.9269 103.971 55.859 104.065 58.1429C104.159 60.6429 103.502 64.7787 101.721 66.538C97.9399 70.2417 96.2211 64.933 95.2836 63.5442C94.9399 63.0195 92.7211 53.1429 96.0961 45.6429C96.5336 44.6553 101.096 39.7479 101.659 40.859H101.627Z" fill="#FF9999"/>
<path d="M99.2525 69.6849C99.0337 69.6849 98.8462 69.6849 98.6275 69.6231C96.19 69.2528 94.8775 66.7528 94.0962 65.2713C93.94 64.9935 93.815 64.7157 93.69 64.5614C92.9087 63.4194 90.7837 52.8022 94.3462 44.9009C94.7525 43.975 98.9087 38.8824 101.284 38.8515C102.19 38.8515 102.909 39.3145 103.284 40.0552C104.565 42.6478 105.846 56.475 105.909 58.1108C105.971 60.4256 105.471 65.4565 103.002 67.8639C101.752 69.0676 100.502 69.6849 99.2212 69.6849H99.2525ZM100.44 43.512C99.3775 44.4997 98.065 45.9503 97.7837 46.4441C94.8462 53.0182 96.69 61.9688 97.0025 62.7713C97.0337 62.7713 97.2525 63.1417 97.4712 63.5738C97.7837 64.1293 98.69 65.8886 99.2525 65.9503C99.315 65.9503 99.7525 65.8577 100.409 65.2096C101.627 64.0367 102.284 60.6417 102.221 58.2034C102.159 56.0429 101.221 47.4627 100.471 43.512H100.44Z" fill="black"/>
<path d="M103.934 40.3991C102.684 43.8867 101.434 47.3744 100.216 50.862C98.3719 56.0472 96.4032 61.4485 92.4657 65.3682C88.5282 69.288 82.0594 71.2633 77.2469 68.4546C76.1844 67.8065 75.1532 66.5411 74.3094 65.183C72.7469 62.683 71.7469 59.9361 71.2157 57.0349C70.8094 54.7201 70.4032 51.7571 70.7469 49.9978C71.2782 44.5966 74.9032 25.5226 93.7469 20.3065C97.2157 19.288 100.966 18.6707 104.372 19.8436C107.559 20.9238 110.091 23.4238 111.778 26.2942C115.684 32.8065 115.716 40.862 115.028 48.3929C114.497 54.1954 113.622 59.967 112.403 65.6769C112.091 67.1275 110.716 70.6151 110.966 70.8929" fill="white"/>
<path d="M110.999 72.6809C110.499 72.6809 109.999 72.4957 109.624 72.0944C108.718 71.1376 109.03 70.15 109.905 67.4648C110.186 66.6315 110.468 65.7673 110.593 65.2426C111.78 59.6253 112.655 53.8846 113.186 48.1747C113.811 41.292 113.936 33.4216 110.186 27.1871C108.499 24.3785 106.218 22.3723 103.78 21.539C101.28 20.7056 98.2801 20.86 94.2801 22.0328C75.7801 27.1563 72.9676 46.3537 72.5926 50.15C72.4364 50.9833 72.3426 52.7426 73.0614 56.6932C73.5614 59.4401 74.4989 61.971 75.9051 64.1932C77.0301 65.9833 77.8114 66.6315 78.2176 66.8475C82.3426 69.2858 87.9676 67.2179 91.1239 64.0697C94.8426 60.366 96.7489 54.9957 98.4364 50.2735L102.155 39.8105C102.499 38.8537 103.561 38.329 104.561 38.6685C105.53 39.008 106.061 40.0574 105.718 41.0451L101.999 51.508C100.186 56.6006 98.1239 62.4031 93.8114 66.6932C89.5301 70.9525 82.1239 73.4833 76.3114 70.0574C75.0926 69.3475 73.9364 68.0512 72.7489 66.1376C71.1239 63.5142 69.9989 60.5821 69.4051 57.3722C68.7489 53.8846 68.5926 51.292 68.9051 49.6253C69.3114 45.5821 72.4051 24.255 93.2489 18.4834C97.9676 17.0637 101.718 16.9402 104.999 18.0513C108.311 19.1624 111.28 21.755 113.436 25.3044C117.718 32.4648 117.624 41.0451 116.936 48.5142C116.405 54.3784 115.53 60.2734 114.28 66.0142C114.155 66.6315 113.811 67.65 113.499 68.6068C113.28 69.2549 112.968 70.2117 112.874 70.6438C112.936 71.1994 112.749 71.7549 112.28 72.187C111.905 72.5265 111.468 72.6809 110.999 72.6809Z" fill="black"/>
<path d="M89.6973 67.4972C91.041 70.9231 93.166 74.4725 95.291 77.4972L89.6973 67.4972Z" fill="white"/>
<path d="M95.286 79.3503C94.6922 79.3503 94.0985 79.0725 93.7235 78.5478C91.0672 74.7515 89.1297 71.233 87.9422 68.1466C87.5672 67.1898 88.0672 66.1096 89.036 65.7701C90.0047 65.3997 91.0985 65.8935 91.4422 66.8503C92.536 69.659 94.3485 72.8997 96.8172 76.4799C97.411 77.3133 97.1922 78.4861 96.3172 79.0417C96.0047 79.2577 95.6297 79.3503 95.2547 79.3503H95.286Z" fill="black"/>
<path d="M143.22 72.1617C137.564 70.7728 138.939 43.6432 143.001 29.0135C144.564 23.3653 150.095 11.2666 157.314 13.3036C164.157 15.2172 165.157 26.6987 163.689 34.384C160.564 50.5877 150.72 74.0136 143.22 72.1617Z" fill="#FF9999"/>
<path d="M144.091 74.1034C143.654 74.1034 143.216 74.0417 142.779 73.9491C141.622 73.6713 140.654 72.8688 139.904 71.6034C135.747 64.5664 137.841 40.6158 141.216 28.517C142.497 23.9491 146.122 15.3997 151.591 12.3442C153.622 11.2022 155.747 10.9244 157.841 11.5108C166.279 13.8565 167.029 27.0047 165.529 34.7207C163.029 47.6219 155.466 68.054 147.747 72.9306C146.497 73.7022 145.279 74.1034 144.091 74.1034ZM155.716 14.9059C154.966 14.9059 154.216 15.122 153.435 15.5541C149.372 17.8071 145.997 25.3071 144.81 29.5047C140.997 43.1775 140.091 64.6281 143.122 69.7516C143.404 70.2145 143.622 70.3688 143.654 70.3688C144.216 70.5232 144.904 70.338 145.685 69.8133C151.685 66.017 159.122 47.8071 161.81 34.0108C163.122 27.2825 162.404 16.6343 156.779 15.0294C156.404 14.9368 156.029 14.875 155.685 14.875L155.716 14.9059Z" fill="black"/>
</g>
</g>
</g>
<defs>
<clipPath id="clip0_846_12809">
<rect width="250" height="600" fill="white"/>
</clipPath>
<clipPath id="clip1_846_12809">
<rect width="250" height="250" fill="white" transform="translate(0 159.375)"/>
</clipPath>
</defs>
</svg>
