<svg width="250" height="600" viewBox="0 0 250 600" fill="none" xmlns="http://www.w3.org/2000/svg">
<g clip-path="url(#clip0_846_12263)">
<path d="M159.962 548.282C157.433 554.031 152.754 558.553 146.925 560.881C141.1 563.209 134.596 563.159 128.808 560.735L128.462 560.593C125.996 567.685 122.321 574.381 120.766 581.725C120.525 582.847 120.35 584.078 120.887 585.094C121.658 586.55 123.516 586.959 125.146 587.181C130.791 588.016 136.654 588.703 142.121 587.069C151.25 584.356 157.5 575.487 159.883 566.246C161.629 559.504 161.708 552.508 161.416 545.516L159.962 548.282Z" fill="black"/>
<path d="M114.417 545.887C110.85 549.442 106.505 552.116 101.73 553.701C96.9547 555.287 91.8754 555.741 86.8922 555.024C85.3338 554.853 83.8254 554.373 82.4588 553.605C81.1297 552.771 80.0547 551.432 79.8963 549.876V548.357C74.2797 553.113 68.6213 557.777 66.7129 564.669C66.3338 566.046 66.1379 567.564 66.7379 568.841C67.8754 571.282 71.1004 571.699 73.7879 571.761C80.8463 571.983 88.0047 572.178 94.8672 570.535C101.73 568.891 108.388 565.086 111.95 558.983C114.784 554.139 115.425 548.357 115.959 542.771L114.417 545.887Z" fill="black"/>
<path d="M89.167 390.919C90.0004 412.237 92.1964 474.544 93.3629 505.783L95.0589 506.359C98.8089 507.11 102.779 507.973 107.142 507.902C111.209 507.836 115.379 506.822 118.588 504.319L118.8 503.768C120.413 475.016 121.942 441.006 123.609 418.349C123.954 413.643 124.025 395.917 124.4 392.337" fill="white"/>
<path d="M123.966 391.87C125.27 414.782 127.916 471.34 129.166 508.724L132.195 511.707C134.178 513.309 136.47 514.482 138.928 515.145C141.387 515.808 143.957 515.954 146.474 515.57C148.991 515.187 151.403 514.277 153.553 512.909C155.703 511.54 157.541 509.738 158.957 507.615L160.187 505.416C159.582 467.127 159.87 412.141 160.416 389.309" fill="white"/>
<path d="M128.963 560.71C134.75 563.13 141.254 563.184 147.079 560.856C152.904 558.528 157.584 554.006 160.117 548.257L161.575 545.717C161.467 543.047 161.304 540.376 161.159 537.723C160.742 529.909 160.413 518.533 160.209 505.416L158.979 507.615C157.567 509.738 155.725 511.54 153.575 512.909C151.425 514.277 149.017 515.183 146.5 515.57C143.984 515.954 141.413 515.813 138.954 515.145C136.496 514.482 134.2 513.309 132.221 511.707L129.171 508.724C129.538 519.571 129.792 528.975 129.863 535.646C129.934 542.4 131.625 549.233 130.029 555.796C129.638 557.41 129.15 558.996 128.604 560.564L128.963 560.71Z" fill="black"/>
<path d="M80.0455 549.851C80.2039 551.407 81.2955 552.771 82.6121 553.58C83.9789 554.348 85.483 554.828 87.0414 554.999C92.0246 555.716 97.108 555.266 101.887 553.68C106.666 552.095 111.012 549.417 114.583 545.862L116.125 542.775C117.062 532.955 117.946 519.108 118.804 503.768L118.591 504.319C115.383 506.822 111.212 507.836 107.146 507.902C103.079 507.969 99.0539 507.16 95.0621 506.359L93.3664 505.783C93.533 510.318 93.683 514.24 93.808 517.335C94.0371 523.176 94.2246 529.275 91.9164 534.657C89.4914 540.301 84.6664 544.427 79.833 548.511L80.0455 549.851Z" fill="black"/>
<path d="M83.7139 288.946C75.3308 321.445 68.1889 354.232 62.293 387.31C103.685 395.475 146.335 394.732 187.414 385.133C181.36 353.155 175.318 321.178 169.285 289.2" fill="black"/>
<path d="M134.8 590.531C131.48 590.531 128.155 590.106 124.938 589.628C123.567 589.441 120.292 589 118.834 586.238C117.809 584.319 118.259 582.2 118.475 581.178C119.517 576.275 121.442 571.678 123.3 567.231C125.009 563.142 126.625 559.284 127.617 555.208C128.588 551.219 128.213 547.026 127.813 542.592C127.613 540.339 127.4 538.011 127.38 535.675C127.067 505.85 123.046 421.499 121.475 393.593C121.396 392.212 122.45 391.032 123.83 390.953C125.209 390.873 126.388 391.929 126.467 393.309C128.042 421.253 132.063 505.721 132.38 535.621C132.4 537.757 132.592 539.889 132.796 542.141C133.213 546.789 133.642 551.595 132.475 556.388C131.392 560.848 129.625 565.074 127.913 569.163C126.059 573.593 124.309 577.777 123.367 582.216C123.13 583.334 123.175 583.738 123.25 583.884C123.334 584.044 123.721 584.409 125.642 584.669C131.234 585.494 136.634 586.109 141.567 584.634C150.45 581.978 155.684 573.046 157.621 565.57C159.792 557.198 159.263 548.124 158.755 539.354L158.667 537.844C156.992 507.823 157.18 422.354 157.913 391.024C157.946 389.643 159.1 388.537 160.471 388.579C161.85 388.612 162.946 389.759 162.913 391.14C162.184 422.409 161.992 507.661 163.659 537.56L163.746 539.062C164.28 548.224 164.83 557.694 162.463 566.83C160.184 575.625 153.871 586.178 143 589.434C140.309 590.234 137.555 590.531 134.8 590.531Z" fill="black"/>
<path d="M119.825 395.429C100.375 395.429 80.8831 393.527 61.8081 389.767C60.4706 389.505 59.5912 388.216 59.8287 386.872C65.7081 353.885 72.9287 320.731 81.2912 288.32C81.6372 286.981 82.9997 286.176 84.3372 286.522C85.6747 286.868 86.4788 288.232 86.1331 289.572C78.0081 321.061 70.9663 353.264 65.1872 385.32C84.8456 389.025 104.933 390.727 124.925 390.381C144.941 390.035 164.975 387.627 184.508 383.234C178.683 352.45 172.733 320.986 166.829 289.668C166.571 288.308 167.466 287.002 168.821 286.743C170.179 286.484 171.483 287.381 171.741 288.737C177.8 320.857 183.9 353.13 189.871 384.669C190.121 385.988 189.287 387.269 187.983 387.573C167.366 392.392 146.183 395.02 125.012 395.387C123.283 395.416 121.554 395.429 119.825 395.429Z" fill="black"/>
<path d="M143.713 518.286C141.892 518.286 140.079 518.044 138.296 517.565C135.483 516.805 132.913 515.491 130.642 513.66C129.567 512.792 129.4 511.215 130.267 510.139C131.133 509.062 132.708 508.895 133.783 509.763C135.508 511.157 137.463 512.154 139.6 512.733C141.738 513.309 143.929 513.434 146.117 513.101C148.304 512.767 150.363 511.995 152.229 510.802C154.096 509.613 155.667 508.073 156.896 506.23C157.663 505.078 159.217 504.769 160.363 505.537C161.513 506.305 161.821 507.861 161.054 509.008C159.438 511.432 157.371 513.459 154.913 515.024C152.454 516.588 149.75 517.606 146.871 518.048C145.817 518.203 144.763 518.286 143.713 518.286Z" fill="black"/>
<path d="M106.657 510.393C102.511 510.393 98.4821 509.584 94.5821 508.803C93.2278 508.532 92.3403 507.21 92.6112 505.854C92.8821 504.498 94.1903 503.614 95.5403 503.889L95.5653 503.893C99.5446 504.69 103.307 505.445 107.09 505.382C109.903 505.337 113.911 504.769 117.04 502.329C118.128 501.478 119.699 501.674 120.549 502.763C121.399 503.851 121.203 505.424 120.115 506.275C115.895 509.567 110.749 510.33 107.174 510.389C107.003 510.393 106.828 510.393 106.657 510.393Z" fill="black"/>
<path d="M138.197 565.078C134.739 565.078 131.28 564.39 128.001 563.017C126.726 562.483 126.126 561.019 126.66 559.742C127.193 558.466 128.655 557.865 129.93 558.399C135.143 560.581 140.905 560.627 146.155 558.528C151.405 556.43 155.551 552.425 157.83 547.248C158.389 545.984 159.864 545.412 161.126 545.967C162.389 546.526 162.964 548.003 162.405 549.267C159.593 555.65 154.48 560.594 148.01 563.18C144.839 564.448 141.518 565.078 138.197 565.078Z" fill="black"/>
<path d="M81.0864 574.406C78.6614 574.406 76.253 574.331 73.8699 574.26C71.8699 574.193 66.5699 574.022 64.6364 569.875C63.8739 568.253 63.8199 566.321 64.4655 563.976C66.5364 556.496 72.3905 551.54 78.0489 546.747C82.853 542.679 87.3949 538.837 89.6155 533.664C91.7489 528.691 91.5114 522.708 91.3074 517.431C90.7949 504.707 89.828 477.919 88.8949 452.012C88.0155 427.615 87.1864 404.573 86.7239 392.88C86.6699 391.499 87.7449 390.335 89.1239 390.28C90.4905 390.239 91.6655 391.303 91.7199 392.683C92.1824 404.385 93.0155 427.431 93.8949 451.832C94.828 477.731 95.7949 504.515 96.303 517.235C96.5324 523.046 96.7905 529.63 94.2114 535.645C91.5239 541.899 86.3155 546.309 81.278 550.572C75.9614 555.074 70.9405 559.321 69.2824 565.311C68.8949 566.713 69.003 567.414 69.1614 567.752C69.5905 568.674 71.1824 569.162 74.0239 569.254C80.8114 569.462 87.8324 569.68 94.4364 568.073C101.436 566.371 107.09 562.587 109.953 557.69C112.42 553.467 113.078 548.315 113.628 542.504C115.132 526.692 116.524 499.971 117.87 474.131C119.236 447.906 120.649 420.789 122.165 405.595C122.303 404.219 123.524 403.222 124.903 403.355C126.278 403.493 127.278 404.719 127.14 406.096C125.636 421.169 124.228 448.228 122.861 474.394C121.511 500.289 120.115 527.064 118.603 542.98C117.995 549.387 117.249 555.111 114.27 560.218C110.674 566.371 104.049 570.889 95.6199 572.938C90.7905 574.114 85.9114 574.406 81.0864 574.406Z" fill="black"/>
<path d="M91.6388 557.832C89.9972 557.832 88.3513 557.715 86.7263 557.485C84.8428 557.273 83.0472 556.697 81.3888 555.767C81.3597 555.75 81.3303 555.733 81.3013 555.716C79.1803 554.415 77.7803 552.316 77.5553 550.105C77.4138 548.729 78.4138 547.502 79.7888 547.36C81.1597 547.218 82.3888 548.219 82.5303 549.596C82.5972 550.23 83.1222 550.944 83.8763 551.424C84.9428 552.012 86.0972 552.379 87.3097 552.513C87.3388 552.517 87.3678 552.521 87.3928 552.525C91.9722 553.184 96.7097 552.763 101.097 551.307C105.485 549.851 109.539 547.356 112.814 544.094C113.793 543.117 115.376 543.122 116.351 544.102C117.326 545.082 117.322 546.668 116.343 547.644C112.518 551.453 107.789 554.365 102.672 556.063C99.1263 557.231 95.3803 557.832 91.6388 557.832Z" fill="black"/>
<g clip-path="url(#clip1_846_12263)">
<path d="M141.405 159.375C141.78 163.583 143.5 173.092 149.905 171.667L150.592 172.708C150.28 179.238 146.971 183.842 141.788 188.612C136.521 193.383 129.805 196.25 122.717 196.754C116.467 197.213 109.821 195.717 105.146 191.525C100.471 187.333 98.013 181.525 101.109 176.546H101.559C102.967 176.587 104.263 175.85 105.455 175.1C106.971 174.142 110.1 170.212 111.038 169.083C112.288 167.462 112.796 161.317 113.438 159.375H141.405Z" fill="white"/>
<path d="M61.4225 363.396C59.3806 363.33 57.4015 362.692 55.7015 361.559C54.0015 360.425 52.6556 358.842 51.81 356.984C52.2265 350.317 53.4765 342.4 48.06 336.984C47.2265 333.65 49.7265 331.15 52.6431 330.063L64.3431 331.58L61.4225 363.396Z" fill="white"/>
<path d="M64.3456 331.579C60.6415 331.554 56.958 330.992 53.4121 329.912C53.6621 326.808 53.9331 323.621 55.2706 320.808L65.5746 321.958L64.3456 331.579Z" fill="white"/>
<path d="M161.067 329.683C160.409 332.871 160.192 336.129 160.417 339.375C160.409 339.562 160.434 339.75 160.5 339.925C160.567 340.1 160.667 340.262 160.796 340.4C161.059 340.558 161.367 340.629 161.671 340.596L190.005 340.516C190.434 340.55 190.863 340.471 191.255 340.291C192.055 339.837 192.117 338.729 192.088 337.791L191.788 330.112L161.067 329.683Z" fill="white"/>
<path d="M65.8613 321.504C61.8072 320.734 58.0572 320.734 53.8906 319.9C56.8072 290.734 59.3072 262.817 65.5572 233.234C68.8906 218.234 71.8072 204.484 79.7237 191.15C79.7237 191.15 82.7238 186.858 83.8906 185.546L85.9988 182.063C85.4406 180.434 86.1156 178.563 87.3363 177.35C88.5572 176.138 90.2531 175.496 91.9197 175.138C92.6947 174.971 93.5531 174.821 94.0488 174.204C94.3406 173.775 94.5197 173.275 94.5738 172.759C95.1822 169.367 96.0781 165.258 99.3572 164.208C102.032 163.35 104.916 165.196 106.441 167.563C107.966 169.929 108.524 172.759 109.599 175.354C110.674 177.95 112.516 180.529 115.261 181.146L120.186 182.688C129.286 180.188 136.261 173.125 143.636 167.238C145.595 165.679 147.653 164.159 150.041 163.409C152.428 162.659 155.224 162.788 157.203 164.321C159.182 165.854 159.936 168.988 158.42 170.988C159.557 170.342 160.845 170.009 162.153 170.021C163.461 170.034 164.741 170.388 165.866 171.054C166.991 171.721 167.92 172.671 168.561 173.809C169.203 174.946 169.532 176.238 169.516 177.542L170.349 185.542C176.799 195.329 181.382 206.163 184.882 217.454L186.207 221.459C193.328 252.113 194.607 283.729 195.078 315.254L195.495 315.934C198.061 325.325 207.645 349.075 209.728 359.075C209.795 359.929 209.653 360.788 209.311 361.575C205.145 366.575 198.061 365.325 192.582 367.025L173.22 370.879C145.507 375.85 117.695 377.067 89.9322 372.384L84.6947 371.771L66.7781 368.342C65.1613 368.034 63.3863 367.621 62.4406 366.259C61.6572 365.142 61.6613 363.671 61.7197 362.309C61.9572 356.892 62.5822 351.517 63.2072 346.138L66.0612 321.529L65.8613 321.504Z" fill="white"/>
<path d="M164.468 341.042C160.451 342.337 155.756 347.162 159.151 351.612C161.018 354.066 163.839 355.387 166.426 356.929C168.418 358.112 168.947 362.112 169.718 364.229C171.668 369.566 175.456 373.958 181.668 373.542C187.985 373.125 191.914 367.746 193.114 361.946C194.414 355.654 192.197 347.396 191.151 341.175L164.468 341.042Z" fill="white"/>
<path d="M128.783 197.683C128.871 199.008 129.971 200.021 131.275 200.021C131.333 200.021 131.388 200.021 131.438 200.008C142.583 199.279 153.496 195.787 163 189.921C164.963 188.711 166.608 187.447 167.933 186.13C168 186.397 168.112 186.657 168.271 186.9C174.037 195.65 178.692 205.883 182.504 218.179C182.838 219.254 183.825 219.942 184.892 219.942C185.138 219.942 185.388 219.904 185.629 219.829C186.95 219.421 187.688 218.021 187.279 216.7C183.325 203.946 178.475 193.3 172.446 184.15C171.976 183.435 171.202 183.041 170.407 183.026C171.448 181.285 171.984 179.47 172.008 177.587C172.029 175.842 171.587 174.117 170.733 172.596C169.879 171.075 168.633 169.8 167.129 168.912C165.629 168.025 163.912 167.55 162.167 167.533C162 167.533 161.837 167.533 161.671 167.542C161.429 165.583 160.417 163.667 158.725 162.358C156.262 160.45 152.729 159.954 149.283 161.037C146.446 161.929 144.075 163.7 142.071 165.296C139.873 167.049 138.032 168.77 136.253 170.435L136.183 170.5C131.969 174.444 128.64 177.559 122.787 179.167C121.454 179.533 120.671 180.908 121.037 182.242C121.404 183.575 122.783 184.358 124.112 183.992C131.158 182.058 135.262 178.217 139.604 174.15L139.672 174.087C141.38 172.49 143.148 170.837 145.187 169.208C146.912 167.837 148.763 166.442 150.783 165.808C152.642 165.225 154.512 165.417 155.667 166.312C156.654 167.079 157.033 168.683 156.421 169.492C155.704 170.437 155.75 171.758 156.533 172.65C157.317 173.542 158.617 173.762 159.65 173.179C160.392 172.758 161.233 172.537 162.083 172.537H162.125C162.992 172.542 163.846 172.779 164.592 173.221C165.337 173.662 165.954 174.292 166.379 175.05C166.804 175.808 167.025 176.662 167.012 177.529C166.979 180.242 164.746 182.979 160.379 185.671C151.567 191.112 141.446 194.346 131.113 195.025C129.738 195.117 128.692 196.304 128.783 197.683Z" fill="black"/>
<path fill-rule="evenodd" clip-rule="evenodd" d="M81.4764 373.675C81.3224 373.675 81.1639 373.658 81.0058 373.629L66.3224 370.817C64.6808 370.487 61.9764 369.941 60.4099 367.716C59.9583 367.073 59.6699 366.394 59.4892 365.706C57.6471 365.386 55.8861 364.686 54.3183 363.637C52.2308 362.246 50.5764 360.304 49.5389 358.021C49.3683 357.646 49.2933 357.237 49.3183 356.829C49.3577 356.174 49.4083 355.504 49.4595 354.826L49.4683 354.712C49.9014 348.858 50.3474 342.804 46.2974 338.75C45.9764 338.429 45.7514 338.029 45.6389 337.587C44.6549 333.651 46.8236 329.879 51.068 328.005C51.257 325.974 51.543 323.83 52.2199 321.746C51.6539 321.229 51.3361 320.462 51.418 319.65C51.5992 317.844 51.778 316.041 51.9558 314.242L52.0836 312.951C54.7795 285.806 57.3264 260.161 63.1264 232.712L63.3974 231.491C66.6264 216.937 69.6805 203.191 77.5889 189.867C77.6224 189.812 77.6555 189.762 77.6889 189.712L77.7345 189.647C78.2133 188.966 80.8558 185.207 82.0389 183.879C82.483 183.378 83.0836 183.099 83.7017 183.048C83.6802 182.991 83.6592 182.933 83.6389 182.875C82.8014 180.437 83.5639 177.575 85.5808 175.575C86.9933 174.175 88.8933 173.233 91.4014 172.692L91.5474 172.658C91.7099 172.625 91.9264 172.579 92.0889 172.533C92.0889 172.527 92.0911 172.517 92.0911 172.517C92.0911 172.517 92.0933 172.506 92.0933 172.5C92.1014 172.433 92.1099 172.371 92.1224 172.308L92.1245 172.297C92.733 168.958 93.7486 163.386 98.6014 161.825C101.493 160.9 105.839 161.887 108.568 166.229C108.863 166.698 109.125 167.174 109.362 167.655C109.855 166.581 111.061 165.976 112.247 166.279C113.585 166.617 114.397 167.979 114.055 169.317C113.679 170.813 113.076 171.814 111.514 173.343C111.644 173.7 111.777 174.049 111.918 174.392C112.506 175.804 113.793 178.246 115.818 178.704C117.164 179.008 118.01 180.346 117.71 181.692C117.406 183.037 116.068 183.883 114.722 183.583C111.589 182.879 108.951 180.296 107.297 176.312C106.889 175.329 106.551 174.342 106.231 173.383L106.215 173.337C105.663 171.713 105.14 170.175 104.331 168.892C103.393 167.4 101.564 166.129 100.126 166.587C98.3014 167.175 97.5808 170.254 97.0558 173.121C96.9474 174.008 96.6264 174.862 96.1264 175.604C96.0889 175.658 96.0474 175.712 96.0058 175.767C94.9839 177.037 93.5524 177.344 92.5983 177.548L92.5889 177.55L92.4558 177.579C90.9349 177.908 89.8099 178.425 89.1058 179.121C88.4849 179.737 88.1683 180.654 88.3724 181.25C88.5639 181.808 89.1974 182.408 89.7889 182.917C95.1558 187.617 101.685 190.762 108.685 192.021C110.043 192.266 110.947 193.566 110.701 194.925C110.476 196.133 109.422 196.983 108.239 196.983C108.093 196.983 107.943 196.971 107.793 196.941C99.9017 195.521 92.5389 191.975 86.5058 186.692C86.4161 186.614 86.3258 186.535 86.2349 186.454C86.1295 186.723 85.9755 186.977 85.7724 187.204C84.9139 188.167 82.693 191.283 81.8389 192.5C74.3724 205.112 71.4099 218.45 68.2764 232.575L68.0099 233.771C62.2655 260.955 59.732 286.495 57.0495 313.536L57.0474 313.558C56.9055 314.975 56.7639 316.396 56.6224 317.821C57.868 317.996 59.1014 318.125 60.3805 318.254L60.448 318.261C61.5724 318.376 62.7186 318.493 63.8914 318.651L65.7992 302.203C69.228 272.854 72.7736 242.505 79.6724 213.225C79.9889 211.883 81.3349 211.046 82.6808 211.366C84.0224 211.683 84.8558 213.029 84.5389 214.375C77.7049 243.385 74.1761 273.596 70.763 302.815L65.6989 346.476C65.0914 351.715 64.4636 357.128 64.2264 362.446C64.1974 363.108 64.1433 364.35 64.4974 364.85C64.9139 365.442 66.3974 365.742 67.2808 365.917L81.9389 368.721C83.2933 368.979 84.1849 370.292 83.9224 371.646C83.7014 372.842 82.6558 373.675 81.4764 373.675ZM50.4099 335.821C50.3345 333.917 52.4702 332.839 53.303 332.491C56.1783 333.317 59.1292 333.827 62.1105 334.009L60.7174 346.021C60.1692 350.759 59.6042 355.64 59.3211 360.533C58.5364 360.293 57.7874 359.939 57.0974 359.479C55.9514 358.712 55.0099 357.683 54.3558 356.475C54.3742 356.181 54.3961 355.887 54.418 355.591C54.4308 355.422 54.4436 355.25 54.4558 355.079L54.4561 355.072C54.9061 348.974 55.462 341.435 50.4099 335.821ZM63.3152 323.62L62.6874 329.034C60.4611 328.915 58.2505 328.588 56.0849 328.058C56.262 326.28 56.5283 324.521 57.1002 322.927C58.0421 323.043 58.9646 323.137 59.8724 323.229L60.0645 323.249C61.1702 323.363 62.243 323.474 63.3152 323.62Z" fill="black"/>
<path fill-rule="evenodd" clip-rule="evenodd" d="M89.5177 374.842C101.318 376.834 113.368 377.83 125.822 377.83C140.911 377.83 156.592 376.363 173.101 373.433C175.341 375.157 177.977 376.067 180.881 376.067C181.193 376.067 181.514 376.059 181.835 376.034C186.252 375.744 190.093 373.343 192.666 369.516C192.885 369.508 193.105 369.471 193.326 369.409C194.88 368.925 196.664 368.7 198.547 368.467C202.876 367.93 207.78 367.317 211.235 363.171C211.389 362.988 211.514 362.784 211.61 362.563C212.105 361.409 212.318 360.134 212.222 358.88C212.214 358.771 212.197 358.667 212.176 358.563C210.935 352.606 207.281 342.391 203.749 332.514L203.747 332.509C201.285 325.634 198.964 319.138 197.905 315.271C197.834 315.009 197.724 314.768 197.582 314.553C197.171 284.426 196.066 255.434 188.976 224.871C188.664 223.525 187.322 222.688 185.976 223C184.631 223.313 183.793 224.655 184.106 226C192.017 260.114 192.36 292.477 192.722 326.74V326.75L192.731 327.384L161.185 326.867C156.497 290.242 154.881 252.988 156.376 216.1C156.435 214.721 155.36 213.555 153.981 213.5C152.601 213.45 151.435 214.517 151.381 215.896C149.843 253.784 151.568 292.059 156.506 329.655C156.633 330.622 157.303 331.4 158.185 331.699C157.833 334.258 157.741 336.851 157.914 339.434C157.914 339.9 157.993 340.359 158.155 340.796C158.343 341.296 158.622 341.746 158.989 342.13C159.023 342.166 159.06 342.202 159.096 342.236C157.586 343.378 156.336 344.839 155.785 346.596C155.31 348.117 155.164 350.484 157.164 353.109C159.014 355.542 161.568 357.005 163.822 358.292C164.268 358.546 164.71 358.8 165.151 359.063C165.768 359.427 166.442 361.883 166.737 362.958L166.743 362.98C166.947 363.73 167.143 364.438 167.372 365.071C167.901 366.523 168.528 367.844 169.245 369.026C140.86 373.786 115.016 374.074 90.3471 369.913C88.9846 369.68 87.6971 370.6 87.4677 371.963C87.2386 373.321 88.1552 374.613 89.5177 374.842ZM166.826 343.078C166.576 343.792 166.007 344.385 165.231 344.634C162.914 345.384 160.947 346.838 160.556 348.092C160.481 348.33 160.285 348.959 161.139 350.08C162.376 351.704 164.282 352.795 166.298 353.949L166.301 353.95L166.642 354.146C166.998 354.35 167.355 354.555 167.706 354.763C170.056 356.157 170.89 359.199 171.561 361.643L171.564 361.655C171.739 362.3 171.91 362.913 172.068 363.355C173.418 367.059 176.143 371.388 181.501 371.042C185.022 370.809 189.272 368.163 190.668 361.434C191.738 356.26 190.77 350.692 189.834 345.302L189.781 345.001C189.685 344.446 189.59 343.894 189.497 343.342C189.479 343.232 189.467 343.123 189.464 343.014L166.826 343.078ZM193.803 341.235C194.119 341.58 194.343 342.017 194.426 342.513C194.535 343.15 194.643 343.788 194.756 344.43L194.759 344.45C195.775 350.298 196.825 356.345 195.564 362.45C195.464 362.934 195.349 363.409 195.221 363.873C196.125 363.728 197.03 363.615 197.922 363.505C201.672 363.038 204.935 362.63 207.126 360.267C207.21 359.988 207.247 359.692 207.239 359.4C206.028 353.751 202.325 343.395 199.05 334.235L198.919 333.868L198.913 333.854C198.503 332.705 198.096 331.568 197.699 330.453C197.598 330.92 197.363 331.354 197.018 331.696C196.556 332.163 195.918 332.425 195.26 332.425H195.218L194.378 332.412L194.585 337.692C194.606 338.341 194.654 339.938 193.803 341.235ZM189.372 332.329L163.208 331.9C162.895 333.95 162.776 336.027 162.851 338.1L189.593 338.025C189.593 337.996 189.593 337.965 189.592 337.932C189.591 337.914 189.59 337.895 189.589 337.875L189.372 332.329Z" fill="black"/>
</g>
<path d="M141.46 163.542C140.985 157.838 142.101 152.913 144.585 147.754C145.147 146.588 146.355 146.6 147.551 146.221C148.614 145.888 149.655 145.504 150.685 145.071C152.772 144.204 154.747 143.084 156.56 141.738C160.151 139.025 162.951 135.217 164.001 130.8C164.955 126.796 164.285 122.029 159.835 119.775C156.697 118.192 153.885 118.754 149.105 122.954L145.618 120.542C144.055 121.613 141.997 119.975 141.18 118.267C139.076 113.863 140.118 108.684 141.201 103.917C138.701 106.613 134.151 107.042 131.201 104.859C129.164 103.346 128.014 100.871 127.589 98.3712C127.164 95.8712 127.385 93.3087 127.626 90.7837C125.093 95.6253 120.522 98.8587 115.568 99.4043C113.08 99.6543 110.568 99.2793 108.26 98.3168C105.951 97.3543 103.918 95.8337 102.343 93.8918C101.73 95.6253 100.718 97.1918 99.3972 98.4712C98.0722 99.7503 96.4722 100.7 94.7178 101.25C92.9637 101.8 91.1053 101.938 89.2887 101.65C87.4722 101.363 85.7472 100.654 84.2512 99.5837L83.4928 100.963L78.6762 105.209C75.9887 112.121 74.3722 118.363 73.9637 122.142C72.9347 131.659 74.8553 142.234 82.1347 149.013C86.0137 152.621 90.8178 154.396 95.9553 155.3C101.314 156.246 107.064 157.109 112.264 154.984C111.989 159.321 112.064 163.159 112.264 167.5" fill="white"/>
<path d="M144.999 155.554C147.499 156.25 149.999 158.334 150.415 160.834C151.665 170.834 151.249 180.417 149.999 190.417C149.165 198.334 147.499 199.913 147.082 207.829C146.249 213.246 146.999 214.696 147.832 220.529C148.665 225.946 150.332 230.946 153.665 235.529C158.249 241.363 163.249 243.863 171.165 243.863C176.165 240.946 173.249 238.863 171.165 235.113C169.157 230.196 169.011 224.713 170.749 219.696C174.082 208.863 177.932 209.167 178.765 197.917C179.199 193.984 178.774 190.004 177.515 186.25C176.265 183.75 175.849 181.25 174.182 178.75C171.682 175.834 170.015 172.917 167.932 169.584C165.849 166.25 164.182 162.917 164.599 159.167C165.432 154.167 169.599 150.834 172.932 146.667C174.278 144.929 175.532 143.121 176.682 141.25C177.099 140.417 177.515 139.167 177.932 138.334C178.765 136.25 179.182 133.75 179.599 131.667C179.599 122.084 180.015 112.5 177.099 103.334C174.182 94.5835 169.599 87.0835 164.182 79.5835C162.932 77.9166 161.682 76.6666 160.432 75.0001C158.349 73.3335 155.849 71.2501 153.349 70.0001C149.182 68.3335 145.015 69.1666 140.849 68.3335C138.765 67.5001 136.682 67.0835 135.432 65.4166C132.932 62.0835 130.849 57.9166 126.682 57.5001C124.182 57.5001 122.099 57.0835 119.599 57.5001C112.099 59.5835 105.015 62.0835 97.5152 62.5001C87.0987 62.9166 78.3487 70.4166 73.7652 79.5835L72.5152 80.8335C68.3487 89.5835 62.5152 97.9166 61.6821 107.5C60.8487 115.417 60.4321 124.167 65.8487 130.834C68.7652 132.5 71.6821 134.167 74.8027 136.084C73.3277 135.213 73.3696 129.642 74.8027 136.084C73.4237 129.625 73.4527 122.946 74.8946 116.5C75.6027 113.271 76.6027 110.113 77.8821 107.063C78.6237 105.296 79.3071 104.684 80.7196 103.442C82.1321 102.2 83.3527 101.259 84.2612 99.6085C90.5777 104.084 99.7321 101.184 102.324 93.896C107.453 100.342 117.02 101.221 123.332 96.0585C125.099 94.6085 126.553 92.8126 127.607 90.7876C127.165 95.4041 126.836 101.042 130.665 104.442C133.582 107.046 138.511 106.817 141.178 103.921C140.44 107.163 139.711 110.513 140.003 113.859C139.999 117.084 142.082 121.25 146.249 120.834C147.499 120.834 147.915 122.5 149.165 122.917C149.582 122.917 149.999 122.084 150.415 121.667C152.499 120 154.999 118.75 157.915 119.167C159.511 119.346 160.999 120.063 162.136 121.196C163.274 122.334 163.986 123.821 164.165 125.417C165.415 133.75 159.582 140.417 152.915 144.167C152.082 144.584 150.832 145 149.999 145.417C148.332 145.834 146.665 145.834 145.415 146.667C143.332 148.334 143.332 150.834 142.474 153.413L144.999 155.554Z" fill="black"/>
<path d="M170.06 246.488C168.581 246.488 167.243 245.979 166.098 245.45C157.402 241.471 150.977 237.95 147.568 228.875C144.385 220.408 143.127 214.729 144.577 205.371C145.06 202.258 145.523 200.763 145.973 199.321C146.381 198.004 146.768 196.763 147.206 194.1C148.714 184.888 148.498 175.404 148.285 166.229C148.239 164.254 148.193 162.213 147.523 160.571C146.956 159.179 145.823 158.142 144.768 158.046C143.393 157.917 142.381 156.7 142.51 155.325C142.635 153.95 143.852 152.942 145.231 153.067C148.198 153.342 150.848 155.492 152.152 158.679C153.173 161.175 153.231 163.8 153.281 166.113C153.498 175.513 153.718 185.238 152.135 194.904C151.643 197.913 151.185 199.379 150.743 200.8C150.331 202.129 149.939 203.388 149.514 206.129C148.227 214.438 149.318 219.317 152.248 227.108C154.989 234.408 160.335 237.308 168.181 240.896C168.86 241.208 169.706 241.55 170.256 241.463C170.652 241.4 171.018 241.363 171.352 241.338C171.031 240.313 170.502 239.275 169.952 238.196C169.518 237.346 169.068 236.463 168.685 235.521C166.885 231.096 166.685 225.675 168.11 219.842C169.048 216.008 170.535 212.375 171.973 208.863C172.364 207.913 172.752 206.963 173.131 206.008L173.748 204.471C177.306 195.575 177.948 193.975 174.385 184.996C173.064 181.667 171.035 178.667 168.885 175.488C166.764 172.35 164.568 169.104 163.056 165.45C161.656 162.067 162.102 157.771 163.26 155.279C164.664 152.275 166.748 149.813 168.764 147.433C169.739 146.283 170.656 145.196 171.498 144.063C172.973 142.067 174.502 140.008 175.443 137.829C177.306 133.525 177.131 128.3 176.973 123.696C176.764 117.417 176.548 110.925 174.81 104.892C173.085 98.896 169.731 93.1585 166.448 87.796C163.939 83.7085 161.418 79.7875 158.189 76.721C154.714 73.421 150.727 71.5376 146.96 71.4085C145.581 71.3626 144.498 70.2041 144.543 68.8251C144.589 67.446 145.752 66.3626 147.127 66.4126C152.118 66.5791 157.268 68.9541 161.631 73.0916C165.302 76.575 168.023 80.8 170.71 85.1791C174.177 90.8375 177.714 96.9085 179.614 103.504C181.523 110.138 181.752 116.946 181.968 123.525C182.143 128.658 182.339 134.479 180.031 139.813C178.86 142.521 177.16 144.817 175.518 147.038C174.585 148.304 173.568 149.504 172.585 150.667C170.698 152.896 168.914 155 167.798 157.396C167.206 158.663 166.839 161.504 167.681 163.542C169.002 166.729 170.96 169.625 173.031 172.692C175.235 175.954 177.514 179.325 179.035 183.158C183.335 193.988 182.089 197.1 178.393 206.338L177.785 207.863C177.402 208.829 177.006 209.8 176.606 210.767C175.173 214.263 173.818 217.563 172.973 221.033C172.156 224.383 171.552 229.292 173.323 233.638C173.627 234.388 174.01 235.138 174.414 235.934C175.268 237.613 176.152 239.346 176.514 241.421C176.639 242.125 176.927 243.779 175.885 245.05C174.902 246.246 173.527 246.275 172.518 246.3C172.06 246.308 171.585 246.321 171.052 246.404C170.71 246.463 170.381 246.488 170.06 246.488Z" fill="black"/>
<path d="M144.492 123.367C144.088 123.367 143.676 123.313 143.263 123.204C141.155 122.642 139.626 120.846 138.897 119.354C137.213 115.834 137.222 112.009 137.709 108.529C134.955 109.096 131.98 108.567 129.676 106.859C127.301 105.096 125.672 102.229 125.088 98.7837C125.042 98.5043 125.001 98.2252 124.967 97.9461C122.334 100.125 119.172 101.513 115.805 101.884C112.888 102.175 109.942 101.738 107.259 100.621C105.709 99.9752 104.259 99.1087 102.959 98.0543C102.413 98.8462 101.792 99.5877 101.101 100.254C99.5091 101.792 97.5548 102.954 95.4507 103.621C93.3423 104.288 91.0716 104.459 88.8923 104.117C87.5632 103.909 86.2591 103.509 85.0382 102.942C84.2716 103.546 83.1882 103.671 82.2798 103.171C81.0716 102.504 80.6298 100.984 81.2923 99.7752L82.0507 98.3961C82.3923 97.7711 82.9882 97.3252 83.6841 97.1627C84.3798 97.0043 85.1091 97.1502 85.6882 97.5627C86.8632 98.3961 88.2382 98.9543 89.6632 99.1793C91.0882 99.4043 92.5673 99.2918 93.9423 98.8543C95.3173 98.4212 96.5923 97.6587 97.6257 96.6587C98.6632 95.6587 99.4673 94.4086 99.9466 93.0502C100.251 92.1961 100.988 91.5752 101.88 91.4211C102.767 91.2668 103.676 91.6087 104.247 92.3127C105.555 93.9293 107.263 95.2043 109.184 96.0043C111.105 96.8043 113.209 97.1168 115.28 96.9087C119.38 96.4587 123.255 93.6627 125.372 89.6168C125.926 88.5586 127.151 88.0377 128.301 88.3793C129.447 88.7211 130.192 89.8252 130.076 91.0127C129.822 93.6543 129.659 95.8418 130.013 97.9418C130.226 99.2002 130.855 101.509 132.651 102.842C134.572 104.267 137.692 103.971 139.326 102.209C140.097 101.379 141.326 101.171 142.326 101.696C143.326 102.225 143.847 103.359 143.597 104.463C142.488 109.334 141.709 113.65 143.392 117.179C143.667 117.742 144.138 118.167 144.413 118.317C145.526 117.734 146.922 118.067 147.642 119.129C148.417 120.271 148.117 121.825 146.976 122.6C146.238 123.104 145.38 123.367 144.492 123.367Z" fill="black"/>
<path d="M68.9126 135.108C68.6585 135.108 68.4001 135.071 68.1417 134.988C63.696 133.55 60.6917 129.133 59.4585 122.217C58.1751 115.05 58.3417 108.383 59.946 102.404C61.1667 97.871 63.1667 93.7585 65.4585 89.2335C68.5585 83.0541 71.7667 76.6541 76.4292 71.1835C81.8251 64.8541 88.496 60.846 95.2126 59.896C96.9167 59.6501 98.6042 59.5916 100.238 59.5416C101.738 59.4916 103.154 59.446 104.538 59.2585C107.071 58.9126 109.546 58.0835 112.167 57.2041C114.467 56.4335 116.85 55.6335 119.346 55.1585C125.234 54.0416 132.588 55.4166 135.742 61.0126C136.421 62.2166 135.992 63.7416 134.792 64.4166C133.588 65.096 132.063 64.6666 131.388 63.4666C129.463 60.0501 124.279 59.3126 120.284 60.071C118.121 60.4791 116.004 61.1916 113.763 61.946C111.038 62.8626 108.221 63.8085 105.217 64.2126C103.584 64.4335 101.971 64.4876 100.413 64.5376C98.846 64.5876 97.3667 64.6376 95.9335 64.846C90.4167 65.6251 84.8501 69.0291 80.2501 74.4251C75.9792 79.4335 72.9085 85.5585 69.9417 91.4835C67.771 95.7666 65.8876 99.6335 64.7917 103.7C63.3792 108.963 63.246 114.896 64.396 121.333C65.0167 124.813 66.4417 129.175 69.696 130.229C71.0085 130.654 71.7292 132.063 71.3042 133.375C70.9501 134.438 69.9667 135.108 68.9126 135.108Z" fill="black"/>
<path d="M141.495 163.495C140.211 163.495 139.115 162.508 139.007 161.204C138.478 154.929 139.699 152.054 142.29 146.658C143.24 144.687 145.036 144.254 146.111 143.995C146.345 143.937 146.565 143.887 146.757 143.825C147.749 143.512 148.728 143.154 149.674 142.754C151.586 141.962 153.382 140.941 155.032 139.716C158.357 137.204 160.674 133.82 161.532 130.208C161.974 128.387 162.574 123.962 158.67 121.991C156.965 121.129 155.295 120.791 150.715 124.816C149.678 125.729 148.099 125.625 147.186 124.587C146.274 123.55 146.378 121.97 147.415 121.058C153.99 115.279 157.795 115.945 160.92 117.525C165.77 119.975 167.865 125.279 166.39 131.37C165.265 136.104 162.295 140.491 158.028 143.712C156.036 145.191 153.878 146.416 151.603 147.358C150.524 147.812 149.395 148.229 148.257 148.583C147.911 148.691 147.578 148.775 147.286 148.845C147.103 148.891 146.865 148.945 146.711 148.995C144.315 153.995 143.574 155.875 143.99 160.775C144.107 162.15 143.086 163.362 141.711 163.475C141.636 163.491 141.565 163.495 141.495 163.495Z" fill="black"/>
<path d="M112.137 167.184C110.808 167.184 109.704 166.138 109.641 164.796C109.508 161.863 109.479 160.388 109.562 158.375C104.554 159.342 99.4538 158.454 95.5207 157.767C89.1663 156.646 84.2288 154.384 80.4248 150.846C73.4332 144.334 70.1707 133.775 71.4707 121.871C71.9582 117.459 73.7748 110.892 76.3373 104.304C76.8373 103.017 78.2873 102.379 79.5748 102.879C80.8623 103.379 81.4998 104.829 80.9998 106.117C78.1582 113.425 76.7832 119.329 76.4413 122.417C75.3123 132.729 78.0038 141.759 83.8332 147.184C86.9498 150.084 90.9373 151.879 96.3832 152.838C101.95 153.809 106.916 154.463 111.312 152.667C112.108 152.342 113.016 152.45 113.716 152.95C114.416 153.454 114.808 154.279 114.754 155.138C114.487 159.329 114.441 160.254 114.641 164.554C114.704 165.934 113.637 167.104 112.258 167.167C112.216 167.184 112.179 167.184 112.137 167.184Z" fill="black"/>
<path d="M91.0113 116.709C92.6222 116.709 93.9279 115.123 93.9279 113.167C93.9279 111.211 92.6222 109.625 91.0113 109.625C89.4004 109.625 88.0947 111.211 88.0947 113.167C88.0947 115.123 89.4004 116.709 91.0113 116.709Z" fill="black"/>
<path d="M105.178 117.687C106.789 117.687 108.095 116.102 108.095 114.146C108.095 112.19 106.789 110.604 105.178 110.604C103.568 110.604 102.262 112.19 102.262 114.146C102.262 116.102 103.568 117.687 105.178 117.687Z" fill="black"/>
</g>
<defs>
<clipPath id="clip0_846_12263">
<rect width="250" height="600" fill="white"/>
</clipPath>
<clipPath id="clip1_846_12263">
<rect width="250" height="250" fill="white" transform="translate(0 159.375)"/>
</clipPath>
</defs>
</svg>
