<svg width="250" height="600" viewBox="0 0 250 600" fill="none" xmlns="http://www.w3.org/2000/svg">
<g clip-path="url(#clip0_846_12027)">
<path d="M159.963 548.282C157.434 554.031 152.754 558.553 146.925 560.881C141.1 563.209 134.596 563.159 128.809 560.735L128.463 560.593C125.996 567.685 122.321 574.381 120.767 581.725C120.525 582.847 120.35 584.078 120.888 585.094C121.659 586.55 123.517 586.959 125.146 587.181C130.792 588.016 136.654 588.703 142.121 587.069C151.25 584.356 157.5 575.487 159.884 566.246C161.629 559.504 161.709 552.508 161.417 545.516L159.963 548.282Z" fill="black"/>
<path d="M114.417 545.887C110.85 549.442 106.504 552.116 101.729 553.701C96.9542 555.287 91.8749 555.741 86.8918 555.024C85.3333 554.853 83.8249 554.373 82.4583 553.605C81.1293 552.771 80.0543 551.432 79.8958 549.876V548.357C74.2793 553.113 68.6208 557.777 66.7124 564.669C66.3333 566.046 66.1374 567.564 66.7374 568.841C67.8749 571.282 71.0999 571.699 73.7874 571.761C80.8458 571.983 88.0043 572.178 94.8668 570.535C101.729 568.891 108.387 565.086 111.95 558.983C114.783 554.139 115.425 548.357 115.958 542.771L114.417 545.887Z" fill="black"/>
<path d="M89.1665 390.919C89.9999 412.237 92.1959 474.544 93.3624 505.783L95.0584 506.359C98.8084 507.11 102.779 507.973 107.142 507.902C111.208 507.836 115.379 506.822 118.587 504.319L118.8 503.768C120.412 475.016 121.941 441.006 123.608 418.349C123.954 413.643 124.025 395.917 124.4 392.337" fill="white"/>
<path d="M123.967 391.87C125.271 414.782 127.917 471.34 129.167 508.724L132.196 511.707C134.179 513.309 136.471 514.482 138.929 515.145C141.388 515.808 143.958 515.954 146.475 515.57C148.992 515.187 151.404 514.277 153.554 512.909C155.704 511.54 157.542 509.738 158.958 507.615L160.188 505.416C159.583 467.127 159.871 412.141 160.417 389.309" fill="white"/>
<path d="M128.962 560.71C134.75 563.13 141.254 563.184 147.079 560.856C152.904 558.528 157.583 554.006 160.117 548.257L161.575 545.717C161.466 543.047 161.304 540.376 161.158 537.723C160.742 529.909 160.412 518.533 160.208 505.416L158.979 507.615C157.566 509.738 155.725 511.54 153.575 512.909C151.425 514.277 149.017 515.183 146.5 515.57C143.983 515.954 141.412 515.813 138.954 515.145C136.496 514.482 134.2 513.309 132.221 511.707L129.171 508.724C129.537 519.571 129.791 528.975 129.862 535.646C129.933 542.4 131.625 549.233 130.029 555.796C129.637 557.41 129.15 558.996 128.604 560.564L128.962 560.71Z" fill="black"/>
<path d="M80.046 549.851C80.2044 551.407 81.296 552.771 82.6126 553.58C83.9794 554.348 85.4835 554.828 87.0419 554.999C92.0251 555.716 97.1085 555.266 101.888 553.68C106.667 552.095 111.013 549.417 114.583 545.862L116.125 542.775C117.063 532.955 117.946 519.108 118.804 503.768L118.592 504.319C115.384 506.822 111.213 507.836 107.146 507.902C103.079 507.969 99.0544 507.16 95.0626 506.359L93.3669 505.783C93.5335 510.318 93.6835 514.24 93.8085 517.335C94.0376 523.176 94.2251 529.275 91.9169 534.657C89.4919 540.301 84.6669 544.427 79.8335 548.511L80.046 549.851Z" fill="black"/>
<path d="M83.7124 288.946C75.3293 321.445 68.1874 354.232 62.2915 387.31C103.683 395.475 146.333 394.732 187.412 385.133C181.358 353.155 175.317 321.178 169.283 289.2" fill="black"/>
<path d="M134.8 590.531C131.479 590.531 128.154 590.106 124.937 589.628C123.567 589.441 120.292 589 118.833 586.238C117.808 584.319 118.258 582.2 118.475 581.178C119.517 576.275 121.442 571.678 123.3 567.231C125.008 563.142 126.625 559.284 127.617 555.208C128.587 551.219 128.212 547.026 127.812 542.592C127.612 540.339 127.4 538.011 127.379 535.675C127.067 505.85 123.046 421.499 121.475 393.593C121.396 392.212 122.45 391.032 123.829 390.953C125.208 390.873 126.387 391.929 126.467 393.309C128.042 421.253 132.062 505.721 132.379 535.621C132.4 537.757 132.592 539.889 132.796 542.141C133.212 546.789 133.642 551.595 132.475 556.388C131.392 560.848 129.625 565.074 127.912 569.163C126.058 573.593 124.308 577.777 123.367 582.216C123.129 583.334 123.175 583.738 123.25 583.884C123.333 584.044 123.721 584.409 125.642 584.669C131.233 585.494 136.633 586.109 141.567 584.634C150.45 581.978 155.683 573.046 157.621 565.57C159.792 557.198 159.262 548.124 158.754 539.354L158.667 537.844C156.992 507.823 157.179 422.354 157.912 391.024C157.946 389.643 159.1 388.537 160.471 388.579C161.85 388.612 162.946 389.759 162.912 391.14C162.183 422.409 161.992 507.661 163.658 537.56L163.746 539.062C164.279 548.224 164.829 557.694 162.462 566.83C160.183 575.625 153.871 586.178 143 589.434C140.308 590.234 137.554 590.531 134.8 590.531Z" fill="black"/>
<path d="M119.825 395.429C100.375 395.429 80.8836 393.527 61.8086 389.767C60.4711 389.505 59.5917 388.216 59.8292 386.872C65.7086 353.885 72.9292 320.731 81.2917 288.32C81.6377 286.981 83.0002 286.176 84.3377 286.522C85.6752 286.868 86.4792 288.232 86.1336 289.572C78.0086 321.061 70.9667 353.264 65.1877 385.32C84.8461 389.025 104.934 390.727 124.925 390.381C144.942 390.035 164.975 387.627 184.509 383.234C178.684 352.45 172.734 320.986 166.829 289.668C166.571 288.308 167.467 287.002 168.821 286.743C170.179 286.484 171.484 287.381 171.742 288.737C177.8 320.857 183.9 353.13 189.871 384.669C190.121 385.988 189.288 387.269 187.984 387.573C167.367 392.392 146.184 395.02 125.013 395.387C123.284 395.416 121.554 395.429 119.825 395.429Z" fill="black"/>
<path d="M143.713 518.286C141.892 518.286 140.079 518.044 138.296 517.565C135.483 516.805 132.913 515.491 130.642 513.66C129.567 512.792 129.4 511.215 130.267 510.139C131.133 509.062 132.708 508.895 133.783 509.763C135.508 511.157 137.463 512.154 139.6 512.733C141.738 513.309 143.929 513.434 146.117 513.101C148.304 512.767 150.363 511.995 152.229 510.802C154.096 509.613 155.667 508.073 156.896 506.23C157.663 505.078 159.217 504.769 160.363 505.537C161.513 506.305 161.821 507.861 161.054 509.008C159.438 511.432 157.371 513.459 154.913 515.024C152.454 516.588 149.75 517.606 146.871 518.048C145.817 518.203 144.763 518.286 143.713 518.286Z" fill="black"/>
<path d="M106.659 510.393C102.513 510.393 98.4836 509.584 94.5836 508.803C93.2292 508.532 92.3417 507.21 92.6127 505.854C92.8836 504.498 94.1917 503.614 95.5417 503.889L95.5667 503.893C99.5461 504.69 103.309 505.445 107.092 505.382C109.904 505.337 113.913 504.769 117.042 502.329C118.129 501.478 119.7 501.674 120.55 502.763C121.4 503.851 121.204 505.424 120.117 506.275C115.896 509.567 110.75 510.33 107.175 510.389C107.004 510.393 106.829 510.393 106.659 510.393Z" fill="black"/>
<path d="M138.196 565.078C134.738 565.078 131.279 564.39 128 563.017C126.725 562.483 126.125 561.019 126.659 559.742C127.192 558.466 128.654 557.865 129.929 558.399C135.142 560.581 140.904 560.627 146.154 558.528C151.404 556.43 155.55 552.425 157.829 547.248C158.388 545.984 159.863 545.412 161.125 545.967C162.388 546.526 162.963 548.003 162.404 549.267C159.592 555.65 154.479 560.594 148.009 563.18C144.838 564.448 141.517 565.078 138.196 565.078Z" fill="black"/>
<path d="M81.0874 574.406C78.6624 574.406 76.254 574.331 73.8708 574.26C71.8708 574.194 66.5708 574.023 64.6374 569.876C63.8749 568.253 63.8208 566.321 64.4665 563.977C66.5374 556.497 72.3915 551.54 78.0499 546.747C82.854 542.679 87.3958 538.837 89.6165 533.664C91.7499 528.691 91.5124 522.709 91.3083 517.431C90.7958 504.707 89.829 477.919 88.8958 452.012C88.0165 427.615 87.1874 404.574 86.7249 392.88C86.6708 391.499 87.7458 390.335 89.1249 390.281C90.4915 390.239 91.6665 391.303 91.7208 392.684C92.1833 404.386 93.0165 427.431 93.8958 451.833C94.829 477.732 95.7958 504.515 96.304 517.235C96.5333 523.046 96.7915 529.63 94.2124 535.645C91.5249 541.899 86.3165 546.309 81.279 550.573C75.9624 555.074 70.9415 559.321 69.2833 565.312C68.8958 566.714 69.004 567.414 69.1624 567.752C69.5915 568.674 71.1833 569.162 74.0249 569.254C80.8124 569.463 87.8333 569.68 94.4374 568.074C101.437 566.371 107.091 562.588 109.954 557.69C112.421 553.468 113.079 548.315 113.629 542.504C115.133 526.693 116.525 499.972 117.871 474.131C119.237 447.907 120.65 420.789 122.166 405.596C122.304 404.219 123.525 403.222 124.904 403.355C126.279 403.493 127.279 404.719 127.141 406.096C125.637 421.169 124.229 448.228 122.862 474.394C121.512 500.289 120.116 527.064 118.604 542.98C117.996 549.388 117.25 555.111 114.271 560.218C110.675 566.371 104.05 570.889 95.6208 572.938C90.7915 574.114 85.9124 574.406 81.0874 574.406Z" fill="black"/>
<path d="M91.6373 557.832C89.9958 557.832 88.3498 557.715 86.7248 557.485C84.8414 557.273 83.0458 556.697 81.3873 555.767C81.3583 555.75 81.3289 555.733 81.2998 555.716C79.1789 554.415 77.7789 552.316 77.5539 550.105C77.4123 548.729 78.4123 547.502 79.7873 547.36C81.1583 547.218 82.3873 548.219 82.5289 549.596C82.5958 550.23 83.1208 550.944 83.8748 551.424C84.9414 552.012 86.0958 552.379 87.3083 552.513C87.3373 552.517 87.3664 552.521 87.3914 552.525C91.9708 553.184 96.7083 552.763 101.096 551.307C105.483 549.851 109.537 547.356 112.812 544.094C113.791 543.117 115.375 543.122 116.35 544.102C117.325 545.082 117.321 546.668 116.341 547.644C112.516 551.453 107.787 554.365 102.671 556.063C99.1248 557.231 95.3789 557.832 91.6373 557.832Z" fill="black"/>
<g clip-path="url(#clip1_846_12027)">
<path d="M141.404 159.375C141.779 163.583 143.5 173.092 149.904 171.667L150.592 172.708C150.279 179.238 146.971 183.842 141.788 188.612C136.521 193.383 129.804 196.25 122.717 196.754C116.467 197.213 109.821 195.717 105.146 191.525C100.471 187.333 98.0126 181.525 101.108 176.546H101.558C102.967 176.587 104.263 175.85 105.454 175.1C106.971 174.142 110.1 170.212 111.038 169.083C112.288 167.462 112.796 161.317 113.438 159.375H141.404Z" fill="white"/>
<path d="M177.954 210.696C177.046 212.163 176.063 213.579 175.013 214.946C171.417 219.588 166.729 223.575 161.125 225.363L160.317 226.646C159.867 264.596 161.738 302.575 165.446 341.646C164.004 341.767 162.638 342.334 161.529 343.267C160.421 344.2 159.629 345.45 159.263 346.85C158.896 348.25 158.967 349.729 159.475 351.084C159.979 352.438 160.892 353.604 162.088 354.421C163.379 355.296 164.929 355.721 166.254 356.55C172.329 360.338 171.6 370.784 178.021 373.942C182.759 376.271 188.696 372.717 190.842 367.888C192.988 363.059 192.4 357.521 191.763 352.279C189.042 329.979 182.554 264.659 181.421 250.988L178.234 212.542L177.954 210.696Z" fill="white"/>
<path d="M72.9165 211.821C66.725 251.284 60.5875 289.829 57.5915 331.138C56.2459 330.975 54.879 331.209 53.6584 331.8C52.4375 332.392 51.4125 333.325 50.7084 334.484C50.004 335.642 49.6415 336.979 49.675 338.334C49.704 339.692 50.125 341.009 50.8834 342.134C51.3334 342.792 51.8959 343.384 52.3084 344.059C53.3625 345.817 53.304 348.004 53.179 350.054C52.9459 353.884 52.6415 357.917 54.2875 361.384C55.9334 364.85 60.3334 367.338 63.704 365.504C66.054 364.221 67.0625 361.429 67.8709 358.879C69.0084 355.513 69.975 352.088 70.7625 348.621C71.6584 344.35 72.0125 339.984 72.3709 335.629L74.454 310.096L79.1665 219.863C77.8959 216.475 75.8375 213.442 73.1625 211.004L72.9165 211.821Z" fill="white"/>
<path d="M184.2 279.988C189.158 290.225 193.125 300.363 193.125 300.363C193.529 301.567 193.513 302.871 193.079 304.063C191.942 306.392 188.017 306.483 186.767 304.217L184.2 279.988Z" fill="white"/>
<path d="M79.1665 219.862C77.1665 214.55 73.2625 210.171 68.2165 207.571C72.9084 204.654 75.275 199.237 78.1 194.483C84.929 183.079 95.479 174.375 107.971 169.837C106.775 171.15 104.787 173.483 105.054 176.179C105.229 178.062 106.529 179.704 108.142 180.696C109.754 181.687 111.642 182.117 113.512 182.392C121.387 183.512 129.417 182.137 136.467 178.458C140.217 176.483 143.858 173.567 144.721 169.025C150.392 167.858 156.25 170.642 160.467 174.608C164.683 178.575 167.658 183.642 171.037 188.358C174.417 193.075 178.454 197.604 183.837 199.737C181.246 205.008 178.629 210.317 175.033 214.962C171.437 219.608 166.75 223.592 161.146 225.379L160.337 226.662C160.012 254.083 160.9 281.517 162.812 309.367L162.792 309.6C157.467 314.037 149.608 313.425 142.908 311.646C136.208 309.867 129.446 307.137 122.583 308.129C119.196 308.621 115.996 310.008 112.625 310.592C101.858 312.454 90.8709 306.008 80.1584 308.137C76.5665 308.858 72.8415 310.525 69.404 309.267C65.329 307.779 63.7709 301.842 66.5915 298.546C72.5375 273.417 76.9625 247.954 79.8415 222.296L79.1665 219.862Z" fill="white"/>
<path d="M152.104 315.492C149.121 315.492 145.825 315.012 142.229 314.058C140.866 313.696 139.487 313.292 138.158 312.904C132.862 311.35 127.858 309.883 122.904 310.6C121.296 310.833 119.696 311.304 118 311.8C116.404 312.267 114.75 312.754 113.016 313.054C107.254 314.05 101.583 312.887 96.0998 311.758C90.6789 310.646 85.5623 309.596 80.6164 310.587C79.8039 310.75 78.9789 310.962 78.1039 311.192C75.1707 311.958 71.8458 312.825 68.5164 311.612C65.8289 310.629 63.7539 308.233 62.9623 305.204C62.2333 302.412 62.7164 299.562 64.2498 297.433C70.8623 269.421 75.6039 240.7 78.3457 212.05C78.4789 210.675 79.6998 209.671 81.0707 209.8C82.4457 209.933 83.4539 211.154 83.3208 212.525C80.5373 241.579 75.7164 270.712 68.9873 299.112C68.8958 299.5 68.7123 299.858 68.4539 300.162C67.6664 301.083 67.4208 302.492 67.7958 303.933C68.1748 305.379 69.0833 306.492 70.2248 306.912C72.0833 307.592 74.3914 306.987 76.8373 306.35C77.7457 306.112 78.6833 305.867 79.6333 305.679C85.5708 304.487 91.4332 305.692 97.1039 306.858C102.362 307.937 107.333 308.958 112.162 308.125C113.616 307.875 115.062 307.45 116.591 307C118.379 306.475 120.225 305.933 122.187 305.65C128.225 304.775 133.991 306.467 139.566 308.104C140.866 308.483 142.212 308.879 143.512 309.225C151.454 311.333 157.387 310.812 161.154 307.675C162.216 306.792 163.791 306.933 164.675 307.996C165.558 309.058 165.416 310.633 164.354 311.517C161.179 314.162 157.079 315.492 152.104 315.492Z" fill="black"/>
<path d="M161.146 227.879C160.087 227.879 159.104 227.2 158.767 226.137C158.346 224.821 159.075 223.417 160.387 222.996C166.167 221.154 170.467 216.775 173.058 213.429C176.004 209.625 178.312 205.254 180.475 200.908C175.404 198.129 171.725 193.608 169.008 189.812C168.167 188.637 167.346 187.433 166.55 186.271C164.079 182.654 161.746 179.242 158.758 176.429C155.012 172.904 150.612 171.046 146.704 171.279C145.412 175.021 142.371 178.175 137.633 180.667C130.062 184.617 121.604 186.067 113.162 184.862C111.317 184.592 108.937 184.117 106.833 182.821C104.396 181.321 102.8 178.925 102.567 176.404C102.542 176.158 102.529 175.921 102.529 175.692C92.979 180.387 85.35 187.237 80.2459 195.762C79.75 196.596 79.2709 197.446 78.7665 198.35C76.9959 201.5 75.179 204.733 72.5584 207.3C76.6084 210.208 79.725 214.25 81.5084 218.975C81.9959 220.266 81.3415 221.708 80.05 222.196C78.7584 222.683 77.3165 222.029 76.829 220.737C75.0415 215.996 71.579 212.108 67.075 209.787C66.275 209.375 65.7584 208.567 65.7209 207.667C65.6834 206.767 66.1334 205.917 66.9 205.442C70.1915 203.396 72.2415 199.754 74.4084 195.896C74.9084 195.008 75.425 194.092 75.954 193.2C82.7459 181.854 93.5415 173.246 107.175 168.292C108.258 167.9 109.467 168.296 110.104 169.25C110.742 170.204 110.65 171.475 109.875 172.325C109.667 172.554 109.437 172.787 109.2 173.029C108 174.246 107.446 174.929 107.542 175.929C107.629 176.887 108.362 177.892 109.45 178.562C110.771 179.375 112.429 179.704 113.875 179.917C121.262 180.971 128.679 179.696 135.308 176.242C139.412 174.079 141.692 171.562 142.262 168.558C142.45 167.562 143.221 166.779 144.217 166.575C150.054 165.375 156.767 167.696 162.179 172.787C165.562 175.971 168.162 179.775 170.675 183.454C171.454 184.596 172.262 185.775 173.071 186.904C175.808 190.725 179.612 195.375 184.758 197.417C185.408 197.675 185.917 198.192 186.171 198.842C186.421 199.492 186.392 200.217 186.083 200.846C183.475 206.146 180.783 211.629 177.012 216.496C172.675 222.1 167.454 225.996 161.908 227.762C161.654 227.842 161.396 227.879 161.146 227.879Z" fill="black"/>
<path d="M189.859 308.363C187.596 308.363 185.584 307.246 184.575 305.421C183.909 304.213 184.346 302.692 185.559 302.025C186.767 301.359 188.288 301.796 188.954 303.009C189.075 303.225 189.471 303.375 189.904 303.363C190.284 303.354 190.634 303.221 190.784 303.038C190.963 302.442 190.959 301.8 190.771 301.209C190.425 300.329 186.6 290.684 181.95 281.075C181.35 279.834 181.867 278.338 183.109 277.734C184.35 277.134 185.846 277.65 186.45 278.896C191.392 289.104 195.413 299.346 195.454 299.45C195.471 299.488 195.484 299.525 195.496 299.567C196.075 301.3 196.054 303.2 195.429 304.917C195.4 305 195.363 305.079 195.325 305.159C194.388 307.075 192.359 308.304 190.029 308.363C189.975 308.363 189.917 308.363 189.859 308.363Z" fill="black"/>
<path d="M181.216 377.171C179.708 377.171 178.246 376.842 176.916 376.188C172.741 374.133 171.05 369.858 169.554 366.083C168.329 362.992 167.175 360.071 164.929 358.671C164.45 358.371 163.871 358.113 163.258 357.838C162.458 357.479 161.546 357.075 160.683 356.488C159.046 355.375 157.812 353.809 157.116 351.954C156.421 350.1 156.321 348.108 156.825 346.196C157.329 344.283 158.396 342.6 159.912 341.325C160.766 340.608 161.729 340.054 162.758 339.679C159.012 299.513 157.4 262.5 157.825 226.596C157.841 225.225 158.958 224.125 160.325 224.125C160.333 224.125 160.346 224.125 160.354 224.125C161.733 224.142 162.841 225.275 162.825 226.654C162.396 263.029 164.066 300.558 167.941 341.388C168.004 342.054 167.8 342.717 167.371 343.229C166.941 343.742 166.325 344.063 165.658 344.117C164.721 344.192 163.85 344.554 163.129 345.158C162.408 345.763 161.904 346.558 161.666 347.467C161.429 348.375 161.475 349.321 161.804 350.2C162.133 351.079 162.721 351.821 163.496 352.35C163.991 352.688 164.629 352.971 165.304 353.271C166.012 353.588 166.812 353.946 167.587 354.429C171.229 356.7 172.812 360.704 174.212 364.242C175.487 367.459 176.687 370.496 179.129 371.696C180.683 372.458 182.279 372.163 183.346 371.775C185.546 370.979 187.591 369.054 188.562 366.871C190.354 362.842 189.971 358.213 189.287 352.579C186.591 330.475 180.112 265.392 178.937 251.192L175.75 212.746C175.637 211.371 176.658 210.163 178.033 210.046C179.408 209.938 180.616 210.954 180.733 212.329L183.921 250.775C185.096 264.946 191.562 329.908 194.254 351.971C194.866 357.013 195.629 363.283 193.137 368.896C191.621 372.313 188.525 375.213 185.058 376.471C183.766 376.938 182.475 377.171 181.216 377.171Z" fill="black"/>
<path d="M61.2166 368.621C60.321 368.621 59.4041 368.475 58.496 368.179C55.7585 367.288 53.2791 365.096 52.0291 362.458C50.1541 358.513 50.425 354.121 50.6625 350.242L50.6835 349.904C50.7916 348.138 50.8335 346.463 50.1625 345.346C50.021 345.113 49.7916 344.825 49.55 344.521C49.321 344.233 49.0625 343.904 48.8166 343.55C47.7791 342.013 47.2125 340.238 47.171 338.396C47.1291 336.558 47.6125 334.754 48.571 333.183C49.5291 331.613 50.9085 330.358 52.5625 329.554C53.421 329.138 54.3291 328.854 55.2625 328.704C58.2416 289.175 63.95 252.8 69.9916 214.333L70.446 211.433C70.6585 210.071 71.9375 209.142 73.3041 209.35C74.6666 209.563 75.6 210.842 75.3875 212.208L74.9335 215.108C68.796 254.2 63 291.129 60.0875 331.321C60.0375 332.004 59.7125 332.633 59.1835 333.067C58.6585 333.5 57.975 333.704 57.296 333.621C56.421 333.517 55.5416 333.667 54.75 334.05C53.9585 334.433 53.296 335.033 52.8416 335.788C52.3835 336.538 52.1541 337.4 52.171 338.279C52.1916 339.158 52.4625 340.008 52.9541 340.738C53.0916 340.938 53.275 341.171 53.4666 341.413C53.775 341.804 54.125 342.242 54.4375 342.754C55.85 345.113 55.821 347.729 55.671 350.204L55.65 350.546C55.4375 353.979 55.221 357.529 56.5416 360.308C57.2166 361.725 58.5875 362.95 60.0416 363.421C60.6835 363.629 61.6335 363.779 62.5085 363.304C63.996 362.492 64.796 360.296 65.4875 358.121C65.4916 358.104 65.496 358.092 65.5041 358.075C66.6085 354.808 67.5541 351.45 68.321 348.083C69.175 344.008 69.5291 339.704 69.871 335.542L71.9625 309.892C72.075 308.517 73.2835 307.488 74.6585 307.604C76.0335 307.717 77.0585 308.925 76.946 310.3L74.8541 335.954C74.5 340.279 74.1291 344.75 73.2125 349.133C73.2085 349.146 73.2085 349.163 73.2041 349.175C72.4 352.704 71.4085 356.229 70.25 359.654C69.5125 361.983 68.275 365.854 64.9041 367.696C63.775 368.312 62.5166 368.621 61.2166 368.621Z" fill="black"/>
</g>
<path d="M111.7 157.359C106.788 162.404 100.117 165.354 93.0792 165.6C93.7417 167.371 93.8002 169.309 93.2417 171.117C92.6833 172.921 91.5458 174.492 90.0002 175.579C93.7083 179.779 92.8752 187.134 88.3333 190.4C89.7167 193.363 91.1208 196.396 91.4333 199.646C91.7458 202.896 90.7667 206.471 88.1502 208.429C90.3333 212.179 90.1377 216.938 88.6333 221.004C87.1292 225.071 84.4667 228.588 81.8127 232.009L79.9002 223.542C79.2418 225.484 78.0127 227.179 76.3752 228.409C75.1583 225.204 74.5833 221.788 74.6917 218.363C74.8002 214.938 75.5833 211.563 77.0002 208.442C74.4292 206.85 73.1833 203.588 73.5083 200.584C73.8333 197.579 75.5168 194.842 77.6752 192.729C73.1958 188.563 74.1458 180.075 79.4418 176.992C75.8627 171.992 76.0252 164.621 78.8502 158.596C74.9377 160.859 69.6583 158.667 67.0377 154.984C64.4167 151.3 63.7958 146.604 63.3417 142.109C62.0917 129.609 61.4833 116.854 63.9292 104.513C66.3752 92.171 72.0833 80.1542 81.7252 72.0835C89.4127 65.621 96.1333 64.5335 105.558 61.0626C110.013 59.421 118.029 57.3376 122.729 58.0167C127.854 58.7542 131.767 60.1001 135.346 63.8501L144.133 67.071C149.842 66.321 155.625 68.871 159.85 72.7835C164.075 76.696 166.933 81.8542 169.292 87.1042C174.496 98.7001 177.588 111.129 178.421 123.813C178.742 128.742 178.704 133.779 177.233 138.492C176.054 142.171 174.046 145.529 171.363 148.313C168.679 151.096 165.396 153.225 161.763 154.538C167.442 158.825 168.308 168.163 163.517 173.421C169.858 176.021 171.504 185.863 166.35 190.379C172.183 194.713 172.183 204.788 166.404 209.154C174.346 218.296 172.654 234.092 162.954 241.342L159.538 234.259C159.071 235.217 158.383 236.05 157.529 236.688C156.675 237.325 155.679 237.75 154.629 237.925C152.763 233.671 152.042 228.996 152.546 224.375C153.05 219.754 154.758 215.346 157.5 211.596C151.154 208.263 148.988 198.909 153.208 193.104C148.55 188.754 147.75 180.875 151.438 175.679C146.958 171.4 145.7 164.113 148.208 158.2L144.083 156.742L144.283 121.713C140.288 120.617 137.067 117.488 135.117 113.838C133.167 110.188 132.313 106.042 131.817 101.929C130.75 93.7291 131.213 85.4001 133.188 77.371C125.325 93.4585 107.554 104.167 89.6583 103.584C87.3208 103.55 84.9958 103.221 82.7418 102.6" fill="black"/>
<path d="M112.141 167.183C111.941 162.841 111.983 159.329 112.258 154.991C107.058 157.116 101.308 156.241 95.9499 155.308C90.8124 154.404 86.0084 152.629 82.129 149.021C74.8499 142.241 72.9165 131.666 73.9584 122.15C74.3749 118.371 75.9834 112.129 78.6709 105.216L82.7415 102.6C84.9959 103.221 87.3209 103.55 89.6584 103.583C107.554 104.158 125.325 93.4583 133.191 77.3708C131.216 85.3999 130.754 93.729 131.821 101.929C132.316 106.041 133.158 110.187 135.121 113.837C137.083 117.487 140.304 120.616 144.287 121.712L149.054 122.941C153.833 118.741 156.646 118.179 159.783 119.762C164.25 122.016 164.921 126.783 163.95 130.787C162.9 135.204 160.1 139.012 156.508 141.725C154.696 143.071 152.721 144.191 150.633 145.058C149.608 145.491 148.562 145.875 147.5 146.208C146.304 146.587 145.096 146.575 144.533 147.741C142.058 152.9 141.004 157.796 141.487 163.496" fill="white"/>
<path d="M144.3 124.212C144.079 124.212 143.858 124.183 143.637 124.121C139.287 122.929 135.383 119.608 132.925 115.012C130.596 110.65 129.792 105.887 129.35 102.225C128.746 97.604 128.612 92.9625 128.946 88.35C125.462 92.429 121.262 95.9834 116.475 98.8665C108.146 103.883 98.8584 106.375 89.6 106.079C87.0584 106.042 84.5294 105.683 82.0794 105.008C80.75 104.642 79.9669 103.267 80.3334 101.933C80.7 100.604 82.075 99.8209 83.4084 100.187C85.4584 100.75 87.5709 101.054 89.6959 101.079C89.7125 101.079 89.7294 101.079 89.7419 101.079C106.596 101.629 123.537 91.425 130.962 76.2665C131.525 75.1209 132.862 74.579 134.062 75.0165C135.262 75.454 135.942 76.725 135.637 77.9625C133.729 85.725 133.287 93.675 134.317 101.6C134.9 106.421 135.829 109.821 137.342 112.654C139.154 116.042 141.929 118.462 144.962 119.296C146.296 119.662 147.079 121.037 146.712 122.367C146.408 123.483 145.4 124.212 144.3 124.212Z" fill="black"/>
<path d="M162.954 243.825C162.754 243.825 162.558 243.8 162.362 243.754C161.637 243.575 161.029 243.083 160.704 242.412L158.933 238.746C157.783 239.583 156.437 240.146 155.037 240.379C153.908 240.567 152.8 239.962 152.337 238.917C150.3 234.271 149.512 229.146 150.062 224.1C150.521 219.917 151.883 215.879 154.042 212.287C151.558 210.237 149.754 207.287 148.954 203.867C148.096 200.196 148.517 196.492 150.087 193.417C146.225 188.6 145.504 181.483 148.325 175.992C144.783 171.612 143.542 165.425 145.042 159.737L143.242 159.1C141.942 158.642 141.258 157.212 141.717 155.908C142.175 154.604 143.604 153.925 144.908 154.383L149.033 155.842C149.683 156.071 150.208 156.558 150.487 157.192C150.767 157.825 150.771 158.542 150.5 159.175C148.375 164.187 149.487 170.371 153.154 173.871C154.05 174.729 154.183 176.112 153.467 177.125C150.504 181.3 151.162 187.779 154.904 191.275C155.825 192.137 155.962 193.55 155.221 194.571C153.633 196.754 153.121 199.725 153.821 202.721C154.517 205.704 156.279 208.129 158.654 209.379C159.296 209.717 159.762 210.317 159.925 211.025C160.092 211.733 159.937 212.479 159.508 213.067C157.033 216.458 155.479 220.458 155.025 224.637C154.658 228.012 155.012 231.429 156.05 234.646C156.567 234.25 156.992 233.733 157.275 233.15C157.692 232.287 158.567 231.742 159.525 231.742H159.529C160.487 231.742 161.362 232.292 161.779 233.154L163.75 237.237C166.521 234.229 168.317 230.162 168.8 225.675C169.404 220.042 167.842 214.612 164.508 210.775C164.054 210.254 163.837 209.562 163.908 208.875C163.979 208.187 164.333 207.558 164.887 207.142C166.987 205.554 168.233 202.779 168.221 199.717C168.208 196.675 166.946 193.929 164.85 192.367C164.242 191.917 163.875 191.217 163.842 190.462C163.808 189.708 164.125 188.979 164.692 188.483C166.429 186.962 167.225 184.317 166.767 181.579C166.308 178.842 164.696 176.596 162.554 175.717C161.8 175.408 161.242 174.75 161.062 173.954C160.883 173.158 161.104 172.325 161.654 171.721C163.467 169.733 164.342 166.858 164.062 163.829C163.783 160.804 162.387 158.137 160.242 156.517C159.508 155.962 159.137 155.054 159.275 154.15C159.412 153.242 160.033 152.483 160.896 152.171C164.15 150.992 167.142 149.054 169.546 146.562C171.95 144.071 173.779 141.008 174.837 137.712C176.279 133.092 176.171 127.933 175.912 123.958C175.096 111.533 172.096 99.4709 166.996 88.1125C165.096 83.8834 162.371 78.525 158.137 74.604C154.071 70.8375 148.954 68.9415 144.446 69.5375C143.079 69.7165 141.821 68.754 141.642 67.3834C141.462 66.0125 142.425 64.7584 143.796 64.579C149.762 63.7959 156.392 66.1709 161.537 70.9375C166.433 75.475 169.467 81.404 171.562 86.0665C176.908 97.975 180.05 110.612 180.904 123.637C181.192 128.046 181.304 133.796 179.608 139.225C178.312 143.267 176.079 146.996 173.15 150.037C171.092 152.175 168.679 153.975 166.046 155.358C167.712 157.604 168.767 160.383 169.042 163.375C169.35 166.717 168.662 169.967 167.117 172.662C169.487 174.546 171.137 177.408 171.696 180.762C172.275 184.246 171.575 187.608 169.8 190.2C171.958 192.696 173.204 196.087 173.217 199.704C173.233 203.4 171.967 206.871 169.75 209.408C172.971 214.083 174.425 220.075 173.767 226.217C173.017 233.225 169.612 239.467 164.437 243.333C164.012 243.654 163.487 243.825 162.954 243.825Z" fill="black"/>
<path d="M81.8126 234.508C81.6336 234.508 81.4501 234.488 81.2711 234.45C80.3251 234.242 79.5876 233.504 79.3751 232.563L78.7295 229.708C78.4586 229.954 78.1711 230.188 77.8751 230.408C77.2461 230.879 76.4336 231.029 75.6795 230.813C74.9251 230.596 74.317 230.033 74.0376 229.3C72.6961 225.767 72.0751 222.063 72.192 218.288C72.2876 215.163 72.892 212.113 73.9795 209.204C71.8126 206.992 70.6586 203.658 71.0211 200.321C71.3045 197.688 72.4751 195.033 74.3626 192.675C72.7795 190.313 72.0626 187.292 72.4045 184.192C72.7501 181.108 74.1045 178.329 76.1501 176.371C74.092 172.263 73.6836 167.088 74.9795 162.013C71.0586 161.867 67.1876 159.521 64.9961 156.442C62.067 152.325 61.342 147.229 60.8501 142.367C59.692 130.8 58.8626 117.204 61.4711 104.033C64.267 89.9207 70.8876 77.8957 80.1126 70.1751C86.417 64.8751 92.117 62.9791 98.717 60.7832C100.617 60.1501 102.584 59.4957 104.684 58.7251C108.905 57.1707 117.53 54.7501 123.075 55.5501C127.763 56.2251 132.713 57.4876 137.142 62.1332C138.096 63.1332 138.059 64.7166 137.059 65.6666C136.059 66.6207 134.475 66.5832 133.525 65.5832C130.321 62.2251 126.875 61.1501 122.363 60.5001C118.613 59.9582 111.346 61.6001 106.413 63.4166C104.234 64.2166 102.23 64.8832 100.292 65.5291C93.9251 67.6457 88.9001 69.3166 83.3211 74.0041C74.9626 81.0001 68.9461 92.0082 66.367 105.004C63.8836 117.529 64.6961 130.667 65.8126 141.867C66.2545 146.234 66.8336 150.417 69.0586 153.542C70.9251 156.163 74.8836 158 77.5836 156.438C78.5295 155.892 79.7211 156.021 80.5251 156.758C81.3295 157.496 81.5626 158.671 81.1001 159.663C78.4961 165.221 78.6376 171.6 81.4626 175.542C81.8711 176.113 82.0211 176.833 81.8751 177.521C81.7295 178.208 81.2961 178.804 80.6876 179.159C78.8795 180.213 77.6376 182.3 77.3626 184.746C77.092 187.183 77.8376 189.488 79.3626 190.904C79.8626 191.371 80.1501 192.021 80.1586 192.704C80.167 193.388 79.8961 194.046 79.4086 194.521C77.4295 196.458 76.2126 198.708 75.9795 200.858C75.7376 203.079 76.692 205.325 78.3001 206.321C79.367 206.983 79.7795 208.334 79.2626 209.479C77.9751 212.317 77.2751 215.334 77.1795 218.446C77.1336 219.95 77.2251 221.442 77.4626 222.909C77.4836 222.854 77.5001 222.8 77.5211 222.746C77.8795 221.688 78.9001 220.996 80.0211 221.054C81.1376 221.113 82.0795 221.909 82.3295 223L83.042 226.154C84.317 224.279 85.5001 222.254 86.2795 220.146C87.6876 216.342 87.5751 212.433 85.9795 209.696C85.342 208.6 85.6251 207.196 86.642 206.438C88.2961 205.2 89.1961 202.629 88.9336 199.896C88.6586 197.042 87.3376 194.208 86.0586 191.467C85.5501 190.379 85.8876 189.083 86.8626 188.379C88.4586 187.233 89.5126 185.296 89.767 183.067C90.017 180.838 89.417 178.717 88.117 177.242C87.6461 176.709 87.4251 176 87.5086 175.296C87.592 174.592 87.9711 173.954 88.5501 173.542C89.6376 172.775 90.4501 171.654 90.842 170.384C91.2336 169.113 91.192 167.729 90.7251 166.483C90.442 165.729 90.542 164.888 90.9876 164.217C91.4336 163.546 92.1751 163.133 92.9795 163.108C99.4045 162.883 105.413 160.225 109.896 155.621C110.859 154.633 112.442 154.613 113.43 155.575C114.417 156.538 114.438 158.121 113.475 159.113C108.775 163.938 102.684 166.988 96.0795 167.863C96.1711 169.208 96.017 170.567 95.617 171.858C95.1461 173.379 94.3461 174.788 93.2876 175.967C94.517 178.204 95.0376 180.884 94.7295 183.621C94.4045 186.496 93.2086 189.104 91.367 191.046C92.517 193.592 93.617 196.392 93.9045 199.413C94.2586 203.088 93.2336 206.579 91.1751 208.983C92.692 212.767 92.6336 217.354 90.9626 221.875C89.392 226.121 86.7751 229.671 83.7711 233.546C83.3086 234.159 82.5751 234.508 81.8126 234.508Z" fill="black"/>
<path d="M141.496 163.496C140.213 163.496 139.117 162.513 139.009 161.208C138.479 154.933 139.7 152.058 142.292 146.663C143.242 144.692 145.038 144.258 146.113 143.996C146.346 143.942 146.567 143.888 146.759 143.825C147.75 143.513 148.729 143.154 149.675 142.754C151.588 141.958 153.384 140.942 155.034 139.717C158.359 137.204 160.675 133.825 161.534 130.208C161.975 128.388 162.575 123.963 158.671 121.992C156.967 121.129 155.296 120.792 150.717 124.817C149.679 125.729 148.1 125.625 147.188 124.588C146.275 123.55 146.379 121.971 147.417 121.058C153.992 115.279 157.792 115.946 160.921 117.525C165.771 119.975 167.867 125.279 166.392 131.371C165.267 136.104 162.296 140.492 158.025 143.713C156.034 145.192 153.875 146.417 151.6 147.358C150.525 147.813 149.392 148.229 148.259 148.583C147.909 148.696 147.579 148.775 147.288 148.846C147.1 148.892 146.867 148.946 146.713 148.996C144.317 153.996 143.575 155.875 143.992 160.775C144.109 162.15 143.088 163.363 141.713 163.475C141.638 163.492 141.567 163.496 141.496 163.496Z" fill="black"/>
<path d="M112.142 167.184C110.813 167.184 109.709 166.138 109.646 164.796C109.513 161.863 109.484 160.388 109.567 158.375C104.559 159.342 99.4585 158.454 95.5251 157.767C89.171 156.65 84.2335 154.384 80.4295 150.846C73.4376 144.334 70.1751 133.771 71.4751 121.871C71.9626 117.459 73.7795 110.892 76.342 104.304C76.842 103.017 78.292 102.379 79.5795 102.879C80.867 103.379 81.5045 104.829 81.0045 106.117C78.1626 113.425 76.7876 119.329 76.446 122.417C75.317 132.729 78.0085 141.759 83.8376 147.184C86.9545 150.084 90.942 151.879 96.3876 152.838C101.954 153.809 106.921 154.463 111.317 152.671C112.113 152.346 113.021 152.454 113.721 152.954C114.421 153.459 114.813 154.284 114.759 155.142C114.492 159.334 114.446 160.259 114.646 164.559C114.709 165.938 113.642 167.109 112.263 167.171C112.217 167.184 112.179 167.184 112.142 167.184Z" fill="black"/>
<path d="M91.0123 116.708C92.6232 116.708 93.9288 115.123 93.9288 113.167C93.9288 111.211 92.6232 109.625 91.0123 109.625C89.4013 109.625 88.0957 111.211 88.0957 113.167C88.0957 115.123 89.4013 116.708 91.0123 116.708Z" fill="black"/>
<path d="M105.179 117.687C106.79 117.687 108.096 116.102 108.096 114.146C108.096 112.19 106.79 110.604 105.179 110.604C103.569 110.604 102.263 112.19 102.263 114.146C102.263 116.102 103.569 117.687 105.179 117.687Z" fill="black"/>
</g>
<defs>
<clipPath id="clip0_846_12027">
<rect width="250" height="600" fill="white"/>
</clipPath>
<clipPath id="clip1_846_12027">
<rect width="250" height="250" fill="white" transform="translate(0 159.375)"/>
</clipPath>
</defs>
</svg>
