<svg width="250" height="600" viewBox="0 0 250 600" fill="none" xmlns="http://www.w3.org/2000/svg">
<g clip-path="url(#clip0_846_12169)">
<path d="M159.963 548.282C157.434 554.031 152.754 558.553 146.925 560.881C141.1 563.209 134.596 563.159 128.809 560.735L128.463 560.593C125.996 567.685 122.321 574.381 120.767 581.725C120.525 582.847 120.35 584.078 120.888 585.094C121.659 586.55 123.517 586.959 125.146 587.181C130.792 588.016 136.654 588.703 142.121 587.069C151.25 584.356 157.5 575.487 159.884 566.246C161.629 559.504 161.709 552.508 161.417 545.516L159.963 548.282Z" fill="black"/>
<path d="M114.417 545.887C110.85 549.442 106.504 552.116 101.729 553.701C96.9542 555.287 91.8749 555.741 86.8918 555.024C85.3333 554.853 83.8249 554.373 82.4583 553.605C81.1293 552.771 80.0543 551.432 79.8958 549.876V548.357C74.2793 553.113 68.6208 557.777 66.7124 564.669C66.3333 566.046 66.1374 567.564 66.7374 568.841C67.8749 571.282 71.0999 571.699 73.7874 571.761C80.8458 571.983 88.0043 572.178 94.8668 570.535C101.729 568.891 108.387 565.086 111.95 558.983C114.783 554.139 115.425 548.357 115.958 542.771L114.417 545.887Z" fill="black"/>
<path d="M132.058 511.732C134.042 513.334 136.333 514.507 138.792 515.17C141.25 515.833 143.821 515.979 146.337 515.595C148.854 515.212 151.267 514.306 153.412 512.938C155.562 511.569 157.404 509.767 158.817 507.644L160.121 506.192C159.912 480.364 160.583 433.451 161.083 412.17L128.808 417.853C130.058 439.793 130.7 485.896 131.075 510.948L132.058 511.732Z" fill="white"/>
<path d="M118.979 503.743C120.391 480.648 121.262 451.098 121.175 430.906L89.9248 423.268C90.7582 444.127 92.1832 481.641 93.1873 505.779L94.9164 506.384C98.9039 507.189 102.929 507.999 107 507.928C111.071 507.857 115.237 506.847 118.45 504.344L118.979 503.743Z" fill="white"/>
<path d="M85.1749 288.291C75.6292 329.576 66.2042 370.886 56.8999 412.225C55.1042 420.206 54.7874 431.098 62.4874 433.827C68.8749 436.092 75.0792 430.41 81.5833 428.512C94.5374 424.724 107.446 436.33 120.912 435.391C131.442 434.657 140.592 426.33 151.137 426.772C157.604 427.043 163.408 430.598 169.554 432.613C175.7 434.628 183.55 434.665 187.446 429.488C190.546 425.366 189.912 419.638 189.112 414.536C182.8 373.305 176.479 332.066 170.158 290.823L85.1749 288.291Z" fill="black"/>
<path d="M128.808 560.735C134.596 563.159 141.1 563.209 146.925 560.881C152.75 558.554 157.429 554.027 159.963 548.282L161.379 544.69C161.275 541.678 161.171 540.748 161.004 537.748C160.479 528.345 160.217 517.473 160.125 506.042L158.821 507.648C157.404 509.768 155.567 511.57 153.417 512.942C151.267 514.311 148.858 515.216 146.338 515.604C143.821 515.988 141.25 515.846 138.792 515.179C136.333 514.515 134.038 513.343 132.058 511.741L131.075 510.827C131.208 519.588 131.308 527.999 131.388 535.679C131.458 542.433 131.488 549.271 129.892 555.833C129.496 557.452 129.008 559.046 128.458 560.619L128.808 560.735Z" fill="black"/>
<path d="M79.8958 549.876C80.0543 551.432 81.1458 552.796 82.4583 553.605C83.8249 554.373 85.3333 554.853 86.8918 555.024C91.8749 555.737 96.9543 555.287 101.729 553.701C106.504 552.116 110.85 549.442 114.417 545.887L115.8 544.469L115.962 542.8C117.092 530.952 118.117 517.715 118.954 504.106L118.429 504.34C115.217 506.843 111.05 507.857 106.979 507.923C102.908 507.99 98.8874 507.185 94.8958 506.38L93.1793 506.134C93.3458 510.126 93.4999 513.897 93.6374 517.36C93.8708 523.201 94.0543 529.296 91.7499 534.682C89.2499 540.456 84.2499 544.644 79.3374 548.82L79.8958 549.876Z" fill="black"/>
<path fill-rule="evenodd" clip-rule="evenodd" d="M82.2834 430.915C83.9928 430.414 85.7196 430.221 87.4665 430.256C87.965 442.73 88.6671 459.013 89.3509 474.857L89.3834 475.612C90.0293 490.497 90.6918 505.887 91.1584 517.468L91.1587 517.477C91.3671 522.744 91.6031 528.715 89.4709 533.701C87.25 538.87 82.7125 542.712 77.9043 546.78C72.2418 551.569 66.3875 556.526 64.3168 564.006C63.6709 566.355 63.7293 568.282 64.4875 569.901C66.4418 574.093 71.7459 574.219 73.725 574.264L73.8078 574.267C76.0778 574.337 78.4512 574.411 80.8709 574.411C85.6543 574.411 90.6418 574.123 95.4625 572.963C103.762 570.977 110.562 566.338 114.121 560.243C117.34 554.743 117.962 548.24 118.462 543.014L118.462 543.005C121.72 508.839 123.758 467.639 123.692 437.568C124.595 437.412 125.486 437.213 126.367 436.979C128.011 466.677 128.594 507.482 128.892 535.696C128.958 541.841 129.029 548.808 127.467 555.232C126.485 559.28 124.882 563.113 123.185 567.17L123.154 567.243C121.287 571.695 119.362 576.296 118.325 581.194C117.992 582.741 117.771 584.547 118.679 586.266C120.133 589.016 123.393 589.466 124.767 589.653H124.779C128.004 590.134 131.337 590.559 134.658 590.559C137.412 590.559 140.158 590.269 142.842 589.459C153.733 586.222 160.042 575.666 162.312 566.864C164.675 557.702 164.125 548.203 163.592 539.016L163.508 537.598C161.848 507.927 162.825 463.5 163.535 432.995C165.235 433.699 166.986 434.406 168.771 434.991C172.437 436.192 176.296 436.634 179.637 436.234C183.85 435.729 187.237 433.914 189.437 430.994C193.087 426.138 192.458 419.755 191.579 414.156C185.811 376.479 180.035 338.795 174.259 301.108L172.625 290.443C172.417 289.079 171.142 288.145 169.775 288.349C168.412 288.558 167.475 289.834 167.683 291.203C173.996 332.39 180.304 373.572 186.612 414.755L186.637 414.924C187.392 419.726 187.921 424.69 185.446 427.982C182.233 432.25 175.296 431.861 170.329 430.235C168.45 429.617 166.612 428.854 164.667 428.044C160.446 426.288 156.075 424.473 151.242 424.269C145.046 424.014 139.446 426.43 134.033 428.77C129.504 430.731 125.225 432.579 120.742 432.892C115.176 433.279 109.643 431.296 103.787 429.198L103.758 429.187C96.3834 426.542 88.7543 423.81 80.8875 426.109C78.5459 426.789 76.3125 427.882 74.1584 428.941L74.1468 428.947C70.11 430.926 66.6218 432.636 63.325 431.465C56.2875 428.975 58.4959 416.53 59.3418 412.775C68.6 371.632 78.1125 329.943 87.6125 288.854C87.925 287.506 87.0875 286.163 85.7418 285.85C84.3959 285.537 83.0543 286.376 82.7418 287.723C73.2418 328.821 63.725 370.522 54.4625 411.674C51.5959 424.411 54.2834 433.572 61.6543 436.184C66.9293 438.057 71.9375 435.604 76.3543 433.439C78.4084 432.429 80.3543 431.478 82.2834 430.915ZM102.067 433.902C107.424 435.825 112.939 437.803 118.692 437.941C118.724 456.674 117.94 479.698 116.555 502.618C113.48 504.843 109.653 505.372 106.937 505.42C103.196 505.49 99.3381 504.724 95.604 503.97C95.2746 496.167 94.9062 487.617 94.5396 479.115L94.364 475.041C93.6903 459.433 92.9962 443.356 92.4962 430.9C95.6112 431.585 98.7962 432.728 102.067 433.902ZM107.025 510.422C110.409 510.365 113.507 509.726 116.183 508.551C115.426 520.198 114.518 531.719 113.487 542.533L113.486 542.554C113.452 542.899 113.419 543.25 113.384 543.606C113.12 543.726 112.872 543.894 112.654 544.11C109.379 547.372 105.329 549.867 100.942 551.323C96.5543 552.779 91.8209 553.201 87.2459 552.546L87.1625 552.533C85.95 552.4 84.7959 552.032 83.7293 551.444C82.975 550.964 82.45 550.251 82.3834 549.617C82.3809 549.593 82.3781 549.569 82.375 549.545C87.0053 545.601 91.6 541.415 94.0668 535.671C96.6496 529.639 96.3753 522.781 96.1543 517.266C96.0518 514.721 95.9396 511.989 95.82 509.121C99.2715 509.806 102.819 510.435 106.479 510.435C106.662 510.435 106.846 510.435 107.025 510.422ZM78.3712 552.959C74.154 556.645 70.504 560.4 69.1375 565.336C68.75 566.742 68.8584 567.439 69.0168 567.773C69.4459 568.695 71.075 569.191 73.8625 569.258L73.8815 569.259C80.6675 569.471 87.6646 569.691 94.3 568.098C101.279 566.426 106.933 562.641 109.808 557.719C111.006 555.672 111.778 553.352 112.307 550.989C109.338 553.184 106.021 554.913 102.521 556.075C98.9668 557.256 95.2168 557.852 91.475 557.852C89.8375 557.852 88.2 557.74 86.5793 557.506C84.6918 557.293 82.8959 556.717 81.2375 555.787C81.2084 555.771 81.1793 555.754 81.1459 555.733C79.9762 555.011 79.025 554.049 78.3712 552.959ZM151.029 429.271C153.582 429.379 156.063 430.073 158.579 431C158.088 451.962 157.442 480.034 157.63 505.438C157.283 505.626 156.976 505.899 156.742 506.251C155.512 508.094 153.942 509.634 152.075 510.823C150.208 512.012 148.15 512.784 145.962 513.117C143.775 513.451 141.583 513.326 139.446 512.75C137.308 512.17 135.35 511.173 133.629 509.78C133.607 509.762 133.584 509.744 133.561 509.727C133.182 485.253 132.533 457.538 131.312 435.879C131.302 435.701 131.274 435.529 131.229 435.364C132.849 434.736 134.439 434.048 136.012 433.368L136.022 433.363C141.14 431.15 145.974 429.058 151.029 429.271ZM133.892 535.637C133.827 529.532 133.75 522.837 133.651 515.792C135.065 516.561 136.566 517.16 138.142 517.586C139.925 518.069 141.737 518.311 143.562 518.311C144.612 518.311 145.662 518.232 146.717 518.065C149.596 517.627 152.3 516.609 154.758 515.045C155.816 514.37 156.801 513.611 157.709 512.772C157.84 521.775 158.093 530.301 158.517 537.881L158.602 539.341C158.729 541.547 158.858 543.773 158.945 546.001C158.398 546.246 157.936 546.685 157.675 547.276C155.396 552.454 151.25 556.463 146 558.561C141.355 560.416 136.302 560.592 131.587 559.094C131.857 558.208 132.105 557.313 132.325 556.409C134.034 549.389 133.959 542.108 133.892 535.676L133.892 535.637ZM129.943 563.822C129.246 565.636 128.501 567.417 127.767 569.171L127.759 569.189C125.908 573.613 124.157 577.796 123.217 582.234C122.975 583.347 123.021 583.762 123.104 583.916C123.179 584.059 123.571 584.428 125.487 584.691C131.083 585.516 136.487 586.134 141.412 584.659C147.25 582.925 154.529 577.014 157.471 565.612C158.373 562.115 158.807 558.496 158.971 554.828C156.112 558.538 152.304 561.43 147.854 563.209C144.683 564.473 141.362 565.107 138.046 565.107C135.316 565.107 132.587 564.678 129.943 563.822Z" fill="black"/>
<g clip-path="url(#clip1_846_12169)">
<mask id="mask0_846_12169" style="mask-type:luminance" maskUnits="userSpaceOnUse" x="0" y="159" width="250" height="251">
<path d="M250 159.375H0V409.375H250V159.375Z" fill="white"/>
</mask>
<g mask="url(#mask0_846_12169)">
<path d="M141.404 159.375C141.779 163.583 143.5 173.092 149.904 171.667L150.592 172.708C150.279 179.238 146.971 183.842 141.787 188.612C136.521 193.383 129.804 196.25 122.717 196.754C116.467 197.213 109.821 195.717 105.146 191.525C100.471 187.333 98.0125 181.525 101.108 176.546H101.558C102.967 176.587 104.262 175.85 105.454 175.1C106.971 174.142 110.1 170.212 111.037 169.083C112.287 167.462 112.796 161.317 113.437 159.375H141.404Z" fill="white"/>
<path d="M52.939 330.099C50.0224 331.187 47.5224 333.687 48.3559 337.02C53.7724 342.437 52.5224 350.353 52.1059 357.02C52.9515 358.878 54.3015 360.462 55.9974 361.595C57.6974 362.728 59.6765 363.366 61.7184 363.433L65.2099 331.612L52.939 330.099Z" fill="white"/>
<path d="M150.943 169.421C158.313 171.396 164.03 177.075 168.634 182.887C173.655 189.241 177.597 196.379 180.301 204.012C181.813 208.271 184.205 213.071 185.193 217.479L186.509 221.483C193.593 252.033 194.901 283.533 195.376 314.95L195.793 315.958C198.334 325.354 207.918 349.104 210.001 359.104C210.068 359.958 209.926 360.816 209.584 361.604C205.418 366.604 198.334 365.354 192.855 367.05L173.493 370.908C145.78 375.879 135.884 379.591 108.126 374.912L106.876 374.6C105.051 359.25 103.705 343.3 102.926 327.229L102.734 328.062C100.105 343.429 97.6425 357.646 97.126 373.225L97.0469 373.887C91.076 372.746 73.026 369.516 67.0469 368.375C65.43 368.062 63.655 367.654 62.7094 366.291C61.926 365.175 61.93 363.704 61.9885 362.341C62.226 356.925 62.851 351.546 63.476 346.166L66.3344 321.546H66.1175C61.8844 321.033 58.4844 320.521 54.251 320.008C56.005 300.65 58.255 281.346 61.001 262.091C63.3925 245.321 66.1675 228.546 71.101 212.341C75.4844 197.941 87.0219 178.883 100.226 171.662L108.447 172.975C113.863 178.358 122.976 179.5 129.534 175.612L150.943 169.421Z" fill="white"/>
<path d="M165.254 340.625C161.242 341.921 156.05 347.183 159.442 351.633C161.309 354.087 164.129 355.408 166.717 356.946C168.713 358.133 169.238 362.129 170.009 364.25C171.959 369.596 175.746 373.971 181.95 373.567C188.267 373.15 192.196 367.771 193.396 361.967C194.7 355.675 192.613 346.55 191.567 340.325L165.254 340.625Z" fill="white"/>
<path d="M161.358 329.721C160.708 332.908 160.492 336.167 160.721 339.413C160.713 339.6 160.742 339.788 160.804 339.963C160.871 340.138 160.971 340.3 161.1 340.438C161.363 340.596 161.671 340.667 161.975 340.629L190.308 340.55C190.738 340.583 191.167 340.508 191.558 340.329C192.354 339.875 192.417 338.767 192.392 337.85L192.083 330.171L161.358 329.721Z" fill="white"/>
<path d="M55.5635 320.846C54.2301 323.662 53.9551 326.846 53.7051 329.954C57.251 331.033 60.9341 331.596 64.6385 331.621L65.7676 321.958L55.5635 320.846Z" fill="white"/>
<path d="M107.118 237.933L107.443 176.22C107.443 173.808 107.918 165.349 108.655 164.179C103.239 167.729 99.9347 173.612 96.8178 179.27C95.0303 182.516 93.1847 185.995 93.4303 189.687C93.7762 194.953 98.2347 199.166 98.9972 204.387C99.8762 210.403 95.6972 216.028 95.2472 222.091C95.0178 225.341 96.2928 232.508 97.1472 235.666L103.372 258.649L103.16 279.603C110.393 264.52 118.843 250.049 128.43 236.341C131.414 232.066 134.68 227.316 134.039 222.141C133.622 218.808 131.63 215.453 132.764 212.291C133.247 210.941 134.251 209.853 135.226 208.803L149.314 193.695C150.276 192.662 151.268 191.578 151.689 190.229C152.164 188.687 151.826 187.024 151.485 185.445L147.193 165.67C146.814 163.924 146.085 161.824 144.318 161.541C140.08 164.333 136.318 168.495 133.022 172.854C118.718 191.791 112.026 214.958 107.189 238.424" fill="white"/>
<path d="M129.533 175.613C122.975 179.5 113.863 178.358 108.446 172.975V227.917L129.533 175.613Z" fill="white"/>
<path fill-rule="evenodd" clip-rule="evenodd" d="M107.725 377.375C116.879 378.921 124.125 379.567 130.688 379.567C141.284 379.567 150.104 377.879 162.313 375.537L163.293 375.351C166.46 374.747 169.746 374.12 173.394 373.462C175.636 375.183 178.275 376.092 181.184 376.092C181.492 376.092 181.8 376.083 182.1 376.058C186.513 375.766 190.35 373.369 192.924 369.549C193.146 369.543 193.369 369.505 193.592 369.433C195.146 368.95 196.925 368.729 198.809 368.496C203.142 367.958 208.05 367.346 211.504 363.2C211.659 363.017 211.784 362.812 211.879 362.592C212.375 361.437 212.588 360.162 212.492 358.908C212.484 358.804 212.467 358.696 212.446 358.592C211.217 352.684 207.606 342.574 204.106 332.775L203.989 332.448C201.543 325.6 199.239 319.151 198.196 315.304C198.129 315.057 198.027 314.828 197.897 314.622C197.583 284.189 196.837 255.119 189.734 224.492C189.421 223.146 188.079 222.308 186.734 222.621C185.388 222.933 184.55 224.275 184.863 225.621C192.375 258.017 192.663 288.879 192.963 321.554L192.964 321.654C192.98 323.571 192.996 325.496 193.017 327.429L161.471 326.912C156.784 290.287 155.167 253.029 156.663 216.146C156.721 214.767 155.646 213.6 154.267 213.546C152.884 213.496 151.721 214.562 151.667 215.942C150.129 253.829 151.854 292.1 156.792 329.7C156.92 330.671 157.595 331.452 158.483 331.748C158.135 334.304 158.049 336.891 158.221 339.471C158.217 339.933 158.3 340.387 158.463 340.833C158.646 341.329 158.925 341.775 159.288 342.158C159.324 342.195 159.36 342.231 159.398 342.265C157.883 343.408 156.627 344.872 156.075 346.633C155.596 348.154 155.45 350.521 157.45 353.146C159.304 355.583 161.863 357.046 164.121 358.333L164.439 358.516C164.774 358.708 165.109 358.9 165.438 359.096C166.054 359.464 166.729 361.92 167.023 362.994L167.029 363.017C167.234 363.767 167.429 364.471 167.659 365.108C168.191 366.569 168.824 367.897 169.548 369.085C166.614 369.627 163.875 370.15 161.375 370.629L161.368 370.631C142.343 374.272 131.789 376.291 109.171 372.546C107.498 358.138 106.284 343.436 105.539 328.828L105.609 328.429C105.692 327.942 105.629 327.463 105.451 327.039C104.704 311.583 104.485 296.249 104.809 281.5C105.059 281.283 105.271 281.012 105.425 280.692C112.575 265.775 121.009 251.337 130.492 237.779C133.517 233.446 137.284 228.05 136.534 221.85C136.371 220.517 136.017 219.262 135.671 218.05C135.125 216.129 134.654 214.471 135.129 213.142C135.438 212.273 136.251 211.397 137.038 210.548L137.067 210.517L151.154 195.408L151.162 195.401C152.202 194.281 153.498 192.887 154.088 190.975C154.768 188.771 154.292 186.564 153.942 184.944L151.151 172.085C158.009 174.271 163.266 180.14 166.671 184.438C171.534 190.588 175.325 197.454 177.942 204.85C178.488 206.379 179.142 207.983 179.775 209.533L179.793 209.577C180.954 212.422 182.153 215.36 182.75 218.025C183.013 219.187 184.042 219.979 185.188 219.979C185.371 219.979 185.554 219.958 185.738 219.917C187.084 219.612 187.929 218.275 187.629 216.929C186.938 213.842 185.65 210.687 184.404 207.637C183.763 206.071 183.159 204.592 182.654 203.175C179.854 195.262 175.796 187.917 170.592 181.333C166.604 176.3 160.296 169.338 151.588 167.004C151.064 166.864 150.535 166.9 150.064 167.077L149.646 165.154C148.867 161.525 147.209 159.483 144.721 159.083C144.104 158.983 143.471 159.117 142.95 159.463C139.029 162.042 135.134 165.933 131.034 171.354C130.594 171.937 130.161 172.523 129.735 173.114C129.249 173.082 128.75 173.192 128.3 173.458C122.979 176.615 115.456 175.826 110.812 171.726C111.254 170.136 111.754 168.683 112.021 168.221C112.65 167.225 112.496 165.929 111.659 165.104C110.821 164.279 109.521 164.15 108.538 164.796C106.134 166.372 103.918 167.876 101.911 169.518C101.631 169.561 101.354 169.652 101.092 169.796C86.5585 177.746 72.9876 197.692 68.7501 211.612C63.7335 228.092 60.892 245.442 58.567 261.737C55.8295 280.937 53.5501 300.462 51.8001 319.783C51.7291 320.547 52.0116 321.265 52.5148 321.772C51.8329 323.863 51.5473 326.009 51.3582 328.042C47.1141 329.917 44.9454 333.688 45.9295 337.625C46.042 338.067 46.267 338.467 46.5879 338.787C50.6379 342.842 50.192 348.896 49.7585 354.75L49.7501 354.864C49.6988 355.542 49.6482 356.212 49.6085 356.867C49.5835 357.275 49.6585 357.683 49.8295 358.058C50.867 360.342 52.521 362.283 54.6085 363.675C56.1757 364.725 57.9382 365.426 59.7832 365.744C59.9635 366.434 60.2523 367.114 60.7045 367.758C62.2563 369.967 64.8551 370.498 66.6091 370.857L66.617 370.858C69.2976 371.369 74.4541 372.309 79.761 373.276L85.2657 374.279C89.8982 375.124 94.251 375.918 96.617 376.371C96.771 376.4 96.9251 376.417 97.0835 376.417C97.6085 376.417 98.1295 376.25 98.5626 375.929C99.1251 375.521 99.4876 374.896 99.571 374.208L99.6501 373.546C99.6585 373.475 99.6626 373.404 99.667 373.333C99.9298 365.402 100.797 357.805 101.939 350.194C102.614 358.479 103.438 366.735 104.409 374.892C104.529 375.921 105.275 376.771 106.284 377.021L107.534 377.333C107.587 377.347 107.644 377.359 107.698 377.37L107.725 377.375ZM92.1176 183.167C83.5526 191.944 76.3182 203.91 73.5295 213.067C68.8835 228.321 66.167 243.837 63.5126 262.442C60.9001 280.758 58.7085 299.379 57.0001 317.825C58.0298 317.957 59.0213 318.09 59.9945 318.22L60.5585 318.296C61.7313 318.453 62.9304 318.613 64.1807 318.774L65.9666 303.375C69.4154 273.66 72.9819 242.931 79.9751 213.258C80.292 211.917 81.6376 211.083 82.9835 211.4C84.3251 211.717 85.1585 213.062 84.842 214.408C77.9135 243.805 74.3635 274.394 70.9304 303.974L66.0001 346.483C65.392 351.725 64.7626 357.15 64.5251 362.479C64.496 363.142 64.4419 364.383 64.796 364.883C65.206 365.463 66.621 365.755 67.571 365.951L67.5876 365.954C70.5241 366.516 76.5848 367.619 82.496 368.694L82.7795 368.746C87.1085 369.533 91.5501 370.342 94.7585 370.937C95.367 357.996 97.467 345.987 99.6835 333.312C99.7988 332.649 99.9148 331.985 100.031 331.318L100.034 331.303L100.035 331.297C100.194 330.384 100.355 329.467 100.514 328.547C99.306 304.478 99.3676 280.669 100.754 258.829C100.76 258.763 100.767 258.697 100.776 258.631L94.7335 236.321C93.8794 233.167 92.4876 225.658 92.7545 221.917C92.971 218.987 93.9126 216.283 94.8251 213.667L94.8279 213.659C95.9145 210.537 96.9416 207.585 96.5251 204.75C96.2251 202.696 95.1626 200.696 94.0376 198.579L94.0279 198.561C92.6141 195.896 91.1538 193.142 90.9376 189.85C90.7779 187.468 91.3141 185.227 92.1176 183.167ZM105.871 258.594L106.071 257.554C111.163 229.792 116.934 198.325 135.021 174.363C138.254 170.083 141.3 166.883 144.279 164.633C144.425 164.971 144.596 165.467 144.754 166.204L149.046 185.979L149.051 186.003C149.308 187.197 149.598 188.544 149.304 189.496C149.053 190.312 148.272 191.152 147.514 191.968L147.488 191.996L133.396 207.108L133.374 207.133C132.344 208.245 131.066 209.626 130.413 211.454C129.396 214.292 130.171 217.017 130.854 219.417C131.163 220.492 131.45 221.504 131.563 222.45C132.084 226.754 129.059 231.092 126.388 234.917C118.575 246.092 111.459 257.854 105.171 269.987C105.322 266.452 105.506 262.957 105.721 259.509C105.826 259.22 105.879 258.911 105.871 258.594ZM102.887 247.305L99.5585 235.017C98.692 231.808 97.542 225.042 97.7376 222.279C97.9041 220.015 98.6988 217.733 99.5395 215.319L99.5438 215.307C100.781 211.75 102.058 208.077 101.467 204.029C101.043 201.125 99.7248 198.644 98.4513 196.247L98.4254 196.198C97.2123 193.909 96.066 191.746 95.921 189.525C95.7335 186.675 97.142 183.863 99.0045 180.479C100.646 177.5 102.746 175.263 105.317 173.192C105.088 174.342 104.942 175.404 104.942 176.208L104.617 237.921C104.616 238.06 104.627 238.197 104.648 238.33C104.031 241.341 103.448 244.336 102.887 247.305ZM109.727 217.032C113.356 204.148 118.172 191.485 125.194 179.959C123.786 180.263 122.345 180.413 120.904 180.413C117.056 180.413 113.195 179.349 109.936 177.299L109.727 217.032ZM56.3795 328.096C56.5579 326.308 56.8238 324.537 57.4054 322.928C58.2073 323.033 58.9901 323.138 59.7629 323.241L60.6045 323.353L60.6076 323.353L60.6107 323.354C61.5826 323.483 62.5745 323.615 63.6038 323.747L62.9863 329.072C60.7585 328.953 58.5463 328.626 56.3795 328.096ZM53.5935 332.529C56.4713 333.356 59.4251 333.865 62.4091 334.047L61.0163 346.058C60.4679 350.796 59.9032 355.677 59.6198 360.573C58.832 360.333 58.0804 359.978 57.3879 359.517C56.242 358.75 55.3004 357.721 54.646 356.512C54.6648 356.219 54.6866 355.925 54.7085 355.629L54.7182 355.5L54.7466 355.11C55.1966 349.011 55.7526 341.473 50.7004 335.858C50.6251 333.955 52.7607 332.877 53.5935 332.529ZM167.114 343.111C166.865 343.827 166.295 344.422 165.517 344.671C163.2 345.417 161.234 346.871 160.842 348.125C160.767 348.362 160.571 348.996 161.425 350.117C162.651 351.731 164.54 352.813 166.539 353.959L166.596 353.992C167.063 354.258 167.529 354.525 167.988 354.796C170.346 356.2 171.179 359.25 171.846 361.696C172.021 362.342 172.192 362.954 172.35 363.396C173.696 367.087 176.438 371.425 181.779 371.071C185.296 370.837 189.546 368.192 190.942 361.458C192.012 356.297 191.048 350.742 190.116 345.364L190.113 345.346C189.997 344.687 189.885 344.033 189.773 343.379L189.771 343.367C189.753 343.259 189.742 343.153 189.738 343.047L167.114 343.111ZM194.097 341.283C194.403 341.624 194.619 342.053 194.7 342.537C194.793 343.092 194.888 343.647 194.984 344.205L195.034 344.492L195.037 344.513C196.049 350.348 197.094 356.382 195.829 362.471C195.728 362.959 195.612 363.438 195.482 363.906C196.39 363.762 197.3 363.649 198.196 363.537L198.201 363.537C201.953 363.071 205.209 362.666 207.404 360.3C207.488 360.021 207.525 359.725 207.517 359.433C206.313 353.8 202.621 343.471 199.359 334.35L199.304 334.197C198.859 332.95 198.418 331.716 197.988 330.507C197.886 330.971 197.652 331.401 197.309 331.742C196.842 332.208 196.204 332.471 195.546 332.471H195.504L194.675 332.457L194.888 337.746C194.906 338.402 194.949 339.993 194.097 341.283ZM189.669 332.375L163.506 331.945C163.199 333.989 163.084 336.058 163.159 338.125L189.9 338.05C189.9 338.022 189.9 337.992 189.899 337.962C189.898 337.947 189.897 337.932 189.896 337.917L189.669 332.375Z" fill="black"/>
</g>
</g>
<path d="M82.7417 102.6C84.9958 103.221 87.3208 103.55 89.6583 103.583C107.554 104.158 125.325 93.4584 133.192 77.3709C131.217 85.3999 130.75 93.729 131.821 101.929C132.317 106.041 133.158 110.187 135.121 113.837C137.083 117.487 140.304 120.616 144.288 121.712L143.658 155.516C145.617 155.033 147.371 153.937 148.658 152.383C148.15 163.008 147.825 174.004 151.754 183.883C153.317 187.796 155.696 191.608 159.392 193.629C164.354 196.337 170.567 195.233 175.754 192.987C179.258 191.471 182.621 189.408 184.996 186.421C189.929 180.221 189.6 170.954 185.771 164.016C181.942 157.079 175.229 152.171 168.163 148.6C172.717 143.821 176.125 138.066 178.117 131.771C180.113 125.475 180.646 118.808 179.679 112.279C178.429 104.275 174.937 96.8209 171.492 89.4915C169.433 85.1165 167.279 80.6124 163.663 77.4084C158.292 72.6415 150.55 71.4749 144.796 67.1834L133.338 63.8834C131.308 59.6624 125.95 58.0749 121.292 58.5249C116.633 58.9749 112.263 60.9584 107.683 61.9249C103.617 62.7874 99.4001 62.8499 95.3708 63.8874C81.7167 67.3999 73.3833 80.9249 67.3542 93.6709C62.3542 104.208 57.8876 115.421 58.1876 127.075C58.4876 138.729 64.7167 150.925 75.6251 155.025C69.8876 158.154 65.1458 162.833 61.9376 168.525C60.6083 170.896 59.5417 173.55 59.7626 176.258C59.9833 178.966 61.5501 181.541 63.5126 183.508C69.7333 189.737 80.4792 190.75 87.7583 185.796C95.0376 180.841 98.0251 170.466 94.0626 161.783C99.8126 162.671 105.696 161.958 111.071 159.729" fill="black"/>
<path d="M112.142 166.766C111.942 162.425 111.983 159.329 112.258 154.991C107.058 157.116 101.308 156.241 95.9501 155.308C90.8126 154.404 86.0082 152.629 82.1292 149.021C74.8501 142.241 72.9167 131.666 73.9582 122.15C74.3751 118.371 75.9832 112.129 78.6707 105.216L82.7417 102.6C84.9957 103.221 87.3207 103.55 89.6582 103.583C107.554 104.158 125.325 93.4583 133.192 77.3708C131.217 85.3999 130.754 93.729 131.821 101.929C132.317 106.041 133.158 110.187 135.121 113.837C137.083 117.487 140.304 120.616 144.288 121.712L149.054 122.941C153.833 118.741 156.646 118.179 159.783 119.762C164.25 122.016 164.921 126.783 163.95 130.787C162.9 135.204 160.1 139.012 156.508 141.725C154.696 143.071 152.721 144.191 150.633 145.058C149.608 145.491 148.563 145.875 147.5 146.208C146.304 146.587 145.096 146.575 144.533 147.741C142.058 152.9 141.004 157.379 141.488 163.079" fill="white"/>
<path d="M77.1876 191.433C71.5126 191.433 65.8291 189.325 61.771 185.262C59.1335 182.621 57.546 179.491 57.296 176.45C57.0666 173.637 57.8541 170.725 59.7835 167.291C62.4666 162.529 66.1335 158.441 70.5335 155.283C66.671 152.921 63.3541 149.479 60.8 145.141C57.6835 139.854 55.875 133.458 55.7125 127.129C55.396 114.862 60.046 103.279 65.121 92.5873C71.0125 80.1289 79.7125 65.3289 94.775 61.4539C97.146 60.8414 99.5375 60.5539 101.85 60.2707C103.708 60.0457 105.467 59.8332 107.192 59.4664C108.917 59.1039 110.613 58.5832 112.404 58.0373C115.171 57.1914 118.033 56.3164 121.075 56.0248C126.446 55.5082 133.021 57.3957 135.613 62.7873C136.213 64.0332 135.688 65.5248 134.442 66.1248C133.2 66.7248 131.704 66.1998 131.104 64.9539C129.567 61.7539 125.075 60.6623 121.55 60.9998C119.004 61.2457 116.504 62.0082 113.858 62.8164C112.038 63.3707 110.158 63.9457 108.217 64.3539C106.279 64.7664 104.329 64.9998 102.442 65.2289C100.192 65.5039 98.0625 65.7623 96.0085 66.2914C82.9585 69.6498 75.0541 83.2498 69.6291 94.7207C64.821 104.854 60.4126 115.775 60.7001 126.991C60.946 136.587 66.0001 148.712 76.5166 152.666C77.4335 153.012 78.0626 153.858 78.1291 154.833C78.196 155.808 77.6916 156.733 76.8335 157.204C71.5001 160.112 67.1085 164.446 64.1291 169.737C62.7166 172.258 62.121 174.262 62.2666 176.041C62.4166 177.879 63.521 179.95 65.296 181.729C70.65 187.087 80.1001 187.979 86.3666 183.716C92.7751 179.354 95.1626 170.171 91.8041 162.808C91.421 161.971 91.5291 160.996 92.0835 160.262C92.6376 159.529 93.55 159.162 94.4585 159.3C99.7585 160.116 105.175 159.462 110.129 157.408C111.404 156.879 112.867 157.483 113.396 158.758C113.925 160.033 113.321 161.496 112.046 162.025C107.492 163.916 102.6 164.791 97.7085 164.621C99.8666 173.362 96.571 182.821 89.1835 187.85C85.646 190.262 81.421 191.433 77.1876 191.433Z" fill="black"/>
<path d="M166.121 197.696C163.213 197.696 160.542 197.071 158.225 195.812C154.513 193.783 151.567 190.079 149.459 184.796C146.05 176.266 145.663 167.241 145.975 157.371C145.425 157.6 144.859 157.787 144.28 157.929C142.938 158.258 141.584 157.441 141.255 156.1C140.925 154.758 141.742 153.404 143.084 153.075C144.513 152.721 145.817 151.904 146.759 150.771C147.446 149.941 148.584 149.646 149.588 150.037C150.592 150.425 151.234 151.412 151.18 152.487C150.638 163.796 150.484 173.891 154.1 182.941C155.767 187.116 157.959 189.971 160.617 191.421C165.425 194.029 171.559 192.075 174.788 190.679C178.525 189.062 181.234 187.154 183.067 184.85C187.03 179.879 187.25 171.804 183.609 165.208C180.546 159.658 174.98 154.816 167.063 150.816C166.359 150.458 165.863 149.791 165.725 149.008C165.592 148.229 165.834 147.433 166.38 146.858C170.65 142.379 173.892 136.896 175.763 131C177.634 125.1 178.142 118.75 177.234 112.629C176.03 104.941 172.588 97.6208 169.255 90.5373C167.321 86.4289 165.317 82.1789 162.03 79.2623C159.45 76.9708 156.159 75.5708 152.675 74.0833C149.505 72.7333 146.23 71.3333 143.325 69.1708C142.217 68.3458 141.992 66.7789 142.817 65.6708C143.642 64.5664 145.209 64.3373 146.317 65.1623C148.742 66.9708 151.605 68.1914 154.638 69.4833C158.338 71.0583 162.159 72.6914 165.35 75.5208C169.409 79.1208 171.734 84.0539 173.784 88.4083C177.263 95.8083 180.863 103.462 182.18 111.875C183.2 118.762 182.63 125.891 180.534 132.508C178.763 138.091 175.892 143.346 172.163 147.871C179.509 152.046 184.83 157.054 187.992 162.787C192.655 171.233 192.25 181.35 186.984 187.958C184.63 190.921 181.292 193.308 176.78 195.262C173.042 196.883 169.43 197.696 166.121 197.696Z" fill="black"/>
<path d="M144.3 124.212C144.079 124.212 143.858 124.183 143.637 124.121C139.283 122.929 135.383 119.608 132.925 115.012C130.596 110.65 129.787 105.887 129.35 102.225C128.746 97.6039 128.612 92.9623 128.946 88.3498C125.462 92.4288 121.262 95.9832 116.475 98.8664C108.146 103.883 98.8542 106.379 89.5998 106.079C87.0582 106.041 84.5292 105.683 82.0792 105.008C80.7457 104.641 79.9667 103.266 80.3332 101.933C80.6998 100.604 82.0748 99.8207 83.4082 100.187C85.4582 100.75 87.5707 101.054 89.6957 101.083C89.7123 101.083 89.7292 101.083 89.7417 101.083C106.592 101.629 123.537 91.4288 130.962 76.2707C131.525 75.1248 132.858 74.5832 134.062 75.0207C135.262 75.4582 135.942 76.7289 135.637 77.9664C133.729 85.7289 133.287 93.6789 134.317 101.604C134.896 106.425 135.829 109.825 137.342 112.658C139.15 116.046 141.929 118.466 144.962 119.3C146.296 119.666 147.079 121.041 146.712 122.371C146.408 123.483 145.4 124.212 144.3 124.212Z" fill="black"/>
<path d="M141.496 163.496C140.213 163.496 139.117 162.508 139.009 161.204C138.479 154.929 139.7 152.054 142.292 146.658C143.242 144.687 145.038 144.254 146.113 143.996C146.346 143.937 146.567 143.887 146.759 143.825C147.75 143.512 148.729 143.154 149.675 142.754C151.588 141.962 153.384 140.941 155.034 139.716C158.359 137.204 160.675 133.821 161.534 130.208C161.975 128.387 162.575 123.962 158.671 121.991C156.967 121.129 155.296 120.791 150.717 124.816C149.679 125.729 148.1 125.625 147.188 124.587C146.275 123.55 146.379 121.971 147.417 121.058C153.992 115.279 157.796 115.946 160.921 117.525C165.771 119.975 167.867 125.279 166.392 131.371C165.267 136.104 162.296 140.491 158.029 143.712C156.038 145.191 153.879 146.416 151.604 147.358C150.525 147.812 149.396 148.229 148.259 148.583C147.913 148.691 147.579 148.775 147.288 148.846C147.104 148.891 146.867 148.946 146.713 148.996C144.317 153.996 143.575 155.875 143.992 160.775C144.109 162.15 143.088 163.362 141.713 163.475C141.638 163.491 141.567 163.496 141.496 163.496Z" fill="black"/>
<path d="M112.137 167.183C110.808 167.183 109.704 166.137 109.641 164.796C109.508 161.862 109.479 160.387 109.562 158.375C104.554 159.341 99.4538 158.454 95.5207 157.766C89.1663 156.646 84.2288 154.383 80.4248 150.846C73.4332 144.333 70.1707 133.775 71.4707 121.871C71.9582 117.458 73.7748 110.891 76.3373 104.304C76.8373 103.016 78.2873 102.379 79.5748 102.879C80.8623 103.379 81.4998 104.829 80.9998 106.116C78.1582 113.425 76.7832 119.329 76.4413 122.416C75.3123 132.729 78.0038 141.758 83.8332 147.183C86.9498 150.083 90.9373 151.879 96.3832 152.837C101.95 153.808 106.916 154.462 111.312 152.666C112.108 152.341 113.016 152.45 113.716 152.95C114.416 153.454 114.808 154.279 114.754 155.137C114.487 159.329 114.441 160.254 114.641 164.554C114.704 165.933 113.637 167.104 112.258 167.166C112.216 167.183 112.179 167.183 112.137 167.183Z" fill="black"/>
<path d="M91.0123 116.708C92.6232 116.708 93.9288 115.123 93.9288 113.167C93.9288 111.211 92.6232 109.625 91.0123 109.625C89.4013 109.625 88.0957 111.211 88.0957 113.167C88.0957 115.123 89.4013 116.708 91.0123 116.708Z" fill="black"/>
<path d="M105.179 117.687C106.79 117.687 108.096 116.102 108.096 114.146C108.096 112.19 106.79 110.604 105.179 110.604C103.569 110.604 102.263 112.19 102.263 114.146C102.263 116.102 103.569 117.687 105.179 117.687Z" fill="black"/>
</g>
<defs>
<clipPath id="clip0_846_12169">
<rect width="250" height="600" fill="white"/>
</clipPath>
<clipPath id="clip1_846_12169">
<rect width="250" height="250" fill="white" transform="translate(0 159.375)"/>
</clipPath>
</defs>
</svg>
