<svg width="150" height="50" viewBox="0 0 150 50" fill="none" xmlns="http://www.w3.org/2000/svg">
<path d="M150 22.8133C150 25.1532 149.708 27.2177 149.123 29.007C148.538 30.7963 147.678 32.3275 146.542 33.6007C145.441 34.8394 144.099 35.7856 142.516 36.4394C140.934 37.0588 139.161 37.3685 137.2 37.3685C135.376 37.3685 133.673 37.0588 132.09 36.4394C130.542 35.7856 129.2 34.8394 128.064 33.6007C126.963 32.3275 126.103 30.7963 125.484 29.007C124.864 27.2177 124.555 25.1532 124.555 22.8133C124.555 19.7165 125.054 17.1014 126.051 14.968C127.084 12.8002 128.563 11.1658 130.49 10.0647C132.417 8.9292 134.705 8.36145 137.355 8.36145C139.832 8.36145 142.017 8.9292 143.91 10.0647C145.802 11.1658 147.282 12.8002 148.349 14.968C149.45 17.1014 150 19.7165 150 22.8133ZM131.523 22.8133C131.523 24.7747 131.729 26.4607 132.142 27.8715C132.555 29.2479 133.174 30.2974 134 31.02C134.86 31.7426 135.961 32.1039 137.303 32.1039C138.645 32.1039 139.729 31.7426 140.555 31.02C141.415 30.2974 142.035 29.2479 142.413 27.8715C142.826 26.4607 143.032 24.7747 143.032 22.8133C143.032 20.8176 142.826 19.1488 142.413 17.8068C142 16.4304 141.364 15.3981 140.503 14.71C139.678 13.9874 138.594 13.6261 137.252 13.6261C135.222 13.6261 133.759 14.4175 132.865 16.0003C131.97 17.5831 131.523 19.8541 131.523 22.8133Z" fill="white"/>
<path d="M104.226 8.36145C105.947 8.36145 107.444 8.70554 108.717 9.39373C109.99 10.0819 111.057 11.1142 111.917 12.4906H112.123L112.743 8.87759H118.523V37.0588C118.523 39.7083 118.042 41.9277 117.078 43.717C116.115 45.5407 114.67 46.9171 112.743 47.8461C110.85 48.7752 108.442 49.2397 105.517 49.2397C103.555 49.2397 101.766 49.102 100.149 48.8268C98.5661 48.5859 97.0521 48.1558 95.6069 47.5364V42.1686C96.6047 42.6159 97.6198 42.9944 98.6521 43.3041C99.7188 43.6482 100.82 43.9062 101.955 44.0783C103.091 44.2503 104.295 44.3364 105.568 44.3364C107.564 44.3364 109.078 43.7342 110.11 42.5299C111.177 41.3255 111.71 39.6051 111.71 37.3685V36.6459C111.71 36.1297 111.728 35.5276 111.762 34.8394C111.831 34.1512 111.882 33.6007 111.917 33.1877H111.71C110.885 34.6329 109.852 35.6996 108.614 36.3878C107.375 37.0416 105.878 37.3685 104.123 37.3685C100.992 37.3685 98.5145 36.0953 96.6908 33.549C94.9015 31.0028 94.0068 27.4586 94.0068 22.9166C94.0068 19.8541 94.4198 17.239 95.2456 15.0713C96.0714 12.9035 97.2413 11.2518 98.7553 10.1163C100.304 8.94641 102.127 8.36145 104.226 8.36145ZM106.291 13.6777C105.121 13.6777 104.14 14.039 103.349 14.7616C102.592 15.4498 102.007 16.482 101.594 17.8584C101.181 19.2348 100.975 20.9552 100.975 23.0198C100.975 26.0478 101.422 28.336 102.317 29.8845C103.211 31.4329 104.553 32.2071 106.343 32.2071C107.375 32.2071 108.252 32.0694 108.975 31.7942C109.697 31.4845 110.282 31.0028 110.73 30.349C111.177 29.6608 111.521 28.8006 111.762 27.7683C112.003 26.7016 112.123 25.4285 112.123 23.9489V22.9682C112.123 20.7316 111.917 18.9423 111.504 17.6003C111.125 16.224 110.506 15.2261 109.646 14.6067C108.786 13.9874 107.667 13.6777 106.291 13.6777Z" fill="white"/>
<path d="M78.6602 8.36145C81.5849 8.36145 83.8904 9.17007 85.5764 10.7873C87.2625 12.4045 88.1055 15.0196 88.1055 18.6326V36.8523H81.2409V19.923C81.2409 17.824 80.8796 16.2584 80.157 15.2261C79.4344 14.1594 78.2989 13.6261 76.7504 13.6261C74.445 13.6261 72.8794 14.4519 72.0536 16.1035C71.2278 17.7208 70.8148 20.0778 70.8148 23.1746V36.8523H63.9502V8.87759H69.2148L70.1955 12.5422H70.4535C71.0729 11.5787 71.7955 10.7873 72.6213 10.1679C73.4472 9.54857 74.3762 9.10125 75.4085 8.82598C76.4408 8.51629 77.5247 8.36145 78.6602 8.36145Z" fill="white"/>
<path d="M46.2648 8.36145C49.6369 8.36145 52.2176 9.15286 54.0069 10.7357C55.7962 12.2841 56.6908 14.7272 56.6908 18.0649V36.8523H51.8907L50.5488 32.9813H50.3423C49.5853 33.9792 48.8111 34.8222 48.0197 35.5104C47.2283 36.1641 46.3164 36.6287 45.2841 36.9039C44.2519 37.2136 43.0131 37.3685 41.5679 37.3685C40.0195 37.3685 38.6259 37.0588 37.3872 36.4394C36.1485 35.8201 35.1678 34.8738 34.4452 33.6007C33.7226 32.2931 33.3613 30.6587 33.3613 28.6973C33.3613 25.807 34.3592 23.6392 36.3549 22.194C38.3507 20.7144 41.3443 19.9058 45.3358 19.7681L49.8262 19.6133V18.2197C49.8262 16.4304 49.4477 15.1573 48.6907 14.4003C47.9337 13.6433 46.9014 13.2648 45.5938 13.2648C44.3551 13.2648 43.0992 13.4712 41.826 13.8841C40.5873 14.2971 39.3657 14.7788 38.1614 15.3293L36.0453 10.7873C37.456 10.0647 39.0217 9.47975 40.7421 9.03243C42.4626 8.58511 44.3035 8.36145 46.2648 8.36145ZM46.9358 23.7424C44.4927 23.8456 42.7895 24.3446 41.826 25.2392C40.8626 26.0994 40.3808 27.2693 40.3808 28.7489C40.3808 30.0565 40.7077 31.0028 41.3615 31.5877C42.0497 32.1727 42.9443 32.4652 44.0454 32.4652C45.6626 32.4652 47.039 31.9318 48.1745 30.8651C49.31 29.764 49.8778 28.1468 49.8778 26.0134V23.6392L46.9358 23.7424Z" fill="white"/>
<path d="M28.5425 18.0649C28.5425 22.194 27.8027 25.6521 26.3231 28.4393C24.8779 31.2264 22.7789 33.3254 20.0262 34.7362C17.2735 36.1469 13.9702 36.8523 10.1163 36.8523H0V0H11.1486C14.7272 0 17.824 0.688186 20.4391 2.06456C23.0542 3.44093 25.05 5.47108 26.4263 8.155C27.8371 10.8045 28.5425 14.1078 28.5425 18.0649ZM21.3165 18.2713C21.3165 15.3465 20.9208 12.9379 20.1294 11.0454C19.3724 9.15287 18.2197 7.75929 16.6713 6.86465C15.1573 5.9356 13.282 5.47108 11.0454 5.47108H6.91626V31.3296H10.2712C13.9874 31.3296 16.7573 30.2458 18.581 28.078C20.4047 25.8758 21.3165 22.6069 21.3165 18.2713Z" fill="white"/>
</svg>
