<svg width="410" height="375" viewBox="0 0 410 375" fill="none" xmlns="http://www.w3.org/2000/svg">
<path d="M359 31.5C356.208 31.5 353.535 30.4072 351.567 28.4691C349.601 26.5318 348.5 23.909 348.5 21.1791C348.5 19.5434 349.137 17.4768 350.228 15.1918C351.306 12.9371 352.757 10.6094 354.231 8.4913C355.702 6.37807 357.176 4.50202 358.284 3.15301C358.545 2.83531 358.785 2.54728 359 2.29274C359.215 2.54728 359.455 2.83531 359.716 3.15301C360.824 4.50202 362.298 6.37807 363.769 8.4913C365.243 10.6094 366.694 12.9371 367.772 15.1918C368.863 17.4768 369.5 19.5434 369.5 21.1791C369.5 23.909 368.399 26.5318 366.433 28.4691C364.465 30.4072 361.792 31.5 359 31.5Z" fill="#89CFF0" stroke="black" stroke-width="3"/>
<path d="M396.5 121.5C393.846 121.5 391.302 120.449 389.427 118.58C387.552 116.712 386.5 114.178 386.5 111.537C386.5 109.957 387.108 107.958 388.153 105.745C389.184 103.561 390.574 101.306 391.986 99.2532C393.395 97.2052 394.807 95.387 395.868 94.0796C396.096 93.7981 396.308 93.5406 396.5 93.31C396.692 93.5406 396.904 93.7981 397.132 94.0796C398.193 95.387 399.605 97.2052 401.014 99.2532C402.426 101.306 403.816 103.561 404.847 105.745C405.892 107.958 406.5 109.957 406.5 111.537C406.5 114.178 405.448 116.712 403.573 118.58C401.698 120.449 399.154 121.5 396.5 121.5Z" fill="#89CFF0" stroke="black" stroke-width="3"/>
<path d="M329.5 228.5C326.846 228.5 324.302 227.449 322.427 225.58C320.552 223.712 319.5 221.178 319.5 218.537C319.5 216.957 320.108 214.958 321.153 212.745C322.184 210.561 323.574 208.306 324.986 206.253C326.395 204.205 327.807 202.387 328.868 201.08C329.096 200.798 329.308 200.541 329.5 200.31C329.692 200.541 329.904 200.798 330.132 201.08C331.193 202.387 332.605 204.205 334.014 206.253C335.426 208.306 336.816 210.561 337.847 212.745C338.892 214.958 339.5 216.957 339.5 218.537C339.5 221.178 338.448 223.712 336.573 225.58C334.698 227.449 332.154 228.5 329.5 228.5Z" fill="#89CFF0" stroke="black" stroke-width="3"/>
<path d="M397.5 317.5C394.584 317.5 391.787 316.338 389.723 314.269C387.66 312.199 386.5 309.391 386.5 306.463C386.5 304.702 387.172 302.492 388.311 300.064C389.436 297.666 390.951 295.192 392.488 292.944C394.022 290.7 395.559 288.708 396.714 287.276C397.002 286.919 397.266 286.597 397.5 286.316C397.734 286.597 397.998 286.919 398.286 287.276C399.441 288.708 400.978 290.7 402.512 292.944C404.049 295.192 405.564 297.666 406.689 300.064C407.828 302.492 408.5 304.702 408.5 306.463C408.5 309.391 407.34 312.199 405.277 314.269C403.213 316.338 400.416 317.5 397.5 317.5Z" fill="#89CFF0" stroke="black" stroke-width="3"/>
<path d="M27 373.5C24.485 373.5 22.0702 372.492 20.2875 370.692C18.5043 368.892 17.5 366.447 17.5 363.896C17.5 362.371 18.0797 360.44 19.0783 358.297C20.0633 356.184 21.3908 354.002 22.7408 352.014C24.0876 350.032 25.4373 348.272 26.4518 347.006C26.6481 346.761 26.8317 346.534 27 346.329C27.1683 346.534 27.3519 346.761 27.5482 347.006C28.5627 348.272 29.9124 350.032 31.2592 352.014C32.6092 354.002 33.9367 356.184 34.9217 358.297C35.9203 360.44 36.5 362.371 36.5 363.896C36.5 366.447 35.4957 368.892 33.7125 370.692C31.9298 372.492 29.515 373.5 27 373.5Z" fill="#89CFF0" stroke="black" stroke-width="3"/>
<path d="M83.5 280.5C80.5841 280.5 77.7867 279.338 75.7234 277.269C73.66 275.199 72.5 272.391 72.5 269.463C72.5 267.702 73.1721 265.492 74.3111 263.064C75.4363 260.666 76.9509 258.192 78.4883 255.944C80.0223 253.7 81.5594 251.708 82.7144 250.276C83.0025 249.919 83.2663 249.597 83.5 249.316C83.7337 249.597 83.9975 249.919 84.2856 250.276C85.4406 251.708 86.9777 253.7 88.5117 255.944C90.0491 258.192 91.5637 260.666 92.6889 263.064C93.8279 265.492 94.5 267.702 94.5 269.463C94.5 272.391 93.34 275.199 91.2766 277.269C89.2133 279.338 86.4159 280.5 83.5 280.5Z" fill="#89CFF0" stroke="black" stroke-width="3"/>
<path d="M12 150.5C9.20801 150.5 6.53483 149.407 4.56737 147.469C2.60068 145.532 1.5 142.909 1.5 140.179C1.5 138.543 2.1369 136.477 3.22849 134.192C4.30562 131.937 5.75668 129.609 7.2311 127.491C8.70213 125.378 10.1763 123.502 11.2842 122.153C11.5451 121.835 11.7853 121.547 12 121.293C12.2147 121.547 12.4549 121.835 12.7158 122.153C13.8237 123.502 15.2979 125.378 16.7689 127.491C18.2433 129.609 19.6944 131.937 20.7715 134.192C21.8631 136.477 22.5 138.543 22.5 140.179C22.5 142.909 21.3993 145.532 19.4326 147.469C17.4652 149.407 14.792 150.5 12 150.5Z" fill="#89CFF0" stroke="black" stroke-width="3"/>
<path d="M81 76.5C78.2225 76.5 75.5541 75.3804 73.5832 73.38C71.6116 71.379 70.5 68.6603 70.5 65.8209C70.5 64.1158 71.1433 61.9733 72.2358 59.617C73.3149 57.2897 74.7678 54.8887 76.2429 52.7054C77.7148 50.5269 79.1897 48.5931 80.298 47.2027C80.5533 46.8824 80.7888 46.5913 81 46.3332C81.2112 46.5913 81.4467 46.8824 81.702 47.2027C82.8103 48.5931 84.2852 50.5269 85.7571 52.7054C87.2322 54.8887 88.6851 57.2897 89.7642 59.617C90.8567 61.9733 91.5 64.1158 91.5 65.8209C91.5 68.6603 90.3884 71.379 88.4168 73.38C86.4459 75.3804 83.7775 76.5 81 76.5Z" fill="#89CFF0" stroke="black" stroke-width="3"/>
</svg>
