<svg width="402" height="353" viewBox="0 0 402 353" fill="none" xmlns="http://www.w3.org/2000/svg">
<path d="M72.9164 28.4215L72.9137 28.4205C68.0014 26.6728 64.0753 25.2701 61.1018 23.6807C58.1506 22.1033 56.3576 20.4532 55.4852 18.3317C54.0654 14.8794 55.6681 11.0714 59.1732 9.62998C61.1637 8.81138 63.4742 8.94299 65.3195 9.87298L66.866 10.6523L67.4167 9.01053C68.0739 7.05137 69.6233 5.33241 71.6139 4.51381C75.119 3.07237 78.9369 4.65113 80.3567 8.10348C81.2291 10.225 81.1157 12.659 80.1281 15.8563C79.133 19.0777 77.3296 22.8367 75.068 27.5346L75.0668 27.5372L74.3904 28.9492L72.9164 28.4215Z" fill="#FF6347" stroke="black" stroke-width="3"/>
<path d="M17.3575 115.314L17.3551 115.313C12.983 112.472 9.48989 110.196 6.96677 107.959C4.46253 105.74 3.10173 103.718 2.74577 101.452C2.16651 97.7647 4.60968 94.433 8.35364 93.8449C10.4799 93.5109 12.6966 94.1755 14.2756 95.5085L15.5987 96.6257L16.5157 95.1567C17.6099 93.4037 19.5161 92.0915 21.6423 91.7575C25.3863 91.1694 28.7333 93.5916 29.3126 97.2793C29.6685 99.5454 28.993 101.887 27.2899 104.767C25.5739 107.669 22.9469 110.907 19.6563 114.951L19.6544 114.953L18.6687 116.17L17.3575 115.314Z" fill="#FF6347" stroke="black" stroke-width="3"/>
<path d="M97.3442 249.728L97.3414 249.728C91.4643 248.324 86.7413 247.191 83.0935 245.719C79.4692 244.257 77.1368 242.549 75.8285 240.14C73.6969 236.216 75.1181 231.48 79.0961 229.319C81.3532 228.093 84.1073 227.954 86.4147 228.821L88.0358 229.43L88.4073 227.739C88.9361 225.331 90.5517 223.096 92.8089 221.87C96.7868 219.709 101.534 221.095 103.665 225.019C104.974 227.428 105.137 230.314 104.391 234.15C103.64 238.011 102.02 242.591 99.9981 248.284L99.9971 248.287L99.3206 250.204L97.3442 249.728Z" fill="#FF6347" stroke="black" stroke-width="3"/>
<path d="M336.39 63.0731L336.389 63.0707C332.604 57.2559 329.553 52.5583 327.669 48.427C325.795 44.3187 325.181 40.9921 326.015 37.8777C327.376 32.799 332.433 29.9076 337.575 31.2856C340.491 32.0669 342.948 34.1748 344.213 36.7797L344.969 38.3374L346.403 37.3666C348.801 35.7431 351.982 35.146 354.899 35.9273C360.041 37.3053 362.975 42.3376 361.614 47.4164C360.779 50.5307 358.584 53.1046 354.907 55.7255C351.21 58.361 346.219 60.9041 340.034 64.0474L340.031 64.0487L337.771 65.2031L336.39 63.0731Z" fill="#FF6347" stroke="black" stroke-width="3"/>
<path d="M325.4 235.584L325.398 235.581C322.542 231.075 320.261 227.466 318.866 224.307C317.481 221.171 317.073 218.702 317.711 216.43C318.75 212.734 322.463 210.665 326.215 211.719C328.345 212.318 330.132 213.888 331.037 215.81L331.775 217.377L333.22 216.424C334.994 215.254 337.337 214.844 339.468 215.442C343.22 216.496 345.312 220.196 344.274 223.892C343.636 226.164 342.002 228.06 339.186 230.016C336.35 231.986 332.523 233.879 327.738 236.239L327.736 236.24L326.272 236.965L325.4 235.584Z" fill="#FF6347" stroke="black" stroke-width="3"/>
<path d="M374.484 146.187L374.484 146.184C373.039 141.089 371.888 137.012 371.453 133.613C371.021 130.239 371.331 127.777 372.578 125.799C374.607 122.58 378.717 121.662 381.984 123.722C383.84 124.891 385.095 126.887 385.412 128.969L385.673 130.681L387.331 130.178C389.346 129.567 391.688 129.838 393.543 131.008C396.811 133.068 397.755 137.172 395.726 140.391C394.479 142.369 392.392 143.71 389.161 144.775C385.907 145.849 381.731 146.569 376.512 147.463L376.509 147.463L374.921 147.738L374.484 146.187Z" fill="#FF6347" stroke="black" stroke-width="3"/>
<path d="M347.023 334.699L347.023 334.696C347.837 328.693 348.496 323.868 349.6 320.082C350.697 316.32 352.169 313.822 354.442 312.275C358.146 309.756 363.015 310.701 365.569 314.456C367.018 316.586 367.432 319.321 366.797 321.711L366.353 323.384L368.072 323.585C370.528 323.873 372.92 325.262 374.369 327.393C376.923 331.147 376.014 336.023 372.31 338.543C370.037 340.089 367.172 340.54 363.27 340.179C359.343 339.815 354.613 338.656 348.731 337.207L348.728 337.206L346.745 336.722L347.023 334.699Z" fill="#FF6347" stroke="black" stroke-width="3"/>
<path d="M38.4199 339.916L38.4171 339.916C33.1725 338.664 28.9746 337.656 25.7359 336.349C22.5205 335.052 20.4807 333.548 19.3399 331.448C17.4828 328.029 18.7187 323.904 22.1882 322.019C24.1582 320.949 26.5646 320.827 28.5793 321.584L30.2004 322.193L30.5719 320.502C31.0336 318.4 32.4455 316.447 34.4155 315.377C37.885 313.492 42.0183 314.701 43.8754 318.12C45.0162 320.22 45.1677 322.75 44.5056 326.153C43.8387 329.581 42.3994 333.651 40.5951 338.733L40.5942 338.735L40.0397 340.306L38.4199 339.916Z" fill="#FF6347" stroke="black" stroke-width="3"/>
</svg>
