<svg width="146" height="47" viewBox="0 0 146 47" fill="none" xmlns="http://www.w3.org/2000/svg">
<path d="M63.8209 37V8.44H69.1809V32.68H80.1809V37H63.8209ZM102.918 26.12C102.918 27.9333 102.692 29.5333 102.238 30.92C101.785 32.3067 101.118 33.4933 100.238 34.48C99.3851 35.44 98.3451 36.1733 97.1184 36.68C95.8918 37.16 94.5184 37.4 92.9984 37.4C91.5851 37.4 90.2651 37.16 89.0384 36.68C87.8384 36.1733 86.7984 35.44 85.9184 34.48C85.0651 33.4933 84.3984 32.3067 83.9184 30.92C83.4384 29.5333 83.1984 27.9333 83.1984 26.12C83.1984 23.72 83.5851 21.6933 84.3584 20.04C85.1584 18.36 86.3051 17.0933 87.7984 16.24C89.2918 15.36 91.0651 14.92 93.1184 14.92C95.0384 14.92 96.7318 15.36 98.1984 16.24C99.6651 17.0933 100.812 18.36 101.638 20.04C102.492 21.6933 102.918 23.72 102.918 26.12ZM88.5984 26.12C88.5984 27.64 88.7584 28.9467 89.0784 30.04C89.3984 31.1067 89.8784 31.92 90.5184 32.48C91.1851 33.04 92.0384 33.32 93.0784 33.32C94.1184 33.32 94.9584 33.04 95.5984 32.48C96.2651 31.92 96.7451 31.1067 97.0384 30.04C97.3584 28.9467 97.5184 27.64 97.5184 26.12C97.5184 24.5733 97.3584 23.28 97.0384 22.24C96.7184 21.1733 96.2251 20.3733 95.5584 19.84C94.9184 19.28 94.0784 19 93.0384 19C91.4651 19 90.3318 19.6133 89.6384 20.84C88.9451 22.0667 88.5984 23.8267 88.5984 26.12ZM121.84 30.72C121.84 32.16 121.52 33.3867 120.88 34.4C120.24 35.3867 119.293 36.1333 118.04 36.64C116.786 37.1467 115.213 37.4 113.32 37.4C111.88 37.4 110.626 37.2933 109.56 37.08C108.493 36.8667 107.466 36.5333 106.48 36.08V31.8C107.546 32.3067 108.693 32.7333 109.92 33.08C111.173 33.4267 112.306 33.6 113.32 33.6C114.52 33.6 115.386 33.3867 115.92 32.96C116.453 32.5333 116.72 31.96 116.72 31.24C116.72 30.8133 116.6 30.4267 116.36 30.08C116.146 29.7333 115.693 29.3733 115 29C114.333 28.6 113.36 28.1067 112.08 27.52C110.826 26.96 109.786 26.4 108.96 25.84C108.133 25.28 107.506 24.6133 107.08 23.84C106.653 23.04 106.44 22.04 106.44 20.84C106.44 18.8933 107.173 17.4267 108.64 16.44C110.133 15.4267 112.08 14.92 114.48 14.92C115.786 14.92 117 15.0533 118.12 15.32C119.266 15.56 120.413 15.96 121.56 16.52L120 20.24C119.36 19.9467 118.706 19.6933 118.04 19.48C117.4 19.24 116.773 19.0533 116.16 18.92C115.573 18.7867 114.986 18.72 114.4 18.72C113.466 18.72 112.76 18.8933 112.28 19.24C111.8 19.56 111.56 20.0267 111.56 20.64C111.56 21.0667 111.68 21.4533 111.92 21.8C112.16 22.12 112.613 22.4533 113.28 22.8C113.946 23.1467 114.893 23.5867 116.12 24.12C117.346 24.6 118.386 25.12 119.24 25.68C120.093 26.2133 120.733 26.88 121.16 27.68C121.613 28.48 121.84 29.4933 121.84 30.72ZM134.791 14.92C136.657 14.92 138.257 15.32 139.591 16.12C140.951 16.8933 142.004 18.0133 142.751 19.48C143.497 20.92 143.871 22.68 143.871 24.76V27.32H130.591C130.644 29.2933 131.124 30.8267 132.031 31.92C132.964 32.9867 134.271 33.52 135.951 33.52C137.284 33.52 138.471 33.3867 139.511 33.12C140.551 32.8267 141.631 32.4133 142.751 31.88V35.92C141.737 36.4267 140.684 36.8 139.591 37.04C138.497 37.28 137.151 37.4 135.551 37.4C133.524 37.4 131.724 37 130.151 36.2C128.604 35.3733 127.391 34.1333 126.511 32.48C125.631 30.8267 125.191 28.7733 125.191 26.32C125.191 23.84 125.591 21.76 126.391 20.08C127.191 18.3733 128.311 17.0933 129.751 16.24C131.217 15.36 132.897 14.92 134.791 14.92ZM134.871 18.64C133.671 18.64 132.697 19.08 131.951 19.96C131.231 20.8133 130.804 22.0933 130.671 23.8H138.831C138.831 22.7867 138.684 21.8933 138.391 21.12C138.097 20.3467 137.657 19.7467 137.071 19.32C136.511 18.8667 135.777 18.64 134.871 18.64Z" fill="black"/>
<path d="M40.1689 12.7672L40.4143 13.9878L41.6484 14.1523C43.5737 14.409 45.3228 15.3776 46.5442 16.8547C47.7649 18.3311 48.3685 20.206 48.2384 22.0996C48.1083 23.9934 47.2535 25.7725 45.8399 27.0746C44.4257 28.3773 42.5583 29.1043 40.615 29.1021H40.6131L10.9245 29.1021C10.9241 29.1021 10.9237 29.1021 10.9233 29.1021C9.66919 29.1 8.42926 28.8454 7.27962 28.3544C6.12965 27.8633 5.09498 27.1465 4.23824 26.2489C3.38155 25.3515 2.72075 24.2923 2.29504 23.1367C1.86934 21.9812 1.68733 20.7529 1.75964 19.5266C1.83195 18.3003 2.15714 17.1006 2.71615 16.0009C3.27519 14.9011 4.05665 13.9239 5.01391 13.1298C5.97123 12.3357 7.08405 11.7417 8.28467 11.3853C9.48532 11.029 10.7475 10.9181 11.9937 11.0598L13.2743 11.2054L13.7895 10.024C14.9579 7.34502 16.9661 5.10071 19.5248 3.62285C22.0837 2.14479 25.0571 1.51229 28.0095 1.82024C30.9617 2.12818 33.7335 3.35985 35.9205 5.33107C38.1072 7.30199 39.5942 9.90831 40.1689 12.7672Z" fill="#D9D9D9" stroke="black" stroke-width="3.48837"/>
<path d="M12.22 33.866C12.4148 33.9301 12.5949 34.0314 12.75 34.1643C12.9051 34.2971 13.0321 34.4588 13.1239 34.6401C13.2156 34.8215 13.2702 35.0189 13.2846 35.221C13.2989 35.4232 13.2728 35.6262 13.2076 35.8184L11.6449 40.4449C11.5861 40.644 11.4871 40.8294 11.3539 40.9899C11.2208 41.1505 11.0562 41.2828 10.87 41.3791C10.6838 41.4754 10.4798 41.5336 10.2703 41.5503C10.0608 41.5669 9.84998 41.5417 9.65056 41.4761C9.45114 41.4105 9.26718 41.3059 9.10969 41.1685C8.9522 41.0311 8.82442 40.8637 8.734 40.6764C8.64358 40.4892 8.59237 40.2858 8.58344 40.0786C8.57451 39.8713 8.60805 39.6644 8.68204 39.4702L10.2447 34.8437C10.3753 34.4556 10.6568 34.1345 11.0272 33.9512C11.3976 33.7678 11.8267 33.7372 12.22 33.866ZM21.5962 33.866C21.791 33.9301 21.9711 34.0314 22.1262 34.1643C22.2813 34.2971 22.4083 34.4588 22.5 34.6401C22.5918 34.8215 22.6464 35.0189 22.6607 35.221C22.6751 35.4232 22.649 35.6262 22.5838 35.8184L19.4584 45.0714C19.3995 45.2705 19.3006 45.4559 19.1674 45.6165C19.0343 45.777 18.8697 45.9093 18.6835 46.0056C18.4973 46.1019 18.2933 46.1601 18.0838 46.1768C17.8742 46.1934 17.6635 46.1682 17.464 46.1026C17.2646 46.037 17.0807 45.9324 16.9232 45.795C16.7657 45.6576 16.6379 45.4902 16.5475 45.303C16.4571 45.1157 16.4059 44.9123 16.3969 44.7051C16.388 44.4978 16.4215 44.2909 16.4955 44.0967L19.6209 34.8437C19.7515 34.4556 20.033 34.1345 20.4034 33.9512C20.7738 33.7678 21.2029 33.7372 21.5962 33.866ZM30.9724 33.866C31.1672 33.9301 31.3473 34.0314 31.5024 34.1643C31.6574 34.2971 31.7845 34.4588 31.8762 34.6401C31.9679 34.8215 32.0225 35.0189 32.0369 35.221C32.0513 35.4232 32.0251 35.6262 31.96 35.8184L30.3973 40.4449C30.3384 40.644 30.2395 40.8294 30.1063 40.9899C29.9731 41.1505 29.8085 41.2828 29.6223 41.3791C29.4361 41.4754 29.2322 41.5336 29.0227 41.5503C28.8131 41.5669 28.6023 41.5417 28.4029 41.4761C28.2035 41.4105 28.0195 41.3059 27.862 41.1685C27.7046 41.0311 27.5768 40.8637 27.4864 40.6764C27.3959 40.4892 27.3447 40.2858 27.3358 40.0786C27.3269 39.8713 27.3604 39.6644 27.4344 39.4702L28.9971 34.8437C29.1277 34.4556 29.4091 34.1345 29.7796 33.9512C30.15 33.7678 30.579 33.7372 30.9724 33.866ZM40.3485 33.866C40.5433 33.9301 40.7234 34.0314 40.8785 34.1643C41.0336 34.2971 41.1607 34.4588 41.2524 34.6401C41.3441 34.8215 41.3987 35.0189 41.4131 35.221C41.4275 35.4232 41.4013 35.6262 41.3362 35.8184L38.2108 45.0714C38.1519 45.2705 38.0529 45.4559 37.9198 45.6165C37.7866 45.777 37.622 45.9093 37.4358 46.0056C37.2496 46.1019 37.0457 46.1601 36.8361 46.1768C36.6266 46.1934 36.4158 46.1682 36.2164 46.1026C36.017 46.037 35.833 45.9324 35.6755 45.795C35.518 45.6576 35.3903 45.4902 35.2998 45.303C35.2094 45.1157 35.1582 44.9123 35.1493 44.7051C35.1404 44.4978 35.1739 44.2909 35.2479 44.0967L38.3733 34.8437C38.5039 34.4556 38.7853 34.1345 39.1557 33.9512C39.5262 33.7678 39.9552 33.7372 40.3485 33.866Z" fill="black"/>
</svg>
